<svg width="512" height="512" viewBox="0 0 512 512" fill="none" xmlns="http://www.w3.org/2000/svg">
<g clip-path="url(#clip0_330_819)">
<path d="M0 185.295C0 120.436 0 88.0061 12.6225 63.2331C23.7255 41.4421 41.4421 23.7255 63.2331 12.6225C88.0061 0 120.436 0 185.295 0H326.705C391.564 0 423.994 0 448.767 12.6225C470.558 23.7255 488.275 41.4421 499.378 63.2331C512 88.0061 512 120.436 512 185.295V326.705C512 391.564 512 423.994 499.378 448.767C488.275 470.558 470.558 488.275 448.767 499.378C423.994 512 391.564 512 326.705 512H185.295C120.436 512 88.0061 512 63.2331 499.378C41.4421 488.275 23.7255 470.558 12.6225 448.767C0 423.994 0 391.564 0 326.705V185.295Z" fill="#470137"/>
<path d="M54.8741 378.442V150.291C54.7109 148.848 55.7642 147.516 57.1429 147.421C78.104 145.898 99.3519 146.35 120.348 146.345C161.4 146.345 203.063 161.211 223.257 201.41C231.791 218.511 236.059 238.181 236.061 260.42C236.311 275.951 234.065 291.414 229.416 306.158C225.403 318.646 219.252 330.257 211.265 340.417C203.826 349.773 195.018 357.826 185.173 364.272C148.169 388.465 98.8265 384.72 56.8185 382.029C55.5219 382.029 54.8738 380.833 54.8741 378.442ZM99.6032 190.468V338.982C149.046 338.982 190.223 318.041 189.387 261.497C190.473 204.179 147.216 187.42 99.6032 190.468Z" fill="#FF61F6"/>
<path d="M425.814 382.065H386.151C383.975 382.376 382.941 380.366 382.344 378.477C374.251 336.614 365.774 295.393 358.228 254.716C349.3 296.084 340.221 337.351 330.306 378.477C329.879 380.871 328.72 382.065 326.815 382.065H287.152C284.936 382.315 283.339 381.019 282.71 378.836L241.461 206.647C240.826 204.735 241.673 203.779 243.999 203.777H283.98C285.883 203.777 286.941 204.494 287.152 205.929C296.265 248.187 304.253 290.532 310.951 333.278C319.152 290.937 328.689 248.603 337.286 207.364C337.473 205.073 338.178 203.777 340.459 203.777H382.027C383.296 203.777 384.034 204.618 384.248 206.288C393.557 248.42 400.741 289.823 408.046 334.713C417.875 292.439 423.555 249.072 433.112 206.647C433.534 204.735 434.486 203.779 435.968 203.777H473.093C474.996 203.777 475.736 204.853 475.314 207.005L429.622 378.836C429.048 380.738 427.908 382.341 425.814 382.065Z" fill="#FF61F6"/>
</g>
<defs>
<clipPath id="clip0_330_819">
<rect width="512" height="512" fill="white"/>
</clipPath>
</defs>
</svg>
