<svg width="512" height="512" viewBox="0 0 512 512" fill="none" xmlns="http://www.w3.org/2000/svg">
<g clip-path="url(#clip0_330_824)">
<path d="M99.6032 338.982V190.468C147.216 187.42 190.473 204.179 189.387 261.497C190.223 318.041 149.046 338.982 99.6032 338.982Z" fill="#470137"/>
<path fill-rule="evenodd" clip-rule="evenodd" d="M12.6225 63.2331C0 88.0061 0 120.436 0 185.295V326.705C0 391.564 0 423.994 12.6225 448.767C23.7255 470.558 41.4421 488.275 63.2331 499.378C88.006 512 120.435 512 185.294 512H326.705C391.564 512 423.994 512 448.767 499.378C470.558 488.275 488.275 470.558 499.378 448.767C512 423.994 512 391.564 512 326.706V185.295C512 120.436 512 88.006 499.378 63.2331C488.275 41.4421 470.558 23.7255 448.767 12.6225C423.994 0 391.564 0 326.705 0H185.295C120.436 0 88.0061 0 63.2331 12.6225C41.4421 23.7255 23.7255 41.4421 12.6225 63.2331ZM54.8741 150.291V378.442C54.8738 380.833 55.5219 382.029 56.8185 382.029L59.4803 382.2C100.898 384.865 148.948 387.956 185.173 364.272C195.018 357.826 203.826 349.773 211.265 340.417C219.252 330.257 225.403 318.646 229.416 306.158C234.065 291.414 236.311 275.951 236.061 260.42C236.059 238.181 231.791 218.511 223.257 201.41C203.063 161.211 161.4 146.345 120.348 146.345C116.414 146.346 112.471 146.33 108.523 146.315H108.515C91.3945 146.25 74.1737 146.183 57.1429 147.421C55.7642 147.516 54.7109 148.848 54.8741 150.291ZM386.151 382.065H425.814C427.908 382.341 429.048 380.738 429.622 378.836L475.314 207.005C475.736 204.853 474.996 203.777 473.093 203.777H435.968C434.486 203.779 433.534 204.735 433.112 206.647C428.505 227.101 424.798 247.773 421.094 268.437C417.114 290.634 413.136 312.82 408.046 334.713C400.741 289.823 393.557 248.42 384.248 206.288C384.034 204.618 383.296 203.777 382.027 203.777H340.459C338.178 203.777 337.473 205.073 337.286 207.364C334.32 221.592 331.242 235.949 328.146 250.393L328.145 250.395C322.267 277.816 316.323 305.545 310.951 333.278C304.253 290.532 296.265 248.187 287.152 205.929C286.941 204.494 285.883 203.777 283.98 203.777H243.999C241.673 203.779 240.826 204.735 241.461 206.647L282.71 378.836C283.339 381.019 284.936 382.315 287.152 382.065H326.815C328.72 382.065 329.879 380.871 330.306 378.477C340.221 337.351 349.3 296.083 358.228 254.716C362.885 279.817 367.896 305.125 372.952 330.663L372.958 330.691C376.093 346.53 379.247 362.456 382.344 378.477C382.941 380.366 383.975 382.376 386.151 382.065Z" fill="#470137"/>
</g>
<defs>
<clipPath id="clip0_330_824">
<rect width="512" height="512" fill="white"/>
</clipPath>
</defs>
</svg>
