<svg width="512" height="512" viewBox="0 0 512 512" fill="none" xmlns="http://www.w3.org/2000/svg">
<g clip-path="url(#clip0_102_1163)">
<path d="M256.004 512.008C397.391 512.008 512.008 397.391 512.008 256.004C512.008 114.617 397.391 0 256.004 0C114.617 0 0 114.617 0 256.004C0 397.391 114.617 512.008 256.004 512.008Z" fill="#60B57D"/>
<path d="M235.639 118.287C238.743 120.78 239.238 125.318 236.744 128.422C234.251 131.526 229.713 132.021 226.609 129.527C207.816 114.431 192.162 109.447 182.507 114.376C171.271 120.106 166.914 138.542 169.182 164.269L169.523 167.742C169.714 169.499 169.933 171.288 170.183 173.107L170.72 176.783C171.387 181.083 172.211 185.536 173.191 190.123C186.723 188.025 201.289 186.654 216.585 186.083C223.221 177.558 229.968 169.556 236.743 162.147L240.139 158.486C248.632 149.46 257.151 141.381 265.533 134.388L268.878 131.649C299.469 107.079 327.941 97.3567 346.353 109.311C362.393 119.717 366.692 143.29 360.735 174.878C359.997 178.791 356.227 181.364 352.315 180.627C348.402 179.889 345.829 176.119 346.567 172.206C351.555 145.752 348.271 127.742 338.504 121.406C325.811 113.164 302.222 122.652 275.625 144.809L272.658 147.323C271.169 148.605 269.671 149.926 268.166 151.285L265.148 154.053C262.121 156.87 259.069 159.836 256.003 162.943L252.934 166.097C252.422 166.63 251.909 167.168 251.396 167.709L248.318 171.001L245.236 174.384L242.153 177.856C241.126 179.028 240.099 180.214 239.072 181.415L235.995 185.059L235.396 185.786C242.568 185.824 249.865 186.032 257.259 186.416L260.13 186.574L265.835 186.94C270.568 187.272 275.248 187.672 279.869 188.138L285.384 188.728C286.298 188.831 287.21 188.937 288.119 189.046L293.543 189.728C298.035 190.322 302.461 190.979 306.811 191.695L311.996 192.585L317.105 193.53L322.137 194.532C338.777 197.963 354.075 202.308 367.558 207.4L371.547 208.95C406.956 223.099 428.776 242.575 427.656 264.102C426.728 281.899 410.776 296.589 384.038 307.117C380.333 308.575 376.147 306.755 374.689 303.05C373.23 299.345 375.051 295.16 378.755 293.701C400.804 285.02 412.699 274.066 413.257 263.352C413.971 249.635 397.56 235.45 370.242 224.007L366.843 222.62C364.541 221.705 362.168 220.808 359.728 219.933L356.017 218.636C354.763 218.209 353.493 217.788 352.207 217.372L348.301 216.141L344.301 214.946C343.626 214.75 342.948 214.555 342.266 214.362L338.131 213.222C337.434 213.036 336.734 212.85 336.03 212.667L331.764 211.585C327.455 210.524 323.021 209.523 318.474 208.589L313.888 207.678C313.118 207.53 312.344 207.384 311.568 207.239L306.873 206.397L302.108 205.602C301.309 205.474 300.506 205.348 299.701 205.223L294.836 204.503C293.204 204.271 291.562 204.048 289.909 203.833L284.92 203.216L279.874 202.652C277.336 202.384 274.778 202.137 272.2 201.91L267.019 201.487C265.283 201.355 263.54 201.233 261.788 201.121L256.51 200.815L251.229 200.572L245.989 200.393C239.9 200.221 233.898 200.177 228.004 200.255L223.884 200.333L222.265 202.481C221.258 203.831 220.254 205.194 219.253 206.57L216.261 210.734C212.783 215.637 209.351 220.69 205.98 225.885C205.017 227.369 204.067 228.853 203.129 230.336L200.354 234.785C197.398 239.585 194.576 244.375 191.889 249.138C192.136 249.742 192.387 250.347 192.639 250.954L194.599 255.582C194.932 256.356 195.268 257.13 195.607 257.906L197.68 262.569L199.829 267.251L202.052 271.95L204.351 276.663L206.725 281.386L209.154 286.081L211.619 290.71L214.117 295.269C214.536 296.023 214.957 296.774 215.378 297.523L217.921 301.975C218.774 303.448 219.631 304.907 220.492 306.355L223.088 310.659C223.957 312.081 224.831 313.491 225.707 314.887L228.347 319.036L231.005 323.104C233.228 326.461 235.467 329.731 237.717 332.912L240.423 336.685C242.23 339.171 244.042 341.598 245.858 343.964L248.582 347.466L251.308 350.874C251.763 351.434 252.217 351.99 252.671 352.543L255.396 355.807L258.117 358.973C260.835 362.089 263.545 365.056 266.235 367.864L268.919 370.619L271.588 373.267C272.918 374.564 274.242 375.82 275.558 377.034L278.18 379.406C279.485 380.564 280.782 381.68 282.069 382.751L284.63 384.837C302.034 398.686 317.456 404.279 327.695 399.057C337.311 394.154 341.899 379.841 341.561 359.542L341.473 356.452C341.431 355.408 341.378 354.349 341.311 353.276L341.076 350.015C340.985 348.914 340.882 347.799 340.767 346.671L340.385 343.249C340.315 342.672 340.242 342.091 340.166 341.508L339.673 337.971L339.107 334.361L338.467 330.68C337.904 327.584 337.264 324.417 336.548 321.186L335.652 317.278L334.684 313.312C334.516 312.646 334.346 311.978 334.172 311.307L333.094 307.257L331.943 303.155C331.746 302.467 331.545 301.777 331.341 301.085L330.081 296.908L328.749 292.685C328.064 290.563 327.353 288.424 326.614 286.27L325.1 281.944L323.514 277.58C322.433 274.659 321.303 271.715 320.125 268.751L318.323 264.291L316.448 259.804C316.13 259.054 315.808 258.303 315.484 257.552L313.501 253.029L311.447 248.487C311.098 247.728 310.747 246.969 310.393 246.208L308.23 241.64C307.864 240.877 307.495 240.114 307.122 239.35C305.378 235.771 306.865 231.456 310.444 229.711C314.023 227.967 318.338 229.454 320.083 233.033L322.474 238.011C323.258 239.669 324.029 241.324 324.787 242.976L327.021 247.923C329.216 252.861 331.291 257.769 333.246 262.636L335.161 267.488C335.473 268.295 335.782 269.1 336.088 269.903L337.88 274.709C338.172 275.507 338.461 276.304 338.746 277.099L340.416 281.852C341.501 285.008 342.532 288.139 343.507 291.24L344.927 295.87C361.927 352.688 359.746 398.899 334.246 411.901C313.619 422.422 284.374 407.809 254.935 376.991L251.89 373.745C249.859 371.544 247.829 369.266 245.803 366.916L242.765 363.337C234.674 353.649 226.656 342.821 218.89 331.041L215.989 326.58C208.769 315.316 201.789 303.236 195.194 290.494L193.88 287.936C193.008 286.226 192.149 284.517 191.304 282.809L188.809 277.691C186.846 273.601 184.962 269.524 183.158 265.465L181.994 267.769C181.635 268.49 181.279 269.209 180.927 269.927L178.852 274.222L176.857 278.485L174.943 282.715C174.631 283.417 174.322 284.117 174.016 284.816L172.223 288.989C171.931 289.681 171.642 290.372 171.357 291.061L169.686 295.171C169.415 295.852 169.147 296.532 168.882 297.21L167.335 301.251C167.084 301.92 166.836 302.588 166.592 303.253L165.169 307.219L163.83 311.132C163.181 313.074 162.563 314.995 161.978 316.893L160.849 320.658L159.805 324.36C159.638 324.972 159.474 325.58 159.314 326.186L158.398 329.787C157.671 332.759 157.033 335.657 156.486 338.474L155.873 341.815C151.792 365.474 154.451 382.922 164.562 389.484C174.745 396.09 193.628 391.065 216.928 374.243C220.157 371.913 224.663 372.64 226.993 375.869C229.324 379.097 228.596 383.603 225.368 385.933C197.753 405.87 173.342 412.367 156.714 401.579C136.623 388.54 135.211 354.065 148.583 311.175L149.969 306.858C150.926 303.963 151.948 301.032 153.034 298.069L154.711 293.601C157.01 287.614 159.563 281.509 162.36 275.315L164.504 270.654L166.739 265.963C169.585 260.087 172.642 254.148 175.902 248.17C175.47 247.065 175.042 245.964 174.62 244.864L172.754 239.913C170.325 233.334 168.125 226.848 166.162 220.487L164.734 215.74C163.852 212.731 163.025 209.752 162.253 206.807C161.364 206.985 160.484 207.167 159.61 207.352L155.69 208.214L151.864 209.119C151.235 209.274 150.609 209.43 149.988 209.587L146.31 210.555L142.733 211.562C141.558 211.904 140.401 212.253 139.261 212.608L135.896 213.693C134.792 214.06 133.706 214.434 132.64 214.814L129.496 215.972C107.89 224.197 94.729 234.992 94.1174 246.749C93.5585 257.464 104.252 269.594 125.284 280.515C128.818 282.349 130.195 286.701 128.36 290.235C126.525 293.768 122.173 295.146 118.64 293.311C93.1334 280.067 78.7904 263.797 79.7187 245.999C81.0093 221.187 112.329 202.248 158.915 192.686C149.486 147.635 154.284 112.584 175.955 101.533C191.972 93.3561 212.897 100.019 235.639 118.287ZM275.146 252.389C277.538 263.46 270.503 274.367 259.431 276.764C248.36 279.156 237.453 272.12 235.056 261.049C232.669 249.978 239.7 239.07 250.771 236.674C261.842 234.282 272.749 241.317 275.146 252.389ZM205.349 201.175L204.048 201.266C203.055 201.338 202.067 201.413 201.083 201.492L196.393 201.896L191.772 202.353C191.008 202.433 190.247 202.516 189.489 202.601L184.979 203.135C184.233 203.228 183.491 203.323 182.752 203.42L178.356 204.029L176.612 204.295L177.229 206.596C178.194 210.103 179.239 213.667 180.364 217.281L181.753 221.641C181.99 222.372 182.231 223.104 182.476 223.838L183.979 228.265C184.393 229.46 184.815 230.659 185.246 231.862C187.53 228.064 189.891 224.258 192.328 220.453L193.885 218.036C197.638 212.253 201.465 206.628 205.349 201.175Z" fill="white"/>
</g>
<defs>
<clipPath id="clip0_102_1163">
<rect width="512" height="512" fill="white"/>
</clipPath>
</defs>
</svg>
