<svg width="512" height="512" viewBox="0 0 512 512" fill="none" xmlns="http://www.w3.org/2000/svg">
<g clip-path="url(#clip0_322_448)">
<path d="M204.048 201.266L205.349 201.175C201.465 206.628 197.638 212.253 193.885 218.036L192.328 220.453C189.891 224.258 187.53 228.064 185.246 231.862C184.815 230.659 184.393 229.46 183.979 228.265L182.476 223.838C182.231 223.104 181.99 222.372 181.753 221.641L180.364 217.281C179.239 213.667 178.194 210.103 177.229 206.596L176.612 204.295L178.356 204.029L182.752 203.42C183.491 203.323 184.233 203.228 184.979 203.135L189.489 202.601C190.247 202.516 191.008 202.433 191.772 202.353L196.393 201.896L201.083 201.492C202.067 201.413 203.055 201.338 204.048 201.266Z" fill="#60B57D"/>
<path fill-rule="evenodd" clip-rule="evenodd" d="M512.008 256.004C512.008 397.391 397.391 512.008 256.004 512.008C114.617 512.008 0 397.391 0 256.004C0 114.617 114.617 0 256.004 0C397.391 0 512.008 114.617 512.008 256.004ZM236.744 128.422C239.238 125.318 238.743 120.78 235.639 118.287C212.897 100.019 191.972 93.3561 175.955 101.533C154.284 112.584 149.486 147.635 158.915 192.686C112.329 202.248 81.0093 221.187 79.7187 245.999C78.7904 263.797 93.1334 280.067 118.64 293.311C122.173 295.146 126.525 293.768 128.36 290.235C130.195 286.701 128.818 282.349 125.284 280.515C104.252 269.594 93.5585 257.464 94.1174 246.749C94.729 234.992 107.89 224.197 129.496 215.972L132.64 214.814C133.706 214.434 134.792 214.06 135.896 213.693L139.261 212.608C140.401 212.253 141.558 211.904 142.733 211.562L146.31 210.555L149.988 209.587C150.609 209.43 151.235 209.274 151.864 209.119L155.69 208.214L159.61 207.352C160.484 207.167 161.364 206.985 162.253 206.807C163.025 209.752 163.852 212.731 164.734 215.74L166.162 220.487C168.125 226.848 170.325 233.334 172.754 239.913L174.62 244.864C175.042 245.964 175.47 247.065 175.902 248.17C172.643 254.148 169.585 260.087 166.739 265.963L164.504 270.654L162.36 275.315C159.563 281.509 157.01 287.614 154.711 293.601L153.034 298.069C151.948 301.032 150.926 303.963 149.969 306.858L148.583 311.175C135.211 354.065 136.623 388.54 156.714 401.579C173.342 412.367 197.753 405.87 225.368 385.933C228.596 383.603 229.324 379.097 226.993 375.869C224.663 372.64 220.157 371.913 216.928 374.243C193.628 391.065 174.745 396.09 164.562 389.484C154.451 382.922 151.792 365.474 155.873 341.815L156.486 338.474C157.033 335.657 157.671 332.759 158.398 329.787L159.314 326.186C159.474 325.58 159.638 324.972 159.805 324.36L160.849 320.658L161.978 316.893C162.563 314.995 163.181 313.074 163.83 311.132L165.169 307.219L166.592 303.253C166.836 302.588 167.084 301.92 167.335 301.251L168.882 297.21C169.147 296.532 169.415 295.852 169.686 295.171L171.357 291.061C171.642 290.372 171.931 289.681 172.223 288.989L174.016 284.816C174.322 284.117 174.631 283.417 174.943 282.715L176.857 278.485L178.852 274.222L180.927 269.927C181.279 269.209 181.635 268.49 181.994 267.769L183.158 265.465C184.962 269.524 186.846 273.601 188.809 277.691L191.304 282.809C192.149 284.517 193.008 286.226 193.88 287.936L195.194 290.494C201.789 303.236 208.769 315.316 215.989 326.58L218.89 331.041C226.656 342.821 234.674 353.649 242.765 363.337L245.803 366.916C247.829 369.266 249.859 371.544 251.89 373.745L254.935 376.991C284.374 407.809 313.619 422.422 334.246 411.901C359.746 398.899 361.927 352.688 344.927 295.87L343.507 291.24C342.532 288.139 341.501 285.008 340.416 281.852L338.746 277.099C338.461 276.304 338.172 275.507 337.88 274.709L336.088 269.903C335.782 269.1 335.473 268.295 335.161 267.488L333.246 262.636C331.291 257.769 329.216 252.861 327.021 247.923L324.787 242.976C324.029 241.324 323.258 239.669 322.474 238.011L320.083 233.033C318.338 229.454 314.023 227.967 310.444 229.711C306.865 231.456 305.378 235.771 307.122 239.35C307.495 240.114 307.864 240.877 308.23 241.64L310.393 246.208C310.747 246.969 311.098 247.728 311.447 248.487L313.501 253.029L315.484 257.552C315.808 258.303 316.13 259.054 316.448 259.804L318.323 264.291L320.125 268.751C321.303 271.715 322.433 274.659 323.514 277.58L325.1 281.944L326.614 286.27C327.353 288.424 328.064 290.563 328.749 292.685L330.081 296.908L331.341 301.085C331.545 301.777 331.746 302.467 331.943 303.155L333.094 307.257L334.172 311.307C334.346 311.978 334.516 312.646 334.684 313.312L335.652 317.278L336.548 321.186C337.264 324.417 337.904 327.584 338.467 330.68L339.107 334.361L339.673 337.971L340.166 341.508C340.242 342.091 340.315 342.672 340.385 343.249L340.767 346.671C340.882 347.799 340.985 348.914 341.076 350.015L341.311 353.276C341.378 354.349 341.431 355.408 341.473 356.452L341.561 359.542C341.899 379.841 337.311 394.154 327.695 399.057C317.456 404.279 302.034 398.686 284.63 384.837L282.069 382.751C280.782 381.68 279.485 380.564 278.18 379.406L275.558 377.034C274.242 375.82 272.918 374.564 271.588 373.267L268.919 370.619L266.235 367.864C263.545 365.056 260.835 362.089 258.117 358.973L255.396 355.807L252.671 352.543C252.217 351.99 251.763 351.434 251.308 350.874L248.582 347.466L245.858 343.964C244.042 341.598 242.23 339.171 240.423 336.685L237.717 332.912C235.467 329.732 233.228 326.461 231.005 323.104L228.347 319.036L225.707 314.887C224.831 313.491 223.957 312.081 223.088 310.659L220.492 306.355C219.631 304.907 218.774 303.448 217.921 301.975L215.378 297.523C214.957 296.774 214.536 296.023 214.117 295.269L211.619 290.71L209.154 286.081L206.725 281.386L204.351 276.663L202.052 271.95L199.829 267.251L197.68 262.569L195.607 257.906C195.268 257.13 194.932 256.356 194.599 255.582L192.639 250.954C192.387 250.347 192.136 249.742 191.889 249.138C194.576 244.375 197.398 239.585 200.354 234.785L203.129 230.336C204.067 228.853 205.017 227.369 205.98 225.885C209.351 220.69 212.783 215.637 216.261 210.734L219.253 206.57C220.254 205.194 221.258 203.831 222.265 202.481L223.884 200.333L228.004 200.255C233.898 200.177 239.9 200.221 245.989 200.393L251.229 200.572L256.51 200.815L261.788 201.121C263.54 201.233 265.283 201.355 267.019 201.487L272.2 201.91C274.778 202.137 277.336 202.384 279.874 202.652L284.92 203.216L289.909 203.833C291.562 204.048 293.204 204.271 294.836 204.503L299.701 205.223C300.506 205.348 301.309 205.474 302.108 205.602L306.873 206.397L311.568 207.239C312.344 207.384 313.118 207.53 313.888 207.678L318.474 208.589C323.021 209.523 327.455 210.524 331.764 211.585L336.03 212.667C336.347 212.749 336.663 212.832 336.978 212.916C337.363 213.017 337.748 213.12 338.131 213.222L342.266 214.362C342.948 214.555 343.626 214.75 344.301 214.946L348.301 216.141L352.207 217.372C353.493 217.788 354.763 218.209 356.017 218.636L359.728 219.933C362.168 220.808 364.541 221.705 366.843 222.62L370.242 224.007C397.56 235.45 413.971 249.635 413.257 263.352C412.699 274.066 400.804 285.02 378.755 293.701C375.051 295.16 373.23 299.345 374.689 303.05C376.147 306.755 380.333 308.575 384.038 307.117C410.776 296.589 426.728 281.899 427.656 264.102C428.776 242.575 406.956 223.099 371.547 208.95L367.558 207.4C354.075 202.308 338.777 197.963 322.137 194.532L317.105 193.53L311.996 192.585L306.811 191.695C302.461 190.979 298.035 190.322 293.543 189.728L288.119 189.046C287.21 188.937 286.298 188.831 285.384 188.728L279.869 188.138C275.248 187.672 270.568 187.272 265.835 186.94L260.13 186.574L257.259 186.416C249.865 186.032 242.568 185.824 235.396 185.786L235.995 185.059L239.072 181.415C240.099 180.214 241.126 179.028 242.153 177.856L245.236 174.384L248.318 171.001L251.396 167.709C251.909 167.168 252.422 166.63 252.934 166.097L256.003 162.943C259.069 159.836 262.121 156.87 265.148 154.053L268.166 151.285C269.671 149.926 271.169 148.605 272.658 147.323L275.625 144.809C302.222 122.652 325.811 113.164 338.504 121.406C348.271 127.742 351.555 145.752 346.567 172.206C345.829 176.119 348.402 179.889 352.315 180.627C356.227 181.364 359.997 178.791 360.735 174.878C366.692 143.29 362.393 119.717 346.353 109.311C327.941 97.3567 299.469 107.079 268.878 131.649L265.533 134.388C257.151 141.381 248.632 149.46 240.139 158.486L236.743 162.147C229.968 169.556 223.221 177.558 216.585 186.083C201.289 186.654 186.723 188.025 173.191 190.123C172.211 185.536 171.387 181.083 170.72 176.783L170.183 173.107C169.933 171.288 169.714 169.499 169.523 167.742L169.182 164.269C166.914 138.542 171.271 120.106 182.507 114.376C192.162 109.447 207.816 114.431 226.609 129.527C229.713 132.021 234.251 131.526 236.744 128.422ZM259.431 276.764C270.503 274.367 277.538 263.46 275.146 252.389C272.75 241.317 261.842 234.282 250.771 236.674C239.7 239.07 232.669 249.978 235.056 261.049C237.453 272.12 248.36 279.156 259.431 276.764Z" fill="#60B57D"/>
</g>
<defs>
<clipPath id="clip0_322_448">
<rect width="512" height="512" fill="white"/>
</clipPath>
</defs>
</svg>
