<svg width="512" height="512" viewBox="0 0 512 512" fill="none" xmlns="http://www.w3.org/2000/svg">
<g clip-path="url(#clip0_324_405)">
<g filter="url(#filter0_d_324_405)">
<path d="M399.36 107.52V353.28H271.36V291.84H343.04V163.84H271.36V107.52H399.36Z" fill="#4D4D4D"/>
<path d="M240.64 163.84V107.52H112.64V353.28H240.64V291.84H168.96V163.84H240.64Z" fill="#4D4D4D"/>
<path fill-rule="evenodd" clip-rule="evenodd" d="M512 102.4C512 46.08 465.92 0 409.6 0H102.4C46.08 0 0 46.08 0 102.4V409.6C0 465.92 46.08 512 102.4 512H409.6C465.92 512 512 465.92 512 409.6V102.4ZM500 409.6C500 459.293 459.293 500 409.6 500H102.4C52.7074 500 12 459.293 12 409.6V406.353C29.2688 438.677 63.3763 460.8 102.4 460.8H409.6C448.624 460.8 482.731 438.677 500 406.353V409.6ZM455.68 102.4C455.68 76.9894 435.011 56.32 409.6 56.32H102.4C76.9894 56.32 56.32 76.9894 56.32 102.4V358.4C56.32 383.811 76.9894 404.48 102.4 404.48H409.6C435.011 404.48 455.68 383.811 455.68 358.4V102.4Z" fill="#4D4D4D"/>
</g>
</g>
<defs>
<filter id="filter0_d_324_405" x="-4" y="-2" width="520" height="520" filterUnits="userSpaceOnUse" color-interpolation-filters="sRGB">
<feFlood flood-opacity="0" result="BackgroundImageFix"/>
<feColorMatrix in="SourceAlpha" type="matrix" values="0 0 0 0 0 0 0 0 0 0 0 0 0 0 0 0 0 0 127 0" result="hardAlpha"/>
<feOffset dy="2"/>
<feGaussianBlur stdDeviation="2"/>
<feColorMatrix type="matrix" values="0 0 0 0 0 0 0 0 0 0 0 0 0 0 0 0 0 0 0.273992 0"/>
<feBlend mode="normal" in2="BackgroundImageFix" result="effect1_dropShadow_324_405"/>
<feBlend mode="normal" in="SourceGraphic" in2="effect1_dropShadow_324_405" result="shape"/>
</filter>
<clipPath id="clip0_324_405">
<rect width="512" height="512" fill="white"/>
</clipPath>
</defs>
</svg>
