<svg width="512" height="512" viewBox="0 0 512 512" fill="none" xmlns="http://www.w3.org/2000/svg">
<path d="M481.862 228.547C454.673 201.358 415.888 192.562 381.501 202.358C375.504 141.581 324.124 94 261.948 94C204.371 94 156.189 134.584 144.594 188.763C106.609 176.568 63.4256 185.564 33.2374 215.752C-9.7458 258.736 -9.7458 328.308 33.2374 371.292C68.8235 406.878 120.803 417.074 147.793 417.074H160.588H357.911C398.695 417.274 442.877 412.676 481.662 374.091C521.847 333.706 521.847 268.732 481.862 228.547ZM310.729 315.114C302.732 328.708 273.943 371.292 259.949 371.292C252.552 371.292 225.362 357.697 225.362 348.101C225.362 344.702 229.161 341.103 231.16 339.904C243.755 331.707 257.55 307.717 257.55 294.522C257.55 290.123 255.151 288.324 251.952 288.324C247.754 288.324 243.355 289.324 239.157 289.324C200.572 289.324 182.779 247.54 182.779 209.955C182.779 156.975 223.963 132.785 261.548 132.785C301.533 132.785 341.917 157.375 341.917 213.153C341.917 251.339 328.522 285.125 310.729 315.114ZM259.549 181.566C250.752 181.566 245.954 193.161 245.954 203.157C245.954 219.751 253.351 245.941 269.145 245.941C277.342 245.941 281.74 236.744 281.74 227.348C281.54 213.153 274.943 181.566 259.549 181.566Z" fill="#00A8E9"/>
</svg>
