<svg width="512" height="512" viewBox="0 0 512 512" fill="none" xmlns="http://www.w3.org/2000/svg">
<path d="M29.3885 467.226C37.1855 470.825 44.9824 472.424 52.7794 472.424C60.1765 472.424 67.3737 470.825 74.3709 467.426C77.3698 466.027 79.7688 465.227 81.3682 464.827C84.367 464.227 86.5662 463.428 87.3659 462.628C89.565 460.629 91.5642 458.03 93.1636 454.631C94.763 451.232 95.5627 448.234 95.5627 445.435C95.5627 443.235 94.9629 441.436 93.7634 439.837C92.5638 438.237 91.1644 437.638 89.565 437.638C88.3655 437.638 86.966 438.437 85.1667 440.237C83.1675 442.236 80.1687 443.835 76.5701 445.235C72.7716 446.434 69.173 447.034 65.3745 447.034C55.1784 447.034 47.1816 442.636 41.7837 433.639C37.7852 427.042 35.5861 419.645 35.5861 411.448C35.5861 405.65 36.9855 400.852 39.7845 397.453C42.5834 394.055 46.3819 392.255 51.18 392.255C56.1781 392.255 60.9762 393.855 65.3745 397.053C67.1738 398.453 68.7731 399.852 69.9727 401.452C71.1722 403.051 72.7716 405.65 74.9707 409.449C76.3702 412.048 77.7696 413.847 79.369 414.847C80.9684 415.846 82.7677 416.446 85.1667 416.446C87.7657 416.446 90.1648 415.646 92.164 414.247C95.9625 411.648 97.9617 407.449 97.9617 401.852C97.9617 393.855 95.7626 387.057 91.1644 381.66C89.3651 379.46 87.166 378.261 84.7669 378.261C83.9672 378.261 83.3674 378.261 82.7677 378.461C80.9684 378.861 79.5689 379.061 78.7692 379.061C77.5697 379.061 75.5705 378.261 72.5717 376.861C66.1742 373.863 59.5767 372.463 52.7794 372.463C45.5822 372.463 38.385 373.863 31.5877 376.861C22.5912 380.86 15.1941 386.458 9.59625 393.855C3.19875 402.451 0 411.848 0 422.244C0 431.24 2.59898 439.637 7.79695 447.834C13.1948 456.83 20.1921 463.228 29.3885 467.226ZM106.558 396.454C109.157 398.053 110.757 400.452 111.556 403.651C112.156 406.85 112.556 414.247 112.556 425.642C112.556 436.838 112.156 445.435 111.356 451.632C110.957 455.231 109.757 457.43 107.958 458.23C105.959 459.029 104.759 459.829 104.159 460.429C103.56 461.029 103.36 461.828 103.36 463.028C103.36 464.427 103.959 465.827 104.959 467.026C105.959 468.226 107.358 469.225 109.157 469.825C112.756 471.225 119.153 471.824 128.15 471.824C136.147 471.824 141.745 471.225 145.143 470.225C146.943 469.625 148.342 468.825 149.542 467.626C150.541 466.426 151.141 465.027 151.141 463.428C151.141 462.228 150.941 461.228 150.341 460.629C149.742 460.029 148.542 459.229 146.943 458.43C144.943 457.63 143.344 456.23 143.144 454.631C142.744 453.032 142.344 447.234 142.344 437.238V414.647C142.344 407.649 143.144 400.052 143.744 391.656C144.144 386.258 144.743 382.859 144.743 381.26C144.743 376.661 142.944 374.462 139.346 374.462C136.947 374.462 133.348 374.862 128.15 375.862C122.952 376.661 118.954 377.661 115.555 378.661C110.757 380.06 107.158 381.66 104.959 383.459C102.76 385.258 101.76 387.257 101.76 389.456C101.76 390.856 102.16 392.055 102.76 393.055C103.36 394.255 104.759 395.454 106.558 396.454ZM192.125 472.424C203.521 472.424 213.717 469.025 222.713 462.228C232.109 455.031 236.708 446.434 236.708 436.438C236.708 430.64 235.308 425.043 232.309 419.645C229.51 414.447 225.712 410.448 221.114 407.25C214.716 402.851 207.119 400.652 198.522 400.652C186.327 400.652 175.731 404.251 167.135 411.648C158.938 418.645 154.74 427.642 154.74 438.637C154.74 448.633 158.138 456.63 164.736 462.828C171.933 469.225 181.129 472.424 192.125 472.424ZM188.127 419.045C189.326 417.446 190.925 416.846 193.125 416.846C195.923 416.846 198.123 418.645 199.522 421.844C200.922 425.043 202.321 429.041 203.321 434.039C204.32 439.037 204.92 443.435 204.92 447.434C204.92 452.632 202.921 455.431 198.722 455.431C195.524 455.431 193.125 453.431 191.725 449.633C190.326 445.834 188.926 441.636 187.927 436.838C186.927 432.04 186.327 428.241 186.327 425.442C186.327 422.643 186.927 420.644 188.127 419.045ZM297.284 471.225C298.084 471.824 299.683 472.024 301.882 472.024C307.28 472.024 313.078 471.424 318.875 470.025C328.872 467.826 333.87 464.427 333.87 460.229C333.87 458.03 333.07 456.43 330.871 455.231C328.072 453.831 327.272 452.432 327.272 450.832V419.845C327.272 416.646 326.872 413.847 326.872 411.648C326.872 410.048 326.672 409.049 326.672 408.449C326.672 403.451 324.273 400.852 319.475 400.852C311.078 400.852 302.282 401.852 293.685 404.051C289.087 405.25 286.688 407.25 286.688 410.048C286.688 412.248 288.087 414.047 290.686 415.446C292.086 416.246 292.886 416.846 293.285 417.246C293.685 417.845 294.085 418.645 294.285 419.845C294.885 422.644 295.085 427.841 295.085 435.638C295.085 443.435 294.485 448.433 293.485 450.633C292.886 451.832 292.086 452.632 290.686 453.431C289.287 454.231 288.087 454.631 286.688 454.631C281.29 454.631 278.691 450.633 278.691 442.436V404.451C278.691 402.052 277.292 400.852 274.493 400.852C265.296 400.852 256.1 401.852 246.904 403.851C241.506 405.05 238.907 407.449 238.907 410.848C238.907 411.848 239.107 412.647 239.706 413.247C240.106 413.847 241.306 414.647 243.105 415.446C245.104 416.446 246.104 418.045 246.904 419.845C247.703 421.644 247.903 424.643 247.903 428.641V431.84V441.636C247.903 451.832 249.503 459.229 252.701 463.628C256.3 468.825 262.697 471.424 271.694 471.424C277.092 471.424 282.29 469.825 286.888 466.626C289.287 465.027 290.686 464.027 291.086 463.827C291.486 463.628 292.086 463.428 292.686 463.428C294.285 463.428 295.085 464.827 295.285 467.826C295.884 469.825 296.484 470.825 297.284 471.225ZM349.863 464.427C355.661 469.825 362.258 472.424 369.456 472.424C375.253 472.424 380.651 470.425 385.449 466.626C387.049 465.227 388.448 464.427 389.248 464.427C390.647 464.427 391.447 465.627 391.847 468.026C392.047 469.625 392.247 470.825 392.647 471.225C393.046 471.624 394.046 471.824 395.645 471.824C402.443 471.824 409.24 471.025 416.037 469.225C423.635 467.226 427.233 464.427 427.233 460.629C427.233 459.429 427.033 458.23 426.433 457.43C425.834 456.63 424.634 455.431 423.035 454.431C421.635 453.431 419.836 452.432 419.636 451.432C419.236 450.433 418.237 448.034 418.237 444.435V380.46C418.237 376.661 417.037 374.662 413.039 374.662C409.04 374.662 401.443 376.262 389.448 379.66C382.651 381.659 379.452 384.258 379.452 387.657C379.452 390.056 381.051 391.656 384.05 392.655C386.249 393.255 387.649 394.055 388.448 395.054C389.248 396.054 389.648 397.253 389.648 399.053C389.648 403.051 388.848 405.05 387.449 405.05C387.049 405.05 386.449 404.85 385.849 404.451C381.651 402.052 376.653 400.852 371.255 400.852C366.457 400.852 361.659 402.052 356.861 404.651C351.063 407.649 346.465 412.048 343.066 417.645C339.467 423.843 337.668 430.041 337.668 436.638C337.668 442.236 339.068 447.834 341.866 453.232C343.666 457.43 346.465 461.228 349.863 464.427ZM374.454 420.644C376.253 417.446 378.652 415.846 381.651 415.846C384.05 415.846 385.849 416.846 387.249 418.845C388.848 421.244 389.648 426.042 389.648 433.239C389.648 441.036 389.048 446.834 387.649 450.233C386.249 453.831 384.05 455.431 381.051 455.431C378.252 455.431 376.053 454.231 374.454 451.832C372.255 448.633 371.055 443.835 371.055 437.438C370.855 430.44 372.055 424.843 374.454 420.644ZM461.02 454.631C463.619 454.431 465.218 454.231 465.818 454.231C467.617 454.231 468.617 455.031 468.617 456.83C468.617 459.029 467.417 462.028 465.218 465.627C462.819 469.625 459.82 472.624 456.422 474.823C453.623 476.622 452.223 478.022 452.223 479.021C452.223 480.421 454.422 482.42 459.021 484.819C463.419 487.218 467.217 488.418 470.016 488.418C471.616 488.418 473.615 487.618 476.014 485.819C486.01 478.422 494.607 468.426 502.004 456.03C508.601 444.835 512 434.039 512 423.843C512 411.248 507.002 402.052 496.806 396.254C489.009 392.055 480.612 389.856 471.216 389.856C459.62 389.856 449.824 392.855 441.827 398.653C434.23 404.051 430.432 411.848 430.432 421.844C430.432 426.842 431.431 431.64 433.231 436.238C435.03 440.836 437.829 444.835 441.228 448.034C445.826 452.432 451.823 454.431 459.221 454.431C460.02 454.831 460.62 454.831 461.02 454.631ZM465.018 412.647C466.418 411.048 468.017 410.048 470.016 410.048C472.216 410.048 474.215 411.048 476.014 413.047C477.414 414.647 478.613 417.046 479.613 420.244C480.612 423.443 481.212 426.242 481.212 428.841C481.212 431.04 480.612 432.84 479.413 434.239C478.213 435.638 476.614 436.438 474.815 436.438C471.616 436.438 468.817 434.639 466.418 431.24C464.019 427.841 462.819 423.643 462.819 418.845C463.019 416.446 463.819 414.447 465.018 412.647ZM482.012 156.547C454.822 129.358 416.037 120.562 381.651 130.358C375.653 69.5814 324.273 22 262.098 22C204.52 22 156.339 62.5841 144.743 116.763C106.758 104.568 63.5752 113.564 33.387 143.752C-9.59625 186.736 -9.59625 256.308 33.387 299.292C68.9731 334.878 120.953 345.074 147.942 345.074H160.737H358.06C398.844 345.274 443.027 340.676 481.812 302.091C521.996 261.706 521.996 196.732 482.012 156.547ZM310.879 243.114C302.882 256.708 274.093 299.292 260.098 299.292C252.701 299.292 225.512 285.697 225.512 276.101C225.512 272.702 229.31 269.103 231.31 267.904C243.905 259.707 257.699 235.717 257.699 222.522C257.699 218.123 255.3 216.324 252.102 216.324C247.903 216.324 243.505 217.324 239.307 217.324C200.722 217.324 182.929 175.54 182.929 137.955C182.929 84.9754 224.112 60.7849 261.698 60.7849C301.682 60.7849 342.066 85.3752 342.066 141.153C342.066 179.339 328.672 213.125 310.879 243.114ZM259.699 109.566C250.902 109.566 246.104 121.161 246.104 131.157C246.104 147.751 253.501 173.941 269.295 173.941C277.492 173.941 281.89 164.744 281.89 155.348C281.69 141.153 275.093 109.566 259.699 109.566Z" fill="#00A8E9"/>
</svg>
