<svg width="512" height="512" viewBox="0 0 512 512" fill="none" xmlns="http://www.w3.org/2000/svg">
<path d="M29.3885 292.763C37.1855 296.362 44.9824 297.961 52.7794 297.961C60.1765 297.961 67.3737 296.362 74.3709 292.963C77.3698 291.563 79.7688 290.764 81.3682 290.364C84.367 289.764 86.5662 288.964 87.3659 288.165C89.565 286.166 91.5642 283.567 93.1636 280.168C94.763 276.769 95.5627 273.77 95.5627 270.971C95.5627 268.772 94.9629 266.973 93.7634 265.374C92.5638 263.774 91.1644 263.175 89.565 263.175C88.3655 263.175 86.966 263.974 85.1667 265.774C83.1675 267.773 80.1687 269.372 76.5701 270.772C72.7716 271.971 69.173 272.571 65.3745 272.571C55.1784 272.571 47.1816 268.173 41.7837 259.176C37.7852 252.579 35.5861 245.182 35.5861 236.985C35.5861 231.187 36.9855 226.389 39.7845 222.99C42.5834 219.592 46.3819 217.792 51.18 217.792C56.1781 217.792 60.9762 219.392 65.3745 222.59C67.1738 223.99 68.7731 225.389 69.9727 226.989C71.1722 228.588 72.7716 231.187 74.9707 234.986C76.3702 237.585 77.7696 239.384 79.369 240.383C80.9684 241.383 82.7677 241.983 85.1667 241.983C87.7657 241.983 90.1648 241.183 92.164 239.784C95.9625 237.185 97.9617 232.986 97.9617 227.389C97.9617 219.392 95.7626 212.594 91.1644 207.196C89.3651 204.997 87.166 203.798 84.7669 203.798C83.9672 203.798 83.3674 203.798 82.7677 203.998C80.9684 204.397 79.5689 204.597 78.7692 204.597C77.5697 204.597 75.5705 203.798 72.5717 202.398C66.1742 199.399 59.5767 198 52.7794 198C45.5822 198 38.385 199.399 31.5877 202.398C22.5912 206.397 15.1941 211.995 9.59625 219.392C3.19875 227.988 0 237.385 0 247.781C0 256.777 2.59898 265.174 7.79695 273.371C13.1948 282.367 20.1921 288.765 29.3885 292.763ZM106.558 221.991C109.157 223.59 110.757 225.989 111.556 229.188C112.156 232.387 112.556 239.784 112.556 251.179C112.556 262.375 112.156 270.971 111.356 277.169C110.957 280.768 109.757 282.967 107.958 283.766C105.959 284.566 104.759 285.366 104.159 285.966C103.56 286.565 103.36 287.365 103.36 288.565C103.36 289.964 103.959 291.364 104.959 292.563C105.959 293.763 107.358 294.762 109.157 295.362C112.756 296.761 119.153 297.361 128.15 297.361C136.147 297.361 141.745 296.761 145.143 295.762C146.943 295.162 148.342 294.362 149.542 293.163C150.541 291.963 151.141 290.564 151.141 288.964C151.141 287.765 150.941 286.765 150.341 286.166C149.742 285.566 148.542 284.766 146.943 283.966C144.943 283.167 143.344 281.767 143.144 280.168C142.744 278.569 142.344 272.771 142.344 262.775V240.184C142.344 233.186 143.144 225.589 143.744 217.193C144.144 211.795 144.743 208.396 144.743 206.797C144.743 202.198 142.944 199.999 139.346 199.999C136.947 199.999 133.348 200.399 128.15 201.399C122.952 202.198 118.954 203.198 115.555 204.198C110.757 205.597 107.158 207.196 104.959 208.996C102.76 210.795 101.76 212.794 101.76 214.993C101.76 216.393 102.16 217.592 102.76 218.592C103.36 219.791 104.759 220.991 106.558 221.991ZM192.125 297.961C203.521 297.961 213.717 294.562 222.713 287.765C232.109 280.568 236.708 271.971 236.708 261.975C236.708 256.177 235.308 250.579 232.309 245.182C229.51 239.984 225.712 235.985 221.114 232.786C214.716 228.388 207.119 226.189 198.522 226.189C186.327 226.189 175.731 229.788 167.135 237.185C158.938 244.182 154.74 253.178 154.74 264.174C154.74 274.17 158.138 282.167 164.736 288.365C171.933 294.762 181.129 297.961 192.125 297.961ZM188.127 244.582C189.326 242.982 190.925 242.383 193.125 242.383C195.923 242.383 198.123 244.182 199.522 247.381C200.922 250.579 202.321 254.578 203.321 259.576C204.32 264.574 204.92 268.972 204.92 272.971C204.92 278.169 202.921 280.968 198.722 280.968C195.524 280.968 193.125 278.968 191.725 275.17C190.326 271.371 188.926 267.173 187.927 262.375C186.927 257.577 186.327 253.778 186.327 250.979C186.327 248.18 186.927 246.181 188.127 244.582ZM297.284 296.761C298.084 297.361 299.683 297.561 301.882 297.561C307.28 297.561 313.078 296.961 318.875 295.562C328.872 293.363 333.87 289.964 333.87 285.766C333.87 283.567 333.07 281.967 330.871 280.768C328.072 279.368 327.272 277.969 327.272 276.369V245.382C327.272 242.183 326.872 239.384 326.872 237.185C326.872 235.585 326.672 234.586 326.672 233.986C326.672 228.988 324.273 226.389 319.475 226.389C311.078 226.389 302.282 227.389 293.685 229.588C289.087 230.787 286.688 232.786 286.688 235.585C286.688 237.784 288.087 239.584 290.686 240.983C292.086 241.783 292.886 242.383 293.285 242.783C293.685 243.382 294.085 244.182 294.285 245.382C294.885 248.18 295.085 253.378 295.085 261.175C295.085 268.972 294.485 273.97 293.485 276.169C292.886 277.369 292.086 278.169 290.686 278.968C289.287 279.768 288.087 280.168 286.688 280.168C281.29 280.168 278.691 276.169 278.691 267.973V229.987C278.691 227.588 277.292 226.389 274.493 226.389C265.296 226.389 256.1 227.389 246.904 229.388C241.506 230.587 238.907 232.986 238.907 236.385C238.907 237.385 239.107 238.184 239.706 238.784C240.106 239.384 241.306 240.184 243.105 240.983C245.104 241.983 246.104 243.582 246.904 245.382C247.703 247.181 247.903 250.18 247.903 254.178V257.377V267.173C247.903 277.369 249.503 284.766 252.701 289.164C256.3 294.362 262.697 296.961 271.694 296.961C277.092 296.961 282.29 295.362 286.888 292.163C289.287 290.564 290.686 289.564 291.086 289.364C291.486 289.164 292.086 288.964 292.686 288.964C294.285 288.964 295.085 290.364 295.285 293.363C295.884 295.362 296.484 296.362 297.284 296.761ZM349.863 289.964C355.661 295.362 362.258 297.961 369.456 297.961C375.253 297.961 380.651 295.962 385.449 292.163C387.049 290.764 388.448 289.964 389.248 289.964C390.647 289.964 391.447 291.164 391.847 293.563C392.047 295.162 392.247 296.362 392.647 296.761C393.046 297.161 394.046 297.361 395.645 297.361C402.443 297.361 409.24 296.562 416.037 294.762C423.635 292.763 427.233 289.964 427.233 286.166C427.233 284.966 427.033 283.766 426.433 282.967C425.834 282.167 424.634 280.968 423.035 279.968C421.635 278.968 419.836 277.969 419.636 276.969C419.236 275.97 418.237 273.57 418.237 269.972V205.997C418.237 202.198 417.037 200.199 413.039 200.199C409.04 200.199 401.443 201.799 389.448 205.197C382.651 207.196 379.452 209.795 379.452 213.194C379.452 215.593 381.051 217.193 384.05 218.192C386.249 218.792 387.649 219.592 388.448 220.591C389.248 221.591 389.648 222.79 389.648 224.59C389.648 228.588 388.848 230.587 387.449 230.587C387.049 230.587 386.449 230.387 385.849 229.987C381.651 227.588 376.653 226.389 371.255 226.389C366.457 226.389 361.659 227.588 356.861 230.187C351.063 233.186 346.465 237.585 343.066 243.182C339.467 249.38 337.668 255.578 337.668 262.175C337.668 267.773 339.068 273.371 341.866 278.768C343.666 282.967 346.465 286.765 349.863 289.964ZM374.454 246.181C376.253 242.982 378.652 241.383 381.651 241.383C384.05 241.383 385.849 242.383 387.249 244.382C388.848 246.781 389.648 251.579 389.648 258.776C389.648 266.573 389.048 272.371 387.649 275.77C386.249 279.368 384.05 280.968 381.051 280.968C378.252 280.968 376.053 279.768 374.454 277.369C372.255 274.17 371.055 269.372 371.055 262.975C370.855 255.977 372.055 250.38 374.454 246.181ZM461.02 280.168C463.619 279.968 465.218 279.768 465.818 279.768C467.617 279.768 468.617 280.568 468.617 282.367C468.617 284.566 467.417 287.565 465.218 291.164C462.819 295.162 459.82 298.161 456.422 300.36C453.623 302.159 452.223 303.559 452.223 304.558C452.223 305.958 454.422 307.957 459.021 310.356C463.419 312.755 467.217 313.955 470.016 313.955C471.616 313.955 473.615 313.155 476.014 311.356C486.01 303.959 494.607 293.963 502.004 281.567C508.601 270.372 512 259.576 512 249.38C512 236.785 507.002 227.588 496.806 221.791C489.009 217.592 480.612 215.393 471.216 215.393C459.62 215.393 449.824 218.392 441.827 224.19C434.23 229.588 430.432 237.385 430.432 247.381C430.432 252.379 431.431 257.177 433.231 261.775C435.03 266.373 437.829 270.372 441.228 273.57C445.826 277.969 451.823 279.968 459.221 279.968C460.02 280.368 460.62 280.368 461.02 280.168ZM465.018 238.184C466.418 236.585 468.017 235.585 470.016 235.585C472.216 235.585 474.215 236.585 476.014 238.584C477.414 240.184 478.613 242.583 479.613 245.781C480.612 248.98 481.212 251.779 481.212 254.378C481.212 256.577 480.612 258.376 479.413 259.776C478.213 261.175 476.614 261.975 474.815 261.975C471.616 261.975 468.817 260.176 466.418 256.777C464.019 253.378 462.819 249.18 462.819 244.382C463.019 241.983 463.819 239.984 465.018 238.184Z" fill="#00A8E9"/>
</svg>
