<svg width="512" height="512" viewBox="0 0 512 512" fill="none" xmlns="http://www.w3.org/2000/svg">
<path d="M53.3403 263.681H43.5427C42.1195 272.557 36.1742 277.665 27.9684 277.665C17.0824 277.665 9.96501 269.207 9.96501 255.726C9.96501 242.412 16.8312 233.787 27.3823 233.787C35.923 233.787 41.5334 238.812 43.1241 247.855H52.9206C50.995 234.625 40.3613 226 27.0474 226C11.0534 226 0 239.23 0 255.726C0 272.724 11.3046 285.452 27.2986 285.452C40.6125 285.452 51.3299 276.911 53.3403 263.681ZM98.2949 263.681C98.2949 252.377 90.5067 241.91 77.7789 241.91C65.0521 241.91 57.2639 252.377 57.2639 263.681C57.2639 274.985 65.0521 285.452 77.7789 285.452C90.5067 285.452 98.2949 274.985 98.2949 263.681ZM66.894 263.681C66.894 254.721 70.8289 248.692 77.7789 248.692C84.8136 248.692 88.7486 254.721 88.7486 263.681C88.7486 272.557 84.8136 278.669 77.7789 278.669C70.8289 278.669 66.894 272.557 66.894 263.681ZM133.912 275.822H133.661C131.651 281.6 126.795 285.452 120.431 285.452C109.042 285.452 102.846 275.404 102.846 263.681C102.846 251.958 109.294 241.91 120.431 241.91C126.795 241.91 131.651 245.678 133.661 251.456H133.912V226.837H142.871V284.615H133.912V275.822ZM123.361 248.692C116.411 248.692 112.476 254.721 112.476 263.681C112.476 272.557 116.411 278.669 123.361 278.669C130.396 278.669 134.247 272.557 134.247 263.681C134.247 254.721 130.396 248.692 123.361 248.692ZM187.918 271.636H178.791C177.786 274.985 175.441 278.669 169.998 278.669C163.634 278.669 159.197 274.231 158.778 266.612H188.671C189.927 252.042 181.721 241.91 169.245 241.91C156.768 241.91 149.651 252.125 149.651 263.681C149.651 275.236 156.936 285.452 169.412 285.452C179.628 285.452 186.16 279.926 187.918 271.636ZM169.245 248.692C175.358 248.692 178.959 253.046 179.545 259.829H158.862C159.448 253.046 163.132 248.692 169.245 248.692ZM214.591 249.112L224.003 251.372C234.889 253.884 240.332 259.578 240.332 268.705C240.332 278.334 230.953 285.452 217.556 285.452C202.232 285.452 193.943 274.734 193.021 264.267H202.818C203.404 271.803 209.517 277.665 217.639 277.665C225.008 277.665 230.451 274.483 230.451 269.124C230.451 264.434 226.934 261.922 219.481 260.164L211.108 258.238C199.803 255.559 194.194 250.283 194.194 242.245C194.194 232.531 203.739 226 215.379 226C230.116 226 237.652 234.039 238.657 244.003H228.86C228.107 237.137 222.329 233.787 215.546 233.787C208.931 233.787 204.158 236.634 204.158 241.575C204.158 245.018 206.402 246.859 212.685 248.612L214.591 249.112ZM275.553 275.822H275.804V284.615H284.764V242.747H275.804V251.456H275.553C273.543 245.678 268.686 241.91 262.322 241.91C251.186 241.91 244.738 251.958 244.738 263.681C244.738 275.404 250.935 285.452 262.322 285.452C268.686 285.452 273.543 281.6 275.553 275.822ZM254.367 263.681C254.367 254.721 258.387 248.692 265.17 248.692C271.952 248.692 276.139 254.721 276.139 263.681C276.139 272.557 271.952 278.669 265.17 278.669C258.471 278.669 254.367 272.557 254.367 263.681ZM303.015 259.494V284.615H293.887V242.747H302.763V250.953H302.93C304.69 245.092 309.043 241.91 315.156 241.91C324.367 241.91 328.888 248.19 328.888 257.401V284.615H319.762V260.08C319.762 252.293 316.999 248.776 311.388 248.776C305.778 248.776 303.015 252.628 303.015 259.494ZM366.222 275.822H366.473V284.615H375.433V226.837H366.473V251.456H366.222C364.213 245.678 359.356 241.91 352.992 241.91C341.855 241.91 335.407 251.958 335.407 263.681C335.407 275.404 341.604 285.452 352.992 285.452C359.356 285.452 364.213 281.6 366.222 275.822ZM345.037 263.681C345.037 254.721 348.972 248.692 355.922 248.692C362.957 248.692 366.808 254.721 366.808 263.681C366.808 272.557 362.957 278.669 355.922 278.669C348.972 278.669 345.037 272.557 345.037 263.681ZM406.998 241.91C418.135 241.91 424.583 251.958 424.583 263.681C424.583 275.404 418.386 285.452 406.998 285.452C400.634 285.452 395.777 281.6 393.768 275.822H393.517V284.615H384.557V226.837H393.517V251.456H393.768C395.777 245.678 400.634 241.91 406.998 241.91ZM404.068 248.692C397.034 248.692 393.182 254.721 393.182 263.681C393.182 272.557 397.034 278.669 404.068 278.669C411.018 278.669 414.953 272.557 414.953 263.681C414.953 254.721 411.018 248.692 404.068 248.692ZM449.697 241.91C462.425 241.91 470.213 252.377 470.213 263.681C470.213 274.985 462.425 285.452 449.697 285.452C436.969 285.452 429.182 274.985 429.182 263.681C429.182 252.377 436.969 241.91 449.697 241.91ZM481.604 242.747L490.648 255.81L499.691 242.747H509.907L496.007 262.006L512 284.615H501.784L490.648 268.37L479.511 284.615H469.212L485.289 262.09L471.305 242.747H481.604ZM449.697 248.692C442.747 248.692 438.812 254.721 438.812 263.681C438.812 272.557 442.747 278.669 449.697 278.669C456.731 278.669 460.667 272.557 460.667 263.681C460.667 254.721 456.731 248.692 449.697 248.692Z" fill="black"/>
</svg>
