<svg width="512" height="512" viewBox="0 0 512 512" fill="none" xmlns="http://www.w3.org/2000/svg">
<path d="M72.3307 219V291.331H0V219H72.3307ZM64.9332 226.397H7.39745V283.933H64.9332V226.397Z" fill="black"/>
<path d="M147.267 261.533H139.476C138.344 268.591 133.616 272.653 127.091 272.653C118.434 272.653 112.774 265.927 112.774 255.207C112.774 244.619 118.234 237.761 126.625 237.761C133.416 237.761 137.878 241.756 139.143 248.948H146.933C145.402 238.427 136.946 231.568 126.358 231.568C113.64 231.568 104.85 242.089 104.85 255.207C104.85 268.724 113.839 278.845 126.558 278.845C137.146 278.845 145.668 272.053 147.267 261.533ZM183.015 261.533C183.015 252.543 176.822 244.22 166.701 244.22C156.58 244.22 150.387 252.543 150.387 261.533C150.387 270.522 156.58 278.845 166.701 278.845C176.822 278.845 183.015 270.522 183.015 261.533ZM158.045 261.533C158.045 254.408 161.174 249.614 166.701 249.614C172.295 249.614 175.424 254.408 175.424 261.533C175.424 268.591 172.295 273.452 166.701 273.452C161.174 273.452 158.045 268.591 158.045 261.533ZM211.339 271.188H211.139C209.541 275.782 205.679 278.845 200.618 278.845C191.562 278.845 186.634 270.855 186.634 261.533C186.634 252.21 191.762 244.22 200.618 244.22C205.679 244.22 209.541 247.216 211.139 251.811H211.339V232.234H218.463V278.18H211.339V271.188ZM202.948 249.614C197.422 249.614 194.292 254.408 194.292 261.533C194.292 268.591 197.422 273.452 202.948 273.452C208.542 273.452 211.605 268.591 211.605 261.533C211.605 254.408 208.542 249.614 202.948 249.614ZM254.285 267.858H247.027C246.228 270.522 244.363 273.452 240.035 273.452C234.974 273.452 231.446 269.923 231.113 263.863H254.884C255.883 252.277 249.357 244.22 239.436 244.22C229.514 244.22 223.854 252.344 223.854 261.533C223.854 270.722 229.647 278.845 239.569 278.845C247.693 278.845 252.887 274.451 254.285 267.858ZM239.436 249.614C244.297 249.614 247.16 253.076 247.626 258.47H231.179C231.646 253.076 234.575 249.614 239.436 249.614ZM275.496 249.947L282.981 251.744C291.637 253.742 295.966 258.27 295.966 265.528C295.966 273.185 288.507 278.845 277.853 278.845C265.668 278.845 259.076 270.322 258.343 261.999H266.134C266.6 267.992 271.461 272.653 277.92 272.653C283.779 272.653 288.108 270.122 288.108 265.861C288.108 262.132 285.312 260.134 279.385 258.736L272.726 257.204C263.736 255.074 259.276 250.879 259.276 244.486C259.276 236.762 266.866 231.568 276.122 231.568C287.842 231.568 293.834 237.961 294.633 245.885H286.843C286.244 240.424 281.649 237.761 276.255 237.761C270.995 237.761 267.199 240.025 267.199 243.954C267.199 246.692 268.984 248.156 273.98 249.55L275.496 249.947ZM323.974 271.188H324.174V278.18H331.298V244.886H324.174V251.811H323.974C322.375 247.216 318.513 244.22 313.452 244.22C304.597 244.22 299.469 252.21 299.469 261.533C299.469 270.855 304.397 278.845 313.452 278.845C318.513 278.845 322.375 275.782 323.974 271.188ZM307.127 261.533C307.127 254.408 310.323 249.614 315.717 249.614C321.11 249.614 324.44 254.408 324.44 261.533C324.44 268.591 321.11 273.452 315.717 273.452C310.39 273.452 307.127 268.591 307.127 261.533ZM345.812 258.203V278.18H338.554V244.886H345.612V251.411H345.745C347.144 246.75 350.606 244.22 355.467 244.22C362.792 244.22 366.387 249.214 366.387 256.539V278.18H359.129V258.669C359.129 252.477 356.932 249.68 352.471 249.68C348.009 249.68 345.812 252.743 345.812 258.203ZM396.075 271.188H396.275V278.18H403.4V232.234H396.275V251.811H396.075C394.477 247.216 390.615 244.22 385.555 244.22C376.698 244.22 371.571 252.21 371.571 261.533C371.571 270.855 376.498 278.845 385.555 278.845C390.615 278.845 394.477 275.782 396.075 271.188ZM379.229 261.533C379.229 254.408 382.358 249.614 387.885 249.614C393.479 249.614 396.541 254.408 396.541 261.533C396.541 268.591 393.479 273.452 387.885 273.452C382.358 273.452 379.229 268.591 379.229 261.533ZM428.501 244.22C437.357 244.22 442.484 252.21 442.484 261.533C442.484 270.855 437.557 278.845 428.501 278.845C423.44 278.845 419.578 275.782 417.98 271.188H417.78V278.18H410.656V232.234H417.78V251.811H417.98C419.578 247.216 423.44 244.22 428.501 244.22ZM426.171 249.614C420.577 249.614 417.514 254.408 417.514 261.533C417.514 268.591 420.577 273.452 426.171 273.452C431.697 273.452 434.826 268.591 434.826 261.533C434.826 254.408 431.697 249.614 426.171 249.614ZM462.456 244.22C472.577 244.22 478.771 252.543 478.771 261.533C478.771 270.522 472.577 278.845 462.456 278.845C452.335 278.845 446.142 270.522 446.142 261.533C446.142 252.543 452.335 244.22 462.456 244.22ZM487.828 244.886L495.02 255.273L502.212 244.886H510.336L499.282 260.201L512 278.18H503.876L495.02 265.262L486.164 278.18H477.974L490.759 260.268L479.639 244.886H487.828ZM462.456 249.614C456.929 249.614 453.8 254.408 453.8 261.533C453.8 268.591 456.929 273.452 462.456 273.452C468.049 273.452 471.179 268.591 471.179 261.533C471.179 254.408 468.049 249.614 462.456 249.614Z" fill="black"/>
</svg>
