<svg width="512" height="512" viewBox="0 0 512 512" fill="none" xmlns="http://www.w3.org/2000/svg">
<g clip-path="url(#clip0_102_1167)">
<path d="M511.614 174.173C511.497 173.553 511.393 172.932 511.228 172.325C511.124 171.96 511 171.615 510.883 171.257C510.711 170.719 510.531 170.181 510.318 169.657C510.166 169.292 509.994 168.94 509.828 168.588C509.594 168.092 509.352 167.602 509.077 167.127C508.884 166.775 508.663 166.444 508.449 166.106C508.153 165.651 507.849 165.203 507.518 164.769C507.277 164.445 507.029 164.134 506.767 163.824C506.422 163.41 506.05 163.017 505.677 162.631C505.388 162.342 505.098 162.052 504.795 161.769C504.395 161.404 503.981 161.059 503.547 160.728C503.216 160.473 502.892 160.211 502.547 159.977C502.423 159.887 502.313 159.784 502.182 159.701L268.197 3.69738C260.813 -1.23246 251.18 -1.23246 243.796 3.69738L9.79762 159.694C9.66662 159.777 9.5632 159.88 9.4322 159.97C9.08745 160.211 8.76339 160.466 8.43244 160.721C8.00496 161.059 7.58437 161.404 7.18446 161.756C6.88109 162.031 6.59151 162.321 6.30882 162.617C5.9227 163.004 5.56417 163.397 5.21253 163.81C4.95052 164.121 4.70231 164.431 4.46099 164.776C4.13003 165.21 3.82666 165.651 3.53018 166.113C3.31644 166.451 3.1027 166.782 2.90274 167.134C2.62695 167.609 2.38563 168.099 2.1581 168.582C1.99262 168.933 1.81335 169.292 1.66856 169.65C1.45482 170.174 1.26866 170.712 1.09629 171.25C0.979073 171.608 0.854965 171.96 0.758437 172.284C0.599855 172.891 0.482642 173.504 0.372324 174.132C0.31027 174.449 0.234426 174.759 0.193057 175.083C0.0689488 176.035 0 176.986 0 177.959V333.99C0 334.955 0.0689488 335.92 0.206846 336.865C0.255111 337.21 0.344744 337.485 0.413693 337.816C0.524011 338.437 0.620539 339.057 0.827386 339.678C0.923914 340.023 1.03423 340.367 1.17213 340.747C1.3445 341.298 1.51687 341.85 1.72372 342.353C1.86851 342.698 2.06846 343.043 2.20636 343.387C2.43389 343.87 2.689 344.353 2.9648 344.856C3.15786 345.201 3.37849 345.546 3.58534 345.863C3.88182 346.345 4.20588 346.759 4.55062 347.173C4.79194 347.517 5.03326 347.793 5.30906 348.124C5.6607 348.538 5.99855 348.952 6.41224 349.317C6.69493 349.593 6.96383 349.938 7.30857 350.144C7.70848 350.489 8.13596 350.834 8.54965 351.192C8.88061 351.468 9.23914 351.675 9.51493 351.944C9.64594 352.013 9.72178 352.151 9.85968 352.213L243.796 508.292C247.492 510.774 251.725 512.016 256 511.995C260.275 511.974 264.508 510.754 268.204 508.292L502.202 352.296C502.333 352.213 502.444 352.116 502.568 352.027C502.913 351.785 503.237 351.53 503.568 351.275C503.995 350.937 504.416 350.586 504.816 350.227C505.119 349.958 505.409 349.662 505.698 349.372C506.077 348.986 506.443 348.593 506.787 348.179C507.049 347.869 507.298 347.559 507.539 347.228C507.87 346.793 508.173 346.345 508.47 345.89C508.684 345.559 508.897 345.221 509.097 344.884C509.373 344.401 509.614 343.911 509.849 343.415C510.014 343.063 510.187 342.712 510.338 342.353C510.552 341.822 510.731 341.285 510.904 340.747C511.021 340.388 511.145 340.036 511.248 339.678C511.407 339.071 511.517 338.451 511.635 337.83C511.69 337.513 511.772 337.203 511.807 336.879C511.931 335.927 512 334.976 512 334.004V178C512 177.028 511.924 176.076 511.807 175.125C511.752 174.787 511.648 174.511 511.579 174.173H511.614ZM255.993 308.044L178.184 256.002L255.993 203.952L333.809 256.002L255.993 308.044ZM233.998 165.734L138.615 229.532L61.6195 178.028L233.998 63.1106V165.734ZM99.045 255.995L44.01 292.807V219.183L99.045 255.995ZM138.615 282.485L233.998 346.276V448.9L61.6195 333.969L138.615 282.471V282.485ZM277.995 346.263L373.378 282.471L450.38 333.969L277.995 448.886V346.263ZM412.948 256.009L467.99 219.19V292.82L412.948 255.995V256.009ZM373.378 229.532L277.995 165.741V63.1106L450.38 178.028L373.378 229.532Z" fill="black"/>
</g>
<defs>
<clipPath id="clip0_102_1167">
<rect width="512" height="512" fill="white"/>
</clipPath>
</defs>
</svg>
