<svg width="512" height="512" viewBox="0 0 512 512" fill="none" xmlns="http://www.w3.org/2000/svg">
<path d="M251.329 370.697L252.944 505.151L255.85 511.135L476.7 383.566L351.631 311.245L255.85 366.492L251.329 370.697Z" fill="#A3BAF0"/>
<path d="M35 383.566L255.85 511.135V366.631L160.209 311.384V200.89L160.209 195.493L43.1536 128.568H35V383.566Z" fill="#4474E1"/>
<path d="M39.7137 131.291C57.5563 141.597 121.691 178.642 156.26 198.609C157.576 199.369 160.209 200.89 160.209 200.89L255.85 145.642L351.631 200.89L476.7 128.568L255.85 1L35 128.568C35 128.568 36.6938 129.547 39.7137 131.291Z" fill="#C7D6F7"/>
</svg>
