<svg width="512" height="512" viewBox="0 0 512 512" fill="none" xmlns="http://www.w3.org/2000/svg">
<path d="M39.9801 255.52C39.9801 134.483 130.885 33.9137 249.142 16.225L248.526 16.2023C245.796 16.1014 243.053 16 240.298 16C107.59 16 0 123.239 0 255.52C0 387.806 107.585 495.04 240.298 495.04C243.155 495.04 245.991 494.936 248.822 494.832L249.161 494.819C130.885 477.131 39.9801 376.562 39.9801 255.52Z" fill="#2C2255"/>
<path d="M502.962 321.639C492.492 357.284 473.073 389.24 444.661 417.465L443.411 418.715C407.932 453.965 366.616 475.1 319.504 482.211C307.599 484.006 295.342 484.949 282.692 484.949C219.408 484.949 165.292 462.474 120.287 417.465C92.0576 389.231 72.7753 357.284 62.3842 321.639H502.962Z" fill="#2C2255"/>
<path d="M511.807 268.343C511.385 276.835 510.508 285.133 509.236 293.271L508.798 295.978H56.5911C55.237 287.875 54.2778 279.616 53.7612 271.167L53.6055 268.343H511.807Z" fill="#2C2255"/>
<path d="M508.788 215.048C510.151 223.155 511.115 231.415 511.636 239.86L511.793 242.682H53.6055C54.0231 234.195 54.8925 225.898 56.1556 217.756L56.5911 215.048H508.788Z" fill="#2C2255"/>
<path d="M502.972 189.382C492.51 153.638 473.087 121.542 444.661 93.1106C408.997 57.4472 367.381 36.051 319.869 28.8518C307.852 27.0285 295.473 26.0724 282.692 26.0724C219.408 26.0724 165.287 48.4247 120.287 93.1106C92.0482 121.542 72.7565 153.638 62.3701 189.382H502.972Z" fill="#2C2255"/>
</svg>
