<svg width="512" height="512" viewBox="0 0 512 512" fill="none" xmlns="http://www.w3.org/2000/svg">
<g clip-path="url(#clip0_324_413)">
<path d="M89.1732 193.451C95.6585 193.451 99.2425 195.84 99.2425 200.277L99.4132 200.533C99.4132 205.141 95.4878 207.445 88.8318 207.445H78.1652V193.451H89.1732Z" fill="black"/>
<path d="M78.1652 222.976H91.5625L93.1626 223.014C99.5759 223.37 102.411 226.179 102.571 230.4C102.571 235.093 98.8158 237.739 91.9892 237.739H78.1652V222.976Z" fill="black"/>
<path d="M232.618 223.915L241.664 201.301L250.624 223.915H232.618Z" fill="black"/>
<path d="M154.027 194.816H165.888C173.227 194.816 177.92 198.059 177.92 204.459C177.92 210.347 173.397 214.016 165.973 214.016L154.027 214.187V194.816Z" fill="black"/>
<path fill-rule="evenodd" clip-rule="evenodd" d="M512 0H0V512H512V0ZM247.723 416H55.7225V448H247.723V416ZM61.9518 118.528L47.7012 132.011L48.875 133.57C55.3574 141.671 65.3324 146.255 75.7758 145.835L77.6552 145.835C85.1484 145.602 92.3108 142.571 97.7065 137.301C103.371 131.262 106.223 123.112 105.557 114.859V64.1707H83.5412V114.688C83.5412 122.112 79.9572 125.952 74.4958 125.952C69.3667 125.629 64.7027 122.869 61.9518 118.528ZM179.712 64.1707H115.456L115.2 143.616H180.053V124.843H137.387V112.128H175.36V95.0613H137.045V82.8587H179.712V64.1707ZM187.136 83.5413H211.029V144.043H233.216V83.5413H257.195V64.1707H187.136V83.5413ZM94.2932 175.616H56.5758V256H94.4638C113.579 256 124.757 247.467 124.757 233.045C124.997 223.513 118.264 215.223 108.885 213.504C116.41 210.831 121.389 203.654 121.259 195.669C121.36 190.818 119.481 186.134 116.053 182.699C110.042 177.517 102.203 174.965 94.2932 175.616ZM161.28 231.765L177.408 256H220.416L226.133 241.152H257.109L262.827 255.573H286.635L252.501 175.019H231.168L199.484 250.735L183.893 227.413C194.07 223.533 200.678 213.639 200.363 202.752L200.384 201.028C200.245 194.726 197.719 188.685 193.28 184.149C186.105 177.921 176.723 174.845 167.253 175.616H131.84L131.669 256H153.856V231.765H161.28ZM312.32 175.36H290.133V255.317H312.32V175.36ZM341.333 175.36H320.512V255.317H342.528V211.456L372.651 255.317H392.021V175.36H370.091V218.027L341.333 175.36ZM407.979 228.693L395.691 243.456L397.709 245.011C407.954 252.54 420.484 256.372 433.237 255.829L435.152 255.798C453.453 255.201 465.493 245.985 465.493 230.229C465.493 215.296 454.144 209.323 435.797 205.312L432.541 204.555C432.043 204.433 431.567 204.312 431.111 204.192L428.623 203.483C423.37 201.842 421.888 200.25 421.888 197.547C421.888 194.56 424.533 192.427 429.909 192.427C437.997 192.656 445.811 195.4 452.267 200.277L462.933 185.088C453.59 177.756 441.948 173.977 430.08 174.421C410.88 174.421 399.104 185.173 399.104 200.021C399.104 213.651 408.046 219.157 420.803 222.875L424.069 223.771L427.476 224.615L429.227 225.024L432.429 225.807C432.918 225.934 433.385 226.059 433.832 226.183L436.269 226.916C441.405 228.606 442.795 230.211 442.795 232.789C442.795 236.203 439.637 238.336 433.579 238.336C424.2 238.11 415.176 234.71 407.979 228.693Z" fill="black"/>
</g>
<defs>
<clipPath id="clip0_324_413">
<rect width="512" height="512" fill="white"/>
</clipPath>
</defs>
</svg>
