<svg width="512" height="542" viewBox="0 0 512 542" fill="none" xmlns="http://www.w3.org/2000/svg">
<path d="M200.055 0.928175C202.86 -0.364256 211.346 6.67096 207.078 12.2308C202.86 17.7785 197.263 22.046 191.52 12.2308C187.114 4.42434 193.332 2.81905 197.475 1.74943C198.548 1.47254 199.481 1.23155 200.055 0.928175Z" fill="#E92200"/>
<path d="M64.5502 76.2219C52.847 82.9288 41.0596 89.6841 32.9052 93.7613C13.0676 103.589 36.9654 105.064 46.7927 100.809C56.6079 96.5412 104.428 71.3388 121.303 61.3408L121.59 61.1732C138.448 51.356 162.134 37.5617 178.925 26.311C195.776 15.0084 176.158 12.2284 171.878 15.0084C170.631 15.8205 167.836 17.4857 164.327 19.5753L164.324 19.5774L164.32 19.5794C155.819 24.6429 143.139 32.1951 138.177 36.1384C131.118 41.6983 112.963 53.001 103.135 55.7809C97.3924 57.4003 81.055 66.7631 64.5502 76.2219Z" fill="#E92200"/>
<path d="M505.643 71.8887C513.41 67.2677 510.264 50.0271 502.498 50.0271C500.965 50.0271 499.425 49.8403 497.941 49.6601C491.878 48.9244 486.732 48.3 486.732 60.964C486.732 76.522 497.864 76.522 505.643 71.8887Z" fill="#E92200"/>
<path d="M466.349 76.5256C460.806 81.289 448.463 89.3588 435.113 98.0873C426.114 103.971 416.658 110.153 408.518 115.824C388.144 129.905 350.518 154.925 339.398 161.216C338.252 161.877 337.071 162.554 335.865 163.246L335.857 163.251L335.852 163.254C325.569 169.152 313.406 176.128 304.941 183.066C295.662 191.052 298.82 205.135 312.915 200.32C326.973 195.687 341.08 187.908 350.518 178.433C359.784 168.995 369.233 162.693 378.683 156.583C383.093 153.651 401.107 140.491 420.512 126.316L420.516 126.313L420.517 126.313L420.52 126.31L420.528 126.304L420.535 126.299L420.54 126.295C442.76 110.064 466.795 92.5063 474.31 87.4503C488.405 71.8924 475.798 68.7357 466.349 76.5256Z" fill="#E92200"/>
<path d="M162.444 154.927C124.83 143.441 62.1834 124.517 46.4426 120.457C30.6895 116.361 27.7145 122.116 32.36 128.225C35.4658 132.472 40.1053 133.857 52.8304 137.656C58.9887 139.495 67.0408 141.899 77.7292 145.466C92.3022 150.377 112.948 156.773 133.217 163.052L133.22 163.052L133.221 163.053C158.839 170.989 183.855 178.739 195.243 183.067C198.637 184.398 202.032 185.764 205.413 187.125C206.351 195.592 207.08 203.465 207.08 209.025C207.08 224.402 208.384 231.46 216.907 231.46C223.584 231.46 223.133 224.208 222.688 217.042C222.577 215.257 222.467 213.478 222.467 211.818C222.467 209.488 222.371 205.28 222.257 200.311C222.209 198.21 222.158 195.973 222.109 193.684C233.098 197.784 243.657 201.061 253.244 201.99C270.496 203.479 272.142 186.238 250.086 179.921C245.38 178.61 240.383 177.236 235.064 175.775C230.893 174.629 226.524 173.428 221.942 172.16C222.015 168.842 222.175 166.406 222.467 165.485C223.954 161.218 221.175 137.308 219.711 130.272C218.212 123.225 215.432 100.803 215.432 86.72C215.432 72.6374 212.664 54.4824 209.872 37.6198C207.08 20.7572 191.522 30.5602 193.021 36.1323C194.485 41.6922 198.569 62.8222 198.569 82.4525C198.569 93.1229 199.393 106.751 200.146 119.201C200.779 129.669 201.361 139.304 201.361 145.648C201.361 150.75 202.111 158.423 203.067 166.875C190.891 163.42 177.418 159.494 162.444 154.927Z" fill="#E92200"/>
<path d="M294 209.773C297.146 201.982 295.659 187.899 281.588 189.387C267.323 191.045 267.323 201.982 272.151 212.931C275.297 220.697 290.855 217.552 294 209.773Z" fill="#E92200"/>
<path d="M497.86 82.8195C503.981 82.8195 507.115 95.439 505.652 104.876C503.981 114.143 507.115 175.301 508.785 197.163C510.273 219.22 510.273 228.681 507.115 236.46C505.178 241.268 505.635 247.914 506.267 257.103C506.658 262.782 507.115 269.433 507.115 277.221C507.115 297.619 503.981 324.114 502.494 335.234C500.836 346.158 499.348 353.937 493.02 352.462C486.729 350.804 486.729 343 486.729 330.393C486.729 317.993 486.729 252.018 488.411 236.46C489.862 220.707 489.862 214.404 489.862 201.979V103.218C489.862 90.6107 491.557 82.8195 497.86 82.8195Z" fill="#E92200"/>
<path d="M500.836 385.252C505.652 380.619 502.494 363.378 493.02 364.878C483.583 366.548 478.95 372.84 482.095 380.619C485.229 388.41 496.178 390.08 500.836 385.252Z" fill="#E92200"/>
<path d="M13.0614 106.365C21.6085 105.06 24.3762 120.46 17.341 125.995C10.3058 131.762 0.478462 127.483 1.95378 118.972C3.23402 110.62 4.73373 107.852 13.0614 106.365Z" fill="#E92200"/>
<path d="M305.492 13.7196C291.397 9.44114 246.394 2.40471 228.214 2.40471C209.876 2.40471 218.204 17.7798 225.239 19.2673C226.705 19.5761 228.656 20.0603 231.067 20.6587C240.272 22.9427 256.175 26.8892 277.315 29.0824C293.641 30.7836 312.042 34.0811 326.802 36.7259C336.171 38.4049 344.073 39.8209 349.044 40.3985C355.615 41.0791 364.857 43.7209 373.802 46.2777C382.002 48.6217 389.953 50.8943 395.365 51.5183C397.188 51.7558 399.919 52.0994 403.266 52.5202L403.269 52.5206C420.695 54.7123 454.79 59.0003 464.107 61.3322C475.447 64.2951 479.702 47.4447 472.654 44.4709C465.57 41.7031 450.22 38.911 424.822 36.1433C403.448 33.7752 391.019 29.275 385.237 27.1817C384.202 26.8068 383.38 26.5091 382.757 26.3147C380.496 25.5242 373.89 25.1538 367.335 24.7863C361.554 24.4622 355.814 24.1404 353.129 23.5347C351.141 23.0021 346.246 22.1121 340.143 21.0024C329.217 19.0156 314.418 16.3246 305.492 13.7196Z" fill="#E92200"/>
<path d="M9.00098 152.695C9.00098 142.868 24.376 138.6 25.8635 151.39C26.8378 160.894 27.916 175.233 28.9466 188.941C29.2832 193.417 29.6147 197.827 29.9359 201.978C31.4234 218.853 32.8988 234.24 34.1912 245.53C35.036 251.846 37.6702 263.659 40.0323 274.252C41.8292 282.311 43.4687 289.663 44.0429 293.35C45.4939 301.666 46.7985 318.541 46.7985 328.368C46.7985 332.346 47.2839 337.023 47.764 341.648C48.4699 348.449 49.1641 355.138 48.286 359.325C46.7985 366.348 39.7633 384.516 35.6787 363.568C33.3459 351.991 33.1238 338.743 32.9432 327.975C32.7944 319.1 32.6739 311.909 31.4234 308.725C28.6313 301.666 22.8885 286.291 22.8885 275C22.8885 263.907 17.556 235.386 16.1062 227.632L16.024 227.193C14.5609 220.145 9.00098 162.51 9.00098 152.695Z" fill="#E92200"/>
<path d="M56.6137 387.477C52.5535 380.442 41.2509 384.516 39.7633 390.269C38.4587 395.818 39.7633 408.437 49.7614 407.132C59.5765 405.644 60.8934 394.537 56.6137 387.477Z" fill="#E92200"/>
<path d="M62.3565 371.92C68.6088 365.68 80.7213 357.71 93.9237 349.023C107.369 340.176 121.944 330.585 132.611 321.321C144.159 311.386 160.69 299.294 174.454 289.226C185.861 280.882 195.368 273.928 198.562 270.745C205.597 263.685 223.959 269.428 208.389 282.036C200.387 288.603 186.644 298.987 173.111 309.214C160.663 318.621 148.392 327.894 140.927 333.94C133.821 339.85 121 349.013 108.428 357.998C93.8205 368.438 79.5501 378.637 74.976 383.211C66.6361 391.563 49.7614 384.516 62.3565 371.92Z" fill="#E92200"/>
<path d="M226.732 262.4C232.304 259.622 232.304 248.319 226.732 246.831C221.172 245.538 214.137 246.831 212.662 255.353C211.345 263.682 221.172 265.169 226.732 262.4Z" fill="#E92200"/>
<path d="M82.0211 404.354C93.8484 407.704 114.355 419.26 131.872 429.131L131.875 429.133L131.876 429.133C143.431 435.644 153.685 441.422 159.287 443.627C173.369 449.199 200.059 463.27 212.654 470.317C222.462 475.796 243.398 485.555 256.213 491.529L256.215 491.53L256.218 491.531L256.222 491.533L256.223 491.534L256.232 491.538L256.238 491.54L256.253 491.547L256.273 491.557L256.28 491.56C259.891 493.243 262.852 494.624 264.729 495.52C267.766 497.078 270.635 498.264 273.261 499.35C277.827 501.237 281.658 502.821 284.36 505.53C288.627 509.59 282.897 525.172 271.752 519.429C260.462 513.87 216.909 491.447 209.874 487.18C207.021 485.443 200.905 482.083 194.079 478.333C184.132 472.868 172.676 466.574 167.614 463.27C163.037 460.214 157.561 458.392 151.71 456.445C146.917 454.85 141.872 453.172 136.864 450.662C125.561 445.127 86.2764 423.997 73.4862 416.949C60.9033 409.914 62.3543 398.599 82.0211 404.354Z" fill="#E92200"/>
<path d="M266.041 277.767C268.71 279.574 273.722 282.751 279.864 286.384C281.891 297.951 285.439 320.87 284.36 338.197C282.896 359.328 284.36 386.004 287.152 400.075C289.907 414.17 291.395 450.662 291.395 460.502C291.395 470.317 294.175 482.912 295.662 485.704C296.955 488.667 305.502 501.262 306.782 482.912C307.538 473.829 307.538 460.164 307.538 447.357C307.538 434.55 307.538 422.601 308.294 416.949C309.351 407.787 307.701 388.521 305.563 363.575L305.563 363.571C305.064 357.745 304.538 351.609 304.014 345.22C302.516 327.042 301.401 310.543 300.69 297.857C309.125 302.113 317.429 305.731 323.64 307.237C336.681 310.523 360.652 321.336 381.227 330.616C387.294 333.353 393.065 335.956 398.174 338.194C411.595 344.076 429.613 353.49 444.613 361.327C454.645 366.569 463.327 371.105 468.38 373.407C480.999 378.967 479.707 357.824 474.123 353.752C471.399 351.728 459.876 346.871 447.311 341.574C433.383 335.703 418.174 329.291 412.245 325.599C405.042 321.11 379.127 309.811 355.063 299.32L355.062 299.319C341.284 293.313 328.114 287.57 319.409 283.522C313.391 280.658 306.639 277.712 299.771 274.86C299.778 273.099 299.9 270.793 300.039 268.169L300.04 268.165C300.568 258.221 301.338 243.717 296.955 237.022C292.699 222.926 277.324 218.854 275.837 232.937C275.036 241.544 275.798 255.057 276.847 265.772C265.377 261.408 255.84 258.015 251.922 256.649C243.619 253.881 239.327 258.137 243.619 265.172C246.161 269.395 250.713 271.087 255.748 272.959C259.116 274.211 262.699 275.543 266.041 277.767Z" fill="#E92200"/>
<path d="M302.527 511.084C306.782 509.596 320.901 520.912 315.305 533.506C309.599 546.127 301.247 540.553 295.662 530.738C289.907 520.912 298.442 512.388 302.527 511.084Z" fill="#E92200"/>
<path d="M355.027 478.698C349.698 480.981 343.758 483.525 332.181 496.991C313.831 518.133 333.461 520.901 339.204 516.634C344.788 512.391 350.336 508.318 357.371 505.538C362.194 503.509 367.006 498.293 373.563 491.184C376.619 487.871 380.055 484.146 384.049 480.141C389.748 474.436 394.919 472.11 399.901 469.869C405.939 467.153 411.7 464.562 417.786 456.231C429.113 441.026 457.254 413.422 469.861 405.643C482.493 397.876 469.861 387.476 461.314 394.536C458.381 396.953 455.074 399.395 451.405 402.103C444.674 407.073 436.724 412.943 427.625 421.213C418.84 429.064 400.273 444.039 385.154 456.233L385.152 456.234L385.15 456.236C376.015 463.604 368.139 469.955 364.443 473.106C360.887 476.189 358.055 477.401 355.027 478.698Z" fill="#E92200"/>
</svg>
