<svg width="512" height="542" viewBox="0 0 512 542" fill="none" xmlns="http://www.w3.org/2000/svg">
<path d="M46.4426 120.457C62.1834 124.517 124.83 143.441 162.444 154.927C200.059 166.4 228.212 173.825 250.086 179.921C272.142 186.238 270.496 203.479 253.244 201.99C236.003 200.32 215.617 191.053 195.243 183.067C174.844 175.314 110.723 156.584 77.7292 145.466C44.9551 134.528 36.9688 134.528 32.36 128.225C27.7145 122.116 30.6895 116.361 46.4426 120.457Z" fill="#E92200"/>
<path d="M281.588 189.387C295.659 187.899 297.146 201.982 294 209.773C290.855 217.552 275.297 220.697 272.151 212.931C267.323 201.982 267.323 191.045 281.588 189.387Z" fill="#E92200"/>
<path d="M466.349 76.5256C457.07 84.4997 428.734 101.74 408.518 115.824C388.144 129.905 350.518 154.925 339.398 161.216C328.485 167.508 314.403 175.311 304.941 183.066C295.662 191.052 298.82 205.135 312.915 200.32C326.973 195.687 341.08 187.908 350.518 178.433C359.784 168.995 369.233 162.693 378.683 156.583C388.144 150.292 460.228 96.9241 474.31 87.4503C488.405 71.8924 475.798 68.7357 466.349 76.5256Z" fill="#E92200"/>
<path d="M502.498 50.0271C510.264 50.0271 513.41 67.2677 505.643 71.8887C497.864 76.522 486.732 76.522 486.732 60.964C486.732 45.1988 494.706 50.0271 502.498 50.0271Z" fill="#E92200"/>
<path d="M497.86 82.8195C503.981 82.8195 507.115 95.439 505.652 104.876C503.981 114.143 507.115 175.301 508.785 197.163C510.273 219.22 510.273 228.681 507.115 236.46C503.981 244.239 507.115 256.834 507.115 277.221C507.115 297.619 503.981 324.114 502.494 335.234C500.836 346.158 499.348 353.937 493.02 352.462C486.729 350.804 486.729 343 486.729 330.393C486.729 317.993 486.729 252.018 488.411 236.46C489.862 220.707 489.862 214.404 489.862 201.979V103.218C489.862 90.6107 491.557 82.8195 497.86 82.8195Z" fill="#E92200"/>
<path d="M493.02 364.878C502.494 363.378 505.652 380.619 500.836 385.252C496.178 390.08 485.229 388.41 482.095 380.619C478.95 372.84 483.583 366.548 493.02 364.878Z" fill="#E92200"/>
<path d="M13.0614 106.365C21.6085 105.06 24.3762 120.46 17.341 125.995C10.3058 131.762 0.478461 127.483 1.95378 118.972C3.23402 110.62 4.73373 107.852 13.0614 106.365Z" fill="#E92200"/>
<path d="M32.9052 93.7613C52.5599 83.9339 93.3202 58.5486 103.135 55.7809C112.963 53.0009 131.118 41.6982 138.177 36.1384C145.188 30.5663 167.611 17.7883 171.878 15.0083C176.158 12.2284 195.776 15.0083 178.925 26.311C162.039 37.6259 138.177 51.5134 121.303 61.3408C104.428 71.3388 56.6079 96.5412 46.7927 100.809C36.9654 105.064 13.0676 103.589 32.9052 93.7613Z" fill="#E92200"/>
<path d="M200.055 0.92816C202.86 -0.364271 211.346 6.67094 207.078 12.2308C202.86 17.7785 197.263 22.046 191.52 12.2308C185.973 2.40348 197.263 2.40348 200.055 0.92816Z" fill="#E92200"/>
<path d="M228.214 2.40469C246.394 2.40469 291.397 9.44113 305.492 13.7196C319.404 17.7797 347.581 22.0484 353.129 23.5347C358.86 24.8272 378.502 24.8272 382.757 26.3147C386.854 27.5949 399.62 33.3511 424.822 36.1432C450.22 38.911 465.571 41.7031 472.654 44.4709C479.702 47.4447 475.447 64.2951 464.107 61.3322C453 58.5523 406.68 52.9924 395.365 51.5183C384.05 50.2137 361.64 41.7031 349.044 40.3985C336.242 38.911 304.004 31.8636 277.315 29.0824C250.637 26.3147 232.299 20.7548 225.239 19.2673C218.204 17.7797 209.876 2.40469 228.214 2.40469Z" fill="#E92200"/>
<path d="M9.00098 152.695C9.00098 142.868 24.376 138.6 25.8635 151.39C27.156 163.998 28.6313 185.115 29.9359 201.978C31.4234 218.853 32.8988 234.24 34.1912 245.53C35.6787 256.65 42.7139 284.815 44.0429 293.35C45.4939 301.666 46.7985 318.541 46.7985 328.368C46.7985 338.195 49.7613 352.29 48.286 359.325C46.7985 366.348 39.7633 384.516 35.6787 363.568C31.4234 342.451 34.1912 315.773 31.4234 308.725C28.6313 301.666 22.8885 286.291 22.8885 275C22.8885 263.685 17.3408 234.24 16.024 227.193C14.5609 220.145 9.00098 162.51 9.00098 152.695Z" fill="#E92200"/>
<path d="M39.7633 390.269C41.2509 384.516 52.5535 380.442 56.6137 387.477C60.8934 394.537 59.5765 405.644 49.7614 407.132C39.7633 408.437 38.4587 395.818 39.7633 390.269Z" fill="#E92200"/>
<path d="M62.3565 371.92C74.976 359.325 111.469 339.683 132.611 321.321C153.729 303.153 191.514 277.768 198.562 270.745C205.597 263.685 223.959 269.428 208.389 282.036C193.026 294.643 156.509 321.321 140.927 333.94C125.564 346.718 83.4865 374.7 74.976 383.211C66.6361 391.563 49.7614 384.516 62.3565 371.92Z" fill="#E92200"/>
<path d="M226.732 246.831C232.304 248.319 232.304 259.622 226.732 262.4C221.172 265.169 211.345 263.682 212.662 255.353C214.137 246.831 221.172 245.538 226.732 246.831Z" fill="#E92200"/>
<path d="M82.0212 404.354C101.651 409.914 145.192 438.08 159.287 443.627C173.369 449.199 200.059 463.27 212.654 470.317C225.249 477.352 256.195 491.447 264.729 495.52C273.045 499.787 280.104 501.262 284.36 505.53C288.627 509.59 282.897 525.172 271.752 519.43C260.462 513.87 216.909 491.447 209.874 487.18C202.863 482.912 176.149 468.842 167.614 463.27C159.287 457.71 147.984 456.235 136.864 450.662C125.561 445.127 86.2764 423.997 73.4862 416.95C60.9033 409.914 62.3543 398.599 82.0212 404.354Z" fill="#E92200"/>
<path d="M275.837 232.937C274.544 246.836 277.324 273.526 278.812 280.574C280.104 287.584 285.676 317.054 284.36 338.197C282.896 359.328 284.36 386.004 287.152 400.075C289.907 414.17 291.395 450.662 291.395 460.502C291.395 470.317 294.175 482.912 295.662 485.704C296.955 488.667 305.502 501.262 306.782 482.912C308.294 464.746 306.782 428.252 308.294 416.949C309.598 405.647 306.782 378.969 304.014 345.22C301.234 311.482 299.771 283.524 299.771 275.002C299.771 266.662 302.527 245.532 296.955 237.022C292.699 222.926 277.324 218.854 275.837 232.937Z" fill="#E92200"/>
<path d="M302.527 511.084C306.782 509.596 320.901 520.912 315.305 533.506C309.599 546.127 301.247 540.553 295.662 530.738C289.907 520.912 298.442 512.388 302.527 511.084Z" fill="#E92200"/>
<path d="M332.181 496.991C350.336 475.873 354.627 481.616 364.443 473.106C374.258 464.741 413.531 433.808 427.625 421.213C441.684 408.435 452.999 401.388 461.314 394.536C469.861 387.476 482.493 397.876 469.861 405.643C457.254 413.422 429.113 441.026 417.786 456.231C406.678 471.435 396.656 467.521 384.049 480.141C371.49 492.736 364.443 502.563 357.371 505.538C350.336 508.318 344.788 512.391 339.204 516.634C333.461 520.901 313.831 518.133 332.181 496.991Z" fill="#E92200"/>
<path d="M251.922 256.649C260.457 259.624 295.657 272.219 319.409 283.522C343.319 294.642 400.917 318.539 412.244 325.599C423.523 332.622 468.38 349.485 474.123 353.752C479.707 357.824 480.999 378.967 468.38 373.407C455.773 367.664 420.572 348.009 398.174 338.194C375.739 328.367 340.527 311.492 323.64 307.237C306.789 303.152 274.54 283.522 266.041 277.767C257.701 272.219 247.862 272.219 243.619 265.172C239.327 258.137 243.619 253.881 251.922 256.649Z" fill="#E92200"/>
<path d="M209.872 37.6198C212.664 54.4823 215.432 72.6373 215.432 86.72C215.432 100.803 218.212 123.225 219.711 130.272C221.175 137.308 223.955 161.218 222.467 165.485C221.175 169.557 222.467 203.283 222.467 211.818C222.467 220.145 225.247 231.46 216.907 231.46C208.384 231.46 207.08 224.402 207.08 209.025C207.08 193.455 201.361 159.742 201.361 145.647C201.361 131.76 198.569 102.095 198.569 82.4525C198.569 62.8222 194.485 41.6922 193.022 36.1323C191.522 30.5602 207.08 20.7572 209.872 37.6198Z" fill="#E92200"/>
</svg>
