<svg width="511" height="512" viewBox="0 0 511 512" fill="none" xmlns="http://www.w3.org/2000/svg">
<path fill-rule="evenodd" clip-rule="evenodd" d="M59.0752 256.506V511.73L178.64 393.102L178.479 250.85L268.362 162.261C271.293 164.681 274.228 167.148 277.164 169.66L189.722 256.514L189.712 511.81L271.314 430.735C348.943 481.61 420.55 498.158 452.341 466.367C484.053 434.654 467.662 363.316 417.081 285.91L447.973 255.217V0L296.166 150.786C293.243 148.316 290.318 145.89 287.391 143.506L318.566 112.78L318.539 0L220.703 96.7205C150.797 55.5581 88.3277 44.1512 59.2264 73.2525C30.3267 102.151 41.3496 163.911 81.8142 233.227L101.056 214.207C67.8174 158.471 57.0853 111.33 77.6202 90.7952C98.3106 70.1048 145.968 81.127 202.256 114.958L59.0752 256.506ZM202.256 114.958C223.398 127.665 245.757 143.59 268.362 162.261L287.391 143.506C264.963 125.242 242.472 109.539 220.703 96.7205L202.256 114.958ZM398.565 304.306C377.628 273.018 350.338 239.811 318.094 207.568C304.549 194.023 290.835 181.353 277.164 169.66L296.166 150.786C309.938 162.423 323.648 175.013 337.114 188.479C369.028 220.393 396.019 253.678 417.081 285.91L398.565 304.306ZM398.565 304.306C441.686 368.744 457.861 425.045 434.866 448.04C411.822 471.086 355.335 454.794 290.717 411.457L398.565 304.306ZM290.717 411.457L271.314 430.735C271.12 430.607 270.926 430.48 270.732 430.352L290.142 411.071C290.333 411.2 290.525 411.329 290.717 411.457Z" fill="#7D4F8F"/>
</svg>
