<svg width="511" height="512" viewBox="0 0 511 512" fill="none" xmlns="http://www.w3.org/2000/svg">
<path d="M434.869 448.254C411.756 471.369 355.002 454.912 290.143 411.285L398.178 303.947C441.587 368.624 457.931 425.192 434.869 448.254ZM101.055 214.42C67.8175 158.683 57.0854 111.542 77.6204 91.007C98.2485 70.3789 145.685 81.2822 201.75 114.873L101.055 214.42ZM416.698 285.547L447.887 254.559V0L296.003 150.862C292.933 148.268 289.859 145.73 286.786 143.233L317.975 112.493L317.948 0L220.192 96.6407C150.493 55.7253 88.2561 44.4346 59.2265 73.4642C30.3266 102.362 41.3496 164.124 81.8145 233.44L59.1451 255.852V510.426L178.405 392.1L178.244 250.21L267.762 161.983C270.839 164.516 273.919 167.101 277.001 169.736L190.303 255.852L190.293 510.489L270.736 430.567C348.587 481.742 420.473 498.452 452.344 466.582C484.135 434.791 467.573 363.175 416.698 285.547Z" fill="#7D4F8F"/>
<path d="M59.0752 256.506V511.73L178.64 393.102L178.479 250.85L318.566 112.78L318.539 0L59.0752 256.506Z" fill="#3F2A70"/>
<path d="M189.712 511.81L189.722 256.514L447.973 0V255.217L189.712 511.81Z" fill="#5A2A79"/>
<path d="M270.732 430.352C348.584 481.527 420.47 498.237 452.341 466.367C497.259 421.449 445.67 297.035 337.114 188.479C228.559 79.9235 104.144 28.3345 59.2264 73.2525C30.3267 102.151 41.3496 163.911 81.8142 233.227L101.056 214.207C67.8174 158.471 57.0853 111.33 77.6202 90.7952C111.78 56.6358 219.444 108.916 318.094 207.568C416.745 306.217 469.026 413.88 434.866 448.04C411.753 471.154 354.999 454.697 290.142 411.071L270.732 430.352Z" fill="#7D4F8F"/>
</svg>
