<svg width="512" height="512" viewBox="0 0 512 512" fill="none" xmlns="http://www.w3.org/2000/svg">
<g clip-path="url(#clip0_322_414)">
<path d="M442.258 0.444756C447.7 -1.2853 452.135 2.18576 452.135 8.1862V129.52C452.135 135.509 447.7 141.784 442.258 143.514L284.925 193.404L442.313 243.309C447.766 245.039 452.189 251.313 452.189 257.303V378.647C452.189 379.408 452.118 380.128 451.982 380.802C451.16 386.154 447.11 391.307 442.258 392.85L67.8766 511.555C62.4237 513.285 58 509.814 58 503.814V382.48C58 376.491 62.4237 370.216 67.8766 368.486L226.878 318.067L67.8766 267.65C64.2257 266.492 61.0362 263.297 59.3268 259.51C58.4831 258.177 58 256.472 58 254.489V132.312C58 130.329 58.4828 128.624 59.3262 127.292C61.0354 123.505 64.2252 120.309 67.8766 119.151L442.258 0.444756Z" fill="#FF9800"/>
</g>
<defs>
<clipPath id="clip0_322_414">
<rect width="512" height="512" fill="white"/>
</clipPath>
</defs>
</svg>
