<svg width="512" height="512" viewBox="0 0 512 512" fill="none" xmlns="http://www.w3.org/2000/svg">
<path d="M452.135 257.511C452.135 251.511 447.7 248.051 442.258 249.77L67.8766 368.486C62.4237 370.216 58 376.491 58 382.48V503.814C58 509.814 62.4237 513.285 67.8766 511.555L442.258 392.85C447.7 391.119 452.135 384.845 452.135 378.845V257.511Z" fill="url(#paint0_linear_102_1170)"/>
<path d="M58 253.646C58 259.646 62.4237 265.92 67.8766 267.65L442.313 386.378C447.766 388.108 452.189 384.637 452.189 378.647V257.303C452.189 251.313 447.766 245.039 442.313 243.309L67.8766 124.581C62.4237 122.851 58 126.311 58 132.312V253.646Z" fill="#FF9800"/>
<path d="M452.135 8.1862C452.135 2.18576 447.7 -1.2853 442.258 0.444756L67.8766 119.151C62.4237 120.881 58 127.155 58 133.155V254.489C58 260.489 62.4237 263.949 67.8766 262.23L442.258 143.514C447.7 141.784 452.135 135.509 452.135 129.52V8.1862Z" fill="#FF9800"/>
<defs>
<linearGradient id="paint0_linear_102_1170" x1="275.236" y1="403.463" x2="291.766" y2="348.189" gradientUnits="userSpaceOnUse">
<stop stop-color="#FF9700"/>
<stop offset="0.53" stop-color="#F48E00"/>
<stop offset="1" stop-color="#D06F00"/>
</linearGradient>
</defs>
</svg>
