<svg width="512" height="512" viewBox="0 0 512 512" fill="none" xmlns="http://www.w3.org/2000/svg">
<path d="M256.574 4.88881L228.393 32.9782L233.723 38.3142V75.6803L221.061 91.114H208.255V210.165L328.758 91.114H322.03L308.015 75.999V56.4003L256.574 4.88881Z" fill="#019833"/>
<path d="M4.875 255.775L63.5559 197.283V314.536L4.875 255.775Z" fill="#019833"/>
<path d="M256.574 507.82L169.58 420.706L226.724 362.016H233.763L203.372 448.906C202.398 451.811 203.969 454.965 206.87 455.939C207.422 456.122 207.996 456.22 208.619 456.226H255.496C257.895 456.226 260.005 454.706 260.787 452.349L263.859 442.446C264.754 439.519 263.1 436.407 260.18 435.513C259.642 435.347 259.104 435.282 258.538 435.268H253.398L283.493 347.413C284.467 344.508 282.897 341.354 279.992 340.378C279.445 340.195 278.871 340.097 278.245 340.091H248.07L261.464 326.335H282.59C284.069 326.381 285.467 325.811 286.601 324.721L292.344 318.926C293.01 318.261 293.498 317.43 293.751 316.545L299.885 295.468C300.453 293.517 299.915 291.414 298.48 289.985L297.658 289.161L417.519 166.055L507.117 255.775L413.411 350.043L406.259 342.203L406.179 342.118C405.116 341.018 403.643 340.43 402.163 340.428H378.225C377.936 340.412 377.643 340.418 377.356 340.448L376.954 340.51C375.756 340.759 374.659 341.41 373.907 342.289L365.321 351.999H353.226L344.032 342.456C343.006 341.394 341.568 340.777 340.058 340.765H303.026C300.705 340.771 298.616 342.241 297.823 344.424L294.388 354.694C293.414 357.597 294.982 360.753 297.886 361.729C298.436 361.912 299.01 362.01 299.634 362.016H304.12L275.014 447.9C274.046 450.799 275.613 453.953 278.514 454.929C279.066 455.112 279.64 455.21 280.263 455.216H308.865L256.574 507.82Z" fill="#019833"/>
<path d="M358.108 405.678L326.836 437.137C326.213 436.433 325.404 435.877 324.451 435.557C323.899 435.371 323.325 435.274 322.703 435.268H321.132L338.326 381.077H365.775L358.108 405.678Z" fill="#019833"/>
<path fill-rule="evenodd" clip-rule="evenodd" d="M223.838 72.3872L223.837 41.444L216.145 33.4592H53.1084L44.8247 41.7548V73.1322L54.0093 82.3283H73.7043L73.7598 82.28V441.661L84.6193 452.357H125.331L221.206 353.871L223.625 344.255C224.141 342.191 225.758 340.627 227.842 340.179L228.267 340.111C228.555 340.081 228.846 340.075 229.137 340.091H234.62L253.075 321.134L251.203 319.261C249.697 317.727 249.199 315.464 249.914 313.469L257.042 293.485C257.345 292.595 257.869 291.794 258.564 291.161L258.646 291.087L265.79 284.943C266.473 284.341 267.348 283.905 268.284 283.708L268.693 283.644C268.979 283.614 269.27 283.608 269.561 283.624H289.591L497.359 70.1977L497.359 41.9421L488.916 34.2282H327.319L319.275 42.2827V73.9012L327.746 81.5673L348.602 81.388L197.027 233.593L197.351 81.398H214.839L223.838 72.3872ZM483.22 40.7208L483.914 41.4148L483.394 40.7208H483.22Z" fill="#019833"/>
<path d="M269.085 287.519C268.804 287.577 268.545 287.708 268.328 287.897L261.186 294.039C260.973 294.235 260.813 294.48 260.724 294.755L253.58 314.784C253.364 315.384 253.512 316.053 253.958 316.51L259.421 321.978C259.738 322.283 260.16 322.448 260.598 322.442H282.658C283.096 322.448 283.519 322.283 283.833 321.978L289.591 316.173C289.79 315.974 289.934 315.727 290.011 315.458L296.147 294.376C296.317 293.794 296.155 293.165 295.727 292.736L290.978 287.981C290.663 287.676 290.238 287.511 289.802 287.519H269.422C269.31 287.507 269.197 287.507 269.085 287.519Z" fill="#019833"/>
<path d="M228.663 343.984C228.043 344.118 227.555 344.592 227.402 345.205L224.671 356.061C224.449 356.95 224.989 357.852 225.878 358.073C226.005 358.105 226.135 358.121 226.266 358.123H239.252L207.063 450.144C206.772 451.014 207.241 451.954 208.109 452.245C208.273 452.301 208.444 452.331 208.619 452.333H255.47C256.193 452.343 256.839 451.883 257.068 451.195L260.136 441.308C260.403 440.432 259.911 439.503 259.034 439.234C258.875 439.186 258.708 439.16 258.538 439.162H247.95L279.801 346.174C280.092 345.303 279.624 344.363 278.755 344.072C278.592 344.016 278.419 343.986 278.245 343.984H228.998C228.886 343.974 228.775 343.974 228.663 343.984Z" fill="#019833"/>
<path d="M377.751 344.321C377.39 344.397 377.063 344.588 376.824 344.869L367.076 355.892H351.571L341.233 345.164C340.924 344.843 340.502 344.662 340.058 344.658H303.038C302.341 344.66 301.72 345.096 301.483 345.751L298.08 355.936C297.789 356.804 298.255 357.744 299.124 358.037C299.289 358.091 299.46 358.121 299.634 358.123H309.551L278.707 449.133C278.417 450.004 278.885 450.944 279.753 451.237C279.917 451.291 280.09 451.321 280.263 451.323H319.677C320.375 451.321 320.994 450.885 321.233 450.229L324.258 441.35C324.548 440.481 324.082 439.539 323.214 439.248C323.048 439.192 322.877 439.164 322.704 439.162H315.813L335.478 377.183H371.069L348.63 449.177C348.361 450.054 348.854 450.982 349.73 451.249C349.891 451.299 350.059 451.323 350.226 451.323H388.254C388.915 451.317 389.509 450.921 389.768 450.313L393.17 442.149C393.509 441.298 393.093 440.332 392.242 439.995C392.055 439.921 391.858 439.882 391.658 439.878H384.767L404.769 376.846H438.637L415.862 449.177C415.595 450.054 416.087 450.982 416.961 451.249C417.123 451.299 417.29 451.323 417.46 451.323H459.226C459.912 451.327 460.531 450.909 460.782 450.271L464.185 441.392C464.5 440.531 464.058 439.579 463.197 439.264C463.016 439.196 462.824 439.162 462.631 439.162H454.351L479.523 357.324C479.69 356.806 479.597 356.242 479.27 355.808L471.455 345.289C471.132 344.879 470.632 344.644 470.11 344.658H440.235C439.774 344.65 439.334 344.833 439.015 345.164L429.602 355.513H413.13L403.383 344.827C403.064 344.496 402.621 344.313 402.163 344.321H378.085C377.974 344.311 377.862 344.311 377.751 344.321Z" fill="#019833"/>
</svg>
