<svg width="512" height="512" viewBox="0 0 512 512" fill="none" xmlns="http://www.w3.org/2000/svg">
<path fill-rule="evenodd" clip-rule="evenodd" d="M0.146113 370.823C1.03931 378.413 5.95449 385.023 13.12 388.012L51.8933 404.279C59.3181 407.38 67.856 406.04 73.9733 400.812L82.6667 393.346L181.92 311.964L352 500.012C361.596 509.56 376.161 512.038 388.373 506.199L493.867 455.479C504.956 450.147 512.005 438.93 512 426.626V426.6C512 426.591 512 426.582 512 426.572V82.7858C512 82.7765 512 82.7672 512 82.758V82.7324C512.005 70.4283 504.956 59.2109 493.867 53.8791L388.373 3.1591C376.161 -2.67948 361.596 -0.202118 352 9.34577L181.92 197.394L82.6667 116.012L73.9733 108.546C67.802 103.409 59.2691 102.172 51.8933 105.346L13.12 121.346C5.7074 124.438 0.703007 131.406 0.0681332 139.324C0.0258083 139.852 0.00290355 140.384 0 140.919V368.439C0.00435533 369.242 0.0537134 370.038 0.146113 370.823ZM384 146.269L251.784 254.679L384 363.089V146.269ZM64 181.587L130.108 254.679L64 327.772V181.587Z" fill="#B179F1"/>
</svg>
