<svg width="512" height="512" viewBox="0 0 512 512" fill="none" xmlns="http://www.w3.org/2000/svg">
<path d="M253.721 0.00377946C302.717 -0.41856 344.857 34.5993 353.406 82.8449C399.484 65.3099 451.472 83.8836 476.007 126.646L476.051 126.734L476.508 127.605C500.172 169.723 490.691 222.702 453.888 253.998C492.022 285.348 501.943 339.652 477.358 382.461L477.192 382.747C477.076 382.934 476.949 383.115 476.813 383.289C452.452 424.988 401.775 443.326 356.37 426.873C348.95 475.504 307.338 511.565 258.146 511.996C208.954 512.42 166.721 477.089 158.456 428.594C113.772 445.595 63.5307 428.64 38.1591 388.596L37.975 388.3L38.7102 389.521L35.8337 384.836C35.6597 384.55 35.5067 384.251 35.376 383.943C11.6893 341.833 21.1635 288.843 57.9742 257.55C19.7494 226.206 9.81899 171.806 34.5044 128.978L34.669 128.696C34.7852 128.508 34.9111 128.324 35.0274 128.15C59.4505 86.5118 110.081 68.1938 155.493 84.5665C163.202 36.1795 204.726 0.433815 253.721 0.00377946ZM254.275 17.556C209.744 17.725 173.782 53.9608 173.95 98.4914C174.071 100.351 173.671 102.207 172.795 103.852C171.566 106.165 169.465 107.893 166.958 108.654C164.451 109.415 161.745 109.145 159.437 107.906L158.29 107.305C120.356 87.8051 73.6685 101.243 51.9596 138.131C51.8418 138.391 51.7108 138.646 51.5674 138.894L50.9206 140.038C29.9162 177.893 42.3626 225.707 79.3738 248.463C80.9992 249.279 82.3651 250.531 83.3181 252.08C86.1938 256.73 84.7834 262.829 80.1583 265.744L77.8635 267.227L76.9099 267.883C43.203 291.385 32.2884 336.631 51.9456 373.024L52.5698 374.158C52.742 374.397 52.902 374.644 53.0492 374.899L53.7116 376.031C75.8294 413.13 123.38 426.263 161.464 405.56C164.448 403.6 168.26 403.408 171.426 405.059C174.592 406.71 176.617 409.945 176.718 413.514L176.849 416.914L176.674 413.514C176.783 442.321 192.252 468.881 217.253 483.189C242.255 497.498 272.991 497.382 297.883 482.884C322.776 468.387 338.043 441.71 337.934 412.904C337.682 409.317 339.399 405.877 342.418 403.924C345.437 401.97 349.279 401.812 352.447 403.512L353.593 404.111C391.501 423.56 438.125 410.139 459.838 373.308L460.23 372.524H460.273C482.167 334.527 469.875 286.01 432.532 263.02C429.339 261.393 427.266 258.177 427.104 254.597C426.941 251.017 428.715 247.626 431.748 245.717H431.77C468.406 222.701 480.558 175 459.402 137.259C459.237 137.028 459.084 136.788 458.944 136.54L458.283 135.407C436.194 98.2682 388.601 85.1331 350.53 105.901C349.01 106.898 347.247 107.463 345.43 107.535C339.962 107.706 335.388 103.415 335.21 97.9466V97.8813C335.042 53.3507 298.806 17.388 254.275 17.556ZM191.399 278.176C196.388 268.362 208.186 264.169 218.249 268.634C228.313 273.1 233.121 284.66 229.193 294.945C225.684 302.441 225.488 306.865 227.863 312.139L245.907 350.558C249.437 358.294 257.086 360.909 263.341 362.434H263.319C282.953 367.165 297.139 384.245 298.185 404.414C299.231 424.583 286.888 443.038 267.848 449.774C248.808 456.511 227.605 449.923 215.735 433.583C203.865 417.244 204.153 395.043 216.444 379.018C221.478 372.437 222.982 367.839 221.064 359.58L211.389 318.044C210.059 312.683 207.314 310.003 199.512 305.492C189.975 299.993 186.41 287.99 191.399 278.176ZM198.742 212.387C209.797 211.814 219.362 220.005 220.497 231.017C221.632 242.029 213.939 251.999 202.999 253.693C194.762 254.368 190.839 256.417 187.44 261.124L163.272 295.991C158.369 302.921 159.916 310.875 161.747 317.064C167.462 336.516 159.697 357.41 142.665 368.409C125.633 379.407 103.395 377.888 88.0168 364.675C72.6389 351.462 67.7878 329.706 76.0959 311.212C84.404 292.718 103.891 281.895 123.982 284.616C132.197 285.705 136.926 284.725 143.093 278.928L174.125 249.749C178.113 245.913 179.028 242.187 179.028 233.165C179.019 222.095 187.687 212.959 198.742 212.387ZM353.275 296.906C363.844 285.696 379.372 280.602 394.527 283.373C416.11 287.271 431.893 305.932 432.155 327.862C432.416 349.792 417.083 368.824 395.6 373.236C374.116 377.647 352.524 366.196 344.123 345.938C340.963 338.245 337.76 334.65 329.653 332.187L288.99 319.831C283.672 318.306 280.011 319.352 272.232 323.863C267.992 326.34 263.005 327.214 258.176 326.325C247.171 324.01 240.001 313.364 241.995 302.296C243.988 291.229 254.42 283.752 265.541 285.422C270.43 286.295 274.836 288.912 277.941 292.788C282.648 299.608 286.396 302.005 292.106 302.55L334.317 306.102C342.75 306.909 348.917 301.57 353.275 296.906ZM351.106 142.819C365.39 126.618 389.109 122.592 407.965 133.263C427.038 144.057 435.782 166.858 428.815 187.637C421.849 208.416 401.129 221.339 379.404 218.456C371.21 217.344 366.481 218.347 360.314 224.143L329.326 253.301C325.338 257.158 324.423 260.862 324.423 269.906C324.433 279.092 318.4 287.191 309.595 289.812C300.79 292.432 291.311 288.95 286.296 281.253C281.281 273.557 281.924 263.478 287.878 256.482C291.076 252.676 295.541 250.153 300.452 249.378C308.711 248.703 312.634 246.654 315.968 241.947L340.113 207.08C345.038 200.129 343.469 192.196 341.66 185.986C337.267 171.183 340.635 155.163 350.617 143.383L351.106 142.819ZM250.745 50.2661C268.222 50.2547 284.18 60.199 291.87 75.8938C299.56 91.5885 297.639 110.293 286.919 124.097C281.951 130.634 280.382 135.232 282.408 143.601L292.084 185.005C293.413 190.388 296.159 193.068 303.939 197.557C313.477 203.052 317.047 215.051 312.064 224.867C307.081 234.683 295.288 238.882 285.222 234.425C275.157 229.968 270.34 218.413 274.258 208.126C277.767 200.63 277.985 196.184 275.588 190.932L257.566 152.492C254.014 144.756 246.386 142.141 240.132 140.637L240.045 140.68C220.385 135.892 206.185 118.787 205.095 98.5811C204.006 78.3755 216.285 59.8429 235.316 52.9683C240.262 51.1739 245.484 50.2593 250.745 50.2661ZM107.845 129.832C129.331 125.418 150.928 136.87 159.328 157.133C162.488 164.804 165.713 168.421 173.798 170.884L214.483 183.24C219.779 184.765 223.461 183.698 231.241 179.187C240.813 173.649 253.044 176.574 259.076 185.843C265.107 195.111 262.828 207.479 253.889 213.988C244.949 220.497 232.479 218.869 225.51 210.284C220.803 203.463 217.076 201.066 211.345 200.521L169.156 196.969C160.723 196.162 154.556 201.48 150.197 206.165C139.617 217.358 124.099 222.448 108.945 219.698C87.3573 215.811 71.5632 197.153 71.2946 175.219C71.0259 153.286 86.3582 134.247 107.845 129.832Z" fill="#005EEC"/>
</svg>
