<svg width="512" height="512" viewBox="0 0 512 512" fill="none" xmlns="http://www.w3.org/2000/svg">
<path d="M137.877 224.256H146.34C146.893 224.256 147.262 224.626 147.259 225.18V286.507C147.259 287.069 146.889 287.438 146.337 287.438H137.874C137.318 287.438 136.948 287.067 136.948 286.507V283.162H136.859C134.747 286.233 131.067 288.459 125.083 288.459C117.54 288.459 112.019 284.835 109.72 277.679C108.615 274.244 108.156 271.083 108.156 265.045C108.156 259.01 108.615 255.845 109.72 252.403C111.994 245.327 117.424 241.711 124.841 241.632V241.63H128.231L131.115 241.641C131.316 241.666 131.452 241.811 131.452 242.029L131.406 250.524C131.406 250.724 131.291 250.863 131.115 250.906H127.503C123.499 250.986 120.74 253.044 119.562 256.687C118.92 258.726 118.647 260.959 118.647 265.045C118.647 269.133 118.92 271.361 119.562 273.408C120.764 277.121 123.614 279.164 127.754 279.164C131.981 279.164 134.839 277.121 136.035 273.408C136.529 271.827 136.807 270.141 136.905 267.576H136.952V225.18C136.952 224.628 137.32 224.256 137.877 224.256Z" fill="#204156"/>
<path d="M19.3775 265.105C19.3775 269.851 19.8349 273.381 20.7569 276.177C23.3326 284.175 30.1559 288.552 39.0904 288.556C45.7271 288.556 50.9809 285.86 54.4841 281.67C54.7549 281.203 54.8464 280.737 54.3908 280.366L48.5881 275.246C48.1253 274.873 47.6661 274.873 47.2949 275.345C45.0814 277.851 42.7783 279.248 39.0922 279.248C35.1317 279.248 32.0913 277.293 30.7999 273.481C30.0662 271.246 29.8797 268.549 29.8797 265.106C29.8797 261.664 30.068 259.062 30.7999 256.823C32.0931 252.915 35.1317 250.959 39.0922 250.959C42.7783 250.959 45.0814 252.359 47.2949 254.87C47.6661 255.334 48.1253 255.428 48.5881 255.053L54.3908 249.933C54.8464 249.562 54.7549 249.004 54.4841 248.635C50.9791 244.353 45.7254 241.654 39.0904 241.654C30.1559 241.654 23.3326 246.027 20.7569 254.03C19.8349 256.819 19.3775 260.357 19.3775 265.105Z" fill="#204156"/>
<path fill-rule="evenodd" clip-rule="evenodd" d="M62.9611 276.181C61.9476 273.011 61.4866 270.036 61.4866 265.105C61.4866 260.181 61.9476 257.202 62.9611 254.045C65.4489 246.228 72.2615 241.666 81.2892 241.666C90.2219 241.666 97.038 246.226 99.5259 254.045C100.534 257.202 100.999 260.181 100.999 265.105C100.999 270.036 100.534 273.011 99.5259 276.181C97.0362 283.992 90.2219 288.55 81.2892 288.55C72.2615 288.552 65.4489 283.994 62.9611 276.181ZM89.578 273.39C90.317 271.067 90.4999 268.923 90.4999 265.106C90.4999 261.3 90.317 259.25 89.578 256.834C88.2901 253.115 85.4327 250.97 81.2892 250.97C77.1475 250.97 74.1951 253.115 72.909 256.834C72.1754 259.252 71.9888 261.3 71.9888 265.106C71.9888 268.923 72.1754 271.067 72.909 273.39C74.1951 277.115 77.1493 279.248 81.2892 279.248C85.4327 279.246 88.2901 277.114 89.578 273.39Z" fill="#204156"/>
<path d="M170.415 260.633C170.175 260.633 170.017 260.793 170.017 261.033V268.05C170.017 268.29 170.175 268.452 170.415 268.452H193.231C193.877 268.452 194.247 268.082 194.247 267.528C194.247 260.263 193.782 257.191 192.772 254.03C190.281 246.4 183.649 241.655 174.527 241.655C165.682 241.655 158.866 246.213 156.374 254.03C155.458 256.915 154.9 260.452 154.9 265.105C154.9 269.757 155.545 273.198 156.473 276.086C158.959 283.899 165.59 288.552 174.988 288.552C183.185 288.552 189.456 285.388 193.23 280.922C193.596 280.459 193.595 279.994 193.136 279.618L187.705 274.78C187.24 274.409 186.781 274.505 186.318 274.966C184.11 277.388 180.885 279.248 175.909 279.248C170.939 279.248 167.434 276.83 165.96 272.459C165.737 271.847 165.553 271.205 165.436 270.507H165.434C165.099 268.613 164.901 266.769 164.901 264.061C164.973 261.508 165.12 259.878 165.483 257.806C165.486 257.781 165.49 257.758 165.495 257.735L165.497 257.725C165.501 257.704 165.504 257.688 165.508 257.666V257.668C165.596 257.18 165.716 256.721 165.865 256.263C167.063 252.635 170.379 250.495 174.622 250.495C178.769 250.495 182.08 252.635 183.278 256.263C183.649 257.386 183.831 258.497 183.831 260.082C183.831 260.454 183.648 260.636 183.278 260.636H171.172L171.174 260.635L170.415 260.633Z" fill="#204156"/>
<path fill-rule="evenodd" clip-rule="evenodd" d="M213.395 202.276C213.401 202.284 213.407 202.292 213.414 202.3C213.552 202.457 213.633 202.671 213.633 202.924V308.69C213.633 308.932 213.559 309.135 213.434 309.289C213.274 309.495 213.021 309.616 212.709 309.616H0.925556C0.715692 309.616 0.53632 309.565 0.389236 309.472V309.47C0.367711 309.46 0.353361 309.445 0.337218 309.429C0.12556 309.268 0 309.015 0 308.692V202.924C0 202.518 0.200896 202.212 0.529145 202.077C0.534527 202.074 0.539908 202.07 0.547082 202.068C0.576072 202.056 0.609312 202.048 0.641896 202.04C0.651649 202.037 0.661344 202.035 0.670849 202.032C0.681332 202.03 0.690802 202.027 0.700066 202.025C0.70824 202.022 0.716253 202.02 0.72466 202.018C0.789234 202.007 0.855601 202 0.925556 202H212.711C212.984 202 213.213 202.093 213.375 202.253C213.375 202.253 213.377 202.253 213.378 202.255C213.384 202.261 213.39 202.268 213.395 202.276ZM11.0511 299.278C11.1085 299.287 11.173 299.293 11.2394 299.293V299.296H202.395C202.462 299.296 202.521 299.293 202.582 299.282C202.602 299.278 202.618 299.269 202.638 299.264C202.679 299.255 202.724 299.244 202.761 299.23C202.766 299.229 202.77 299.227 202.773 299.225C202.775 299.223 202.778 299.222 202.781 299.221C203.104 299.088 203.305 298.783 203.307 298.38V213.248C203.307 212.841 203.108 212.536 202.779 212.402C202.776 212.401 202.773 212.399 202.771 212.398C202.768 212.396 202.764 212.394 202.76 212.393C202.72 212.377 202.677 212.368 202.634 212.359C202.629 212.357 202.623 212.355 202.618 212.353C202.606 212.349 202.594 212.344 202.58 212.341C202.519 212.332 202.456 212.326 202.388 212.326H11.243C11.1766 212.326 11.1121 212.332 11.0511 212.341C11.0472 212.342 11.0395 212.344 11.0292 212.346C10.987 212.357 10.902 212.379 10.8717 212.391C10.8696 212.392 10.8675 212.393 10.8653 212.394C10.8616 212.396 10.8575 212.399 10.852 212.4C10.5255 212.536 10.3246 212.839 10.3246 213.247V298.378C10.3264 298.78 10.5255 299.085 10.852 299.217C10.8591 299.219 10.8627 299.225 10.8699 299.226C10.9093 299.243 10.9523 299.252 10.9953 299.26C11.0022 299.263 11.0095 299.265 11.0167 299.268C11.0283 299.272 11.04 299.276 11.0511 299.278Z" fill="#204156"/>
<path d="M220.704 265.105C220.704 269.851 221.161 273.381 222.083 276.177C224.664 284.175 231.481 288.552 240.415 288.556C247.052 288.556 252.307 285.86 255.807 281.67C256.081 281.203 256.176 280.737 255.712 280.366L249.907 275.246C249.448 274.873 248.989 274.873 248.619 275.345C246.41 277.851 244.105 279.248 240.415 279.248C236.456 279.248 233.414 277.293 232.126 273.481C231.387 271.246 231.208 268.549 231.208 265.106C231.208 261.664 231.387 259.062 232.126 256.823C233.414 252.915 236.456 250.959 240.415 250.959C244.105 250.959 246.41 252.359 248.619 254.87C248.989 255.334 249.446 255.428 249.907 255.053L255.712 249.933C256.176 249.562 256.081 249.004 255.807 248.635C252.307 244.353 247.052 241.654 240.415 241.654C231.481 241.654 224.664 246.027 222.083 254.03C221.161 256.819 220.704 260.357 220.704 265.105Z" fill="#204156"/>
<path d="M454.773 287.531C454.22 287.531 453.852 287.162 453.852 286.599V260.732C453.852 254.961 450.993 250.958 445.463 250.958C440.12 250.958 436.988 254.959 436.988 260.732V286.599C436.988 287.16 436.617 287.531 436.068 287.531H427.587C427.035 287.531 426.663 287.162 426.663 286.599V260.732C426.663 254.961 423.808 250.958 418.287 250.958C412.94 250.958 409.804 254.959 409.804 260.732V286.599C409.804 287.16 409.437 287.531 408.882 287.531H400.405C399.849 287.531 399.485 287.162 399.485 286.599V243.607C399.485 243.047 399.849 242.674 400.405 242.674H408.882C409.437 242.674 409.804 243.047 409.804 243.607V246.864H409.898C411.835 244.072 415.702 241.654 421.598 241.654C426.852 241.654 431.09 243.79 433.758 247.607H433.853C437.261 243.889 441.686 241.654 448.044 241.654C458.36 241.654 464.17 248.724 464.17 258.31V286.597C464.17 287.16 463.799 287.531 463.244 287.531H454.773Z" fill="#204156"/>
<path d="M476.053 303.345C476.053 303.906 476.421 304.279 476.972 304.279L479.831 304.276C487.199 304.276 490.891 300.929 494.758 290.319L511.709 243.605C511.897 243.046 511.527 242.672 510.97 242.672H502.218C501.671 242.672 501.302 243.046 501.117 243.605L491.531 272.918H491.35L481.302 243.605C481.122 243.046 480.753 242.672 480.2 242.672H471.081C470.525 242.672 470.154 243.046 470.34 243.605L486.559 285.852L485.268 289.668C483.888 293.393 482.132 294.968 478.633 294.968H476.972C476.421 294.968 476.053 295.347 476.053 295.903V303.345Z" fill="#204156"/>
<path d="M264.739 246.027C268.336 243.42 273.217 241.654 280.497 241.654C294.042 241.654 299.016 246.31 299.014 257.289V286.602C299.014 287.164 298.644 287.535 298.09 287.535H290.352C289.801 287.535 289.428 287.162 289.428 286.602V283.345H289.338C287.218 286.416 283.069 288.554 276.809 288.554C268.705 288.554 261.88 284.276 261.88 274.875C261.88 265.11 268.705 260.636 279.669 260.636L283.342 260.638C283.895 260.638 284.266 261.01 284.266 261.566V267.532C284.266 268.086 283.895 268.459 283.342 268.459L281.326 268.455C274.695 268.455 271.744 270.321 271.744 274.511C271.744 278.231 274.413 280.088 279.392 280.088C285.747 280.088 289.247 277.58 289.247 272.462V257.944C289.247 257.824 289.247 257.709 289.243 257.596V257.537H289.242C289.116 252.696 286.651 250.493 279.392 250.493C274.413 250.493 271.376 251.894 269.256 253.566C268.791 253.939 268.246 253.845 267.961 253.379L264.56 247.234C264.28 246.769 264.375 246.31 264.739 246.027Z" fill="#204156"/>
<path d="M368.195 260.633C367.959 260.633 367.797 260.793 367.797 261.033V268.05C367.797 268.29 367.959 268.452 368.195 268.452H391.017C391.661 268.452 392.03 268.082 392.03 267.528C392.03 260.263 391.568 257.191 390.558 254.03C388.066 246.4 381.433 241.655 372.314 241.655C363.467 241.655 356.651 246.213 354.16 254.03C353.241 256.915 352.685 260.452 352.685 265.105C352.685 269.757 353.331 273.198 354.258 276.086C356.743 283.899 363.376 288.552 372.773 288.552C380.97 288.552 387.241 285.388 391.017 280.922C391.383 280.459 391.383 279.994 390.922 279.618L385.49 274.78C385.028 274.409 384.568 274.505 384.106 274.966C381.898 277.388 378.674 279.248 373.695 279.248C368.725 279.248 365.221 276.83 363.745 272.459C363.525 271.847 363.338 271.205 363.225 270.507H363.223C362.886 268.613 362.689 266.769 362.689 264.061C362.757 261.508 362.904 259.878 363.268 257.806C363.272 257.791 363.275 257.778 363.277 257.764C363.279 257.754 363.28 257.743 363.281 257.733L363.283 257.725C363.286 257.704 363.29 257.688 363.293 257.666V257.668C363.385 257.18 363.503 256.721 363.652 256.263C364.848 252.635 368.167 250.495 372.409 250.495C376.556 250.495 379.867 252.635 381.065 256.263C381.435 257.386 381.62 258.497 381.62 260.082C381.62 260.454 381.435 260.636 381.065 260.636H368.96V260.635L368.195 260.633Z" fill="#204156"/>
<path d="M335.157 225.182C335.157 224.629 335.527 224.256 336.081 224.256H344.56C345.11 224.256 345.48 224.628 345.487 225.182V286.595C345.487 287.16 345.116 287.528 344.563 287.528H336.086C335.53 287.528 335.161 287.158 335.161 286.595L335.071 283.246C332.954 286.322 329.268 288.55 323.277 288.55C315.724 288.55 310.192 284.92 307.891 277.756C306.784 274.315 306.325 271.148 306.325 265.101C306.325 259.056 306.784 255.89 307.891 252.443C310.167 245.356 315.606 241.733 323.032 241.654L329.315 241.655C329.869 241.655 330.239 242.027 330.239 242.583V250.039C330.239 250.593 329.869 250.965 329.315 250.965L325.697 250.963C321.686 251.044 318.922 253.085 317.744 256.733C317.1 258.775 316.824 261.013 316.824 265.105C316.824 269.2 317.103 271.429 317.744 273.479C318.947 277.2 321.803 279.248 325.946 279.248C330.178 279.248 333.041 277.2 334.239 273.479C334.732 271.897 335.012 270.21 335.157 267.641V225.182Z" fill="#204156"/>
<path d="M221.391 300.218V308.697C221.391 309.255 221.76 309.625 222.315 309.625H253.733C254.295 309.625 254.666 309.253 254.666 308.697V300.218C254.666 299.668 254.295 299.296 253.733 299.296H222.315C221.76 299.296 221.391 299.668 221.391 300.218Z" fill="#204156"/>
</svg>
