<svg width="512" height="512" viewBox="0 0 512 512" fill="none" xmlns="http://www.w3.org/2000/svg">
<path d="M168.022 221.777V261.795C168.022 270.637 172.951 275.858 181.505 275.858C191.074 275.858 196.574 270.057 196.574 258.892V221.777H214.409V290.644H196.587V282.666C192.386 289.19 185.569 292.381 176.146 292.381C160.199 292.386 150.196 280.787 150.196 263.967V221.777H168.022ZM359.552 220.474C379.852 220.514 394.172 236.776 394.123 255.931C394.127 257.825 393.979 259.716 393.68 261.587L341.199 261.489C343.211 269.755 350.014 275.712 360.31 275.734C366.542 275.734 373.217 273.438 377.285 268.226L389.447 277.977C383.193 286.81 372.162 292.009 360.425 291.987C339.705 291.916 323.785 276.372 323.82 256.219C323.86 236.935 337.662 220.434 359.552 220.474ZM472.714 220.474C483.586 220.474 489.822 223.807 494.023 230.19L495.694 221.768H512V290.644H495.694L493.589 283.552C488.807 288.773 482.859 291.973 472.714 291.973C457.055 291.951 439.22 278.176 439.22 256.72C439.22 235.118 456.762 220.474 472.714 220.474ZM107.337 220.474C127.778 220.474 144.018 236.43 144.018 256.14C144.018 275.712 127.778 291.951 107.337 291.951C87.0382 291.951 70.8033 275.694 70.8033 256.14C70.8033 236.421 87.0382 220.474 107.337 220.474ZM290.717 220.035C302.214 220.035 312.399 225.128 317.93 234.586L302.223 242.896C299.896 238.238 295.53 235.619 289.999 235.619C284.618 235.619 281.994 237.511 281.994 240.711C281.994 251.481 319.539 244.643 319.539 270.407C319.539 283.796 308.627 291.942 291.018 291.942C276.029 291.929 265.551 286.983 260.317 275.632L276.166 267.335C278.786 273.013 284.024 276.359 291.448 276.359C298.287 276.359 300.906 274.178 300.906 271.12C300.906 260.04 263.362 266.755 263.362 241.425C263.362 227.455 275.586 220.035 290.717 220.035ZM36.5341 220.328C42.6375 220.285 48.6555 221.762 54.0463 224.625C59.4367 227.487 64.0301 231.646 67.4127 236.727L52.1928 245.556C50.4319 243.039 48.0878 240.986 45.3611 239.572C42.6341 238.158 39.6056 237.425 36.5341 237.436C26.0964 237.436 17.5424 246.136 17.5424 256.14C17.5424 266.143 26.0964 274.843 36.5341 274.843C39.7505 274.864 42.9186 274.06 45.7361 272.508C48.5531 270.957 50.9257 268.709 52.6271 265.979L67.6964 274.967C64.355 280.196 59.7443 284.495 54.2941 287.461C48.8434 290.428 42.7306 291.966 36.5252 291.934C16.2349 291.951 0 275.694 0 256.14C0 236.279 16.2349 220.328 36.5341 220.328ZM260.211 220L256.922 236.643C256.316 236.577 255.706 236.542 255.096 236.541C245.531 236.563 240.031 242.373 240.058 253.534L240.155 290.639L222.325 290.679L222.174 221.817L240.004 221.777V229.755C244.157 223.275 250.903 220.075 260.211 220ZM439.384 220.049L436.078 236.674C435.488 236.616 434.885 236.572 434.252 236.572C424.696 236.572 419.182 242.369 419.182 253.534V290.644H401.352V221.773H419.182V229.751C423.353 223.284 430.09 220.098 439.384 220.049ZM107.337 237.582C96.8997 237.582 88.3457 246.283 88.3457 256.14C88.3457 266.143 96.8997 274.843 107.337 274.843C117.939 274.843 126.475 266.143 126.475 256.14C126.475 246.283 117.921 237.582 107.337 237.582ZM475.763 237.589C470.706 237.608 465.866 239.635 462.307 243.223C458.743 246.811 456.758 251.666 456.776 256.72C456.776 266.289 465.33 274.843 475.772 274.843C486.342 274.843 494.892 266.289 494.892 256.574C494.874 251.519 492.844 246.68 489.259 243.119C485.669 239.559 480.816 237.57 475.763 237.589ZM359.379 236.714C351.114 236.714 344.439 241.616 341.815 249.004L376.173 249.066C375.171 242.107 367.934 236.727 359.379 236.714Z" fill="#0056D2"/>
</svg>
