<svg width="512" height="512" viewBox="0 0 512 512" fill="none" xmlns="http://www.w3.org/2000/svg">
<path fill-rule="evenodd" clip-rule="evenodd" d="M113.623 166.636C129.178 129.32 147.839 95.1185 168.055 71.7933C194.51 39.1124 224.079 21.9939 253.647 21.9939C283.216 21.9939 311.228 39.1124 339.24 71.7933C359.346 96.5389 377.915 128.97 393.419 166.031C418.245 169.305 443.81 174.412 462.183 182.286C473.076 186.954 479.301 197.848 479.301 208.742C477.745 236.754 471.52 272.547 466.851 292.778C463.739 306.784 451.289 320.79 437.283 320.79C434.237 320.79 431.215 320.723 428.213 320.594C427.827 340.974 423.286 360.451 415.495 379.927C407.714 401.714 395.264 420.389 378.146 437.508C362.584 454.626 342.353 467.076 322.122 476.413C301.891 484.194 278.547 490.419 253.647 490.419C230.304 490.419 206.961 485.751 185.173 476.413C163.386 467.076 144.711 454.626 129.149 437.508C113.587 420.389 101.137 401.714 91.7995 379.927C83.9926 361.711 80.5372 341.319 79.6142 320.571C76.4381 320.714 73.2379 320.79 70.0124 320.79C56.0063 320.79 43.5565 306.784 40.444 292.778C40.2876 292.101 40.1277 291.409 39.9648 290.704L39.9601 290.684C35.258 270.342 27.9941 238.919 27.9941 211.854C27.9941 200.961 34.2191 188.511 45.1127 183.842C62.3602 175.937 87.9044 170.355 113.623 166.636ZM131.786 164.305C155.335 161.644 177.377 160.499 191.398 160.499C203.848 160.499 213.186 165.167 220.967 172.948C231.86 168.28 242.754 165.167 253.648 165.167C264.541 165.167 275.435 168.28 286.328 172.948C292.553 166.723 301.891 160.499 315.897 160.499C324.771 160.499 348.405 161.201 375.443 163.943C358.102 122.398 327.493 71.2812 289.441 48.4498C276.991 42.2249 266.097 37.5562 253.647 37.5562C241.197 37.5562 230.304 40.6687 217.854 48.4498C179.691 69.8213 150.512 122.638 131.786 164.305ZM96.1849 319.223C96.4699 338.135 100.814 355.368 107.362 373.702C115.143 393.933 126.037 411.052 140.043 426.614C154.049 442.176 172.723 454.626 191.398 462.407C211.629 471.745 231.86 474.857 253.647 474.857C275.435 474.857 297.222 470.188 315.897 462.407C334.571 454.626 353.246 442.176 367.252 426.614C381.258 411.052 393.708 393.933 399.933 373.702C406.499 356.63 409.741 338.451 410.593 319.163C388.523 316.564 367.576 311.247 347.34 306.111L347.333 306.109C344.099 305.288 340.883 304.472 337.684 303.672C326.769 300.397 316.619 295.591 307.772 291.402C304.006 289.619 300.475 287.947 297.222 286.553V284.997C270.766 272.547 269.21 244.535 270.766 221.192C270.766 214.967 269.21 207.185 262.985 202.517C259.873 200.961 256.76 199.404 253.648 199.404C250.535 199.404 245.866 200.961 244.31 202.517C238.085 207.185 236.529 214.967 236.529 221.192C239.642 244.535 238.085 270.991 210.073 283.441C205.911 285.224 201.295 287.917 196.312 290.823C188.251 295.524 179.228 300.787 169.611 303.672C166.411 304.472 163.194 305.288 159.959 306.109L159.955 306.111C139.561 311.287 118.446 316.647 96.1849 319.223ZM416.855 284.75C421.524 284.915 426.258 284.997 431.058 284.997C434.17 284.997 437.283 281.885 438.839 278.772C441.702 268.274 445.151 254.265 447.39 239.256L409.54 243.762C412.856 258.129 415.417 271.995 416.855 284.75ZM401.207 283.872C397.911 254.109 389.067 221.614 377.351 189.06C354.632 186.41 332.879 185.398 320.566 185.398C307.901 185.398 303.482 194.674 301.436 198.967C300.968 199.949 300.624 200.671 300.335 200.961C298.778 208.742 297.222 221.192 295.666 235.198C295.666 247.647 300.335 256.985 309.672 261.654C336.392 273.799 366.904 281.205 401.207 283.872ZM395.134 191.473C408.102 193.503 420.664 196.124 431.229 199.454L400.803 210.321C398.991 204.029 397.091 197.731 395.134 191.473ZM107.572 283.677C141.161 280.857 169.97 273.516 196.067 261.654C205.404 256.985 210.073 247.647 210.073 235.198C210.073 224.304 208.517 213.41 205.404 200.961C205.404 197.848 202.292 185.398 185.173 185.398C178.902 185.398 156.439 186.188 130.914 189.16C119.426 221.736 112.088 255.455 107.572 283.677ZM113.212 191.538C100.652 193.469 88.0738 195.973 76.9172 199.202L107.643 210.176C109.422 203.958 111.287 197.73 113.212 191.538ZM98.9644 243.72L58.2935 238.879C60.5307 254.03 64.0129 268.186 66.8999 278.772C68.4562 281.885 71.5686 284.997 74.6811 284.997C80.534 284.997 86.2495 284.882 91.836 284.653C93.1922 271.945 95.6913 258.096 98.9644 243.72Z" fill="#252526"/>
</svg>
