<svg width="512" height="512" viewBox="0 0 512 512" fill="none" xmlns="http://www.w3.org/2000/svg">
<path d="M255.757 512C227.659 512 201.123 505.775 176.147 496.438C151.171 485.544 129.317 471.538 112.147 451.307C93.4149 432.632 79.3661 410.845 70.0002 385.945C66.8782 376.608 63.7563 367.271 60.6343 356.377H59.0733L57.5123 340.815C38.7806 333.033 24.7318 314.359 20.0488 297.24C13.8049 275.453 7.56098 242.772 6 213.204C6 189.86 18.4878 168.073 40.3416 158.736C54.3904 152.511 74.6831 146.286 98.0978 143.173C113.708 110.492 130.878 80.924 149.61 59.1368C182.391 20.231 218.293 0 255.757 0C293.22 0 329.123 20.231 361.903 59.1368C380.635 80.924 397.806 108.936 411.855 143.173C435.27 147.842 455.562 152.511 471.172 158.736C493.026 168.073 505.514 189.86 505.514 213.204C503.953 247.441 496.148 284.79 491.465 298.796C486.782 317.471 472.733 336.146 454.001 342.371L452.44 357.933H450.879C449.318 367.271 446.196 378.164 441.513 387.501C432.148 412.401 418.099 434.188 399.367 452.863C380.635 471.538 358.782 487.1 335.367 497.994C310.391 507.331 283.854 512 255.757 512Z" fill="white"/>
<path d="M253.647 37.5563C342.352 37.5563 413.939 227.416 413.939 316.122C413.939 404.827 342.352 476.413 253.647 476.413C164.942 476.413 93.3555 404.827 93.3555 316.122C93.3555 227.416 164.942 37.5563 253.647 37.5563Z" fill="#FCFBFA"/>
<path d="M457.514 190.067L392.152 213.41C392.152 213.41 401.489 244.535 403.046 244.535L468.407 236.754L457.514 190.067Z" fill="#252526"/>
<path d="M51.3372 190.067L116.699 213.41C116.699 213.41 107.362 244.535 105.805 244.535L40.4436 236.754L51.3372 190.067Z" fill="#252526"/>
<path d="M186.729 185.398C203.848 185.398 206.96 199.404 206.96 202.517C208.517 211.854 210.073 224.304 211.629 236.754C211.629 239.866 211.629 242.979 210.073 246.091C208.517 238.31 208.517 230.529 206.96 222.748C206.96 219.635 202.292 205.629 186.729 205.629C177.392 205.629 144.711 207.185 113.586 211.854C115.143 204.073 118.255 197.848 121.368 190.067C149.38 185.398 177.392 183.842 186.729 185.398Z" fill="#E0E0E0"/>
<path d="M413.939 308.34C356.359 305.228 306.559 286.553 295.666 280.328C286.328 275.66 275.435 267.878 272.322 246.091C270.766 270.991 275.435 292.778 297.222 303.672C298.778 305.228 342.353 325.459 412.383 330.128V316.122C413.939 313.009 413.939 309.897 413.939 308.34Z" fill="#E0E0E0"/>
<path d="M94.9119 308.34C152.492 305.228 202.292 286.553 213.185 280.328C222.523 275.66 233.416 267.878 236.529 246.091C238.085 270.991 233.416 292.778 211.629 303.672C210.073 305.228 166.498 325.459 96.4681 330.128V316.122C94.9119 313.009 94.9119 309.897 94.9119 308.34Z" fill="#E0E0E0"/>
<path d="M320.565 185.398C303.447 185.398 300.334 199.404 300.334 202.517C298.778 211.854 297.222 224.304 295.666 236.754C295.666 239.866 295.666 242.979 297.222 246.091C298.778 238.31 298.778 230.529 300.334 222.748C300.334 219.635 305.003 205.629 320.565 205.629C329.903 205.629 362.583 207.185 393.708 211.854C392.152 204.073 389.039 197.848 385.927 190.067C357.915 185.398 329.903 183.842 320.565 185.398Z" fill="#E0E0E0"/>
<path d="M113.586 166.723C129.149 129.374 147.824 95.1367 168.055 71.7933C194.51 39.1124 224.079 21.9939 253.647 21.9939C283.216 21.9939 311.228 39.1124 339.24 71.7933C359.471 96.693 378.146 129.374 393.708 166.723V168.28H392.152C385.927 168.28 382.814 166.723 376.589 166.723C359.471 124.705 328.346 71.7933 289.441 48.4498C276.991 42.2249 266.097 37.5562 253.647 37.5562C241.197 37.5562 230.304 40.6687 217.854 48.4498C178.948 70.2371 149.38 124.705 130.705 166.723C124.48 166.723 121.368 168.28 115.143 168.28H113.586V166.723Z" fill="#56555C"/>
<path d="M415.496 288.11H403.046H401.49V286.553C398.377 255.429 389.04 221.192 376.59 186.955L375.034 183.842H378.146C382.815 183.842 387.484 185.398 392.152 185.398H393.708V186.955C404.602 221.192 413.939 256.985 417.052 286.553V288.11H415.496Z" fill="#56555C"/>
<path d="M401.49 211.854C398.377 204.073 396.821 196.292 393.708 188.511V186.954H392.152C387.484 185.398 382.815 185.398 378.146 185.398H375.034L376.59 188.511C379.702 196.292 381.259 204.073 384.371 211.854C392.152 210.298 396.821 210.298 401.49 211.854Z" fill="#252526"/>
<path d="M91.7996 284.997C94.912 255.429 104.249 219.635 115.143 185.398V183.842H116.699C121.368 183.842 126.037 182.286 130.705 182.286H133.818L132.262 185.398C119.812 219.635 112.031 255.429 107.362 284.997V286.553H105.806H93.3558H91.7996V284.997Z" fill="#56555C"/>
<path d="M116.699 185.398C112.031 194.735 110.474 202.517 107.362 210.298C115.143 208.742 118.255 208.742 124.48 208.742C127.593 200.96 129.149 193.179 132.262 185.398L133.818 182.286H130.705C126.037 183.842 121.368 185.398 116.699 185.398Z" fill="#252526"/>
<path d="M253.647 490.419C230.304 490.419 206.961 485.751 185.173 476.413C163.386 467.076 144.711 454.626 129.149 437.508C113.587 420.389 101.137 401.714 91.7995 379.927C82.4621 358.14 79.3496 333.24 79.3496 308.34V306.784H80.9058H94.9119H96.4682V308.34C94.9119 331.684 99.5806 351.915 107.362 373.702C115.143 393.933 126.037 411.052 140.043 426.614C154.049 442.176 172.723 454.626 191.398 462.407C211.629 471.745 231.86 474.857 253.647 474.857C275.435 474.857 297.222 470.188 315.897 462.407C334.571 454.626 353.246 442.176 367.252 426.614C381.258 411.052 393.708 393.933 399.933 373.702C407.714 353.471 410.827 331.684 410.827 308.34V306.784H412.383H426.389H427.945V308.34C429.502 333.24 424.833 356.584 415.495 379.927C407.714 401.714 395.264 420.389 378.146 437.508C362.584 454.626 342.353 467.076 322.122 476.413C301.891 484.194 278.547 490.419 253.647 490.419Z" fill="#56555C"/>
<path d="M96.4682 328.571V308.34V306.784H94.9119H80.9058H79.3496V308.34V328.571H96.4682Z" fill="#252526"/>
<path d="M427.945 306.784H413.939H412.383V308.34V328.571H427.945V306.784Z" fill="#252526"/>
<path d="M437.283 320.79C401.49 320.79 368.809 311.453 337.684 303.672C322.122 299.003 308.116 291.222 297.222 286.553V284.997C270.766 272.547 269.21 244.535 270.766 221.192C270.766 214.967 269.21 207.185 262.985 202.517C259.873 200.961 256.76 199.404 253.648 199.404C250.535 199.404 245.866 200.961 244.31 202.517C238.085 207.185 236.529 214.967 236.529 221.192C239.642 244.535 238.085 270.991 210.073 283.441C199.18 288.109 185.173 299.003 169.611 303.672C138.487 311.453 105.806 320.79 70.0124 320.79C56.0063 320.79 43.5565 306.784 40.444 292.778C35.7753 272.547 27.9941 239.866 27.9941 211.854C27.9941 200.961 34.2191 188.511 45.1127 183.842C82.4622 166.723 158.718 160.499 191.398 160.499C203.848 160.499 213.186 165.167 220.967 172.948C231.86 168.28 242.754 165.167 253.648 165.167C264.541 165.167 275.435 168.28 286.328 172.948C292.553 166.723 301.891 160.499 315.897 160.499C334.572 160.499 418.608 163.611 462.183 182.286C473.076 186.954 479.301 197.848 479.301 208.742C477.745 236.754 471.52 272.547 466.851 292.778C463.739 306.784 451.289 320.79 437.283 320.79ZM320.566 185.398C305.003 185.398 301.891 199.404 300.335 200.961C298.778 208.742 297.222 221.192 295.666 235.198C295.666 247.647 300.335 256.985 309.672 261.654C343.909 277.216 384.371 284.997 431.058 284.997C434.17 284.997 437.283 281.885 438.839 278.772C443.508 261.654 449.733 235.198 449.733 210.298C449.733 208.742 448.177 205.629 446.62 205.629C417.052 190.067 347.021 185.398 320.566 185.398ZM59.1188 205.629C57.5625 207.185 56.0063 208.742 56.0063 210.298C56.0063 235.198 62.2312 261.654 66.8999 278.772C68.4562 281.885 71.5686 284.997 74.6811 284.997C122.924 284.997 161.83 277.216 196.067 261.654C205.404 256.985 210.073 247.647 210.073 235.198C210.073 224.304 208.517 213.41 205.404 200.961C205.404 197.848 202.292 185.398 185.173 185.398C172.724 185.398 96.4683 188.511 59.1188 205.629Z" fill="#252526"/>
</svg>
