<svg width="512" height="512" viewBox="0 0 512 512" fill="none" xmlns="http://www.w3.org/2000/svg">
<path fill-rule="evenodd" clip-rule="evenodd" d="M18 157.275C19.2254 136.349 30.4541 117.294 48.166 106.084L225.506 6.99319C244.536 -2.33106 266.808 -2.33106 285.838 6.99319L462.995 106.084C480.707 117.294 491.935 136.349 493.161 157.275V354.725C491.935 375.651 480.707 394.706 462.995 405.916L285.655 505.007C266.625 514.331 244.353 514.331 225.323 505.007L48.166 405.916C30.4541 394.706 19.2254 375.651 18 354.725V157.275ZM255.672 214.682C285.963 214.682 310.519 190.126 310.519 159.834C310.519 129.543 285.963 104.987 255.672 104.987C225.38 104.987 200.824 129.543 200.824 159.834C200.824 190.126 225.38 214.682 255.672 214.682ZM437.582 207.003C339.222 207.003 265.727 288.543 265.727 388.548V392.753H245.982V388.548C245.982 288.543 172.852 207.369 73.7589 207.003V225.286C73.3616 300.942 120.015 368.882 190.769 395.678C211.794 403.387 234.009 407.348 256.403 407.379C278.976 407.348 301.371 403.388 322.585 395.678C393.233 368.779 439.786 300.88 439.412 225.286C438.716 220.837 438.337 216.176 437.955 211.465C437.834 209.981 437.713 208.492 437.582 207.003Z" fill="#14BF96"/>
</svg>
