<svg width="512" height="512" viewBox="0 0 512 512" fill="none" xmlns="http://www.w3.org/2000/svg">
<path d="M48.166 106.084C30.4541 117.294 19.2254 136.349 18 157.275V354.725C19.2254 375.651 30.4541 394.706 48.166 405.916L225.323 505.007C244.353 514.331 266.625 514.331 285.655 505.007L462.995 405.916C480.707 394.706 491.935 375.651 493.161 354.725V157.275C491.935 136.349 480.707 117.294 462.995 106.084L285.838 6.99319C266.808 -2.33106 244.536 -2.33106 225.506 6.99319L48.166 106.084Z" fill="#14BF96"/>
<path d="M437.582 207.003C339.222 207.003 265.727 288.543 265.727 388.548V392.753H245.982V388.548C245.982 288.543 172.852 207.369 73.7589 207.003C73.7589 213.219 73.7589 219.618 73.7589 225.286C73.3616 300.942 120.015 368.882 190.769 395.678C211.794 403.387 234.009 407.348 256.403 407.379C278.976 407.348 301.371 403.389 322.585 395.678C393.233 368.779 439.786 300.88 439.412 225.286C438.496 219.435 438.13 213.219 437.582 207.003Z" fill="white"/>
<path d="M255.672 214.682C285.963 214.682 310.519 190.126 310.519 159.834C310.519 129.543 285.963 104.987 255.672 104.987C225.38 104.987 200.824 129.543 200.824 159.834C200.824 190.126 225.38 214.682 255.672 214.682Z" fill="white"/>
</svg>
