<svg width="512" height="512" viewBox="0 0 512 512" fill="none" xmlns="http://www.w3.org/2000/svg">
<path d="M39.2193 120.118L168.328 45.1092L168.406 255.455C168.166 333.413 222.86 403.345 298.453 421.743L300.145 422.154L299.065 423.516C297.353 425.76 295.708 427.908 293.681 429.92C286.839 436.692 279.31 442.84 271.31 448.189C263.247 453.579 254.635 458.207 245.708 461.935V461.938C236.612 465.734 227.107 468.639 217.466 470.574C207.291 472.613 198.492 473.534 189.072 473.534C188.771 473.534 188.463 473.534 188.158 473.534C177.901 473.496 167.682 472.441 157.788 470.389C148.157 468.4 138.672 465.434 129.596 461.578C120.714 457.806 112.125 453.131 104.075 447.68C96.0958 442.27 88.6106 436.078 81.8259 429.273C75.0142 422.45 68.8385 414.954 63.4818 406.996C58.0676 398.96 53.4249 390.381 49.6823 381.493C45.8788 372.469 42.9619 363.005 41.0128 353.361C38.908 342.959 38.6542 332.213 38.6847 323.075L38.6644 120.441L39.2193 120.118ZM364.063 385.197C371.528 364.204 375.345 343.663 375.406 324.15V102.003L473.281 46.0192V256.389C473.254 265.928 472.364 274.965 470.639 283.24C468.859 291.778 466.216 300.161 462.791 308.156C459.414 316.037 455.245 323.628 450.403 330.716C445.598 337.758 440.082 344.378 434.008 350.395C427.924 356.415 421.244 361.872 414.151 366.608C407.011 371.387 399.357 375.496 391.398 378.82C383.368 382.275 375.879 384.567 366.371 386.475C366.049 386.539 365.687 386.603 365.312 386.667L363.427 386.997L364.063 385.197ZM0 99.7821L0.0913651 322.971C-0.219953 426.357 83.9646 510.723 187.749 511.039H188.317C221.293 511.039 253.741 502.417 282.152 486.12L419.423 407.548C476.337 378.139 511.787 320.264 511.98 256.49L512 23.3883C512 22.7242 511.641 22.104 511.066 21.7703V21.767L477.44 2.17975C476.865 1.84268 476.144 1.84268 475.562 2.16627L337.648 79.6994C337.056 80.0297 336.691 80.6567 336.691 81.3342L336.809 323.995C336.782 334.198 335.723 344.378 333.659 354.254C331.655 363.861 328.684 373.305 324.82 382.332C324.096 384.014 323.341 385.686 322.556 387.341L322.208 388.076L321.399 387.971C319.067 387.668 317.531 387.382 313.43 386.613L312.344 386.407C303.711 384.638 286.135 379.656 265.186 366.173C258.09 361.366 251.44 355.869 245.41 349.818C239.363 343.761 233.885 337.107 229.13 330.046C224.318 322.903 220.197 315.289 216.881 307.411C213.503 299.392 210.918 290.989 209.189 282.451C207.646 274.827 207.003 266.919 207.04 256.015V23.2063C207.04 22.5456 206.702 21.9422 206.133 21.5951L172.545 1.27303C172.244 1.09101 171.905 1 171.563 1C171.242 1 170.917 1.08427 170.629 1.24943L0.944106 98.1541C0.365461 98.4878 0 99.1114 0 99.7821Z" fill="#2015FF"/>
</svg>
