<svg width="512" height="512" viewBox="0 0 512 512" fill="none" xmlns="http://www.w3.org/2000/svg">
<path d="M184.325 286.746L135.735 121.519V121.523H100.54L116.625 175.491L83.7777 286.746L35.1917 121.519H0L80.4261 392.973H83.7777L134.048 224.753L184.321 392.973H187.669L256.557 160.496L259.764 155.039H316.411L269.497 236.142V252.219H282.899C300.092 252.219 312.717 257.488 320.754 267.978C327.687 276.921 331.155 289.529 331.155 305.84C331.155 320.596 327.924 333.213 321.443 343.711C314.961 354.205 307.021 359.466 297.639 359.466C288.692 359.466 280.941 356.493 274.351 350.575C267.761 344.669 262.459 336.572 258.427 326.292L230.954 337.688C236.537 354.648 245.137 368.11 256.759 378.061C268.381 387.986 282.001 392.973 297.639 392.973C318.413 392.973 335.34 384.599 348.425 367.849C361.468 351.091 368.01 330.425 368.01 305.836C368.01 285.94 363.543 268.642 354.6 253.903C345.661 239.159 332.48 228.983 315.062 223.404L364.651 137.934V121.519H232.936L184.325 286.746Z" fill="#005A9C"/>
<path d="M510.091 154.644L504.395 120L484.515 159.627C484.515 159.627 475.959 143.876 467.543 136.673C459.515 129.789 449.106 123.456 435.957 124.838C423.231 126.143 408.915 137.33 399.263 155.969C388.31 177.162 384.567 198.658 384.495 222.352C384.378 255.546 396.624 278.21 396.624 278.21C396.624 278.21 393.824 267.676 394.288 249.838C394.297 249.508 394.305 249.178 394.314 248.846C394.598 237.99 394.915 225.861 403.061 201.586C410.079 180.671 426.148 163.72 440.356 160.779C451.39 158.511 458.455 160.163 469.304 167.813C482.166 176.876 489.917 193.248 489.917 193.248L510.091 154.644Z" fill="#221B0A"/>
<path d="M492.402 338.152C497.965 332.016 506.86 316.076 506.86 316.076L512 342.841C512 342.841 508.822 348.996 506.86 352.049C504.213 356.195 499.399 363.156 494.308 368.598C489.421 373.823 481.719 380.268 478.065 382.596L477.976 382.654C474.183 385.094 459.48 394.554 438.156 390.778C416.657 386.987 402.517 370.153 395.246 360.384C387.435 349.882 381.925 337.845 380.144 333.91C377.026 327.07 372.059 310.952 372.059 310.952C372.059 310.952 380.978 327.045 386.698 335.102C392.382 343.119 402.481 351.747 406.425 354.656C410.369 357.605 421.636 364.622 433.761 365.79C445.907 366.966 452.34 365.939 464.623 360.529C476.897 355.107 486.847 344.291 492.402 338.152Z" fill="#221B0A"/>
</svg>
