<svg width="512" height="512" viewBox="0 0 512 512" fill="none" xmlns="http://www.w3.org/2000/svg">
<path d="M497.024 123.667L502.569 157.392L482.93 194.973C482.93 194.973 475.384 179.035 462.863 170.212C452.302 162.765 445.424 161.157 434.682 163.365C420.851 166.227 405.208 182.729 398.377 203.09C390.446 226.721 390.137 238.529 389.861 249.097L389.849 249.539C389.845 249.714 389.84 249.889 389.835 250.063C389.384 267.427 392.11 277.682 392.11 277.682C392.11 277.682 380.188 255.62 380.302 223.306C380.373 200.239 384.016 179.314 394.679 158.682C404.075 140.537 418.012 129.647 430.4 128.376C443.2 127.031 453.333 133.196 461.149 139.898C469.341 146.91 477.671 162.243 477.671 162.243L497.024 123.667Z" fill="#9B9B9B"/>
<path d="M185.439 285.992L138.137 125.145V125.149H103.875L119.533 177.686L87.5569 285.992L40.2588 125.145H6L84.2941 389.404H87.5569L136.494 225.643L185.435 389.404H188.694L255.756 163.089L258.878 157.776H314.023L268.353 236.729V252.38H281.4C298.137 252.38 310.427 257.51 318.251 267.722C325 276.427 328.376 288.702 328.376 304.58C328.376 318.945 325.231 331.227 318.922 341.447C312.612 351.663 304.882 356.784 295.749 356.784C287.039 356.784 279.494 353.89 273.078 348.129C266.663 342.38 261.502 334.498 257.576 324.49L230.831 335.584C236.267 352.094 244.639 365.2 255.953 374.886C267.267 384.549 280.525 389.404 295.749 389.404C315.972 389.404 332.451 381.251 345.188 364.945C357.886 348.631 364.255 328.514 364.255 304.576C364.255 285.208 359.906 268.369 351.2 254.02C342.498 239.667 329.667 229.761 312.71 224.329L360.984 141.126V125.145H232.761L185.439 285.992Z" fill="#9B9B9B"/>
<path d="M485.349 336.035C490.765 330.063 499.423 314.545 499.423 314.545L504.427 340.6C504.427 340.6 501.333 346.592 499.423 349.565C496.847 353.6 492.161 360.377 487.204 365.675C482.447 370.761 474.949 377.035 471.392 379.302L471.305 379.358C467.613 381.734 453.299 390.943 432.541 387.267C411.612 383.577 397.847 367.188 390.769 357.678C383.165 347.455 377.8 335.737 376.067 331.906C373.031 325.247 368.196 309.557 368.196 309.557C368.196 309.557 376.878 325.224 382.447 333.067C387.98 340.871 397.812 349.271 401.651 352.102C405.49 354.973 416.459 361.804 428.263 362.941C440.086 364.086 446.349 363.086 458.306 357.82C470.255 352.541 479.941 342.012 485.349 336.035Z" fill="#9B9B9B"/>
</svg>
