<svg width="552" height="1096" viewBox="0 0 552 1096" fill="none" xmlns="http://www.w3.org/2000/svg">
<rect x="0.5" y="0.5" width="551" height="1095" rx="4.5" stroke="#9747FF" stroke-dasharray="10 5"/>
<g clip-path="url(#clip0_333_544)">
<path fill-rule="evenodd" clip-rule="evenodd" d="M251.099 141.199C241.507 135.97 229.487 137.455 220.08 142.406C206.219 149.878 196.689 163.229 189.711 177C182.301 191.156 179.238 206.967 177.783 222.716C170.945 221.803 165.438 216.497 163.86 209.844C161.289 201.996 162.986 193.987 164.647 186.142C165.046 184.259 165.443 182.386 165.778 180.527C166.367 178.406 165.277 176.58 164.225 174.819C163.897 174.268 163.572 173.724 163.303 173.179C157.486 172.823 151.545 175.685 148.899 181.022C140.978 195.828 141.675 215.801 152.628 228.935C158.909 236.887 168.826 240.817 178.681 241.869C182.007 252.11 188.505 262.105 198.947 266.127C211.726 271.279 225.758 265.879 236.866 259.165C236.812 259.723 236.761 260.282 236.709 260.843C236.383 264.419 236.052 268.036 234.809 271.433C232.125 273.595 229.039 275.141 225.953 276.687C224.555 277.387 223.158 278.087 221.798 278.844L220.586 279.482C199.549 290.568 178.202 301.817 160.533 317.954C147.414 330.267 137.095 346.651 135.115 364.798C134.156 379.064 139.834 394.718 152.334 402.562C165.391 411.21 182.61 410.732 196.843 405.364C214.789 398.526 228.172 383.301 237.021 366.687C250.109 343.17 252.352 315.742 254.255 289.426C254.371 288.746 254.43 288.004 254.49 287.246C254.702 284.569 254.931 281.691 257.752 280.654C279.132 268.633 299.908 255.545 319.772 241.142C322.126 244.035 324.446 246.943 326.658 249.929C316.432 256.025 306.235 262.6 298.517 271.836C269.649 303.412 269.169 357.604 299.43 388.422C314.901 404.745 338.681 411.721 360.696 408.458C380.931 405.58 399.34 392.846 409.552 375.211C423.165 352.746 420.937 321.327 403.24 301.725C386.685 283.439 354.459 283.795 338.279 302.36C325.546 315.757 325.128 339.443 338.418 352.561C343.802 357.93 353.177 361.178 359.938 356.552C364.3 353.411 363.883 346.699 360.369 343.062L360.161 342.81C355.66 337.376 350.458 331.094 351.8 323.537C353.16 313.559 364.316 307.448 373.707 309.569C381.75 310.822 388.17 317.102 391.156 324.466C398.197 341.221 394.205 361.982 381.566 375.026C368.168 388.997 344.868 391.193 328.702 380.843C314.344 372.009 306.177 355.625 303.653 339.366C301.009 319.764 304.769 298.616 316.927 282.634C324.756 272.515 335.679 264.207 348.24 261.206C350.025 261.342 351.82 261.509 353.622 261.677C362.473 262.503 371.477 263.343 380.064 260.541C384.923 258.885 389.655 253.439 387.18 248.118C384.504 242.656 377.929 241.016 372.452 239.872C365.414 238.475 358.409 239.892 351.499 241.291C350.373 241.518 349.25 241.746 348.13 241.96C342.547 240.042 339.592 234.178 337.519 229.011C353.052 217.408 368.399 204.799 378.948 188.292C385.076 178.375 389.067 166.2 386.19 154.55C383.917 146.83 377.59 140.271 369.512 138.801C356.054 135.413 342.284 142.205 333.141 151.843C318.443 167.793 310.987 189.901 311.667 211.467C311.588 213.216 311.807 214.997 312.025 216.776C312.363 219.53 312.7 222.277 311.93 224.88C303.566 231.623 294.453 237.367 285.355 243.101C282.472 244.919 279.59 246.735 276.734 248.582C274.644 249.795 272.584 251.065 270.524 252.335C265.86 255.211 261.196 258.087 256.174 260.308C256.297 253.439 256.653 246.478 258.618 239.856C260.471 237.322 262.494 234.904 264.518 232.485C268.189 228.098 271.865 223.705 274.537 218.599C277.57 213.138 280.432 206.223 277.276 200.189C274.383 195.718 267.978 196.151 263.785 198.379C254.843 202.866 249.939 212.334 246.334 221.214C245.578 222.949 245.026 224.812 244.474 226.677C243.22 230.913 241.963 235.16 238.289 237.953C230.925 244.389 222.045 250.856 211.804 250.485C205.956 250.514 202.057 245.008 200.819 239.841C217.002 233.56 230.508 221.833 241.461 208.59C251.594 195.563 259.655 180.185 261.016 163.508C261.774 155.107 258.773 145.593 251.099 141.199ZM209.39 184.223C214.31 174.337 220.003 164.173 229.347 157.815C233.107 154.968 239.311 156.175 241.09 160.77C242.467 166.432 240.378 172.172 237.965 177.231C231.111 191.216 220.885 203.345 209.189 213.525C206.296 216.17 202.923 218.228 199.35 219.806C199.829 207.368 204.099 195.378 209.39 184.223ZM333.543 209.007C333.359 192.253 339.358 175.389 350.282 162.673C353.608 158.836 359.333 154.999 364.407 157.614C369.978 160.909 367.068 168.288 364.871 172.806C357.215 186.931 345.859 198.843 333.543 209.007ZM159.56 360.31C163.457 346.063 173.933 334.83 184.668 325.193C199.102 313.05 215.114 302.621 232.257 294.698C230.447 313.65 226.007 332.432 218.844 350.068C212.702 364.27 203.59 378.89 188.491 384.707C180.662 387.647 170.452 389.488 163.676 383.299C157.255 377.608 157.688 367.952 159.56 360.31Z" fill="#FEFFFE"/>
<path fill-rule="evenodd" clip-rule="evenodd" d="M392.316 62.0198C351.472 39.5099 303.915 29.2064 257.411 32.9967C227.398 35.1471 197.88 43.1764 170.744 56.1564C127.086 77.1966 89.7546 111.387 65.5428 153.406C29.4805 214.02 22.5187 290.724 46.158 357.078C61.3193 400.226 89.012 438.717 124.813 467.12C166.414 500.119 219.03 519.133 272.172 519.581C310.971 520.434 349.957 511.615 384.596 494.149C428.734 472.304 465.818 436.582 489.519 393.448C513.205 350.625 523.599 300.455 518.326 251.769C511.317 172.76 461.966 99.5519 392.316 62.0198ZM108.35 128.204C133.227 92.1569 172.384 67.481 214.325 56.1564C256.87 44.2749 302.911 44.7854 344.988 58.3672C346.58 58.8664 347.855 59.9541 349.109 61.0246C349.293 61.1815 349.476 61.338 349.66 61.4923C345.688 61.2004 341.904 60.049 338.117 58.8966C335.279 58.0331 332.44 57.169 329.517 56.6654C312.314 53.2309 294.491 51.5291 277.056 54.1282C266.134 56.093 254.668 60.3165 247.739 69.4442C242.525 76.2204 241.968 86.8643 248.017 93.3001C254.732 100.401 266.644 100.014 274.086 94.2748C275.555 93.1957 277.018 92.0819 278.485 90.9641C285.792 85.3992 293.231 79.7334 302.365 77.7366C324.658 72.212 348.036 76.6536 369.631 83.074C395.56 90.1441 420.083 102.938 439.978 121.086C473.131 150.372 493.057 192.421 500.622 235.538C507.213 272.328 505.234 310.773 493.815 346.417C493.415 348.088 492.347 349.063 490.614 349.326C497.237 325.054 502.155 299.293 497.206 274.231C494.606 262.133 488.648 248.487 475.917 244.357C466.172 240.907 454.306 247.605 453.517 258.203C452.061 267.09 457.438 274.029 462.61 280.703C464.038 282.546 465.45 284.368 466.698 286.205C479.09 303.996 477.559 327.065 474.528 347.471C468.833 375.102 459.612 402.609 442.873 425.629C417.038 462.712 375.886 487.187 332.396 497.645C294.603 506.68 254.549 506.618 216.816 497.32C215.741 496.999 214.635 496.716 213.521 496.431C209.49 495.4 205.369 494.346 202.351 491.364C206.729 491.354 210.913 492.507 215.104 493.663C217.799 494.406 220.497 495.15 223.252 495.586C242.48 499.083 262.578 501.248 281.793 496.437C290.502 494.039 299.321 489.893 304.797 482.436C309.872 475.474 309.764 464.816 303.528 458.596C298.13 452.902 289.142 451.728 282.24 455.316C278.313 457.443 274.829 460.227 271.344 463.012C267.556 466.04 263.767 469.068 259.407 471.252C242.528 479.452 222.942 478.245 204.934 475.213C175.076 469.349 145.573 458.52 121.501 439.474C89.538 414.909 67.3993 379.078 56.5543 340.493C45.075 300.099 44.9977 256.688 55.4714 216.078C56.0469 214.74 56.369 213.156 56.6949 211.554C57.394 208.118 58.1101 204.598 61.3812 203.237C55.2548 226.443 50.4124 250.763 54.1409 274.805C56.0283 285.479 59.7722 296.789 68.606 303.718C74.7325 308.777 84.3089 310.635 91.0851 305.775C98.3099 301.554 100.692 291.528 97.3352 284.116C95.4283 279.601 92.4587 275.749 89.485 271.893C86.9582 268.615 84.4285 265.335 82.5452 261.639C73.6805 245.441 74.6551 226.103 77.0067 208.373C81.9573 179.969 91.5956 151.905 108.35 128.204Z" fill="#FEFFFE"/>
<path d="M229.347 157.818C233.107 154.971 239.31 156.178 241.09 160.773C242.466 166.435 240.378 172.175 237.965 177.234C231.111 191.219 220.885 203.348 209.189 213.528C206.296 216.174 202.923 218.231 199.35 219.809C199.829 207.371 204.099 195.381 209.39 184.227C214.31 174.341 220.003 164.176 229.347 157.818Z" fill="#3A73B8"/>
<path d="M350.282 162.676C353.608 158.839 359.333 155.002 364.407 157.617C369.978 160.912 367.068 168.292 364.871 172.809C357.215 186.934 345.859 198.846 333.543 209.011C333.359 192.256 339.358 175.393 350.282 162.676Z" fill="#3A73B8"/>
<path d="M232.256 294.703C215.114 302.624 199.102 313.052 184.668 325.196C173.931 334.834 163.457 346.066 159.559 360.315C157.687 367.957 157.254 377.611 163.674 383.304C170.45 389.493 180.661 387.65 188.489 384.712C203.589 378.895 212.701 364.275 218.843 350.073C226.006 332.436 230.446 313.655 232.256 294.703Z" fill="#3A73B8"/>
<path fill-rule="evenodd" clip-rule="evenodd" d="M214.325 56.1576C256.87 44.2761 302.911 44.7866 344.991 58.3699C346.583 58.8692 347.858 59.9568 349.112 61.0273L349.663 61.495C345.693 61.2032 341.91 60.0522 338.123 58.8999C335.285 58.0363 332.444 57.1719 329.52 56.6682C312.317 53.2336 294.493 51.5319 277.059 54.131C266.137 56.0957 254.673 60.3193 247.742 69.447C242.528 76.2232 241.971 86.8671 248.02 93.3029C254.735 100.404 266.647 100.017 274.089 94.2776C275.56 93.1971 277.025 92.0819 278.494 90.9627C285.799 85.3992 293.236 79.7357 302.368 77.7393C324.661 72.2163 348.039 76.6564 369.635 83.0767C395.564 90.1469 420.085 102.941 439.982 121.088C473.135 150.375 493.062 192.424 500.625 235.541C507.216 272.33 505.236 310.775 493.818 346.42C493.416 348.091 492.35 349.065 490.617 349.328C497.239 325.056 502.159 299.296 497.21 274.233C494.609 262.135 488.653 248.49 475.92 244.359C466.174 240.909 454.308 247.608 453.52 258.206C452.064 267.094 457.442 274.034 462.615 280.709C464.042 282.55 465.453 284.371 466.701 286.208C479.093 303.999 477.562 327.066 474.531 347.473C468.836 375.103 459.616 402.611 442.876 425.632C417.042 462.715 375.889 487.19 332.4 497.648C294.604 506.683 254.552 506.621 216.819 497.323C215.745 497.002 214.639 496.719 213.526 496.435C209.495 495.404 205.372 494.349 202.354 491.367C206.731 491.357 210.913 492.51 215.102 493.665C217.799 494.409 220.499 495.153 223.255 495.589C242.485 499.085 262.582 501.251 281.796 496.44C290.505 494.042 299.325 489.897 304.8 482.439C309.874 475.477 309.767 464.818 303.531 458.598C298.133 452.905 289.145 451.731 282.243 455.319C278.315 457.446 274.831 460.231 271.346 463.016C267.557 466.044 263.769 469.071 259.41 471.255C242.531 479.455 222.945 478.248 204.938 475.216C175.079 469.352 145.576 458.523 121.504 439.477C89.538 414.909 67.3994 379.079 56.5544 340.495C45.0751 300.1 44.9977 256.69 55.4714 216.079C56.0469 214.741 56.3691 213.157 56.695 211.556C57.394 208.12 58.1102 204.599 61.3812 203.238C55.2548 226.444 50.4125 250.764 54.1409 274.806C56.0284 285.481 59.7723 296.79 68.6061 303.719C74.7325 308.78 84.3089 310.636 91.0851 305.777C98.3099 301.555 100.692 291.53 97.3353 284.118C95.428 279.601 92.4579 275.749 89.4838 271.892C86.9575 268.615 84.4282 265.334 82.5452 261.64C73.6805 245.442 74.6552 226.104 77.0067 208.374C81.9574 179.97 91.5956 151.906 108.35 128.205C133.227 92.1581 172.384 67.4822 214.325 56.1576ZM220.08 142.407C206.218 149.879 196.688 163.231 189.711 177C182.301 191.155 179.237 206.967 177.783 222.716C170.945 221.803 165.438 216.497 163.86 209.844C161.289 201.996 162.986 193.987 164.647 186.141C165.046 184.259 165.443 182.386 165.778 180.527C166.367 178.405 165.277 176.58 164.225 174.818C163.897 174.268 163.571 173.724 163.303 173.178C157.486 172.823 151.545 175.685 148.899 181.022C140.978 195.828 141.674 215.8 152.628 228.935C158.91 236.887 168.826 240.817 178.681 241.869C182.007 252.11 188.504 262.104 198.947 266.127C211.726 271.278 225.758 265.879 236.866 259.165C236.812 259.722 236.761 260.281 236.709 260.841C236.383 264.418 236.052 268.036 234.808 271.433C232.125 273.595 229.039 275.141 225.953 276.686C224.556 277.386 223.157 278.087 221.798 278.844L220.586 279.482C199.549 290.568 178.202 301.817 160.533 317.954C147.414 330.267 137.095 346.65 135.115 364.798C134.156 379.063 139.833 394.718 152.334 402.562C165.39 411.21 182.61 410.73 196.843 405.364C214.789 398.525 228.171 383.301 237.021 366.687C250.109 343.17 252.352 315.74 254.255 289.426C254.371 288.746 254.43 288.004 254.49 287.246C254.702 284.569 254.93 281.691 257.752 280.654C279.132 268.631 299.909 255.545 319.772 241.141C322.125 244.034 324.446 246.943 326.658 249.929C316.432 256.024 306.235 262.599 298.517 271.835C269.649 303.411 269.169 357.604 299.43 388.422C314.901 404.745 338.679 411.722 360.696 408.458C380.931 405.58 399.34 392.846 409.552 375.211C423.165 352.746 420.937 321.326 403.24 301.725C386.685 283.439 354.459 283.794 338.278 302.359C325.546 315.757 325.128 339.443 338.418 352.56C343.801 357.93 353.177 361.177 359.937 356.552C364.3 353.413 363.883 346.698 360.369 343.061L360.161 342.81C355.66 337.375 350.458 331.094 351.8 323.537C353.16 313.559 364.316 307.448 373.706 309.569C381.75 310.822 388.172 317.101 391.156 324.465C398.197 341.22 394.205 361.982 381.566 375.025C368.168 388.995 344.867 391.192 328.702 380.842C314.344 372.009 306.175 355.625 303.653 339.365C301.009 319.764 304.769 298.615 316.927 282.634C324.757 272.515 335.679 264.208 348.24 261.205C350.024 261.342 351.82 261.509 353.621 261.677C362.474 262.503 371.478 263.343 380.063 260.54C384.923 258.885 389.654 253.439 387.18 248.117C384.505 242.656 377.93 241.016 372.452 239.871C365.414 238.474 358.409 239.892 351.499 241.29C350.373 241.518 349.25 241.745 348.13 241.96C342.547 240.041 339.59 234.178 337.519 229.011C353.051 217.408 368.398 204.799 378.948 188.292C385.076 178.375 389.067 166.2 386.19 154.55C383.916 146.83 377.588 140.271 369.512 138.801C356.054 135.413 342.284 142.204 333.141 151.843C318.443 167.793 310.986 189.901 311.667 211.467C311.588 213.215 311.807 214.997 312.025 216.776C312.363 219.53 312.7 222.276 311.93 224.88C303.566 231.623 294.452 237.367 285.355 243.101C282.472 244.918 279.59 246.735 276.734 248.581C274.648 249.793 272.592 251.06 270.537 252.328C265.869 255.206 261.2 258.085 256.174 260.308C256.297 253.439 256.653 246.477 258.618 239.856C260.471 237.321 262.493 234.904 264.517 232.486C268.189 228.098 271.865 223.705 274.537 218.599C277.57 213.138 280.432 206.222 277.276 200.189C274.383 195.718 267.978 196.151 263.785 198.379C254.843 202.865 249.939 212.333 246.334 221.214C245.578 222.949 245.026 224.812 244.474 226.677C243.22 230.913 241.963 235.16 238.289 237.953C230.925 244.389 222.045 250.856 211.803 250.484C205.955 250.515 202.057 245.008 200.819 239.84C217.002 233.558 230.508 221.831 241.461 208.589C251.594 195.563 259.654 180.185 261.016 163.508C261.774 155.107 258.773 145.593 251.099 141.199C241.507 135.971 229.486 137.456 220.08 142.407Z" fill="#3A73B8"/>
<path fill-rule="evenodd" clip-rule="evenodd" d="M403.378 54.0234C359.534 28.6668 307.985 16.8626 257.473 20.7148C207.054 24.2112 157.888 43.2867 118.221 74.5686C83.9995 101.441 56.6627 137.055 39.8769 177.232C21.7916 220.427 15.6652 268.711 23.0757 315C30.61 366.966 55.2703 416.085 91.704 453.82C126.08 489.511 171.023 514.961 219.4 525.744C265.533 536.077 314.531 533.648 359.24 518.177C409.582 501.066 454.184 467.619 484.862 424.194C515.108 381.849 531.661 330.037 531.985 278.04C532.404 228.286 517.985 178.455 490.724 136.823C468.773 102.772 438.45 74.2437 403.378 54.0234ZM170.743 56.1583C197.88 43.1784 227.398 35.1491 257.411 32.9986C303.915 29.2083 351.473 39.5118 392.315 62.0233C461.963 99.5554 511.316 172.763 518.324 251.772C523.598 300.459 513.205 350.629 489.517 393.452C465.816 436.586 428.733 472.308 384.595 494.152C349.957 511.619 310.971 520.437 272.17 519.585C219.028 519.136 166.412 500.123 124.811 467.124C89.0121 438.721 61.3194 400.23 46.1581 357.08C22.5187 290.726 29.4806 214.022 65.5414 153.408C89.7531 111.389 127.084 77.1986 170.743 56.1583Z" fill="#3A73B8"/>
</g>
<g clip-path="url(#clip1_333_544)">
<path d="M229.347 701.818C233.107 698.971 239.31 700.178 241.09 704.773C242.466 710.435 240.378 716.175 237.965 721.234C231.111 735.219 220.885 747.348 209.189 757.528C206.296 760.174 202.923 762.231 199.35 763.809C199.829 751.371 204.099 739.381 209.39 728.227C214.31 718.341 220.003 708.176 229.347 701.818Z" fill="#3A73B8"/>
<path d="M350.282 706.676C353.608 702.839 359.333 699.002 364.407 701.617C369.978 704.912 367.068 712.292 364.871 716.809C357.215 730.934 345.859 742.846 333.543 753.011C333.359 736.256 339.358 719.393 350.282 706.676Z" fill="#3A73B8"/>
<path d="M232.256 838.703C215.114 846.624 199.102 857.052 184.668 869.196C173.931 878.834 163.457 890.066 159.559 904.315C157.687 911.957 157.254 921.611 163.674 927.304C170.45 933.493 180.661 931.65 188.489 928.712C203.589 922.895 212.701 908.275 218.843 894.073C226.006 876.436 230.446 857.655 232.256 838.703Z" fill="#3A73B8"/>
<path fill-rule="evenodd" clip-rule="evenodd" d="M214.325 600.158C256.87 588.276 302.911 588.787 344.991 602.37C346.583 602.869 347.858 603.957 349.112 605.027L349.663 605.495C345.693 605.203 341.91 604.052 338.123 602.9C335.285 602.036 332.444 601.172 329.52 600.668C312.317 597.234 294.493 595.532 277.059 598.131C266.137 600.096 254.673 604.319 247.742 613.447C242.528 620.223 241.971 630.867 248.02 637.303C254.735 644.404 266.647 644.017 274.089 638.278C275.56 637.197 277.025 636.082 278.494 634.963C285.799 629.399 293.236 623.736 302.368 621.739C324.661 616.216 348.039 620.656 369.635 627.077C395.564 634.147 420.085 646.941 439.982 665.088C473.135 694.375 493.062 736.424 500.625 779.541C507.216 816.33 505.236 854.775 493.818 890.42C493.416 892.091 492.35 893.065 490.617 893.328C497.239 869.056 502.159 843.296 497.21 818.233C494.609 806.135 488.653 792.49 475.92 788.359C466.174 784.909 454.308 791.608 453.52 802.206C452.064 811.094 457.442 818.034 462.615 824.709C464.042 826.55 465.453 828.371 466.701 830.208C479.093 847.999 477.562 871.066 474.531 891.473C468.836 919.103 459.616 946.611 442.876 969.632C417.042 1006.72 375.889 1031.19 332.4 1041.65C294.604 1050.68 254.552 1050.62 216.819 1041.32C215.745 1041 214.639 1040.72 213.526 1040.43C209.495 1039.4 205.372 1038.35 202.354 1035.37C206.731 1035.36 210.913 1036.51 215.102 1037.67C217.799 1038.41 220.499 1039.15 223.255 1039.59C242.485 1043.09 262.582 1045.25 281.796 1040.44C290.505 1038.04 299.325 1033.9 304.8 1026.44C309.874 1019.48 309.767 1008.82 303.531 1002.6C298.133 996.905 289.145 995.731 282.243 999.319C278.315 1001.45 274.831 1004.23 271.346 1007.02C267.557 1010.04 263.769 1013.07 259.41 1015.26C242.531 1023.45 222.945 1022.25 204.938 1019.22C175.079 1013.35 145.576 1002.52 121.504 983.477C89.538 958.909 67.3994 923.079 56.5544 884.495C45.0751 844.1 44.9977 800.69 55.4714 760.079C56.0469 758.741 56.3691 757.157 56.695 755.556C57.394 752.12 58.1102 748.599 61.3812 747.238C55.2548 770.444 50.4125 794.764 54.1409 818.806C56.0284 829.481 59.7723 840.79 68.6061 847.719C74.7325 852.78 84.3089 854.636 91.0851 849.777C98.3099 845.555 100.692 835.53 97.3353 828.118C95.428 823.601 92.4579 819.749 89.4838 815.892C86.9575 812.615 84.4282 809.334 82.5452 805.64C73.6805 789.442 74.6552 770.104 77.0067 752.374C81.9574 723.97 91.5956 695.906 108.35 672.205C133.227 636.158 172.384 611.482 214.325 600.158ZM220.08 686.407C206.218 693.879 196.688 707.231 189.711 721C182.301 735.155 179.237 750.967 177.783 766.716C170.945 765.803 165.438 760.497 163.86 753.844C161.289 745.996 162.986 737.987 164.647 730.141C165.046 728.259 165.443 726.386 165.778 724.527C166.367 722.405 165.277 720.58 164.225 718.818C163.897 718.268 163.571 717.724 163.303 717.178C157.486 716.823 151.545 719.685 148.899 725.022C140.978 739.828 141.674 759.8 152.628 772.935C158.91 780.887 168.826 784.817 178.681 785.869C182.007 796.11 188.504 806.104 198.947 810.127C211.726 815.278 225.758 809.879 236.866 803.165C236.812 803.722 236.761 804.281 236.709 804.841C236.383 808.418 236.052 812.036 234.808 815.433C232.125 817.595 229.039 819.141 225.953 820.686C224.556 821.386 223.157 822.087 221.798 822.844L220.586 823.482C199.549 834.568 178.202 845.817 160.533 861.954C147.414 874.267 137.095 890.65 135.115 908.798C134.156 923.063 139.833 938.718 152.334 946.562C165.39 955.21 182.61 954.73 196.843 949.364C214.789 942.525 228.171 927.301 237.021 910.687C250.109 887.17 252.352 859.74 254.255 833.426C254.371 832.746 254.43 832.004 254.49 831.246C254.702 828.569 254.93 825.691 257.752 824.654C279.132 812.631 299.909 799.545 319.772 785.141C322.125 788.034 324.446 790.943 326.658 793.929C316.432 800.024 306.235 806.599 298.517 815.835C269.649 847.411 269.169 901.604 299.43 932.422C314.901 948.745 338.679 955.722 360.696 952.458C380.931 949.58 399.34 936.846 409.552 919.211C423.165 896.746 420.937 865.326 403.24 845.725C386.685 827.439 354.459 827.794 338.278 846.359C325.546 859.757 325.128 883.443 338.418 896.56C343.801 901.93 353.177 905.177 359.937 900.552C364.3 897.413 363.883 890.698 360.369 887.061L360.161 886.81C355.66 881.375 350.458 875.094 351.8 867.537C353.16 857.559 364.316 851.448 373.706 853.569C381.75 854.822 388.172 861.101 391.156 868.465C398.197 885.22 394.205 905.982 381.566 919.025C368.168 932.995 344.867 935.192 328.702 924.842C314.344 916.009 306.175 899.625 303.653 883.365C301.009 863.764 304.769 842.615 316.927 826.634C324.757 816.515 335.679 808.208 348.24 805.205C350.024 805.342 351.82 805.509 353.621 805.677C362.474 806.503 371.478 807.343 380.063 804.54C384.923 802.885 389.654 797.439 387.18 792.117C384.505 786.656 377.93 785.016 372.452 783.871C365.414 782.474 358.409 783.892 351.499 785.29C350.373 785.518 349.25 785.745 348.13 785.96C342.547 784.041 339.59 778.178 337.519 773.011C353.051 761.408 368.398 748.799 378.948 732.292C385.076 722.375 389.067 710.2 386.19 698.55C383.916 690.83 377.588 684.271 369.512 682.801C356.054 679.413 342.284 686.204 333.141 695.843C318.443 711.793 310.986 733.901 311.667 755.467C311.588 757.215 311.807 758.997 312.025 760.776C312.363 763.53 312.7 766.276 311.93 768.88C303.566 775.623 294.452 781.367 285.355 787.101C282.472 788.918 279.59 790.735 276.734 792.581C274.648 793.793 272.592 795.06 270.537 796.328C265.869 799.206 261.2 802.085 256.174 804.308C256.297 797.439 256.653 790.477 258.618 783.856C260.471 781.321 262.493 778.904 264.517 776.486C268.189 772.098 271.865 767.705 274.537 762.599C277.57 757.138 280.432 750.222 277.276 744.189C274.383 739.718 267.978 740.151 263.785 742.379C254.843 746.865 249.939 756.333 246.334 765.214C245.578 766.949 245.026 768.812 244.474 770.677C243.22 774.913 241.963 779.16 238.289 781.953C230.925 788.389 222.045 794.856 211.803 794.484C205.955 794.515 202.057 789.008 200.819 783.84C217.002 777.558 230.508 765.831 241.461 752.589C251.594 739.563 259.654 724.185 261.016 707.508C261.774 699.107 258.773 689.593 251.099 685.199C241.507 679.971 229.486 681.456 220.08 686.407Z" fill="#3A73B8"/>
<path fill-rule="evenodd" clip-rule="evenodd" d="M403.378 598.023C359.534 572.667 307.985 560.863 257.473 564.715C207.054 568.211 157.888 587.287 118.221 618.569C83.9995 645.441 56.6627 681.055 39.8769 721.232C21.7916 764.427 15.6652 812.711 23.0757 859C30.61 910.966 55.2703 960.085 91.704 997.82C126.08 1033.51 171.023 1058.96 219.4 1069.74C265.533 1080.08 314.531 1077.65 359.24 1062.18C409.582 1045.07 454.184 1011.62 484.862 968.194C515.108 925.849 531.661 874.037 531.985 822.04C532.404 772.286 517.985 722.455 490.724 680.823C468.773 646.772 438.45 618.244 403.378 598.023ZM170.743 600.158C197.88 587.178 227.398 579.149 257.411 576.999C303.915 573.208 351.473 583.512 392.315 606.023C461.963 643.555 511.316 716.763 518.324 795.772C523.598 844.459 513.205 894.629 489.517 937.452C465.816 980.586 428.733 1016.31 384.595 1038.15C349.957 1055.62 310.971 1064.44 272.17 1063.58C219.028 1063.14 166.412 1044.12 124.811 1011.12C89.0121 982.721 61.3194 944.23 46.1581 901.08C22.5187 834.726 29.4806 758.022 65.5414 697.408C89.7531 655.389 127.084 621.199 170.743 600.158Z" fill="#3A73B8"/>
</g>
<defs>
<clipPath id="clip0_333_544">
<rect width="512" height="512" fill="white" transform="translate(20 20)"/>
</clipPath>
<clipPath id="clip1_333_544">
<rect width="512" height="512" fill="white" transform="translate(20 564)"/>
</clipPath>
</defs>
</svg>
