<svg xmlns="http://www.w3.org/2000/svg" viewBox="0 0 280 70" width="280" height="70">
  <defs>
    <linearGradient id="phoneGrad" x1="0%" y1="0%" x2="100%" y2="100%">
      <stop offset="0%" style="stop-color:#1A1A1A"/>
      <stop offset="100%" style="stop-color:#121212"/>
    </linearGradient>
  </defs>
  
  <!-- Background -->
  <rect x="2" y="2" width="276" height="66" rx="12" fill="url(#phoneGrad)" stroke="#E62329" stroke-width="1.5"/>
  
  <!-- Phone Icon -->
  <circle cx="40" cy="35" r="18" fill="#E62329"/>
  <path d="M32 32 L32 34 C34 36 37 38 39 38 C41 38 42 37 44 36 C46 35 48 33 49 31 L51 31 C53 31 55 32 55 34 L53 40 C53 42 51 44 49 45 C47 46 45 47 43 47 C41 47 39 46 37 44 C35 42 33 40 32 38 L32 32 Z" fill="#FFFFFF"/>
  
  <!-- Text -->
  <text x="75" y="28" font-family="Inter, sans-serif" font-size="10" font-weight="700" fill="#A3A3A3" text-transform="uppercase" letter-spacing="0.15em">Call Us</text>
  <text x="75" y="50" font-family="Inter, sans-serif" font-size="20" font-weight="900" fill="#FFFFFF">800 SMART (76278)</text>
  
  <!-- Arrow -->
  <path d="M245 22 L260 35 L245 48" fill="none" stroke="#E62329" stroke-width="2.5" stroke-linecap="round" stroke-linejoin="round"/>
</svg>