<svg xmlns="http://www.w3.org/2000/svg" viewBox="0 0 200 90" width="200" height="90">
  <defs>
    <linearGradient id="pinGrad" x1="0%" y1="0%" x2="100%" y2="100%">
      <stop offset="0%" style="stop-color:#E62329"/>
      <stop offset="100%" style="stop-color:#B31D22"/>
    </linearGradient>
  </defs>
  
  <!-- Pin Shape -->
  <path d="M100 0 C55 0 20 35 20 70 C20 90 100 90 100 90 C100 90 180 90 180 70 C180 35 145 0 100 0 Z" fill="url(#pinGrad)"/>
  
  <!-- Inner Circle -->
  <circle cx="100" cy="65" r="25" fill="#FFFFFF"/>
  
  <!-- Location Mark -->
  <path d="M100 48 C92 48 85 55 85 63 C85 74 100 88 100 88 C100 88 115 74 115 63 C115 55 108 48 100 48 Z" fill="#E62329"/>
  <circle cx="100" cy="63" r="7" fill="#FFFFFF"/>
  
  <!-- Text Below -->
  <text x="100" y="20" font-family="Inter, sans-serif" font-size="9" font-weight="700" fill="#FFFFFF" text-anchor="middle" text-transform="uppercase" letter-spacing="0.1em">Find Us</text>
</svg>