<svg xmlns="http://www.w3.org/2000/svg" viewBox="0 0 320 70" width="320" height="70">
  <defs>
    <linearGradient id="addrGrad" x1="0%" y1="0%" x2="100%" y2="100%">
      <stop offset="0%" style="stop-color:#1A1A1A"/>
      <stop offset="100%" style="stop-color:#121212"/>
    </linearGradient>
  </defs>
  
  <!-- Background -->
  <rect x="2" y="2" width="316" height="66" rx="12" fill="url(#addrGrad)" stroke="#E62329" stroke-width="1.5"/>
  
  <!-- Location Icon -->
  <path d="M45 18 C35 18 27 26 27 36 C27 48 45 58 45 58 C45 58 63 48 63 36 C63 26 55 18 45 18 Z" fill="#E62329"/>
  <circle cx="45" cy="36" r="6" fill="#FFFFFF"/>
  
  <!-- Text -->
  <text x="75" y="28" font-family="Inter, sans-serif" font-size="10" font-weight="700" fill="#A3A3A3" text-transform="uppercase" letter-spacing="0.15em">Visit Us</text>
  <text x="75" y="48" font-family="Inter, sans-serif" font-size="14" font-weight="700" fill="#FFFFFF">Al Quoz Industrial Area, Dubai</text>
  
  <!-- UAE Flag Accent -->
  <rect x="280" y="20" width="25" height="18" fill="#E62329"/>
  <rect x="280" y="20" width="8" height="18" fill="#00732F"/>
  <rect x="288" y="20" width="8" height="18" fill="#FFFFFF"/>
  <rect x="296" y="20" width="9" height="18" fill="#000000"/>
</svg>