<?xml version="1.0" encoding="UTF-8"?><svg id="Layer_1" xmlns="http://www.w3.org/2000/svg" viewBox="0 0 119.41 113.46"><defs><style>.cls-1{fill:#fab639;}</style></defs><path class="cls-1" d="M118.62,113.02h-4.3l-9.28-13.14-2.67,2.94v10.2h-3.68v-26.75h3.68v12.9h.12c.76-1.02,1.51-1.98,2.22-2.85l8.61-10.04h4.48l-10.17,11.35,11,15.4Z"/><path class="cls-1" d="M93.42,109.41l.75,2.77c-1.34.59-4.02,1.28-7.49,1.28-7.9,0-13.88-4.81-13.88-13.58s5.98-14,14.71-14c3.47,0,5.72.67,6.69,1.14l-.88,2.82c-1.39-.62-3.35-1.11-5.69-1.11-6.61,0-10.99,4.01-10.99,11.03,0,6.55,3.96,10.77,10.83,10.77,2.21,0,4.46-.44,5.93-1.12Z"/><polygon class="cls-1" points="69.79 110.16 69.79 113.02 53.9 113.02 53.9 86.27 69.17 86.27 69.17 89.12 57.59 89.12 57.59 97.62 68.5 97.62 68.5 100.48 57.59 100.48 57.59 110.16 69.79 110.16"/><polygon class="cls-1" points="47.59 86.27 47.59 113.02 43.96 113.02 43.96 100.48 30.34 100.48 30.34 113.02 26.66 113.02 26.66 86.27 30.34 86.27 30.34 97.5 43.96 97.5 43.96 86.27 47.59 86.27"/><path class="cls-1" d="M21.39,109.41l.75,2.77c-1.33.59-4.01,1.28-7.48,1.28-7.89,0-13.87-4.81-13.87-13.58s5.98-14,14.71-14c3.47,0,5.73.67,6.69,1.14l-.88,2.82c-1.38-.62-3.34-1.11-5.69-1.11-6.61,0-10.99,4.01-10.99,11.03,0,6.55,3.97,10.77,10.82,10.77,2.22,0,4.48-.44,5.94-1.12Z"/><path class="cls-1" d="M115.59,26.53s-1.2-2.66-2.66-2.66h-13.71c-1.46,0-2.66,1.19-2.66,2.66v2.57h-3.73v-4.3c0-.93-.98-.85-.98-.85h-8.32c0-13.03-6.58-13-6.58-13h-14.73v-4.43h14.73V0H28.12v6.53h16.05v4.43h-14.78l-8.89,6.8h-6.9c-1.46,0-2.65,1.19-2.65,2.65v17.05h-4.43v-18.21H0v45.73h6.53v-18.83h4.43v17.66c0,1.47,1.19,2.66,2.65,2.66h6.9l21.62,15.45h45.23c6.15,0,5.48-5.23,5.48-5.23v-7.95h3.73v5.87c0,1.47,1.2,2.66,2.66,2.66h13.71c1.46,0,2.66-2.66,2.66-2.66l3.82-11.12v-25.83l-3.82-11.13Z"/></svg>