<?xml version="1.0" encoding="UTF-8"?><svg id="Layer_1" xmlns="http://www.w3.org/2000/svg" viewBox="0 0 103.86 98.18"><defs><style>.cls-1{fill:#fab639;}</style></defs><path class="cls-1" d="M58.68,56.43l-13.18,5.01-6.55-14.64,16.38-9.01C50.57,23.82,41.11,0,30.78,0H0v6.4h30.09l12.1,21.49H0v59.83h38.05v8.72c0,.96.78,1.75,1.72,1.75h17.15c.94,0,1.75-.78,1.75-1.75v-12.92s-.02-.02-.02-.03l.02-27.06Z"/><polygon class="cls-1" points="74.75 47.45 80.69 44.92 70.87 32.29 65.13 35.06 74.75 47.45"/><polygon class="cls-1" points="61.9 36.62 57.84 38.59 63.81 52.1 71.45 48.86 61.9 36.62"/><path class="cls-1" d="M103.71,42.98l-12.79-28.01c-.39-.87-1.42-1.27-2.28-.87l-9.79,4.46c-.86.4-1.25,1.45-.86,2.32l2.97,6.52-6.89,3.34,9.97,12.77,3.58-1.53,3.17,6.9c.39.87,1.42,1.25,2.3.87l9.77-4.46c.86-.41,1.25-1.45.86-2.32Z"/></svg>