<?xml version="1.0" encoding="UTF-8"?><svg id="Layer_1" xmlns="http://www.w3.org/2000/svg" viewBox="0 0 149.5 59.78"><defs><style>.cls-1{fill:#fefefe;}</style></defs><path class="cls-1" d="M121.77,4.77c-.8-.46-1.78-.46-2.59,0l-29.33,16.89h-31.24C55.03,9.17,43.52,0,29.89,0,13.41,0,0,13.42,0,29.89s13.41,29.89,29.89,29.89c13.63,0,25.14-9.16,28.73-21.65h31.23l29.34,16.88c.4.23.85.35,1.3.35s.89-.12,1.29-.35c.8-.46,1.29-1.31,1.29-2.23V7.01c0-.93-.49-1.77-1.29-2.24Z"/><path class="cls-1" d="M146.96,32.65h-15.1c-1.41,0-2.54-1.23-2.54-2.76s1.14-2.77,2.54-2.77h15.1c1.41,0,2.54,1.24,2.54,2.77s-1.14,2.76-2.54,2.76Z"/><path class="cls-1" d="M132.43,19.81c-1.04,0-2.01-.69-2.38-1.8-.49-1.43.18-3.02,1.5-3.56l13.95-5.62c1.32-.53,2.77.2,3.27,1.62.49,1.44-.19,3.03-1.51,3.56l-13.95,5.63c-.29.12-.59.17-.88.17Z"/><path class="cls-1" d="M146.38,51.14c-.3,0-.6-.06-.88-.18l-13.95-5.62c-1.32-.54-1.98-2.13-1.5-3.56.49-1.43,1.95-2.16,3.27-1.63l13.95,5.63c1.32.53,2,2.12,1.51,3.55-.38,1.12-1.35,1.81-2.38,1.81Z"/><path class="cls-1" d="M146.96,32.65h-15.1c-1.41,0-2.54-1.23-2.54-2.76s1.14-2.77,2.54-2.77h15.1c1.41,0,2.54,1.24,2.54,2.77s-1.14,2.76-2.54,2.76Z"/><path class="cls-1" d="M146.38,51.14c-.3,0-.6-.06-.88-.18l-13.95-5.62c-1.32-.54-1.98-2.13-1.5-3.56.49-1.43,1.95-2.16,3.27-1.63l13.95,5.63c1.32.53,2,2.12,1.51,3.55-.38,1.12-1.35,1.81-2.38,1.81Z"/><path class="cls-1" d="M132.43,19.81c-1.04,0-2.01-.69-2.38-1.8-.49-1.43.18-3.02,1.5-3.56l13.95-5.62c1.32-.53,2.77.2,3.27,1.62.49,1.44-.19,3.03-1.51,3.56l-13.95,5.63c-.29.12-.59.17-.88.17Z"/></svg>