<?xml version="1.0" encoding="UTF-8"?><svg id="Layer_1" xmlns="http://www.w3.org/2000/svg" viewBox="0 0 78.33 112.44"><defs><style>.cls-1{fill:#fab639;}</style></defs><path class="cls-1" d="M59.68,31.29c2.59,1.33,5.78.31,7.11-2.28l10.95-21.31c1.33-2.59.32-5.78-2.28-7.11-2.59-1.33-5.78-.31-7.11,2.28l-4.3,8.37h-14.55c-1.75-3.63-5.46-6.15-9.77-6.15s-8.01,2.52-9.77,6.15h-9.71l1.82-3.54c1.33-2.59.31-5.78-2.28-7.11-2.59-1.33-5.78-.31-7.11,2.28L1.72,24.17c-1.33,2.6-.31,5.78,2.28,7.12,2.6,1.33,5.78.31,7.12-2.28l4.3-8.37h14.55c1.2,2.48,3.3,4.43,5.88,5.42v54.93c-4.74,1.3-8.51,4.88-10.07,9.5h-15.21v-7.28c0-2.91-2.36-5.28-5.28-5.28s-5.28,2.37-5.28,5.28v23.96c0,2.92,2.36,5.28,5.28,5.28s5.28-2.36,5.28-5.28v-7.28h15.21c1.96,5.83,7.46,10.04,13.96,10.04s12-4.21,13.96-10.04h9.92v7.28c0,2.92,2.36,5.28,5.29,5.28s5.28-2.36,5.28-5.28v-23.96c0-2.91-2.37-5.28-5.28-5.28s-5.29,2.37-5.29,5.28v7.28h-9.92c-1.56-4.62-5.34-8.21-10.07-9.5V26.05c2.58-.99,4.67-2.94,5.88-5.42h9.71l-1.82,3.54c-1.33,2.6-.32,5.78,2.28,7.12Z"/></svg>