<?xml version="1.0" encoding="UTF-8"?><svg id="Layer_1" xmlns="http://www.w3.org/2000/svg" viewBox="0 0 92.67 49.96"><defs><style>.cls-1{fill:#fefefe;}</style></defs><rect class="cls-1" y="27.42" width="14.65" height="4.67"/><path class="cls-1" d="M24.91,25.27c0,10.34,4.63,19.6,12.76,19.6s12.82-9.11,12.82-20.1c0-9.62-4.15-19.67-12.75-19.67s-12.82,9.54-12.82,20.17ZM55.95,24.48c0,16.66-8.37,25.48-18.57,25.48s-17.98-9.9-17.98-24.54C19.4,10.05,27.3,0,37.97,0s17.97,10.12,17.97,24.48Z"/><path class="cls-1" d="M62.65,49.17V.79h5.64l12.82,24.48c2.96,5.67,5.27,10.77,7.18,15.72l.12-.07c-.48-6.46-.59-12.34-.59-19.89V.79h4.87v48.38h-5.22l-12.7-24.54c-2.79-5.38-5.45-10.92-7.48-16.15l-.17.07c.29,6.1.41,11.92.41,19.95v20.68h-4.87Z"/></svg>