<?xml version="1.0" encoding="UTF-8"?><svg id="Layer_1" xmlns="http://www.w3.org/2000/svg" viewBox="0 0 111.15 111.11"><defs><style>.cls-1{fill:#fab639;}</style></defs><path class="cls-1" d="M55.57,0C24.93,0,0,24.93,0,55.58c0,11.44,3.45,22.43,9.97,31.78,6.38,9.13,15.23,16.08,25.57,20.07.38.14.77.22,1.15.22,1.27,0,2.48-.78,2.97-2.04.64-1.64-.18-3.48-1.83-4.11-18.82-7.28-31.47-25.73-31.47-45.91C6.37,28.44,28.44,6.37,55.57,6.37s49.21,22.07,49.21,49.21c0,19.04-11.26,36.53-28.33,44.56l-2.39-5.42-9.75,15.02,16.97,1.37-2.26-5.13c8.88-4.13,16.49-10.51,22.16-18.62,6.53-9.35,9.98-20.34,9.98-31.78C111.15,24.93,86.21,0,55.57,0Z"/><path class="cls-1" d="M63.13,61c0,4.17-3.38,7.56-7.56,7.56s-7.55-3.38-7.55-7.56V26.07c0-4.17,3.38-7.55,7.55-7.55s7.56,3.38,7.56,7.55v34.93Z"/><path class="cls-1" d="M63.13,81.53c0,4.17-3.38,7.56-7.56,7.56s-7.55-3.38-7.55-7.56,3.38-7.55,7.55-7.55,7.56,3.38,7.56,7.55Z"/></svg>