<?xml version="1.0" encoding="UTF-8"?><svg id="Layer_1" xmlns="http://www.w3.org/2000/svg" viewBox="0 0 123.67 96.7"><defs><style>.cls-1{fill:#e52a2d;}</style></defs><polygon class="cls-1" points="78.5 0 45.49 38.74 65.28 38.74 56.71 66.7 92.16 22.46 70.37 24.88 78.5 0"/><path class="cls-1" d="M116.2,76.14c0,5.93-3.94,10.93-9.35,12.55V28.81c5.41,1.61,9.35,6.62,9.35,12.55v34.78ZM33.75,88.69c-5.41-1.62-9.38-6.62-9.38-12.55v-34.78c0-5.93,3.97-10.94,9.38-12.55v59.88ZM16.93,65.67H7.46v-12.14h9.47v12.14ZM103.13,20.79h-7.72v7.47h3.97v60.98h-58.16V28.26h4.74v-7.47h-8.49c-11.33,0-20.54,9.22-20.54,20.57v4.71H6.93c-3.82,0-6.93,3.11-6.93,6.93v13.21c0,3.82,3.11,6.93,6.93,6.93h10v3c0,11.34,9.21,20.56,20.54,20.56h65.65c11.32,0,20.54-9.22,20.54-20.56v-34.78c0-11.34-9.21-20.57-20.54-20.57Z"/></svg>