<?xml version="1.0" encoding="UTF-8"?><svg id="Layer_1" xmlns="http://www.w3.org/2000/svg" viewBox="0 0 167.28 98.89"><defs><style>.cls-1{fill:#e52a2d;}</style></defs><path class="cls-1" d="M149.36,78.85c-6.69,0-10.32,3.48-12.73,5.8-2,1.91-2.72,2.52-4.61,2.52s-2.61-.61-4.61-2.52c-2.4-2.31-6.03-5.8-12.72-5.8s-10.32,3.49-12.72,5.8c-2,1.91-2.72,2.52-4.61,2.52s-2.6-.61-4.6-2.52c-2.41-2.31-6.03-5.8-12.73-5.8s-10.32,3.49-12.72,5.8c-2,1.91-2.72,2.52-4.6,2.52s-2.6-.61-4.6-2.52c-2.41-2.3-6.03-5.8-12.72-5.8s-10.32,3.49-12.72,5.8c-1.99,1.91-2.72,2.52-4.59,2.52s-2.61-.61-4.6-2.52c-2.41-2.3-6.03-5.8-12.73-5.8-3.24,0-5.86,2.63-5.86,5.87s2.62,5.86,5.86,5.86c1.88,0,2.61.61,4.6,2.52,2.41,2.31,6.03,5.8,12.73,5.8s10.32-3.48,12.71-5.8c2-1.91,2.72-2.52,4.6-2.52s2.6.61,4.6,2.52c2.41,2.31,6.03,5.8,12.72,5.8s10.32-3.48,12.72-5.8c2-1.91,2.72-2.52,4.6-2.52s2.61.61,4.61,2.52c2.4,2.31,6.03,5.8,12.72,5.8s10.32-3.48,12.73-5.8c2-1.91,2.72-2.52,4.6-2.52s2.61.61,4.61,2.52c2.41,2.31,6.03,5.8,12.73,5.8s10.32-3.48,12.73-5.8c2-1.91,2.72-2.52,4.61-2.52,3.24,0,5.86-2.62,5.86-5.86s-2.62-5.87-5.86-5.87Z"/><path class="cls-1" d="M97.17,57.32h-60.58v-28.56h39.8l10.33,7.52c1.2.88,2.75,1.09,4.14.56l49.36-18.85-43.05,39.33ZM9.83,28.34l4.67-12.45,13.35,5.61v16.25l-18.02-9.41ZM160.93,23.74c1.17-1.59,1.12-3.76-.09-5.3l-8.75-11.07c-1.19-1.5-3.21-2.06-4.99-1.38l-57.14,21.82-9.56-6.96c-.75-.55-1.65-.84-2.58-.84h-12.46v-4.12h2.94c2.42,0,4.38-1.96,4.38-4.38v-7.13c0-2.41-1.96-4.38-4.38-4.38h-17.08c-2.42,0-4.38,1.96-4.38,4.38v7.13c0,2.42,1.96,4.38,4.38,4.38h3.3v4.12h-17.92v-1.41c0-1.76-1.05-3.35-2.67-4.04L13.7,6.05c-1.09-.46-2.33-.46-3.43.01-1.09.47-1.96,1.37-2.37,2.48L.28,28.9c-.78,2.06.12,4.39,2.07,5.41l25.5,13.31v14.08c0,2.42,1.96,4.38,4.38,4.38h66.64c1.09,0,2.14-.41,2.95-1.14l46.57-42.54,7.46,2.85c1.84.7,3.93.09,5.09-1.5Z"/><path class="cls-1" d="M159.47,33.07s-7.82,13.66-7.82,17.54,3.51,7.02,7.82,7.02,7.81-3.14,7.81-7.02-7.81-17.54-7.81-17.54Z"/><polygon class="cls-1" points="98.94 61.66 33.36 61.66 33.36 25.4 78.04 25.4 90.11 31.73 126.74 36.48 98.94 61.66"/><path class="cls-1" d="M34.24,60.79h64.36l26.15-23.68-34.9-4.54-12.03-6.3h-43.58v34.51ZM99.27,62.54H32.49V24.52h45.77l12.13,6.35,38.35,4.98-29.46,26.68Z"/></svg>