<?xml version="1.0" encoding="UTF-8"?><svg id="Layer_1" xmlns="http://www.w3.org/2000/svg" viewBox="0 0 140.26 111.69"><defs><style>.cls-1{fill:#fab639;}</style></defs><path class="cls-1" d="M43.79,56.26l2.76-8.53c.54-1.8,1.01-3.59,1.38-5.35h.12c.42,1.71.84,3.46,1.47,5.38l2.76,8.5h-8.49ZM45.96,39.01l-9.61,29.5h3.8l2.88-9.28h9.99l3.01,9.28h3.89l-9.62-29.5h-4.35Z"/><path class="cls-1" d="M70.76,65.8c-1.34,0-2.3-.04-3.05-.17v-11.25h3.01c3.97,0,7.32,1.67,7.32,5.73s-3.51,5.69-7.27,5.69ZM67.71,41.99c.58-.13,1.54-.26,3.22-.26,3.67,0,6.19,1.35,6.19,4.81,0,2.85-2.3,4.99-6.11,4.99h-3.3v-9.54ZM76.03,52.71v-.09c2.93-1.09,4.76-3.63,4.76-6.48,0-2.32-.87-4.07-2.38-5.21-1.72-1.49-4.06-2.14-7.69-2.14-2.51,0-5.06.26-6.69.61v29.02c1.26.18,3.14.35,5.69.35,4.6,0,7.78-.87,9.7-2.75,1.51-1.44,2.43-3.37,2.43-5.86,0-4.47-3.14-6.74-5.81-7.44Z"/><path class="cls-1" d="M95.17,51.79c-3.88-1.57-5.6-2.93-5.6-5.69,0-2.01,1.46-4.42,5.31-4.42,2.55,0,4.43.88,5.35,1.4l1.01-3.11c-1.25-.7-3.39-1.4-6.23-1.4-5.48,0-9.11,3.41-9.11,7.96,0,4.11,2.85,6.7,7.4,8.36,3.85,1.54,5.35,3.11,5.35,5.87,0,2.98-2.17,5.03-5.9,5.03-2.51,0-4.89-.88-6.52-1.93l-.96,3.19c1.51,1.05,4.47,1.93,7.23,1.93,6.64,0,9.87-3.98,9.87-8.53s-2.43-6.7-7.19-8.67Z"/><path class="cls-1" d="M70.13,97.5c-22.96,0-41.65-18.69-41.65-41.66S47.17,14.2,70.13,14.2s41.65,18.68,41.65,41.65-18.68,41.66-41.65,41.66ZM70.13,4.57c-28.27,0-51.28,23-51.28,51.28s23.01,51.28,51.28,51.28,51.27-23.01,51.27-51.28S98.4,4.57,70.13,4.57Z"/><path class="cls-1" d="M30.93,103.03c-.86-.67-21.31-16.5-21.31-47.18S30.07,9.32,30.94,8.66c2.12-1.59,2.54-4.61.96-6.73-1.59-2.13-4.61-2.56-6.74-.97C24.13,1.73,0,20.2,0,55.85s24.13,54.11,25.16,54.88c.86.64,1.87.96,2.87.96,1.46,0,2.9-.67,3.85-1.92,1.6-2.12,1.17-5.14-.95-6.74Z"/><path class="cls-1" d="M115.1.96c-2.13-1.59-5.13-1.16-6.72.96-1.6,2.12-1.17,5.14.94,6.74.87.66,21.31,16.5,21.31,47.18s-20.44,46.53-21.31,47.2c-2.12,1.59-2.55,4.6-.96,6.73.95,1.26,2.4,1.93,3.86,1.93,1.01,0,2.02-.31,2.88-.96,1.03-.78,25.16-19.24,25.16-54.9S116.12,1.73,115.1.96Z"/></svg>