<?xml version="1.0" encoding="UTF-8"?><svg id="Layer_1" xmlns="http://www.w3.org/2000/svg" viewBox="0 0 140.26 111.69"><defs><style>.cls-1{fill:#e52a2d;}</style></defs><path class="cls-1" d="M70.13,97.49c-22.96,0-41.65-18.68-41.65-41.66S47.17,14.2,70.13,14.2s41.65,18.68,41.65,41.64-18.69,41.66-41.65,41.66ZM70.13,4.56c-28.27,0-51.27,23.01-51.27,51.28s23,51.28,51.27,51.28,51.28-23,51.28-51.28S98.41,4.56,70.13,4.56Z"/><path class="cls-1" d="M30.94,103.03c-.87-.66-21.31-16.5-21.31-47.18S30.08,9.32,30.94,8.66c2.12-1.6,2.55-4.61.96-6.73-1.59-2.13-4.61-2.56-6.74-.98C24.13,1.73,0,20.2,0,55.85s24.14,54.11,25.16,54.88c.87.64,1.88.96,2.88.96,1.46,0,2.9-.67,3.85-1.92,1.59-2.12,1.17-5.14-.95-6.74Z"/><path class="cls-1" d="M115.11.96c-2.13-1.59-5.14-1.15-6.73.97-1.59,2.12-1.17,5.14.95,6.74.87.66,21.31,16.5,21.31,47.18s-20.44,46.53-21.31,47.19c-2.12,1.59-2.55,4.61-.96,6.73.95,1.26,2.39,1.93,3.86,1.93,1,0,2.01-.32,2.88-.96,1.02-.77,25.15-19.24,25.15-54.89S116.13,1.73,115.11.96Z"/></svg>