<?xml version="1.0" encoding="UTF-8"?><svg id="Layer_1" xmlns="http://www.w3.org/2000/svg" viewBox="0 0 126.73 93.43"><defs><style>.cls-1{fill:#fab639;}</style></defs><path class="cls-1" d="M65.35,74.64c-.08.44-1.36,6.58-18.9,6.58-3.22,0-6-.29-8.19-.86l-.17-.04c-14.46-3.16-29.95-17.42-29.95-33.61s15.5-30.43,29.95-33.6l.14-.04c2.22-.57,5-.86,8.22-.86,16.93,0,18.7,5.7,18.87,6.51v.15l.03-.12v55.89ZM46.45,4.07c-3.89,0-7.3.38-10.19,1.1C18.83,9.03,0,25.99,0,46.71s18.83,37.69,36.29,41.55c2.86.72,6.27,1.1,10.16,1.1,11.13,0,19.04-2.32,23.48-6.89,3.36-3.43,3.56-6.91,3.56-7.77V18.73c0-.86-.2-4.34-3.56-7.77-4.44-4.57-12.35-6.89-23.48-6.89Z"/><path class="cls-1" d="M105.38,21.04h21.35v-6.35h-15.52c2.05-2.5,3.83-5.73,3.83-10.61,0-2.25-1.81-4.07-4.09-4.07s-4.05,1.83-4.05,4.07c0,3.62-1.67,5.27-4.22,7.76-.86.86-1.8,1.79-2.69,2.85h-15.63v6.35h12.21c-.33,1.3-.53,2.73-.53,4.35,0,1.36.14,2.59.39,3.72h-12.08v6.36h15.1c1.03,1.33,2.17,2.46,3.22,3.48,1.67,1.62,2.94,2.9,3.64,4.58h-21.96v6.36h21.96c-.7,1.69-1.97,2.96-3.64,4.58-1.05,1.04-2.19,2.16-3.22,3.49h-15.1v6.36h12.08c-.25,1.12-.39,2.35-.39,3.71,0,1.63.2,3.06.56,4.35h-12.24v6.36h15.63c.88,1.06,1.83,1.98,2.69,2.85,2.56,2.48,4.22,4.13,4.22,7.76,0,2.25,1.83,4.07,4.05,4.07s4.09-1.83,4.09-4.07c0-4.88-1.78-8.11-3.83-10.61h15.52v-6.36h-21.35c-.75-1.19-1.2-2.51-1.2-4.35,0-1.51.3-2.68.83-3.71h21.71v-6.36h-16.07c1.8-2.02,3.47-4.53,4.11-8.07h11.97v-6.36h-11.97c-.64-3.54-2.3-6.04-4.11-8.06h16.07v-6.36h-21.71c-.53-1.03-.83-2.19-.83-3.72,0-1.84.44-3.17,1.2-4.35Z"/></svg>