<?xml version="1.0" encoding="UTF-8"?><svg id="Layer_1" xmlns="http://www.w3.org/2000/svg" viewBox="0 0 151.83 71.65"><defs><style>.cls-1{fill:#fefefe;}</style></defs><path class="cls-1" d="M144.83,42.47c0,5.9-4.53,10.7-10.11,10.7h-5.56l-.67,2.64c-1.32,5.2-5.99,8.84-11.35,8.84s-10.03-3.64-11.34-8.84l-.67-2.64h-56.15l-.67,2.64c-1.33,5.2-6,8.84-11.36,8.84s-10.03-3.64-11.34-8.84l-.67-2.64h-7.82c-5.57,0-10.11-4.8-10.11-10.7v-2.7c0-5.9,4.53-10.71,10.11-10.71h25.58l.05-.05,14.92,9.05-6.67-.3c-1.95-.09-3.57,1.41-3.66,3.34-.09,1.93,1.41,3.56,3.34,3.66l20.36.91c.06,0,.11,0,.16,0h0c.07,0,.12-.01.19-.01.16-.01.32-.02.48-.05.2-.04.39-.1.58-.17.02,0,.04,0,.07-.01.21-.09.41-.19.59-.32.04-.01.07-.05.1-.07.14-.11.3-.22.43-.35,0,0,.01-.01.02-.02.13-.12.25-.27.35-.41.01-.03.04-.05.06-.08.11-.15.2-.32.28-.49.03-.07.05-.14.08-.2.05-.12.1-.25.14-.39.02-.07.03-.15.05-.23.03-.13.04-.27.06-.41,0-.04.01-.08.01-.12,0-.04,0-.07,0-.11,0-.15,0-.3-.02-.45,0-.07,0-.14-.03-.21-.03-.17-.07-.33-.12-.49-.01-.04-.02-.09-.04-.13-.07-.19-.16-.37-.26-.54l-.03-.05-10.27-17.46c-.99-1.67-3.13-2.22-4.8-1.25s-2.22,3.12-1.25,4.8l3.26,5.53-13.25-8.04,17.17-16.94h38.74l18.79,22.06h12.15c5.57,0,10.11,4.8,10.11,10.71v2.7ZM134.72,22.07h-8.91L107.02,0h-44.86l-20.46,20.2L10.69,1.4c-1.65-1.01-3.8-.48-4.81,1.17-1,1.66-.48,3.8,1.17,4.81l24.22,14.68h-14.16C7.67,22.07,0,30.01,0,39.77v2.7c0,9.76,7.67,17.7,17.1,17.7h2.59c2.88,6.87,9.62,11.48,17.25,11.48s14.38-4.6,17.26-11.48h45.68c2.88,6.87,9.62,11.48,17.25,11.48s14.38-4.6,17.26-11.48h.33c9.43,0,17.11-7.94,17.11-17.7v-2.7c0-9.77-7.68-17.71-17.11-17.71Z"/></svg>