<?xml version="1.0" encoding="UTF-8"?><svg id="Layer_1" xmlns="http://www.w3.org/2000/svg" viewBox="0 0 122.84 86.92"><defs><style>.cls-1{fill:#fab639;}</style></defs><path class="cls-1" d="M11.18,8.93h36.89v15.23h-11.21l24.57,30.93,24.57-30.93h-11.21v-15.23h36.89c1.22,0,2.25,1.01,2.25,2.23v53.47c-5.59.43-8.16,5.64-9.91,9.14-.67,1.35-1.92,3.87-2.62,4.22-.72-.35-1.97-2.86-2.64-4.22-1.8-3.66-4.55-9.19-10.63-9.19s-8.83,5.53-10.63,9.19c-.67,1.35-1.91,3.86-2.61,4.22h-.03c-.7-.35-1.94-2.87-2.61-4.22-1.8-3.66-4.53-9.19-10.61-9.19s-8.83,5.53-10.63,9.19c-.7,1.35-1.91,3.86-2.61,4.22h-.03c-.7-.35-1.94-2.87-2.61-4.22-1.8-3.66-4.56-9.19-10.63-9.19s-8.82,5.53-10.63,9.19c-.67,1.35-1.92,3.86-2.59,4.22h-.03c-.69-.35-1.94-2.87-2.61-4.22-1.77-3.6-4.47-9-10.35-9.18V11.16c0-1.22,1-2.23,2.25-2.23ZM72.12,30.86l-10.69,13.45-10.69-13.45h4.03V10.05h13.29v20.81h4.06ZM111.68,0H11.18C5.03,0,0,5.01,0,11.16v64.59c0,6.16,5.03,11.16,11.18,11.16h100.49c6.16,0,11.16-5.01,11.16-11.16V11.16c0-6.15-5-11.16-11.16-11.16Z"/></svg>