<?xml version="1.0" encoding="UTF-8"?><svg id="Layer_1" xmlns="http://www.w3.org/2000/svg" viewBox="0 0 90.46 124.28"><defs><style>.cls-1{fill:#fab639;}</style></defs><path class="cls-1" d="M34.87,6.05h31.17c2.06,1.56,5.98,7.77,9,13.66H25.88c3.02-5.9,6.93-12.11,8.99-13.66ZM87.43,20.18h-5.52l.04-.12-.59-1.22c-1.83-3.77-8.19-16.24-13.24-18.57l-.6-.28h-34.13l-.6.28c-5.05,2.33-11.41,14.8-13.24,18.57l-.6,1.22.05.12h-5.52c-1.67,0-3.02,1.17-3.02,2.62v2.8c0,1.45,1.35,2.63,3.02,2.63h1.75c-.18.88-.3,1.8-.3,2.75v12.5c0,3.76,1.5,7.06,3.78,9.11v10.33c0,1.67,1.35,3.03,3.02,3.03h6.8c1.67,0,3.02-1.35,3.02-3.03v-8.19h37.79v8.19c0,1.67,1.35,3.03,3.03,3.03h6.8c1.68,0,3.03-1.35,3.03-3.03v-10.33c2.28-2.05,3.78-5.35,3.78-9.11v-12.5c0-.96-.12-1.87-.3-2.75h1.75c1.67,0,3.03-1.18,3.03-2.63v-2.8c0-1.45-1.36-2.62-3.03-2.62Z"/><path class="cls-1" d="M28.23,76.1s1.41.25,3.77.94c1.18.4,2.62.89,4.23,1.7,1.6.86,3.46,1.88,5.2,4.08.88,1.03,1.59,2.69,1.69,4.55.04.89-.16,1.83-.38,2.71l-.51,1.18-.28.59-.14.3-.3.41-.25.35c-.06.1-.16.25-.38.47-.35.38-.81.85-1.14,1.1-.67.55-1.35.99-2.04,1.39-1.38.72-2.75,1.23-4.1,1.67-5.38,1.69-10.79,2.21-15.84,3.2-2.48.52-4.92,1.02-6.68,1.8-.85.38-1.48.83-1.65,1.04-.16.25-.08.06-.11.35v.02c.03.39-.04-.53-.03-.43v.03s0,.07,0,.07l.02.22.05.47.1.93c.02.39.1.39.15.53.04.12.09.23.11.36-.03.2.27.68.38,1.03.13.38.35.76.57,1.14.82,1.54,1.95,3.04,3.14,4.38,2.35,2.72,4.74,4.96,6.43,6.51,1.7,1.6,2.67,2.51,2.67,2.51l.02.02c.59.56.62,1.49.06,2.08-.33.35-.8.5-1.25.45,0,0-1.47-.17-3.87-.93-1.18-.4-2.63-.91-4.21-1.69-1.58-.78-3.36-1.72-5.16-3.09-1.81-1.35-3.72-3.04-5.36-5.41-.43-.58-.85-1.18-1.18-1.9-.34-.74-.72-1.26-1.02-2.26-.16-.46-.3-.93-.42-1.4-.12-.44-.28-1.02-.28-1.25l-.12-.93-.06-.46-.03-.23v-.06s-.01-.04-.01-.04l-.03-.48v-.22c-.07-2.22,1.01-4.98,2.64-6.6,1.6-1.67,3.31-2.55,4.88-3.22,3.13-1.23,6.01-1.76,8.82-2.14,5.55-.73,10.89-.98,15.29-1.81,2.17-.47,3.93-1.06,4.6-1.82.64-.75.86-1.2.38-2.35-.53-1.15-1.77-2.31-2.9-3.22-1.14-.95-2.31-1.66-3.25-2.25-1.94-1.2-3.1-1.74-3.1-1.74-.71-.33-1.01-1.17-.68-1.88.28-.59.91-.89,1.51-.79h.04Z"/><path class="cls-1" d="M75.55,76.1s1.42.25,3.78.94c1.17.4,2.61.89,4.22,1.7,1.6.86,3.46,1.88,5.2,4.08.89,1.03,1.6,2.69,1.7,4.55.03.89-.17,1.83-.38,2.71l-.51,1.18-.28.59-.14.3-.3.41-.25.35c-.07.1-.17.25-.38.47-.35.38-.82.85-1.14,1.1-.67.55-1.35.99-2.04,1.39-1.38.72-2.74,1.23-4.1,1.67-5.37,1.69-10.79,2.21-15.83,3.2-2.48.52-4.92,1.02-6.68,1.8-.86.38-1.48.83-1.65,1.04-.17.25-.09.06-.11.35v.02c.02.39-.04-.53-.04-.43v.03s.01.07.01.07l.02.22.05.47.1.93c.01.39.1.39.14.53.05.12.09.23.11.36-.02.2.27.68.39,1.03.13.38.35.76.56,1.14.83,1.54,1.96,3.04,3.14,4.38,2.35,2.72,4.75,4.96,6.43,6.51,1.7,1.6,2.66,2.51,2.66,2.51l.02.02c.59.56.62,1.49.07,2.08-.33.35-.8.5-1.25.45,0,0-1.48-.17-3.87-.93-1.19-.4-2.63-.91-4.21-1.69-1.58-.78-3.36-1.72-5.17-3.09-1.81-1.35-3.72-3.04-5.36-5.41-.43-.58-.84-1.18-1.17-1.9-.35-.74-.73-1.26-1.03-2.26-.15-.46-.29-.93-.42-1.4-.12-.44-.28-1.02-.28-1.25l-.12-.93-.07-.46-.03-.23v-.09s-.04-.48-.04-.48v-.22c-.07-2.22,1.01-4.98,2.64-6.6,1.59-1.67,3.31-2.55,4.88-3.22,3.14-1.23,6.01-1.76,8.82-2.14,5.56-.73,10.9-.98,15.29-1.81,2.17-.47,3.93-1.06,4.6-1.82.64-.75.87-1.2.38-2.35-.52-1.15-1.77-2.31-2.89-3.22-1.14-.95-2.31-1.66-3.26-2.25-1.93-1.2-3.09-1.74-3.09-1.74-.71-.33-1.01-1.17-.69-1.88.28-.59.91-.89,1.52-.79h.03Z"/></svg>