<?xml version="1.0" encoding="UTF-8"?><svg id="Layer_1" xmlns="http://www.w3.org/2000/svg" viewBox="0 0 164.82 131.24"><defs><style>.cls-1{fill:#fefefe;}</style></defs><path class="cls-1" d="M164.82,22.08c0-10.27-8.32-18.58-18.58-18.58s-18.59,8.32-18.59,18.58c0,7.9,4.96,14.64,11.92,17.33-6.09-1.06-12.53,1.44-16.19,6.92l-18.44,27.51c-2.96.85-6.85.99-8.9-.61-2.54-1.97-11.08-6.77-21.12-7.14-10.05-.38-17.13,8.21-17.13,8.21h0c-.29.27-.57.56-.82.87l-29.73,37.39c-3.34,4.2-1.67,11.1,3.75,15.39,5.41,4.3,12.5,4.39,15.84.19l28.43-35.76c16.6,16.9,40.36,12.96,40.36,12.96,12.95-2.67,18.97-7.24,31.93-26.96s3.93-29.84,3.93-29.84h-.02c-1.2-2.6-3.1-4.93-5.67-6.65-.93-.63-1.92-1.15-2.93-1.56,1.1.2,2.22.32,3.38.32,10.26,0,18.58-8.32,18.58-18.58Z"/><polygon class="cls-1" points="82.97 47.91 104 23.95 82.97 0 82.97 13.07 65.52 13.07 65.52 34.85 82.97 34.85 82.97 47.91"/><polygon class="cls-1" points="34.91 82.89 36.97 51.09 27.74 60.32 15.39 47.99 0 63.38 12.35 75.72 3.1 84.96 34.91 82.89"/></svg>