<?xml version="1.0" encoding="UTF-8"?><svg id="Layer_1" xmlns="http://www.w3.org/2000/svg" viewBox="0 0 150.05 101.2"><defs><style>.cls-1{fill:#fab639;}</style></defs><path class="cls-1" d="M120.7,50.6c0-2.79,2.27-5.06,5.06-5.06s5.06,2.27,5.06,5.06-2.27,5.06-5.06,5.06-5.06-2.27-5.06-5.06ZM150.05,19.84V0h-48.57v19.84h18.62v17.13c-3.59,1.5-6.48,4.38-7.98,7.98h-28.66v-26.51h-23.88V4.46h-12.65v39.26h12.65v-13.97h12.55v34.41h-17.81v-12.14h-17.6v12.14h-17.91c-1.83-2.77-4.98-4.59-8.54-4.59-5.66,0-10.26,4.59-10.26,10.25s4.59,10.26,10.26,10.26c3.56,0,6.71-1.83,8.54-4.59h17.91v15.79h17.6v-15.79h29.15v-19.23h28.66c1.5,3.59,4.38,6.48,7.98,7.97v17.13h-18.62v19.84h48.57v-19.84h-18.62v-17.13c5.35-2.22,9.11-7.51,9.11-13.64s-3.76-11.42-9.11-13.64v-17.13h18.62Z"/><path class="cls-1" d="M10.26,34.35c3.56,0,6.71-1.83,8.54-4.59h8.69v13.97h12.66V4.46h-12.66v13.97h-8.69c-1.83-2.77-4.98-4.59-8.54-4.59C4.59,13.83,0,18.42,0,24.09s4.59,10.26,10.26,10.26Z"/></svg>