<?xml version="1.0" encoding="UTF-8"?><svg id="Layer_1" xmlns="http://www.w3.org/2000/svg" viewBox="0 0 161.97 109.72"><defs><style>.cls-1{fill:#fefefe;}</style></defs><path class="cls-1" d="M112.96,98.1l-.18.04c-2.85.74-6.4,1.12-10.57,1.12-22.57,0-24.22-7.9-24.3-8.46V18.93s0-.03,0-.05l.03.16-.02-.2c.22-1.04,2.53-8.37,24.29-8.37,4.17,0,7.72.38,10.58,1.12l.2.04c18.6,4.07,38.52,22.41,38.52,43.23s-19.93,39.17-38.55,43.24ZM115.31,1.42c-3.68-.94-8.08-1.42-13.1-1.42-14.32,0-24.49,2.98-30.22,8.85-4.31,4.43-4.57,8.9-4.56,10.01v71.99c0,1.12.25,5.59,4.56,10,5.73,5.88,15.89,8.86,30.22,8.86,5.01,0,9.41-.48,13.08-1.41,22.47-4.96,46.68-26.77,46.68-53.45S137.77,6.38,115.31,1.42Z"/><path class="cls-1" d="M57.33,81.41c-.33-1.23-1.62-1.98-2.85-1.64l-17.87,4.77-23.25,6.19-11.63,3.11c-1.24.33-1.99,1.61-1.65,2.84l1.09,4.11c.33,1.23,1.61,1.97,2.85,1.64l16.97-4.53,17.16-4.58,18.62-4.97c1.23-.33,1.98-1.61,1.64-2.85l-1.09-4.1Z"/><path class="cls-1" d="M1.17,42.28c.33,1.24,1.61,1.98,2.85,1.65l14.16-3.77,10.24-2.74,28.35-7.56c1.23-.32,1.98-1.61,1.64-2.85l-1.09-4.09c-.33-1.24-1.62-1.99-2.85-1.65l-5.12,1.36-39.74,10.61-7.89,2.1c-1.24.33-1.98,1.62-1.65,2.85l1.09,4.09Z"/><path class="cls-1" d="M57.33,61.91c-.33-1.24-1.62-1.98-2.85-1.64l-7.56,2.01-.46.12-5.87,1.57-21.57,5.74-17.29,4.61c-1.24.33-1.98,1.62-1.65,2.85l1.09,4.09c.33,1.24,1.61,1.98,2.85,1.65l13.3-3.55,14-3.74,25.45-6.78c1.23-.33,1.98-1.61,1.64-2.85l-1.09-4.09Z"/><path class="cls-1" d="M57.33,42.41c-.33-1.24-1.62-1.98-2.85-1.64l-18.02,4.8-11.92,3.18L1.73,54.83c-1.24.33-1.98,1.61-1.65,2.85l1.09,4.09c.33,1.24,1.61,1.98,2.85,1.65l26.76-7.14,14.73-3.93,11.26-3c1.23-.34,1.98-1.62,1.64-2.85l-1.09-4.1Z"/></svg>