<?xml version="1.0" encoding="UTF-8"?><svg id="Layer_1" xmlns="http://www.w3.org/2000/svg" viewBox="0 0 151.03 80.12"><defs><style>.cls-1{fill:#e52a2d;}</style></defs><path class="cls-1" d="M19.07,20.18l-3.3-9.66c-.75-2.2-1.25-4.19-1.75-6.14h-.1c-.5,2-1.05,4.04-1.7,6.08l-3.3,9.72h10.16ZM8,23.57l-3.5,10.56H0L11.46.55h5.25l11.51,33.58h-4.66l-3.6-10.56h-11.96Z"/><polygon class="cls-1" points="29.32 36.12 43.28 0 46.69 0 32.68 36.12 29.32 36.12"/><polygon class="cls-1" points="56.74 4.24 46.49 4.24 46.49 .55 71.46 .55 71.46 4.24 61.16 4.24 61.16 34.13 56.74 34.13 56.74 4.24"/><path class="cls-1" d="M88.47,17.54c0,7.17,3.9,13.6,10.76,13.6s10.81-6.32,10.81-13.95c0-6.67-3.5-13.65-10.76-13.65s-10.81,6.62-10.81,14ZM114.65,16.99c0,11.56-7.06,17.69-15.67,17.69s-15.16-6.88-15.16-17.04c0-10.66,6.66-17.64,15.67-17.64s15.16,7.03,15.16,16.99Z"/><rect class="cls-1" x="120.3" y=".55" width="4.35" height="33.58"/><polygon class="cls-1" points="132.26 .55 136.61 .55 136.61 30.49 151.03 30.49 151.03 34.13 132.26 34.13 132.26 .55"/><polygon class="cls-1" points="27.45 50.23 17.18 50.23 17.18 46.55 42.16 46.55 42.16 50.23 31.85 50.23 31.85 80.12 27.45 80.12 27.45 50.23"/><polygon class="cls-1" points="63.37 64.38 50.27 64.38 50.27 76.49 64.88 76.49 64.88 80.12 45.91 80.12 45.91 46.55 64.13 46.55 64.13 50.19 50.27 50.19 50.27 60.8 63.37 60.8 63.37 64.38"/><path class="cls-1" d="M98.96,65.38c-.25-4.68-.55-10.31-.5-14.5h-.15c-1.15,3.93-2.55,8.12-4.25,12.75l-5.95,16.29h-3.3l-5.45-15.99c-1.6-4.74-2.95-9.07-3.9-13.05h-.1c-.09,4.19-.35,9.82-.64,14.84l-.91,14.39h-4.15l2.35-33.57h5.56l5.76,16.23c1.4,4.14,2.55,7.82,3.4,11.31h.15c.85-3.38,2.05-7.07,3.56-11.31l6.01-16.23h5.56l2.1,33.57h-4.26l-.85-14.74Z"/><path class="cls-1" d="M115.12,63.14c.96.25,2.15.34,3.61.34,5.25,0,8.45-2.54,8.45-7.17s-3.15-6.57-7.95-6.57c-1.91,0-3.35.14-4.11.35v13.05ZM110.76,46.95c2.1-.35,4.85-.65,8.36-.65,4.3,0,7.45,1,9.45,2.79,1.85,1.59,2.96,4.04,2.96,7.03s-.9,5.43-2.6,7.17c-2.3,2.44-6.06,3.69-10.32,3.69-1.3,0-2.5-.05-3.5-.3v13.45h-4.35v-33.17Z"/></svg>