<?xml version="1.0" encoding="UTF-8"?><svg id="Layer_1" xmlns="http://www.w3.org/2000/svg" viewBox="0 0 149.22 148.97"><defs><style>.cls-1{fill:#fab639;}</style></defs><path class="cls-1" d="M61.51,49.55h26.2c1.74,1.31,5.03,6.53,7.57,11.49h-41.34c2.54-4.96,5.83-10.18,7.57-11.49ZM105.7,61.43h-4.64l.04-.09-.5-1.03c-1.54-3.17-6.89-13.66-11.13-15.6l-.51-.24h-28.69l-.51.24c-4.25,1.95-9.6,12.44-11.13,15.6l-.5,1.03.04.09h-4.65c-1.41,0-2.54.99-2.54,2.21v2.35c0,1.22,1.13,2.21,2.54,2.21h1.48c-.14.74-.25,1.51-.25,2.31v10.52c0,3.16,1.26,5.94,3.17,7.66v8.69c0,1.41,1.14,2.54,2.54,2.54h5.73c1.4,0,2.54-1.13,2.54-2.54v-6.88h31.78v6.88c0,1.41,1.14,2.54,2.54,2.54h5.72c1.41,0,2.54-1.13,2.54-2.54v-8.69c1.92-1.72,3.18-4.51,3.18-7.66v-10.52c0-.8-.11-1.57-.25-2.31h1.47c1.41,0,2.54-.99,2.54-2.21v-2.35c0-1.22-1.14-2.21-2.54-2.21Z"/><path class="cls-1" d="M55.92,108.46s1.2.21,3.17.8c1,.33,2.2.75,3.56,1.43,1.34.72,2.9,1.57,4.37,3.42.75.87,1.34,2.27,1.43,3.83.02.75-.14,1.55-.32,2.28l-.43.99-.23.5-.13.25-.25.35-.21.3c-.05.09-.14.2-.32.4-.3.31-.69.72-.96.92-.57.47-1.14.84-1.72,1.17-1.15.61-2.3,1.04-3.44,1.41-4.52,1.42-9.08,1.85-13.32,2.69-2.07.43-4.13.86-5.61,1.51-.72.32-1.24.7-1.38.88-.14.21-.07.04-.09.29v.02c.01.33-.04-.45-.04-.36v.02s0,.05,0,.05l.03.2.04.39.09.78c.01.33.09.33.12.44.04.1.07.2.09.3-.03.17.22.57.32.87.11.32.3.64.48.96.69,1.28,1.64,2.55,2.64,3.67,1.97,2.29,3.99,4.17,5.4,5.48,1.43,1.34,2.24,2.11,2.24,2.11h.02c.49.49.52,1.27.05,1.77-.28.3-.67.42-1.05.38,0,0-1.24-.14-3.25-.79-.99-.33-2.21-.76-3.54-1.41-1.33-.66-2.83-1.46-4.35-2.61-1.52-1.13-3.12-2.55-4.51-4.55-.36-.48-.71-.99-.99-1.59-.3-.62-.62-1.06-.86-1.9-.13-.38-.25-.78-.35-1.17-.1-.38-.23-.86-.24-1.06l-.1-.78-.05-.39-.03-.2v-.08l-.03-.4v-.19c-.05-1.87.85-4.18,2.22-5.55,1.35-1.41,2.79-2.14,4.1-2.7,2.64-1.04,5.05-1.49,7.41-1.8,4.67-.62,9.16-.83,12.87-1.52,1.82-.4,3.3-.9,3.86-1.53.54-.64.72-1.01.32-1.98-.43-.97-1.49-1.94-2.43-2.71-.96-.8-1.94-1.4-2.74-1.89-1.62-1.01-2.6-1.47-2.6-1.47-.59-.27-.85-.98-.58-1.57.24-.5.77-.76,1.28-.67h.02Z"/><path class="cls-1" d="M95.71,108.46s1.19.21,3.18.8c.99.33,2.2.75,3.56,1.43,1.35.72,2.9,1.57,4.37,3.42.75.87,1.35,2.27,1.43,3.83.02.75-.14,1.55-.32,2.28l-.43.99-.23.5-.13.25-.25.35-.21.3c-.05.09-.14.2-.32.4-.3.31-.69.72-.96.92-.56.47-1.13.84-1.71,1.17-1.17.61-2.3,1.04-3.45,1.41-4.52,1.42-9.08,1.85-13.32,2.69-2.08.43-4.14.86-5.61,1.51-.72.32-1.24.7-1.38.88-.14.21-.07.04-.09.29v.02c.01.33-.04-.45-.04-.36v.02s.01.05.01.05v.2s.06.39.06.39l.09.78c.01.33.09.33.12.44.04.1.07.2.09.3-.02.17.23.57.33.87.1.32.29.64.47.96.7,1.28,1.64,2.55,2.64,3.67,1.97,2.29,3.99,4.17,5.4,5.48,1.43,1.34,2.24,2.11,2.24,2.11h.02c.5.49.51,1.27.05,1.77-.28.3-.67.42-1.05.38,0,0-1.24-.14-3.25-.79-.99-.33-2.21-.76-3.54-1.41-1.33-.66-2.83-1.46-4.35-2.61-1.52-1.13-3.12-2.55-4.51-4.55-.36-.48-.71-.99-.99-1.59-.29-.62-.62-1.06-.86-1.9-.14-.38-.25-.78-.35-1.17-.1-.38-.23-.86-.24-1.06l-.1-.78-.05-.39-.02-.2v-.05s0-.03,0-.03l-.03-.4v-.19c-.05-1.87.85-4.18,2.22-5.55,1.35-1.41,2.79-2.14,4.1-2.7,2.64-1.04,5.05-1.49,7.41-1.8,4.67-.62,9.16-.83,12.87-1.52,1.83-.4,3.3-.9,3.86-1.53.54-.64.73-1.01.32-1.98-.43-.97-1.49-1.94-2.43-2.71-.96-.8-1.95-1.4-2.75-1.89-1.63-1.01-2.6-1.47-2.6-1.47-.59-.27-.85-.98-.57-1.57.23-.5.76-.76,1.27-.67h.02Z"/><polygon class="cls-1" points="31.34 75.99 11.58 75.99 74.61 7.51 137.63 75.99 117.88 75.99 117.88 81.08 149.22 81.08 74.61 0 0 81.08 31.34 81.08 31.34 75.99"/></svg>