<?xml version="1.0" encoding="UTF-8"?><svg id="Layer_1" xmlns="http://www.w3.org/2000/svg" viewBox="0 0 190.6 130.75"><defs><style>.cls-1{fill:#fefefe;}</style></defs><path class="cls-1" d="M184.5,42.34s-1.9-4.25-4.25-4.25h-21.87c-2.34,0-4.24,1.91-4.24,4.25v4.11h-5.96v-6.85c0-1.5-1.56-1.36-1.56-1.36h-13.29c0-20.81-10.51-20.74-10.51-20.74h-23.51v-7.07h23.51V0H44.89v10.42h25.63v7.07h-23.59l-14.18,10.84h-11c-2.35,0-4.25,1.9-4.25,4.24v27.22h-7.06v-29.07H0v72.99h10.44v-30.05h7.06v28.19c0,2.34,1.9,4.24,4.25,4.24h11l34.5,24.66h72.2c9.8,0,8.74-8.35,8.74-8.35v-12.68h5.96v9.37c0,2.35,1.9,4.25,4.24,4.25h21.87c2.35,0,4.25-4.25,4.25-4.25l6.1-17.76v-41.22l-6.1-17.76Z"/></svg>