<?xml version="1.0" encoding="UTF-8"?><svg id="Layer_1" xmlns="http://www.w3.org/2000/svg" viewBox="0 0 144.83 65.73"><defs><style>.cls-1{fill:#e52a2d;}</style></defs><path class="cls-1" d="M131.22,23.15h-10.53l-.56-.64c2.95-4.25,6.55-9.31,8.69-11.81,1.54-1.82,2.8-1.9,3.22-1.93,2.06-.14,4.3,1.44,5,2.06,1.77,1.62,4.53,1.51,6.16-.25,1.64-1.77,1.54-4.54-.23-6.19-.51-.49-5.27-4.74-11.41-4.38-2.48.14-6.12,1.13-9.41,4.99-2.03,2.38-5.11,6.64-7.89,10.6l-12.37-14.53h-41.79l-22.36,22.06H13.61c-7.52,0-13.61,6.36-13.61,14.21v2.7c0,7.84,6.09,14.2,13.61,14.2h5.09c1.68,6.59,7.64,11.48,14.75,11.48s13.07-4.88,14.74-11.48h50.7c1.68,6.59,7.63,11.48,14.75,11.48s13.07-4.88,14.74-11.48h2.83c7.52,0,13.61-6.36,13.61-14.2v-2.7c0-7.85-6.09-14.21-13.61-14.21Z"/></svg>