<?xml version="1.0" encoding="UTF-8"?><svg id="Layer_1" xmlns="http://www.w3.org/2000/svg" viewBox="0 0 156.27 82.25"><defs><style>.cls-1{fill:#fefefe;}</style></defs><path class="cls-1" d="M78.11,26.09c-13.86,0-25.53-6.68-26.88-14.87h53.8c-1.35,8.19-13.07,14.87-26.93,14.87ZM0,0v11.22h39.84c1.06,14.76,17.45,26.09,38.27,26.09s37.26-11.33,38.33-26.09h39.83V0H0Z"/><rect class="cls-1" x="72.52" y="48.86" width="11.22" height="33.38"/><polygon class="cls-1" points="99.11 45.94 123 69.54 130.9 61.57 107 37.96 99.11 45.94"/><rect class="cls-1" x="131.97" y="18.34" width="11.23" height="33.68" transform="translate(35.43 133.82) rotate(-58.34)"/><polygon class="cls-1" points="25.37 61.02 33.26 69 57.14 45.39 49.26 37.41 25.37 61.02"/><rect class="cls-1" x="1.83" y="29.02" width="33.67" height="11.23" transform="translate(-15.4 14.96) rotate(-31.67)"/></svg>