<?xml version="1.0" encoding="UTF-8"?><svg id="Layer_1" xmlns="http://www.w3.org/2000/svg" viewBox="0 0 90.13 100.26"><defs><style>.cls-1{fill:#fab639;}</style></defs><path class="cls-1" d="M53.41,41.26H8.69V8.6h4.14v-.04h36.42v.04h4.17v32.66ZM84.22,16.81C75.51,5.3,56.55-2.96,61.23,1.47c12,11.31,19.33,22.09,19.85,24.54.59,2.68-2.35,7.1.86,8.49.09.03.14.06.22.09.06,7.2,0,30.08-.06,45.97-.03.7-.58,7.96-6.41,7.96s-6.38-7.28-6.41-7.96v-25.87c0-5.18-1.47-9.18-4.33-11.87-1.91-1.8-4.11-2.64-5.88-3.04V5.61c0-3.1-2.53-5.61-5.61-5.61H8.64C5.53,0,3.03,2.51,3.03,5.61v88.97H0v5.68h62.1v-5.68h-3.02v-49.87c.85.31,1.77.8,2.61,1.58,1.88,1.76,2.83,4.59,2.83,8.4v26.04c.2,4.35,2.77,12.56,11.19,12.56s10.99-8.22,11.18-12.56v-.1s.03-12.07.06-24.17c0-6.05.03-12.1,0-16.65,0-2.68,0-4.51-.03-5.78.75-.51,1.33-1.14,1.75-1.68,1.05-1.44,4.3-4.03-4.45-15.52Z"/></svg>