<?xml version="1.0" encoding="UTF-8"?><svg id="Layer_1" xmlns="http://www.w3.org/2000/svg" viewBox="0 0 77.2 112.44"><defs><style>.cls-1{fill:#fab639;}</style></defs><path class="cls-1" d="M67.77,77.92c-2.92,0-5.28,2.37-5.28,5.28v7.28h-9.78v9.4h9.78v7.28c0,2.92,2.36,5.28,5.28,5.28s5.29-2.36,5.29-5.28v-23.96c0-2.91-2.37-5.28-5.29-5.28Z"/><path class="cls-1" d="M74.33.59c-2.59-1.33-5.78-.31-7.11,2.28l-4.3,8.37H19.12l1.82-3.54c1.33-2.59.31-5.78-2.28-7.11s-5.78-.31-7.11,2.28L.59,24.17c-1.33,2.6-.31,5.78,2.28,7.12,2.59,1.33,5.78.31,7.12-2.28l4.3-8.37h20.43v60.7h7.78V20.63h15.59l-1.82,3.54c-1.34,2.6-.32,5.78,2.28,7.12,2.59,1.33,5.78.31,7.11-2.28l10.96-21.31c1.33-2.59.31-5.78-2.29-7.11Z"/><polygon class="cls-1" points="52.71 84.95 49.08 81.33 38.6 91.81 28.12 81.33 24.49 84.95 34.97 95.44 24.49 105.91 28.12 109.55 38.6 99.07 49.08 109.55 52.71 105.91 42.23 95.44 52.71 84.95"/><path class="cls-1" d="M24.49,99.88v-9.4h-9.78v-7.28c0-2.91-2.36-5.28-5.27-5.28s-5.29,2.37-5.29,5.28v23.96c0,2.92,2.36,5.28,5.29,5.28s5.27-2.36,5.27-5.28v-7.28h9.78Z"/></svg>