<?xml version="1.0" encoding="UTF-8"?><svg id="Layer_1" xmlns="http://www.w3.org/2000/svg" viewBox="0 0 142.93 55.12"><defs><style>.cls-1{fill:#e52a2d;}</style></defs><path class="cls-1" d="M25.56,30.79l-4.43-14.75c-1.01-3.35-1.67-6.38-2.35-9.35h-.2c-.6,3.04-1.34,6.16-2.21,9.28l-4.43,14.82h13.61ZM10.74,35.96l-4.63,16.12H0L15.43.83h6.98l15.43,51.25h-6.24l-4.83-16.12H10.74Z"/><polygon class="cls-1" points="39.31 55.12 58.02 0 62.58 0 43.8 55.12 39.31 55.12"/><polygon class="cls-1" points="76.06 6.46 62.31 6.46 62.31 .83 95.78 .83 95.78 6.46 81.96 6.46 81.96 52.08 76.06 52.08 76.06 6.46"/><path class="cls-1" d="M120.93,26.38c.94.3,2.89.46,4.83.46,7.04,0,11.34-3.96,11.34-10.95s-4.23-10.19-10.67-10.19c-2.61,0-4.49.23-5.5.46v20.23ZM115.03,1.44c2.82-.53,6.64-.99,11.27-.99,5.77,0,10,1.52,12.68,4.25,2.41,2.43,3.96,6.17,3.96,10.8s-1.21,8.36-3.48,11.02c-3.09,3.73-8.12,5.63-13.68,5.63-1.88,0-3.62-.15-4.83-.38v20.3h-5.9V1.44Z"/></svg>