<?xml version="1.0" encoding="UTF-8"?><svg id="Layer_1" xmlns="http://www.w3.org/2000/svg" viewBox="0 0 123.27 124.04"><defs><style>.cls-1{fill:#fefefe;}</style></defs><path class="cls-1" d="M82.8,45.97h-42.32l-4.17-13.32h50.65l-4.17,13.32ZM86.96,86.27h-4.17v-32.22h4.17v32.22ZM36.31,107.8l4.17-13.32h42.32l4.17,13.32h-50.65ZM36.31,54.05h4.17v32.22h-4.17v-32.22ZM122.12,76.21l-19.04-19.05c-.59-.59-1.37-.94-2.2-1.07V14.27c0-7.88-6.39-14.27-14.26-14.27h-49.94c-7.87,0-14.26,6.39-14.26,14.27v41.82c-.83.13-1.61.48-2.2,1.07L1.15,76.21c-1.77,1.77-1.47,4.96.69,7.12,2.16,2.16,5.34,2.46,7.11.69l13.44-13.44v39.19c0,7.87,6.39,14.26,14.26,14.26h49.94c7.87,0,14.26-6.39,14.26-14.26v-39.19l13.44,13.44c1.77,1.77,4.96,1.47,7.11-.69,2.16-2.16,2.46-5.35.69-7.12Z"/></svg>