<?xml version="1.0" encoding="UTF-8"?><svg id="Layer_1" xmlns="http://www.w3.org/2000/svg" viewBox="0 0 102.64 91.32"><defs><style>.cls-1{fill:#fab639;}</style></defs><path class="cls-1" d="M23.28,23.12v-12.42c0-1.95.07-3.89.19-5.84h-.19c-1.24,2.17-2.23,3.78-3.35,5.49l-9.87,12.65v.12h13.23ZM23.28,37.19v-10.13H4.53v-3.33L22.54,0h5.9v23.12h5.65v3.95h-5.65v10.13h-5.16Z"/><path class="cls-1" d="M42.54,9.5l4.29,5.95c1.12,1.55,2.04,2.98,3.04,4.52h.19c.99-1.66,1.98-3.09,2.98-4.58l4.22-5.89h5.9l-10.25,13.39,10.56,14.31h-6.22l-4.41-6.24c-1.18-1.6-2.17-3.14-3.22-4.81h-.13c-.99,1.67-2.04,3.15-3.17,4.81l-4.35,6.24h-6.02l10.69-14.13-10.19-13.56h6.09Z"/><path class="cls-1" d="M83.92,23.12v-12.42c0-1.95.07-3.89.19-5.84h-.19c-1.24,2.17-2.23,3.78-3.35,5.49l-9.87,12.65v.12h13.23ZM83.92,37.19v-10.13h-18.76v-3.33L83.18,0h5.9v23.12h5.65v3.95h-5.65v10.13h-5.16Z"/><polygon class="cls-1" points="4.38 52.42 4.38 68.53 20.8 68.53 20.8 52.42 25.23 52.42 25.23 90.92 20.8 90.92 20.8 72.87 4.38 72.87 4.38 90.92 0 90.92 0 52.42 4.38 52.42"/><rect class="cls-1" x="32.84" y="52.43" width="4.38" height="38.49"/><path class="cls-1" d="M70.71,89.2c-1.96.8-5.85,2.12-10.42,2.12-5.14,0-9.37-1.48-12.69-5.09-2.92-3.2-4.74-8.34-4.74-14.34.05-11.48,7-19.88,18.39-19.88,3.93,0,7,.97,8.46,1.78l-1.06,4.06c-1.81-.92-4.08-1.66-7.5-1.66-8.26,0-13.65,5.82-13.65,15.47s5.19,15.54,13.09,15.54c2.88,0,4.84-.46,5.85-1.03v-11.48h-6.9v-4h11.18v18.5Z"/><polygon class="cls-1" points="81.79 52.42 81.79 68.53 98.21 68.53 98.21 52.42 102.64 52.42 102.64 90.92 98.21 90.92 98.21 72.87 81.79 72.87 81.79 90.92 77.4 90.92 77.4 52.42 81.79 52.42"/></svg>