<?xml version="1.0" encoding="UTF-8"?><svg id="Layer_1" xmlns="http://www.w3.org/2000/svg" viewBox="0 0 128.9 93.24"><defs><style>.cls-1{fill:#149459;}</style></defs><polygon class="cls-1" points="27.65 23.86 6.89 23.86 6.89 39.56 30.03 39.56 30.03 44.29 0 44.29 0 .71 28.84 .71 28.84 5.43 6.89 5.43 6.89 19.2 27.65 19.2 27.65 23.86"/><path class="cls-1" d="M76.3,42.87c-2.54,1.03-7.61,2.06-14.1,2.06-15.06,0-26.39-7.76-26.39-22.04S47.14,0,63.7,0c6.66,0,10.86,1.17,12.68,1.94l-1.67,4.59c-2.61-1.03-6.33-1.81-10.77-1.81-12.52,0-20.83,6.53-20.83,17.97,0,10.67,7.53,17.52,20.52,17.52,4.2,0,8.48-.72,11.26-1.81l1.42,4.46Z"/><path class="cls-1" d="M87.47,22.75c0,9.31,6.18,17.65,17.03,17.65s17.11-8.21,17.11-18.1c0-8.66-5.54-17.71-17.03-17.71s-17.11,8.6-17.11,18.16ZM128.9,22.04c0,15-11.17,22.95-24.8,22.95s-24-8.93-24-22.11c0-13.84,10.53-22.89,24.8-22.89s24,9.11,24,22.04Z"/><path class="cls-1" d="M33.05,77.44c-.23-4.84-.5-10.66-.46-14.97h-.14c-1.04,4.06-2.32,8.39-3.85,13.18l-5.4,16.83h-3l-4.95-16.52c-1.45-4.89-2.68-9.37-3.54-13.48h-.09c-.09,4.32-.32,10.14-.59,15.34l-.82,14.87h-3.77l2.14-34.69h5.03l5.22,16.79c1.27,4.27,2.32,8.08,3.09,11.69h.14c.78-3.51,1.86-7.31,3.22-11.69l5.45-16.79h5.03l1.91,34.69h-3.86l-.77-15.24Z"/><path class="cls-1" d="M46.16,75.53c0,7.41,3.54,14.05,9.76,14.05s9.81-6.53,9.81-14.41c0-6.9-3.18-14.1-9.76-14.1s-9.81,6.85-9.81,14.46ZM69.91,74.97c0,11.95-6.4,18.28-14.21,18.28s-13.76-7.11-13.76-17.6c0-11.02,6.03-18.23,14.21-18.23s13.76,7.26,13.76,17.55Z"/><path class="cls-1" d="M78.98,89.12c1,.21,2.46.26,4,.26,8.45,0,13.03-5.35,13.03-14.72.05-8.19-4.04-13.39-12.39-13.39-2.04,0-3.59.2-4.64.46v27.38ZM75.03,58.44c2.41-.41,5.27-.72,8.4-.72,5.68,0,9.72,1.49,12.39,4.32,2.72,2.83,4.31,6.85,4.31,12.45s-1.54,10.29-4.4,13.49c-2.85,3.24-7.58,4.99-13.52,4.99-2.81,0-5.17-.15-7.17-.41v-34.13Z"/><polygon class="cls-1" points="121.1 76.41 109.21 76.41 109.21 88.92 122.46 88.92 122.46 92.67 105.26 92.67 105.26 57.98 121.78 57.98 121.78 61.74 109.21 61.74 109.21 72.7 121.1 72.7 121.1 76.41"/></svg>