<?xml version="1.0" encoding="UTF-8"?><svg id="Layer_1" xmlns="http://www.w3.org/2000/svg" viewBox="0 0 148.01 129.1"><defs><style>.cls-1{fill:#fefefe;}</style></defs><polygon class="cls-1" points="54.51 110.98 148.01 17.47 130.53 0 37.05 93.5 54.51 110.98"/><polygon class="cls-1" points="45.45 120.03 49.98 115.5 32.51 98.02 27.97 102.55 45.45 120.03"/><polygon class="cls-1" points="36.39 129.1 40.92 124.56 23.44 107.09 18.91 111.62 36.39 129.1"/><path class="cls-1" d="M29.91,94.24c0-4.59-2.1-7.06-3.64-8.87-1.29-1.52-2.07-2.44-2.07-4.59s.78-3.06,2.07-4.58c1.54-1.81,3.64-4.3,3.64-8.88s-2.1-7.06-3.64-8.87c-1.29-1.51-2.07-2.44-2.07-4.59s.78-3.06,2.07-4.58c1.54-1.82,3.64-4.3,3.64-8.88s-2.1-7.07-3.64-8.89c-1.29-1.51-2.07-2.44-2.07-4.59h-6.63c0,4.59,2.1,7.07,3.64,8.88,1.29,1.52,2.06,2.44,2.06,4.59s-.77,3.06-2.06,4.59c-1.54,1.81-3.64,4.3-3.64,8.87s2.1,7.07,3.64,8.88c1.29,1.51,2.06,2.43,2.06,4.58s-.77,3.06-2.06,4.59c-1.54,1.81-3.64,4.3-3.64,8.87s2.1,7.06,3.64,8.88c1.29,1.52,2.06,2.43,2.06,4.58h6.64Z"/><path class="cls-1" d="M12.34,97.37c0-4.59-2.1-7.06-3.64-8.87-1.29-1.52-2.06-2.43-2.06-4.58s.78-3.06,2.06-4.59c1.54-1.81,3.64-4.3,3.64-8.87s-2.1-7.07-3.64-8.88c-1.29-1.51-2.06-2.43-2.06-4.58s.78-3.07,2.06-4.59c1.54-1.82,3.64-4.3,3.64-8.89s-2.1-7.06-3.64-8.87c-1.29-1.53-2.06-2.44-2.06-4.59H0c0,4.59,2.1,7.06,3.64,8.88,1.29,1.52,2.06,2.43,2.06,4.58s-.78,3.07-2.06,4.59c-1.54,1.81-3.64,4.3-3.64,8.89s2.1,7.06,3.64,8.87c1.29,1.52,2.06,2.43,2.06,4.59s-.78,3.06-2.06,4.58c-1.54,1.81-3.64,4.3-3.64,8.87s2.1,7.08,3.64,8.89c1.29,1.51,2.06,2.43,2.06,4.58h6.64Z"/></svg>