<?xml version="1.0" encoding="UTF-8"?><svg id="Layer_1" xmlns="http://www.w3.org/2000/svg" viewBox="0 0 166 134.34"><defs><style>.cls-1{fill:#fefefe;}</style></defs><path class="cls-1" d="M83,116.55c9.16,0,17.98,2.97,25.23,8.43l48.22-52.99c-20.52-17.42-46.44-26.96-73.45-26.96s-52.93,9.54-73.44,26.96l48.22,52.99c7.25-5.46,16.07-8.43,25.22-8.43ZM108.62,134.34c-.95,0-1.9-.33-2.65-1.02-6.3-5.73-14.44-8.88-22.96-8.88s-16.66,3.15-22.96,8.88c-1.61,1.46-4.11,1.35-5.57-.27L1.03,74.32c-.7-.78-1.08-1.8-1.03-2.84.06-1.04.52-2.03,1.29-2.73,22.4-20.39,51.42-31.61,81.71-31.61s59.31,11.22,81.71,31.61c.77.7,1.23,1.69,1.28,2.73.05,1.04-.32,2.06-1.02,2.84l-53.44,58.73c-.78.86-1.85,1.29-2.92,1.29Z"/><path class="cls-1" d="M46.63,5.11l4.83,6.23c2.96-2.3,6.9-3.46,11.74-3.46,1.14,0,2.23.1,3.25.3l1.52-7.74c-1.51-.3-3.11-.45-4.77-.45-6.63,0-12.21,1.72-16.57,5.11Z"/><path class="cls-1" d="M41.22,11.13c-4.17,6.64-4.8,14.45-4.8,18.5,0,1.4.08,2.28.09,2.38l7.85-.7s-.06-.64-.06-1.67c0-2.59.35-9.16,3.59-14.31l-6.68-4.19Z"/><path class="cls-1" d="M86.93,30.14v-.21l-3.93.11-3.92-.11c0,.08,0,.14-.01.21h-.01v9.67s7.89,0,7.89,0v-8.14s0-.09,0-.16h.01s-.01-.21-.01-.51c0-.23,0-.52.01-.86h-.02Z"/><path class="cls-1" d="M83,12.54c-1.86-3.77-4.34-6.77-7.37-8.87l-4.5,6.48c4.56,3.17,6.48,9.28,7.29,13.84l4.58-.81,4.58.81c.81-4.56,2.74-10.68,7.3-13.84l-4.5-6.48c-3.04,2.11-5.51,5.11-7.37,8.87Z"/><path class="cls-1" d="M124.79,11.13l-6.68,4.19c3.24,5.15,3.59,11.72,3.59,14.31,0,1.04-.05,1.67-.05,1.67l7.85.7c0-.09.09-.98.09-2.38,0-4.06-.62-11.86-4.8-18.5Z"/><path class="cls-1" d="M102.8,0c-1.64,0-3.25.15-4.77.45l1.53,7.74c1.01-.2,2.11-.3,3.24-.3,4.85,0,8.79,1.17,11.75,3.46l4.83-6.23c-4.37-3.39-9.95-5.11-16.58-5.11Z"/><rect class="cls-1" x="79.06" y="46.35" width="7.88" height="18.54"/><rect class="cls-1" x="79.06" y="71.43" width="7.88" height="18.54"/><rect class="cls-1" x="79.06" y="96.51" width="7.88" height="9.57"/></svg>