<?xml version="1.0" encoding="UTF-8"?><svg id="Layer_1" xmlns="http://www.w3.org/2000/svg" viewBox="0 0 144.83 64.64"><defs><style>.cls-1{fill:#e52a2d;}</style></defs><path class="cls-1" d="M131.22,22.06h-10.53L101.9,0h-41.8l-20.63,20.36L20.13,3.67C14.23-1.4,7.06.91,4.09,2.85c-1.62,1.06-2.08,3.22-1.02,4.85,1.05,1.62,3.22,2.08,4.85,1.02.04-.03,4.22-2.69,7.64.27l15.17,13.08H13.6c-7.52,0-13.6,6.36-13.6,14.21v2.7c0,7.85,6.09,14.2,13.6,14.2h5.1c1.67,6.59,7.63,11.48,14.74,11.48s13.08-4.88,14.75-11.48h50.7c1.67,6.59,7.63,11.48,14.74,11.48s13.07-4.88,14.74-11.48h2.84c7.51,0,13.6-6.35,13.6-14.2v-2.7c0-7.85-6.09-14.21-13.6-14.21Z"/></svg>