<?xml version="1.0" encoding="UTF-8"?><svg id="Layer_1" xmlns="http://www.w3.org/2000/svg" viewBox="0 0 140.27 111.69"><defs><style>.cls-1{fill:#e52a2d;}</style></defs><path class="cls-1" d="M75.19,69.41c0,2.33-1.59,4.23-3.56,4.23h-3.23c-1.96,0-3.56-1.9-3.56-4.23V25.08c0-2.34,1.59-4.24,3.56-4.24h3.23c1.96,0,3.56,1.9,3.56,4.24v44.33Z"/><path class="cls-1" d="M75.31,86.62c0,2.33-1.59,4.23-3.56,4.23h-3.34c-1.96,0-3.56-1.9-3.56-4.23v-3.98c0-2.33,1.59-4.23,3.56-4.23h3.34c1.97,0,3.56,1.9,3.56,4.23v3.98Z"/><path class="cls-1" d="M70.13,97.5c-22.96,0-41.65-18.68-41.65-41.65S47.17,14.2,70.13,14.2s41.65,18.68,41.65,41.66-18.68,41.65-41.65,41.65ZM70.13,4.57c-28.27,0-51.27,23-51.27,51.28s23,51.28,51.27,51.28,51.28-23,51.28-51.28S98.41,4.57,70.13,4.57Z"/><path class="cls-1" d="M30.94,103.03c-.87-.66-21.31-16.5-21.31-47.18S30.07,9.32,30.94,8.66c2.12-1.59,2.55-4.61.96-6.73-1.59-2.13-4.61-2.56-6.74-.97C24.14,1.74,0,20.2,0,55.85s24.14,54.12,25.16,54.88c.87.64,1.88.96,2.88.96,1.46,0,2.9-.67,3.85-1.92,1.59-2.12,1.17-5.14-.95-6.74Z"/><path class="cls-1" d="M115.1.96c-2.12-1.59-5.13-1.15-6.72.96-1.59,2.12-1.17,5.14.94,6.74.88.66,21.31,16.5,21.31,47.18s-20.44,46.53-21.31,47.19c-2.12,1.59-2.55,4.61-.96,6.73.95,1.26,2.39,1.93,3.85,1.93,1.01,0,2.02-.31,2.88-.96,1.03-.77,25.17-19.24,25.17-54.89S116.13,1.74,115.1.96Z"/></svg>