<?xml version="1.0" encoding="UTF-8"?><svg id="Layer_1" xmlns="http://www.w3.org/2000/svg" viewBox="0 0 125.89 85.28"><defs><style>.cls-1{fill:#fefefe;}</style></defs><path class="cls-1" d="M87.78,76.25l-.14.04c-2.22.57-4.97.86-8.22.86-17.55,0-18.82-6.14-18.88-6.57V14.68l.03.12-.03-.15c.17-.8,1.97-6.51,18.88-6.51,3.25,0,6.02.29,8.22.86l.17.03c14.47,3.17,29.93,17.42,29.93,33.61s-15.49,30.45-29.95,33.61ZM89.61,1.1c-2.86-.73-6.3-1.1-10.19-1.1-11.13,0-19.02,2.32-23.49,6.88-3.33,3.43-3.56,6.92-3.56,7.78v55.96c0,.85.22,4.34,3.56,7.77,4.47,4.57,12.35,6.88,23.49,6.88,3.88,0,7.32-.37,10.19-1.1,17.46-3.85,36.28-20.8,36.28-41.54S107.07,4.96,89.61,1.1Z"/><path class="cls-1" d="M44.56,63.27c-.28-.96-1.25-1.54-2.22-1.28l-13.88,3.71-18.07,4.82-9.05,2.41c-.97.26-1.53,1.25-1.27,2.22l.83,3.18c.28.96,1.27,1.54,2.22,1.28l13.21-3.52,13.33-3.55,14.46-3.87c.97-.25,1.56-1.25,1.28-2.21l-.83-3.19Z"/><path class="cls-1" d="M.89,32.86c.28.96,1.27,1.54,2.22,1.28l11.03-2.93,7.96-2.12,22.01-5.88c.97-.26,1.56-1.25,1.28-2.22l-.83-3.19c-.28-.96-1.25-1.54-2.22-1.28l-3.97,1.06L7.47,25.83l-6.14,1.64c-.97.25-1.53,1.25-1.27,2.22l.83,3.18Z"/><path class="cls-1" d="M44.56,48.12c-.28-.96-1.25-1.54-2.22-1.28l-5.88,1.56-.36.09-4.56,1.22-16.76,4.47-13.44,3.59c-.97.26-1.53,1.25-1.27,2.22l.83,3.18c.28.96,1.27,1.54,2.22,1.28l10.36-2.76,10.88-2.9,19.76-5.27c.97-.26,1.56-1.25,1.28-2.22l-.83-3.19Z"/><path class="cls-1" d="M44.56,32.96c-.28-.96-1.25-1.54-2.22-1.28l-14.02,3.73-9.24,2.47L1.34,42.62c-.97.25-1.53,1.25-1.27,2.21l.83,3.19c.28.96,1.27,1.54,2.22,1.28l20.8-5.55,11.46-3.05,8.74-2.33c.97-.26,1.56-1.25,1.28-2.22l-.83-3.19Z"/></svg>