<?xml version="1.0" encoding="UTF-8"?><svg id="Layer_1" xmlns="http://www.w3.org/2000/svg" viewBox="0 0 113.08 49.96"><defs><style>.cls-1{fill:#fefefe;}</style></defs><rect class="cls-1" y="27.42" width="14.65" height="4.67"/><path class="cls-1" d="M24.92,25.27c0,10.34,4.62,19.6,12.76,19.6s12.81-9.11,12.81-20.1c0-9.62-4.15-19.67-12.75-19.67s-12.81,9.54-12.81,20.17ZM55.95,24.48c0,16.66-8.37,25.48-18.57,25.48s-17.97-9.9-17.97-24.54C19.4,10.05,27.29,0,37.97,0s17.98,10.12,17.98,24.48Z"/><polygon class="cls-1" points="62.65 .79 84.18 .79 84.18 6.03 67.81 6.03 67.81 22.11 82.94 22.11 82.94 27.28 67.81 27.28 67.81 49.17 62.65 49.17 62.65 .79"/><polygon class="cls-1" points="91.54 .79 113.08 .79 113.08 6.03 96.7 6.03 96.7 22.11 111.84 22.11 111.84 27.28 96.7 27.28 96.7 49.17 91.54 49.17 91.54 .79"/></svg>