<?xml version="1.0" encoding="UTF-8"?><svg id="Layer_1" xmlns="http://www.w3.org/2000/svg" viewBox="0 0 195.35 92.18"><defs><style>.cls-1{fill:#fefefe;}</style></defs><path class="cls-1" d="M186.34,54.64c0,7.59-5.83,13.77-13,13.77h-7.15l-.86,3.39c-1.7,6.69-7.71,11.37-14.6,11.37s-12.9-4.67-14.6-11.37l-.86-3.39H63.02l-.87,3.39c-1.7,6.69-7.71,11.37-14.6,11.37s-12.9-4.67-14.6-11.37l-.86-3.39h-10.06c-7.17,0-13-6.18-13-13.77v-3.48c0-7.59,5.83-13.76,13-13.76h32.9l.07-.07,19.19,11.63-8.58-.38c-2.51-.11-4.6,1.81-4.71,4.3-.11,2.48,1.81,4.59,4.3,4.71l26.2,1.18h.21c.08,0,.16-.01.24-.02.21-.01.42-.01.62-.06.25-.05.5-.13.75-.22.02-.01.05-.01.08-.03.27-.11.53-.25.77-.4.04-.03.08-.07.12-.1.2-.14.38-.28.55-.45.01,0,.02-.01.03-.02.17-.17.32-.34.46-.53.03-.04.05-.07.07-.1.14-.2.27-.41.37-.63.04-.09.07-.18.11-.26.06-.17.12-.33.17-.5.02-.1.04-.2.07-.3.04-.17.06-.34.07-.52,0-.05.03-.09.03-.15,0-.05,0-.1,0-.14,0-.19-.01-.38-.04-.57,0-.09-.01-.18-.04-.28-.04-.21-.09-.42-.15-.63-.02-.05-.04-.11-.05-.17-.09-.24-.2-.47-.34-.7l-.04-.07-13.21-22.46c-1.27-2.14-4.03-2.87-6.17-1.6-2.14,1.26-2.86,4.02-1.6,6.17l4.19,7.12-17.05-10.34,22.09-21.79h49.85l24.17,28.38h15.63c7.17,0,13,6.17,13,13.76v3.48ZM173.34,28.38h-11.47L137.69,0h-57.71l-26.33,25.99L13.75,1.79c-2.13-1.3-4.9-.61-6.19,1.51-1.29,2.13-.61,4.9,1.51,6.19l31.16,18.89h-18.22C9.87,28.38,0,38.6,0,51.16v3.48c0,12.56,9.87,22.78,22.02,22.78h3.33c3.71,8.85,12.39,14.77,22.2,14.77s18.5-5.93,22.2-14.77h58.77c3.7,8.85,12.39,14.77,22.2,14.77s18.49-5.93,22.2-14.77h.42c12.13,0,22.01-10.21,22.01-22.78v-3.48c0-12.56-9.88-22.78-22.01-22.78Z"/></svg>