<?xml version="1.0" encoding="UTF-8"?><svg id="Layer_1" xmlns="http://www.w3.org/2000/svg" viewBox="0 0 111.42 101.83"><defs><style>.cls-1{fill:#e52a2d;}</style></defs><path class="cls-1" d="M104.71,83.31c0,5.34-3.58,9.85-8.44,11.31v-53.95c4.86,1.46,8.44,5.97,8.44,11.3v31.34ZM89.55,95.11h-52.41v-54.93h20.4v15.67c0,2.84,2.3,5.14,5.17,5.14s5.11-2.3,5.11-5.14v-15.67h21.74v54.93ZM30.4,94.62c-4.86-1.46-8.42-5.97-8.42-11.31v-31.34c0-5.33,3.56-9.85,8.42-11.3v53.95ZM15.23,73.89H6.74v-10.94h8.49v10.94ZM92.91,33.45h-25.09V5.14c0-2.84-2.27-5.14-5.11-5.14s-5.17,2.3-5.17,5.14v28.3h-23.76c-10.21,0-18.54,8.31-18.54,18.52v4.25H6.24c-3.44,0-6.24,2.8-6.24,6.24v11.9c0,3.45,2.8,6.25,6.24,6.25h8.99v2.7c0,10.21,8.33,18.52,18.54,18.52h59.13c10.22,0,18.52-8.31,18.52-18.52v-31.34c0-10.21-8.29-18.52-18.52-18.52Z"/><path class="cls-1" d="M62.68,64.8c-2.83,0-5.11,2.29-5.11,5.12s2.27,5.13,5.11,5.13,5.14-2.3,5.14-5.13-2.3-5.12-5.14-5.12Z"/></svg>