<?xml version="1.0" encoding="UTF-8"?><svg id="Layer_1" xmlns="http://www.w3.org/2000/svg" viewBox="0 0 127.03 106.41"><defs><style>.cls-1{fill:#fab639;}</style></defs><path class="cls-1" d="M70.47,57.73c0,1.96-1.59,3.54-3.54,3.54h-5.09c-1.95,0-3.53-1.58-3.53-3.54V14.66c0-1.95,1.58-3.54,3.53-3.54h5.09c1.95,0,3.54,1.59,3.54,3.54v43.07Z"/><rect class="cls-1" x="58.32" y="68.04" width="12.15" height="12.15" rx="3.54" ry="3.54"/><path class="cls-1" d="M104.25.87c-1.93-1.44-4.65-1.04-6.09.87-1.45,1.93-1.06,4.66.85,6.11.79.59,19.31,14.94,19.31,42.73s-18.51,42.13-19.31,42.73c-.23.17-.43.37-.62.57H28.64c-.19-.2-.39-.4-.62-.57-.78-.59-19.3-14.94-19.3-42.73S27.23,8.44,28.02,7.85c1.92-1.45,2.31-4.17.87-6.1-1.44-1.93-4.17-2.32-6.1-.88C21.86,1.56,0,18.29,0,50.58s21.86,49.01,22.79,49.7c.78.59,1.7.87,2.6.87h1.3c.08.14.15.27.21.38,1.06,1.94,2.66,4.88,6.12,4.88s5.06-2.93,6.12-4.88c.07-.11.14-.24.21-.38h2.61c.07.14.14.27.21.38,1.05,1.94,2.65,4.88,6.12,4.88s5.06-2.93,6.12-4.88c.06-.11.13-.24.21-.38h2.6c.08.14.14.27.21.38,1.06,1.94,2.65,4.88,6.12,4.88s5.07-2.93,6.13-4.88c.06-.11.13-.24.21-.38h2.6c.08.14.15.27.21.38,1.06,1.94,2.66,4.88,6.13,4.88s5.06-2.93,6.12-4.88c.07-.11.13-.24.21-.38h2.61c.07.14.14.27.21.38,1.06,1.94,2.66,4.88,6.13,4.88s5.06-2.93,6.12-4.88c.07-.11.14-.24.21-.38h1.3c.88-.04,1.75-.31,2.5-.87.93-.7,22.78-17.42,22.78-49.71S105.18,1.56,104.25.87Z"/></svg>