<?xml version="1.0" encoding="UTF-8"?><svg id="Layer_1" xmlns="http://www.w3.org/2000/svg" viewBox="0 0 114.23 102.85"><defs><style>.cls-1{fill:#fefefe;}</style></defs><path class="cls-1" d="M16.19,7.87c-4.59,0-8.32,3.73-8.32,8.32v42.02c0,4.59,3.73,8.32,8.32,8.32h81.84c4.58,0,8.32-3.73,8.32-8.32V16.19c0-4.59-3.74-8.32-8.32-8.32H16.19ZM98.04,74.4H16.19c-8.93,0-16.19-7.26-16.19-16.19V16.19C0,7.27,7.26,0,16.19,0h81.84c8.92,0,16.19,7.27,16.19,16.19v42.02c0,8.93-7.27,16.19-16.19,16.19Z"/><path class="cls-1" d="M91.23,102.85c-2.17,0-3.94-1.76-3.94-3.94,0-3.23-1.19-4.65-2.99-6.8-2.15-2.57-4.84-5.77-4.84-11.87s2.68-9.3,4.84-11.87c1.8-2.14,2.99-3.57,2.99-6.81s-1.19-4.64-2.99-6.8c-2.15-2.57-4.84-5.77-4.84-11.87,0-2.17,1.76-3.93,3.93-3.93s3.94,1.76,3.94,3.93c0,3.24,1.2,4.66,3,6.81,2.16,2.56,4.84,5.77,4.84,11.86s-2.68,9.3-4.84,11.87c-1.8,2.15-3,3.57-3,6.81s1.2,4.65,3,6.8c2.16,2.56,4.84,5.77,4.84,11.87,0,2.18-1.76,3.94-3.94,3.94Z"/><path class="cls-1" d="M65.49,102.85c-2.17,0-3.93-1.76-3.93-3.94,0-3.23-1.2-4.65-3-6.8-2.16-2.57-4.84-5.77-4.84-11.87s2.68-9.3,4.84-11.87c1.8-2.14,3-3.57,3-6.81s-1.2-4.64-3-6.8c-2.16-2.57-4.84-5.77-4.84-11.87,0-2.17,1.76-3.93,3.94-3.93s3.93,1.76,3.93,3.93c0,3.24,1.2,4.66,3,6.81,2.15,2.56,4.84,5.77,4.84,11.86s-2.69,9.3-4.84,11.87c-1.8,2.15-3,3.57-3,6.81s1.2,4.65,3,6.8c2.15,2.56,4.84,5.77,4.84,11.87,0,2.18-1.76,3.94-3.94,3.94Z"/><path class="cls-1" d="M39.2,102.85c-2.17,0-3.94-1.76-3.94-3.94,0-3.23-1.19-4.65-2.99-6.8-2.16-2.57-4.84-5.77-4.84-11.87s2.68-9.3,4.84-11.87c1.8-2.14,2.99-3.57,2.99-6.81s-1.19-4.64-2.99-6.8c-2.16-2.57-4.84-5.77-4.84-11.87,0-2.17,1.76-3.93,3.94-3.93s3.93,1.76,3.93,3.93c0,3.24,1.2,4.66,3,6.81,2.15,2.56,4.84,5.77,4.84,11.86s-2.69,9.3-4.84,11.87c-1.8,2.15-3,3.57-3,6.81s1.2,4.65,3,6.8c2.15,2.56,4.84,5.77,4.84,11.87,0,2.18-1.77,3.94-3.94,3.94Z"/><polygon class="cls-1" points="24.32 52.83 19.93 29.17 40.13 42.25 31.16 45.94 24.32 52.83"/><polygon class="cls-1" points="51.08 53.41 46.68 29.75 66.89 42.83 57.91 46.53 51.08 53.41"/><polygon class="cls-1" points="76.81 52.83 72.43 29.17 92.62 42.25 83.66 45.94 76.81 52.83"/></svg>