<?xml version="1.0" encoding="UTF-8"?><svg id="Layer_1" xmlns="http://www.w3.org/2000/svg" viewBox="0 0 111.6 99.68"><defs><style>.cls-1{fill:#fab639;}</style></defs><path class="cls-1" d="M12.76,0h5.36v17.92h.19c1.11-1.43,2.22-2.75,3.27-3.97L34.29,0h6.66l-15.05,15.76,16.23,21.39h-6.35l-13.7-18.24-3.95,4.08v14.16h-5.36V0Z"/><polygon class="cls-1" points="67.72 19.73 51.56 19.73 51.56 33.13 69.57 33.13 69.57 37.15 46.19 37.15 46.19 0 68.65 0 68.65 4.03 51.56 4.03 51.56 15.76 67.72 15.76 67.72 19.73"/><path class="cls-1" d="M85.97,37.15v-15.76L72.83,0h6.11l5.86,10.25c1.6,2.81,2.83,5.08,4.13,7.66h.12c1.17-2.43,2.59-4.85,4.19-7.66l5.99-10.25h6.1l-13.94,21.33v15.81h-5.43Z"/><path class="cls-1" d="M94.07,83.85c0,2.92-2.38,5.3-5.3,5.3h-21.36c-2.92,0-5.3-2.38-5.3-5.3v-5.82H22.82c-2.93,0-5.3-2.38-5.3-5.3v-4.42c0-2.92,2.38-5.3,5.3-5.3h39.31v-5.82c0-2.93,2.38-5.3,5.3-5.3h21.36c2.92,0,5.3,2.37,5.3,5.3v26.65ZM106.29,41.38H5.3c-2.93,0-5.3,2.37-5.3,5.3v47.7c0,2.93,2.38,5.3,5.3,5.3h100.99c2.93,0,5.3-2.37,5.3-5.3v-47.7c0-2.93-2.38-5.3-5.3-5.3Z"/><rect class="cls-1" x="80.82" y="61.32" width="4.71" height="18.41"/></svg>