<?xml version="1.0" encoding="UTF-8"?><svg id="Layer_1" xmlns="http://www.w3.org/2000/svg" viewBox="0 0 104.83 124.03"><defs><style>.cls-1{fill:#fefefe;}</style></defs><path class="cls-1" d="M78.58,45.44H26.25c-2.98,0-5.4-2.83-5.4-6.32s2.41-6.32,5.4-6.32h52.34c2.98,0,5.4,2.83,5.4,6.32s-2.41,6.32-5.4,6.32ZM78.58,67.85H26.25c-2.98,0-5.4-2.83-5.4-6.32s2.41-6.32,5.4-6.32h52.34c2.98,0,5.4,2.83,5.4,6.32s-2.41,6.32-5.4,6.32ZM98.02,78.12l-11.59-65.67c-1.21-6.87-8.36-12.45-15.97-12.45h-36.09c-7.61,0-14.76,5.57-15.97,12.45L6.82,78.12c-1.21,6.87,5.22,12.44,14.35,12.44h62.5c9.14,0,15.56-5.57,14.35-12.44Z"/><path class="cls-1" d="M104.83,116.24c0,4.3-3.48,7.79-7.79,7.79H7.79c-4.3,0-7.79-3.48-7.79-7.79v-9.4c0-4.3,3.48-7.78,7.79-7.78h89.26c4.3,0,7.79,3.48,7.79,7.78v9.4Z"/></svg>