<?xml version="1.0" encoding="UTF-8"?><svg id="Layer_1" xmlns="http://www.w3.org/2000/svg" viewBox="0 0 102.9 99.86"><defs><style>.cls-1{fill:#e52a2d;}</style></defs><rect class="cls-1" x=".85" y=".88" width="9.84" height="98.1"/><path class="cls-1" d="M1.75,98.1h8.08V1.75H1.75v96.35ZM11.58,99.86H0V0h11.58v99.86Z"/><rect class="cls-1" x="92.16" y=".88" width="9.84" height="98.1"/><path class="cls-1" d="M93.05,98.1h8.11V1.75h-8.11v96.35ZM102.9,99.86h-11.61V0h11.61v99.86Z"/><polygon class="cls-1" points="78.84 71.88 73.92 76.78 25.15 27.98 30.03 23.08 78.84 71.88"/><path class="cls-1" d="M26.37,27.98l47.55,47.56,3.67-3.66L30.03,24.32l-3.67,3.66ZM73.92,78.01L23.9,27.98l6.14-6.14,50.02,50.04-6.14,6.14Z"/><path class="cls-1" d="M65.29,49.92c0-7.35-5.94-13.32-13.33-13.32s-13.29,5.96-13.29,13.32,5.94,13.33,13.29,13.33,13.33-5.97,13.33-13.33Z"/><path class="cls-1" d="M51.96,37.48c-6.85,0-12.44,5.59-12.44,12.44s5.59,12.45,12.44,12.45,12.47-5.59,12.47-12.45-5.58-12.44-12.47-12.44ZM51.96,64.13c-7.82,0-14.18-6.37-14.18-14.21s6.36-14.19,14.18-14.19,14.21,6.37,14.21,14.19-6.35,14.21-14.21,14.21Z"/></svg>