<?xml version="1.0" encoding="UTF-8"?><svg id="Layer_1" xmlns="http://www.w3.org/2000/svg" viewBox="0 0 127.06 85.28"><defs><style>.cls-1{fill:#149459;}</style></defs><path class="cls-1" d="M88.97,76.25l-.14.03c-2.22.57-5,.86-8.21.86-17.55,0-18.82-6.13-18.91-6.57V14.71s0-.03.03-.04v.13-.16c.17-.8,1.94-6.51,18.88-6.51,3.22,0,5.99.3,8.21.87l.14.04c14.47,3.16,29.95,17.42,29.95,33.6s-15.49,30.44-29.95,33.61ZM90.81,1.1c-2.88-.73-6.3-1.1-10.19-1.1-11.13,0-19.04,2.32-23.49,6.88-3.36,3.43-3.56,6.91-3.56,7.77v55.97c0,.85.2,4.34,3.56,7.77,4.44,4.56,12.35,6.88,23.49,6.88,3.88,0,7.3-.37,10.16-1.1,17.47-3.85,36.29-20.81,36.29-41.54S108.27,4.96,90.81,1.1Z"/><path class="cls-1" d="M37.73,33.13c-5.24,0-9.49,4.26-9.49,9.51s4.24,9.51,9.49,9.51,9.53-4.26,9.53-9.51-4.27-9.51-9.53-9.51Z"/><path class="cls-1" d="M18.71,35.46c-3.97,0-7.16,3.22-7.16,7.18s3.19,7.17,7.16,7.17,7.19-3.21,7.19-7.17-3.22-7.18-7.19-7.18Z"/><path class="cls-1" d="M4.36,38.27c-2.41,0-4.36,1.96-4.36,4.37s1.95,4.37,4.36,4.37,4.39-1.96,4.39-4.37-1.97-4.37-4.39-4.37Z"/><path class="cls-1" d="M37.73,8.59c-5.24,0-9.49,4.26-9.49,9.51s4.24,9.5,9.49,9.5,9.53-4.25,9.53-9.5-4.27-9.51-9.53-9.51Z"/><path class="cls-1" d="M18.71,10.92c-3.97,0-7.16,3.22-7.16,7.18s3.19,7.18,7.16,7.18,7.19-3.22,7.19-7.18-3.22-7.18-7.19-7.18Z"/><path class="cls-1" d="M4.36,13.73c-2.41,0-4.36,1.96-4.36,4.38s1.95,4.37,4.36,4.37,4.39-1.96,4.39-4.37-1.97-4.38-4.39-4.38Z"/><path class="cls-1" d="M37.73,76.68c5.25,0,9.53-4.25,9.53-9.5s-4.27-9.51-9.53-9.51-9.49,4.26-9.49,9.51,4.24,9.5,9.49,9.5Z"/><path class="cls-1" d="M18.71,60c-3.97,0-7.16,3.22-7.16,7.18s3.19,7.18,7.16,7.18,7.19-3.22,7.19-7.18-3.22-7.18-7.19-7.18Z"/><path class="cls-1" d="M4.36,62.81c-2.41,0-4.36,1.96-4.36,4.37s1.95,4.37,4.36,4.37,4.39-1.96,4.39-4.37-1.97-4.37-4.39-4.37Z"/></svg>