<?xml version="1.0" encoding="UTF-8"?><svg id="Layer_1" xmlns="http://www.w3.org/2000/svg" viewBox="0 0 93.48 115.06"><defs><style>.cls-1{fill:#e52a2d;}</style></defs><path class="cls-1" d="M57.49,33.13c-.26-.13-.46-.26-.58-.41-.72-.88-1.18-2.12-1.46-3.3,5.48-2.15,9.4-7.71,9.4-14.24,0-8.39-6.45-15.18-14.42-15.18s-14.39,6.8-14.39,15.18c0,6.53,3.91,12.08,9.4,14.24-.29,1.17-.74,2.41-1.46,3.3-1.81,2.2-21.66,1.93-21.21,32.05,9.13-9.55,20.86-20.73,34.72-31.64Z"/><path class="cls-1" d="M23.99,80.61c2.93,22.23,10,32.73,13.73,33.85,4.29,1.28,9.04.35,10.21-1.51,2.71-4.34-12.84-22.06-9.04-25.26,1.61-1.35,8.71-1.53,11.55-1.54,2.84.01,9.95.19,11.55,1.54,3.8,3.2-11.74,20.92-9.03,25.26,1.17,1.87,5.91,2.8,10.21,1.51,3.64-1.12,10.52-11.24,13.54-32.59-19.69-2.94-39.98-2.25-52.73-1.27Z"/><path class="cls-1" d="M32.91,69.34c12.6-.58,28.81-.47,44.91,1.91.1-1.52.19-3.08.25-4.69.67-16.46-4.48-24.32-9.88-28.41-13.89,10.5-25.83,21.55-35.28,31.19Z"/><path class="cls-1" d="M88.87,23.97c2.42-1.49,3.25-4.75,1.83-7.3-1.41-2.54-4.49-3.41-6.92-1.93-9.42,5.78-18.2,12.03-26.29,18.39,1.74.87,6.31,1.69,10.7,5.01,6.51-4.9,13.4-9.7,20.68-14.17Z"/><path class="cls-1" d="M89.48,73.41c-3.84-.88-7.74-1.59-11.66-2.17-.25,3.83-.64,7.36-1.1,10.63,3.59.54,7.13,1.17,10.62,1.98.36.08.73.12,1.08.12,2.33,0,4.43-1.72,4.94-4.22.6-2.88-1.15-5.72-3.88-6.34Z"/><path class="cls-1" d="M22.99,69.94c-.07-1.12-.13-2.24-.18-3.4-.03-.62-.03-1.2-.04-1.78-1.88,1.96-3.64,3.86-5.31,5.68-3.83,4.19-7.04,7.9-9.58,10.96-4.11,4.94-6.47,8.11-6.82,8.57-1.71,2.33-1.31,5.69.9,7.5.93.75,2.02,1.12,3.1,1.12,1.51,0,3.01-.71,4.01-2.06.12-.17,4.8-6.45,13.14-15.78h0c.56-.06,1.17-.09,1.77-.14-.07-.53-.13-1.07-.2-1.61-.34-2.84-.62-5.85-.8-9.06Z"/></svg>