<?xml version="1.0" encoding="UTF-8"?><svg id="Layer_1" xmlns="http://www.w3.org/2000/svg" viewBox="0 0 94.56 85.1"><defs><style>.cls-1{fill:#fab639;}</style></defs><path class="cls-1" d="M47.27,78.91c-7.88,0-14.99-3.37-19.99-8.74l19.99-13.06,20.02,13.06c-5,5.37-12.1,8.74-20.02,8.74ZM19.95,51.58c0-3.85.81-7.51,2.22-10.83l16.6,10.83-16.6,10.83c-1.41-3.33-2.22-6.99-2.22-10.83ZM47.27,24.24c7.91,0,15.02,3.37,20.02,8.74l-20.02,13.05-19.99-13.05c5-5.37,12.1-8.74,19.99-8.74ZM38.63,6.19h17.3v11.09h-17.3V6.19ZM74.62,51.58c0,3.84-.8,7.51-2.25,10.83l-16.6-10.83,16.6-10.83c1.45,3.32,2.25,6.98,2.25,10.83ZM92.47,75.5l-14.85-9.67c2.05-4.33,3.19-9.16,3.19-14.25s-1.14-9.92-3.19-14.25l14.85-9.69c2.14-1.41,2.75-4.27,1.33-6.43-1.39-2.14-4.27-2.75-6.42-1.35l-14.85,9.69c-2.91-3.32-6.44-6.07-10.41-8.04V0h-29.67v21.52c-3.97,1.97-7.5,4.72-10.41,8.04l-14.85-9.69c-2.14-1.4-5.03-.8-6.44,1.35-1.39,2.15-.78,5.02,1.35,6.43l14.86,9.69c-2.06,4.32-3.19,9.15-3.19,14.25s1.14,9.92,3.19,14.24l-14.86,9.68c-2.14,1.41-2.75,4.28-1.35,6.43.88,1.36,2.38,2.1,3.91,2.1.86,0,1.75-.24,2.53-.75l14.85-9.69c6.14,7.05,15.18,11.51,25.23,11.51s19.13-4.46,25.26-11.5l14.85,9.69c.78.51,1.67.75,2.53.75,1.53,0,3-.74,3.89-2.1,1.41-2.15.8-5.03-1.33-6.43Z"/></svg>