<?xml version="1.0" encoding="UTF-8"?><svg id="Layer_1" xmlns="http://www.w3.org/2000/svg" viewBox="0 0 112.34 100.37"><defs><style>.cls-1{fill:#e52a2d;}</style></defs><path class="cls-1" d="M61.45,69.81c0,2.25-2.37,4.09-5.28,4.09s-5.28-1.83-5.28-4.09V26.16c0-2.26,2.36-4.09,5.28-4.09s5.28,1.83,5.28,4.09v43.65ZM61.32,84.59c0,2.23-2.3,4.04-5.15,4.04s-5.15-1.81-5.15-4.04v-2.65c0-2.23,2.3-4.04,5.15-4.04s5.15,1.8,5.15,4.04v2.65ZM109.99,83.06L66.16,7.14c-5.5-9.52-14.49-9.52-19.98,0L2.35,83.06c-5.5,9.51-.99,17.31,10,17.31h87.66c10.98,0,15.48-7.8,9.99-17.31Z"/></svg>