<?xml version="1.0" encoding="UTF-8"?><svg id="Layer_1" xmlns="http://www.w3.org/2000/svg" viewBox="0 0 181.67 109.1"><defs><style>.cls-1{fill:#fefefe;}</style></defs><path class="cls-1" d="M152.23,52.78v42.88c0,1.06-.87,1.92-1.93,1.92s-1.93-.86-1.93-1.92v-45.85c0-1.06.86-1.93,1.93-1.93s1.93.86,1.93,1.93v2.97ZM158.46,92.68v-42.87c0-1.06.86-1.93,1.92-1.93s1.93.86,1.93,1.93v45.85c0,1.06-.87,1.92-1.93,1.92s-1.92-.86-1.92-1.92v-2.98ZM142.15,52.78v42.88c0,1.06-.87,1.92-1.93,1.92s-1.93-.86-1.93-1.92v-45.85c0-1.06.86-1.93,1.93-1.93s1.93.86,1.93,1.93v2.97ZM89.6,86.88c0,1.06-.86,1.93-1.93,1.93s-1.92-.86-1.92-1.93v-15.68c0-1.06.85-1.93,1.92-1.93s1.93.86,1.93,1.93v15.68ZM79.51,86.88c0,1.06-.87,1.93-1.93,1.93s-1.93-.86-1.93-1.93v-15.68c0-1.06.86-1.93,1.93-1.93s1.93.86,1.93,1.93v15.68ZM69.43,86.88c0,1.06-.86,1.93-1.93,1.93s-1.93-.86-1.93-1.93v-15.68c0-1.06.87-1.93,1.93-1.93s1.93.86,1.93,1.93v15.68ZM30.93,86.88c0,1.06-.86,1.93-1.93,1.93s-1.93-.86-1.93-1.93v-15.68c0-1.06.87-1.93,1.93-1.93s1.93.86,1.93,1.93v15.68ZM20.85,86.88c0,1.06-.86,1.93-1.93,1.93s-1.93-.86-1.93-1.93v-15.68c0-1.06.86-1.93,1.93-1.93s1.93.86,1.93,1.93v15.68ZM10.76,86.88c0,1.06-.85,1.93-1.92,1.93s-1.92-.86-1.92-1.93v-15.68c0-1.06.86-1.93,1.92-1.93s1.92.86,1.92,1.93v15.68ZM181.67,12.5V0H4.94v12.5h23.36v38.06c-.33-.03-.66-.05-.99-.05H10.53c-5.82,0-10.53,4.72-10.53,10.53v37.52c0,5.82,4.72,10.53,10.53,10.53h16.78c5.81,0,10.53-4.72,10.53-10.53V12.5h49.04v38.06c-.33-.03-.66-.05-.99-.05h-16.78c-5.82,0-10.53,4.72-10.53,10.53v37.52c0,5.82,4.71,10.53,10.53,10.53h16.78c5.82,0,10.53-4.72,10.53-10.53V12.5h49.2v21.39h-4.82c-4.4,0-7.96,3.57-7.96,7.97v59.27c0,4.4,3.56,7.96,7.96,7.96h19.17c4.4,0,7.98-3.56,7.98-7.96v-59.27c0-4.4-3.57-7.97-7.98-7.97h-4.81V12.5h26.5Z"/></svg>