<?xml version="1.0" encoding="UTF-8"?><svg id="Layer_1" xmlns="http://www.w3.org/2000/svg" viewBox="0 0 197.3 77.91"><defs><style>.cls-1{fill:#fefefe;}</style></defs><path class="cls-1" d="M137.66,12.34c-1.22,0-2.25.16-2.98.47l-.23.09c-5.53,1.96-13.52,12.38-13.52,26.06s8,24.09,13.53,26.07l.23.09c.73.31,1.76.47,2.98.47,6.19,0,6.87-2.8,6.93-3.68V16.01c-.07-.91-.76-3.67-6.93-3.67ZM137.66,75.72c-2.34,0-4.43-.38-6.23-1.12-9.56-3.48-19.84-18.05-19.84-35.65S121.86,6.8,131.42,3.3c1.8-.73,3.9-1.1,6.24-1.1,5.54,0,9.83,1.63,12.76,4.86,3.48,3.85,3.51,8.45,3.5,8.98v45.92c.01.43-.01,5.03-3.5,8.89-2.93,3.22-7.22,4.87-12.76,4.87Z"/><path class="cls-1" d="M192.64,44.02h-27.68c-2.58,0-4.67-2.27-4.67-5.07s2.09-5.07,4.67-5.07h27.68c2.57,0,4.67,2.27,4.67,5.07s-2.09,5.07-4.67,5.07Z"/><path class="cls-1" d="M166.01,20.46c-1.91,0-3.68-1.27-4.38-3.31-.91-2.62.33-5.53,2.75-6.51L189.96.32c2.42-.98,5.1.37,6,2.98.9,2.62-.34,5.54-2.75,6.51l-25.59,10.32c-.54.22-1.08.33-1.62.33Z"/><path class="cls-1" d="M191.59,77.91c-.54,0-1.09-.11-1.62-.32l-25.59-10.32c-2.41-.97-3.65-3.89-2.75-6.51.89-2.62,3.57-3.96,5.99-2.98l25.59,10.32c2.41.97,3.65,3.88,2.75,6.51-.7,2.04-2.48,3.31-4.38,3.31Z"/><path class="cls-1" d="M137.66,12.34c-1.22,0-2.25.16-2.98.47l-.23.09c-5.53,1.96-13.53,12.37-13.53,26.06s8,24.09,13.52,26.07l.23.09c.74.3,1.77.47,2.98.47,6.19,0,6.87-2.8,6.93-3.68V16.01c-.07-.91-.76-3.67-6.93-3.67ZM137.66,75.72c-2.34,0-4.43-.38-6.24-1.12-9.56-3.49-19.83-18.06-19.83-35.65S121.87,6.79,131.44,3.3c1.79-.73,3.89-1.1,6.22-1.1,5.54,0,9.83,1.63,12.76,4.86,3.48,3.85,3.51,8.45,3.5,8.98v45.92c.01.43-.01,5.03-3.5,8.89-2.93,3.22-7.22,4.87-12.76,4.87Z"/><path class="cls-1" d="M192.64,44.02h-27.68c-2.58,0-4.67-2.27-4.67-5.07s2.09-5.07,4.67-5.07h27.68c2.57,0,4.67,2.27,4.67,5.07s-2.09,5.07-4.67,5.07Z"/><path class="cls-1" d="M191.59,77.91c-.54,0-1.09-.11-1.62-.32l-25.59-10.32c-2.41-.97-3.65-3.89-2.75-6.51.89-2.62,3.57-3.96,5.99-2.98l25.59,10.32c2.41.97,3.65,3.88,2.75,6.51-.7,2.04-2.48,3.31-4.38,3.31Z"/><path class="cls-1" d="M166.01,20.46c-1.91,0-3.68-1.27-4.38-3.31-.91-2.62.33-5.53,2.75-6.51L189.96.32c2.42-.98,5.1.37,6,2.98.9,2.62-.34,5.54-2.75,6.51l-25.59,10.32c-.54.22-1.08.33-1.62.33Z"/><path class="cls-1" d="M52.71,61.91c.06.89.76,3.67,6.93,3.67,1.21,0,2.25-.16,2.98-.47l.23-.09c5.53-1.97,13.53-12.38,13.53-26.07s-8-24.09-13.53-26.06l-.22-.09c-.74-.31-1.77-.47-2.98-.47-2.87,0-5.03.64-6.11,1.83-.68.77-.83,1.7-.83,1.7v46.05ZM59.64,75.72c-5.55,0-9.84-1.64-12.76-4.87-3.48-3.85-3.51-8.46-3.51-8.98V15.95c0-.43.02-5.04,3.51-8.89,2.92-3.23,7.22-4.86,12.76-4.86,2.33,0,4.43.37,6.24,1.1,9.56,3.49,19.83,18.07,19.83,35.65s-10.28,32.17-19.85,35.65c-1.8.74-3.89,1.12-6.22,1.12Z"/><path class="cls-1" d="M32.34,44.02H4.67c-2.58,0-4.67-2.27-4.67-5.07s2.09-5.07,4.67-5.07h27.68c2.57,0,4.67,2.27,4.67,5.07s-2.09,5.07-4.67,5.07Z"/><path class="cls-1" d="M31.29,20.46c-.54,0-1.09-.11-1.62-.33L4.09,9.82C1.68,8.85.44,5.93,1.34,3.3,2.24.69,4.92-.66,7.34.32l25.59,10.32c2.41.98,3.64,3.89,2.75,6.51-.7,2.04-2.48,3.31-4.38,3.31Z"/><path class="cls-1" d="M5.72,77.91c-1.9,0-3.67-1.27-4.38-3.31-.9-2.63.34-5.54,2.75-6.51l25.58-10.32c2.42-.98,5.11.36,6,2.98.9,2.62-.33,5.54-2.75,6.51l-25.59,10.32c-.54.21-1.09.32-1.62.32Z"/><path class="cls-1" d="M52.71,61.91c.06.89.76,3.67,6.93,3.67,1.21,0,2.25-.17,2.98-.47l.22-.09c5.53-1.98,13.53-12.38,13.53-26.07s-8-24.09-13.53-26.06l-.23-.09c-.74-.31-1.77-.47-2.98-.47-2.87,0-5.03.64-6.11,1.83-.68.77-.83,1.7-.83,1.7v46.05ZM59.64,75.72c-5.55,0-9.84-1.64-12.76-4.87-3.48-3.85-3.51-8.46-3.51-8.98V15.95c0-.43.02-5.04,3.51-8.89,2.92-3.23,7.22-4.86,12.76-4.86,2.33,0,4.43.37,6.22,1.1,9.57,3.48,19.85,18.05,19.85,35.65s-10.28,32.16-19.83,35.65c-1.8.73-3.9,1.12-6.24,1.12Z"/><path class="cls-1" d="M32.34,44.02H4.67c-2.58,0-4.67-2.27-4.67-5.07s2.09-5.07,4.67-5.07h27.68c2.57,0,4.67,2.27,4.67,5.07s-2.09,5.07-4.67,5.07Z"/><path class="cls-1" d="M5.72,77.91c-1.9,0-3.67-1.27-4.38-3.31-.9-2.63.34-5.54,2.75-6.51l25.58-10.32c2.42-.98,5.11.36,6,2.98.9,2.62-.33,5.54-2.75,6.51l-25.59,10.32c-.54.21-1.09.32-1.62.32Z"/><path class="cls-1" d="M31.29,20.46c-.54,0-1.09-.11-1.62-.33L4.09,9.82C1.68,8.85.44,5.93,1.34,3.3,2.24.69,4.92-.66,7.34.32l25.59,10.32c2.41.98,3.64,3.89,2.75,6.51-.7,2.04-2.48,3.31-4.38,3.31Z"/></svg>