<?xml version="1.0" encoding="UTF-8"?><svg id="Layer_1" xmlns="http://www.w3.org/2000/svg" viewBox="0 0 150.14 64.32"><defs><style>.cls-1{fill:#fab639;}</style></defs><path class="cls-1" d="M31.9,40.39v-21.12c0-3.31.11-6.62.32-9.92h-.32c-2.11,3.69-3.8,6.42-5.7,9.34l-16.8,21.51v.2h22.5ZM31.9,64.32v-17.22H0v-5.64L30.64,1.07h10.04v39.32h9.61v6.72h-9.61v17.22h-8.77Z"/><path class="cls-1" d="M64.66,17.23l7.29,10.12c1.91,2.62,3.49,5.06,5.18,7.69h.32c1.69-2.83,3.38-5.26,5.07-7.79l7.18-10.02h10.04l-17.44,22.77,17.97,24.33h-10.57l-7.5-10.61c-2.01-2.72-3.69-5.35-5.5-8.17h-.2c-1.7,2.82-3.49,5.35-5.39,8.17l-7.4,10.61h-10.25l18.17-24.04-17.32-23.06h10.35Z"/><path class="cls-1" d="M106.29,64.32v-5.25l7.28-6.52c17.55-15.38,25.47-23.55,25.57-33.09,0-6.43-3.38-12.36-13.63-12.36-6.24,0-11.41,2.92-14.58,5.35l-2.96-6.03c4.75-3.7,11.51-6.43,19.44-6.43,14.79,0,21.02,9.35,21.02,18.39,0,11.68-9.19,21.12-23.66,33.96l-5.5,4.67v.2h30.85v7.1h-43.84Z"/></svg>