<?xml version="1.0" encoding="UTF-8"?><svg id="Layer_1" xmlns="http://www.w3.org/2000/svg" viewBox="0 0 190.92 75.4"><defs><style>.cls-1{fill:#e52a2d;}</style></defs><path class="cls-1" d="M110.9,65.42H41.77v-32.6h45.41l11.79,8.59c1.36.99,3.14,1.23,4.72.63l56.35-21.52-49.14,44.89ZM11.22,32.35l5.33-14.22,15.23,6.41v18.54l-20.56-10.73ZM183.68,27.09c1.33-1.8,1.29-4.29-.11-6.05l-9.99-12.63c-1.35-1.71-3.66-2.35-5.7-1.56l-65.21,24.9-10.92-7.95c-.85-.62-1.88-.96-2.94-.96h-14.22v-4.71h3.36c2.76,0,5-2.24,5-5V4.99c0-2.76-2.24-4.99-5-4.99h-19.5c-2.76,0-4.99,2.23-4.99,4.99v8.14c0,2.76,2.23,5,4.99,5h3.77v4.71h-20.45v-1.61c0-2.01-1.2-3.83-3.06-4.6L15.64,6.9c-1.25-.52-2.67-.52-3.92.02-1.25.54-2.22,1.56-2.69,2.83L.32,32.98c-.89,2.36.13,5.01,2.36,6.18l29.1,15.19v16.06c0,2.76,2.24,4.99,5,4.99h76.06c1.25,0,2.45-.46,3.37-1.3l53.14-48.55,8.52,3.26c2.1.8,4.48.1,5.81-1.72Z"/><path class="cls-1" d="M182,37.74s-8.92,15.6-8.92,20.02,4,8.01,8.92,8.01,8.92-3.59,8.92-8.01-8.92-20.02-8.92-20.02Z"/><polygon class="cls-1" points="112.92 70.37 38.08 70.37 38.08 28.98 89.07 28.98 102.85 36.21 144.65 41.63 112.92 70.37"/><path class="cls-1" d="M38.95,69.5h73.62l30.08-27.24-40.07-5.2-13.73-7.19h-49.9v39.63ZM113.26,71.24H37.21V28.11h52.08l13.84,7.25,43.52,5.65-33.38,30.23Z"/></svg>