<?xml version="1.0" encoding="UTF-8"?><svg id="Layer_1" xmlns="http://www.w3.org/2000/svg" viewBox="0 0 105.06 104.75"><defs><style>.cls-1{fill:#e52a2d;}</style></defs><path class="cls-1" d="M94.1,17.99c0-8.46-6.85-15.31-15.31-15.31s-15.32,6.85-15.32,15.31,6.86,15.32,15.32,15.32,15.31-6.86,15.31-15.32Z"/><path class="cls-1" d="M82.55,84.83c-3.64-4.95-7.27-9.9-10.9-14.84-3.67-5.01-7.35-10-11.03-15.01-.47-.64-1.03-1.2-1.61-1.64-2.33-1.81-5.34-2.11-7.51-.59-2.22,1.56-4.51,3.06-6.83,4.48-1.42.87-2.3,2.33-2.59,4.01-.28,1.67.02,3.54,1.01,5.25,2.41,4.13,4.82,8.26,7.22,12.39,3.82,6.53,7.64,13.07,11.45,19.6,1.98,3.46,6.62,4.6,10.23,2.38,2.94-1.8,5.83-3.69,8.66-5.69,3.46-2.43,4.26-7.14,1.89-10.33Z"/><path class="cls-1" d="M61.64,53.81l10.96,14.94c7.94-11.57,13.19-33.41,4.1-34.77-6.8-1.03-13.48,10.18-17.18,17.74.78.57,1.5,1.28,2.12,2.09Z"/><path class="cls-1" d="M40.38,61.02c-2.78.13-6.09.41-8.76.96-5.8,1.2-25.22,30.91-25.22,30.91-2.16,2.61-1.79,6.48.82,8.63l2.19,1.81c2.61,2.17,6.47,1.8,8.63-.81l.67-.8.09-.11,12.21-14.76c.06-.07.1-.12.14-.19l7.07-8.55s4.53.81,10.37.81l-6.98-11.95c-1.12-1.93-1.5-4.04-1.23-5.95Z"/><path class="cls-1" d="M102.52,41.8l-14.18,7.74c-1.83,1.01-4.04.69-5.53-.62.71-3.88.81-7.45.06-10.05l13.91-7.59c2.35-1.28,5.3-.42,6.59,1.94l1.09,1.98c1.28,2.36.42,5.31-1.94,6.6Z"/><path class="cls-1" d="M25.94,45.78c-4.26,0-8.3-1.35-11.67-3.82l11.67-11.67,11.67,11.67c-3.38,2.46-7.42,3.82-11.67,3.82ZM9.94,14.29l11.67,11.67-11.67,11.67c-5.06-6.93-5.06-16.41,0-23.34ZM25.94,6.13c4.25,0,8.29,1.35,11.67,3.83l-11.67,11.67-11.67-11.67c3.37-2.47,7.41-3.83,11.67-3.83ZM41.93,37.63l-11.66-11.67,11.66-11.67c5.06,6.93,5.06,16.41,0,23.34ZM52.09,47.78l-5.77-5.77c7.4-9.38,7.4-22.73,0-32.11l4.98-4.97-4.33-4.33-4.97,4.97C37.43,1.96,31.83,0,25.94,0S14.44,1.96,9.88,5.57L5.71,1.4,1.38,5.73l4.17,4.17c-7.4,9.38-7.4,22.73,0,32.11l-4.97,4.97,4.33,4.33,4.97-4.97c4.56,3.61,10.15,5.56,16.05,5.56s11.49-1.96,16.05-5.56l5.77,5.76,4.33-4.32Z"/></svg>