<?xml version="1.0" encoding="UTF-8"?><svg id="Layer_1" xmlns="http://www.w3.org/2000/svg" viewBox="0 0 110.4 117.47"><defs><style>.cls-1{fill:#e52a2d;}</style></defs><path class="cls-1" d="M10.85,57.76V18.65h88.7v39.11H10.85ZM95.2,8.61V0h-19.58v8.61h-40.84V0H15.2v8.61H0v59.17h110.4V8.61h-15.2Z"/><rect class="cls-1" x="16.21" y="30.08" width="19.58" height="7.02"/><polygon class="cls-1" points="88.2 24.53 80.61 24.53 80.61 30.08 74.61 30.08 74.61 37.1 80.61 37.1 80.61 42.65 88.2 42.65 88.2 37.1 94.2 37.1 94.2 30.08 88.2 30.08 88.2 24.53"/><path class="cls-1" d="M30.93,101.2c-.25-4.89-.53-10.77-.48-15.13h-.14c-1.1,4.11-2.44,8.48-4.07,13.31l-5.69,17.01h-3.16l-5.22-16.69c-1.54-4.94-2.83-9.47-3.73-13.63h-.1c-.09,4.37-.33,10.24-.62,15.5l-.85,15.03h-3.98l2.25-35.06h5.31l5.5,16.96c1.34,4.31,2.44,8.16,3.26,11.8h.14c.82-3.54,1.96-7.38,3.4-11.8l5.74-16.96h5.31l2.01,35.06h-4.06l-.81-15.39Z"/><path class="cls-1" d="M32.57,115.71h2.3l-1.91-33.3h-3.86l-5.53,16.36c-1.61,4.94-2.64,8.56-3.37,11.73-.09.39-.46.67-.86.67h-.14c-.41,0-.77-.28-.86-.68-.72-3.25-1.72-6.87-3.23-11.74l-5.3-16.34h-3.85l-2.14,33.3h2.22l.81-14.21c.3-5.39.52-11.17.62-15.47.01-.47.41-.85.88-.85h.1c.41,0,.77.28.85.69.8,3.69,1.95,7.87,3.71,13.55l5.03,16.08h1.88l5.49-16.4c1.64-4.91,2.98-9.24,4.05-13.27.1-.38.45-.64.85-.64h.14c.23,0,.46.09.62.26.17.17.26.39.25.62-.04,4.35.25,10.3.48,15.08l.78,14.56ZM35.82,117.47h-4.09c-.46,0-.85-.36-.88-.83l-.81-15.39c-.15-2.98-.32-6.42-.41-9.65-.75,2.53-1.61,5.2-2.57,8.06l-5.69,17.01c-.12.35-.46.59-.83.59h-3.16c-.38,0-.72-.25-.83-.62l-5.22-16.69c-.93-2.97-1.68-5.54-2.3-7.84-.12,3.05-.27,6.34-.44,9.5l-.86,15.03c-.02.46-.41.83-.87.83h-3.98c-.24,0-.47-.1-.64-.28-.16-.18-.25-.42-.23-.66l2.25-35.06c.02-.46.41-.82.87-.82h5.31c.38,0,.72.25.83.61l5.5,16.95c1.06,3.4,1.87,6.21,2.51,8.7.67-2.46,1.51-5.27,2.63-8.7l5.74-16.97c.12-.35.46-.59.83-.59h5.31c.46,0,.85.36.87.83l2,34.88c.02.07.03.15.03.22,0,.49-.39.88-.87.88Z"/><path class="cls-1" d="M57.53,102.03l-3.16-10.09c-.72-2.29-1.2-4.37-1.68-6.4h-.09c-.47,2.08-1.01,4.22-1.62,6.35l-3.16,10.14h9.71ZM46.95,105.57l-3.35,11.03h-4.3l10.96-35.06h5.02l11,35.06h-4.45l-3.45-11.03h-11.43Z"/><path class="cls-1" d="M49,101.15h7.33l-2.8-8.95c-.34-1.09-.62-2.12-.88-3.13-.28,1.09-.55,2.09-.83,3.06l-2.81,9.02ZM57.53,102.91h-9.71c-.28,0-.54-.14-.7-.36-.17-.22-.22-.51-.13-.78l3.16-10.13c.53-1.83,1.04-3.83,1.61-6.28.09-.4.44-.68.85-.68h.09c.41,0,.76.28.85.67l.09.38c.44,1.89.9,3.85,1.56,5.96l3.16,10.08c.08.27.03.56-.13.78-.17.22-.43.36-.7.36ZM62.47,115.71h2.62l-10.46-33.3h-3.74l-10.4,33.3h2.46l3.16-10.4c.12-.37.46-.62.84-.62h11.43c.38,0,.72.25.84.62l3.25,10.41ZM66.3,117.47h-4.47c-.38,0-.72-.25-.83-.62l-3.25-10.41h-10.15l-3.16,10.4c-.11.37-.45.62-.84.62h-4.3c-.28,0-.54-.14-.7-.36-.17-.22-.22-.51-.13-.78l10.95-35.06c.12-.36.46-.62.84-.62h5.02c.38,0,.72.25.83.62l10.95,34.9c.07.12.11.27.11.42,0,.49-.39.88-.87.88Z"/><rect class="cls-1" x="71.01" y="81.54" width="4.17" height="35.06"/><path class="cls-1" d="M71.89,115.71h2.41v-33.3h-2.41v33.3ZM75.17,117.47h-4.16c-.49,0-.88-.39-.88-.88v-35.06c0-.49.39-.88.88-.88h4.16c.49,0,.88.39.88.88v35.06c0,.49-.39.88-.88.88Z"/><path class="cls-1" d="M82.45,116.59v-35.06h4.55l10.34,17.73c2.38,4.11,4.25,7.8,5.78,11.4l.1-.06c-.38-4.68-.48-8.95-.48-14.4v-14.67h3.92v35.06h-4.21l-10.24-17.79c-2.25-3.9-4.4-7.91-6.02-11.71l-.14.05c.24,4.43.33,8.64.33,14.46v14.98h-3.93Z"/><path class="cls-1" d="M102.95,115.71h2.83v-33.3h-2.17v13.79c0,5.11.09,9.5.48,14.34.03.34-.14.67-.46.84l-.09.05c-.22.12-.47.14-.7.06-.24-.09-.42-.26-.52-.49-1.54-3.61-3.41-7.3-5.74-11.29l-10.08-17.3h-3.16v33.3h2.17v-14.1c0-5.86-.09-10.03-.33-14.41-.02-.38.21-.74.58-.87l.14-.05c.43-.16.91.05,1.1.47,1.4,3.27,3.3,6.97,5.98,11.61l9.99,17.35ZM106.66,117.47h-4.21c-.31,0-.6-.17-.75-.44l-10.24-17.79c-1.75-3.04-3.18-5.69-4.35-8.08.1,3.09.15,6.37.15,10.45v14.98c0,.49-.39.88-.88.88h-3.93c-.48,0-.87-.39-.87-.88v-35.06c0-.49.39-.88.87-.88h4.55c.31,0,.6.17.75.43l10.34,17.73c1.49,2.57,2.8,5.02,3.97,7.4-.16-3.26-.2-6.47-.2-10.03v-14.67c0-.49.39-.88.88-.88h3.92c.49,0,.88.39.88.88v35.06c0,.49-.39.88-.88.88Z"/></svg>