<?xml version="1.0" encoding="UTF-8"?><svg id="Layer_1" xmlns="http://www.w3.org/2000/svg" viewBox="0 0 142.89 90.28"><defs><style>.cls-1{fill:#149459;}</style></defs><polygon class="cls-1" points="119.01 31.3 113.42 31.3 113.42 40.22 106.56 40.22 106.56 31.3 100.98 31.3 100.98 40.22 96.24 40.22 96.24 31.3 85 31.3 85 40.22 80.14 40.22 80.14 50.51 85 50.51 85 58.99 96.24 58.99 96.24 50.51 100.98 50.51 100.98 58.99 106.56 58.99 106.56 50.51 113.42 50.51 113.42 58.99 119.01 58.99 119.01 50.51 123.97 50.51 123.97 40.22 119.01 40.22 119.01 31.3"/><path class="cls-1" d="M0,45.15c0,8.13,6.61,14.74,14.74,14.74h6.85v-8.38h-6.85c-3.5,0-6.35-2.85-6.35-6.35s2.85-6.36,6.35-6.36h6.85v-8.39h-6.85c-8.13,0-14.74,6.62-14.74,14.75Z"/><rect class="cls-1" x="23.88" y="30.4" width="10.92" height="8.39"/><rect class="cls-1" x="37.09" y="30.4" width="10.92" height="8.39"/><rect class="cls-1" x="23.88" y="51.5" width="10.92" height="8.38"/><rect class="cls-1" x="37.09" y="51.5" width="10.92" height="8.38"/><path class="cls-1" d="M131.12,63.13c-.32,8.81-6.82,15.71-14.81,15.71-.37,0-.74-.01-1.1-.04l-28.23-2.12c-8.32-.7-14.6-7.49-14.31-15.47.39-10.67.39-21.49,0-32.16-.28-7.98,6-14.76,14.31-15.46l28.18-2.12h.05c.36-.04.73-.05,1.1-.05,7.99,0,14.5,6.9,14.81,15.72.43,11.93.43,24.04,0,35.98ZM142.55,26.74c-.26-7.21-3.11-13.93-8.02-18.93-4.94-5.03-11.41-7.81-18.23-7.81-.67,0-1.35.04-2.03.09l-28.18,2.11h-.05c-14.42,1.2-25.32,13.18-24.82,27.28.01.31.02.62.04.92h-10.96v8.39h10.92v12.71h-10.92v8.38h10.96c-.01.31-.02.62-.04.93-.5,14.1,10.4,26.08,24.82,27.28l28.23,2.12c.67.05,1.35.08,2.03.08,6.82,0,13.29-2.77,18.23-7.8,4.91-5,7.76-11.72,8.02-18.93.45-12.21.45-24.59,0-36.81Z"/></svg>