<?xml version="1.0" encoding="UTF-8"?><svg id="Layer_1" xmlns="http://www.w3.org/2000/svg" viewBox="0 0 137.12 46.6"><defs><style>.cls-1{fill:#e52a2d;}</style></defs><path class="cls-1" d="M5.43,41.01c.93.2,2.12.26,3.77.26,4.66,0,9-2.16,9-8.5s-4.14-8.58-9.05-8.58h-3.72v16.83ZM5.43,19.93h4.08c4.7,0,7.55-3.21,7.55-7.46,0-5.17-3.1-7.2-7.65-7.2-2.06,0-3.25.2-3.98.39v14.27ZM.87,1.79c2.02-.51,5.17-.91,8.27-.91,4.5,0,7.4.99,9.51,3.21,1.86,1.7,2.95,4.32,2.95,7.79,0,4.26-2.27,8.06-5.9,9.69v.13c3.31,1.05,7.19,4.46,7.19,11.13,0,3.73-1.14,6.61-3,8.77-2.38,2.81-6.3,4.12-11.99,4.12-3.15,0-5.48-.26-7.03-.52V1.79Z"/><path class="cls-1" d="M6.3,19.05h3.21c4.06,0,6.67-2.58,6.67-6.59,0-4.26-2.22-6.33-6.77-6.33-1.25,0-2.29.08-3.11.22v12.7ZM9.5,20.81h-4.08c-.49,0-.88-.39-.88-.88V5.66c0-.4.26-.74.64-.85,1.05-.28,2.43-.42,4.21-.42,5.5,0,8.53,2.87,8.53,8.08,0,4.9-3.46,8.34-8.42,8.34ZM6.3,40.27c.72.09,1.64.12,2.9.12,3.04,0,8.12-.99,8.12-7.63s-5.71-7.7-8.17-7.7h-2.85v15.21ZM9.19,42.15c-1.84,0-3.02-.08-3.96-.28-.4-.08-.69-.44-.69-.85v-16.83c0-.48.39-.87.88-.87h3.72c6.22,0,9.92,3.54,9.92,9.45s-3.69,9.38-9.87,9.38ZM1.75,44.45c1.83.27,3.9.4,6.15.4,5.45,0,9.16-1.25,11.32-3.81,1.85-2.16,2.8-4.91,2.8-8.21,0-6.06-3.4-9.29-6.58-10.3-.36-.12-.61-.45-.61-.83v-.13c0-.34.2-.65.51-.8,3.27-1.48,5.38-4.97,5.38-8.9,0-3.08-.92-5.55-2.66-7.14-2.01-2.1-4.66-2.98-8.92-2.98-2.53,0-5.34.28-7.39.73v41.97ZM7.9,46.6c-2.65,0-5.06-.18-7.17-.54-.43-.07-.73-.43-.73-.86V1.79c0-.39.27-.75.65-.84C2.9.36,6.15,0,9.14,0c4.72,0,7.85,1.07,10.14,3.48,2.07,1.9,3.19,4.81,3.19,8.4,0,3.99-1.88,7.61-4.9,9.65,3.22,1.66,6.19,5.29,6.19,11.31,0,3.72-1.08,6.87-3.21,9.35-2.51,2.98-6.66,4.43-12.66,4.43Z"/><path class="cls-1" d="M33.44,21.89h4.6c4.81,0,7.85-3.34,7.85-8.38,0-5.76-3.25-8.19-8-8.24-2.22,0-3.72.26-4.45.52v16.1ZM28.89,1.79c2.33-.59,5.59-.91,8.69-.91,4.8,0,7.91,1.12,10.08,3.6,1.71,1.96,2.74,4.98,2.74,8.38,0,5.82-2.9,9.69-6.56,11.26v.14c2.69,1.24,4.29,4.45,5.12,8.97,1.14,6.22,1.96,10.41,2.69,12.11h-4.65c-.57-1.25-1.35-5.04-2.33-10.54-1.04-6.03-2.9-8.38-6.98-8.58h-4.24v19.12h-4.55V1.79Z"/><path class="cls-1" d="M34.32,21.02h3.72c4.31,0,6.98-2.87,6.98-7.51s-2.41-7.3-7.14-7.37c-1.6,0-2.8.14-3.56.32v14.56ZM38.04,22.77h-4.6c-.49,0-.88-.39-.88-.88V5.79c0-.37.23-.7.58-.83,1.01-.36,2.74-.57,4.74-.57h0c5.73.08,8.88,3.32,8.88,9.12s-3.51,9.26-8.74,9.26ZM47.59,44.46h2.82c-.62-2.09-1.33-5.69-2.33-11.08-.82-4.49-2.37-7.3-4.62-8.34-.3-.14-.5-.45-.5-.79v-.14c0-.35.2-.67.53-.8,3.77-1.62,6.03-5.52,6.03-10.45,0-3.12-.92-5.95-2.53-7.81-1.98-2.27-4.9-3.3-9.42-3.3-2.8,0-5.66.27-7.81.73v41.97h2.8v-18.24c0-.49.39-.88.88-.88h4.24c5.23.25,6.91,3.9,7.84,9.3.67,3.69,1.47,8.01,2.07,9.82ZM51.64,46.21h-4.65c-.35,0-.66-.2-.8-.51-.56-1.2-1.25-4.32-2.4-10.75-1.09-6.38-3.09-7.71-6.16-7.86h-3.32v18.25c0,.48-.39.88-.88.88h-4.55c-.49,0-.87-.4-.87-.88V1.79c0-.4.27-.75.65-.84,2.33-.59,5.66-.95,8.9-.95,5.07,0,8.38,1.2,10.74,3.9,1.88,2.16,2.96,5.43,2.96,8.95,0,5.06-2.13,9.21-5.77,11.39,2.1,1.6,3.51,4.51,4.3,8.82.97,5.3,1.9,10.21,2.64,11.92.11.28.09.59-.08.83-.16.25-.43.4-.72.4Z"/><path class="cls-1" d="M74.06,27l-3.41-12.7c-.78-2.88-1.29-5.5-1.81-8.06h-.15c-.46,2.62-1.04,5.3-1.7,7.99l-3.41,12.76h10.49ZM62.64,31.46l-3.56,13.88h-4.7L66.26,1.2h5.38l11.89,44.13h-4.81l-3.72-13.88h-12.36Z"/><path class="cls-1" d="M64.71,26.12h8.21l-3.11-11.6c-.39-1.46-.72-2.87-1.01-4.22-.3,1.4-.62,2.78-.96,4.14l-3.12,11.68ZM74.06,27.88h-10.49c-.27,0-.53-.12-.7-.34-.17-.22-.22-.5-.15-.76l3.41-12.76c.64-2.59,1.22-5.25,1.69-7.92.07-.42.44-.72.86-.72h.15c.42,0,.78.29.86.7l.1.5c.48,2.38.98,4.83,1.7,7.5l3.41,12.71c.07.26.01.54-.15.76-.17.22-.43.34-.7.34ZM79.39,44.46h2.99L70.96,2.08h-4.04l-11.42,42.38h2.88l3.4-13.23c.1-.38.46-.65.85-.65h12.36c.39,0,.74.27.84.65l3.55,13.23ZM83.55,46.21h-4.83c-.39,0-.74-.27-.84-.65l-3.55-13.23h-11l-3.4,13.22c-.1.38-.45.66-.85.66h-4.7c-.28,0-.53-.13-.7-.35-.17-.22-.22-.49-.15-.76L65.41.98c.11-.38.45-.64.85-.64h5.38c.39,0,.74.26.84.64l11.84,43.97c.06.12.09.25.09.39,0,.48-.39.88-.87.88Z"/><path class="cls-1" d="M88.59,1.2h4.55v21.28h.16c.93-1.7,1.85-3.27,2.74-4.72L106.68,1.2h5.53l-12.56,18.73,13.6,25.41h-5.32l-11.47-21.68-3.31,4.85v16.83h-4.55V1.2Z"/><path class="cls-1" d="M108.45,44.46h3.33l-12.9-24.12c-.15-.28-.14-.63.04-.91l11.64-17.36h-3.4l-10.4,16.16c-1.05,1.73-1.91,3.22-2.7,4.67-.16.28-.45.46-.77.46h-.16c-.49,0-.88-.39-.88-.88V2.08h-2.8v42.38h2.8v-15.95c0-.17.06-.35.16-.49l3.3-4.85c.17-.25.46-.4.77-.38.31.02.59.2.72.47l11.24,21.2ZM113.25,46.21h-5.32c-.33,0-.62-.18-.78-.47l-10.79-20.39-2.34,3.43v16.55c0,.48-.39.88-.88.88h-4.55c-.49,0-.87-.4-.87-.88V1.2c0-.48.38-.87.87-.87h4.55c.49,0,.88.39.88.87v18.23c.4-.67.82-1.38,1.27-2.12L105.95.73c.16-.25.43-.4.74-.4h5.53c.33,0,.62.17.78.46.15.29.13.64-.04.91l-12.27,18.28,13.34,24.94c.15.27.14.59-.02.86-.15.26-.44.43-.75.43Z"/><polygon class="cls-1" points="134.65 24.65 121.15 24.65 121.15 40.62 136.25 40.62 136.25 45.34 116.6 45.34 116.6 1.2 135.47 1.2 135.47 5.92 121.15 5.92 121.15 19.93 134.65 19.93 134.65 24.65"/><path class="cls-1" d="M117.49,44.46h17.89v-2.96h-14.22c-.48,0-.87-.39-.87-.88v-15.97c0-.49.39-.88.87-.88h12.62v-2.96h-12.62c-.48,0-.87-.39-.87-.88V5.92c0-.49.39-.88.87-.88h13.45v-2.96h-17.11v42.38ZM136.25,46.21h-19.65c-.48,0-.87-.4-.87-.88V1.2c0-.48.39-.87.87-.87h18.87c.49,0,.87.39.87.87v4.72c0,.49-.38.88-.87.88h-13.45v12.26h12.62c.48,0,.88.39.88.88v4.72c0,.49-.4.88-.88.88h-12.62v14.22h14.22c.49,0,.88.39.88.88v4.72c0,.48-.39.88-.88.88Z"/></svg>