<?xml version="1.0" encoding="UTF-8"?><svg id="Layer_1" xmlns="http://www.w3.org/2000/svg" viewBox="0 0 157.34 107.94"><defs><style>.cls-1{fill:#fab639;}</style></defs><path class="cls-1" d="M74.94,95.31l-20.81-25.27h11.6V28.51h18.41v41.52h11.61l-20.81,25.27ZM152.31,34.96s-1.57-3.51-3.51-3.51h-18.05c-1.93,0-3.51,1.57-3.51,3.51v3.39h-4.92v-5.67c0-1.23-1.28-1.12-1.28-1.12h-10.97c0-17.18-8.68-17.12-8.68-17.12h-19.4v-5.84h19.4V0H37.06v8.61h21.15v5.84h-19.47l-11.71,8.95h-9.08c-1.94,0-3.51,1.56-3.51,3.5v22.46h-5.84v-23.99H0v60.25h8.61v-24.8h5.84v23.27c0,1.93,1.56,3.5,3.51,3.5h9.08l28.48,20.36h59.59c8.1,0,7.22-6.9,7.22-6.9v-10.47h4.92v7.74c0,1.93,1.57,3.5,3.51,3.5h18.05c1.93,0,3.51-3.5,3.51-3.5l5.03-14.66v-34.03l-5.03-14.66Z"/></svg>