<?xml version="1.0" encoding="UTF-8"?><svg id="Layer_1" xmlns="http://www.w3.org/2000/svg" viewBox="0 0 146.97 132.33"><defs><style>.cls-1{fill:#fefefe;}</style></defs><path class="cls-1" d="M20.83,10.14c-5.9,0-10.69,4.8-10.69,10.7v54.06c0,5.9,4.79,10.7,10.69,10.7h105.31c5.9,0,10.69-4.8,10.69-10.7V20.83c0-5.9-4.8-10.7-10.69-10.7H20.83ZM126.14,95.73H20.83c-11.48,0-20.83-9.35-20.83-20.83V20.83C0,9.35,9.34,0,20.83,0h105.31c11.49,0,20.83,9.35,20.83,20.83v54.06c0,11.49-9.35,20.83-20.83,20.83Z"/><path class="cls-1" d="M117.39,132.33c-2.8,0-5.07-2.27-5.07-5.06,0-4.16-1.53-5.99-3.86-8.76-2.76-3.3-6.22-7.42-6.22-15.27s3.46-11.96,6.22-15.27c2.33-2.76,3.86-4.59,3.86-8.76s-1.53-5.98-3.85-8.75c-2.77-3.3-6.23-7.42-6.23-15.27,0-2.8,2.27-5.06,5.07-5.06s5.07,2.27,5.07,5.06c0,4.17,1.53,5.99,3.85,8.76,2.78,3.3,6.24,7.42,6.24,15.26s-3.46,11.97-6.24,15.28c-2.32,2.76-3.85,4.59-3.85,8.75s1.53,5.99,3.85,8.76c2.78,3.3,6.24,7.42,6.24,15.27,0,2.8-2.27,5.06-5.07,5.06Z"/><path class="cls-1" d="M84.27,132.33c-2.8,0-5.06-2.27-5.06-5.06,0-4.16-1.54-5.99-3.85-8.76-2.77-3.3-6.23-7.42-6.23-15.27s3.46-11.96,6.23-15.27c2.32-2.76,3.85-4.59,3.85-8.76s-1.54-5.98-3.85-8.75c-2.77-3.3-6.23-7.42-6.23-15.27,0-2.8,2.27-5.06,5.06-5.06s5.07,2.27,5.07,5.06c0,4.17,1.54,5.99,3.85,8.76,2.77,3.3,6.23,7.42,6.23,15.26s-3.46,11.97-6.23,15.28c-2.32,2.76-3.85,4.59-3.85,8.75s1.54,5.99,3.85,8.76c2.77,3.3,6.23,7.42,6.23,15.27,0,2.8-2.27,5.06-5.07,5.06Z"/><path class="cls-1" d="M50.44,132.33c-2.8,0-5.07-2.27-5.07-5.06,0-4.16-1.53-5.99-3.85-8.76-2.77-3.3-6.23-7.42-6.23-15.27s3.46-11.96,6.23-15.27c2.33-2.76,3.85-4.59,3.85-8.76s-1.53-5.98-3.85-8.75c-2.77-3.3-6.23-7.42-6.23-15.27,0-2.8,2.27-5.06,5.07-5.06s5.06,2.27,5.06,5.06c0,4.17,1.54,5.99,3.86,8.76,2.77,3.3,6.22,7.42,6.22,15.26s-3.46,11.97-6.22,15.28c-2.33,2.76-3.86,4.59-3.86,8.75s1.54,5.99,3.86,8.76c2.77,3.3,6.22,7.42,6.22,15.27,0,2.8-2.27,5.06-5.06,5.06Z"/><polygon class="cls-1" points="31.29 67.97 25.64 37.53 51.64 54.35 40.09 59.12 31.29 67.97"/><polygon class="cls-1" points="65.72 68.72 60.07 38.28 86.05 55.11 74.51 59.87 65.72 68.72"/><polygon class="cls-1" points="98.83 67.97 93.19 37.53 119.17 54.35 107.63 59.12 98.83 67.97"/></svg>