<?xml version="1.0" encoding="UTF-8"?><svg id="Layer_1" xmlns="http://www.w3.org/2000/svg" viewBox="0 0 178.18 80.86"><defs><style>.cls-1{fill:#fefefe;}</style></defs><path class="cls-1" d="M161.44,28.48h-12.95l-.68-.8c3.62-5.23,8.06-11.45,10.68-14.53,1.91-2.23,3.46-2.33,3.96-2.36,2.56-.17,5.3,1.76,6.16,2.54,2.19,2,5.57,1.86,7.58-.3,2.03-2.18,1.91-5.59-.28-7.61-.64-.6-6.5-5.85-14.05-5.38-3.05.17-7.53,1.38-11.58,6.14-2.49,2.92-6.29,8.17-9.7,13.04L125.37,1.33h-51.43l-27.5,27.14h-29.69C7.5,28.48,0,36.3,0,45.95v3.32c0,9.66,7.5,17.47,16.75,17.47h6.27c2.06,8.11,9.39,14.12,18.14,14.12s16.08-6.01,18.15-14.12h62.37c2.06,8.11,9.39,14.12,18.14,14.12s16.08-6.01,18.14-14.12h3.48c9.25,0,16.75-7.82,16.75-17.47v-3.32c0-9.65-7.5-17.47-16.75-17.47Z"/></svg>