<?xml version="1.0" encoding="UTF-8"?><svg id="Layer_1" xmlns="http://www.w3.org/2000/svg" viewBox="0 0 143.72 143.73"><defs><style>.cls-1{fill:#fefefe;}</style></defs><path class="cls-1" d="M80.74,133.33v-36.56c8.29-2.96,14.66-9.93,16.79-18.59h36.11c-2.88,28.35-24.91,51.12-52.9,55.14ZM63.96,84.69c-2.51-1.55-4.51-3.82-5.77-6.51-.9-1.92-1.4-4.06-1.4-6.32,0-5.57,3.03-10.42,7.52-13.03,2.22-1.28,4.8-2.04,7.55-2.04s5.32.75,7.53,2.04c4.5,2.61,7.53,7.46,7.53,13.03,0,2.26-.5,4.4-1.4,6.32-1.07,2.33-2.74,4.33-4.79,5.84-2.49,1.82-5.56,2.91-8.87,2.91-2.9,0-5.61-.83-7.9-2.25ZM63.96,133.45c-28.46-3.63-50.96-26.59-53.88-55.27h36.12c2.21,9,9,16.2,17.76,18.95v36.32ZM71.86,9.77c29.77,0,54.72,21.06,60.71,49.06h-37.69c-4.56-8.01-13.16-13.44-23.01-13.44s-18.46,5.43-23.01,13.44H11.15c6.01-28,30.93-49.06,60.71-49.06ZM71.86,0C32.24,0,0,32.23,0,71.86s32.24,71.86,71.86,71.86,71.86-32.23,71.86-71.86S111.49,0,71.86,0Z"/></svg>