<?xml version="1.0" encoding="UTF-8"?><svg id="Layer_1" xmlns="http://www.w3.org/2000/svg" viewBox="0 0 129.73 95.62"><defs><style>.cls-1{fill:#e52a2d;}</style></defs><path class="cls-1" d="M72.06,79.06h-2.73c-3.82,0-6.92,3.09-6.92,6.91v2.74c0,3.82,3.1,6.91,6.92,6.91h2.73c3.82,0,6.92-3.09,6.92-6.91v-2.74c0-3.82-3.09-6.91-6.92-6.91Z"/><path class="cls-1" d="M122.68,61.44h-7.56V28.57h7.56v32.87ZM125.03,16.31h-20.87c-1.15,0-2.2.43-3.01,1.13-.46.38-.83.84-1.11,1.36l-16.69,20.63h-5.14V6.27c0-3.46-2.8-6.27-6.27-6.27h-2.48c-3.46,0-6.26,2.8-6.26,6.27v30.04h-4.91c-.93,0-1.72,1.3-2.03,3.13h-7.42c-.3-1.83-1.09-3.13-2.03-3.13h-9.82c-.93,0-1.72,1.3-2.02,3.13h-7.94c-.18-1.56-1.49-2.77-3.09-2.77h-14.22c-1.6,0-2.91,1.22-3.09,2.77h-.36c-3.46,0-6.26,2.8-6.26,6.26v.2c0,3.46,2.8,6.27,6.26,6.27h56.94v16.86c0,3.46,2.8,6.26,6.26,6.26h2.48c3.46,0,6.27-2.8,6.27-6.26v-16.86h5.14l16.69,20.63c.28.52.65.98,1.1,1.36h0c.81.69,1.86,1.12,3.01,1.12h20.87c2.59,0,4.7-2.1,4.7-4.69V21c0-2.59-2.11-4.69-4.7-4.69Z"/></svg>