<?xml version="1.0" encoding="UTF-8"?><svg id="Layer_1" xmlns="http://www.w3.org/2000/svg" viewBox="0 0 158.67 109.72"><defs><style>.cls-1{fill:#fefefe;}</style></defs><rect class="cls-1" y="13.65" width="54.5" height="8.19"/><rect class="cls-1" y="32.21" width="54.5" height="8.19"/><rect class="cls-1" y="50.78" width="54.5" height="8.18"/><rect class="cls-1" y="69.33" width="54.5" height="8.19"/><rect class="cls-1" y="87.9" width="54.5" height="8.18"/><path class="cls-1" d="M109.65,98.1l-.19.04c-2.85.74-6.4,1.12-10.57,1.12-22.57,0-24.22-7.9-24.3-8.46V18.93s0-.03,0-.05l.04.16-.03-.2c.22-1.04,2.54-8.37,24.29-8.37,4.17,0,7.73.38,10.58,1.12l.2.04c18.6,4.07,38.52,22.41,38.52,43.23s-19.93,39.17-38.54,43.24ZM112,1.42c-3.69-.94-8.09-1.42-13.1-1.42-14.31,0-24.49,2.98-30.21,8.85-4.32,4.43-4.57,8.9-4.56,10.01v71.99c0,1.12.25,5.59,4.56,10,5.72,5.88,15.89,8.86,30.21,8.86,5.01,0,9.41-.48,13.09-1.41,22.46-4.96,46.68-26.77,46.68-53.45S134.47,6.38,112,1.42Z"/></svg>