<?xml version="1.0" encoding="UTF-8"?><svg id="Layer_1" xmlns="http://www.w3.org/2000/svg" viewBox="0 0 125.01 122.47"><defs><style>.cls-1{fill:#fefefe;}</style></defs><path class="cls-1" d="M62.47,19.68c-9.53,0-17.76-3.79-21-8.96h42.15c-3.29,5.17-11.61,8.96-21.15,8.96ZM101.79,0H23.22C10.39,0,0,10.42,0,23.22v99.26h10.71V23.22c0-6.9,5.61-12.5,12.51-12.5h7.89c2.96,10.61,15.64,18.35,31.36,18.35s28.43-7.74,31.4-18.35h7.93c6.9,0,12.5,5.6,12.5,12.5v99.26h10.71V23.22c0-12.79-10.43-23.22-23.22-23.22Z"/></svg>