<?xml version="1.0" encoding="UTF-8"?><svg id="Layer_1" xmlns="http://www.w3.org/2000/svg" viewBox="0 0 155.24 86.7"><defs><style>.cls-1{fill:#149459;}</style></defs><path class="cls-1" d="M85.94,59.19h-4.88l-4.06-31.19h-15.52l-2.77,11.17h16.65l-.94,3.62h-16.68l-3.14,12.72h18.79l-.94,3.67h-24.43l8.69-34.86h24.4l2.64,22.34c.42,3.57.64,5.59.7,7.86h.17c.92-2.17,2-4.76,3.97-8.43l11.52-21.77h4.95l-19.1,34.86ZM133.66,26.78h-4.35c-6.39-.09-8.91-5.83-8.91-5.83C114.46,8.74,98.35,0,79.43,0s-34.71,8.56-40.81,20.57c-3.55,4.88-6.66,6.01-8.32,6.22h-8.71C9.66,26.78,0,36.07,0,47.52v2.59c0,10.58,8.24,19.3,18.91,20.57.22,8.87,7.77,16.02,17.04,16.02s16.74-7.05,17.07-15.84h45c.33,8.79,7.83,15.84,17.07,15.84s16.71-7.05,17.05-15.84h1.52c11.91,0,21.57-9.29,21.57-20.74v-2.59c0-11.45-9.66-20.74-21.57-20.74Z"/></svg>