<?xml version="1.0" encoding="UTF-8"?><svg id="Layer_1" xmlns="http://www.w3.org/2000/svg" viewBox="0 0 130.33 109.26"><defs><style>.cls-1{fill:#fefefe;}</style></defs><path class="cls-1" d="M66.57,86.82l-18.94-18.18c-1.25-1.2-2.91-1.87-4.64-1.87H13.4v-24.29h29.59c1.72,0,3.39-.67,4.64-1.86l18.94-18.2v64.4ZM75.9.53c-2.46-1.04-5.33-.52-7.27,1.33l-28.35,27.22H6.7c-3.7,0-6.7,2.99-6.7,6.7v37.69c0,3.7,3,6.7,6.7,6.7h33.59l28.35,27.22c1.27,1.22,2.94,1.86,4.64,1.86.9,0,1.78-.18,2.63-.54,2.48-1.05,4.08-3.48,4.08-6.16V6.69c0-2.68-1.6-5.11-4.08-6.16Z"/><path class="cls-1" d="M123.63,47.93h-28.19c-3.72,0-6.71,2.99-6.71,6.7s2.99,6.7,6.71,6.7h28.19c3.7,0,6.7-3,6.7-6.7s-3-6.7-6.7-6.7Z"/><path class="cls-1" d="M96.91,38.84c1,0,2.02-.22,2.98-.7l25.26-12.56c3.31-1.64,4.67-5.67,3.01-8.98-1.64-3.32-5.66-4.67-8.99-3.02l-25.25,12.55c-3.31,1.65-4.67,5.67-3.01,8.99,1.17,2.35,3.54,3.72,6.01,3.72Z"/><path class="cls-1" d="M125.14,83.67l-25.26-12.55c-3.33-1.66-7.34-.3-8.98,3.01-1.65,3.32-.3,7.34,3.01,8.99l25.25,12.55c.96.47,1.98.7,2.98.7,2.47,0,4.83-1.36,6.01-3.71,1.65-3.33.3-7.35-3.01-8.99Z"/></svg>