<?xml version="1.0" encoding="UTF-8"?><svg id="Layer_1" xmlns="http://www.w3.org/2000/svg" viewBox="0 0 87.97 165.72"><defs><style>.cls-1{fill:#fefefe;}</style></defs><path class="cls-1" d="M26.16,36.85l10.07-10.49c.66-.69,1.04-1.61,1.04-2.57V7.42h13.43v16.37c0,.96.38,1.88,1.04,2.57l10.07,10.49H26.16ZM73.92,42.01c.57-1.35.29-2.95-.73-4.02l-15.08-15.69V3.71c0-2.04-1.66-3.71-3.7-3.71h-20.86c-2.04,0-3.7,1.67-3.7,3.71v18.59l-15.07,15.69c-.67.7-1.03,1.63-1.03,2.56,0,.5.09.99.3,1.46.59,1.37,1.93,2.25,3.41,2.25h53.05c1.48,0,2.83-.88,3.41-2.25Z"/><path class="cls-1" d="M49.23,79.5v-22.09c0-2.9-2.35-5.25-5.25-5.25s-5.25,2.35-5.25,5.25v22.09c0,2.9,2.35,5.25,5.25,5.25s5.25-2.35,5.25-5.25Z"/><path class="cls-1" d="M56.35,58.57c0,.78.17,1.58.54,2.33l9.84,19.78c1.3,2.6,4.45,3.66,7.04,2.37s3.67-4.43,2.36-7.04l-9.83-19.78c-1.3-2.59-4.44-3.65-7.04-2.36-1.85.92-2.91,2.77-2.91,4.71Z"/><path class="cls-1" d="M21.23,80.68l9.83-19.78c1.3-2.61.23-5.75-2.36-7.04-2.6-1.29-5.75-.22-7.04,2.36l-9.84,19.78c-.37.75-.54,1.55-.54,2.33,0,1.93,1.06,3.79,2.91,4.71,2.59,1.29,5.75.23,7.04-2.37Z"/><path class="cls-1" d="M26.84,99.85h34.28c2.27,1.71,6.57,8.54,9.9,15.03H16.95c3.33-6.49,7.62-13.32,9.89-15.03ZM84.65,115.38h-6.07l.04-.12-.65-1.35c-2.01-4.14-9.01-17.86-14.57-20.41l-.66-.3H25.22l-.66.3c-5.56,2.55-12.57,16.27-14.58,20.41l-.65,1.35.05.12H3.33c-1.84,0-3.33,1.3-3.33,2.89v3.07c0,1.58,1.48,2.88,3.33,2.88h1.93c-.2.98-.33,1.98-.33,3.04v13.76c0,4.13,1.64,7.77,4.16,10.01v11.37c0,1.83,1.48,3.32,3.33,3.32h7.48c1.83,0,3.33-1.48,3.33-3.32v-9.01h41.56v9.01c0,1.83,1.49,3.32,3.32,3.32h7.49c1.84,0,3.32-1.48,3.32-3.32v-11.37c2.52-2.25,4.16-5.88,4.16-10.01v-13.76c0-1.05-.13-2.06-.33-3.04h1.93c1.83,0,3.32-1.3,3.32-2.88v-3.08c0-1.59-1.49-2.89-3.32-2.89Z"/></svg>