<?xml version="1.0" encoding="UTF-8"?><svg id="Layer_1" xmlns="http://www.w3.org/2000/svg" viewBox="0 0 141.65 81.64"><defs><style>.cls-1{fill:#fab639;}</style></defs><path class="cls-1" d="M53.96,16.85h33.71c2.23,1.68,6.46,8.4,9.74,14.79h-53.17c3.26-6.38,7.49-13.11,9.72-14.79ZM110.81,32.13h-5.98l.05-.12-.64-1.33c-1.98-4.07-8.87-17.56-14.33-20.07l-.64-.3h-36.91l-.64.3c-5.47,2.51-12.35,16-14.33,20.07l-.64,1.33.05.12h-5.98c-1.8,0-3.27,1.27-3.27,2.84v3.02c0,1.56,1.46,2.84,3.27,2.84h1.9c-.19.96-.33,1.94-.33,2.98v13.53c0,4.07,1.62,7.64,4.09,9.85v11.18c0,1.81,1.46,3.27,3.27,3.27h7.35c1.81,0,3.27-1.46,3.27-3.27v-8.85h40.87v8.85c0,1.81,1.46,3.27,3.27,3.27h7.35c1.8,0,3.27-1.46,3.27-3.27v-11.18c2.46-2.21,4.09-5.78,4.09-9.85v-13.53c0-1.04-.14-2.02-.33-2.98h1.91c1.8,0,3.27-1.28,3.27-2.84v-3.02c0-1.57-1.46-2.84-3.27-2.84Z"/><polygon class="cls-1" points="9.24 35.73 0 55.17 .17 55.27 12.5 56.33 19.74 36.64 9.24 35.73"/><polygon class="cls-1" points="19.3 14.54 10.91 32.21 21.05 33.08 27.6 15.26 19.3 14.54"/><polygon class="cls-1" points="26.2 0 20.96 11.02 28.9 11.71 33 .59 26.2 0"/><polygon class="cls-1" points="132.42 35.73 141.65 55.17 141.48 55.27 129.15 56.33 121.9 36.64 132.42 35.73"/><polygon class="cls-1" points="122.35 14.54 130.74 32.21 120.6 33.08 114.05 15.26 122.35 14.54"/><polygon class="cls-1" points="115.45 0 120.68 11.02 112.74 11.71 108.66 .59 115.45 0"/></svg>