<?xml version="1.0" encoding="UTF-8"?><svg id="Layer_1" xmlns="http://www.w3.org/2000/svg" viewBox="0 0 130.81 107.84"><defs><style>.cls-1{fill:#fefefe;}</style></defs><path class="cls-1" d="M39.92,9.89h50.98c3.38,2.55,9.77,12.71,14.72,22.35H25.22c4.93-9.64,11.32-19.8,14.69-22.35ZM125.87,32.99h-9.03l.07-.19-.97-2c-2.99-6.16-13.4-26.55-21.66-30.35l-.98-.46h-55.8l-.98.46c-8.27,3.8-18.67,24.19-21.67,30.35l-.97,2,.08.19H4.95c-2.72,0-4.95,1.92-4.95,4.3v4.56c0,2.37,2.22,4.3,4.95,4.3h2.87c-.3,1.45-.49,2.94-.49,4.51v20.46c0,6.14,2.45,11.55,6.17,14.89v16.91c0,2.74,2.22,4.94,4.94,4.94h11.13c2.72,0,4.94-2.2,4.94-4.94v-13.39h61.79v13.39c0,2.74,2.22,4.94,4.95,4.94h11.12c2.75,0,4.95-2.2,4.95-4.94v-16.91c3.74-3.34,6.18-8.74,6.18-14.89v-20.46c0-1.56-.2-3.06-.5-4.51h2.88c2.73,0,4.94-1.93,4.94-4.29v-4.56c0-2.38-2.21-4.3-4.94-4.3Z"/></svg>