<?xml version="1.0" encoding="UTF-8"?><svg id="Layer_1" xmlns="http://www.w3.org/2000/svg" viewBox="0 0 140.27 111.69"><defs><style>.cls-1{fill:#e52a2d;}</style></defs><path class="cls-1" d="M70.46,58.15c-2.41,0-4.82-.17-5.99-.52v-23.16c1.25-.26,3.58-.52,6.82-.52,7.99,0,13.23,3.75,13.23,11.66s-5.32,12.54-14.05,12.54ZM71.12,27.94c-5.74,0-10.47.53-13.97,1.14v57.98h7.32v-23.25c1.5.26,3.66.44,5.99.44,6.9,0,13.14-2.18,16.97-6.45,2.83-3.05,4.32-7.23,4.32-12.63s-1.91-9.58-4.9-12.36c-3.33-3.14-8.57-4.88-15.73-4.88Z"/><path class="cls-1" d="M70.13,97.5c-22.96,0-41.65-18.68-41.65-41.66S47.17,14.2,70.13,14.2s41.65,18.68,41.65,41.65-18.68,41.66-41.65,41.66ZM70.13,4.57c-28.27,0-51.27,23-51.27,51.28s23,51.28,51.27,51.28,51.28-23,51.28-51.28S98.41,4.57,70.13,4.57Z"/><path class="cls-1" d="M30.94,103.03c-.87-.66-21.31-16.5-21.31-47.18S30.07,9.32,30.94,8.66c2.12-1.59,2.55-4.61.96-6.73-1.59-2.13-4.61-2.56-6.74-.97C24.14,1.73,0,20.2,0,55.85s24.14,54.12,25.16,54.88c.87.64,1.88.96,2.88.96,1.46,0,2.9-.67,3.85-1.92,1.59-2.12,1.17-5.14-.95-6.74Z"/><path class="cls-1" d="M115.1.96c-2.12-1.59-5.13-1.15-6.72.96-1.59,2.12-1.17,5.14.94,6.74.88.66,21.31,16.5,21.31,47.18s-20.44,46.54-21.31,47.2c-2.12,1.59-2.55,4.61-.96,6.73.95,1.26,2.39,1.93,3.85,1.93,1.01,0,2.02-.31,2.88-.96,1.03-.77,25.17-19.24,25.17-54.9S116.13,1.73,115.1.96Z"/></svg>