<?xml version="1.0" encoding="UTF-8"?><svg id="Layer_1" xmlns="http://www.w3.org/2000/svg" viewBox="0 0 163.99 163.87"><defs><style>.cls-1{fill:#fefefe;}</style></defs><path class="cls-1" d="M79.47,84.51c10.84,10.83,25.43,15.58,39.57,14.29l-76.3,49.04c1.98-7.28.13-15.4-5.59-21.12-5.73-5.74-13.85-7.59-21.13-5.59l49.21-76.56c-1.43,14.25,3.32,29.02,14.24,39.94ZM137.23,26.75c12.57,12.57,12.57,32.95,0,45.51-12.58,12.57-32.95,12.57-45.52,0-12.56-12.56-12.56-32.94,0-45.51,12.55-12.56,32.93-12.56,45.5,0ZM14.55,149.33c-3.99-3.99-3.99-10.45,0-14.43,3.98-3.98,10.43-3.98,14.42,0,3.98,3.98,3.98,10.43,0,14.41-3.99,3.99-10.44,3.99-14.42.01ZM70.58,26.59L5.97,127.11h.03c-8.11,8.54-8.01,22.02.36,30.4,8.37,8.37,21.85,8.47,30.38.35v.03s99.28-63.82,99.28-63.82c4.85-2.35,9.41-5.53,13.46-9.56,19.33-19.34,19.33-50.67,0-70.02-19.33-19.33-50.68-19.33-70.01,0-3.66,3.66-6.61,7.74-8.89,12.09Z"/></svg>