<?xml version="1.0" encoding="UTF-8"?><svg id="Layer_1" xmlns="http://www.w3.org/2000/svg" viewBox="0 0 117.8 117.8"><defs><style>.cls-1{fill:#fefefe;}</style></defs><path class="cls-1" d="M107.63,107.62H10.17V10.16h97.46v97.46ZM108.23,0H9.57C4.3,0,0,4.29,0,9.56v98.67c0,5.27,4.3,9.57,9.57,9.57h98.66c5.27,0,9.57-4.3,9.57-9.57V9.56c0-5.27-4.3-9.56-9.57-9.56Z"/><polygon class="cls-1" points="62.95 95.13 72.82 95.13 72.82 91.23 62.95 91.23 62.95 41.66 44.99 41.66 44.99 45.57 56 45.57 56 91.23 44.99 91.23 44.99 95.13 62.95 95.13"/><path class="cls-1" d="M58.9,37.24c3.43,0,6.21-2.78,6.21-6.21s-2.78-6.22-6.21-6.22-6.21,2.78-6.21,6.22,2.77,6.21,6.21,6.21Z"/></svg>