<?xml version="1.0" encoding="UTF-8"?><svg id="Layer_1" xmlns="http://www.w3.org/2000/svg" viewBox="0 0 121.21 124.28"><defs><style>.cls-1{fill:#fab639;}</style></defs><path class="cls-1" d="M48.04,6.05h31.17c2.06,1.56,5.97,7.77,9,13.66h-49.17c3.02-5.9,6.93-12.11,9-13.66ZM100.61,20.18h-5.52l.04-.11-.6-1.22c-1.83-3.77-8.19-16.24-13.24-18.57l-.6-.28h-34.13l-.6.28c-5.05,2.33-11.41,14.8-13.24,18.57l-.6,1.22.04.11h-5.52c-1.67,0-3.02,1.17-3.02,2.62v2.8c0,1.45,1.35,2.63,3.02,2.63h1.75c-.17.88-.3,1.8-.3,2.75v12.51c0,3.76,1.5,7.07,3.78,9.11v10.34c0,1.67,1.35,3.02,3.02,3.02h6.81c1.67,0,3.02-1.35,3.02-3.02v-8.19h37.79v8.19c0,1.67,1.35,3.02,3.02,3.02h6.8c1.67,0,3.03-1.35,3.03-3.02v-10.34c2.28-2.04,3.77-5.35,3.77-9.11v-12.51c0-.95-.12-1.86-.3-2.75h1.75c1.67,0,3.02-1.18,3.02-2.63v-2.8c0-1.45-1.35-2.62-3.02-2.62Z"/><path class="cls-1" d="M41.39,76.1s1.42.25,3.78.94c1.18.4,2.61.89,4.23,1.7,1.6.86,3.46,1.88,5.2,4.08.89,1.03,1.59,2.69,1.7,4.55.03.89-.17,1.83-.38,2.71l-.51,1.18-.28.59-.15.3-.29.41-.25.35c-.06.1-.17.25-.38.48-.35.37-.82.85-1.14,1.09-.67.56-1.35,1-2.04,1.4-1.38.72-2.74,1.23-4.1,1.67-5.37,1.69-10.79,2.21-15.84,3.21-2.47.51-4.91,1.02-6.68,1.8-.85.37-1.47.82-1.65,1.04-.16.25-.08.05-.1.35v.02c.02.38-.04-.53-.04-.42v.02s.01.07.01.07l.02.22.04.47.11.93c.01.4.1.39.14.53.05.12.09.23.11.36-.03.2.28.69.39,1.03.12.38.35.76.56,1.14.83,1.54,1.96,3.04,3.14,4.38,2.34,2.72,4.74,4.96,6.43,6.51,1.7,1.6,2.66,2.51,2.66,2.51l.02.02c.59.56.62,1.49.07,2.08-.33.35-.8.5-1.25.45,0,0-1.48-.17-3.88-.93-1.18-.4-2.62-.91-4.2-1.69-1.59-.78-3.37-1.72-5.17-3.1-1.81-1.34-3.71-3.04-5.36-5.4-.43-.58-.84-1.18-1.17-1.9-.35-.74-.73-1.26-1.03-2.26-.15-.46-.3-.93-.41-1.4-.12-.45-.28-1.03-.29-1.25l-.12-.93-.07-.46-.03-.23v-.06s0-.04,0-.04l-.03-.48v-.22c-.07-2.22,1.01-4.98,2.64-6.59,1.61-1.68,3.32-2.56,4.88-3.22,3.14-1.23,6.01-1.77,8.81-2.13,5.56-.74,10.9-.99,15.3-1.82,2.17-.47,3.93-1.07,4.6-1.81.64-.76.86-1.2.38-2.36-.52-1.14-1.77-2.31-2.89-3.22-1.14-.95-2.31-1.67-3.27-2.25-1.93-1.2-3.09-1.74-3.09-1.74-.71-.33-1.01-1.17-.69-1.88.28-.59.91-.9,1.52-.8h.02Z"/><path class="cls-1" d="M88.73,76.1s1.41.25,3.77.94c1.18.4,2.61.89,4.23,1.7,1.6.86,3.45,1.88,5.2,4.08.88,1.03,1.59,2.69,1.7,4.55.02.89-.17,1.83-.38,2.71l-.51,1.18-.28.59-.14.3-.29.41-.25.35c-.06.1-.17.25-.38.48-.35.37-.81.85-1.14,1.09-.67.56-1.35,1-2.04,1.4-1.38.72-2.74,1.23-4.1,1.67-5.38,1.69-10.79,2.21-15.84,3.21-2.48.51-4.92,1.02-6.68,1.8-.85.37-1.48.82-1.65,1.04-.17.25-.08.05-.1.35v.02c.02.38-.04-.53-.04-.42v.02s0,.07,0,.07l.03.22.04.47.1.93c.01.4.11.39.15.53.05.12.09.23.11.36-.03.2.27.69.39,1.03.12.38.34.76.56,1.14.83,1.54,1.96,3.04,3.14,4.38,2.35,2.72,4.75,4.96,6.43,6.51,1.7,1.6,2.67,2.51,2.67,2.51l.02.02c.59.56.62,1.49.06,2.08-.33.35-.8.5-1.25.45,0,0-1.47-.17-3.87-.93-1.18-.4-2.63-.91-4.2-1.69-1.59-.78-3.37-1.72-5.17-3.1-1.81-1.34-3.72-3.04-5.36-5.4-.43-.58-.84-1.18-1.18-1.9-.34-.74-.72-1.26-1.02-2.26-.15-.46-.3-.93-.42-1.4-.12-.45-.28-1.03-.28-1.25l-.12-.93-.06-.46-.04-.23v-.09s-.04-.48-.04-.48v-.22c-.06-2.22,1.01-4.98,2.64-6.59,1.6-1.68,3.32-2.56,4.88-3.22,3.14-1.23,6.01-1.77,8.82-2.13,5.56-.74,10.9-.99,15.3-1.82,2.17-.47,3.93-1.07,4.6-1.81.64-.76.86-1.2.38-2.36-.53-1.14-1.77-2.31-2.89-3.22-1.14-.95-2.31-1.67-3.26-2.25-1.94-1.2-3.1-1.74-3.1-1.74-.71-.33-1.01-1.17-.68-1.88.28-.59.91-.9,1.52-.8h.03Z"/><path class="cls-1" d="M.61,13.48c-.72-.62-.82-1.73-.2-2.46l3.26-3.81c.62-.73,1.73-.82,2.46-.2l114.46,97.85c.74.62.83,1.73.2,2.47l-3.25,3.81c-.62.72-1.74.81-2.46.19L.61,13.48Z"/></svg>