<?xml version="1.0" encoding="UTF-8"?><svg id="Layer_1" xmlns="http://www.w3.org/2000/svg" viewBox="0 0 171.82 124.04"><defs><style>.cls-1{fill:#fefefe;}</style></defs><path class="cls-1" d="M5.66,75.54c3.16,6.94,11.11,10.12,17.76,7.08l4.51-2.05c4.14,5.17,11.38,7.09,17.67,4.22,6.3-2.86,9.61-9.58,8.43-16.09l44.88-20.42c4.14,5.16,11.38,7.08,17.68,4.21,6.3-2.86,9.6-9.58,8.42-16.1l2.51-1.14c6.66-3.03,9.49-11.11,6.33-18.05l-1.09-2.39c-3.17-6.95-11.12-10.11-17.77-7.08l-5.81,2.64-3.51,1.6-13.29-6.23-.28-.59-.5.23-11.45-5.37-37,16.84-10.9,28.54-3.17,1.44-15.18,6.92-3.01,1.37c-6.66,3.02-9.48,11.11-6.32,18.05l1.09,2.4Z"/><rect class="cls-1" x="-6.55" y="77.65" width="184.93" height="8.47" transform="translate(-26.2 42.94) rotate(-24.47)"/></svg>