<?xml version="1.0" encoding="UTF-8"?><svg id="Layer_1" xmlns="http://www.w3.org/2000/svg" viewBox="0 0 129.02 113.53"><defs><style>.cls-1{fill:#fefefe;}</style></defs><path class="cls-1" d="M64.51,90.58c7.12,0,13.97,2.31,19.61,6.55l37.47-41.18c-15.94-13.54-36.09-20.96-57.08-20.96s-41.14,7.42-57.08,20.96l37.47,41.18c5.64-4.24,12.49-6.55,19.6-6.55ZM84.42,104.41c-.74,0-1.48-.26-2.06-.8-4.9-4.46-11.24-6.9-17.85-6.9s-12.95,2.45-17.84,6.9c-1.25,1.14-3.19,1.05-4.33-.2L.79,57.76c-.54-.6-.83-1.4-.79-2.21.04-.81.4-1.57,1-2.12,17.41-15.84,39.97-24.57,63.5-24.57s46.09,8.72,63.51,24.57c.6.55.96,1.31,1,2.12.04.81-.25,1.61-.79,2.21l-41.54,45.65c-.61.67-1.44,1-2.27,1Z"/><path class="cls-1" d="M36.23,3.97l3.75,4.85c2.3-1.79,5.38-2.69,9.14-2.69.88,0,1.73.08,2.53.24l1.18-6.01c-1.18-.23-2.43-.35-3.71-.35-5.15,0-9.49,1.33-12.89,3.97Z"/><path class="cls-1" d="M32.03,8.65c-3.24,5.16-3.72,11.22-3.72,14.38,0,1.09.06,1.77.07,1.85l6.1-.55s-.04-.49-.04-1.3c0-2.01.27-7.11,2.78-11.12l-5.19-3.26Z"/><path class="cls-1" d="M67.56,23.41v-.16l-3.06.09-3.05-.09v.16h-.02c0,.05,0,.09,0,.13v7.4s6.13,0,6.13,0v-6.45h0s0-.17,0-.39c0-.18,0-.41.01-.67h-.02Z"/><path class="cls-1" d="M64.51,9.74c-1.44-2.93-3.38-5.27-5.72-6.9l-3.5,5.03c3.54,2.46,5.03,7.2,5.67,10.76l3.56-.64,3.56.64c.62-3.56,2.12-8.3,5.67-10.76l-3.5-5.03c-2.35,1.63-4.28,3.96-5.73,6.9Z"/><path class="cls-1" d="M96.99,8.65l-5.19,3.26c2.52,4.01,2.79,9.11,2.79,11.12,0,.8-.04,1.3-.04,1.3l6.1.55c0-.07.07-.76.07-1.85,0-3.16-.49-9.22-3.72-14.38Z"/><path class="cls-1" d="M79.9,0c-1.28,0-2.53.12-3.71.35l1.18,6.01c.79-.16,1.64-.24,2.53-.24,3.76,0,6.83.91,9.13,2.69l3.76-4.85c-3.4-2.64-7.74-3.97-12.89-3.97Z"/><rect class="cls-1" x="61.45" y="36.02" width="6.12" height="14.41"/><rect class="cls-1" x="61.45" y="55.51" width="6.12" height="14.41"/><rect class="cls-1" x="61.45" y="75" width="6.12" height="7.44"/><path class="cls-1" d="M64.51,110.37c-1.02,0-2.01-.51-2.59-1.43L28.39,55.83c-.91-1.43-.48-3.33.96-4.22,1.43-.91,3.33-.47,4.22.96l33.53,53.11c.9,1.43.48,3.33-.96,4.23-.51.32-1.07.47-1.63.47Z"/><path class="cls-1" d="M70.74,107.3c0,3.44-2.79,6.23-6.23,6.23s-6.22-2.79-6.22-6.23,2.79-6.22,6.22-6.22,6.23,2.79,6.23,6.22Z"/></svg>