<?xml version="1.0" encoding="UTF-8"?><svg id="Layer_1" xmlns="http://www.w3.org/2000/svg" viewBox="0 0 140.26 111.69"><defs><style>.cls-1{fill:#fab639;}</style></defs><path class="cls-1" d="M70.13,14.2c-22.96,0-41.65,18.68-41.65,41.65s18.68,41.66,41.65,41.66,41.65-18.69,41.65-41.66S93.09,14.2,70.13,14.2ZM70.13,107.13c-28.27,0-51.27-23.01-51.27-51.28S41.86,4.57,70.13,4.57s51.28,23,51.28,51.28-23,51.28-51.28,51.28Z"/><path class="cls-1" d="M76.77,67.66c0,1.93-1.57,3.51-3.51,3.51h-5.03c-1.93,0-3.51-1.57-3.51-3.51V24.99c0-1.93,1.57-3.5,3.51-3.5h5.03c1.93,0,3.51,1.56,3.51,3.5v42.67Z"/><path class="cls-1" d="M76.77,86.41c0,1.93-1.57,3.5-3.51,3.5h-5.03c-1.93,0-3.51-1.56-3.51-3.5v-5.03c0-1.94,1.57-3.51,3.51-3.51h5.03c1.93,0,3.51,1.56,3.51,3.51v5.03Z"/><path class="cls-1" d="M28.03,111.69c-1,0-2.01-.31-2.88-.96-1.02-.78-25.16-19.23-25.16-54.88S24.13,1.73,25.16.96c2.13-1.59,5.15-1.16,6.74.97,1.59,2.12,1.16,5.14-.96,6.73-.88.67-21.31,16.52-21.31,47.19s20.44,46.52,21.31,47.18c2.12,1.6,2.54,4.61.95,6.74-.95,1.25-2.39,1.92-3.85,1.92Z"/><path class="cls-1" d="M112.23,111.69c-1.47,0-2.91-.67-3.86-1.93-1.59-2.13-1.16-5.14.96-6.73.88-.67,21.31-16.52,21.31-47.2s-20.44-46.52-21.31-47.18c-2.12-1.6-2.54-4.61-.95-6.74,1.59-2.12,4.6-2.56,6.73-.96,1.02.77,25.15,19.23,25.15,54.88s-24.13,54.12-25.15,54.9c-.87.64-1.88.96-2.88.96Z"/></svg>