<?xml version="1.0" encoding="UTF-8"?><svg id="Layer_1" xmlns="http://www.w3.org/2000/svg" viewBox="0 0 117.25 91.55"><defs><style>.cls-1{fill:#fab639;}</style></defs><path class="cls-1" d="M31.98,23.12v-12.42c0-1.94.07-3.89.19-5.84h-.19c-1.24,2.17-2.24,3.78-3.35,5.5l-9.87,12.64v.12h13.23ZM31.98,37.19v-10.13H13.22v-3.32L31.24,0h5.9v23.12h5.65v3.95h-5.65v10.13h-5.16Z"/><path class="cls-1" d="M51.24,9.5l4.29,5.95c1.12,1.54,2.06,2.97,3.04,4.52h.19c1-1.66,1.98-3.09,2.98-4.58l4.22-5.9h5.9l-10.25,13.39,10.55,14.31h-6.21l-4.41-6.24c-1.18-1.6-2.17-3.14-3.23-4.8h-.12c-.99,1.66-2.05,3.14-3.17,4.8l-4.35,6.24h-6.03l10.69-14.13-10.19-13.56h6.09Z"/><path class="cls-1" d="M92.62,23.12v-12.42c0-1.94.07-3.89.19-5.84h-.19c-1.24,2.17-2.24,3.78-3.35,5.5l-9.88,12.64v.12h13.24ZM92.62,37.19v-10.13h-18.76v-3.32L91.87,0h5.9v23.12h5.65v3.95h-5.65v10.13h-5.16Z"/><path class="cls-1" d="M19.2,74.93l-3.33-11.08c-.75-2.52-1.25-4.8-1.76-7.03h-.1c-.5,2.28-1.06,4.63-1.71,6.97l-3.33,11.13h10.23ZM8.06,78.81l-3.53,12.11H0l11.54-38.5h5.28l11.59,38.5h-4.69l-3.62-12.11h-12.04Z"/><path class="cls-1" d="M36.37,52.43v22.79c0,8.62,3.38,12.27,7.91,12.27,5.03,0,8.26-3.77,8.26-12.27v-22.79h4.43v22.44c0,11.82-5.49,16.68-12.85,16.68-6.95,0-12.18-4.51-12.18-16.44v-22.67h4.43Z"/><polygon class="cls-1" points="71.01 56.65 60.68 56.65 60.68 52.43 85.82 52.43 85.82 56.65 75.45 56.65 75.45 90.92 71.01 90.92 71.01 56.65"/><path class="cls-1" d="M90.91,71.9c0,8.22,3.93,15.59,10.83,15.59s10.87-7.25,10.87-15.99c0-7.65-3.52-15.65-10.82-15.65s-10.88,7.59-10.88,16.05ZM117.25,71.27c0,13.25-7.1,20.28-15.76,20.28s-15.26-7.88-15.26-19.53c0-12.22,6.7-20.22,15.76-20.22s15.26,8.06,15.26,19.47Z"/></svg>