<?xml version="1.0" encoding="UTF-8"?><svg id="Layer_1" xmlns="http://www.w3.org/2000/svg" viewBox="0 0 178.18 83.85"><defs><style>.cls-1{fill:#fefefe;}</style></defs><path class="cls-1" d="M161.44,31.49h-12.98l-23.12-27.15h-51.4l-12.03,11.85,15.81,9.73,3.48-5.63,9.57,17.72-20.12-.58,3.48-5.67-17.24-10.65-10.49,10.38h-29.68C7.48,31.49,0,39.28,0,48.94v3.32c0,9.66,7.48,17.48,16.73,17.48h6.25c2.09,8.09,9.4,14.1,18.18,14.1s16.05-6.01,18.12-14.1h62.36c2.09,8.09,9.4,14.1,18.13,14.1s16.09-6.01,18.14-14.1h3.52c9.21,0,16.73-7.82,16.73-17.48v-3.32c0-9.66-7.52-17.45-16.73-17.45Z"/><polygon class="cls-1" points="61.92 16.19 56.9 21.11 32.11 5.81 35.73 0 61.92 16.19"/></svg>