<?xml version="1.0" encoding="UTF-8"?><svg id="Layer_1" xmlns="http://www.w3.org/2000/svg" viewBox="0 0 146.75 95.56"><defs><style>.cls-1{fill:#e52a2d;}</style></defs><path class="cls-1" d="M126.2,33.95h-19.64c-1.38-5.15-4.77-12.49-13.05-17.05,3.4-4.46,8.48-7.28,14.15-7.28,10.25,0,18.55,9.19,18.55,20.54v3.79ZM118.59,83.77h-21.87l5.74-18.74c-3.73-1.9-6.29-5.76-6.29-10.23,0-6.35,5.14-11.48,11.47-11.48s11.48,5.14,11.48,11.48c0,4.47-2.56,8.33-6.28,10.23l5.74,18.74ZM89.12,30.17c0-2.85.52-5.56,1.47-8.03,5.33,3.39,7.9,8.11,9.14,11.82h-10.61v-3.79ZM78.85,25.42v8.19h-10.27v5.34H20.11c.35-3.56,2.78-17.02,19.49-20.42h40.23c-.64,2.19-.99,4.5-.99,6.89ZM136.47,33.61v-8.19c0-14.04-11.88-25.42-26.53-25.42h-4.57c-10.24,0-19.12,5.57-23.54,13.71h-45.65c-15.02,3.22-20.12,13.8-21.86,20.47-.12-.01-.25-.04-.38-.04H4.45c-2.46,0-4.45,2-4.45,4.46s1.99,4.45,4.45,4.45h4.28c-4.24,3.65-6.98,9.41-6.98,15.9,0,7.83,3.99,14.6,9.8,17.89-.38.8-.61,1.7-.61,2.66v9.95c0,3.38,2.75,6.13,6.13,6.13h7.61c3.38,0,6.13-2.75,6.13-6.13v-9.95c0-.19-.01-.38-.03-.56h37.8v13.74h78.17v-59.05h-10.27Z"/></svg>