<?xml version="1.0" encoding="UTF-8"?><svg id="Layer_1" xmlns="http://www.w3.org/2000/svg" viewBox="0 0 151.72 91"><defs><style>.cls-1{fill:#fab639;}</style></defs><path class="cls-1" d="M117.75,52.16c0,17.47-7.58,29.64-14.38,29.64s-14.38-12.17-14.38-29.64,7.58-29.64,14.38-29.64,14.38,12.18,14.38,29.64ZM62.76,52.16c0,17.47-7.61,29.64-14.41,29.64s-14.38-12.17-14.38-29.64,7.58-29.64,14.38-29.64,14.41,12.18,14.41,29.64ZM151.31,28.34c-.36-.78-8.88-19.01-24.62-22.45-7.27-1.6-14.68.18-22.09,5.27-3.89-4.82-12.16-11.16-28.57-11.16s-24.87,6.4-28.84,11.21c-7.41-5.13-14.85-6.91-22.15-5.32C9.29,9.33.77,27.56.43,28.34c-1.09,2.3-.06,5.03,2.25,6.09,2.3,1.06,5.03.04,6.11-2.27.06-.14,7.08-14.87,18.21-17.3,3.67-.8,7.52-.16,11.55,1.88-8.19,6.03-13.77,19.43-13.77,35.41,0,21.78,10.36,38.84,23.57,38.84s23.59-17.06,23.59-38.84c0-17.38-6.61-31.74-16.02-36.82,3.22-2.86,9.24-6.15,20.1-6.15s16.77,3.25,19.88,6.09c-9.47,5.03-16.1,19.44-16.1,36.89,0,21.78,10.35,38.84,23.57,38.84s23.57-17.06,23.57-38.84c0-15.98-5.58-29.38-13.76-35.41,3.99-2.03,7.85-2.68,11.52-1.89,11.27,2.44,18.18,17.17,18.26,17.31.75,1.69,2.45,2.69,4.17,2.69.64,0,1.3-.14,1.92-.42,2.3-1.06,3.33-3.79,2.27-6.09Z"/></svg>