<?xml version="1.0" encoding="UTF-8"?><svg id="Layer_1" xmlns="http://www.w3.org/2000/svg" viewBox="0 0 128.14 81.85"><defs><style>.cls-1{fill:#149459;}</style></defs><path class="cls-1" d="M116.12,19.52h-9.33L90.17,0h-36.98l-19.79,19.52H12.05c-6.66,0-12.05,5.63-12.05,12.57v2.39c0,6.94,5.38,12.57,12.05,12.57h4.5c1.5,5.83,6.74,10.15,13.05,10.15s11.58-4.32,13.05-10.15h44.86c1.5,5.83,6.77,10.15,13.05,10.15s11.58-4.32,13.05-10.15h2.53c6.63,0,12.02-5.63,12.02-12.57v-2.39c0-6.94-5.39-12.57-12.02-12.57Z"/><path class="cls-1" d="M117.01,71.94c.03-.07.03-.14.03-.22,0-.05.03-.09.03-.13v-.17s-.03-.09-.03-.12c0-.08,0-.16-.03-.22,0-.03,0-.05-.03-.07,0-.06-.03-.12-.03-.17-.02-.01-.02-.04-.02-.05h0c-.03-.08-.06-.15-.12-.21,0-.03-.02-.07-.05-.1-.03-.06-.06-.11-.12-.16-.03-.04-.03-.07-.05-.09-.06-.05-.12-.11-.17-.15v-.03l-9.11-8.35c-.8-.75-2.09-.69-2.83.12-.72.81-.7,2.07.14,2.82l5.33,4.89H18.21l5.33-4.89c.8-.75.85-2.01.11-2.82-.75-.81-2-.87-2.83-.12l-9.11,8.35v.03c-.05.04-.11.1-.14.15-.03.03-.06.06-.08.09-.03.05-.09.1-.12.16-.03.04-.03.07-.05.1-.03.07-.09.13-.12.2h0v.06c-.03.06-.05.12-.05.17,0,.02-.03.04-.03.07-.03.07-.03.14-.03.22v.12s-.03.05-.03.08,0,.06.03.09v.13c0,.07,0,.14.03.22,0,.02.03.05.03.07,0,.06.02.12.05.17v.07c.03.07.09.12.12.2.02.03.02.07.05.09.03.06.06.12.12.17.02.03.05.06.08.09.03.05.09.1.14.15v.02l9.11,8.36c.39.35.89.52,1.36.52.53,0,1.08-.22,1.47-.64.75-.82.7-2.08-.11-2.82l-5.33-4.89h91.75l-5.33,4.89c-.83.74-.86,2-.14,2.82.41.43.94.64,1.47.64.5,0,.97-.17,1.36-.52l9.11-8.36v-.02c.05-.05.11-.1.17-.15.02-.04.02-.07.05-.09.06-.05.09-.11.12-.17.03-.03.05-.07.05-.09.06-.07.09-.13.12-.2v-.02s0-.03.02-.05c0-.05.03-.11.03-.17.03-.02.03-.05.03-.07Z"/></svg>