<?xml version="1.0" encoding="UTF-8"?><svg id="Layer_1" xmlns="http://www.w3.org/2000/svg" viewBox="0 0 119.23 64.28"><defs><style>.cls-1{fill:#fefefe;}</style></defs><rect class="cls-1" y="35.28" width="18.86" height="6"/><path class="cls-1" d="M32.06,32.51c0,13.29,5.95,25.21,16.41,25.21s16.49-11.73,16.49-25.86c0-12.37-5.35-25.3-16.41-25.3s-16.49,12.28-16.49,25.96ZM71.99,31.49c0,21.42-10.76,32.79-23.9,32.79s-23.13-12.75-23.13-31.59C24.96,12.93,35.11,0,48.85,0s23.13,13.03,23.13,31.49Z"/><path class="cls-1" d="M80.61,63.27V1.01h7.25l16.5,31.5c3.81,7.3,6.79,13.85,9.23,20.22l.16-.09c-.62-8.32-.77-15.89-.77-25.59V1.01h6.26v62.25h-6.72l-16.34-31.59c-3.59-6.93-7.02-14.04-9.62-20.78l-.23.09c.38,7.84.54,15.32.54,25.67v26.6h-6.26Z"/></svg>