<?xml version="1.0" encoding="UTF-8"?><svg id="Layer_1" xmlns="http://www.w3.org/2000/svg" viewBox="0 0 149.04 71.87"><defs><style>.cls-1{fill:#149459;}</style></defs><path class="cls-1" d="M98.69,9.95c-.94,0-1.7.13-2.25.39l-.22.09c-4.77,1.9-11.66,12.07-11.66,25.5s6.92,23.6,11.66,25.49l.22.09c.56.26,1.31.39,2.25.39,2.17,0,3.75-.48,4.69-1.43,1.08-1.12,1.16-2.75,1.16-2.77V14.21c-.02-1.58-.83-4.26-5.85-4.26ZM98.69,69.8c-2.06,0-3.89-.37-5.5-1.09-8.14-3.32-16.49-16.44-16.49-32.77S85.05,6.49,93.19,3.17c1.59-.72,3.44-1.09,5.5-1.09,4.35,0,7.8,1.28,10.27,3.79,3.44,3.47,3.47,7.91,3.47,8.41v43.39c0,.43-.03,4.88-3.47,8.35-2.47,2.51-5.92,3.78-10.27,3.78Z"/><path class="cls-1" d="M145.1,39.87h-23.35c-2.19,0-3.94-1.76-3.94-3.93s1.75-3.94,3.94-3.94h23.35c2.2,0,3.94,1.76,3.94,3.94s-1.75,3.93-3.94,3.93Z"/><path class="cls-1" d="M122.61,17.62c-1.5,0-2.91-.86-3.58-2.32-.89-1.98,0-4.31,1.97-5.21L142.6.35c2-.89,4.33-.01,5.22,1.97.88,1.98,0,4.32-1.97,5.21l-21.6,9.74c-.53.24-1.08.35-1.64.35Z"/><path class="cls-1" d="M144.21,71.87c-.52,0-1.08-.11-1.61-.35l-21.59-9.74c-1.97-.89-2.86-3.22-1.97-5.21.88-1.98,3.22-2.87,5.22-1.97l21.6,9.74c1.97.89,2.85,3.22,1.97,5.21-.67,1.46-2.12,2.32-3.61,2.32Z"/><path class="cls-1" d="M98.69,9.95c-.94,0-1.7.13-2.25.39l-.22.09c-4.74,1.9-11.66,12.06-11.66,25.5s6.89,23.59,11.66,25.49l.22.09c.56.26,1.31.39,2.25.39,2.17,0,3.75-.48,4.69-1.43,1.08-1.12,1.16-2.75,1.16-2.77V14.21c-.02-1.58-.83-4.26-5.85-4.26ZM98.69,69.8c-2.06,0-3.91-.37-5.5-1.09-8.14-3.33-16.49-16.44-16.49-32.77S85.05,6.48,93.19,3.17c1.61-.72,3.44-1.09,5.5-1.09,4.35,0,7.8,1.28,10.27,3.79,3.44,3.47,3.47,7.91,3.47,8.41v43.39c0,.43-.03,4.88-3.47,8.35-2.47,2.51-5.92,3.78-10.27,3.78Z"/><path class="cls-1" d="M145.1,39.87h-23.35c-2.19,0-3.94-1.76-3.94-3.93s1.75-3.94,3.94-3.94h23.35c2.2,0,3.94,1.76,3.94,3.94s-1.75,3.93-3.94,3.93Z"/><path class="cls-1" d="M144.21,71.87c-.52,0-1.08-.11-1.61-.35l-21.59-9.74c-1.97-.89-2.86-3.22-1.97-5.21.88-1.98,3.22-2.87,5.22-1.97l21.6,9.74c1.97.89,2.85,3.22,1.97,5.21-.67,1.46-2.12,2.32-3.61,2.32Z"/><path class="cls-1" d="M122.61,17.62c-1.5,0-2.91-.86-3.58-2.32-.89-1.98,0-4.31,1.97-5.21L142.6.35c2-.89,4.33-.01,5.22,1.97.88,1.98,0,4.32-1.97,5.21l-21.6,9.74c-.53.24-1.08.35-1.64.35Z"/><path class="cls-1" d="M50.33,9.95c-5,0-5.8,2.68-5.83,4.27v43.44c.03,1.58.83,4.25,5.83,4.25.94,0,1.72-.13,2.27-.39l.22-.09c4.75-1.89,11.66-12.06,11.66-25.49s-6.91-23.6-11.66-25.5l-.22-.09c-.56-.26-1.33-.39-2.27-.39ZM50.33,69.8c-4.33,0-7.8-1.28-10.27-3.78-3.42-3.48-3.44-7.92-3.44-8.41V14.21c0-.44.02-4.88,3.44-8.35,2.47-2.51,5.94-3.79,10.27-3.79,2.08,0,3.91.37,5.52,1.09,8.14,3.33,16.49,16.44,16.49,32.77s-8.35,29.45-16.52,32.77c-1.58.72-3.41,1.09-5.49,1.09Z"/><path class="cls-1" d="M27.29,39.87H3.91c-2.16,0-3.91-1.76-3.91-3.93s1.75-3.94,3.91-3.94h23.38c2.19,0,3.94,1.76,3.94,3.94s-1.75,3.93-3.94,3.93Z"/><path class="cls-1" d="M26.4,17.62c-.53,0-1.08-.11-1.61-.35L3.19,7.53c-1.97-.89-2.86-3.22-1.97-5.21C2.11.33,4.44-.54,6.44.35l21.59,9.74c1.97.9,2.86,3.23,1.97,5.21-.67,1.46-2.11,2.32-3.61,2.32Z"/><path class="cls-1" d="M4.83,71.87c-1.53,0-2.94-.86-3.61-2.32-.89-1.98,0-4.32,1.97-5.21l21.59-9.74c1.97-.9,4.33,0,5.22,1.97.89,1.98,0,4.32-1.97,5.21l-21.59,9.74c-.53.24-1.08.35-1.61.35Z"/><path class="cls-1" d="M50.33,9.95c-5,0-5.8,2.68-5.83,4.27v43.44c.03,1.58.83,4.25,5.83,4.25.94,0,1.72-.13,2.27-.39l.22-.09c4.75-1.9,11.66-12.07,11.66-25.49s-6.91-23.6-11.66-25.5l-.22-.09c-.56-.26-1.33-.39-2.27-.39ZM50.33,69.8c-4.33,0-7.8-1.28-10.27-3.78-3.42-3.48-3.44-7.92-3.44-8.41V14.21c0-.44.02-4.88,3.44-8.35,2.47-2.51,5.94-3.79,10.27-3.79,2.08,0,3.91.37,5.49,1.09,8.16,3.32,16.52,16.44,16.52,32.77s-8.35,29.44-16.49,32.77c-1.61.72-3.44,1.09-5.52,1.09Z"/><path class="cls-1" d="M27.29,39.87H3.91c-2.16,0-3.91-1.76-3.91-3.93s1.75-3.94,3.91-3.94h23.38c2.19,0,3.94,1.76,3.94,3.94s-1.75,3.93-3.94,3.93Z"/><path class="cls-1" d="M4.83,71.87c-1.53,0-2.94-.86-3.61-2.32-.89-1.98,0-4.32,1.97-5.21l21.59-9.74c1.97-.9,4.33,0,5.22,1.97.89,1.98,0,4.32-1.97,5.21l-21.59,9.74c-.53.24-1.08.35-1.61.35Z"/><path class="cls-1" d="M26.4,17.62c-.53,0-1.08-.11-1.61-.35L3.19,7.53c-1.97-.89-2.86-3.22-1.97-5.21C2.11.33,4.44-.54,6.44.35l21.59,9.74c1.97.9,2.86,3.23,1.97,5.21-.67,1.46-2.11,2.32-3.61,2.32Z"/></svg>