<?xml version="1.0" encoding="UTF-8"?><svg id="Layer_1" xmlns="http://www.w3.org/2000/svg" viewBox="0 0 136.09 128.42"><defs><style>.cls-1{fill:#fefefe;}</style></defs><path class="cls-1" d="M10.28,93.05c-.29,0-1.16.83-1.16,2.43v21.41c0,1.58.87,2.42,1.16,2.42h84.66l.99-.27,1.08.18c1.26.25,2.47-.52,2.79-1.7l27.07-99.72c.17-.63.09-1.28-.23-1.84-.33-.56-.85-.96-1.46-1.14l-20.67-5.61c-1.29-.35-2.62.44-2.96,1.7l-22.3,82.14H10.28ZM94.95,128.42H10.28c-5.67,0-10.28-5.18-10.28-11.54v-21.41c0-6.38,4.61-11.55,10.28-11.55h62L92.75,8.52c1.36-5.01,5.93-8.52,11.13-8.52,1.02,0,2.04.14,3.04.41l20.66,5.61c2.98.8,5.46,2.73,6.99,5.4,1.54,2.68,1.93,5.8,1.12,8.77l-27.07,99.72c-1.35,4.99-5.93,8.49-11.13,8.49-.4,0-.82-.02-1.22-.07-.44.07-.88.1-1.32.1Z"/></svg>