<?xml version="1.0" encoding="UTF-8"?><svg id="Layer_1" xmlns="http://www.w3.org/2000/svg" viewBox="0 0 112.57 112.57"><defs><style>.cls-1{fill:#fab639;}</style></defs><path class="cls-1" d="M56.28,102c25.21,0,45.72-20.51,45.72-45.71S81.49,10.57,56.28,10.57,10.57,31.08,10.57,56.29s20.51,45.71,45.71,45.71ZM56.28,0c31.03,0,56.29,25.25,56.29,56.29s-25.25,56.28-56.29,56.28S0,87.32,0,56.29,25.25,0,56.28,0Z"/><path class="cls-1" d="M55.95,42.87c3.38,0,5.56-2.3,5.56-5.15-.07-2.98-2.17-5.22-5.49-5.22s-5.49,2.24-5.41,5.22c-.08,2.85,2.09,5.15,5.35,5.15Z"/><polygon class="cls-1" points="61.16 73.93 61.16 46.94 50.87 46.94 50.87 73.93 49.07 73.93 49.07 80.07 63.49 80.07 63.49 73.93 61.16 73.93"/></svg>