<?xml version="1.0" encoding="UTF-8"?><svg id="Layer_1" xmlns="http://www.w3.org/2000/svg" viewBox="0 0 161.97 112.54"><defs><style>.cls-1{fill:#fefefe;}</style></defs><path class="cls-1" d="M58.42,27.01l-1.09-4.09c-.33-1.24-1.62-1.98-2.85-1.65l-24.41,6.51c.72-.75,1.59-1.54,2.64-2.46,3.69-3.25,8.76-7.71,8.76-16.21,0-2.89-2.34-5.23-5.24-5.23s-5.24,2.34-5.24,5.23c0,3.61-1.69,5.25-5.2,8.35-3.33,2.92-7.74,6.82-8.6,13.76l-15.47,4.13c-1.24.33-1.98,1.61-1.64,2.84l1.09,4.1c.33,1.24,1.62,1.98,2.85,1.65l14.17-3.78c1.44,3.82,4.02,6.48,6.35,8.6L1.72,54.83c-1.24.33-1.98,1.62-1.64,2.85l1.09,4.1c.33,1.24,1.62,1.97,2.85,1.65l26.77-7.14c.12.59.21,1.2.21,1.91,0,3.62-1.69,5.26-5.2,8.35-.68.59-1.41,1.24-2.15,1.93l-21.91,5.85c-1.24.33-1.98,1.61-1.64,2.85l1.09,4.09c.33,1.24,1.62,1.98,2.85,1.65l13.31-3.56c-.18,1.06-.29,2.17-.29,3.38,0,2.56.46,4.77,1.22,6.68l-16.52,4.4c-1.24.33-1.98,1.61-1.64,2.85l1.09,4.1c.33,1.23,1.62,1.98,2.85,1.64l19.78-5.27c.69.64,1.36,1.25,2,1.8,3.51,3.09,5.2,4.74,5.2,8.35,0,2.89,2.35,5.24,5.24,5.24s5.24-2.35,5.24-5.24c0-6.28-2.75-10.34-5.69-13.34l20.99-5.61c1.24-.33,1.98-1.61,1.64-2.85l-1.09-4.09c-.33-1.24-1.62-1.98-2.85-1.65l-25.95,6.93c-.67-1.13-1.03-2.34-1.03-3.93,0-3.1,1.25-4.75,3.82-7.11l25.45-6.79c1.24-.33,1.98-1.62,1.64-2.85l-1.09-4.1c-.33-1.24-1.62-1.98-2.85-1.64l-13.89,3.7c.55-1.7.88-3.59.88-5.77,0-1.69-.21-3.22-.56-4.6l15.86-4.24c1.24-.33,1.98-1.62,1.64-2.85l-1.09-4.1c-.33-1.23-1.62-1.98-2.85-1.64l-18.02,4.81c-1.25-1.38-2.57-2.54-3.75-3.59-2.04-1.78-3.43-3.09-4.27-4.57l28.34-7.56c1.24-.33,1.98-1.61,1.64-2.85Z"/><path class="cls-1" d="M112.96,98.1l-.19.04c-2.85.73-6.4,1.11-10.57,1.11-22.57,0-24.22-7.9-24.31-8.46V18.93s0-.03.01-.05l.03.17-.02-.21c.22-1.03,2.54-8.37,24.29-8.37,4.17,0,7.73.38,10.58,1.12l.2.04c18.6,4.07,38.52,22.41,38.52,43.23s-19.93,39.17-38.54,43.24ZM115.31,1.42c-3.69-.94-8.09-1.42-13.1-1.42-14.31,0-24.49,2.98-30.22,8.85-4.31,4.43-4.57,8.9-4.56,10.01v72c0,1.1.25,5.59,4.56,10,5.73,5.88,15.9,8.87,30.22,8.87,5.01,0,9.41-.49,13.09-1.42,22.47-4.95,46.68-26.77,46.68-53.45S137.77,6.38,115.31,1.42Z"/></svg>