<?xml version="1.0" encoding="UTF-8"?><svg id="Layer_1" xmlns="http://www.w3.org/2000/svg" viewBox="0 0 192.63 66.89"><defs><style>.cls-1{fill:#fab639;}</style></defs><path class="cls-1" d="M29.48,42.28v-21.18c0-3.33.1-6.64.3-9.96h-.3c-1.95,3.71-3.51,6.44-5.27,9.37l-15.52,21.58v.19h20.8ZM29.48,66.3v-17.29H0v-5.66L28.32,2.83h9.27v39.45h8.88v6.74h-8.88v17.29h-8.11Z"/><path class="cls-1" d="M66.78,66.3L50.08.49h8.98l7.82,33.3c1.96,8.2,3.71,16.4,4.88,22.75h.2c1.07-6.54,3.12-14.35,5.37-22.85L86.11.49h8.88l8,33.4c1.86,7.8,3.61,15.62,4.59,22.55h.2c1.37-7.23,3.22-14.55,5.27-22.75L121.75.49h8.69l-18.65,65.81h-8.88l-8.29-34.27c-2.06-8.4-3.42-14.84-4.3-21.48h-.2c-1.17,6.54-2.63,12.98-5.08,21.48l-9.37,34.27h-8.89Z"/><path class="cls-1" d="M147.13,59.56c2.15.39,5.27.49,8.59.49,18.16,0,28.02-10.15,28.02-27.92.09-15.52-8.69-25.38-26.65-25.38-4.4,0-7.72.38-9.96.88v51.94ZM138.64,1.37c5.17-.78,11.32-1.37,18.06-1.37,12.2,0,20.89,2.83,26.65,8.21,5.86,5.37,9.28,12.98,9.28,23.62s-3.32,19.53-9.48,25.58c-6.15,6.15-16.31,9.48-29.09,9.48-6.05,0-11.13-.3-15.42-.78V1.37Z"/></svg>