<?xml version="1.0" encoding="UTF-8"?><svg id="Layer_1" xmlns="http://www.w3.org/2000/svg" viewBox="0 0 123.12 124.02"><defs><style>.cls-1{fill:#fefefe;}</style></defs><path class="cls-1" d="M61.55,66.7c-2.59,0-4.69-2.1-4.69-4.69s2.1-4.69,4.69-4.69,4.7,2.1,4.7,4.69-2.11,4.69-4.7,4.69ZM90.2,13.65c-20.6-.61-24.7,17.92-25.06,30.85-1.09-.2-2.19-.32-3.34-.32-2.01,0-3.95.35-5.76.97-1.43-1.37-2.11-3.19-2.3-5.4-.58-6.38,9.48-10.74,9.77-20.04.31-9.69-4.42-17.2-16.06-19.26C36.88-1.43,14.59,1.38,13.65,32.92c-.62,20.61,17.94,24.7,30.86,25.07-.28,1.27-.45,2.58-.45,3.94,0,2.14.39,4.17,1.09,6.06-1.38,1.43-3.19,2.1-5.4,2.3-6.37.58-10.74-9.48-20.04-9.78-9.69-.3-17.2,4.43-19.25,16.07-1.88,10.56.93,32.85,32.47,33.79,20.75.62,24.76-18.19,25.07-31.13,1.23.27,2.5.42,3.8.42,1.84,0,3.61-.28,5.28-.8,1.43,1.38,2.11,3.2,2.32,5.42.58,6.38-9.48,10.74-9.77,20.04-.31,9.69,4.42,17.2,16.06,19.26,10.55,1.88,32.85-.93,33.79-32.47.61-20.39-17.54-24.61-30.44-25.05.32-1.33.51-2.7.51-4.13,0-2.22-.43-4.32-1.17-6.28,1.32-1.17,3.01-1.73,5-1.91,6.37-.58,10.74,9.48,20.04,9.78,9.69.3,17.19-4.43,19.26-16.07,1.87-10.56-.94-32.85-32.48-33.79Z"/></svg>