<?xml version="1.0" encoding="UTF-8"?><svg id="Layer_1" xmlns="http://www.w3.org/2000/svg" viewBox="0 0 119.97 57.31"><defs><style>.cls-1{fill:#e52a2d;}</style></defs><path class="cls-1" d="M1.83,47.74c3.25,1.98,8,3.63,13,3.63,7.43,0,11.76-3.87,11.76-9.48,0-5.19-3-8.16-10.58-11.05C6.84,27.62,1.17,22.92,1.17,15.09,1.17,6.43,8.42,0,19.34,0c5.75,0,9.92,1.32,12.42,2.72l-2,5.86c-1.84-.99-5.59-2.64-10.67-2.64-7.68,0-10.59,4.54-10.59,8.33,0,5.19,3.42,7.75,11.17,10.72,9.5,3.62,14.34,8.16,14.34,16.33,0,8.57-6.42,16-19.67,16-5.42,0-11.34-1.56-14.34-3.54l1.83-6.03Z"/><path class="cls-1" d="M51.19,26.96h7.42c7.75,0,12.68-4.21,12.68-10.56,0-7.17-5.25-10.31-12.92-10.39-3.51,0-6.01.33-7.17.66v20.28ZM43.94,1.64c3.67-.74,8.92-1.15,13.92-1.15,7.75,0,12.76,1.41,16.26,4.54,2.83,2.48,4.42,6.27,4.42,10.56,0,7.34-4.67,12.21-10.59,14.18v.25c4.34,1.49,6.92,5.44,8.26,11.21,1.83,7.75,3.17,13.11,4.33,15.26h-7.5c-.92-1.56-2.17-6.35-3.75-13.28-1.67-7.66-4.67-10.56-11.26-10.8h-6.84v24.08h-7.25V1.64Z"/><path class="cls-1" d="M87.78,47.74c3.26,1.98,8,3.63,13.01,3.63,7.42,0,11.76-3.87,11.76-9.48,0-5.19-3.01-8.16-10.59-11.05-9.17-3.22-14.84-7.92-14.84-15.75,0-8.66,7.26-15.09,18.18-15.09,5.75,0,9.92,1.32,12.42,2.72l-2.01,5.86c-1.83-.99-5.58-2.64-10.66-2.64-7.67,0-10.59,4.54-10.59,8.33,0,5.19,3.42,7.75,11.17,10.72,9.5,3.62,14.34,8.16,14.34,16.33,0,8.57-6.43,16-19.68,16-5.42,0-11.34-1.56-14.34-3.54l1.83-6.03Z"/></svg>