<?xml version="1.0" encoding="UTF-8"?><svg id="Layer_1" xmlns="http://www.w3.org/2000/svg" viewBox="0 0 178.17 79.53"><defs><style>.cls-1{fill:#fefefe;}</style></defs><path class="cls-1" d="M115,53.73v-3.56h-38.18c-.69,0-4.9-.15-8.38-3.57-2.9-2.85-4.36-7.01-4.36-12.33s1.53-9.68,4.54-12.69c4.01-3.98,9-4.11,9.61-4.07l45.48-.02v7.53l-45.5.02c-1.52.04-6.59.81-6.59,9.23,0,7.64,4.04,8.33,5.27,8.36h38.11v-3.09l20.15,7.09-20.15,7.1ZM161.43,27.14h-12.96L125.35,0h-51.42l-27.51,27.14h-29.69C7.48,27.14,0,34.97,0,44.62v3.33c0,9.64,7.48,17.47,16.73,17.47h6.28c2.06,8.11,9.37,14.12,18.14,14.12s16.07-6.01,18.13-14.12h62.38c2.06,8.11,9.39,14.12,18.14,14.12s16.08-6.01,18.13-14.12h3.49c9.25,0,16.74-7.82,16.74-17.47v-3.33c0-9.65-7.49-17.47-16.74-17.47Z"/></svg>