<?xml version="1.0" encoding="UTF-8"?><svg id="Layer_1" xmlns="http://www.w3.org/2000/svg" viewBox="0 0 119.61 88.22"><defs><style>.cls-1{fill:#149459;}</style></defs><rect class="cls-1" y="13.99" width="42.36" height="6.36"/><rect class="cls-1" y="28.42" width="42.36" height="6.36"/><rect class="cls-1" y="42.84" width="42.36" height="6.36"/><rect class="cls-1" y="57.27" width="42.36" height="6.36"/><rect class="cls-1" y="71.7" width="42.36" height="6.36"/><path class="cls-1" d="M119.56,43.58h-6.44c.08.82.11,1.64.11,2.45,0,16.41-16.57,30.85-31.2,34.05l-.14.03c-2.25.58-5.06.88-8.33.88-18.18,0-19.29-6.61-19.35-7V17.93s.2-1.09,1.36-2.3c1.67-1.7,6.22-4.56,17.99-4.56,3.27,0,6.08.3,8.33.88l.14.04c1.35.3,2.77.7,4.19,1.22l2.45-6.81c-1.67-.6-3.36-1.1-5.03-1.46-2.83-.72-6.22-1.09-10.08-1.09-11,0-18.79,2.27-23.15,6.75-3.25,3.33-3.44,6.66-3.41,7.46v55.96c-.03.8.17,4.14,3.41,7.46,4.36,4.48,12.16,6.75,23.15,6.75,3.86,0,7.24-.37,10.08-1.09,17.29-3.81,35.92-20.59,35.92-41.1,0-1.04.11-1.41,0-2.45Z"/><path class="cls-1" d="M95.63,12c.98-2.47,1.78-4.94,2.53-7.35h.14c.75,2.35,1.5,4.77,2.61,7.42l4.89,11.7h-15.05l4.88-11.76ZM84.2,40.65l5.19-12.79h17.74l5.35,12.79h6.89L102.29,0h-7.77l-16.99,40.65h6.66Z"/></svg>