<?xml version="1.0" encoding="UTF-8"?><svg id="Layer_1" xmlns="http://www.w3.org/2000/svg" viewBox="0 0 96.38 120.08"><defs><style>.cls-1{fill:#fab639;}</style></defs><path class="cls-1" d="M20.21,50.12c4.05,0,7.32-3.28,7.32-7.32s-3.27-7.32-7.32-7.32-7.3,3.27-7.3,7.32,3.27,7.32,7.3,7.32Z"/><path class="cls-1" d="M38.89,35.49c-4.03,0-7.3,3.27-7.3,7.32s3.27,7.32,7.3,7.32,7.32-3.28,7.32-7.32-3.27-7.32-7.32-7.32Z"/><path class="cls-1" d="M27.54,63.78c0-4.04-3.27-7.32-7.32-7.32s-7.3,3.28-7.3,7.32,3.27,7.32,7.3,7.32,7.32-3.28,7.32-7.32Z"/><path class="cls-1" d="M38.89,56.46c-4.03,0-7.3,3.28-7.3,7.32s3.27,7.32,7.3,7.32,7.32-3.28,7.32-7.32-3.27-7.32-7.32-7.32Z"/><rect class="cls-1" x="23.62" y=".51" width="8.65" height="29.68" transform="translate(-3.77 12.08) rotate(-22.9)"/><polygon class="cls-1" points="61.82 76.36 53.85 79.73 63.04 101.5 54.93 105.15 75.61 120.08 78.2 94.69 70.93 97.96 61.82 76.36"/><path class="cls-1" d="M76.14,35.49c-4.03,0-7.3,3.27-7.3,7.32s3.27,7.32,7.3,7.32,7.33-3.28,7.33-7.32-3.27-7.32-7.33-7.32Z"/><path class="cls-1" d="M57.46,50.12c4.06,0,7.33-3.28,7.33-7.32s-3.27-7.32-7.33-7.32-7.3,3.27-7.3,7.32,3.27,7.32,7.3,7.32Z"/><path class="cls-1" d="M76.14,56.46c-4.03,0-7.3,3.28-7.3,7.32s3.27,7.32,7.3,7.32,7.33-3.28,7.33-7.32-3.27-7.32-7.33-7.32Z"/><path class="cls-1" d="M57.46,71.1c4.06,0,7.33-3.28,7.33-7.32s-3.27-7.32-7.33-7.32-7.3,3.28-7.3,7.32,3.27,7.32,7.3,7.32Z"/><rect class="cls-1" x="92.22" y="32.03" width="4.16" height="42.6"/><rect class="cls-1" y="32.03" width="4.16" height="42.6"/><rect class="cls-1" x="53.61" y="11.02" width="29.68" height="8.65" transform="translate(27.7 72.44) rotate(-67.13)"/><polygon class="cls-1" points="34.56 76.36 25.43 97.96 18.15 94.69 20.73 120.08 41.44 105.15 33.34 101.5 42.53 79.73 34.56 76.36"/></svg>