<?xml version="1.0" encoding="UTF-8"?><svg id="Layer_1" xmlns="http://www.w3.org/2000/svg" viewBox="0 0 120.97 121.34"><defs><style>.cls-1{fill:#fefefe;}</style></defs><path class="cls-1" d="M62.45,55.23c-.06,0-.11,0-.17,0l-28.11-20.95,20.69,27.75c-.03.28-.04.54-.04.83,0,4.21,3.42,7.61,7.63,7.61s7.61-3.4,7.61-7.61-3.41-7.63-7.61-7.63Z"/><path class="cls-1" d="M62.49,110.63c-26.34,0-47.78-21.43-47.78-47.77S36.15,15.08,62.49,15.08s47.77,21.43,47.77,47.78-21.43,47.77-47.77,47.77ZM62.49,4.37C30.24,4.37,4.01,30.61,4.01,62.86s26.23,58.48,58.48,58.48,58.48-26.24,58.48-58.48S94.74,4.37,62.49,4.37Z"/><polygon class="cls-1" points="18.72 18.72 16.58 1.41 12.47 5.53 6.95 0 0 6.95 5.52 12.47 1.41 16.58 18.72 18.72"/></svg>