<?xml version="1.0" encoding="UTF-8"?><svg id="Layer_1" xmlns="http://www.w3.org/2000/svg" viewBox="0 0 96.49 91.55"><defs><style>.cls-1{fill:#fab639;}</style></defs><path class="cls-1" d="M18.76,23.12v-12.42c0-1.94.07-3.89.18-5.84h-.18c-1.25,2.17-2.24,3.78-3.35,5.5l-9.88,12.64v.12h13.24ZM18.76,37.19v-10.13H0v-3.32L18.02,0h5.9v23.12h5.65v3.95h-5.65v10.13h-5.16Z"/><path class="cls-1" d="M38.02,9.5l4.29,5.95c1.12,1.54,2.05,2.97,3.04,4.52h.19c.99-1.66,1.98-3.09,2.98-4.58l4.23-5.9h5.9l-10.26,13.39,10.56,14.31h-6.21l-4.41-6.24c-1.18-1.6-2.17-3.14-3.23-4.8h-.12c-.99,1.66-2.05,3.14-3.17,4.8l-4.35,6.24h-6.03l10.69-14.13-10.19-13.56h6.09Z"/><path class="cls-1" d="M79.4,23.12v-12.42c0-1.94.06-3.89.18-5.84h-.18c-1.25,2.17-2.24,3.78-3.36,5.5l-9.87,12.64v.12h13.24ZM79.4,37.19v-10.13h-18.76v-3.32L78.65,0h5.9v23.12h5.65v3.95h-5.65v10.13h-5.16Z"/><polygon class="cls-1" points="1.6 52.43 5.98 52.43 5.98 86.75 20.49 86.75 20.49 90.92 1.6 90.92 1.6 52.43"/><path class="cls-1" d="M26.08,71.9c0,8.22,3.93,15.59,10.83,15.59s10.87-7.25,10.87-15.99c0-7.65-3.52-15.65-10.82-15.65s-10.88,7.59-10.88,16.05ZM52.42,71.27c0,13.25-7.1,20.28-15.76,20.28s-15.26-7.88-15.26-19.53c0-12.22,6.7-20.22,15.77-20.22s15.26,8.06,15.26,19.47Z"/><path class="cls-1" d="M63.65,90.92l-8.61-38.5h4.64l4.03,19.47c1.01,4.8,1.91,9.6,2.52,13.31h.09c.56-3.83,1.62-8.4,2.77-13.37l4.53-19.41h4.58l4.14,19.53c.96,4.57,1.86,9.14,2.36,13.19h.1c.71-4.22,1.67-8.51,2.72-13.31l4.48-19.41h4.48l-9.63,38.5h-4.58l-4.28-20.05c-1.06-4.92-1.77-8.69-2.22-12.57h-.1c-.6,3.83-1.36,7.6-2.62,12.57l-4.83,20.05h-4.59Z"/></svg>