<?xml version="1.0" encoding="UTF-8"?><svg id="Layer_1" xmlns="http://www.w3.org/2000/svg" viewBox="0 0 110.79 100.1"><defs><style>.cls-1{fill:#fab639;}</style></defs><path class="cls-1" d="M1.82,92.34c.83-.59,20.22-14.79,20.22-42.29S2.65,8.36,1.82,7.77C-.19,6.33-.6,3.64.91,1.73,2.42-.18,5.29-.57,7.3.86c.98.69,23.86,17.24,23.86,49.19S8.28,98.55,7.3,99.23c-.82.58-1.77.86-2.72.86-1.38,0-2.76-.59-3.65-1.72-1.51-1.9-1.11-4.6.89-6.03Z"/><path class="cls-1" d="M103.5.86c2.01-1.43,4.86-1.04,6.37.86,1.51,1.9,1.12,4.6-.9,6.04-.82.59-20.21,14.78-20.21,42.27s19.39,41.7,20.21,42.3c2.01,1.43,2.42,4.12.91,6.03-.9,1.14-2.27,1.73-3.66,1.73-.96,0-1.91-.28-2.73-.86-.98-.69-23.86-17.24-23.86-49.2S102.52,1.55,103.5.86Z"/><polygon class="cls-1" points="72.06 1.92 35.27 50.12 49.22 54.09 35.22 93.47 77.1 36.85 62.18 34.02 72.06 1.92"/></svg>