<?xml version="1.0" encoding="UTF-8"?><svg id="Layer_1" xmlns="http://www.w3.org/2000/svg" viewBox="0 0 129.02 104.41"><defs><style>.cls-1{fill:#fab639;}</style></defs><path class="cls-1" d="M64.51,90.58c7.12,0,13.97,2.3,19.61,6.54l37.47-41.18c-15.94-13.53-36.09-20.95-57.08-20.95s-41.14,7.42-57.08,20.95l37.47,41.18c5.64-4.24,12.49-6.54,19.6-6.54ZM84.42,104.41c-.74,0-1.48-.26-2.06-.8-4.89-4.46-11.23-6.9-17.85-6.9s-12.95,2.45-17.84,6.9c-1.25,1.14-3.19,1.04-4.32-.2L.8,57.76c-.55-.6-.84-1.39-.8-2.2.04-.81.4-1.58,1-2.12,17.41-15.84,39.97-24.57,63.5-24.57s46.09,8.73,63.51,24.57c.6.54.96,1.31,1,2.12.04.81-.25,1.6-.8,2.2l-41.53,45.65c-.61.67-1.44,1-2.27,1Z"/><path class="cls-1" d="M36.23,3.98l3.76,4.84c2.3-1.78,5.37-2.69,9.13-2.69.88,0,1.74.08,2.52.23l1.19-6.01c-1.17-.24-2.43-.35-3.71-.35-5.15,0-9.49,1.34-12.89,3.98Z"/><path class="cls-1" d="M32.03,8.66c-3.24,5.16-3.73,11.22-3.73,14.37,0,1.09.07,1.77.07,1.85l6.1-.54s-.04-.49-.04-1.3c0-2.01.28-7.11,2.79-11.12l-5.19-3.25Z"/><path class="cls-1" d="M67.56,23.42v-.16l-3.06.08-3.05-.08v.16h-.02v7.52h6.14v-6.33s0-.07,0-.12h0s0-.17,0-.4c0-.17,0-.41.01-.67h-.02Z"/><path class="cls-1" d="M64.51,9.75c-1.44-2.93-3.37-5.27-5.72-6.9l-3.5,5.03c3.54,2.46,5.03,7.21,5.66,10.76l3.56-.63,3.56.63c.62-3.55,2.12-8.29,5.66-10.76l-3.5-5.03c-2.35,1.64-4.28,3.97-5.73,6.9Z"/><path class="cls-1" d="M96.99,8.66l-5.19,3.25c2.51,4.01,2.78,9.11,2.78,11.12,0,.81-.04,1.3-.04,1.3l6.11.54c0-.07.07-.75.07-1.85,0-3.15-.48-9.21-3.72-14.37Z"/><path class="cls-1" d="M79.9,0c-1.28,0-2.53.12-3.71.35l1.19,6.01c.78-.15,1.64-.23,2.52-.23,3.76,0,6.83.91,9.13,2.69l3.76-4.84c-3.4-2.64-7.73-3.98-12.89-3.98Z"/><rect class="cls-1" x="61.44" y="36.03" width="6.13" height="14.4"/><rect class="cls-1" x="61.44" y="55.51" width="6.13" height="14.41"/><rect class="cls-1" x="61.44" y="75.01" width="6.13" height="7.44"/></svg>