<?xml version="1.0" encoding="UTF-8"?><svg id="Layer_1" xmlns="http://www.w3.org/2000/svg" viewBox="0 0 133.28 103.98"><defs><style>.cls-1{fill:#fab639;}</style></defs><path class="cls-1" d="M47.71,36c-.22-.12-.38-.22-.48-.35-.59-.73-.98-1.76-1.21-2.74,4.55-1.78,7.8-6.39,7.8-11.81,0-6.97-5.35-12.61-11.96-12.61s-11.95,5.64-11.95,12.61c0,5.42,3.25,10.03,7.8,11.81-.25.98-.62,2.01-1.21,2.74-1.51,1.83-17.97,1.59-17.61,26.6,7.58-7.93,17.31-17.21,28.82-26.25Z"/><path class="cls-1" d="M19.91,75.39c2.44,18.45,8.29,27.16,11.4,28.09,3.56,1.06,7.5.3,8.48-1.25,2.25-3.61-10.66-18.31-7.5-20.97,1.33-1.12,7.23-1.27,9.58-1.28,2.35,0,8.24.15,9.58,1.28,3.15,2.66-9.74,17.36-7.5,20.97.98,1.55,4.9,2.32,8.48,1.25,3.03-.92,8.73-9.32,11.24-27.04-16.34-2.44-33.18-1.86-43.76-1.05Z"/><path class="cls-1" d="M27.32,66.04c10.45-.48,23.91-.39,37.26,1.58.08-1.26.16-2.56.21-3.9.56-13.66-3.72-20.18-8.19-23.57-11.53,8.72-21.44,17.89-29.28,25.89Z"/><path class="cls-1" d="M73.75,28.39c2.01-1.23,2.69-3.95,1.51-6.06-1.16-2.1-3.72-2.83-5.74-1.59-7.82,4.8-15.11,9.98-21.82,15.26,1.45.72,5.24,1.39,8.89,4.15,5.39-4.07,11.11-8.05,17.15-11.76Z"/><path class="cls-1" d="M74.25,69.42c-3.18-.73-6.43-1.32-9.67-1.8-.21,3.17-.53,6.11-.91,8.82,2.97.44,5.92.98,8.82,1.64.3.06.6.09.89.09,1.94,0,3.68-1.43,4.1-3.5.5-2.39-.96-4.76-3.22-5.27Z"/><path class="cls-1" d="M19.07,66.55c-.05-.93-.1-1.86-.14-2.83-.02-.51-.02-.99-.04-1.47-1.55,1.63-3.02,3.19-4.4,4.71-3.19,3.48-5.84,6.56-7.95,9.1-3.41,4.09-5.38,6.72-5.66,7.11-1.43,1.93-1.09,4.72.75,6.22.77.62,1.67.93,2.57.93,1.25,0,2.5-.59,3.33-1.71.09-.14,3.98-5.35,10.9-13.09h0c.47-.05.96-.08,1.47-.12-.05-.43-.1-.89-.16-1.33-.28-2.36-.51-4.85-.67-7.51Z"/><path class="cls-1" d="M106.81,66.66c-4.32,0-8.4-1.97-11.82-5.56l11.82-17,11.82,17c-3.41,3.59-7.51,5.56-11.82,5.56ZM90.61,20.8l11.81,16.99-11.81,16.99c-5.12-10.09-5.12-23.88,0-33.98ZM106.81,8.93c4.31,0,8.4,1.97,11.82,5.56l-11.82,16.99-11.82-16.99c3.42-3.59,7.5-5.56,11.82-5.56ZM123.01,54.77l-11.82-16.99,11.82-16.99c5.12,10.09,5.12,23.88,0,33.98ZM133.28,69.55l-5.84-8.39c7.49-13.66,7.49-33.09,0-46.75l5.03-7.24-4.39-6.31-5.03,7.24c-4.61-5.25-10.28-8.11-16.26-8.11s-11.64,2.85-16.26,8.11l-4.23-6.08-4.38,6.31,4.22,6.08c-7.49,13.66-7.49,33.09,0,46.75l-5.03,7.24,4.38,6.3,5.03-7.23c4.61,5.24,10.28,8.11,16.26,8.11s11.64-2.86,16.26-8.11l5.83,8.39,4.39-6.31Z"/></svg>