<?xml version="1.0" encoding="UTF-8"?><svg id="Layer_1" xmlns="http://www.w3.org/2000/svg" viewBox="0 0 137.73 98.25"><defs><style>.cls-1{fill:#fab639;}</style></defs><polygon class="cls-1" points="30.64 23.6 9.88 23.6 9.88 39.31 33.01 39.31 33.01 44.02 2.98 44.02 2.98 .46 31.82 .46 31.82 5.17 9.88 5.17 9.88 18.94 30.64 18.94 30.64 23.6"/><path class="cls-1" d="M41.97,44.02V.46h7.53l17.11,22.04c3.96,5.11,7.06,9.69,9.58,14.16l.17-.07c-.64-5.82-.8-11.12-.8-17.9V.46h6.5v43.57h-6.98l-16.95-22.1c-3.72-4.85-7.29-9.83-9.98-14.55l-.24.06c.4,5.5.56,10.74.56,17.97v18.62h-6.5Z"/><path class="cls-1" d="M134.74,42.09c-3.09.91-9.19,2.39-16.4,2.39-8.08,0-14.73-1.68-19.96-5.75-4.59-3.62-7.45-9.44-7.45-16.23.08-13,11.01-22.5,28.92-22.5,6.18,0,11.01,1.1,13.31,2.01l-1.67,4.59c-2.85-1.04-6.42-1.88-11.81-1.88-12.99,0-21.47,6.59-21.47,17.52s8.16,17.58,20.6,17.58c4.51,0,7.61-.51,9.19-1.16v-13h-10.86v-4.53h17.59v20.95Z"/><path class="cls-1" d="M17.3,83.27l-2.99-9.98c-.69-2.27-1.14-4.32-1.59-6.33h-.09c-.46,2.06-.96,4.17-1.55,6.28l-2.99,10.03h9.21ZM7.27,86.77l-3.17,10.92H0l10.4-34.7h4.77l10.44,34.7h-4.22l-3.27-10.92H7.27Z"/><rect class="cls-1" x="27.88" y="82.08" width="11.21" height="3.35"/><path class="cls-1" d="M43.35,92.23c1.77,1.23,4.36,2.26,7.08,2.26,4.04,0,6.4-2.42,6.4-5.92,0-3.24-1.64-5.09-5.77-6.9-4.99-2.01-8.08-4.94-8.08-9.84,0-5.4,3.96-9.42,9.9-9.42,3.13,0,5.4.83,6.76,1.7l-1.09,3.66c-1-.62-3.04-1.65-5.81-1.65-4.18,0-5.77,2.83-5.77,5.2,0,3.24,1.86,4.84,6.08,6.69,5.18,2.27,7.82,5.1,7.82,10.19,0,5.35-3.5,9.99-10.72,9.99-2.95,0-6.16-.98-7.8-2.22l.99-3.75Z"/><polygon class="cls-1" points="72.09 66.8 62.78 66.8 62.78 62.98 85.44 62.98 85.44 66.8 76.08 66.8 76.08 97.68 72.09 97.68 72.09 66.8"/><path class="cls-1" d="M90.02,80.54c0,7.41,3.54,14.05,9.76,14.05s9.81-6.54,9.81-14.42c0-6.9-3.18-14.1-9.76-14.1s-9.81,6.85-9.81,14.47ZM113.76,79.98c0,11.94-6.4,18.27-14.21,18.27s-13.76-7.11-13.76-17.6c0-11.02,6.04-18.23,14.21-18.23s13.76,7.26,13.76,17.56Z"/><path class="cls-1" d="M122.83,80.13c.87.25,1.96.36,3.27.36,4.77,0,7.67-2.63,7.67-7.41s-2.86-6.8-7.22-6.8c-1.72,0-3.04.16-3.72.36v13.49ZM118.88,63.4c1.91-.36,4.4-.67,7.58-.67,3.9,0,6.76,1.03,8.58,2.88,1.68,1.64,2.68,4.17,2.68,7.26s-.82,5.61-2.36,7.41c-2.09,2.52-5.49,3.81-9.35,3.81-1.18,0-2.27-.05-3.18-.31v13.9h-3.95v-34.28Z"/></svg>