<?xml version="1.0" encoding="UTF-8"?><svg id="Layer_1" xmlns="http://www.w3.org/2000/svg" viewBox="0 0 137.72 98.25"><defs><style>.cls-1{fill:#149459;}</style></defs><polygon class="cls-1" points="30.64 23.6 9.87 23.6 9.87 39.31 33.01 39.31 33.01 44.02 2.98 44.02 2.98 .46 31.82 .46 31.82 5.17 9.87 5.17 9.87 18.94 30.64 18.94 30.64 23.6"/><path class="cls-1" d="M41.96,44.02V.46h7.53l17.11,22.04c3.96,5.1,7.05,9.69,9.58,14.16l.16-.07c-.63-5.82-.79-11.12-.79-17.91V.46h6.49v43.57h-6.96l-16.96-22.11c-3.72-4.85-7.29-9.82-9.98-14.55l-.24.07c.39,5.5.56,10.74.56,17.97v18.62h-6.51Z"/><path class="cls-1" d="M134.74,42.08c-3.09.91-9.19,2.39-16.4,2.39-8.08,0-14.73-1.68-19.96-5.75-4.6-3.61-7.45-9.43-7.45-16.22.08-13,11.01-22.5,28.92-22.5,6.18,0,11.01,1.1,13.31,2.01l-1.67,4.59c-2.85-1.04-6.42-1.87-11.81-1.87-12.99,0-21.46,6.59-21.46,17.52s8.16,17.58,20.6,17.58c4.52,0,7.61-.51,9.19-1.17v-12.99h-10.85v-4.53h17.59v20.94Z"/><path class="cls-1" d="M17.3,83.27l-3-9.98c-.68-2.27-1.13-4.32-1.59-6.34h-.09c-.45,2.06-.95,4.17-1.54,6.28l-3,10.04h9.22ZM7.27,86.77l-3.18,10.92H0l10.4-34.7h4.76l10.44,34.7h-4.22l-3.27-10.92H7.27Z"/><rect class="cls-1" x="27.88" y="82.09" width="11.21" height="3.35"/><path class="cls-1" d="M43.35,92.22c1.77,1.24,4.36,2.27,7.08,2.27,4.04,0,6.4-2.42,6.4-5.92,0-3.25-1.63-5.1-5.76-6.9-5-2.01-8.08-4.94-8.08-9.84,0-5.4,3.95-9.42,9.9-9.42,3.14,0,5.4.83,6.77,1.7l-1.09,3.65c-1.01-.62-3.04-1.64-5.81-1.64-4.18,0-5.77,2.83-5.77,5.19,0,3.25,1.85,4.84,6.08,6.69,5.18,2.27,7.81,5.09,7.81,10.19,0,5.35-3.49,9.98-10.71,9.98-2.95,0-6.17-.97-7.8-2.21l.99-3.76Z"/><polygon class="cls-1" points="72.09 66.79 62.78 66.79 62.78 62.98 85.43 62.98 85.43 66.79 76.08 66.79 76.08 97.68 72.09 97.68 72.09 66.79"/><path class="cls-1" d="M90.02,80.54c0,7.41,3.54,14.05,9.76,14.05s9.8-6.53,9.8-14.42c0-6.89-3.17-14.1-9.76-14.1s-9.8,6.85-9.8,14.47ZM113.76,79.97c0,11.95-6.4,18.28-14.21,18.28s-13.75-7.11-13.75-17.61,6.03-18.22,14.21-18.22,13.76,7.26,13.76,17.55Z"/><path class="cls-1" d="M122.83,80.13c.86.25,1.95.35,3.27.35,4.77,0,7.67-2.62,7.67-7.41s-2.86-6.8-7.22-6.8c-1.72,0-3.05.15-3.72.36v13.49ZM118.88,63.4c1.91-.36,4.4-.67,7.58-.67,3.9,0,6.76,1.03,8.58,2.88,1.68,1.64,2.67,4.17,2.67,7.25s-.82,5.61-2.35,7.42c-2.09,2.52-5.5,3.81-9.35,3.81-1.18,0-2.27-.06-3.18-.31v13.9h-3.95v-34.29Z"/></svg>