<?xml version="1.0" encoding="UTF-8"?><svg id="Layer_1" xmlns="http://www.w3.org/2000/svg" viewBox="0 0 128.1 102"><defs><style>.cls-1{fill:#fefefe;}</style></defs><path class="cls-1" d="M128.1,17.16c0-7.98-6.46-14.45-14.44-14.45s-14.44,6.46-14.44,14.45c0,6.14,3.85,11.38,9.26,13.47-4.74-.83-9.74,1.12-12.58,5.38l-14.34,21.39c-2.3.67-5.32.77-6.92-.48-1.97-1.53-8.61-5.25-16.42-5.54-7.8-.29-13.31,6.38-13.31,6.38h0c-.23.21-.44.43-.64.67l-23.11,29.06c-2.59,3.26-1.29,8.61,2.91,11.96,4.21,3.35,9.72,3.41,12.32.14l22.1-27.8c12.9,13.14,31.36,10.08,31.36,10.08,10.06-2.08,14.75-5.63,24.82-20.94,10.06-15.33,3.06-23.2,3.06-23.2h-.02c-.93-2.02-2.41-3.83-4.4-5.17-.73-.49-1.49-.89-2.28-1.21.85.16,1.72.25,2.62.25,7.98,0,14.44-6.46,14.44-14.44Z"/><polygon class="cls-1" points="64.49 37.24 80.84 18.62 64.49 0 64.49 10.16 50.93 10.16 50.93 27.08 64.49 27.08 64.49 37.24"/><polygon class="cls-1" points="27.13 64.42 28.74 39.7 21.56 46.89 11.97 37.29 0 49.26 9.59 58.85 2.41 66.03 27.13 64.42"/></svg>