<?xml version="1.0" encoding="UTF-8"?><svg id="Layer_1" xmlns="http://www.w3.org/2000/svg" viewBox="0 0 157.34 107.93"><defs><style>.cls-1{fill:#fab639;}</style></defs><path class="cls-1" d="M138.53,71.44l-9.28-13.13-2.67,2.94v10.19h-3.68v-26.75h3.68v12.9h.12c.75-1.03,1.5-1.98,2.22-2.85l8.61-10.04h4.48l-10.16,11.35,11,15.39h-4.31ZM111.7,68.94c2.22,0,4.47-.43,5.93-1.11l.75,2.77c-1.34.59-4.01,1.28-7.48,1.28-7.9,0-13.88-4.81-13.88-13.58s5.98-14.01,14.72-14.01c3.47,0,5.72.68,6.69,1.15l-.88,2.82c-1.38-.64-3.35-1.12-5.69-1.12-6.61,0-11,4.01-11,11.04,0,6.55,3.97,10.75,10.83,10.75ZM94.01,71.44h-15.89v-26.75h15.26v2.86h-11.58v8.49h10.91v2.85h-10.91v9.69h12.21v2.85ZM71.82,71.44h-3.64v-12.54h-13.63v12.54h-3.68v-26.75h3.68v11.23h13.63v-11.23h3.64v26.75ZM39.67,68.94c2.22,0,4.48-.43,5.94-1.11l.75,2.77c-1.33.59-4.01,1.28-7.48,1.28-7.9,0-13.87-4.81-13.87-13.58s5.98-14.01,14.71-14.01c3.47,0,5.73.68,6.69,1.15l-.88,2.82c-1.38-.64-3.34-1.12-5.69-1.12-6.6,0-11,4.01-11,11.04,0,6.55,3.98,10.75,10.83,10.75ZM152.3,34.95s-1.56-3.5-3.5-3.5h-18.05c-1.93,0-3.51,1.56-3.51,3.5v3.4h-4.92v-5.67c0-1.23-1.29-1.12-1.29-1.12h-10.97c0-17.18-8.68-17.13-8.68-17.13h-19.4v-5.83h19.4V0H37.05v8.61h21.15v5.83h-19.47l-11.71,8.95h-9.08c-1.93,0-3.5,1.57-3.5,3.51v22.46h-5.84v-24H0v60.25h8.61v-24.8h5.84v23.27c0,1.93,1.56,3.5,3.5,3.5h9.08l28.49,20.35h59.59c8.1,0,7.22-6.89,7.22-6.89v-10.47h4.92v7.73c0,1.93,1.57,3.51,3.51,3.51h18.05c1.93,0,3.5-3.51,3.5-3.51l5.03-14.66v-34.03l-5.03-14.66Z"/></svg>