<?xml version="1.0" encoding="UTF-8"?><svg id="Layer_1" xmlns="http://www.w3.org/2000/svg" viewBox="0 0 115.62 70.21"><defs><style>.cls-1{fill:#149459;}</style></defs><path class="cls-1" d="M13.92,33.09c1.2.31,2.67.41,4.7.41,7.46,0,12.08-4.24,12.08-11.37,0-6.41-3.97-10.24-10.97-10.24-2.85,0-4.79.31-5.8.62v20.57ZM0,1.44C4.34.62,10.42,0,18.99,0s14.84,1.85,18.99,5.58c3.96,3.51,6.64,9.31,6.64,16.13s-2.03,12.61-5.72,16.55c-4.79,5.06-11.89,7.34-20.18,7.34-1.84,0-3.5-.1-4.79-.3v24.92H0V1.44Z"/><path class="cls-1" d="M56.6,24.86c-.89-.05-1.77-.1-2.66-.15-2.73-.1-4.98,1.8-5.52,4.25-.96,4.48-3.01,8.72-5.92,12.25-1.59,1.95-1.69,4.9.1,6.98.59.65,1.18,1.32,1.77,1.98,3.61-2.74,6.84-6.56,9.08-11.22,2.25-4.65,3.25-9.56,3.14-14.09Z"/><path class="cls-1" d="M72.25,25.07c.54,6.53-.72,13.96-4.12,20.96-3.38,7.01-8.4,12.63-13.86,16.26,1.17,1.56,2.33,3.13,3.47,4.72,1.51,2.32,6.52,1.2,10.42-3.46,6.8-8.09,11.61-18.03,13.71-28.38,1.22-5.95-1.01-10.58-3.77-10.32-1.95.1-3.9.17-5.85.22Z"/><path class="cls-1" d="M68.19,25.12c-2.54.01-5.07-.02-7.61-.1.07,5.04-1.08,10.49-3.57,15.64-2.48,5.15-6.04,9.44-10.03,12.53,1.64,1.93,3.24,3.89,4.81,5.89,5.01-3.2,9.68-8.31,12.78-14.76,3.13-6.44,4.23-13.27,3.62-19.19Z"/><path class="cls-1" d="M110.07,57c.96,0,1.51-.75,1.21-1.67l-14.4-44.59c-.29-.92-.78-.92-1.07,0l-14.39,44.59c-.3.92.25,1.67,1.21,1.67h27.44Z"/><path class="cls-1" d="M81.52,60.43c-.96,0-1.99.75-2.29,1.67l-2.08,6.43c-.3.92.25,1.67,1.21,1.67h35.97c.96,0,1.51-.75,1.21-1.67l-2.08-6.43c-.3-.92-1.33-1.67-2.29-1.67h-29.65Z"/></svg>