<?xml version="1.0" encoding="UTF-8"?><svg id="Layer_1" xmlns="http://www.w3.org/2000/svg" viewBox="0 0 108.26 102"><defs><style>.cls-1{fill:#fefefe;}</style></defs><path class="cls-1" d="M108.26,17.16c0-7.98-6.46-14.45-14.44-14.45s-14.44,6.46-14.44,14.45c0,6.14,3.85,11.38,9.27,13.47-4.74-.83-9.74,1.12-12.59,5.38l-14.34,21.39c-2.29.67-5.32.77-6.92-.48-1.96-1.53-8.61-5.25-16.41-5.54-7.81-.29-13.31,6.38-13.31,6.38h0c-.22.21-.44.43-.64.67L1.33,87.49c-2.59,3.26-1.29,8.61,2.92,11.96,4.2,3.35,9.71,3.41,12.31.14l22.1-27.8c12.9,13.14,31.36,10.08,31.36,10.08,10.07-2.08,14.75-5.63,24.82-20.94,10.06-15.33,3.05-23.2,3.05-23.2h0c-.93-2.02-2.41-3.83-4.4-5.17-.73-.49-1.49-.89-2.28-1.21.85.16,1.72.25,2.62.25,7.98,0,14.44-6.46,14.44-14.44Z"/><polygon class="cls-1" points="44.65 37.24 61 18.62 44.65 0 44.65 10.16 31.09 10.16 31.09 27.08 44.65 27.08 44.65 37.24"/></svg>