<?xml version="1.0" encoding="UTF-8"?><svg id="Layer_1" xmlns="http://www.w3.org/2000/svg" viewBox="0 0 115.78 118.87"><defs><style>.cls-1{fill:#fab639;}</style></defs><path class="cls-1" d="M71.29,16.47h-23.87c-1.59,1.2-4.58,5.95-6.89,10.47h37.65c-2.31-4.52-5.31-9.27-6.89-10.47Z"/><path class="cls-1" d="M89.99,31.44c0,1.11-1.04,2.01-2.31,2.01h-1.34c.13.67.22,1.38.22,2.11v9.58c0,2.88-1.14,5.41-2.89,6.98v7.92c0,1.28-1.04,2.32-2.32,2.32h-5.21c-1.27,0-2.31-1.04-2.31-2.32v-6.27h-28.95v6.27c0,1.28-1.04,2.32-2.31,2.32h-5.21c-1.28,0-2.32-1.04-2.32-2.32v-7.92c-1.75-1.56-2.9-4.09-2.9-6.98v-9.58c0-.73.1-1.43.24-2.11h-1.35c-1.28,0-2.31-.91-2.31-2.01v-2.14c0-1.12,1.03-2.01,2.31-2.01h4.23l-.04-.09.46-.93c1.4-2.88,6.27-12.44,10.14-14.21l.46-.22h26.14l.46.22c3.87,1.77,8.74,11.33,10.14,14.21l.46.93-.04.09h4.23c1.27,0,2.31.9,2.31,2.01v2.14ZM89.7,80.83l-.39.9-.22.46-.11.22-.22.32-.19.28c-.05.07-.13.18-.3.35-.27.29-.62.65-.87.85-.51.42-1.04.76-1.56,1.06-1.06.57-2.1.95-3.14,1.29-4.11,1.29-8.27,1.69-12.13,2.46-1.89.39-3.77.78-5.11,1.37-.66.28-1.13.63-1.26.8-.12.17-.08.07-.08.22l.04.33.07.72c.01.3.08.3.12.41.04.09.07.17.09.27-.03.14.2.52.29.79.1.29.27.58.43.88.63,1.17,1.49,2.33,2.41,3.35,1.79,2.09,3.63,3.8,4.92,4.99,1.3,1.22,2.04,1.93,2.04,1.93h.01c.46.43.48,1.15.05,1.61-.25.27-.61.38-.96.34,0,0-1.12-.13-2.96-.71-.9-.31-2.01-.7-3.22-1.3-1.22-.6-2.58-1.32-3.96-2.37-1.39-1.03-2.85-2.33-4.11-4.14-.33-.44-.64-.91-.9-1.46-.27-.57-.56-.96-.79-1.73-.12-.35-.22-.71-.32-1.06-.09-.35-.21-.79-.22-.96l-.09-.72-.05-.35-.02-.18v-.04s0-.02,0-.02l-.03-.37v-.17c-.04-1.7.78-3.81,2.03-5.06,1.22-1.28,2.54-1.95,3.74-2.46,2.4-.94,4.6-1.35,6.75-1.64,4.25-.57,8.35-.75,11.71-1.38,1.66-.36,3.01-.82,3.52-1.4.49-.57.66-.91.29-1.8-.41-.88-1.35-1.77-2.22-2.47-.87-.73-1.77-1.27-2.49-1.72-1.49-.92-2.38-1.34-2.38-1.34-.54-.25-.78-.89-.52-1.43.21-.45.7-.69,1.17-.61h.01s1.09.19,2.9.73c.91.3,2,.67,3.25,1.3,1.22.65,2.64,1.43,3.98,3.12.68.79,1.22,2.06,1.3,3.48.02.68-.12,1.41-.29,2.08ZM53.45,80.83l-.39.9-.22.46-.11.22-.22.32-.2.28c-.04.07-.12.18-.29.35-.27.29-.62.65-.88.85-.51.42-1.03.76-1.56,1.06-1.05.57-2.1.95-3.14,1.29-4.11,1.29-8.27,1.69-12.13,2.46-1.9.39-3.77.78-5.12,1.37-.65.28-1.12.63-1.26.8-.12.17-.08.07-.08.22l.04.33.08.72c0,.3.08.3.11.41.04.09.07.17.09.27-.02.14.21.52.3.79.09.29.27.58.43.88.63,1.17,1.49,2.33,2.4,3.35,1.8,2.09,3.64,3.8,4.93,4.99,1.3,1.22,2.04,1.93,2.04,1.93h.02c.45.43.47,1.15.04,1.61-.25.27-.62.38-.96.34,0,0-1.13-.13-2.96-.71-.91-.31-2.01-.7-3.22-1.3-1.21-.6-2.57-1.32-3.96-2.37-1.38-1.03-2.84-2.33-4.1-4.14-.33-.44-.64-.91-.9-1.46-.27-.57-.56-.96-.79-1.73-.12-.35-.22-.71-.32-1.06-.09-.35-.21-.79-.22-.96l-.09-.72-.05-.35-.02-.18v-.07s-.03-.37-.03-.37v-.17c-.04-1.7.78-3.81,2.03-5.06,1.22-1.28,2.54-1.95,3.74-2.46,2.4-.94,4.59-1.35,6.74-1.64,4.25-.57,8.35-.75,11.71-1.38,1.67-.36,3.01-.82,3.53-1.4.49-.57.66-.91.29-1.8-.41-.88-1.36-1.77-2.22-2.47-.88-.73-1.77-1.27-2.5-1.72-1.49-.92-2.37-1.34-2.37-1.34-.54-.25-.78-.89-.53-1.43.22-.45.7-.69,1.17-.61h.01s1.09.19,2.9.73c.91.3,2,.67,3.24,1.3,1.22.65,2.64,1.43,3.98,3.12.67.79,1.22,2.06,1.29,3.48.02.68-.12,1.41-.28,2.08ZM94.94,0H20.84C9.33,0,0,9.32,0,20.83v77.19c0,11.51,9.33,20.84,20.84,20.84h74.1c11.51,0,20.84-9.33,20.84-20.84V20.83c0-11.51-9.33-20.83-20.84-20.83Z"/></svg>