<?xml version="1.0" encoding="UTF-8"?><svg id="Layer_1" xmlns="http://www.w3.org/2000/svg" viewBox="0 0 139.48 81.99"><defs><style>.cls-1{fill:#fab639;}</style></defs><path class="cls-1" d="M33.36,17.57c0,7.71,4.53,13.89,12.51,13.89s12.58-6.49,12.58-13.89c0-6.94-3.9-13.99-12.52-13.99-8.15,0-12.57,6.34-12.57,13.99ZM63.81,17.47c0,11.27-8.32,17.56-18.23,17.56-10.59,0-17.64-7.19-17.64-17.31S35.45,0,46.28,0s17.53,7.65,17.53,17.47Z"/><rect class="cls-1" x="70.32" y=".55" width="5.12" height="33.93"/><polygon class="cls-1" points="84.24 .56 89.36 .56 89.36 30.76 106.13 30.76 106.13 34.48 84.24 34.48 84.24 .56"/><polygon class="cls-1" points="0 48.07 5.13 48.07 5.13 78.27 21.89 78.27 21.89 81.99 0 81.99 0 48.07"/><polygon class="cls-1" points="47.8 66.09 32.6 66.09 32.6 78.37 49.6 78.37 49.6 81.99 27.48 81.99 27.48 48.07 48.73 48.07 48.73 51.69 32.6 51.69 32.6 62.46 47.8 62.46 47.8 66.09"/><path class="cls-1" d="M65.26,81.99l-12.87-33.93h5.53l6.11,16.71c1.63,4.58,3.14,8.76,4.19,12.68h.17c1.11-3.93,2.68-8.21,4.43-12.58l6.64-16.81h5.42l-14.03,33.93h-5.59Z"/><polygon class="cls-1" points="109.33 66.09 94.13 66.09 94.13 78.37 111.13 78.37 111.13 81.99 89.01 81.99 89.01 48.07 110.26 48.07 110.26 51.69 94.13 51.69 94.13 62.46 109.33 62.46 109.33 66.09"/><polygon class="cls-1" points="117.59 48.07 122.72 48.07 122.72 78.27 139.48 78.27 139.48 81.99 117.59 81.99 117.59 48.07"/></svg>