<?xml version="1.0" encoding="UTF-8"?><svg id="Layer_1" xmlns="http://www.w3.org/2000/svg" viewBox="0 0 78.34 112.44"><defs><style>.cls-1{fill:#fab639;}</style></defs><path class="cls-1" d="M39.73,26.93c-6.05,0-11-4.93-11-11s4.95-11,11-11,10.99,4.93,10.99,11-4.91,11-10.99,11ZM50.72,95.3c0,6.07-4.91,11-10.99,11s-11-4.93-11-11,4.95-11,11-11,10.99,4.93,10.99,11ZM59.68,31.29c2.59,1.33,5.77.31,7.11-2.28l10.97-21.31c1.33-2.59.3-5.78-2.27-7.11-2.62-1.33-5.8-.31-7.14,2.28l-4.3,8.37h-9.33C52.72,4.87,46.75.24,39.73.24s-12.97,4.62-14.97,10.99h-4.49l1.8-3.54c1.33-2.59.3-5.78-2.27-7.11-2.62-1.33-5.78-.31-7.11,2.28L1.72,24.17c-1.33,2.6-.3,5.78,2.27,7.12,2.61,1.33,5.77.31,7.14-2.28l4.27-8.37h9.35c1.62,5.15,5.83,9.14,11.08,10.49v49.02c-5.19,1.33-9.35,5.26-11.02,10.34h-14.27v-7.28c0-2.91-2.35-5.28-5.27-5.28s-5.27,2.37-5.27,5.28v23.96c0,2.92,2.36,5.28,5.27,5.28s5.27-2.36,5.27-5.28v-7.28h14.21c1.95,6.42,7.92,11.08,14.97,11.08s13.02-4.67,14.99-11.08h8.91v7.28c0,2.92,2.36,5.28,5.27,5.28s5.27-2.36,5.27-5.28v-23.96c0-2.91-2.35-5.28-5.27-5.28s-5.27,2.37-5.27,5.28v7.28h-8.99c-1.64-5.08-5.8-9-11.03-10.34V31.12c5.28-1.35,9.47-5.34,11.11-10.49h4.5l-1.8,3.54c-1.36,2.6-.33,5.78,2.27,7.12Z"/></svg>