<?xml version="1.0" encoding="UTF-8"?><svg id="Layer_1" xmlns="http://www.w3.org/2000/svg" viewBox="0 0 98.87 92.55"><defs><style>.cls-1{fill:#e52a2d;}</style></defs><path class="cls-1" d="M29.01,23.6l-3.95-11.48c-.9-2.61-1.5-4.97-2.09-7.28h-.18c-.54,2.37-1.2,4.8-1.97,7.22l-3.95,11.54h12.14ZM15.79,27.63l-4.13,12.54h-5.44L19.98.29h6.22l13.76,39.88h-5.56l-4.3-12.54h-14.3Z"/><rect class="cls-1" x="45.82" y=".29" width="5.27" height="39.88"/><path class="cls-1" d="M65.38,18.99h5.32c5.56,0,9.08-3.01,9.08-7.57,0-5.21-3.77-7.4-9.27-7.45-2.57,0-4.3.23-5.14.47v14.55ZM60.11.83c2.69-.54,6.46-.83,10.05-.83,5.56,0,9.16,1,11.66,3.25,1.98,1.77,3.17,4.49,3.17,7.57,0,5.27-3.35,8.76-7.59,10.18v.12c3.11,1.12,4.96,4.03,5.92,8.11,1.32,5.62,2.27,9.41,3.11,10.95h-5.38c-.66-1.12-1.56-4.56-2.69-9.53-1.19-5.44-3.34-7.57-8.07-7.75h-4.9v17.28h-5.27V.83Z"/><path class="cls-1" d="M5.27,88.23c1.07.18,2.45.24,4.36.24,5.38,0,10.41-1.95,10.41-7.69s-4.79-7.75-10.48-7.75h-4.3v15.21ZM5.27,69.18h4.72c5.45,0,8.74-2.9,8.74-6.74,0-4.68-3.59-6.51-8.85-6.51-2.39,0-3.77.18-4.6.35v12.9ZM0,52.79c2.33-.47,5.98-.83,9.56-.83,5.21,0,8.56.88,11.01,2.9,2.15,1.54,3.41,3.9,3.41,7.04,0,3.85-2.64,7.27-6.82,8.76v.12c3.83.95,8.32,4.02,8.32,10.06,0,3.37-1.32,5.97-3.47,7.93-2.75,2.54-7.29,3.73-13.88,3.73-3.64,0-6.34-.24-8.13-.48v-39.23Z"/><path class="cls-1" d="M52.21,75.57l-3.94-11.48c-.9-2.6-1.5-4.97-2.1-7.27h-.17c-.54,2.36-1.2,4.79-1.98,7.22l-3.94,11.54h12.13ZM39,79.59l-4.13,12.55h-5.44l13.76-39.88h6.22l13.75,39.88h-5.56l-4.3-12.55h-14.29Z"/><path class="cls-1" d="M98.87,90.37c-2.33.83-6.94,2.19-12.38,2.19-6.11,0-11.13-1.54-15.08-5.27-3.47-3.32-5.62-8.64-5.62-14.85.06-11.84,8.32-20.59,21.83-20.59,4.67,0,8.38,1.06,10.05,1.83l-1.25,4.2c-2.15-.95-4.85-1.72-8.91-1.72-9.81,0-16.21,6.04-16.21,16.04s6.1,16.1,15.55,16.1c3.41,0,5.74-.48,6.94-1.06v-11.9h-8.19v-4.14h13.28v19.18Z"/></svg>