<?xml version="1.0" encoding="UTF-8"?><svg id="Layer_1" xmlns="http://www.w3.org/2000/svg" viewBox="0 0 145.5 64.28"><defs><style>.cls-1{fill:#fefefe;}</style></defs><rect class="cls-1" y="35.28" width="18.86" height="6"/><path class="cls-1" d="M32.06,32.51c0,13.29,5.95,25.21,16.42,25.21s16.48-11.73,16.48-25.86c0-12.37-5.34-25.3-16.41-25.3s-16.49,12.28-16.49,25.96ZM71.99,31.49c0,21.42-10.76,32.79-23.89,32.79s-23.13-12.75-23.13-31.59C24.96,12.93,35.12,0,48.85,0s23.13,13.03,23.13,31.49Z"/><polygon class="cls-1" points="80.61 1.01 108.31 1.01 108.31 7.76 87.26 7.76 87.26 28.45 106.71 28.45 106.71 35.1 87.26 35.1 87.26 63.27 80.61 63.27 80.61 1.01"/><polygon class="cls-1" points="117.79 1.01 145.5 1.01 145.5 7.76 124.43 7.76 124.43 28.45 143.89 28.45 143.89 35.1 124.43 35.1 124.43 63.27 117.79 63.27 117.79 1.01"/></svg>