<?xml version="1.0" encoding="UTF-8"?><svg id="Layer_1" xmlns="http://www.w3.org/2000/svg" viewBox="0 0 95.69 96.4"><defs><style>.cls-1{fill:#fefefe;}</style></defs><path class="cls-1" d="M47.84,51.85c-1.99,0-3.64-1.63-3.64-3.65s1.64-3.65,3.64-3.65,3.67,1.64,3.67,3.65-1.64,3.65-3.67,3.65ZM70.11,10.62c-16.02-.48-19.18,13.92-19.49,23.97-.83-.16-1.7-.25-2.59-.25-1.58,0-3.08.27-4.5.75-1.11-1.07-1.64-2.48-1.77-4.2-.44-4.96,7.36-8.35,7.58-15.58.25-7.53-3.41-13.37-12.46-14.97-8.22-1.46-25.54.73-26.26,25.24-.47,16.02,13.93,19.2,23.99,19.48-.22.99-.36,2.01-.36,3.06,0,1.66.3,3.24.86,4.72-1.09,1.11-2.5,1.63-4.22,1.79-4.94.45-8.33-7.37-15.57-7.6-7.52-.24-13.35,3.44-14.96,12.49-1.45,8.2.72,25.52,25.23,26.25,16.13.48,19.24-14.13,19.49-24.19.97.2,1.94.33,2.97.33,1.42,0,2.8-.22,4.11-.62,1.12,1.07,1.64,2.49,1.78,4.21.47,4.96-7.36,8.35-7.58,15.58-.25,7.53,3.45,13.37,12.47,14.97,8.21,1.46,25.54-.73,26.26-25.24.47-15.84-13.6-19.13-23.65-19.47.25-1.03.39-2.1.39-3.21,0-1.72-.3-3.36-.89-4.88,1.03-.9,2.33-1.34,3.89-1.49,4.94-.45,8.32,7.37,15.57,7.6,7.52.24,13.35-3.44,14.96-12.48,1.47-8.21-.72-25.53-25.23-26.26Z"/></svg>