<?xml version="1.0" encoding="UTF-8"?><svg id="Layer_1" xmlns="http://www.w3.org/2000/svg" viewBox="0 0 108.26 118.9"><defs><style>.cls-1{fill:#149459;}</style></defs><path class="cls-1" d="M54.13,10.95c-17.72,0-32.14,14.42-32.14,32.15s14.42,32.14,32.14,32.14,32.15-14.42,32.15-32.14S71.85,10.95,54.13,10.95ZM54.13,82.68c-21.82,0-39.57-17.75-39.57-39.58S32.31,3.52,54.13,3.52s39.58,17.76,39.58,39.58-17.76,39.58-39.58,39.58Z"/><path class="cls-1" d="M21.64,86.2c-.77,0-1.55-.24-2.22-.74-.8-.59-19.42-14.84-19.42-42.36S18.62,1.33,19.42.74c1.64-1.22,3.97-.89,5.2.75,1.23,1.64.9,3.96-.74,5.19-.68.51-16.45,12.75-16.45,36.42s15.78,35.91,16.45,36.42c1.63,1.24,1.96,3.56.72,5.2-.72.97-1.84,1.48-2.97,1.48Z"/><path class="cls-1" d="M86.61,86.21c-1.12,0-2.24-.51-2.97-1.49-1.23-1.64-.9-3.96.74-5.19.68-.51,16.45-12.75,16.45-36.42S85.05,7.19,84.38,6.69c-1.63-1.24-1.96-3.56-.73-5.2,1.23-1.64,3.55-1.97,5.19-.75.8.59,19.42,14.84,19.42,42.36s-18.62,41.77-19.41,42.37c-.67.5-1.45.75-2.23.75Z"/><polygon class="cls-1" points="11.99 91.59 11.99 102.84 24.99 102.84 24.99 91.59 28.5 91.59 28.5 118.47 24.99 118.47 24.99 105.87 11.99 105.87 11.99 118.47 8.53 118.47 8.53 91.59 11.99 91.59"/><path class="cls-1" d="M36.63,105.19c0,5.74,3.1,10.89,8.56,10.89s8.61-5.06,8.61-11.17c0-5.34-2.79-10.92-8.57-10.92s-8.61,5.3-8.61,11.2ZM57.48,104.75c0,9.24-5.62,14.15-12.47,14.15s-12.08-5.5-12.08-13.63,5.3-14.11,12.47-14.11,12.08,5.62,12.08,13.6Z"/><polygon class="cls-1" points="61.98 91.59 65.45 91.59 65.45 115.55 76.93 115.55 76.93 118.47 61.98 118.47 61.98 91.59"/><path class="cls-1" d="M84.26,115.71c.88.17,2.16.2,3.51.2,7.41,0,11.45-4.14,11.45-11.4.04-6.35-3.55-10.37-10.89-10.37-1.8,0-3.15.16-4.07.35v21.21ZM80.8,91.95c2.11-.32,4.62-.56,7.37-.56,4.98,0,8.53,1.15,10.88,3.35,2.39,2.2,3.79,5.3,3.79,9.65s-1.35,7.98-3.86,10.45c-2.52,2.51-6.66,3.87-11.89,3.87-2.47,0-4.54-.12-6.3-.32v-26.43Z"/></svg>