<?xml version="1.0" encoding="UTF-8"?><svg id="Layer_1" xmlns="http://www.w3.org/2000/svg" viewBox="0 0 125.89 128.36"><defs><style>.cls-1{fill:#149459;}</style></defs><path class="cls-1" d="M45.41,39.34l-.86-3.19c-.25-.96-1.25-1.54-2.22-1.28L1.33,45.81c-.94.25-1.53,1.25-1.28,2.21l.85,3.19c.25.96,1.25,1.54,2.22,1.28l41-10.93c.94-.26,1.53-1.25,1.28-2.22Z"/><path class="cls-1" d="M45.41,54.49l-.86-3.19c-.25-.96-1.25-1.54-2.22-1.28L1.33,60.96c-.94.25-1.53,1.25-1.28,2.21l.85,3.19c.25.96,1.25,1.54,2.22,1.28l41-10.93c.94-.26,1.53-1.26,1.28-2.22Z"/><path class="cls-1" d="M42.34,65.18L1.33,76.12c-.94.25-1.53,1.25-1.28,2.21l.85,3.19c.25.96,1.25,1.54,2.22,1.28l41-10.93c.94-.26,1.53-1.26,1.28-2.22l-.86-3.19c-.25-.96-1.25-1.54-2.22-1.28Z"/><path class="cls-1" d="M45.41,84.8l-.86-3.19c-.25-.96-1.25-1.54-2.22-1.28L1.33,91.27c-.94.26-1.53,1.25-1.28,2.22l.85,3.18c.25.96,1.25,1.54,2.22,1.28l41-10.94c.94-.25,1.53-1.25,1.28-2.21Z"/><path class="cls-1" d="M87.81,94.59l-.17.04c-2.19.57-4.97.86-8.19.86-17.54,0-18.85-6.14-18.9-6.58v-55.9l.03.13-.03-.16c.17-.8,1.97-6.51,18.9-6.51,3.22,0,6,.29,8.22.86l.14.04c14.46,3.17,29.95,17.42,29.95,33.61s-15.5,30.45-29.95,33.61ZM89.61,19.44c-2.86-.73-6.27-1.1-10.16-1.1-11.13,0-19.04,2.32-23.51,6.88-3.33,3.43-3.53,6.92-3.53,7.77v55.96c0,.86.2,4.34,3.53,7.78,4.47,4.57,12.38,6.88,23.51,6.88,3.89,0,7.3-.37,10.16-1.1,17.46-3.85,36.28-20.81,36.28-41.54s-18.82-37.69-36.28-41.54Z"/><path class="cls-1" d="M20.05,34.07c1.55.78,3.47.14,4.22-1.43l9.83-19.83,1.58,7.72c.36,1.71,2.03,2.81,3.75,2.46,1.72-.35,2.8-2.03,2.47-3.74l-3.47-16.72c-.03-.05-.03-.1-.06-.16-.03-.08-.03-.17-.06-.25-.03-.08-.08-.15-.11-.22s-.06-.15-.12-.22c-.02-.07-.08-.14-.11-.21-.05-.07-.08-.13-.14-.2-.06-.07-.11-.14-.17-.2-.03-.04-.06-.08-.11-.12,0-.01-.03-.03-.06-.04-.06-.07-.11-.12-.2-.17-.05-.05-.11-.11-.17-.15-.08-.04-.14-.09-.22-.12-.06-.04-.15-.09-.2-.12-.09-.04-.17-.07-.22-.09-.08-.03-.17-.06-.25-.09-.06-.02-.14-.04-.22-.06s-.17-.04-.25-.05h-.06c-.06-.02-.12-.02-.17-.02-.09,0-.17-.01-.28-.01-.09,0-.15,0-.22.01-.09,0-.17.01-.25.03-.08.01-.17.03-.25.05-.09.02-.14.04-.22.07-.08.02-.17.06-.25.09-.06.02-.12.04-.14.06l-15.41,7.4c-1.56.76-2.22,2.65-1.47,4.23.75,1.57,2.64,2.24,4.22,1.48l7.11-3.42-9.8,19.84c-.78,1.56-.14,3.46,1.45,4.24Z"/><path class="cls-1" d="M23.68,121.84l14.74,6.27c.05.03.11.04.14.05.08.04.17.06.25.09.06.01.14.03.22.04.08.01.17.04.22.04.09.01.17.01.25.02.08,0,.17,0,.25,0,.06,0,.17-.01.22-.02.06,0,.11,0,.17-.01.03,0,.06-.01.09-.01.08-.01.17-.04.25-.06.06-.02.14-.04.22-.06.08-.03.14-.06.22-.09.09-.04.17-.06.22-.09.09-.04.14-.08.22-.12.05-.04.14-.09.2-.13.08-.04.14-.09.19-.14.09-.05.14-.1.2-.17.03-.01.06-.02.06-.04.06-.04.06-.08.11-.12.06-.07.12-.13.17-.2.06-.06.12-.12.14-.18.06-.07.12-.13.15-.2.05-.07.08-.14.11-.2.06-.07.08-.14.11-.22.03-.07.06-.14.09-.22.02-.05.02-.09.05-.14l4.17-15.47c.44-1.58-.58-3.09-2.22-3.35-1.67-.27-3.36.8-3.8,2.38l-1.92,7.14-8.69-17.88c-.7-1.42-2.53-1.94-4.09-1.17-1.58.76-2.3,2.52-1.61,3.93l8.69,17.89-6.8-2.9c-1.53-.64-3.42.03-4.22,1.5-.8,1.47-.25,3.19,1.25,3.83Z"/><path class="cls-1" d="M80.14,34.4c-2.5,0-4.53,2.02-4.53,4.52v27.88c0,2.5,2.03,4.52,4.53,4.52s4.53-2.02,4.53-4.52v-27.88c0-2.5-2.03-4.52-4.53-4.52Z"/><path class="cls-1" d="M80.14,75.75c-2.5,0-4.53,2.02-4.53,4.52s2.03,4.52,4.53,4.52,4.53-2.02,4.53-4.52-2.03-4.52-4.53-4.52Z"/></svg>