<?xml version="1.0" encoding="UTF-8"?><svg id="Layer_1" xmlns="http://www.w3.org/2000/svg" viewBox="0 0 188.04 104.8"><defs><style>.cls-1{fill:#fab639;}</style></defs><path class="cls-1" d="M155.1,92.22c-.17-4-.37-8.81-.34-12.38h-.09c-.78,3.36-1.72,6.93-2.85,10.89l-4,13.91h-2.22l-3.65-13.66c-1.08-4.04-1.98-7.74-2.62-11.14h-.07c-.07,3.57-.23,8.38-.43,12.67l-.61,12.29h-2.78l1.58-28.67h3.72l3.86,13.87c.93,3.53,1.71,6.68,2.28,9.66h.1c.57-2.89,1.38-6.04,2.38-9.66l4.04-13.87h3.72l1.41,28.67h-2.85l-.57-12.58Z"/><rect class="cls-1" x="163.03" y="76.14" width="2.92" height="28.67"/><path class="cls-1" d="M171.05,104.8v-28.67h3.19l7.24,14.5c1.68,3.36,2.98,6.38,4.06,9.32l.07-.04c-.27-3.82-.34-7.32-.34-11.78v-12h2.76v28.67h-2.96l-7.19-14.55c-1.57-3.19-3.09-6.46-4.22-9.56l-.1.04c.17,3.61.23,7.06.23,11.82v12.25h-2.75Z"/><path class="cls-1" d="M120.32,83.17c-5.4,0-8.34,2.82-10.28,4.68-1.62,1.55-2.2,2.04-3.72,2.04s-2.11-.49-3.73-2.04c-1.93-1.86-4.87-4.68-10.28-4.68s-8.34,2.82-10.28,4.69c-1.62,1.54-2.19,2.04-3.72,2.04s-2.11-.49-3.72-2.04c-1.94-1.87-4.88-4.69-10.28-4.69s-8.34,2.82-10.28,4.69c-1.62,1.54-2.19,2.04-3.72,2.04s-2.1-.49-3.72-2.04c-1.94-1.87-4.88-4.69-10.28-4.69s-8.34,2.82-10.28,4.69c-1.61,1.54-2.19,2.04-3.72,2.04s-2.1-.49-3.72-2.04c-1.93-1.87-4.87-4.69-10.28-4.69-2.62,0-4.74,2.12-4.74,4.74s2.12,4.74,4.74,4.74c1.52,0,2.11.49,3.72,2.04,1.93,1.86,4.87,4.68,10.27,4.68s8.34-2.82,10.28-4.68c1.62-1.55,2.19-2.04,3.72-2.04s2.1.49,3.72,2.04c1.94,1.86,4.88,4.68,10.28,4.68s8.34-2.82,10.28-4.68c1.62-1.55,2.19-2.04,3.72-2.04s2.11.49,3.72,2.04c1.94,1.86,4.88,4.68,10.28,4.68s8.34-2.82,10.28-4.68c1.61-1.55,2.19-2.04,3.72-2.04s2.11.49,3.72,2.04c1.94,1.86,4.88,4.68,10.29,4.68s8.34-2.82,10.28-4.68c1.62-1.55,2.2-2.04,3.72-2.04,2.62,0,4.74-2.12,4.74-4.74s-2.12-4.74-4.74-4.74Z"/><path class="cls-1" d="M97.17,57.32h-60.57v-28.56h39.79l10.33,7.52c1.2.88,2.75,1.08,4.14.56l49.37-18.85-43.06,39.33ZM9.83,28.34l4.67-12.45,13.34,5.61v16.24l-18.02-9.4ZM160.94,23.74c1.16-1.59,1.12-3.76-.1-5.3l-8.75-11.07c-1.18-1.5-3.2-2.06-4.99-1.38l-57.14,21.82-9.56-6.96c-.75-.54-1.64-.84-2.57-.84h-12.47v-4.12h2.95c2.42,0,4.38-1.96,4.38-4.38v-7.14c0-2.42-1.96-4.38-4.38-4.38h-17.09c-2.42,0-4.38,1.96-4.38,4.38v7.14c0,2.41,1.96,4.38,4.38,4.38h3.3v4.12h-17.91v-1.41c0-1.77-1.05-3.35-2.67-4.04L13.71,6.05c-1.1-.46-2.34-.46-3.43.01-1.09.47-1.95,1.37-2.36,2.48L.28,28.9c-.78,2.06.12,4.39,2.07,5.41l25.49,13.31v14.08c0,2.42,1.96,4.38,4.38,4.38h66.64c1.09,0,2.15-.41,2.96-1.14l46.57-42.54,7.46,2.85c1.84.7,3.92.09,5.09-1.5Z"/><path class="cls-1" d="M159.46,33.06s-7.82,13.67-7.82,17.55,3.5,7.02,7.82,7.02,7.82-3.14,7.82-7.02-7.82-17.55-7.82-17.55Z"/><polygon class="cls-1" points="98.94 61.66 33.37 61.66 33.37 25.4 78.03 25.4 90.12 31.72 126.74 36.48 98.94 61.66"/></svg>