<?xml version="1.0" encoding="UTF-8"?><svg id="Layer_1" xmlns="http://www.w3.org/2000/svg" viewBox="0 0 193.33 98.81"><defs><style>.cls-1{fill:#fefefe;}</style></defs><path class="cls-1" d="M16.7,68.11c25.14,10.75,52.64,16.41,79.96,16.41s54.82-5.66,79.96-16.41l-24.3-51.62c-17.57,7.22-36.68,11.02-55.67,11.02s-38.08-3.8-55.66-11.02l-24.3,51.62ZM96.66,98.81c-31.79,0-63.8-7.16-92.57-20.7-1.71-.8-3.04-2.25-3.67-4.04-.64-1.79-.55-3.75.25-5.47L31.04,4.1c1.68-3.57,5.93-5.1,9.5-3.42,17.44,8.2,36.85,12.54,56.12,12.54s38.69-4.34,56.13-12.54c3.57-1.68,7.82-.15,9.51,3.42l30.35,64.5c.8,1.72.9,3.69.25,5.47-.64,1.78-1.96,3.24-3.68,4.04-28.76,13.54-60.76,20.7-92.56,20.7Z"/></svg>