<?xml version="1.0" encoding="UTF-8"?><svg id="Layer_1" xmlns="http://www.w3.org/2000/svg" viewBox="0 0 166.8 103.8"><defs><style>.cls-1{fill:#fab639;}</style></defs><path class="cls-1" d="M156.74,38.63c-1.1.37-4.26,1.03-12.75,1.03-.7,0-1.36,0-1.98-.01-.52-2.73-1.79-4.68-2.96-5.97-.7-.78-1.52-1.46-2.41-2.05-2.35-1.77-5.26-2.85-8.43-2.85-3.51,0-6.72,1.31-9.18,3.45-.67.53-1.3,1.1-1.85,1.74-1.17,1.35-2.43,3.4-2.85,6.22-6.9.08-14.06.12-21.75.12-10.11,0-21.12-.07-34.67-.22-3.8-.04-7.59-.09-11.38-.14-.14-.57-.31-1.11-.52-1.64,0-.01,0-.04-.01-.06-.09-.22-.18-.44-.28-.67-.09-.22-.21-.45-.33-.68-.07-.13-.13-.25-.2-.38-.06-.09-.09-.17-.14-.27-.38-.64-.8-1.25-1.27-1.8-.01-.02-.03-.04-.04-.05-.53-.64-1.11-1.22-1.72-1.74-.14-.11-.26-.22-.4-.33-.1-.08-.21-.16-.33-.24-2.33-1.73-5.21-2.77-8.33-2.77-3.89,0-7.43,1.64-9.99,4.26-1.43,1.43-2.56,3.18-3.25,5.16-1.8-.28-3.38-.6-4.83-.98-2.52-.66-5.27-1.53-6.66-3.09-.24-.27-.32-.43-.33-.44,0-.04.04-.13.13-.28,3.87-6.4,16.42-7.98,23.91-8.92l.59-.08c5.4-.68,8.65-1.09,13.78-3.49,4.97-2.33,10.87-5.09,16.98-7.85,8.82-3.98,14.26-5.22,23.28-5.33,2.37-.02,4.76-.11,7.29-.19,3.1-.11,6.31-.22,9.45-.22,5.95,0,10.53.41,14.42,1.28,2.43.54,5.31,2.79,8.1,4.96,1.99,1.56,4.05,3.16,6.14,4.31,4.6,2.51,9.39,3.03,14.02,3.53,3.96.43,7.7.84,10.88,2.5,1.11,2.25.75,10.7-.12,14.18ZM128.22,48.91c-3.07,0-5.69-2.29-6.09-5.41-.03-.2-.04-.44-.04-.72,0-1.76.75-3.35,1.96-4.47,1.12-.79,2.62-1.24,4.25-1.24,1.45,0,2.81.38,3.85,1.02,1.34,1.13,2.19,2.81,2.19,4.69,0,.14,0,.27-.01.4v.14c-.29,3.14-2.96,5.59-6.11,5.59ZM39.07,43.63c-.16,3.26-2.85,5.82-6.12,5.82s-6.13-2.75-6.13-6.13v-.12c.03-1.42.56-2.73,1.41-3.76,1.25-1.45,3.12-2.12,4.83-2.12.78,0,2.43.15,3.85,1.33.42.35.79.76,1.1,1.22.01.02.03.04.04.07.08.13.17.26.24.4.06.1.11.2.15.3.03.06.06.11.08.17.21.51.28.93.36,1.45.05.3.11.59.18.85,0,.07,0,.14,0,.21,0,.11,0,.21,0,.31ZM165.32,33.49c.45-6.08-.1-13.38-4.24-15.71-4.67-2.62-9.54-3.14-14.25-3.66-4.05-.44-7.87-.85-11.11-2.62-1.53-.83-3.25-2.18-5.07-3.6-3.48-2.71-7.06-5.51-11.22-6.44-4.46-1-9.59-1.47-16.14-1.47-3.27,0-6.56.12-9.72.22-2.48.08-4.82.16-7.11.19-10.03.12-16.71,1.64-26.43,6.03-6.14,2.77-12.08,5.53-17.08,7.88-4.01,1.88-6.32,2.17-11.41,2.81l-.59.07c-8.91,1.12-23.82,3-29.67,12.66-2.02,3.35-1.64,7.01,1.07,10.05,2.78,3.12,6.89,4.51,10.55,5.46,1.78.46,3.71.85,5.88,1.18.21.04.4.07.59.12,1.51,6.11,7.02,10.66,13.58,10.66,6.14,0,11.38-3.96,13.26-9.52h.04c3.85.06,7.71.11,11.57.15,13.58.16,24.62.23,34.76.23,8.04,0,15.5-.05,22.68-.14,2.09,5.16,7.16,8.74,12.96,8.74s11.2-3.86,13.16-9.27c.78,0,1.67.01,2.61.01,12.89,0,18.15-1.33,19.77-5.03h0s.08-.2.08-.2c.16-.36.32-.78.46-1.23l2.51-8.24-1.48.65Z"/><path class="cls-1" d="M26.11,83.22c-3.53-1.73-4.6-3.01-4.6-5.47,0-1.84,1.03-3.99,3.95-3.99,1.95,0,3.46.75,4.37,1.39.24.16.54.2.8.1.27-.1.48-.33.54-.6l.92-3.42c.09-.35-.05-.74-.36-.95-.93-.63-2.98-1.69-6.15-1.69-5.31,0-9.16,4.05-9.16,9.64,0,4.51,2.44,7.87,7.22,9.98,3.23,1.56,4.38,3.04,4.38,5.67,0,2.92-1.68,4.66-4.49,4.66-1.82,0-3.83-.72-5.39-1.93-.23-.18-.54-.23-.83-.14-.28.09-.49.33-.56.62l-.88,3.51c-.08.33.03.67.28.88,1.62,1.37,4.56,2.33,7.14,2.33,6.8,0,9.84-5.16,9.84-10.27,0-4.77-2.1-7.85-7.03-10.32Z"/><path class="cls-1" d="M51.18,98.05h-10.22v-9.99h9.05c.48,0,.87-.39.87-.88v-3.46c0-.49-.39-.88-.87-.88h-9.05v-8.55h9.66c.48,0,.87-.4.87-.88v-3.47c0-.48-.39-.87-.87-.87h-13.88c-.48,0-.88.39-.88.87v32.45c0,.49.4.88.88.88h14.44c.49,0,.88-.39.88-.88v-3.46c0-.49-.39-.88-.88-.88Z"/><path class="cls-1" d="M67.04,78.99c0,3.27-1.88,5.29-4.9,5.29h-2.51v-10.29c.54-.11,1.35-.19,2.39-.19,3.38.05,5.02,1.75,5.02,5.19ZM71.01,93.33c-.56-3.06-1.54-5.17-2.99-6.42,2.58-1.69,4.07-4.72,4.07-8.4,0-2.65-.81-5.11-2.23-6.74-1.77-2.04-4.27-2.95-8.07-2.95-2.41,0-4.87.26-6.61.7-.38.09-.65.45-.65.85v32.01c0,.49.39.88.87.88h3.35c.49,0,.88-.39.88-.88v-13.18h2.2c2.19.1,3.53,1.03,4.31,5.59.85,4.75,1.36,7.06,1.77,7.96.14.31.45.51.8.51h3.42c.3,0,.57-.15.73-.39.16-.25.19-.57.07-.83-.53-1.25-1.21-4.84-1.92-8.72Z"/><path class="cls-1" d="M94.93,69.08h-3.54c-.39,0-.74.26-.84.64l-4.33,16.08c-.86,3.13-1.54,5.82-2.09,8.22-.52-2.38-1.12-4.85-1.75-7.42l-4.21-16.86c-.09-.39-.44-.66-.84-.66h-3.61c-.27,0-.53.12-.69.33-.17.22-.22.49-.16.75l8.4,32.45c.09.38.45.66.85.66h3.64c.4,0,.74-.27.85-.64l9.16-32.45c.08-.27.02-.55-.15-.76-.16-.22-.42-.35-.7-.35Z"/><path class="cls-1" d="M100.97,69.08h-3.35c-.48,0-.88.39-.88.87v32.45c0,.49.4.88.88.88h3.35c.49,0,.88-.39.88-.88v-32.45c0-.48-.39-.87-.88-.87Z"/><path class="cls-1" d="M125.18,70.13c-.55-.36-2.64-1.54-6.56-1.54-8.53,0-14.26,7.18-14.26,17.87s5.3,17.34,13.5,17.34c3.28,0,5.9-.86,7.25-1.67.32-.19.48-.56.41-.93l-.68-3.37c-.06-.28-.25-.51-.51-.63-.26-.11-.57-.09-.8.06-1.23.75-3.12,1.22-4.95,1.22-5.61,0-8.97-4.55-8.97-12.17s3.4-12.5,9.13-12.5c1.75,0,3.43.43,4.71,1.22.24.14.53.17.79.07s.45-.33.52-.61l.8-3.42c.08-.35-.07-.73-.37-.93Z"/><path class="cls-1" d="M143.2,98.05h-10.22v-9.99h9.05c.48,0,.88-.39.88-.88v-3.46c0-.49-.4-.88-.88-.88h-9.05v-8.55h9.65c.49,0,.88-.4.88-.88v-3.47c0-.48-.39-.87-.88-.87h-13.87c-.49,0-.87.39-.87.87v32.45c0,.49.38.88.87.88h14.44c.49,0,.88-.39.88-.88v-3.46c0-.49-.39-.88-.88-.88Z"/></svg>