<?xml version="1.0" encoding="UTF-8"?><svg id="Layer_1" xmlns="http://www.w3.org/2000/svg" viewBox="0 0 139.29 131.24"><defs><style>.cls-1{fill:#fefefe;}</style></defs><path class="cls-1" d="M139.29,22.08c0-10.27-8.32-18.58-18.58-18.58s-18.58,8.32-18.58,18.58c0,7.9,4.96,14.64,11.92,17.33-6.1-1.06-12.52,1.44-16.2,6.92l-18.44,27.51c-2.95.85-6.85.99-8.9-.61-2.53-1.97-11.08-6.77-21.11-7.14-10.04-.38-17.13,8.21-17.13,8.21h0c-.29.27-.56.56-.81.87L1.71,112.56c-3.33,4.2-1.66,11.1,3.75,15.39,5.4,4.3,12.5,4.39,15.84.19l28.43-35.76c16.6,16.9,40.35,12.96,40.35,12.96,12.95-2.67,18.98-7.24,31.93-26.96,12.95-19.71,3.93-29.84,3.93-29.84h-.01c-1.2-2.6-3.1-4.93-5.67-6.65-.94-.63-1.92-1.15-2.93-1.56,1.09.2,2.22.32,3.37.32,10.26,0,18.58-8.32,18.58-18.58Z"/><polygon class="cls-1" points="57.45 47.91 78.47 23.95 57.45 0 57.45 13.07 40 13.07 40 34.85 57.45 34.85 57.45 47.91"/></svg>