<?xml version="1.0" encoding="UTF-8"?><svg id="Layer_1" xmlns="http://www.w3.org/2000/svg" viewBox="0 0 128.58 84.36"><defs><style>.cls-1{fill:#149459;}</style></defs><path class="cls-1" d="M99.16,21.83h27.65c1,0,1.77-.8,1.77-1.78v-6.88c0-.98-.78-1.77-1.77-1.77h-27.65V0h-32.17s-25.29,9.82-25.29,19.13v.89C.48,20.02,0,44.14,0,45.17v39.19h19.52v-38.53c.7-1.82,5.89-6.29,22.18-6.29v1.33c0,9.32,25.29,19.14,25.29,19.14h32.17v-11.41h27.65c1,0,1.77-.8,1.77-1.77v-6.88c0-.98-.78-1.77-1.77-1.77h-27.65v-16.34Z"/></svg>