<?xml version="1.0" encoding="UTF-8"?><svg id="Layer_1" xmlns="http://www.w3.org/2000/svg" viewBox="0 0 95.81 96.4"><defs><style>.cls-1{fill:#e52a2d;}</style></defs><path class="cls-1" d="M64.35,35.73H31.46l-3.23-10.35h39.36l-3.24,10.35ZM67.59,67.05h-3.24v-25.04h3.24v25.04ZM28.22,83.78l3.23-10.35h32.9l3.24,10.35H28.22ZM28.22,42.01h3.23v25.04h-3.23v-25.04ZM94.91,59.23l-14.8-14.8c-.47-.46-1.06-.73-1.72-.83V11.09c0-6.13-4.96-11.09-11.08-11.09H28.5c-6.13,0-11.09,4.96-11.09,11.09v32.51c-.64.1-1.25.37-1.72.83L.9,59.23c-1.38,1.38-1.14,3.85.53,5.53,1.68,1.67,4.16,1.91,5.54.54l10.44-10.45v30.46c0,6.12,4.96,11.09,11.09,11.09h38.81c6.12,0,11.08-4.97,11.08-11.09v-30.46l10.45,10.45c1.38,1.38,3.85,1.14,5.53-.54,1.67-1.68,1.91-4.15.54-5.53Z"/></svg>