<?xml version="1.0" encoding="UTF-8"?><svg id="Layer_1" xmlns="http://www.w3.org/2000/svg" viewBox="0 0 106.91 109.26"><defs><style>.cls-1{fill:#fefefe;}</style></defs><path class="cls-1" d="M66.57,86.82l-18.94-18.18c-1.25-1.2-2.92-1.87-4.64-1.87H13.4v-24.29h29.59c1.72,0,3.39-.67,4.64-1.86l18.94-18.2v64.4ZM75.9.53c-2.45-1.04-5.33-.53-7.27,1.33l-28.35,27.22H6.7c-3.7,0-6.7,2.99-6.7,6.7v37.69c0,3.7,3,6.7,6.7,6.7h33.59l28.35,27.22c1.27,1.21,2.94,1.86,4.64,1.86.89,0,1.78-.18,2.63-.54,2.48-1.05,4.08-3.48,4.08-6.16V6.7c0-2.69-1.6-5.11-4.08-6.17Z"/><path class="cls-1" d="M100.21,47.93h-6.8c-3.7,0-6.7,2.99-6.7,6.7s3,6.7,6.7,6.7h6.8c3.71,0,6.7-3,6.7-6.7s-2.99-6.7-6.7-6.7Z"/><path class="cls-1" d="M100.21,20.98h-6.8c-3.7,0-6.7,3-6.7,6.71s3,6.7,6.7,6.7h6.8c3.71,0,6.7-3,6.7-6.7s-2.99-6.71-6.7-6.71Z"/><path class="cls-1" d="M100.21,74.86h-6.8c-3.7,0-6.7,3-6.7,6.71s3,6.7,6.7,6.7h6.8c3.71,0,6.7-3,6.7-6.7s-2.99-6.71-6.7-6.71Z"/></svg>