<?xml version="1.0" encoding="UTF-8"?><svg id="Layer_1" xmlns="http://www.w3.org/2000/svg" viewBox="0 0 128.1 99.28"><defs><style>.cls-1{fill:#fefefe;}</style></defs><path class="cls-1" d="M128.1,14.44c0-7.98-6.47-14.44-14.44-14.44s-14.44,6.46-14.44,14.44c0,6.15,3.84,11.39,9.26,13.47-4.74-.82-9.74,1.13-12.59,5.38l-14.34,21.39c-2.29.67-5.32.76-6.92-.48-1.97-1.54-8.61-5.25-16.41-5.54-7.8-.3-13.31,6.38-13.31,6.38-.22.2-.44.43-.63.67l-23.11,29.06c-2.6,3.27-1.29,8.62,2.91,11.96,4.2,3.35,9.71,3.41,12.32.15l22.1-27.8c12.89,13.13,31.35,10.08,31.35,10.08,10.07-2.08,14.76-5.64,24.82-20.95,10.07-15.32,3.06-23.2,3.06-23.2h-.01c-.93-2.02-2.41-3.83-4.4-5.17-.74-.49-1.5-.88-2.28-1.2.85.15,1.72.25,2.62.25,7.98,0,14.44-6.47,14.44-14.45Z"/><polygon class="cls-1" points="27.13 61.7 28.74 36.98 21.56 44.16 11.97 34.57 0 46.55 9.59 56.13 2.41 63.32 27.13 61.7"/></svg>