<?xml version="1.0" encoding="UTF-8"?><svg id="Layer_1" xmlns="http://www.w3.org/2000/svg" viewBox="0 0 166 146.08"><defs><style>.cls-1{fill:#fefefe;}</style></defs><path class="cls-1" d="M82.99,116.55c9.16,0,17.98,2.96,25.23,8.42l48.22-52.99c-20.51-17.41-46.44-26.95-73.45-26.95s-52.93,9.54-73.43,26.95l48.21,52.99c7.25-5.46,16.07-8.42,25.22-8.42ZM108.62,134.34c-.95,0-1.9-.34-2.65-1.03-6.3-5.73-14.45-8.88-22.97-8.88s-16.66,3.15-22.96,8.88c-1.61,1.46-4.1,1.35-5.56-.26L1.03,74.32c-.7-.78-1.07-1.8-1.02-2.84.05-1.05.51-2.04,1.29-2.74,22.4-20.38,51.42-31.61,81.7-31.61s59.32,11.23,81.71,31.61c.78.7,1.24,1.69,1.29,2.74.04,1.04-.33,2.06-1.02,2.84l-53.44,58.73c-.78.85-1.85,1.29-2.92,1.29Z"/><path class="cls-1" d="M46.61,5.11l4.84,6.22c2.96-2.29,6.91-3.45,11.74-3.46,1.14,0,2.24.1,3.25.3l1.52-7.73c-1.51-.3-3.12-.45-4.77-.45-6.63,0-12.21,1.72-16.58,5.11Z"/><path class="cls-1" d="M41.21,11.13c-4.17,6.64-4.79,14.44-4.79,18.49,0,1.41.08,2.28.09,2.38l7.85-.7s-.05-.64-.05-1.68c0-2.58.35-9.14,3.59-14.3l-6.68-4.19Z"/><path class="cls-1" d="M86.93,30.14c0-.07,0-.13,0-.21l-3.93.1-3.92-.1v.21h-.03c0,.06,0,.1,0,.16v9.52s7.89,0,7.89,0v-8.14s0-.09,0-.16h0s0-.22,0-.51c0-.23,0-.51.01-.85h-.02Z"/><path class="cls-1" d="M82.99,12.54c-1.85-3.77-4.34-6.77-7.36-8.87l-4.5,6.48c4.56,3.17,6.48,9.27,7.29,13.84l4.57-.82,4.59.82c.81-4.57,2.73-10.68,7.29-13.84l-4.49-6.48c-3.03,2.1-5.51,5.1-7.38,8.87Z"/><path class="cls-1" d="M124.79,11.13l-6.68,4.19c3.24,5.16,3.59,11.72,3.59,14.3,0,1.04-.05,1.67-.05,1.68l7.85.7c0-.1.09-.98.09-2.38,0-4.06-.62-11.85-4.8-18.49Z"/><path class="cls-1" d="M102.8,0c-1.65,0-3.25.14-4.77.45l1.53,7.73c1.01-.2,2.11-.3,3.25-.3,4.84,0,8.79,1.17,11.74,3.46l4.84-6.22c-4.37-3.39-9.95-5.11-16.58-5.11Z"/><rect class="cls-1" x="79.06" y="46.35" width="7.88" height="18.53"/><rect class="cls-1" x="79.06" y="71.43" width="7.88" height="18.54"/><rect class="cls-1" x="79.06" y="96.5" width="7.88" height="9.58"/><path class="cls-1" d="M83,142c-1.3,0-2.59-.64-3.34-1.83l-43.13-68.34c-1.17-1.84-.62-4.27,1.22-5.44s4.27-.61,5.43,1.23l43.15,68.34c1.16,1.84.62,4.27-1.23,5.44-.65.41-1.38.6-2.1.6Z"/><path class="cls-1" d="M91.01,138.06c0,4.43-3.59,8.01-8.01,8.01s-8-3.59-8-8.01,3.59-8.01,8-8.01,8.01,3.59,8.01,8.01Z"/></svg>