<?xml version="1.0" encoding="UTF-8"?><svg id="Layer_1" xmlns="http://www.w3.org/2000/svg" viewBox="0 0 108.46 109.26"><defs><style>.cls-1{fill:#fefefe;}</style></defs><path class="cls-1" d="M66.56,39.56l-5.63,5.55-8.85-8.77,14.48-13.95v17.17ZM66.56,86.81l-14.48-13.87,8.85-8.85,5.63,5.63v17.09ZM39.35,66.77H13.41v-24.27h25.94l12.13,12.13-12.13,12.13ZM79.96,64.16v-19.05l26.54-26.61c2.61-2.61,2.61-6.83,0-9.45-2.61-2.61-6.83-2.61-9.45,0l-17.1,17.1V6.72c0-2.69-1.61-5.09-4.09-6.17-2.48-1.07-5.36-.54-7.24,1.35l-26.01,24.93L24.8,9.06c-2.61-2.61-6.83-2.61-9.45,0-2.62,2.62-2.62,6.84,0,9.45l10.59,10.6H6.71c-3.76,0-6.71,2.95-6.71,6.7v37.67c0,3.69,2.95,6.7,6.71,6.7h19.23l-10.59,10.59c-2.62,2.62-2.62,6.84,0,9.45,1.34,1.27,3.01,1.94,4.77,1.94s3.41-.67,4.68-1.94l17.83-17.76,26.01,24.93c1.28,1.21,2.96,1.88,4.63,1.88.87,0,1.74-.2,2.61-.54,2.48-1.07,4.09-3.48,4.09-6.16v-19.44l17.1,17.09c1.27,1.27,3.01,1.94,4.69,1.94s3.48-.67,4.75-1.94c2.61-2.62,2.61-6.84,0-9.45l-26.54-26.61Z"/></svg>