<?xml version="1.0" encoding="UTF-8"?><svg id="Layer_1" xmlns="http://www.w3.org/2000/svg" viewBox="0 0 125.01 122.47"><defs><style>.cls-1{fill:#fefefe;}</style></defs><rect class="cls-1" x="59.29" y="34.01" width="6.41" height="19.1"/><polygon class="cls-1" points="74.5 32.34 88.16 45.85 92.68 41.28 79.01 27.78 74.5 32.34"/><polygon class="cls-1" points="86.63 23.86 103.03 33.98 106.4 28.51 90 18.39 86.63 23.86"/><polygon class="cls-1" points="32.31 40.97 36.83 45.53 50.49 32.03 45.99 27.46 32.31 40.97"/><rect class="cls-1" x="18.85" y="22.66" width="19.26" height="6.43" transform="translate(-9.34 18.81) rotate(-31.67)"/><path class="cls-1" d="M62.47,19.33c-8.32,0-15.42-3.8-16.89-8.61h33.82c-1.46,4.81-8.61,8.61-16.93,8.61ZM101.79,0H23.22C10.4,0,0,10.42,0,23.22v99.26h10.72V23.22c0-6.9,5.6-12.5,12.5-12.5h15.04c1.18,8.96,11.4,15.75,24.21,15.75s23.08-6.79,24.29-15.75h15.04c6.89,0,12.5,5.6,12.5,12.5v99.26h10.71V23.22c0-12.79-10.43-23.22-23.22-23.22Z"/></svg>