<?xml version="1.0" encoding="UTF-8"?><svg id="Layer_1" xmlns="http://www.w3.org/2000/svg" viewBox="0 0 140.27 111.69"><defs><style>.cls-1{fill:#fab639;}</style></defs><path class="cls-1" d="M70.13,97.5c-22.96,0-41.65-18.69-41.65-41.66S47.17,14.2,70.13,14.2s41.65,18.68,41.65,41.65-18.68,41.66-41.65,41.66ZM70.13,4.57c-28.27,0-51.27,23-51.27,51.28s23,51.28,51.27,51.28,51.28-23.01,51.28-51.28S98.4,4.57,70.13,4.57Z"/><path class="cls-1" d="M30.94,103.03c-.87-.67-21.31-16.5-21.31-47.18S30.06,9.33,30.94,8.66c2.12-1.59,2.55-4.61.96-6.73-1.59-2.13-4.61-2.56-6.74-.97C24.14,1.73,0,20.2,0,55.85s24.14,54.11,25.17,54.88c.86.64,1.87.96,2.87.96,1.46,0,2.9-.67,3.85-1.92,1.59-2.12,1.17-5.14-.95-6.74Z"/><path class="cls-1" d="M115.1.96c-2.12-1.59-5.13-1.16-6.72.96s-1.17,5.14.95,6.74c.87.66,21.31,16.5,21.31,47.18s-20.43,46.53-21.31,47.2c-2.12,1.59-2.55,4.6-.96,6.73.94,1.26,2.4,1.93,3.86,1.93,1,0,2.01-.31,2.88-.96,1.03-.78,25.17-19.24,25.17-54.9S116.13,1.73,115.1.96Z"/><polygon class="cls-1" points="46.25 56.32 57.16 56.32 57.16 53.18 46.25 53.18 46.25 43.8 57.83 43.8 57.83 40.66 42.57 40.66 42.57 70.16 58.46 70.16 58.46 67.01 46.25 67.01 46.25 56.32"/><path class="cls-1" d="M71.59,53.44c-3.89-1.58-5.6-2.93-5.6-5.69,0-2.01,1.46-4.42,5.31-4.42,2.55,0,4.43.88,5.35,1.4l1.01-3.11c-1.25-.7-3.39-1.4-6.23-1.4-5.48,0-9.11,3.41-9.11,7.97,0,4.11,2.84,6.69,7.4,8.36,3.85,1.53,5.35,3.11,5.35,5.86,0,2.98-2.17,5.03-5.9,5.03-2.51,0-4.89-.88-6.52-1.93l-.96,3.19c1.5,1.05,4.47,1.93,7.23,1.93,6.64,0,9.87-3.98,9.87-8.53s-2.43-6.69-7.19-8.66Z"/><path class="cls-1" d="M90.4,55.63c-1.21,0-2.42-.09-3.01-.27v-11.64c.62-.13,1.8-.26,3.43-.26,4.01,0,6.64,1.88,6.64,5.87s-2.67,6.3-7.06,6.3ZM98.64,42.88c-1.67-1.57-4.3-2.45-7.9-2.45-2.89,0-5.27.26-7.03.57v29.15h3.68v-11.69c.75.12,1.84.22,3.01.22,3.47,0,6.61-1.09,8.53-3.25,1.42-1.53,2.17-3.63,2.17-6.34s-.96-4.82-2.46-6.22Z"/></svg>