<?xml version="1.0" encoding="UTF-8"?><svg id="Layer_1" xmlns="http://www.w3.org/2000/svg" viewBox="0 0 164.81 127.74"><defs><style>.cls-1{fill:#fefefe;}</style></defs><path class="cls-1" d="M164.81,18.58c0-10.27-8.32-18.58-18.58-18.58s-18.57,8.32-18.57,18.58c0,7.91,4.95,14.64,11.91,17.32-6.1-1.05-12.53,1.45-16.2,6.93l-18.44,27.52c-2.95.85-6.85.97-8.9-.62-2.53-1.97-11.08-6.76-21.12-7.13-10.03-.38-17.11,8.21-17.11,8.21h0c-.3.27-.57.55-.82.87l-29.74,37.39c-3.33,4.2-1.66,11.09,3.75,15.39,5.41,4.3,12.5,4.38,15.84.18l28.43-35.76c16.6,16.9,40.35,12.97,40.35,12.97,12.95-2.67,18.98-7.25,31.93-26.96,12.95-19.71,3.93-29.84,3.93-29.84h-.01c-1.2-2.6-3.09-4.93-5.67-6.66-.94-.63-1.92-1.14-2.93-1.55,1.09.2,2.22.32,3.37.32,10.26,0,18.58-8.32,18.58-18.58Z"/><polygon class="cls-1" points="34.91 79.39 36.97 47.59 27.73 56.83 15.39 44.49 0 59.88 12.34 72.23 3.1 81.46 34.91 79.39"/></svg>