<?xml version="1.0" encoding="UTF-8"?><svg id="Layer_1" xmlns="http://www.w3.org/2000/svg" viewBox="0 0 145.91 145.92"><defs><style>.cls-1{fill:#fefefe;}</style></defs><path class="cls-1" d="M72.95,134.88c-34.14,0-61.92-27.78-61.92-61.93S38.81,11.03,72.95,11.03s61.92,27.78,61.92,61.93-27.78,61.93-61.92,61.93ZM72.95,0C32.72,0,0,32.73,0,72.96s32.72,72.96,72.95,72.96,72.96-32.73,72.96-72.96S113.18,0,72.95,0Z"/><path class="cls-1" d="M63.18,72.96c0,5.4,4.38,9.78,9.77,9.78s9.77-4.38,9.77-9.78-4.37-9.78-9.77-9.78c-.07,0-.14.01-.21.01l-36.04-26.87,26.53,35.58c-.03.35-.05.7-.05,1.05Z"/><path class="cls-1" d="M96.76,100.52v13.15h-5.51v-13.15h5.51ZM86.23,113.66h-5.51v-13.15h5.51v13.15ZM75.71,113.66h-5.51v-13.15h5.51v13.15ZM65.18,113.66h-5.51v-13.15h5.51v13.15ZM54.65,113.66h-5.51v-13.15h5.51v13.15ZM86.23,95.51h-42.11v23.17h57.66v-23.17h-15.55Z"/></svg>