<?xml version="1.0" encoding="UTF-8"?><svg id="Layer_1" xmlns="http://www.w3.org/2000/svg" viewBox="0 0 140.54 99.17"><defs><style>.cls-1{fill:#fefefe;}</style></defs><polygon class="cls-1" points="9.16 35.45 0 54.74 .16 54.83 12.39 55.89 19.58 36.35 9.16 35.45"/><polygon class="cls-1" points="19.14 14.43 10.82 31.96 20.88 32.82 27.38 15.14 19.14 14.43"/><polygon class="cls-1" points="25.99 0 20.8 10.93 28.67 11.61 32.74 .58 25.99 0"/><polygon class="cls-1" points="131.38 35.45 140.54 54.74 140.37 54.83 128.14 55.89 120.95 36.35 131.38 35.45"/><polygon class="cls-1" points="121.39 14.43 129.71 31.96 119.66 32.82 113.15 15.14 121.39 14.43"/><polygon class="cls-1" points="114.54 0 119.73 10.93 111.86 11.61 107.81 .58 114.54 0"/><path class="cls-1" d="M108.74,60.98c-.78-1.73-2.82-2.51-4.55-1.75l-12.18,5.43-11.13-7.14c.22-.88.35-1.77.35-2.71s-.13-1.84-.35-2.71l11.13-7.14,12.18,5.43c.46.2.93.3,1.4.3,1.32,0,2.58-.76,3.15-2.04.78-1.74,0-3.77-1.75-4.54l-8.06-3.6,7.61-4.88c1.6-1.03,2.06-3.16,1.04-4.77-1.04-1.59-3.17-2.06-4.76-1.04l-7.62,4.89.1-8.83c.02-1.91-1.51-3.46-3.4-3.48-1.87,0-3.47,1.51-3.48,3.4l-.15,13.35-11.13,7.13c-1.01-.81-2.18-1.46-3.44-1.88v-13.23l11.15-7.32c1.59-1.04,2.04-3.17.99-4.76-1.04-1.59-3.17-2.04-4.77-.99l-7.37,4.84v-9.04c0-1.91-1.54-3.45-3.45-3.45s-3.44,1.54-3.44,3.45v9.04l-7.38-4.84c-1.58-1.04-3.72-.6-4.76.99-1.04,1.59-.61,3.72.99,4.76l11.16,7.32v13.23c-1.26.42-2.43,1.06-3.45,1.88l-11.13-7.13-.14-13.35c-.02-1.9-1.59-3.42-3.48-3.4-1.9.02-3.43,1.57-3.4,3.48l.09,8.83-7.61-4.89c-1.6-1.03-3.73-.56-4.75,1.04-1.04,1.61-.56,3.74,1.04,4.77l7.61,4.88-8.06,3.6c-1.74.78-2.51,2.8-1.74,4.54.57,1.28,1.83,2.04,3.14,2.04.47,0,.95-.09,1.41-.3l12.18-5.43,11.13,7.14c-.22.87-.35,1.77-.35,2.71s.13,1.83.35,2.71l-11.13,7.14-12.18-5.43c-1.74-.77-3.78.01-4.55,1.75-.78,1.74,0,3.77,1.74,4.55l8.06,3.59-7.61,4.89c-1.6,1.02-2.07,3.15-1.04,4.76.65,1.02,1.76,1.59,2.9,1.59.63,0,1.27-.18,1.85-.54l7.61-4.89-.09,8.82c-.02,1.91,1.51,3.47,3.4,3.48h.04c1.88,0,3.42-1.51,3.44-3.41l.14-13.34,11.13-7.14c1.02.83,2.19,1.46,3.45,1.88v13.22l-11.16,7.33c-1.59,1.04-2.03,3.17-.99,4.77.66,1.01,1.75,1.55,2.88,1.55.65,0,1.3-.18,1.88-.57l7.38-4.84v9.05c0,1.89,1.54,3.44,3.44,3.44s3.45-1.55,3.45-3.44v-9.05l7.37,4.84c.58.38,1.23.57,1.88.57,1.12,0,2.22-.54,2.88-1.55,1.04-1.59.6-3.72-.99-4.77l-11.15-7.33v-13.22c1.26-.42,2.43-1.06,3.44-1.88l11.13,7.14.15,13.34c.01,1.89,1.56,3.41,3.44,3.41h.04c1.9-.01,3.43-1.58,3.4-3.48l-.1-8.82,7.62,4.89c.57.36,1.21.54,1.85.54,1.14,0,2.25-.57,2.9-1.59,1.02-1.61.57-3.74-1.04-4.76l-7.61-4.89,8.06-3.59c1.74-.78,2.52-2.81,1.75-4.55Z"/></svg>