<?xml version="1.0" encoding="UTF-8"?><svg id="Layer_1" xmlns="http://www.w3.org/2000/svg" viewBox="0 0 166 118.99"><defs><style>.cls-1{fill:#fefefe;}</style></defs><path class="cls-1" d="M108.23,101.6c-7.24-5.45-16.08-8.42-25.22-8.42-1.95,0-3.88.14-5.78.41l-34.05-53.94c-1.16-1.84-3.59-2.39-5.43-1.23-1.85,1.17-2.4,3.6-1.23,5.44l32.63,51.69c-4.06,1.41-7.88,3.45-11.36,6.06L9.56,48.62c20.51-17.42,46.44-26.96,73.44-26.96,5.37,0,10.7.39,15.95,1.13-2.54,5.29-4.44,10.29-4.44,13.47,0,9.67,7.85,17.52,17.52,17.52s17.52-7.85,17.52-17.52c0-1.38-.38-3.12-.99-5.06,10.01,4.39,19.42,10.21,27.9,17.41l-48.22,52.99ZM164.72,45.39c-11.9-10.82-25.67-19.03-40.49-24.38-5.16-10.3-12.2-21.01-12.2-21.01,0,0-4.72,7.17-9.25,15.42-6.5-1.06-13.1-1.64-19.78-1.64-30.29,0-59.31,11.22-81.71,31.61-.78.7-1.24,1.69-1.29,2.73-.05,1.04.32,2.06,1.02,2.84l53.44,58.73c1.46,1.61,3.96,1.73,5.57.26,3.89-3.54,8.48-6.09,13.44-7.53l2.73,4.32c-.77,1.23-1.21,2.67-1.21,4.23,0,4.43,3.58,8.01,8,8.01s8.01-3.59,8.01-8.01-3.51-7.93-7.87-8.01l-1.19-1.88c.35,0,.7-.02,1.04-.02,8.51,0,16.67,3.16,22.96,8.88.75.7,1.7,1.03,2.65,1.03,1.06,0,2.14-.43,2.91-1.29l53.44-58.73c.71-.78,1.07-1.8,1.03-2.84-.05-1.04-.51-2.03-1.28-2.73Z"/></svg>