<?xml version="1.0" encoding="UTF-8"?><svg id="Layer_1" xmlns="http://www.w3.org/2000/svg" viewBox="0 0 124.35 111.09"><defs><style>.cls-1{fill:#e52a2d;}</style></defs><path class="cls-1" d="M73.93,52.8h-23.51c-1.56,1.17-4.51,5.86-6.79,10.32h37.09c-2.29-4.46-5.23-9.14-6.79-10.32Z"/><path class="cls-1" d="M92.35,67.55c0,1.09-1.02,1.98-2.28,1.98h-1.33c.14.67.23,1.35.23,2.08v9.43c0,2.84-1.13,5.33-2.85,6.87v7.79c0,1.26-1.01,2.28-2.27,2.28h-5.14c-1.25,0-2.28-1.02-2.28-2.28v-6.18h-28.51v6.18c0,1.26-1.02,2.28-2.28,2.28h-5.14c-1.25,0-2.27-1.02-2.27-2.28v-7.79c-1.72-1.54-2.85-4.04-2.85-6.87v-9.43c0-.72.09-1.41.23-2.08h-1.33c-1.26,0-2.28-.89-2.28-1.98v-2.1c0-1.09,1.02-1.98,2.28-1.98h4.17l-.03-.08.44-.93c1.38-2.84,6.18-12.25,9.99-14l.46-.21h25.74l.45.21c3.82,1.75,8.61,11.16,10,14l.45.93-.04.08h4.17c1.26,0,2.28.89,2.28,1.98v2.11ZM121.75,91.94L73.23,7.9c-6.09-10.53-16.03-10.53-22.12,0L2.6,91.94c-6.09,10.54-1.11,19.15,11.06,19.15h97.03c12.16,0,17.15-8.61,11.06-19.15Z"/></svg>