<?xml version="1.0" encoding="UTF-8"?><svg id="Layer_1" xmlns="http://www.w3.org/2000/svg" viewBox="0 0 125.86 125.86"><defs><style>.cls-1{fill:#e52a2d;}</style></defs><path class="cls-1" d="M71.39,76.73c0,2.22-1.81,4.04-4.04,4.04h-5.8c-2.23,0-4.04-1.81-4.04-4.04V27.5c0-2.23,1.81-4.04,4.04-4.04h5.8c2.23,0,4.04,1.81,4.04,4.04v49.23Z"/><rect class="cls-1" x="57.5" y="88.51" width="13.89" height="13.88" rx="4.04" ry="4.04"/><path class="cls-1" d="M62.93,114.58c-28.52,0-51.64-23.12-51.64-51.65S34.41,11.28,62.93,11.28s51.64,23.12,51.64,51.65-23.12,51.65-51.64,51.65ZM118.69,62.92c11.03-9.21,9.16-18-4.38-21.7,6.78-12.29,1.9-19.48-11.95-17.73,1.75-13.84-5.45-18.73-17.72-11.95-3.7-13.54-12.48-15.41-21.71-4.38-9.22-11.03-18-9.16-21.7,4.38-12.28-6.79-19.48-1.9-17.72,11.95-13.84-1.75-18.73,5.44-11.95,17.73-13.54,3.69-15.41,12.48-4.38,21.7-11.03,9.23-9.16,18.01,4.38,21.71-6.78,12.28-1.89,19.48,11.95,17.72-1.76,13.84,5.44,18.73,17.72,11.95,3.7,13.54,12.48,15.41,21.7,4.38,9.23,11.03,18.01,9.16,21.71-4.38,12.27,6.78,19.47,1.89,17.72-11.95,13.84,1.76,18.73-5.44,11.95-17.72,13.54-3.7,15.42-12.48,4.38-21.71Z"/></svg>