<?xml version="1.0" encoding="UTF-8"?><svg id="Layer_1" xmlns="http://www.w3.org/2000/svg" viewBox="0 0 171.66 176.77"><defs><style>.cls-1{fill:#fefefe;}</style></defs><polygon class="cls-1" points="17.6 0 6.05 3.35 63.26 60.56 56.37 61.48 .07 5.08 0 5.1 5.82 33.63 14.51 42.32 27.17 38.04 24.93 52.74 29.14 56.95 33.2 54.97 39.85 61.62 38.99 66.79 46.52 74.32 48.94 73.11 55.07 80.98 54.66 82.47 64.43 92.24 87.13 69.53 17.6 0"/><path class="cls-1" d="M126.13,148.73c-3.52,3.52-9.22,3.52-12.74,0-3.51-3.51-3.51-9.21,0-12.73l17.5-17.5c3.52-3.52,9.21-3.52,12.73,0,3.52,3.51,3.52,9.22,0,12.73l-17.49,17.5ZM167.45,108.05l-44.14-44.14c-5.63-5.62-14.74-5.62-20.36,0l-44.14,44.14c-5.63,5.61-5.63,14.74,0,20.36l44.13,44.13c5.62,5.63,14.74,5.63,20.37,0l44.14-44.13c5.62-5.62,5.62-14.75,0-20.36Z"/></svg>