<?xml version="1.0" encoding="UTF-8"?><svg id="Layer_1" xmlns="http://www.w3.org/2000/svg" viewBox="0 0 156.39 83.46"><defs><style>.cls-1{fill:#fefefe;}</style></defs><path class="cls-1" d="M78.17,26.11c-13.87,0-25.54-6.67-26.89-14.88h53.85c-1.35,8.21-13.08,14.88-26.96,14.88ZM0,0v11.23h39.87c1.06,14.78,17.47,26.12,38.3,26.12s37.29-11.34,38.35-26.12h39.87V0H0Z"/><path class="cls-1" d="M78.69,47.31c-2.9,0-5.26,2.93-5.26,6.53s2.35,6.53,5.26,6.53,5.27-2.93,5.27-6.53-2.35-6.53-5.27-6.53Z"/><path class="cls-1" d="M78.69,70.39c-2.9,0-5.26,2.92-5.26,6.53s2.35,6.53,5.26,6.53,5.27-2.93,5.27-6.53-2.35-6.53-5.27-6.53Z"/><path class="cls-1" d="M102.2,42.42c-2.25,1.83-2.24,5.59.04,8.38,2.27,2.8,5.95,3.59,8.2,1.75,2.26-1.83,2.24-5.59-.04-8.39-2.27-2.8-5.95-3.58-8.21-1.74Z"/><path class="cls-1" d="M116.77,60.32c-2.25,1.83-2.24,5.59.04,8.39,2.27,2.8,5.95,3.58,8.21,1.74,2.25-1.83,2.23-5.59-.04-8.39-2.28-2.79-5.95-3.58-8.21-1.74Z"/><path class="cls-1" d="M123.55,23.78c-1.77,2.3-.92,5.96,1.93,8.17,2.85,2.22,6.61,2.15,8.39-.15,1.79-2.3.92-5.94-1.93-8.16-2.85-2.21-6.61-2.15-8.4.14Z"/><path class="cls-1" d="M141.77,37.95c-1.77,2.29-.92,5.95,1.93,8.16,2.85,2.22,6.61,2.16,8.4-.14,1.77-2.3.91-5.95-1.93-8.16-2.85-2.22-6.61-2.16-8.4.14Z"/><path class="cls-1" d="M46.97,44.24c-2.27,2.8-2.3,6.56-.04,8.39,2.25,1.83,5.93,1.06,8.21-1.75,2.28-2.79,2.29-6.56.04-8.38-2.25-1.85-5.93-1.06-8.2,1.74Z"/><path class="cls-1" d="M32.4,62.16c-2.27,2.78-2.29,6.55-.04,8.38,2.26,1.83,5.93,1.05,8.21-1.75,2.28-2.79,2.3-6.56.05-8.39-2.26-1.83-5.93-1.06-8.21,1.75Z"/><path class="cls-1" d="M33.82,23.87c-1.79-2.3-5.55-2.36-8.4-.15-2.85,2.22-3.71,5.88-1.93,8.16,1.79,2.3,5.54,2.37,8.39.15,2.85-2.22,3.71-5.88,1.93-8.16Z"/><path class="cls-1" d="M7.2,37.9c-2.84,2.22-3.7,5.88-1.92,8.16,1.78,2.3,5.54,2.35,8.39.14,2.85-2.22,3.72-5.88,1.93-8.17-1.79-2.29-5.56-2.36-8.4-.14Z"/></svg>