<?xml version="1.0" encoding="UTF-8"?><svg id="Layer_1" xmlns="http://www.w3.org/2000/svg" viewBox="0 0 127.03 106.41"><defs><style>.cls-1{fill:#fab639;}</style></defs><path class="cls-1" d="M104.24.87c-1.93-1.44-4.64-1.04-6.09.87-1.44,1.93-1.06,4.66.86,6.11.78.59,19.3,14.94,19.3,42.73s-18.51,42.13-19.3,42.73c-.23.17-.44.37-.62.57H28.64c-.18-.2-.39-.4-.62-.57-.79-.59-19.31-14.94-19.31-42.73S27.22,8.44,28.02,7.85c1.92-1.45,2.31-4.17.87-6.1-1.44-1.93-4.17-2.32-6.11-.88C21.86,1.56,0,18.29,0,50.58s21.86,49.01,22.79,49.7c.78.59,1.7.87,2.6.87h1.3c.07.14.14.27.21.38,1.06,1.94,2.65,4.88,6.12,4.88s5.06-2.93,6.12-4.88c.06-.11.14-.24.21-.38h2.6c.08.14.14.27.21.38,1.06,1.94,2.65,4.88,6.13,4.88s5.06-2.93,6.11-4.88c.07-.11.14-.24.21-.38h2.61c.07.14.14.27.21.38,1.05,1.94,2.65,4.88,6.12,4.88s5.06-2.93,6.12-4.88c.07-.11.14-.24.21-.38h2.61c.07.14.14.27.21.38,1.06,1.94,2.65,4.88,6.12,4.88s5.06-2.93,6.12-4.88c.07-.11.14-.24.22-.38h2.61c.07.14.14.27.21.38,1.06,1.94,2.65,4.88,6.12,4.88s5.07-2.93,6.13-4.88c.06-.11.13-.24.21-.38h1.3c.87-.04,1.74-.31,2.49-.87.93-.7,22.78-17.42,22.78-49.71S105.17,1.56,104.24.87Z"/><path class="cls-1" d="M68.52,40.66h-10c-3.31,0-6,2.69-6,6.01v16c0,3.31,2.69,6,6,6h10c3.32,0,6-2.69,6-6v-16c0-3.32-2.68-6.01-6-6.01Z"/><polygon class="cls-1" points="36.47 50.99 27.84 50.99 27.84 58.33 36.47 58.33 36.47 68.24 48.85 54.66 36.47 41.07 36.47 50.99"/><polygon class="cls-1" points="90.55 50.99 90.55 41.08 78.19 54.67 90.55 68.25 90.55 58.33 99.19 58.33 99.19 50.99 90.55 50.99"/></svg>