<?xml version="1.0" encoding="UTF-8"?><svg id="Layer_1" xmlns="http://www.w3.org/2000/svg" viewBox="0 0 109.11 135.15"><defs><style>.cls-1{fill:#fefefe;}</style></defs><path class="cls-1" d="M93.39,127.97c-4.7,0-8.53-3.83-8.53-8.53s3.83-8.53,8.53-8.53,8.53,3.83,8.53,8.53-3.82,8.53-8.53,8.53ZM54.56,24.25c-4.7,0-8.53-3.83-8.53-8.53s3.83-8.53,8.53-8.53,8.53,3.83,8.53,8.53-3.83,8.53-8.53,8.53ZM63.09,119.45c0,4.69-3.83,8.53-8.53,8.53s-8.53-3.83-8.53-8.53,3.83-8.53,8.53-8.53,8.53,3.83,8.53,8.53ZM24.25,119.45c0,4.69-3.83,8.53-8.53,8.53s-8.54-3.83-8.54-8.53,3.84-8.53,8.54-8.53,8.53,3.83,8.53,8.53ZM84.87,15.71c0-4.7,3.83-8.53,8.53-8.53s8.53,3.83,8.53,8.53-3.82,8.53-8.53,8.53-8.53-3.83-8.53-8.53ZM7.18,15.71c0-4.7,3.84-8.53,8.54-8.53s8.53,3.83,8.53,8.53-3.83,8.53-8.53,8.53-8.54-3.83-8.54-8.53ZM96.98,104.16V31c6.94-1.63,12.13-7.85,12.13-15.29,0-8.66-7.06-15.71-15.72-15.71s-15.71,7.05-15.71,15.71c0,7.43,5.19,13.66,12.13,15.29v32.95h-31.66V31c6.93-1.63,12.12-7.85,12.12-15.29,0-8.66-7.05-15.71-15.71-15.71s-15.71,7.05-15.71,15.71c0,7.43,5.18,13.66,12.12,15.29v32.95h-31.65V31c6.93-1.63,12.11-7.85,12.11-15.29C31.43,7.05,24.38,0,15.72,0S0,7.05,0,15.71c0,7.43,5.19,13.66,12.13,15.29v73.16c-6.94,1.62-12.13,7.85-12.13,15.29,0,8.66,7.06,15.71,15.72,15.71s15.71-7.05,15.71-15.71c0-7.43-5.18-13.66-12.11-15.29v-32.95h31.65v32.95c-6.94,1.62-12.12,7.85-12.12,15.29,0,8.66,7.05,15.71,15.71,15.71s15.71-7.05,15.71-15.71c0-7.43-5.19-13.66-12.12-15.29v-32.95h31.66v32.95c-6.94,1.62-12.13,7.85-12.13,15.29,0,8.66,7.05,15.71,15.71,15.71s15.72-7.05,15.72-15.71c0-7.43-5.19-13.66-12.13-15.29Z"/></svg>