<?xml version="1.0" encoding="UTF-8"?><svg id="Layer_1" xmlns="http://www.w3.org/2000/svg" viewBox="0 0 120.26 120.26"><defs><style>.cls-1{fill:#fab639;}</style></defs><path class="cls-1" d="M60.13,9.5c-27.93,0-50.63,22.71-50.63,50.64s22.7,50.64,50.63,50.64,50.64-22.72,50.64-50.64S88.06,9.5,60.13,9.5ZM60.13,120.26C26.98,120.26,0,93.29,0,60.14S26.98,0,60.13,0s60.13,26.98,60.13,60.14-26.98,60.13-60.13,60.13Z"/><path class="cls-1" d="M100.63,64.63c-1.66-2.46-8.91-5.5-12.73-6.98,0-.2.02-.39.02-.59,0-10.16-10.41-20.07-23.29-20.07-10.3,0-19.04,6.38-22.09,14.14-5.91-2.33-8.71-8.4-15.52-8.4-5.19,0-9.41,3.56-9.41,7.95s4.33,6.78,9.41,7.94c.7.16,1.7.28,2.91.38,1.94.54,8.47,2.77,8.97,8.76.58,7.05.75,10.53,4.74,10.83,4,.3,2.33-4.56,7.33-6.62.44-.18.75-.46,1.03-.77,3.64,1.55,7.96,2.39,12.63,2.39,4.11,0,7.97-.65,11.3-1.86.14.08.25.17.41.24,5,2.06,3.3,6.92,7.33,6.62,4-.3,4.14-3.78,4.74-10.83.06-.82-.03-1.57-.2-2.27,5.86,1.09,14.05,1.59,12.41-.84Z"/></svg>