<?xml version="1.0" encoding="UTF-8"?><svg id="Layer_1" xmlns="http://www.w3.org/2000/svg" viewBox="0 0 157.85 118.28"><defs><style>.cls-1{fill:#fefefe;}</style></defs><path class="cls-1" d="M144.19,16.84h-56.61c-26.9,0-52.47,22.67-61.28,37.99-.79,1.38-2.24,2.16-3.73,2.16-.72,0-1.46-.18-2.14-.57-2.06-1.18-2.77-3.81-1.59-5.88C28.64,33.48,57.28,8.24,87.57,8.24h56.61c2.37,0,4.29,1.93,4.29,4.3s-1.92,4.3-4.29,4.3ZM79.5,56.92l17.2-26.8,17.19,26.8h-34.39ZM147.51,98.62c0,6.17-4.93,11.18-11.01,11.18H21.46c-6.08,0-11.01-5.01-11.01-11.18v-35.25h137.05v35.25ZM146.67,0h-69.68C40.43,0,0,46.23,0,72.26v34.84c0,6.18,5.01,11.19,11.18,11.19h135.49c6.18,0,11.19-5.01,11.19-11.19V11.19c0-6.18-5.01-11.19-11.19-11.19Z"/><polygon class="cls-1" points="113.89 69.81 96.7 96.62 79.5 69.81 113.89 69.81"/></svg>