<?xml version="1.0" encoding="UTF-8"?><svg id="Layer_1" xmlns="http://www.w3.org/2000/svg" viewBox="0 0 123.01 113.09"><defs><style>.cls-1{fill:#149459;}</style></defs><path class="cls-1" d="M61.49,78.91c-15.08,0-27.32-12.26-27.32-27.33s12.24-27.34,27.32-27.34,27.35,12.26,27.35,27.34-12.27,27.33-27.35,27.33ZM52.85,6.19h17.3v11.08h-17.3V6.19ZM76.34,21.52V0h-29.67v21.52c-11.05,5.49-18.68,16.9-18.68,30.06,0,18.49,15.05,33.53,33.5,33.53s33.53-15.04,33.53-33.53c0-13.16-7.63-24.57-18.68-30.06Z"/><path class="cls-1" d="M119.93,48.49h-20.91v6.19h20.91c1.69,0,3.08-1.38,3.08-3.09s-1.39-3.09-3.08-3.09Z"/><path class="cls-1" d="M23.99,54.67v-6.19H3.09c-1.7,0-3.09,1.38-3.09,3.09s1.39,3.09,3.09,3.09h20.9Z"/><path class="cls-1" d="M92.41,25.04l12.58-12.58c1.22-1.21,1.22-3.17,0-4.38-1.2-1.21-3.17-1.21-4.38,0l-12.58,12.58-2.2,2.19,4.38,4.38,2.2-2.19Z"/><path class="cls-1" d="M92.41,78.12l-2.2-2.2-4.38,4.38,2.2,2.19,12.58,12.58c1.22,1.21,3.19,1.21,4.38,0,1.22-1.21,1.22-3.17,0-4.38l-12.58-12.58Z"/><path class="cls-1" d="M58.41,92.19v17.8c0,1.71,1.39,3.09,3.08,3.09s3.11-1.38,3.11-3.09v-20.89h-6.19v3.09Z"/><path class="cls-1" d="M30.59,78.12l-12.58,12.58c-1.22,1.21-1.22,3.17,0,4.38,1.2,1.21,3.17,1.21,4.36,0l12.6-12.58,2.16-2.19-4.35-4.38-2.2,2.2Z"/><path class="cls-1" d="M30.59,25.04l2.2,2.19,4.35-4.38-2.16-2.19-12.6-12.58c-1.2-1.21-3.17-1.21-4.36,0-1.22,1.21-1.22,3.17,0,4.38l12.58,12.58Z"/><path class="cls-1" d="M61.49,58.61c2.27,0,4.14-1.85,4.14-4.13v-19.73c0-2.27-1.86-4.13-4.14-4.13s-4.11,1.85-4.11,4.13v19.73c0,2.28,1.83,4.13,4.11,4.13Z"/><path class="cls-1" d="M61.49,61.21c-2.55,0-4.64,2.08-4.64,4.64s2.09,4.64,4.64,4.64,4.67-2.08,4.67-4.64-2.08-4.64-4.67-4.64Z"/></svg>