<?xml version="1.0" encoding="UTF-8"?><svg id="Layer_1" xmlns="http://www.w3.org/2000/svg" viewBox="0 0 44.02 136"><defs><style>.cls-1{fill:#fefefe;}</style></defs><path class="cls-1" d="M22.01,10.77c4.63,0,8.4,3.77,8.4,8.4s-3.77,8.39-8.4,8.39-8.39-3.76-8.39-8.39,3.76-8.4,8.39-8.4ZM30.4,116.85c0,4.62-3.77,8.39-8.4,8.39s-8.39-3.77-8.39-8.39,3.76-8.4,8.39-8.4,8.4,3.77,8.4,8.4ZM38.38,29.06c1.75-2.89,2.79-6.27,2.79-9.9C41.17,8.6,32.57,0,22.01,0S2.85,8.6,2.85,19.16c0,3.62,1.04,7.01,2.79,9.9-3.3,1.28-5.64,4.46-5.64,8.22v47.19c0,4.86,3.94,8.81,8.81,8.81h4.91v6.33c-6.42,3.09-10.87,9.64-10.87,17.24,0,10.56,8.59,19.15,19.15,19.15s19.16-8.59,19.16-19.15c0-7.58-4.46-14.15-10.87-17.24v-6.33h4.91c4.86,0,8.81-3.95,8.81-8.81v-47.19c0-3.75-2.35-6.94-5.64-8.22Z"/></svg>