<?xml version="1.0" encoding="UTF-8"?><svg id="Layer_1" xmlns="http://www.w3.org/2000/svg" viewBox="0 0 98.82 109.55"><defs><style>.cls-1{fill:#fefefe;}</style></defs><path class="cls-1" d="M98.82,60.17c0,27.2-22.18,49.38-49.38,49.38S0,87.37,0,60.17C0,38.79,13.67,20.58,32.69,13.75v22.37c-7.57,5.36-12.59,14.07-12.59,24.05,0,16.15,13.13,29.28,29.34,29.28s29.27-13.13,29.27-29.28c0-9.98-4.96-18.69-12.53-24.05V13.75c18.96,6.83,32.63,25.04,32.63,46.42Z"/><path class="cls-1" d="M58.3,8.86v47.02c0,4.9-4.02,8.85-8.86,8.85s-8.86-3.96-8.86-8.85V8.86c0-4.9,3.96-8.86,8.86-8.86s8.86,3.96,8.86,8.86Z"/></svg>