<?xml version="1.0" encoding="UTF-8"?><svg id="Layer_1" xmlns="http://www.w3.org/2000/svg" viewBox="0 0 180.84 108.48"><defs><style>.cls-1{fill:#149459;}</style></defs><path class="cls-1" d="M16.86,102.39c2.51,1.26,6.19,2.31,10.06,2.31,5.74,0,9.08-2.47,9.08-6.04,0-3.32-2.32-5.21-8.19-7.05-7.08-2.05-11.47-5.05-11.47-10.04,0-5.53,5.61-9.63,14.05-9.63,4.45,0,7.67.84,9.61,1.74l-1.55,3.73c-1.42-.63-4.32-1.68-8.25-1.68-5.93,0-8.18,2.89-8.18,5.31,0,3.31,2.64,4.94,8.64,6.84,7.35,2.31,11.08,5.2,11.08,10.41,0,5.47-4.96,10.2-15.21,10.2-4.19,0-8.77-1-11.09-2.26l1.42-3.84Z"/><polygon class="cls-1" points="55 72.52 55 87.35 76.01 87.35 76.01 72.52 81.69 72.52 81.69 107.96 76.01 107.96 76.01 91.34 55 91.34 55 107.96 49.4 107.96 49.4 72.52 55 72.52"/><rect class="cls-1" x="91.41" y="72.52" width="5.61" height="35.44"/><polygon class="cls-1" points="106.82 72.52 130.21 72.52 130.21 76.36 112.42 76.36 112.42 88.14 128.85 88.14 128.85 91.92 112.42 91.92 112.42 107.96 106.82 107.96 106.82 72.52"/><polygon class="cls-1" points="146.45 76.41 133.23 76.41 133.23 72.52 165.39 72.52 165.39 76.41 152.12 76.41 152.12 107.96 146.45 107.96 146.45 76.41"/><polygon class="cls-1" points="0 65.43 90.41 0 180.84 65.43 0 65.43"/></svg>