<?xml version="1.0" encoding="UTF-8"?><svg id="Layer_1" xmlns="http://www.w3.org/2000/svg" viewBox="0 0 140.26 111.69"><defs><style>.cls-1{fill:#fab639;}</style></defs><path class="cls-1" d="M70.12,97.5c-22.96,0-41.65-18.69-41.65-41.66S47.17,14.2,70.12,14.2s41.65,18.68,41.65,41.65-18.68,41.66-41.65,41.66ZM70.12,4.57c-28.27,0-51.27,23-51.27,51.28s23.01,51.28,51.27,51.28,51.28-23.01,51.28-51.28S98.4,4.57,70.12,4.57Z"/><path class="cls-1" d="M30.93,103.03c-.87-.67-21.31-16.5-21.31-47.18S30.06,9.33,30.93,8.66c2.12-1.59,2.55-4.61.96-6.73-1.59-2.13-4.61-2.56-6.74-.97C24.13,1.73,0,20.2,0,55.85s24.13,54.11,25.16,54.88c.86.64,1.88.96,2.87.96,1.46,0,2.9-.67,3.85-1.92,1.59-2.12,1.17-5.14-.95-6.74Z"/><path class="cls-1" d="M115.1.96c-2.13-1.59-5.13-1.16-6.72.96-1.6,2.12-1.17,5.14.94,6.74.87.66,21.31,16.5,21.31,47.18s-20.44,46.53-21.31,47.2c-2.12,1.59-2.55,4.6-.96,6.73.95,1.26,2.4,1.93,3.86,1.93,1.01,0,2.01-.31,2.88-.96,1.03-.78,25.16-19.24,25.16-54.9S116.12,1.73,115.1.96Z"/><path class="cls-1" d="M46.25,37.26c1.83-3.69,7.15-3.36,21.61,8.44,2.96,2.41,8.74,2.77,16.42,2.51,0,0,4.51,10.53,12.36,13.02,0,0-1.09,4.49-6.25,10.69-6,7.21-8.3,4.75-12.79.62-4.11-3.78-4.78-4.86-3.29-7.61,1.5-2.75-14.48-5.3-21.09-11.21-4.06-3.64-9.1-12.15-6.96-16.47Z"/></svg>