<?xml version="1.0" encoding="UTF-8"?><svg id="Layer_1" xmlns="http://www.w3.org/2000/svg" viewBox="0 0 132.69 69.93"><defs><style>.cls-1{fill:#149459;}</style></defs><path class="cls-1" d="M89.44,21.18c-5.03,0-7.71,5.33-7.71,11.88s2.85,11.6,7.71,11.6,7.66-5.19,7.66-11.83c0-5.99-2.6-11.65-7.66-11.65Z"/><path class="cls-1" d="M89.15,49.32c-7.84,0-12.79-6.84-12.79-16.17s5.36-16.64,13.2-16.64,12.9,7.03,12.9,16.08c0,10.65-5.65,16.73-13.31,16.73ZM68.21,44.46c2.06,0,4.2-.47,5.53-1.17l.82,4.57c-1.2.71-3.83,1.41-7.17,1.41-8.82,0-14.18-6.32-14.18-15.98,0-10.46,6.35-16.78,14.84-16.78,3.34,0,5.73.8,6.77,1.41l-1.12,4.62c-1.32-.66-3.13-1.22-5.44-1.22-5.65,0-9.74,4.06-9.74,11.69,0,6.97,3.59,11.45,9.69,11.45ZM50.19,48.8h-16.78v-31.77h16.17v4.76h-11.09v8.2h10.47v4.72h-10.47v9.33h11.71v4.76ZM97.73,0h-62.77C15.65,0,0,15.66,0,34.96v34.97h97.73c19.31,0,34.96-15.66,34.96-34.97V0h-34.96Z"/></svg>