<?xml version="1.0" encoding="UTF-8"?><svg id="Layer_1" xmlns="http://www.w3.org/2000/svg" viewBox="0 0 84.8 139.66"><defs><style>.cls-1{fill:#fefefe;}</style></defs><path class="cls-1" d="M84.8,16.21v93.02c0,1.5-.62,2.96-1.72,3.96-1.06,1.06-2.54,1.62-4,1.54h-.61c-4.98,0-29.77.93-29.77,19.43,0,3.04-2.46,5.51-5.49,5.51H8.79c-2.99,0-5.45-2.38-5.53-5.37l-1.07-47.44c-.09-2.68-.79-60.1,29.15-73.51l5.71,9.55c-24.22,9.28-23.91,63.13-23.86,63.7l.96,42.07h24.05c2.98-16.61,19.65-23.65,35.6-24.75V21.71h-16.97l-6.6-11h29.06c3.04,0,5.5,2.46,5.5,5.5Z"/><polygon class="cls-1" points="49.55 43.86 53.32 41.5 41.5 21.76 36.09 12.7 35.56 11.82 33.76 8.78 0 8.78 0 0 38.73 0 45.15 10.71 45.54 11.38 51.7 21.71 60.76 36.82 64.31 34.64 64.94 52.04 49.55 43.86"/></svg>