<?xml version="1.0" encoding="UTF-8"?><svg id="Layer_1" xmlns="http://www.w3.org/2000/svg" viewBox="0 0 123.31 85.28"><defs><style>.cls-1{fill:#fefefe;}</style></defs><rect class="cls-1" y="10.61" width="42.36" height="6.36"/><rect class="cls-1" y="25.04" width="42.36" height="6.36"/><rect class="cls-1" y="39.46" width="42.36" height="6.36"/><rect class="cls-1" y="53.89" width="42.36" height="6.36"/><rect class="cls-1" y="68.31" width="42.36" height="6.36"/><path class="cls-1" d="M85.23,76.25l-.17.04c-2.19.57-4.97.86-8.19.86-17.55,0-18.85-6.14-18.9-6.57V14.68l.03.12-.03-.15c.19-.8,1.97-6.51,18.9-6.51,3.22,0,6,.29,8.22.86l.14.03c14.46,3.17,29.95,17.42,29.95,33.61s-15.49,30.45-29.95,33.61ZM87.03,1.1c-2.86-.73-6.27-1.1-10.16-1.1-11.13,0-19.05,2.32-23.49,6.88-3.35,3.43-3.55,6.92-3.55,7.78v55.96c0,.85.2,4.34,3.55,7.77,4.44,4.57,12.36,6.88,23.49,6.88,3.89,0,7.3-.37,10.16-1.1,17.46-3.85,36.28-20.8,36.28-41.54S104.49,4.96,87.03,1.1Z"/></svg>