<?xml version="1.0" encoding="UTF-8"?><svg id="Layer_1" xmlns="http://www.w3.org/2000/svg" viewBox="0 0 125.89 87.48"><defs><style>.cls-1{fill:#149459;}</style></defs><path class="cls-1" d="M45.41,20.99l-.86-3.18c-.25-.96-1.25-1.54-2.22-1.28l-18.96,5.06c.55-.58,1.22-1.2,2.05-1.91,2.86-2.52,6.8-5.98,6.8-12.6,0-2.25-1.83-4.06-4.08-4.06s-4.06,1.82-4.06,4.06c0,2.8-1.33,4.09-4.05,6.49-2.59,2.27-6.03,5.3-6.69,10.69l-12.02,3.21c-.94.25-1.53,1.25-1.28,2.22l.85,3.18c.25.96,1.25,1.54,2.19,1.28l11.02-2.93c1.12,2.96,3.14,5.03,4.95,6.68L1.33,42.63c-.94.25-1.53,1.25-1.28,2.21l.85,3.19c.25.96,1.25,1.54,2.19,1.28l20.82-5.55c.09.45.17.93.17,1.49,0,2.8-1.33,4.09-4.05,6.48-.53.46-1.12.96-1.67,1.51L1.33,57.78c-.94.25-1.53,1.25-1.28,2.21l.85,3.19c.25.96,1.25,1.54,2.19,1.28l10.36-2.76c-.14.82-.22,1.69-.22,2.62,0,2,.36,3.7.94,5.19l-12.85,3.43c-.94.25-1.53,1.25-1.28,2.21l.85,3.19c.25.96,1.25,1.54,2.19,1.28l15.38-4.1c.53.5,1.06.96,1.56,1.41,2.72,2.4,4.05,3.68,4.05,6.48,0,2.25,1.8,4.07,4.06,4.07s4.08-1.83,4.08-4.07c0-4.88-2.14-8.04-4.41-10.37l16.32-4.35c.94-.25,1.53-1.25,1.28-2.21l-.86-3.19c-.25-.96-1.25-1.54-2.22-1.28l-20.15,5.38c-.53-.88-.8-1.82-.8-3.06,0-2.41.97-3.69,2.97-5.53l19.79-5.27c.94-.26,1.53-1.25,1.28-2.22l-.86-3.18c-.25-.96-1.25-1.54-2.22-1.28l-10.8,2.88c.44-1.32.7-2.8.7-4.48,0-1.32-.17-2.5-.44-3.59l12.35-3.29c.94-.26,1.53-1.25,1.28-2.22l-.86-3.18c-.25-.96-1.25-1.54-2.22-1.28l-14,3.74c-.97-1.07-1.99-1.98-2.91-2.78-1.58-1.39-2.69-2.41-3.33-3.56l22.04-5.88c.94-.25,1.53-1.25,1.28-2.22Z"/><path class="cls-1" d="M87.81,76.25l-.17.03c-2.19.57-4.97.86-8.19.86-17.54,0-18.85-6.13-18.9-6.57V14.68l.03.13-.03-.16c.17-.8,1.97-6.5,18.9-6.5,3.22,0,6,.28,8.22.85l.14.04c14.46,3.17,29.95,17.42,29.95,33.61s-15.5,30.45-29.95,33.61ZM89.61,1.11c-2.86-.73-6.27-1.11-10.16-1.11-11.13,0-19.04,2.33-23.51,6.89-3.33,3.43-3.53,6.92-3.53,7.77v55.96c0,.86.2,4.34,3.53,7.77,4.47,4.57,12.38,6.89,23.51,6.89,3.89,0,7.3-.37,10.16-1.1,17.46-3.85,36.28-20.81,36.28-41.54S107.07,4.96,89.61,1.11Z"/></svg>