<?xml version="1.0" encoding="UTF-8"?><svg id="Layer_1" xmlns="http://www.w3.org/2000/svg" viewBox="0 0 140.26 111.69"><defs><style>.cls-1{fill:#e52a2d;}</style></defs><path class="cls-1" d="M30.94,103.03c-.87-.66-21.31-16.5-21.31-47.18S30.07,9.32,30.94,8.66c2.12-1.6,2.55-4.61.96-6.73-1.59-2.13-4.61-2.56-6.74-.97C24.13,1.73,0,20.2,0,55.85s24.13,54.11,25.17,54.88c.86.64,1.87.96,2.87.96,1.46,0,2.9-.67,3.85-1.92,1.59-2.12,1.17-5.14-.95-6.74Z"/><path class="cls-1" d="M115.1.96c-2.12-1.59-5.13-1.15-6.72.96-1.59,2.12-1.17,5.14.95,6.74.86.66,21.31,16.5,21.31,47.18s-20.44,46.53-21.31,47.19c-2.12,1.59-2.55,4.61-.96,6.73.95,1.26,2.39,1.93,3.86,1.93,1,0,2.01-.31,2.88-.96,1.03-.77,25.16-19.24,25.16-54.89S116.13,1.73,115.1.96Z"/><path class="cls-1" d="M102.03,71.24c-1.77-.39-2.8-2.18-3.88-4.07-1.29-2.26-2.61-4.59-5.35-4.59h0c-2.74,0-4.06,2.34-5.34,4.6-1.21,2.13-2.36,4.16-4.59,4.16h0c-2.22,0-3.37-2.01-4.59-4.15-1.29-2.26-2.61-4.59-5.35-4.59-1.36,0-2.39.58-3.22,1.45-.84.88-1.49,2.02-2.13,3.15-1.22,2.14-2.35,4.16-4.59,4.16h0c-2.22,0-3.37-2.01-4.59-4.14-1.29-2.26-2.61-4.6-5.35-4.6h-.01c-2.74,0-4.06,2.34-5.34,4.61-1.22,2.14-2.36,4.16-4.59,4.16h0c-2.22,0-3.37-2.02-4.59-4.16-1.28-2.26-2.62-4.59-5.35-4.59h0c-2.74,0-4.06,2.33-5.35,4.59-.93,1.65-1.83,3.23-3.23,3.86-1.85-4.72-2.9-9.86-2.9-15.23,0-22.96,18.69-41.66,41.65-41.66s41.65,18.69,41.65,41.66c0,5.43-1.06,10.63-2.96,15.39ZM63.34,4.56c-28.28,0-51.28,23.01-51.28,51.28,0,2.33.17,4.61.47,6.86.04.3.07.59.12.88,3.75,24.61,25.05,43.54,50.69,43.54s46.86-18.86,50.67-43.4c.04-.3.08-.62.12-.92.31-2.27.49-4.6.49-6.96,0-28.27-23-51.28-51.27-51.28Z"/></svg>