<?xml version="1.0" encoding="UTF-8"?><svg id="Layer_1" xmlns="http://www.w3.org/2000/svg" viewBox="0 0 126.14 108.12"><defs><style>.cls-1{fill:#fab639;}</style></defs><path class="cls-1" d="M114.87,82.03c-2.11,1.3-3.58,3.1-4.69,4.51-1.77,2.24-2.38,2.8-3.64,2.8s-1.85-.57-3.64-2.8c-1.97-2.48-4.94-6.21-10.69-6.21s-8.71,3.74-10.69,6.21c-1.78,2.24-2.39,2.8-3.64,2.8s-1.83-.57-3.61-2.8c-1.97-2.47-4.94-6.21-10.69-6.21s-8.71,3.74-10.69,6.21c-1.78,2.24-2.39,2.8-3.61,2.8s-1.86-.57-3.64-2.8c-1.97-2.47-4.94-6.21-10.69-6.21s-8.71,3.74-10.69,6.21c-1.77,2.24-2.39,2.8-3.61,2.8s-1.86-.57-3.64-2.8c-1.3-1.64-3.09-3.83-5.8-5.11V30.59c0-.64.5-1.13,1.14-1.13h78.06V11.26c0-1.08,1.52-2.25,3.52-2.25h8c2,0,3.53,1.17,3.53,2.25v18.21h8.24c.3,0,.55.11.75.29.22.2.39.5.39.84v51.44ZM114.48,18.24v-6.98c0-6.22-5.61-11.26-12.52-11.26h-8c-6.88,0-12.52,5.04-12.52,11.26v6.94H12.38c-6.86,0-12.38,5.56-12.38,12.4v65.14c0,6.82,5.52,12.39,12.38,12.39h101.35c6.82,0,12.41-5.56,12.41-12.39V30.59c0-6.59-5.17-11.99-11.66-12.35Z"/></svg>