<?xml version="1.0" encoding="UTF-8"?><svg id="Layer_1" xmlns="http://www.w3.org/2000/svg" viewBox="0 0 105.37 150.68"><defs><style>.cls-1{fill:#fefefe;}</style></defs><path class="cls-1" d="M58.85,100.56v-35.08h4.52v-11.14c8.61-3.53,15.06-11.19,16.94-20.49-7.2,4.57-16.93,7.38-27.63,7.38s-20.44-2.81-27.64-7.38c1.88,9.31,8.35,16.97,16.94,20.49v11.14h4.52v35.08C20.33,102.64,0,117.82,0,136.23c0,7.98,23.59,14.45,52.69,14.45s52.68-6.47,52.68-14.45c0-18.42-20.32-33.59-46.51-35.67Z"/><path class="cls-1" d="M66.68,24.77c0,.97-.79,1.76-1.77,1.76s-1.76-.79-1.76-1.76v-6.69h-8.71v6.69c0,.97-.79,1.76-1.76,1.76s-1.76-.79-1.76-1.76v-6.69h-8.71v6.69c0,.97-.78,1.76-1.76,1.76s-1.76-.79-1.76-1.76V7.86c0-.97.78-1.76,1.76-1.76s1.76.79,1.76,1.76v6.69h8.71v-6.69c0-.97.79-1.76,1.76-1.76s1.76.79,1.76,1.76v6.69h8.71v-6.69c0-.97.79-1.76,1.76-1.76s1.77.79,1.77,1.76v16.91ZM52.69,0c-15.58,0-28.22,12.63-28.22,28.22,0,.36.03.71.04,1.06,6.72,5.14,16.86,8.43,28.18,8.43s21.46-3.29,28.17-8.43c.01-.35.04-.7.04-1.06,0-15.58-12.63-28.22-28.21-28.22Z"/></svg>