<?xml version="1.0" encoding="UTF-8"?><svg id="Layer_1" xmlns="http://www.w3.org/2000/svg" viewBox="0 0 140.27 111.69"><defs><style>.cls-1{fill:#fab639;}</style></defs><path class="cls-1" d="M47.59,52.85h-3.72v-10.77c.59-.17,1.8-.35,3.6-.35,3.85.04,6.48,1.66,6.48,5.51,0,3.37-2.46,5.61-6.35,5.61ZM52.27,54.42v-.09c2.97-1.05,5.32-3.64,5.32-7.53,0-2.28-.84-4.29-2.22-5.61-1.75-1.66-4.26-2.41-8.15-2.41-2.51,0-5.14.22-7.02.61v29.11h3.67v-12.78h3.43c3.3.13,4.8,1.71,5.64,5.73.8,3.68,1.42,6.22,1.88,7.05h3.76c-.59-1.14-1.25-3.93-2.17-8.09-.67-3.02-1.96-5.17-4.14-6Z"/><path class="cls-1" d="M69.42,65.8c-1.33,0-2.3-.04-3.05-.17v-11.25h3.01c3.97,0,7.32,1.67,7.32,5.73s-3.51,5.69-7.27,5.69ZM66.37,41.99c.58-.13,1.54-.26,3.22-.26,3.68,0,6.19,1.35,6.19,4.81,0,2.85-2.3,4.99-6.11,4.99h-3.3v-9.54ZM74.69,52.71v-.09c2.93-1.09,4.77-3.63,4.77-6.48,0-2.32-.88-4.07-2.38-5.21-1.72-1.49-4.06-2.14-7.69-2.14-2.51,0-5.06.26-6.69.61v29.02c1.25.18,3.14.35,5.68.35,4.61,0,7.78-.87,9.7-2.75,1.51-1.44,2.43-3.37,2.43-5.86,0-4.47-3.14-6.74-5.81-7.44Z"/><path class="cls-1" d="M93.83,51.79c-3.88-1.57-5.6-2.93-5.6-5.69,0-2.01,1.46-4.42,5.31-4.42,2.55,0,4.43.88,5.35,1.4l1-3.11c-1.25-.7-3.39-1.4-6.23-1.4-5.48,0-9.11,3.41-9.11,7.96,0,4.11,2.84,6.7,7.4,8.36,3.84,1.54,5.35,3.11,5.35,5.87,0,2.98-2.17,5.03-5.89,5.03-2.51,0-4.9-.88-6.52-1.93l-.97,3.19c1.51,1.05,4.48,1.93,7.24,1.93,6.64,0,9.87-3.98,9.87-8.53s-2.43-6.7-7.19-8.67Z"/><path class="cls-1" d="M70.13,97.5c-22.96,0-41.65-18.69-41.65-41.66S47.17,14.2,70.13,14.2s41.65,18.68,41.65,41.65-18.68,41.66-41.65,41.66ZM70.13,4.57c-28.27,0-51.27,23-51.27,51.28s23,51.28,51.27,51.28,51.28-23.01,51.28-51.28S98.41,4.57,70.13,4.57Z"/><path class="cls-1" d="M30.94,103.03c-.87-.67-21.31-16.5-21.31-47.18S30.07,9.33,30.94,8.66c2.12-1.59,2.55-4.61.96-6.73-1.59-2.13-4.61-2.56-6.74-.97C24.14,1.73,0,20.2,0,55.85s24.14,54.11,25.16,54.88c.87.64,1.88.96,2.88.96,1.46,0,2.9-.67,3.85-1.92,1.59-2.12,1.17-5.14-.95-6.74Z"/><path class="cls-1" d="M115.1.96c-2.12-1.59-5.13-1.16-6.72.96-1.59,2.12-1.17,5.14.94,6.74.88.66,21.31,16.5,21.31,47.18s-20.44,46.53-21.31,47.2c-2.12,1.59-2.55,4.6-.96,6.73.95,1.26,2.39,1.93,3.85,1.93,1.01,0,2.02-.31,2.88-.96,1.03-.78,25.17-19.24,25.17-54.9S116.13,1.73,115.1.96Z"/></svg>