<?xml version="1.0" encoding="UTF-8"?><svg id="Layer_1" xmlns="http://www.w3.org/2000/svg" viewBox="0 0 120.85 92.18"><defs><style>.cls-1{fill:#fefefe;}</style></defs><path class="cls-1" d="M76.7,28.38h-11.46L41.06,0H0v9.01h36.89l24.18,28.38h15.63c7.17,0,13,6.17,13,13.76v3.48c0,7.59-5.83,13.77-13,13.77h-7.14l-.87,3.39c-1.7,6.69-7.71,11.37-14.6,11.37s-12.9-4.67-14.6-11.37l-.87-3.39H0v9h31.89c3.7,8.85,12.39,14.77,22.2,14.77s18.5-5.93,22.2-14.77h.41c12.14,0,22.02-10.21,22.02-22.78v-3.48c0-12.56-9.88-22.78-22.02-22.78Z"/><path class="cls-1" d="M116.3,50.39c.21-8.26-3.64-15.92-11.21-21.56-1.92,1.32-3.85,2.63-5.77,3.95,6.49,4.83,9.8,11.41,9.6,18.5-1.51.18-3.03.36-4.56.55,2.67,2.59,4.67,5.89,5.55,9.82,4.3-3.36,8.08-7.35,10.94-11.81-1.52.19-3.04.36-4.55.54Z"/><path class="cls-1" d="M81.68,20.78c.64-1.41,1.25-2.79,1.88-4.19,6.32,1.78,11.3,6.31,14.15,13.03l5.53-4.22c-3.29-8.04-9.16-13.46-16.65-15.58.63-1.4,1.25-2.8,1.88-4.19-5.11,1.41-10.04,3.83-14.52,6.95,3.49,2,6.05,4.88,7.73,8.21Z"/></svg>