<?xml version="1.0" encoding="UTF-8"?><svg id="Layer_1" xmlns="http://www.w3.org/2000/svg" viewBox="0 0 131.16 109.26"><defs><style>.cls-1{fill:#fefefe;}</style></defs><path class="cls-1" d="M66.57,86.82l-18.94-18.18c-1.25-1.2-2.92-1.87-4.64-1.87H13.4v-24.29h29.59c1.72,0,3.4-.67,4.64-1.86l18.94-18.2v64.4ZM75.9.53c-2.46-1.04-5.32-.53-7.27,1.33l-28.34,27.22H6.7c-3.71,0-6.7,2.99-6.7,6.7v37.69c0,3.7,2.99,6.7,6.7,6.7h33.59l28.34,27.22c1.27,1.21,2.95,1.86,4.64,1.86.89,0,1.78-.18,2.62-.54,2.48-1.05,4.09-3.48,4.09-6.16V6.7c0-2.69-1.61-5.11-4.09-6.17Z"/><path class="cls-1" d="M124.46,47.93h-28.2c-3.7,0-6.7,2.99-6.7,6.7s3,6.7,6.7,6.7h28.2c3.71,0,6.7-3,6.7-6.7s-2.99-6.7-6.7-6.7Z"/><path class="cls-1" d="M124.46,20.98h-28.2c-3.7,0-6.7,3-6.7,6.71s3,6.7,6.7,6.7h28.2c3.71,0,6.7-3,6.7-6.7s-2.99-6.71-6.7-6.71Z"/><path class="cls-1" d="M124.46,74.86h-28.2c-3.7,0-6.7,3-6.7,6.71s3,6.7,6.7,6.7h28.2c3.71,0,6.7-3,6.7-6.7s-2.99-6.71-6.7-6.71Z"/></svg>