<?xml version="1.0" encoding="UTF-8"?><svg id="Layer_1" xmlns="http://www.w3.org/2000/svg" viewBox="0 0 177.4 114.07"><defs><style>.cls-1{fill:#fefefe;}</style></defs><path class="cls-1" d="M164.1,100.73c-.08.02-.18.05-.32.05H13.61c-.14,0-.25-.03-.32-.05v-51.19c.07-.03.18-.05.32-.05h150.17c.14,0,.24.02.32.05v51.19ZM163.78,36.19h-68.44v-15.29h31.66V0H50.39v20.9h31.66v15.29H13.61c-7.5,0-13.61,5.82-13.61,12.98v51.93c0,7.16,6.11,12.97,13.61,12.97h150.17c7.5,0,13.62-5.82,13.62-12.97v-51.93c0-7.16-6.11-12.98-13.62-12.98Z"/></svg>