<?xml version="1.0" encoding="UTF-8"?><svg id="Layer_1" xmlns="http://www.w3.org/2000/svg" viewBox="0 0 124.03 57.39"><defs><style>.cls-1{fill:#fab639;}</style></defs><path class="cls-1" d="M7.26,28.41c1.59.41,3.59.58,6.01.58,8.77,0,14.1-4.22,14.1-11.9s-5.25-10.9-13.26-10.9c-3.17,0-5.59.25-6.85.58v21.64ZM0,1.56C3.5.99,8.09.49,13.93.49c7.18,0,12.44,1.65,15.78,4.63,3.09,2.64,4.93,6.69,4.93,11.63s-1.5,9-4.34,11.9c-3.84,4.04-10.11,6.11-17.2,6.11-2.17,0-4.17-.08-5.84-.49v22.3H0V1.56Z"/><path class="cls-1" d="M83.71,54.75c-2.67,1.32-8.01,2.64-14.86,2.64-15.86,0-27.8-9.91-27.8-28.16S53,0,70.44,0c7.01,0,11.43,1.49,13.36,2.48l-1.76,5.86c-2.75-1.32-6.68-2.31-11.34-2.31-13.19,0-21.96,8.34-21.96,22.96,0,13.62,7.93,22.38,21.62,22.38,4.43,0,8.93-.91,11.85-2.32l1.51,5.7Z"/><path class="cls-1" d="M91.81,47.81c3.25,1.98,8.01,3.64,13.02,3.64,7.43,0,11.76-3.88,11.76-9.5,0-5.2-3-8.17-10.59-11.06-9.19-3.22-14.87-7.93-14.87-15.78,0-8.66,7.27-15.1,18.2-15.1,5.76,0,9.93,1.32,12.44,2.72l-2.01,5.86c-1.83-.99-5.59-2.64-10.68-2.64-7.68,0-10.61,4.54-10.61,8.35,0,5.2,3.43,7.76,11.18,10.73,9.51,3.64,14.36,8.18,14.36,16.35,0,8.59-6.43,16.02-19.7,16.02-5.43,0-11.35-1.57-14.36-3.55l1.84-6.03Z"/></svg>