<?xml version="1.0" encoding="UTF-8"?><svg id="Layer_1" xmlns="http://www.w3.org/2000/svg" viewBox="0 0 138.11 83.93"><defs><style>.cls-1{fill:#fab639;}</style></defs><path class="cls-1" d="M138.11,16.63v-8.61h-23.18V0h-53.41c-4.91,0-8.91,3.98-8.91,8.9v13.68c-.22,0-.47-.02-.78-.02-1.06-.02-2.59-.02-4.5.14-1.95.18-4.33.48-7.06,1.35-2.64.89-5.94,2.35-8.43,5.67-1.22,1.68-2.03,3.62-2.36,5.88-.28,1.85-.22,4.26.41,6.39.62,2.18,1.77,4.19,3.14,5.87,1.36,1.7,2.89,3.15,4.47,4.48,3.17,2.64,6.56,4.85,9.5,7.26,1.47,1.2,2.8,2.45,3.85,3.75,1,1.3,1.72,2.69,1.95,3.94,0,.13.03.25.08.38.03.13.03.47.03.7l.03.39v.03s0,.01,0,0v.12l-.06.64c0,.87-.17,1.67-.33,2.42-.33,1.51-1,2.63-1.8,3.33-.41.35-.89.6-1.41.78-.25.09-.53.15-.75.17-.05,0-.11.01-.08,0,0,0,.03,0-.06,0,.09,0-.08,0-.11,0h-.75c-1.97-.03-3.94-.04-5.88-.06-7.71-.05-14.94-.09-21.1-.12-12.35-.07-20.59-.12-20.59-.12v7.95s8.24-.05,20.59-.12c6.16-.03,13.39-.07,21.1-.12,1.94-.01,3.91-.04,5.88-.05h.75s.25-.01.25-.01h.33c.28-.03.44-.06.64-.09.78-.11,1.47-.28,2.17-.53,1.39-.49,2.69-1.24,3.8-2.24,2.25-2,3.47-4.72,4-7.2.25-1.25.44-2.5.44-3.69l.03-.91v-.62l-.03-.38c-.02-.28-.02-.45-.08-.83l-.17-1.14c-.56-2.82-1.97-5.11-3.5-7.01-1.56-1.87-3.27-3.36-4.97-4.7-3.38-2.66-6.74-4.77-9.55-7.04-2.8-2.24-4.97-4.64-5.69-7.08-.36-1.27-.47-2.38-.28-3.81.14-1.04.53-2.17,1.14-3.01,1.2-1.72,3.3-2.87,5.33-3.57,2.05-.71,4.05-1.01,5.69-1.2,2.36-.24,4-.22,4.72-.19v13.76c0,4.92,4,8.9,8.91,8.9h53.41v-8.01h23.18v-8.61h-23.18v-17.81h23.18Z"/></svg>