<?xml version="1.0" encoding="UTF-8"?><svg id="Layer_1" xmlns="http://www.w3.org/2000/svg" viewBox="0 0 125.86 125.86"><defs><style>.cls-1{fill:#e52a2d;}</style></defs><path class="cls-1" d="M59.81,98.12c5.85,0,10.61-4.76,10.61-10.61,0-4.58-2.92-8.48-6.99-9.96v-4.6h9.75c1.92,0,3.48-1.56,3.48-3.48s-1.56-3.48-3.48-3.48h-9.75v-5.79h9.75c1.92,0,3.48-1.56,3.48-3.48s-1.56-3.48-3.48-3.48h-9.75v-5.79h9.75c1.92,0,3.48-1.56,3.48-3.48s-1.56-3.48-3.48-3.48h-9.75v-9.11c0-2-1.63-3.61-3.62-3.61s-3.61,1.62-3.61,3.61v46.18c-4.08,1.48-7,5.38-7,9.96,0,5.85,4.76,10.61,10.61,10.61Z"/><path class="cls-1" d="M62.93,114.58c-28.52,0-51.64-23.12-51.64-51.65S34.41,11.28,62.93,11.28s51.64,23.12,51.64,51.65-23.12,51.65-51.64,51.65ZM118.68,62.92c11.03-9.21,9.16-18-4.38-21.7,6.78-12.29,1.89-19.48-11.95-17.73,1.76-13.84-5.44-18.73-17.72-11.95-3.69-13.54-12.48-15.41-21.7-4.38-9.22-11.03-18.01-9.16-21.7,4.38-12.29-6.79-19.48-1.9-17.73,11.95-13.84-1.75-18.73,5.44-11.95,17.73-13.55,3.69-15.41,12.48-4.38,21.7-11.03,9.23-9.16,18.01,4.38,21.71-6.79,12.28-1.9,19.48,11.95,17.72-1.75,13.84,5.44,18.73,17.73,11.95,3.69,13.54,12.48,15.41,21.7,4.38,9.22,11.03,18.01,9.16,21.7-4.38,12.28,6.78,19.48,1.89,17.72-11.95,13.84,1.76,18.73-5.44,11.95-17.72,13.54-3.7,15.41-12.48,4.38-21.71Z"/></svg>