<?xml version="1.0" encoding="UTF-8"?><svg id="Layer_1" xmlns="http://www.w3.org/2000/svg" viewBox="0 0 110.13 132.41"><defs><style>.cls-1{fill:#fefefe;}</style></defs><path class="cls-1" d="M90.5,48.96c0,.46-.36.82-.81.82h-57.62l26.19-26.18h31.43c.45,0,.81.36.81.82v24.54ZM85.12,108.34c1.27,1.3,1.27,3.36,0,4.63-.64.64-1.5.97-2.33.97s-1.67-.33-2.31-.97l-9.88-9.88h-25.92l-9.87,9.88c-.64.64-1.5.97-2.33.97s-1.67-.33-2.31-.97c-1.27-1.27-1.27-3.33,0-4.63l9.88-9.87v-25.93l-9.88-9.89c-1.27-1.28-1.27-3.33,0-4.63,1.27-1.27,3.35-1.27,4.64,0l9.87,9.88h25.92l9.88-9.88c1.28-1.27,3.35-1.27,4.64,0,1.27,1.3,1.27,3.35,0,4.63l-9.89,9.89v25.93l9.89,9.87ZM101.13,2.06h-49.36c-.21,0-.41.1-.57.25l-1.77,1.76-.05-.05L17.11,36.28l.06.05-13.69,13.7c-.15.15-.23.35-.23.57v72.81c0,4.96,4.02,9,9,9h88.89c4.96,0,9-4.05,9-9V11.05c0-4.96-4.05-9-9-9Z"/><rect class="cls-1" x="46.6" y="74.46" width="22.09" height="22.09"/><path class="cls-1" d="M12.55,30.97L30.96,12.55c.57-.57.57-1.48,0-2.05L22.02,1.54c-.57-.56-1.49-.56-2.06,0l-4.13,4.14c-.04-.1-.11-.19-.19-.28L10.51.27c-.33-.33-.83-.35-1.11-.07L.2,9.4c-.29.28-.25.78.07,1.1l5.14,5.14c.07.08.17.15.26.2l-4.12,4.13c-.57.56-.57,1.49,0,2.05l8.95,8.95c.57.57,1.48.57,2.05,0Z"/></svg>