<?xml version="1.0" encoding="UTF-8"?><svg id="Layer_1" xmlns="http://www.w3.org/2000/svg" viewBox="0 0 106.7 125.77"><defs><style>.cls-1{fill:#fefefe;}</style></defs><path class="cls-1" d="M69.91,6.9c-.83,5.05-8.04,9.16-16.57,9.16s-15.72-4.11-16.55-9.16h33.12ZM53.34,22.96c12.81,0,22.93-6.98,23.59-16.07h24.52V0H5.24v6.9h24.53c.66,9.09,10.74,16.07,23.57,16.07Z"/><rect class="cls-1" x="49.89" y="28.99" width="6.9" height="20.55"/><polygon class="cls-1" points="66.26 28.27 80.96 42.8 85.82 37.9 71.12 23.36 66.26 28.27"/><polygon class="cls-1" points="100.58 24.15 82.93 13.27 79.31 19.15 96.95 30.03 100.58 24.15"/><rect class="cls-1" x="20.31" y="29.29" width="20.67" height="6.91" transform="translate(-14.17 30.99) rotate(-44.66)"/><rect class="cls-1" x="6.38" y="17.86" width="20.73" height="6.91" transform="translate(-8.7 11.97) rotate(-31.68)"/><path class="cls-1" d="M100.94,117.45c-6.8-3.99-14.42-6.07-22.32-6.07s-15.56,2.1-22.39,6.11v-53.84c14.63-3.79,30.1-3.8,44.71-.02v53.83ZM5.77,117.48v-53.84c14.63-3.79,30.09-3.8,44.7-.02v53.82c-6.8-3.98-14.42-6.06-22.32-6.06s-15.57,2.1-22.38,6.11ZM104.61,58.65c-16.68-4.74-34.48-4.79-51.21-.19-16.75-4.61-34.6-4.55-51.3.21-1.23.35-2.09,1.49-2.09,2.77v61.45c0,1.1.62,2.09,1.6,2.59.41.2.85.3,1.28.3.62,0,1.24-.2,1.75-.59,6.88-5.26,15.02-8.03,23.51-8.03s16.38,2.69,23.19,7.8c.22.2.46.38.73.53.41.2.84.3,1.27.3.62,0,1.24-.2,1.75-.59,6.89-5.26,15.02-8.03,23.52-8.03s16.58,2.75,23.45,7.98c.88.66,2.05.78,3.03.28.99-.49,1.6-1.48,1.6-2.58v-61.42c0-1.28-.85-2.42-2.09-2.76Z"/></svg>