<?xml version="1.0" encoding="UTF-8"?><svg id="Layer_1" xmlns="http://www.w3.org/2000/svg" viewBox="0 0 134.59 134.63"><defs><style>.cls-1{fill:#fefefe;}</style></defs><path class="cls-1" d="M19.91,81.27c-.07-.27-.11-.52-.16-.77,0-.03,0-.07-.01-.08-.09-.47-.15-.93-.21-1.4.06.46.14.94.22,1.41.05.28.09.56.16.83Z"/><path class="cls-1" d="M26.03,96.36c-.22-.32-.43-.67-.65-1.01.02.04.04.05.07.07.17.32.38.62.59.94Z"/><path class="cls-1" d="M42.52,111.04c-.25-.12-.48-.22-.7-.36.12.05.22.12.36.17.12.07.22.12.34.2Z"/><path class="cls-1" d="M44.62,112.02c-.56-.23-1.09-.48-1.63-.75.46.23.93.44,1.4.64.08.04.14.08.23.12Z"/><path class="cls-1" d="M47.08,112.99c-.26-.08-.54-.19-.8-.29.12.05.25.1.39.13.13.07.27.12.41.16Z"/><path class="cls-1" d="M49.01,113.63c-.38-.09-.76-.23-1.14-.35.08.01.17.04.25.07.17.06.37.13.55.17.11.05.22.08.34.12Z"/><path class="cls-1" d="M78.32,112c-.44.2-.9.38-1.33.55.03,0,.08-.03.11-.06.2-.09.41-.17.61-.25.21-.08.42-.16.62-.25Z"/><path class="cls-1" d="M81.28,110.55c-.22.12-.41.23-.62.33.12-.04.23-.11.35-.2.09-.03.17-.08.28-.13Z"/><path class="cls-1" d="M82.87,109.64c-.22.16-.47.29-.7.42.04-.01.07-.04.09-.07.11-.07.21-.13.33-.2.1-.05.19-.11.29-.16Z"/><path class="cls-1" d="M84.96,108.34c-.14.11-.3.21-.46.29.07-.04.13-.08.18-.12.1-.06.17-.1.28-.17Z"/><path class="cls-1" d="M93.02,101.31c-.06.07-.1.12-.17.17.05-.07.1-.12.15-.17h.02Z"/><path class="cls-1" d="M93.03,101.29s0,.01,0,.01h0s0-.01,0-.01Z"/><path class="cls-1" d="M94.5,99.55c-.2.25-.39.49-.61.73.07-.07.12-.14.17-.22.14-.17.3-.35.44-.51Z"/><path class="cls-1" d="M97.44,95.34c-.08.18-.2.34-.3.51.07-.09.11-.19.16-.27s.1-.15.15-.24Z"/><path class="cls-1" d="M100.49,89.42c-.09.26-.2.51-.33.77,0-.04.01-.07.03-.09.04-.09.07-.16.09-.22.09-.15.15-.3.2-.45Z"/><path class="cls-1" d="M101.5,86.74c-.04.09-.07.18-.08.28-.03.04-.05.1-.07.14.04-.14.09-.28.15-.42Z"/><path class="cls-1" d="M79.06,90.81c-.89.88-2.06,1.37-3.31,1.37s-2.43-.49-3.32-1.37c-.88-.88-1.37-2.07-1.37-3.31s.49-2.42,1.37-3.32c1.77-1.76,4.85-1.76,6.63,0,1.82,1.84,1.82,4.8,0,6.63ZM71.06,58.87c0-1.25.49-2.43,1.37-3.31,1.77-1.77,4.86-1.77,6.63,0,.87.88,1.36,2.06,1.36,3.31s-.49,2.43-1.36,3.3c-.89.88-2.06,1.38-3.31,1.38s-2.43-.49-3.32-1.38c-.88-.87-1.37-2.04-1.37-3.3ZM50.02,73.18c0-3.04,1.19-5.9,3.35-8.06s5.01-3.34,8.06-3.34,5.9,1.19,8.06,3.34c2.14,2.15,3.33,5.01,3.33,8.06s-1.19,5.91-3.33,8.06c-2.15,2.15-5.02,3.34-8.06,3.34s-5.9-1.19-8.06-3.34c-2.16-2.14-3.35-5.01-3.35-8.06ZM43.81,84.18c1.75-1.76,4.85-1.76,6.61,0,1.83,1.84,1.83,4.8,0,6.63-.87.88-2.04,1.37-3.3,1.37s-2.43-.49-3.31-1.37c-.89-.88-1.38-2.07-1.38-3.31s.49-2.42,1.38-3.32ZM50.41,62.16c-.87.88-2.04,1.38-3.3,1.38s-2.43-.49-3.31-1.38c-.89-.87-1.38-2.06-1.38-3.3s.49-2.43,1.38-3.31c1.75-1.77,4.85-1.77,6.61,0,1.83,1.83,1.83,4.79,0,6.61ZM84.01,50.59c-6.03-6.03-14.05-9.36-22.59-9.36s-16.56,3.33-22.59,9.36c-12.47,12.45-12.47,32.72,0,45.18,6.03,6.04,14.05,9.36,22.59,9.36s16.55-3.32,22.59-9.36c12.46-12.45,12.46-32.72,0-45.18Z"/><path class="cls-1" d="M92.01,102.4c-.05.04-.08.09-.14.14v-.04c.06-.04.09-.08.12-.11h.01Z"/><path class="cls-1" d="M93.02,101.31c-.06.07-.1.12-.17.17.05-.07.1-.12.15-.17h.02Z"/><path class="cls-1" d="M93.03,101.29s0,.01,0,.01h0s0-.01,0-.01Z"/><path class="cls-1" d="M96.06,97.43c-.12.21-.28.43-.43.64-.34.5-.72.99-1.12,1.48-.2.25-.39.49-.61.73-.21.28-.46.55-.7.82.28-.35.57-.69.86-1.04.7-.85,1.37-1.71,2-2.62Z"/><path class="cls-1" d="M100.06,90.38c-.12.31-.25.62-.41.93-.17.38-.35.75-.55,1.11-.18.35-.38.73-.57,1.09-.35.62-.7,1.23-1.09,1.83-.08.18-.2.34-.3.51-.07.1-.14.19-.18.28-.12.2-.23.38-.36.56-.18.25-.35.51-.54.75.3-.42.59-.86.88-1.32.03-.05.05-.07.08-.13,0,0,0-.01.01-.01.03-.07.09-.13.14-.2.03-.05.07-.11.12-.19l.1-.2c.13-.18.24-.37.35-.59.03-.03.05-.08.07-.11.03-.02.05-.04.03-.05.28-.46.56-.93.8-1.4.29-.52.57-1.06.83-1.59.15-.32.29-.64.43-.95.05-.09.09-.21.15-.31Z"/><path class="cls-1" d="M100.7,88.93c-.06.13-.1.28-.16.41,0,.04-.02.04-.05.07-.09.26-.2.51-.33.77,0-.04.01-.07.03-.09.04-.09.07-.16.09-.22.05-.13.1-.27.15-.39.08-.13.13-.28.2-.43,0-.04.03-.07.07-.12Z"/><path class="cls-1" d="M101.5,86.74c-.04.09-.07.18-.08.28-.03.04-.05.1-.07.14.04-.14.09-.28.15-.42Z"/><path class="cls-1" d="M102.18,84.47c-.04.26-.11.51-.2.77-.01.07-.03.12-.06.2.07-.31.17-.64.25-.96Z"/><path class="cls-1" d="M74.38,113.47c-.17.07-.33.11-.49.16-.3.1-.6.18-.9.26.47-.13.93-.28,1.38-.42Z"/><path class="cls-1" d="M75.37,113.12c-.11.05-.23.09-.34.14-.21.06-.43.14-.65.21.33-.12.67-.23.99-.35Z"/><path class="cls-1" d="M78.36,111.97s-.03.03-.04.03c-.44.2-.9.38-1.33.55-.28.12-.56.22-.85.32-.13.04-.27.09-.39.12.46-.16.91-.33,1.35-.5.2-.09.41-.17.61-.25.22-.1.43-.2.66-.28Z"/><path class="cls-1" d="M78.64,111.84s-.08.05-.12.06c-.03.01-.06.03-.09.03.08-.03.14-.06.21-.09Z"/><path class="cls-1" d="M82.87,109.64c-.22.16-.47.29-.7.42-.29.18-.59.34-.89.49-.22.12-.41.23-.62.33-.11.07-.24.13-.36.18-.2.09-.39.2-.59.27.44-.2.86-.41,1.29-.64.42-.22.83-.46,1.25-.68.11-.07.21-.13.33-.2.1-.05.19-.11.29-.16Z"/><path class="cls-1" d="M85.85,107.7c-.14.13-.3.25-.46.34-.14.12-.28.21-.43.3-.14.11-.3.21-.46.29-.04.05-.12.08-.16.12-.49.33-.98.63-1.47.9.62-.38,1.21-.75,1.81-1.14.39-.27.78-.53,1.17-.8Z"/><path class="cls-1" d="M87,106.86v.04c-.22.16-.43.33-.66.47-.16.13-.32.25-.49.34.38-.28.77-.55,1.14-.85Z"/><path class="cls-1" d="M19.91,81.27c-.07-.27-.11-.52-.16-.77,0-.03,0-.07-.01-.08-.09-.47-.15-.93-.21-1.4.06.46.14.94.22,1.41.05.28.09.56.16.83Z"/><path class="cls-1" d="M27.9,98.96h-.02c-.33-.42-.64-.84-.95-1.28s-.62-.88-.9-1.32c-.22-.32-.43-.67-.65-1.01-.41-.66-.8-1.33-1.15-2-.2-.34-.38-.7-.54-1.04.1.2.22.41.33.61.44.85.93,1.7,1.43,2.51.41.64.85,1.3,1.29,1.93.38.56.77,1.09,1.17,1.61Z"/><path class="cls-1" d="M33.71,105.13c-.07-.05-.12-.1-.17-.14-.43-.38-.85-.75-1.26-1.14h.03c.46.43.93.84,1.41,1.28Z"/><path class="cls-1" d="M36.01,106.99c-.18-.13-.36-.26-.54-.39-.45-.35-.88-.7-1.3-1.06,0-.01-.02-.01-.04-.03,0-.01,0-.01,0-.04.09.09.19.17.29.23.4.35.83.68,1.25,1.01.12.1.23.18.35.28Z"/><path class="cls-1" d="M45.41,112.35c-.25-.1-.54-.21-.79-.33-.56-.23-1.09-.48-1.63-.75-.16-.07-.31-.14-.47-.22-.25-.12-.48-.22-.7-.36-.11-.07-.24-.13-.38-.21-.04-.01-.07-.04-.09-.07-.03-.01-.05-.01-.09-.03,0-.02,0-.02,0-.02-.05-.04-.1-.04-.15-.08-.16-.07-.3-.14-.46-.25-.28-.13-.55-.29-.81-.46-.39-.22-.78-.47-1.16-.7-.22-.17-.47-.33-.7-.49-.14-.09-.27-.18-.42-.26-.47-.33-.93-.67-1.41-1.03-.06-.03-.09-.07-.13-.12.5.38,1.02.73,1.54,1.11.2.13.38.25.57.38.2.12.38.24.57.35.07.07.16.12.24.16.41.27.81.52,1.24.75.47.28.96.54,1.43.8.5.26.99.51,1.48.75.07.04.14.09.2.1.43.2.87.41,1.32.6.28.12.54.25.81.36Z"/><path class="cls-1" d="M49.01,113.63c-.38-.09-.76-.23-1.14-.35-.26-.08-.54-.18-.8-.28-.26-.08-.54-.19-.8-.29-.3-.12-.57-.23-.87-.35.26.11.54.2.82.3.44.18.9.34,1.35.49.17.07.35.13.54.2.17.06.37.13.55.17.11.05.22.08.34.12Z"/><path class="cls-1" d="M92.18,44.15c-.57-.6-1.16-1.18-1.76-1.75.3.29.64.57.92.86.25.24.48.47.69.72.07.05.12.09.13.14.03.01.05.01.02.03Z"/><path class="cls-1" d="M94.03,46.23c-.31-.35-.61-.7-.91-1.06.08.08.15.15.21.23.25.28.49.54.7.83Z"/><path class="cls-1" d="M95.73,48.44c-.28-.37-.55-.75-.84-1.12.24.26.43.54.62.82.09.09.17.2.22.3Z"/><path class="cls-1" d="M98.03,51.98c-.71-1.22-1.48-2.39-2.3-3.54.25.3.44.59.64.9.04.02.05.02.04.03.11.14.2.27.28.41.04.05.08.09.1.16.22.35.45.67.66,1.03t.02.03c.13.22.26.41.38.62.06.12.12.23.18.35Z"/><path class="cls-1" d="M98.72,53.21c-.23-.4-.46-.83-.69-1.23.07.08.12.18.16.27.05.06.09.12.12.19.07.13.15.26.21.39.09.13.15.26.2.38Z"/><path class="cls-1" d="M99.84,55.46c-.18-.39-.35-.76-.56-1.14-.17-.38-.37-.75-.57-1.12.14.23.28.48.39.72.28.5.52,1.01.73,1.53Z"/><path class="cls-1" d="M19.75,80.43h-.01c-.09-.49-.15-.95-.21-1.41.06.46.14.94.22,1.41Z"/><path class="cls-1" d="M19.91,81.27c-.07-.27-.11-.52-.16-.77v-.07c.05.28.09.56.16.83Z"/><path class="cls-1" d="M75.37,113.12c-.11.05-.23.09-.34.14-.21.06-.43.14-.65.21.33-.12.67-.23.99-.35Z"/><path class="cls-1" d="M38.13,108.47c-.05-.02-.1-.04-.15-.08-.13-.1-.28-.2-.42-.3.2.13.38.25.57.38Z"/><path class="cls-1" d="M41.6,110.54c-.07-.05-.17-.1-.25-.13-.03-.01-.05-.01-.09-.03,0-.02,0-.02,0-.02-.05-.04-.1-.04-.15-.08-.3-.17-.62-.34-.93-.54.47.28.96.54,1.43.8Z"/><path class="cls-1" d="M43.09,111.28c-.31-.13-.59-.28-.91-.43-.19-.09-.38-.2-.58-.31.5.26.99.51,1.49.75Z"/><path class="cls-1" d="M44.6,111.98c-.07-.01-.13-.05-.21-.08-.38-.17-.75-.34-1.11-.52.43.2.87.41,1.32.6Z"/><path class="cls-1" d="M47.59,113.14c-.31-.1-.61-.2-.91-.31-.15-.05-.3-.11-.44-.18.44.18.9.34,1.35.49Z"/><path class="cls-1" d="M96.94,96.11c-.12.2-.23.38-.34.57-.18.25-.35.51-.54.75.3-.42.59-.86.88-1.32Z"/><path class="cls-1" d="M97.75,94.79c-.1.2-.2.38-.31.55-.04.09-.09.16-.15.24s-.09.14-.12.19c.06-.13.15-.27.22-.39.13-.18.24-.37.35-.59Z"/><path class="cls-1" d="M101.5,86.74c-.04.09-.07.18-.08.28-.03.04-.05.1-.07.14.04-.14.09-.28.15-.42Z"/><path class="cls-1" d="M32.31,103.85h-.03c-.26-.27-.52-.49-.78-.75-1.3-1.3-2.51-2.7-3.62-4.14h.02c1.35,1.75,2.82,3.37,4.41,4.89Z"/><path class="cls-1" d="M60.61,30.88c.27,0,.55-.01.81-.01.28,0,.55.01.81.01h-1.62Z"/><path class="cls-1" d="M99.84,55.46c-.18-.39-.35-.76-.56-1.14-.04-.13-.12-.26-.17-.39.28.5.52,1.01.73,1.53Z"/><path class="cls-1" d="M117.71,83.58h-15.28c-.01.08-.04.17-.06.26-.03.1-.06.18-.08.28-.02.07-.04.14-.06.21-.01.05-.01.09-.05.14-.04.26-.11.51-.2.77-.01.07-.03.12-.06.2-.02.01-.02.01-.02.04-.01.03-.01.07-.04.09-.12.39-.24.78-.37,1.17-.04.09-.07.18-.08.28-.03.04-.05.1-.06.14h0c-.1.27-.18.52-.28.77-.1.31-.22.59-.34.9-.02,0-.02.04-.02.06v.02s-.01.01-.01.03c-.06.13-.1.28-.16.41,0,.04-.02.04-.05.07-.09.26-.2.51-.33.77-.04.07-.05.14-.1.2-.12.31-.25.62-.41.93-.17.38-.36.75-.55,1.11-.18.35-.38.73-.57,1.09-.35.62-.7,1.23-1.09,1.83-.08.18-.2.34-.3.51-.07.1-.14.19-.18.28-.12.2-.23.38-.36.56-.18.25-.35.51-.54.75-.12.21-.28.43-.43.64-.34.5-.72.99-1.12,1.48-.2.25-.39.49-.61.73-.21.28-.46.55-.7.82-.05.04-.1.09-.13.14,0,.01-.01.01-.04.04h0s0,.03,0,.03c-.06.07-.1.12-.17.17-.07.07-.12.14-.2.2-.03.07-.09.14-.17.2-.14.12-.25.26-.37.39-.03.03-.06.06-.08.09,0,0-.03.01-.03.04-.05.04-.08.09-.14.14v15.4h-4.88v-11.06c-.22.16-.43.33-.66.47-.16.13-.32.25-.49.34-.14.13-.3.25-.46.34-.14.12-.28.21-.43.3-.15.11-.3.21-.46.29-.04.05-.12.08-.16.12-.49.33-.98.63-1.47.9-.22.16-.47.29-.7.42-.29.18-.59.34-.89.49-.22.12-.41.23-.62.33-.11.07-.24.13-.36.18-.2.09-.39.2-.59.27-.28.14-.55.27-.84.41-.07.04-.15.07-.23.1-.04.03-.08.05-.12.07-.03.01-.07.03-.09.03-.02,0-.04,0-.05.01-.02,0-.02.02-.02.02,0,.01-.03.03-.04.03-.44.2-.9.38-1.33.55-.28.12-.56.22-.85.32-.13.04-.27.09-.39.12-.08.04-.18.07-.25.1-.04.01-.09.03-.12.03-.11.05-.23.09-.34.14-.21.06-.43.14-.65.21-.17.07-.33.11-.49.16-.3.1-.6.18-.9.26-.93.25-1.87.49-2.83.7-.12.01-.24.04-.35.07-.04.01-.08.01-.13.03-.31.07-.64.13-.96.18h-.04c-.08.01-.17.04-.26.04-.05.01-.12.01-.19.04-.19.04-.38.07-.59.1-.12.01-.25.03-.35.04-.49.07-1,.14-1.49.17h-.04c-.62.07-1.24.12-1.87.16-.08,0-.18.01-.28.01-.36.01-.74.01-1.09.02l-11.19,11.19-3.46-3.46,8.08-8.08c-1.11-.14-2.21-.33-3.3-.55-.57-.13-1.14-.27-1.71-.41-.64-.14-1.27-.33-1.91-.54-.38-.09-.76-.23-1.14-.35-.26-.08-.54-.18-.8-.28-.26-.08-.54-.19-.8-.29-.3-.12-.57-.23-.87-.35-.25-.1-.54-.21-.79-.33-.56-.23-1.09-.48-1.63-.75-.16-.07-.31-.14-.47-.22-.25-.12-.48-.22-.7-.36-.11-.07-.24-.13-.38-.21-.04-.01-.07-.04-.09-.07-.03-.01-.05-.01-.09-.03,0-.02,0-.02,0-.02-.05-.04-.1-.04-.15-.08-.16-.07-.3-.14-.46-.25-.28-.13-.55-.29-.81-.46-.39-.22-.78-.47-1.16-.7-.37-.25-.75-.49-1.12-.75-.47-.33-.93-.67-1.41-1.03-.23-.17-.44-.33-.67-.51-.45-.35-.88-.7-1.3-1.06,0-.01-.02-.01-.04-.03-.08-.07-.16-.13-.24-.22-.05-.04-.09-.06-.12-.1-.01-.01-.05-.05-.07-.05-.07-.05-.12-.1-.17-.14-.43-.38-.85-.75-1.26-1.14h-15.82v-4.89h11.42c-.33-.42-.66-.85-.95-1.28-.31-.44-.62-.88-.9-1.32-.22-.32-.43-.67-.65-1.01-.41-.66-.8-1.33-1.15-2-.2-.34-.38-.7-.54-1.04-.11-.22-.22-.46-.34-.68-.43-.86-.83-1.74-1.17-2.64-.36-.91-.7-1.83-.99-2.75-.02-.05-.04-.08-.05-.13-.1-.3-.18-.59-.26-.88-.08-.31-.18-.61-.26-.91-.08-.31-.16-.6-.24-.91-.12-.48-.23-.96-.33-1.45-.03-.09-.04-.21-.07-.34-.03-.12-.04-.23-.07-.34-.07-.27-.11-.52-.16-.77,0-.03,0-.07-.01-.08-.09-.47-.15-.93-.21-1.4-.07-.51-.14-.99-.18-1.5,0,0,0-.01-.01-.03-.06-.62-.1-1.24-.13-1.86-.02-.09-.02-.2-.04-.29,0-.31,0-.64,0-.95l-11.34-11.33,3.46-3.45,8.19,8.19c.15-1.12.35-2.23.57-3.35,1.62-7.72,5.35-14.84,10.94-20.63v-15.42h4.88v11.05c4.77-3.61,10.2-6.15,16-7.48V12.48c-12.77,1.99-24.56,7.94-33.87,17.25-23.96,23.96-23.96,62.95,0,86.92,11.61,11.61,27.04,17.99,43.45,17.99s31.85-6.38,43.46-17.99c9.33-9.33,15-20.96,17.07-33.06h-4.24Z"/><path class="cls-1" d="M75.09,22.15c-2.98,0-5.4-2.42-5.4-5.39s2.42-5.4,5.4-5.4,5.39,2.41,5.39,5.4-2.41,5.39-5.39,5.39ZM118.69,54.68c2.98,0,5.39,2.41,5.39,5.38s-2.41,5.4-5.39,5.4-5.4-2.41-5.4-5.4,2.42-5.38,5.4-5.38ZM134.59,73.47c.07-18.84-7.06-37.7-21.4-52.04C99.54,7.78,81.49.2,62.23,0v30.88c.46.01.89.01,1.35.03.09.02.17.02.28.04.63.04,1.25.07,1.89.13h.01c1.07.12,2.13.28,3.18.47.2.03.4.07.59.09.91.19,1.82.4,2.72.64.34.09.68.18,1.01.28.78.22,1.55.47,2.31.75.45.16.88.32,1.33.49.67.26,1.31.54,1.97.83.5.25,1.01.47,1.51.73.32.16.65.34.97.51.77.41,1.53.85,2.28,1.3.25.17.5.33.76.51.77.49,1.54,1,2.26,1.56.28.21.57.44.85.65.66.54,1.31,1.07,1.96,1.63.3.29.63.57.94.86.3.29.64.57.92.86.25.24.48.47.69.72.07.05.12.09.13.14.03.01.05.01.02.03.32.33.63.69.94,1.03.08.08.15.15.21.23.25.28.49.54.7.83.33.35.62.72.86,1.09.24.26.43.54.62.82.09.09.17.2.22.3.25.3.44.59.64.9.04.02.05.02.04.03.11.14.2.27.28.41.04.05.08.09.1.16.22.35.45.67.66,1.03t.02.03c.13.22.26.41.38.62.12.21.23.41.34.62.05.06.09.12.12.19.07.13.15.26.21.39.09.13.15.26.2.38.14.23.28.48.39.72.28.5.52,1.01.73,1.53h.01c.03.07.07.12.07.17.03.02.05.08.05.11.08.18.16.34.22.52.07.12.12.23.15.34.09.17.15.35.21.51.04.05.05.09.07.15.02.08.06.17.09.25.2.48.38.97.56,1.46.17.46.32.91.46,1.37.16.46.29.93.41,1.41.22.67.38,1.34.53,2.05.16.7.31,1.4.42,2.09.12.59.2,1.17.28,1.77.09.83.18,1.68.25,2.54.05.72.08,1.47.1,2.2.01.26.03.52.03.78,0,.09-.01.19-.01.29h30.86Z"/></svg>