<?xml version="1.0" encoding="UTF-8"?><svg id="Layer_1" xmlns="http://www.w3.org/2000/svg" viewBox="0 0 144.83 64.64"><defs><style>.cls-1{fill:#e52a2d;}</style></defs><rect class="cls-1" x="99.25" y="23.8" width="7.06" height="13.54"/><path class="cls-1" d="M111.13,43.79h-16.7v-8.35h-51l-5.23-3.76,7.6-5.96h5.61l1.6,3.84h8l1.4-3.84h6.64l3.88,3.84h5.93l3.23-3.84h12.33v-8.36h16.7v26.43ZM131.22,22.06h-10.53L101.9,0h-41.8l-22.36,22.06H13.6c-7.51,0-13.6,6.36-13.6,14.21v2.7c0,7.85,6.09,14.2,13.6,14.2h5.1c1.68,6.59,7.64,11.48,14.74,11.48s13.08-4.88,14.75-11.48h50.7c1.67,6.59,7.64,11.48,14.74,11.48s13.07-4.88,14.75-11.48h2.83c7.51,0,13.61-6.35,13.61-14.2v-2.7c0-7.85-6.1-14.21-13.61-14.21Z"/></svg>