<?xml version="1.0" encoding="UTF-8"?><svg id="Layer_1" xmlns="http://www.w3.org/2000/svg" viewBox="0 0 157.34 107.94"><defs><style>.cls-1{fill:#fab639;}</style></defs><path class="cls-1" d="M74.85,84.75l-.85-28.22-16.98,2.65,20.87-35.56-.36,22.15,13.39-.31-16.07,39.29ZM152.3,34.96s-1.56-3.5-3.5-3.5h-18.05c-1.93,0-3.51,1.56-3.51,3.5v3.39h-4.92v-5.67c0-1.22-1.29-1.12-1.29-1.12h-10.97c0-17.18-8.68-17.13-8.68-17.13h-19.4v-5.84h19.4V0H37.05v8.61h21.15v5.84h-19.47l-11.71,8.95h-9.08c-1.93,0-3.5,1.57-3.5,3.51v22.46h-5.84v-24H0v60.25h8.61v-24.8h5.84v23.28c0,1.93,1.56,3.5,3.5,3.5h9.08l28.48,20.35h59.6c8.09,0,7.22-6.89,7.22-6.89v-10.47h4.92v7.73c0,1.93,1.57,3.5,3.51,3.5h18.05c1.93,0,3.5-3.5,3.5-3.5l5.03-14.66v-34.03l-5.03-14.66Z"/></svg>