<?xml version="1.0" encoding="UTF-8"?><svg id="Layer_1" xmlns="http://www.w3.org/2000/svg" viewBox="0 0 150.11 117.73"><defs><style>.cls-1{fill:#e52a2d;}</style></defs><path class="cls-1" d="M58.87,106.57c-17.05,0-32.02-8.99-40.46-22.47l28.55-13.45c3.04,3.06,7.24,4.97,11.91,4.97s8.86-1.91,11.89-4.97l28.55,13.45c-8.44,13.48-23.41,22.47-40.44,22.47ZM58.87,11.17c26.3,0,47.69,21.39,47.69,47.69,0,5.29-.88,10.37-2.47,15.14l-28.56-13.46c.05-.55.09-1.11.09-1.68,0-9.25-7.5-16.75-16.75-16.75s-16.76,7.5-16.76,16.75c0,.57.03,1.13.09,1.68l-28.56,13.46c-1.6-4.77-2.48-9.85-2.48-15.14,0-26.3,21.4-47.69,47.7-47.69ZM58.87,0C26.4,0,0,26.41,0,58.86s26.4,58.87,58.87,58.87,58.86-26.41,58.86-58.87S91.31,0,58.87,0Z"/><path class="cls-1" d="M149.94,79.91c0,3.63-2.47,6.56-5.53,6.56h-5.01c-3.05,0-5.52-2.93-5.52-6.56V11.13c0-3.62,2.47-6.56,5.52-6.56h5.01c3.06,0,5.53,2.94,5.53,6.56v68.77Z"/><path class="cls-1" d="M150.11,106.59c0,3.63-2.48,6.57-5.53,6.57h-5.18c-3.05,0-5.52-2.94-5.52-6.57v-6.16c0-3.62,2.47-6.56,5.52-6.56h5.18c3.05,0,5.53,2.94,5.53,6.56v6.16Z"/></svg>