<?xml version="1.0" encoding="UTF-8"?><svg id="Layer_1" xmlns="http://www.w3.org/2000/svg" viewBox="0 0 107.88 94.58"><defs><style>.cls-1{fill:#fab639;}</style></defs><path class="cls-1" d="M11.95,85.83h83.95L53.93,13.13,11.95,85.83ZM103.49,94.58H4.45c-.41,0-.81-.04-1.21-.14-.52-.14-.99-.37-1.42-.67-.52-.38-.93-.84-1.24-1.37-.3-.52-.5-1.12-.56-1.75-.02-.14-.02-.3-.02-.44,0-.38.05-.75.14-1.13.11-.4.27-.78.48-1.12L50.14,2.19c.79-1.35,2.23-2.19,3.8-2.19s3.01.83,3.79,2.19l49.38,85.52c.49.71.78,1.57.78,2.51,0,2.35-1.85,4.27-4.18,4.37h-.21Z"/><path class="cls-1" d="M57.66,64.42c0,2.06-1.67,3.73-3.73,3.73s-3.74-1.67-3.74-3.73v-31.8c0-2.06,1.67-3.73,3.74-3.73s3.73,1.67,3.73,3.73v31.8Z"/><path class="cls-1" d="M58.08,75.46c0-2.28-1.86-4.14-4.14-4.14s-4.14,1.85-4.14,4.14,1.85,4.15,4.14,4.15,4.14-1.86,4.14-4.15Z"/></svg>