<?xml version="1.0" encoding="UTF-8"?><svg id="Layer_1" xmlns="http://www.w3.org/2000/svg" viewBox="0 0 125.86 125.86"><defs><style>.cls-1{fill:#149459;}</style></defs><path class="cls-1" d="M62.92,114.57c-28.51,0-51.64-23.12-51.64-51.65S34.41,11.29,62.92,11.29s51.64,23.12,51.64,51.64-23.12,51.65-51.64,51.65ZM118.68,62.93c11.03-9.22,9.16-18-4.38-21.7,6.79-12.29,1.9-19.48-11.95-17.73,1.75-13.84-5.44-18.73-17.72-11.95-3.7-13.54-12.48-15.41-21.71-4.38-9.21-11.03-18-9.16-21.7,4.38-12.29-6.78-19.48-1.89-17.73,11.95-13.84-1.75-18.73,5.44-11.95,17.73-13.55,3.69-15.41,12.47-4.38,21.7-11.03,9.22-9.16,18.01,4.38,21.71-6.79,12.28-1.89,19.47,11.95,17.72-1.75,13.84,5.44,18.73,17.73,11.95,3.69,13.55,12.48,15.42,21.7,4.38,9.23,11.03,18.01,9.16,21.71-4.38,12.28,6.79,19.47,1.89,17.72-11.95,13.84,1.75,18.73-5.44,11.95-17.72,13.55-3.7,15.42-12.49,4.38-21.71Z"/><rect class="cls-1" x="28.69" y="60.6" width="68.48" height="4.67"/><rect class="cls-1" x="60.6" y="28.7" width="4.67" height="68.47"/></svg>