<?xml version="1.0" encoding="UTF-8"?><svg id="Layer_1" xmlns="http://www.w3.org/2000/svg" viewBox="0 0 144.83 64.64"><defs><style>.cls-1{fill:#fefefe;}</style></defs><path class="cls-1" d="M93.48,43.67v-2.89h-31.03c-.56,0-3.98-.12-6.81-2.91-2.36-2.32-3.55-5.69-3.55-10.02s1.24-7.87,3.69-10.31c3.26-3.25,7.31-3.35,7.8-3.32h36.97s0,6.11,0,6.11l-36.98.02c-1.24.03-5.36.66-5.36,7.5,0,6.22,3.29,6.78,4.29,6.8h30.98v-2.51l16.38,5.76-16.38,5.77ZM131.22,22.07h-10.53L101.9,0h-41.8l-22.36,22.07H13.6c-7.51,0-13.6,6.35-13.6,14.2v2.7c0,7.85,6.09,14.2,13.6,14.2h5.1c1.68,6.59,7.64,11.48,14.74,11.48s13.08-4.88,14.75-11.48h50.7c1.67,6.59,7.64,11.48,14.74,11.48s13.07-4.88,14.75-11.48h2.83c7.51,0,13.61-6.35,13.61-14.2v-2.7c0-7.85-6.1-14.2-13.61-14.2Z"/></svg>