<?xml version="1.0" encoding="UTF-8"?><svg id="Layer_1" xmlns="http://www.w3.org/2000/svg" viewBox="0 0 153.34 60.56"><defs><style>.cls-1{fill:#fefefe;}</style></defs><path class="cls-1" d="M107,9.59c-.95,0-1.75.13-2.33.37l-.17.07c-4.3,1.52-10.52,9.62-10.52,20.25s6.22,18.73,10.52,20.26l.18.07c.57.24,1.37.37,2.32.37,4.82,0,5.35-2.17,5.39-2.87V12.44c-.05-.7-.59-2.85-5.39-2.85ZM107,58.85c-1.82,0-3.45-.29-4.84-.86-7.44-2.71-15.43-14.03-15.43-27.71s7.99-24.99,15.42-27.71c1.4-.57,3.03-.85,4.85-.85,4.3,0,7.64,1.27,9.91,3.77,2.71,2.99,2.74,6.58,2.72,6.98v35.69c.01.33-.01,3.92-2.72,6.91-2.27,2.51-5.61,3.78-9.91,3.78Z"/><path class="cls-1" d="M149.72,34.22h-21.52c-2,0-3.62-1.77-3.62-3.94s1.62-3.94,3.62-3.94h21.52c2.01,0,3.62,1.77,3.62,3.94s-1.62,3.94-3.62,3.94Z"/><path class="cls-1" d="M129.03,15.9c-1.48,0-2.86-.99-3.4-2.57-.7-2.04.26-4.3,2.14-5.06L147.64.25c1.88-.76,3.96.28,4.67,2.32.7,2.04-.26,4.31-2.14,5.06l-19.89,8.02c-.42.17-.85.25-1.26.25Z"/><path class="cls-1" d="M148.9,60.56c-.42,0-.85-.08-1.26-.25l-19.89-8.02c-1.88-.75-2.83-3.02-2.14-5.06.7-2.04,2.78-3.08,4.67-2.33l19.89,8.02c1.88.76,2.83,3.02,2.14,5.06-.54,1.59-1.93,2.57-3.4,2.57Z"/><path class="cls-1" d="M107,9.59c-.95,0-1.75.13-2.32.37l-.18.07c-4.3,1.53-10.52,9.62-10.52,20.26s6.22,18.73,10.52,20.26l.17.07c.58.23,1.38.37,2.33.37,4.82,0,5.35-2.17,5.39-2.87V12.44c-.05-.7-.59-2.85-5.39-2.85ZM107,58.85c-1.82,0-3.45-.29-4.85-.86-7.43-2.71-15.42-14.04-15.42-27.71s7.99-25,15.43-27.71c1.39-.57,3.02-.85,4.84-.85,4.3,0,7.64,1.27,9.91,3.77,2.71,2.99,2.74,6.58,2.72,6.98v35.69c.01.33-.01,3.92-2.72,6.91-2.27,2.51-5.61,3.78-9.91,3.78Z"/><path class="cls-1" d="M149.72,34.22h-21.52c-2,0-3.62-1.77-3.62-3.94s1.62-3.94,3.62-3.94h21.52c2.01,0,3.62,1.77,3.62,3.94s-1.62,3.94-3.62,3.94Z"/><path class="cls-1" d="M148.9,60.56c-.42,0-.85-.08-1.26-.25l-19.89-8.02c-1.88-.75-2.83-3.02-2.14-5.06.7-2.04,2.78-3.08,4.67-2.33l19.89,8.02c1.88.76,2.83,3.02,2.14,5.06-.54,1.59-1.93,2.57-3.4,2.57Z"/><path class="cls-1" d="M129.03,15.9c-1.48,0-2.86-.99-3.4-2.57-.7-2.04.26-4.3,2.14-5.06L147.64.25c1.88-.76,3.96.28,4.67,2.32.7,2.04-.26,4.31-2.14,5.06l-19.89,8.02c-.42.17-.85.25-1.26.25Z"/><path class="cls-1" d="M40.97,48.12c.05.7.59,2.85,5.39,2.85.94,0,1.75-.13,2.31-.37l.19-.07c4.3-1.53,10.51-9.61,10.51-20.26s-6.22-18.73-10.51-20.25l-.18-.07c-.57-.24-1.38-.37-2.32-.37-2.22,0-3.91.51-4.74,1.43-.53.59-.64,1.31-.64,1.32v35.79ZM46.36,58.85c-4.3,0-7.64-1.28-9.91-3.78-2.71-2.99-2.73-6.58-2.72-6.98V12.4c0-.33.01-3.92,2.72-6.91,2.27-2.5,5.61-3.77,9.91-3.77,1.82,0,3.45.28,4.85.85,7.43,2.72,15.42,14.04,15.42,27.71s-7.99,25-15.42,27.71c-1.4.57-3.02.86-4.84.86Z"/><path class="cls-1" d="M25.14,34.22H3.63c-2.01,0-3.63-1.77-3.63-3.94s1.62-3.94,3.63-3.94h21.51c2.01,0,3.63,1.77,3.63,3.94s-1.62,3.94-3.63,3.94Z"/><path class="cls-1" d="M24.33,15.9c-.41,0-.85-.08-1.26-.25L3.18,7.63C1.3,6.88.35,4.61,1.04,2.57,1.74.53,3.83-.5,5.71.25l19.88,8.02c1.88.76,2.84,3.02,2.14,5.06-.55,1.59-1.93,2.57-3.4,2.57Z"/><path class="cls-1" d="M4.45,60.56c-1.48,0-2.86-.99-3.4-2.57-.7-2.04.26-4.3,2.14-5.06l19.89-8.02c1.88-.75,3.97.28,4.67,2.33.7,2.04-.27,4.3-2.14,5.06l-19.88,8.02c-.42.17-.85.25-1.26.25Z"/><path class="cls-1" d="M40.97,48.12c.05.7.59,2.85,5.39,2.85.94,0,1.75-.14,2.32-.37l.18-.07c4.3-1.53,10.51-9.62,10.51-20.26s-6.22-18.73-10.51-20.26l-.19-.07c-.57-.24-1.37-.37-2.31-.37-2.22,0-3.91.51-4.74,1.43-.53.59-.64,1.31-.64,1.32v35.79ZM46.36,58.85c-4.3,0-7.64-1.28-9.91-3.78-2.71-2.99-2.73-6.58-2.72-6.98V12.4c0-.33.01-3.92,2.72-6.91,2.27-2.5,5.61-3.77,9.91-3.77,1.81,0,3.44.28,4.84.85,7.43,2.71,15.42,14.03,15.42,27.71s-7.98,25-15.42,27.71c-1.4.57-3.03.86-4.85.86Z"/><path class="cls-1" d="M25.14,34.22H3.63c-2.01,0-3.63-1.77-3.63-3.94s1.62-3.94,3.63-3.94h21.51c2.01,0,3.63,1.77,3.63,3.94s-1.62,3.94-3.63,3.94Z"/><path class="cls-1" d="M4.45,60.56c-1.48,0-2.86-.99-3.4-2.57-.7-2.04.26-4.3,2.14-5.06l19.89-8.02c1.88-.75,3.97.28,4.67,2.33.7,2.04-.27,4.3-2.14,5.06l-19.88,8.02c-.42.17-.85.25-1.26.25Z"/><path class="cls-1" d="M24.33,15.9c-.41,0-.85-.08-1.26-.25L3.18,7.63C1.3,6.88.35,4.61,1.04,2.57,1.74.53,3.83-.5,5.71.25l19.88,8.02c1.88.76,2.84,3.02,2.14,5.06-.55,1.59-1.93,2.57-3.4,2.57Z"/></svg>