<?xml version="1.0" encoding="UTF-8"?><svg id="Layer_1" xmlns="http://www.w3.org/2000/svg" viewBox="0 0 142.27 65.94"><defs><style>.cls-1{fill:#fab639;}</style></defs><path class="cls-1" d="M116.7,50.75c0,5.54-4.53,10.05-10.08,10.05s-10.06-4.51-10.06-10.05c0-3.81,2.14-7.14,5.28-8.84h9.58c3.14,1.7,5.27,5.03,5.27,8.84ZM84.19,50.75c0,5.54-4.52,10.05-10.05,10.05s-10.05-4.51-10.05-10.05c0-3.81,2.14-7.14,5.24-8.84h9.58c3.14,1.7,5.27,5.03,5.27,8.84ZM142.27,0H27.09v35.64H0v6.27h61.82c-1.8,2.49-2.86,5.53-2.86,8.84,0,8.37,6.8,15.18,15.18,15.18s15.18-6.82,15.18-15.18c0-3.3-1.08-6.35-2.88-8.84h7.88c-1.8,2.49-2.86,5.53-2.86,8.84,0,8.37,6.8,15.18,15.16,15.18s15.18-6.82,15.18-15.18c0-3.3-1.06-6.35-2.86-8.84h23.32V0Z"/></svg>