<?xml version="1.0" encoding="UTF-8"?><svg id="Layer_1" xmlns="http://www.w3.org/2000/svg" viewBox="0 0 178.18 79.53"><defs><style>.cls-1{fill:#fefefe;}</style></defs><path class="cls-1" d="M161.44,27.14h-12.95L125.37,0h-51.43l-25.38,25.04L24.77,4.53C17.52-1.72,8.69,1.12,5.03,3.5c-1.99,1.3-2.56,3.97-1.26,5.97,1.3,1.99,3.97,2.56,5.96,1.25.05-.03,5.19-3.3,9.4.33l18.67,16.1h-21.07C7.5,27.14,0,34.97,0,44.62v3.33c0,9.65,7.5,17.47,16.74,17.47h6.27c2.06,8.11,9.39,14.12,18.14,14.12s16.08-6.01,18.14-14.12h62.37c2.07,8.11,9.4,14.12,18.15,14.12s16.07-6.01,18.14-14.12h3.48c9.25,0,16.74-7.82,16.74-17.47v-3.33c0-9.65-7.49-17.47-16.74-17.47Z"/></svg>