<?xml version="1.0" encoding="UTF-8"?><svg id="Layer_1" xmlns="http://www.w3.org/2000/svg" viewBox="0 0 109.21 106.01"><defs><style>.cls-1{fill:#e52a2d;}</style></defs><path class="cls-1" d="M59.52,29.76C59.52,13.33,46.2,0,29.76,0S0,13.33,0,29.76s13.32,29.77,29.76,29.77,29.76-13.32,29.76-29.77Z"/><path class="cls-1" d="M98.25,19.26c0-8.46-6.86-15.32-15.31-15.32s-15.32,6.86-15.32,15.32,6.85,15.31,15.32,15.31,15.31-6.85,15.31-15.31Z"/><path class="cls-1" d="M86.71,86.09c-3.64-4.95-7.27-9.89-10.9-14.84-3.67-5.01-7.35-10-11.03-15.01-.47-.64-1.02-1.2-1.61-1.64-2.33-1.82-5.34-2.11-7.51-.59-2.22,1.56-4.51,3.06-6.83,4.48-1.42.87-2.3,2.33-2.59,4.01-.29,1.66.02,3.53,1.01,5.24,2.41,4.13,4.81,8.26,7.22,12.39,3.82,6.53,7.64,13.07,11.45,19.61,1.98,3.45,6.61,4.59,10.22,2.37,2.95-1.8,5.84-3.7,8.67-5.69,3.47-2.43,4.26-7.14,1.89-10.33Z"/><path class="cls-1" d="M65.8,55.06l10.96,14.95c7.94-11.57,13.19-33.41,4.1-34.77-6.8-1.03-13.48,10.18-17.18,17.74.79.58,1.51,1.28,2.12,2.09Z"/><path class="cls-1" d="M44.54,62.28c-2.78.14-6.09.41-8.76.96-5.8,1.2-25.22,30.91-25.22,30.91-2.16,2.61-1.79,6.48.82,8.63l2.19,1.81c2.61,2.17,6.47,1.8,8.63-.81l.67-.8.09-.11,12.22-14.76c.05-.07.09-.12.14-.19l7.07-8.55s4.53.81,10.37.81l-6.98-11.95c-1.11-1.93-1.5-4.04-1.23-5.95Z"/><path class="cls-1" d="M106.68,43.06l-14.18,7.74c-1.84,1.01-4.04.7-5.53-.62.71-3.89.81-7.45.06-10.06l13.91-7.58c2.35-1.29,5.3-.42,6.59,1.93l1.09,1.98c1.28,2.36.42,5.31-1.94,6.6Z"/></svg>