<?xml version="1.0" encoding="UTF-8"?><svg id="Layer_1" xmlns="http://www.w3.org/2000/svg" viewBox="0 0 155.29 101.24"><defs><style>.cls-1{fill:#fab639;}</style></defs><path class="cls-1" d="M53.97,41.66H8.8V8.69h4.19v-.04h36.78v.04h4.19v32.98ZM85.08,16.97C76.29,5.36,57.13-2.98,61.88,1.49c12.1,11.41,19.49,22.31,20.02,24.77.58,2.71-2.36,7.17.88,8.58.06.04.14.05.22.09.06,7.27,0,30.38-.06,46.41-.02.71-.58,8.05-6.47,8.05s-6.44-7.36-6.49-8.05v-26.12c0-5.23-1.47-9.27-4.39-11.98-1.91-1.83-4.14-2.68-5.94-3.09V5.66c0-3.12-2.52-5.66-5.64-5.66H8.74C5.61,0,3.09,2.54,3.09,5.66v89.85H0v5.74h62.74v-5.74h-3.09v-50.36c.89.31,1.83.8,2.67,1.59,1.89,1.77,2.86,4.63,2.86,8.48v26.29c.2,4.39,2.8,12.68,11.29,12.68s11.08-8.29,11.27-12.68v-.09s.06-12.19.09-24.41v-16.82c0-2.71,0-4.55-.03-5.84.75-.51,1.33-1.15,1.75-1.7,1.06-1.46,4.33-4.06-4.47-15.68Z"/><path class="cls-1" d="M112.9,60.48c-5.94,5.93-11.71,6.43-14.99,3.17-3.25-3.26-2.75-9.06,3.17-14.97,5.91-5.92,19.52-7.7,19.52-7.7,0,0-1.78,13.59-7.69,19.51Z"/><path class="cls-1" d="M122.92,24.67c-5.93,5.92-11.71,6.43-14.99,3.17-3.25-3.26-2.75-9.06,3.17-14.97s19.52-7.7,19.52-7.7c0,0-1.77,13.59-7.69,19.51Z"/><path class="cls-1" d="M147.57,43.92c-5.91,5.93-11.71,6.43-14.96,3.17-3.27-3.26-2.75-9.06,3.17-14.97,5.91-5.92,19.52-7.7,19.52-7.7,0,0-1.78,13.59-7.72,19.51Z"/></svg>