<?xml version="1.0" encoding="UTF-8"?><svg id="Layer_1" xmlns="http://www.w3.org/2000/svg" viewBox="0 0 113.29 111.43"><defs><style>.cls-1{fill:#fab639;}</style></defs><path class="cls-1" d="M105.19,101.81c0,.83-.67,1.5-1.5,1.5H9.63c-.83,0-1.5-.67-1.5-1.5V27.22c0-.82.67-1.5,1.5-1.5h94.05c.83,0,1.5.68,1.5,1.5v74.6ZM43.58,8.12h26.15v9.48h-26.15v-9.48ZM103.69,17.6h-25.82V0h-42.41v17.6H9.63c-5.3,0-9.63,4.31-9.63,9.61v74.6c0,5.3,4.33,9.62,9.63,9.62h94.05c5.3,0,9.61-4.32,9.61-9.62V27.22c0-5.3-4.3-9.61-9.61-9.61Z"/><path class="cls-1" d="M51.47,53.18v-16.37h12.63v16.37h3.86l-10.19,11.75-10.16-11.75h3.86ZM78.4,75.03c-4.77,0-7.11-.82-9.58-1.68-2.64-.93-5.39-1.88-10.69-1.92l19.68-22.76h-9.21v-16.37h-21.65v16.37h-9.21l19.71,22.76c-5.3.04-8.08.99-10.72,1.92-2.47.86-4.8,1.68-9.58,1.68s-7.08-.82-9.55-1.68c-2.72-.95-5.52-1.93-11.05-1.93v4.51c4.77,0,7.11.82,9.55,1.68,2.72.95,5.53,1.93,11.05,1.93s8.36-.99,11.08-1.93c2.45-.86,4.78-1.68,9.56-1.68s7.11.82,9.58,1.68c2.69.95,5.49,1.93,11.05,1.93s8.32-.99,11.05-1.93c2.47-.86,4.8-1.68,9.55-1.68v-4.51c-5.52,0-8.32.98-11.05,1.93-2.47.86-4.77,1.68-9.55,1.68Z"/></svg>