<?xml version="1.0" encoding="UTF-8"?><svg id="Layer_1" xmlns="http://www.w3.org/2000/svg" viewBox="0 0 77.2 112.44"><defs><style>.cls-1{fill:#fab639;}</style></defs><path class="cls-1" d="M67.77,77.92c-2.92,0-5.28,2.37-5.28,5.28v7.28h-20v-18.77h-7.77v18.77H14.71v-7.28c0-2.91-2.36-5.28-5.28-5.28s-5.29,2.37-5.29,5.28v23.96c0,2.92,2.37,5.28,5.29,5.28s5.28-2.36,5.28-5.28v-7.28h47.78v7.28c0,2.92,2.36,5.28,5.28,5.28s5.28-2.36,5.28-5.28v-23.96c0-2.91-2.36-5.28-5.28-5.28Z"/><path class="cls-1" d="M74.33.59c-2.59-1.33-5.78-.31-7.11,2.28l-4.3,8.37H19.12l1.81-3.54c1.34-2.59.32-5.78-2.28-7.11-2.59-1.33-5.77-.31-7.11,2.28L.59,24.17c-1.33,2.6-.31,5.78,2.28,7.12,2.59,1.33,5.78.31,7.11-2.28l4.3-8.37h20.43v17.97h7.77v-17.97h15.59l-1.82,3.54c-1.33,2.6-.31,5.78,2.28,7.12,2.59,1.33,5.78.31,7.11-2.28l10.96-21.31c1.33-2.59.31-5.78-2.28-7.11Z"/><polygon class="cls-1" points="28.12 68.19 38.6 57.71 49.08 68.19 52.71 64.56 42.22 54.08 52.71 43.6 49.08 39.97 38.6 50.46 28.12 39.97 24.49 43.6 34.97 54.08 24.49 64.56 28.12 68.19"/></svg>