<?xml version="1.0" encoding="UTF-8"?><svg id="Layer_1" xmlns="http://www.w3.org/2000/svg" viewBox="0 0 104.13 144.95"><defs><style>.cls-1{fill:#149459;}</style></defs><rect class="cls-1" x="74.23" y="17.31" width="5.49" height="41.79"/><rect class="cls-1" x="61.76" y="17.31" width="5.5" height="41.79"/><rect class="cls-1" x="49.3" y="17.31" width="5.49" height="41.79"/><rect class="cls-1" x="36.87" y="17.31" width="5.49" height="41.79"/><rect class="cls-1" x="24.41" y="17.31" width="5.49" height="41.79"/><path class="cls-1" d="M76.84,103.92v.09c-2.38,16.04-13.13,33.91-24.79,33.91s-22.4-17.88-24.76-33.92l-.03-.09c-.44-2.63-.7-5.89-.7-9.67,0-18.46,4.14-21.68,4.75-22.05h41.47c.64.38,4.74,3.59,4.74,22.05,0,3.79-.22,7.04-.7,9.69ZM73.12,65.15H30.98c-2.67,0-11.44,2.1-11.44,29.09,0,4.17.28,7.81.77,10.84,2.86,19.18,15.8,39.87,31.73,39.87s28.88-20.68,31.73-39.87c.53-3.03.8-6.67.8-10.84,0-26.99-8.77-29.09-11.46-29.09Z"/><path class="cls-1" d="M104.13,20.76l-1.5-16.37c-.17-1.72-1.7-2.98-3.41-2.83-1.7.16-2.97,1.68-2.8,3.4l.75,8.45c-.08-.08-.2-.14-.3-.22-.53-.41-1.08-.8-1.67-1.19-.11-.08-.22-.16-.33-.24-.61-.4-1.22-.79-1.83-1.17-.17-.1-.36-.21-.52-.32-.64-.39-1.31-.77-1.98-1.14-.17-.1-.35-.19-.52-.29-.67-.35-1.3-.7-2-1.04-.09-.04-.2-.09-.28-.14-.69-.34-1.41-.67-2.14-.99-.2-.08-.35-.16-.55-.24-.75-.32-1.47-.62-2.25-.92-.17-.07-.36-.14-.53-.21-.78-.29-1.52-.58-2.3-.84-.08-.03-.14-.04-.19-.07-.8-.27-1.62-.53-2.45-.78-.19-.06-.35-.12-.55-.17-.8-.24-1.64-.47-2.47-.69-.2-.04-.36-.09-.56-.14-.83-.21-1.7-.42-2.55-.61-.06,0-.09-.01-.15-.02-.85-.2-1.77-.37-2.67-.54-.19-.03-.35-.07-.55-.1-.89-.15-1.75-.3-2.67-.43-.17-.03-.36-.05-.53-.08-.94-.12-1.86-.24-2.8-.35h-.03c-.97-.1-1.91-.18-2.85-.25-.2-.01-.39-.03-.59-.04-.91-.07-1.86-.12-2.77-.15-.2,0-.39,0-.56-.01-.97-.03-1.97-.05-2.94-.05h-.03c-.97,0-1.97.02-2.94.05-.2,0-.36,0-.56.01-.94.04-1.85.09-2.8.15-.17,0-.36.02-.55.04-.95.07-1.92.15-2.86.25h-.03c-.94.11-1.86.22-2.8.35-.17.03-.36.05-.53.08-.91.13-1.8.28-2.67.43-.19.04-.38.07-.55.1-.92.17-1.8.34-2.69.54-.03,0-.06.01-.11.02-.86.19-1.72.4-2.56.61-.2.05-.38.09-.55.14-.83.22-1.67.45-2.47.69-.2.06-.36.12-.56.17-.83.25-1.64.51-2.44.78-.06.03-.12.04-.2.07-.78.26-1.56.55-2.3.84-.2.07-.36.14-.56.21-.75.3-1.5.6-2.22.92-.2.08-.36.16-.56.24-.72.33-1.44.65-2.14.99-.09.05-.2.09-.28.14-.69.34-1.35.69-1.99,1.04-.2.1-.36.19-.53.29-.67.37-1.33.75-1.97,1.14-.2.11-.36.22-.53.32-.61.38-1.22.78-1.83,1.17-.11.08-.22.16-.33.24-.58.38-1.14.78-1.67,1.19-.11.08-.22.14-.33.22l.78-8.45c.17-1.72-1.11-3.24-2.83-3.4-1.7-.14-3.22,1.11-3.39,2.83L0,20.76v.45c0,.1.03.2.03.31.03.06.03.11.03.17v.06s.03.09.05.13c.03.11.06.22.12.33,0,.02,0,.04.03.06.02.07.05.14.08.2.06.08.09.15.14.22.03.04.03.07.06.1.03.05.08.1.11.15.06.07.12.13.17.19.03.05.09.09.12.13.02.03.05.05.08.07t.03.03c.06.06.14.1.2.16.05.04.11.07.14.11.03,0,.06.02.06.04.08.06.19.1.28.14.06.03.08.06.14.08h.03s.03.02.06.03c.08.04.17.07.28.1.05.01.14.04.2.06t.05,0s.03,0,.03.01h.03s.06.01.09.02l12.76,2.68c.22.04.45.07.67.07,1.44,0,2.72-1.01,3.06-2.48.33-1.69-.75-3.35-2.42-3.7l-6.96-1.46c9.79-7.81,24.7-12.63,40.58-12.97.11,0,.25,0,.36,0,.47,0,.94-.01,1.41-.01.5,0,.97,0,1.44.01.12,0,.22,0,.36,0,15.88.33,30.79,5.16,40.59,12.97l-6.97,1.46c-1.7.35-2.77,2.01-2.41,3.7.3,1.47,1.61,2.48,3.05,2.48.22,0,.44-.03.67-.07l12.77-2.68s.05-.01.08-.01h.03s.03-.02.03-.02h.03c.08-.03.17-.05.22-.07.09-.04.2-.07.28-.1.03,0,.03-.01.05-.02.06-.03.12-.06.17-.09.09-.04.2-.09.28-.14,0-.01.03-.03.05-.04.03-.04.09-.07.12-.11.08-.06.17-.1.22-.16t.03-.03s.06-.04.09-.07c.03-.04.05-.08.11-.13.06-.06.11-.12.17-.19.03-.05.08-.1.11-.15.03-.04.03-.07.06-.1.06-.07.09-.14.14-.22.03-.07.06-.14.09-.2,0-.02.03-.04.03-.06.05-.11.08-.22.11-.33,0-.04.03-.09.03-.13,0-.01,0-.04.02-.06,0-.06,0-.11.03-.17,0-.11.03-.21.03-.31v-.45Z"/></svg>