<?xml version="1.0" encoding="UTF-8"?><svg id="Layer_1" xmlns="http://www.w3.org/2000/svg" viewBox="0 0 119.81 114.74"><defs><style>.cls-1{fill:#e52a2d;}</style></defs><path class="cls-1" d="M59.71,99.35c8.26,0,14.98-6.72,14.98-14.98,0-6.47-4.12-11.98-9.87-14.07v-6.49h13.77c2.71,0,4.91-2.21,4.91-4.91s-2.2-4.92-4.91-4.92h-13.77v-8.17h13.77c2.71,0,4.91-2.21,4.91-4.92s-2.2-4.92-4.91-4.92h-13.77v-8.17h13.77c2.71,0,4.91-2.2,4.91-4.91s-2.2-4.92-4.91-4.92h-13.77V5.11c0-2.82-2.3-5.11-5.11-5.11s-5.11,2.3-5.11,5.11v65.19c-5.75,2.09-9.87,7.6-9.87,14.07,0,8.26,6.72,14.98,14.98,14.98Z"/><path class="cls-1" d="M116.24,83.49c-1.31,0-1.83-.43-3.15-1.7-1.54-1.47-3.85-3.69-8.11-3.69s-6.57,2.22-8.1,3.69c-1.33,1.27-1.85,1.7-3.15,1.7s-1.83-.43-3.14-1.7c-1.54-1.47-3.85-3.69-8.11-3.69-1.97,0-3.57,1.6-3.57,3.57s1.6,3.58,3.57,3.58c1.31,0,1.83.43,3.14,1.7,1.54,1.47,3.85,3.69,8.11,3.69s6.57-2.22,8.1-3.69c1.32-1.27,1.85-1.7,3.15-1.7s1.83.43,3.15,1.7c1.54,1.47,3.85,3.69,8.11,3.69,1.97,0,3.57-1.59,3.57-3.58s-1.6-3.57-3.57-3.57Z"/><path class="cls-1" d="M22.92,86.95c1.32-1.27,1.84-1.7,3.15-1.7s1.83.43,3.15,1.7c1.53,1.47,3.85,3.69,8.1,3.69,1.98,0,3.58-1.59,3.58-3.58s-1.6-3.57-3.58-3.57c-1.3,0-1.83-.43-3.15-1.7-1.53-1.47-3.85-3.69-8.1-3.69s-6.57,2.22-8.11,3.69c-1.32,1.27-1.84,1.7-3.15,1.7s-1.83-.43-3.14-1.7c-1.54-1.47-3.85-3.69-8.1-3.69-1.97,0-3.57,1.6-3.57,3.57s1.6,3.58,3.57,3.58c1.3,0,1.83.43,3.14,1.7,1.54,1.47,3.85,3.69,8.1,3.69s6.57-2.22,8.11-3.69Z"/><path class="cls-1" d="M101.98,102.52c-4.08,0-6.3,2.12-7.76,3.53-1.22,1.17-1.66,1.54-2.81,1.54s-1.59-.37-2.81-1.54c-1.46-1.41-3.68-3.53-7.77-3.53s-6.3,2.12-7.76,3.53c-1.22,1.17-1.66,1.54-2.8,1.54s-1.59-.37-2.8-1.54c-1.47-1.41-3.69-3.53-7.77-3.53s-6.3,2.12-7.76,3.53c-1.22,1.17-1.66,1.54-2.8,1.54s-1.59-.37-2.8-1.54c-1.46-1.41-3.68-3.53-7.76-3.53s-6.3,2.12-7.76,3.53c-1.22,1.17-1.66,1.54-2.8,1.54s-1.59-.37-2.81-1.54c-1.46-1.41-3.67-3.53-7.76-3.53-1.97,0-3.57,1.59-3.57,3.57s1.6,3.57,3.57,3.57c1.15,0,1.59.38,2.81,1.54,1.46,1.41,3.67,3.53,7.76,3.53s6.29-2.12,7.76-3.53c1.22-1.17,1.65-1.54,2.8-1.54s1.59.38,2.8,1.54c1.46,1.41,3.68,3.53,7.76,3.53s6.3-2.12,7.76-3.53c1.22-1.17,1.65-1.54,2.8-1.54s1.59.38,2.8,1.54c1.47,1.41,3.69,3.53,7.77,3.53s6.3-2.12,7.76-3.53c1.22-1.17,1.66-1.54,2.8-1.54s1.59.38,2.82,1.54c1.46,1.41,3.68,3.53,7.76,3.53s6.3-2.12,7.76-3.53c1.22-1.17,1.67-1.54,2.81-1.54,1.98,0,3.58-1.59,3.58-3.57s-1.6-3.57-3.58-3.57Z"/></svg>