<?xml version="1.0" encoding="UTF-8"?><svg id="Layer_1" xmlns="http://www.w3.org/2000/svg" viewBox="0 0 166 105.21"><defs><style>.cls-1{fill:#fefefe;}</style></defs><path class="cls-1" d="M108.23,87.83c-7.25-5.46-16.07-8.43-25.22-8.43-1.96,0-3.88.14-5.78.41L43.16,25.87c-1.16-1.84-3.59-2.39-5.43-1.23-1.84,1.17-2.39,3.6-1.22,5.44l32.63,51.68c-4.06,1.42-7.89,3.46-11.36,6.07L9.55,34.84C30.07,17.42,56,7.88,83,7.88s52.93,9.54,73.44,26.96l-48.22,52.99ZM164.71,31.61C142.3,11.22,113.29,0,83,0S23.69,11.22,1.29,31.61c-.77.7-1.24,1.69-1.28,2.73-.05,1.04.32,2.06,1.02,2.84l53.45,58.73c1.46,1.62,3.95,1.73,5.56.27,3.89-3.54,8.49-6.09,13.44-7.53l2.73,4.32c-.77,1.22-1.22,2.67-1.22,4.22,0,4.43,3.59,8.01,8.01,8.01s8.01-3.59,8.01-8.01-3.51-7.93-7.87-8l-1.19-1.89c.35,0,.7-.02,1.05-.02,8.51,0,16.66,3.16,22.96,8.89.76.69,1.71,1.02,2.65,1.02,1.07,0,2.14-.43,2.92-1.29l53.44-58.73c.7-.78,1.07-1.8,1.02-2.84-.04-1.04-.51-2.03-1.28-2.73Z"/></svg>