<?xml version="1.0" encoding="UTF-8"?><svg id="Layer_1" xmlns="http://www.w3.org/2000/svg" viewBox="0 0 68.81 148.36"><defs><style>.cls-1{fill:#fefefe;}</style></defs><path class="cls-1" d="M34.4,42.21c-8.08,0-14.64-6.56-14.64-14.65s6.56-14.66,14.64-14.66,14.66,6.56,14.66,14.66-6.56,14.65-14.66,14.65ZM34.4,77.31c-8.08,0-14.64-6.56-14.64-14.66s6.56-14.65,14.64-14.65,14.66,6.56,14.66,14.65-6.56,14.66-14.66,14.66ZM34.4,112.41c-8.08,0-14.64-6.56-14.64-14.65s6.56-14.65,14.64-14.65,14.66,6.56,14.66,14.65-6.56,14.65-14.66,14.65ZM68.81,48.03h-6.49v-5.84l6.49-29.22h-6.49c0-4.96-4.03-8.99-9-8.99h-6.16V0h-25.51v3.98h-6.16c-4.97,0-9,4.03-9,9H0l6.49,29.22v5.85H0l6.49,29.22v5.88H0l6.49,29.22v2.06c0,4.98,4.03,9,9,9h6.16v3.98h6.45v20.94h12.61v-20.94h6.45v-3.98h6.16c4.98,0,9-4.03,9-9v-2.09l6.49-29.22h-6.49v-5.88l6.49-29.22Z"/></svg>