<?xml version="1.0" encoding="UTF-8"?><svg id="Layer_1" xmlns="http://www.w3.org/2000/svg" viewBox="0 0 137.64 103.43"><defs><style>.cls-1{fill:#fab639;}</style></defs><path class="cls-1" d="M68.82,10.5c-22.72,0-41.21,18.49-41.21,41.21s18.49,41.21,41.21,41.21,41.21-18.49,41.21-41.21S91.54,10.5,68.82,10.5ZM68.82,103.43c-28.52,0-51.72-23.2-51.72-51.72S40.3,0,68.82,0s51.72,23.2,51.72,51.71-23.2,51.72-51.72,51.72Z"/><path class="cls-1" d="M131.81,66c-.22,0-.45-.01-.67-.04-2.88-.37-4.91-3.01-4.53-5.88.35-2.73.53-5.55.53-8.37s-.18-5.62-.53-8.35c-.38-2.88,1.66-5.51,4.53-5.88,2.88-.38,5.51,1.66,5.88,4.54.41,3.17.62,6.43.62,9.69s-.21,6.53-.62,9.71c-.33,2.64-2.59,4.58-5.2,4.58Z"/><path class="cls-1" d="M127.72,31.98c-2.09,0-4.07-1.26-4.89-3.33-2.18-5.55-5.17-10.77-8.87-15.5-1.78-2.29-1.38-5.59.91-7.37,2.28-1.78,5.59-1.38,7.37.9,4.32,5.53,7.82,11.63,10.37,18.13,1.06,2.69-.26,5.75-2.96,6.81-.63.25-1.28.37-1.92.37Z"/><path class="cls-1" d="M118.09,98.76c-1.13,0-2.27-.36-3.23-1.12-2.28-1.79-2.69-5.09-.91-7.37,3.69-4.73,6.68-9.94,8.87-15.49,1.06-2.69,4.11-4.02,6.81-2.96,2.7,1.06,4.03,4.11,2.96,6.82-2.56,6.49-6.04,12.58-10.36,18.1-1.04,1.32-2.59,2.01-4.14,2.01Z"/><path class="cls-1" d="M5.82,65.99c-2.6,0-4.86-1.93-5.2-4.58-.41-3.17-.62-6.43-.62-9.69s.2-6.53.62-9.71c.37-2.88,3.01-4.9,5.88-4.53,2.88.37,4.9,3.01,4.53,5.88-.35,2.73-.53,5.54-.53,8.36s.17,5.63.53,8.35c.37,2.88-1.67,5.51-4.54,5.88-.22.02-.45.04-.67.04Z"/><path class="cls-1" d="M19.54,98.77c-1.56,0-3.11-.7-4.14-2.02-4.32-5.53-7.82-11.63-10.37-18.12-1.06-2.7.27-5.74,2.96-6.81,2.7-1.06,5.75.26,6.81,2.96,2.19,5.55,5.17,10.77,8.87,15.5,1.79,2.28,1.38,5.59-.9,7.37-.96.75-2.1,1.12-3.23,1.12Z"/><path class="cls-1" d="M9.92,31.98c-.64,0-1.29-.12-1.93-.37-2.69-1.06-4.03-4.11-2.96-6.82,2.56-6.49,6.05-12.58,10.37-18.1,1.78-2.29,5.09-2.69,7.37-.91,2.28,1.79,2.69,5.09.9,7.37-3.69,4.73-6.68,9.93-8.87,15.49-.81,2.06-2.79,3.33-4.88,3.33Z"/></svg>