<?xml version="1.0" encoding="UTF-8"?><svg id="Layer_1" xmlns="http://www.w3.org/2000/svg" viewBox="0 0 82.61 128.94"><defs><style>.cls-1{fill:#fefefe;}</style></defs><path class="cls-1" d="M11.98,117.96h24.04c2.99-16.63,19.68-23.64,35.6-24.76V10.99h-31.92C10.64,14.56,10.99,75.29,11,75.91l.98,42.05ZM41.04,128.94H6.61c-2.99,0-5.43-2.38-5.5-5.36L0,76.15C-.04,73.19-.91,4.38,38.79.04c.2-.02.39-.04.59-.04h37.73c3.04,0,5.5,2.46,5.5,5.49v93.05c0,1.49-.6,2.92-1.68,3.96-1.06,1.04-2.55,1.64-4.01,1.54h-.61c-4.98-.01-29.79.93-29.79,19.42,0,3.03-2.46,5.48-5.49,5.48Z"/></svg>