<?xml version="1.0" encoding="UTF-8"?><svg id="Layer_1" xmlns="http://www.w3.org/2000/svg" viewBox="0 0 129.03 81.77"><defs><style>.cls-1{fill:#fefefe;}</style></defs><path class="cls-1" d="M84.11,68.26c-5.64-4.24-12.5-6.54-19.6-6.54-1.53,0-3.02.11-4.49.31l-26.46-41.92c-.92-1.43-2.8-1.85-4.25-.96-1.41.91-1.85,2.8-.94,4.23l25.35,40.17c-3.14,1.1-6.11,2.68-8.83,4.71L7.44,27.08C23.37,13.55,43.53,6.13,64.51,6.13s41.14,7.42,57.08,20.95l-37.47,41.18ZM128.03,24.57C110.6,8.72,88.06,0,64.51,0S18.4,8.72,1,24.57C.41,25.12.05,25.88,0,26.7c-.03.8.25,1.6.8,2.2l41.52,45.65c1.14,1.25,3.09,1.35,4.33.21,3.03-2.75,6.58-4.74,10.44-5.85l2.14,3.36c-.61.96-.94,2.08-.94,3.29,0,3.43,2.77,6.22,6.22,6.22s6.22-2.79,6.22-6.22-2.72-6.16-6.11-6.22l-.92-1.46c.25,0,.53-.01.8-.01,6.61,0,12.94,2.45,17.85,6.9.59.54,1.33.8,2.06.8.83,0,1.67-.34,2.27-1.01l41.53-45.65c.55-.6.83-1.4.8-2.2-.06-.81-.42-1.58-1-2.13Z"/></svg>