<?xml version="1.0" encoding="UTF-8"?><svg id="Layer_1" xmlns="http://www.w3.org/2000/svg" viewBox="0 0 108.29 100.28"><defs><style>.cls-1{fill:#fab639;}</style></defs><path class="cls-1" d="M49.3,41.26H12.85V8.56h36.45v32.7ZM102.27,24.91V5.26h-3.97v19.65h-8.19V5.26h-3.97v19.65h-6.03v20.86h.03c.2,4.04,4.53,7.39,10.35,8.42l-.05,24.25.03.28s.22,2.01-1.09,3.52-3.91,2.32-7.52,2.32-6.14-.83-7.72-2.43c-1.85-1.91-1.8-4.54-1.8-4.54v-27.76c0-3.8-1.3-7.03-3.75-9.32-3.06-2.83-7.05-3.57-9.5-3.74V5.61c0-3.09-2.49-5.61-5.61-5.61H8.66C5.55,0,3.05,2.51,3.05,5.61v88.98H0v5.69h62.13v-5.69h-3.03v-50.31c1.36.16,3.22.59,4.39,1.69.91.87,1.36,2.13,1.36,3.85v27.49c-.03.99.05,5.9,3.83,9.89,3.02,3.2,7.46,4.82,13.18,4.82s10.38-1.65,13.18-4.9c3.11-3.62,3-7.86,2.86-9.16l.05-23.78c5.8-1.04,10.11-4.38,10.3-8.41h.03v-20.86h-6.03Z"/></svg>