<?xml version="1.0" encoding="UTF-8"?><svg id="Layer_1" xmlns="http://www.w3.org/2000/svg" viewBox="0 0 159.8 105.67"><defs><style>.cls-1{fill:#fab639;}</style></defs><path class="cls-1" d="M150.16,37.02c-1.06.35-4.09.98-12.21.98-.67,0-1.31,0-1.9,0-.51-2.62-1.72-4.49-2.84-5.72-.67-.75-1.45-1.41-2.31-1.97-2.25-1.7-5.03-2.72-8.06-2.72-3.36,0-6.43,1.27-8.79,3.31-.64.5-1.24,1.04-1.77,1.67-1.13,1.3-2.32,3.25-2.74,5.96-6.61.07-13.46.11-20.84.11-9.69,0-20.24-.06-33.22-.21-3.63-.04-7.27-.09-10.9-.14-.13-.54-.3-1.07-.49-1.58,0-.01-.01-.04-.02-.05-.08-.22-.17-.43-.26-.64-.1-.21-.2-.43-.32-.66-.07-.12-.12-.23-.2-.35-.04-.09-.08-.17-.13-.25-.37-.62-.77-1.2-1.22-1.73-.01-.02-.02-.04-.04-.05-.51-.61-1.06-1.17-1.65-1.67-.12-.11-.25-.2-.38-.31-.11-.08-.21-.15-.31-.22-2.24-1.67-4.99-2.66-7.99-2.66-3.72,0-7.11,1.56-9.56,4.07-1.38,1.38-2.45,3.05-3.11,4.95-1.72-.27-3.24-.57-4.64-.94-2.39-.62-5.03-1.46-6.36-2.95-.23-.27-.3-.42-.33-.43.01-.04.04-.13.13-.27,3.72-6.12,15.73-7.64,22.91-8.54l.57-.07c5.17-.66,8.28-1.05,13.2-3.35,4.76-2.23,10.42-4.88,16.26-7.51,8.45-3.82,13.66-5.01,22.3-5.11,2.28-.02,4.56-.09,6.98-.18,2.97-.1,6.04-.2,9.06-.2,5.71,0,10.09.38,13.81,1.22,2.33.53,5.09,2.67,7.75,4.76,1.91,1.49,3.89,3.03,5.89,4.12,4.4,2.41,9,2.9,13.44,3.39,3.79.41,7.38.8,10.42,2.39,1.06,2.15.71,10.25-.11,13.58ZM128.7,41.37v.15c-.28,3.01-2.84,5.35-5.86,5.35s-5.45-2.2-5.82-5.18c-.03-.2-.04-.43-.04-.69,0-1.69.72-3.22,1.87-4.28,1.07-.77,2.51-1.2,4.07-1.2,1.39,0,2.69.36,3.69.99,1.29,1.08,2.1,2.69,2.1,4.49,0,.13,0,.25,0,.37ZM37.44,41.8c-.17,3.13-2.74,5.58-5.87,5.58s-5.86-2.64-5.86-5.87v-.12c.03-1.36.52-2.62,1.34-3.6,1.2-1.38,2.99-2.02,4.64-2.02.75,0,2.32.14,3.69,1.27.4.34.76.73,1.06,1.17,0,.02.03.04.04.07.09.12.16.25.23.38.06.1.1.2.14.29.02.05.06.1.08.16.2.48.28.9.35,1.38.04.29.11.57.17.83,0,.06,0,.13,0,.2v.29ZM158.38,32.09c.43-5.82-.09-12.82-4.06-15.05-4.47-2.51-9.14-3.02-13.66-3.51-3.88-.42-7.54-.81-10.63-2.5-1.47-.8-3.12-2.09-4.86-3.46-3.33-2.59-6.77-5.27-10.75-6.17-4.27-.96-9.19-1.41-15.47-1.41-3.14,0-6.27.12-9.31.21-2.38.09-4.62.16-6.82.19-9.61.11-15.99,1.57-25.31,5.77-5.89,2.66-11.58,5.32-16.37,7.56-3.84,1.8-6.06,2.09-10.94,2.69l-.56.07c-8.53,1.07-22.82,2.88-28.42,12.13-1.94,3.22-1.57,6.72,1.03,9.62,2.67,2.98,6.6,4.32,10.09,5.24,1.72.45,3.56.81,5.64,1.13.2.03.38.07.57.1,1.44,5.86,6.72,10.21,13,10.21,5.9,0,10.91-3.8,12.71-9.12h.04c3.69.07,7.39.11,11.08.15,13.01.14,23.59.22,33.3.22,7.7,0,14.84-.04,21.73-.13,2.01,4.95,6.86,8.37,12.42,8.37s10.73-3.69,12.6-8.87c.76,0,1.61,0,2.51,0,12.35,0,17.39-1.27,18.93-4.82l.08-.19c.16-.34.3-.74.44-1.17l2.41-7.9-1.43.63Z"/><path class="cls-1" d="M76.41,100v-37.91h8.82v37.91h-8.82ZM88.43,100v-37.91h14.29v-11.33h-43.83v11.33h14.29v37.91H27.92v5.67h105.79v-5.67h-45.28Z"/></svg>