<svg width="552" height="1096" viewBox="0 0 552 1096" fill="none" xmlns="http://www.w3.org/2000/svg">
<rect x="0.5" y="0.5" width="551" height="1095" rx="4.5" stroke="#9747FF" stroke-dasharray="10 5"/>
<path d="M190.687 35.0058H342.192L184.914 501.002C181.6 510.821 172.393 517.434 162.03 517.434H44.1212C36.3526 517.434 29.0593 513.694 24.528 507.383C19.9967 501.073 18.7823 492.967 21.2656 485.606L167.796 51.4376C171.109 41.6148 180.32 35 190.687 35V35.0058Z" fill="url(#paint0_linear_334_434)"/>
<path d="M410.846 347.565H170.595C166.024 347.56 161.915 350.353 160.238 354.605C158.561 358.857 159.658 363.702 163.001 366.819L317.381 510.911C321.876 515.104 327.794 517.434 333.941 517.434H469.98L410.846 347.565Z" fill="#0078D4"/>
<path d="M190.687 35.0056C180.196 34.9656 170.9 41.7535 167.744 51.7576L21.446 485.21C18.7947 492.6 19.9113 500.819 24.4381 507.234C28.9649 513.649 36.3339 517.455 44.1852 517.434H165.137C174.308 515.795 181.888 509.349 184.978 500.56L214.153 414.578L318.365 511.778C322.732 515.39 328.21 517.388 333.877 517.434H469.41L409.967 347.565L236.683 347.606L342.739 35.0056H190.687Z" fill="url(#paint1_linear_334_434)"/>
<path d="M384.196 51.4143C380.888 41.6073 371.691 35.0058 361.341 35.0058H192.49C202.84 35.0058 212.036 41.6084 215.346 51.4143L361.882 485.6C364.367 492.962 363.154 501.071 358.623 507.383C354.091 513.696 346.797 517.44 339.026 517.44H507.883C515.652 517.44 522.945 513.693 527.475 507.381C532.005 501.069 533.218 492.961 530.733 485.6L384.196 51.4143Z" fill="url(#paint2_linear_334_434)"/>
<path d="M190.687 579.006L361.341 579.006C371.691 579.006 380.888 585.607 384.196 595.414L530.733 1029.6C533.218 1036.96 532.005 1045.07 527.475 1051.38C522.945 1057.69 515.652 1061.44 507.883 1061.44H339.026C339.204 1061.44 339.381 1061.44 339.557 1061.43H333.941C327.794 1061.43 321.876 1059.1 317.381 1054.91L214.104 958.516L236.701 891.565H315.296L275.999 775.129L236.701 891.565H170.595C166.024 891.56 161.915 894.353 160.238 898.605C158.561 902.857 159.658 907.702 163.001 910.819L214.104 958.516L184.914 1045C181.6 1054.82 172.393 1061.43 162.03 1061.43H44.1212C36.3526 1061.43 29.0593 1057.69 24.528 1051.38C19.9967 1045.07 18.7823 1036.97 21.2656 1029.61L167.796 595.438C171.109 585.615 180.32 579 190.687 579V579.006Z" fill="url(#paint3_linear_334_434)"/>
<defs>
<linearGradient id="paint0_linear_334_434" x1="210.002" y1="70.7554" x2="61.6212" y2="509.111" gradientUnits="userSpaceOnUse">
<stop stop-color="#114A8B"/>
<stop offset="1" stop-color="#0669BC"/>
</linearGradient>
<linearGradient id="paint1_linear_334_434" x1="288.395" y1="287.377" x2="256.321" y2="298.222" gradientUnits="userSpaceOnUse">
<stop stop-opacity="0.3"/>
<stop offset="0.071" stop-opacity="0.2"/>
<stop offset="0.321" stop-opacity="0.1"/>
<stop offset="0.623" stop-opacity="0.05"/>
<stop offset="1" stop-opacity="0"/>
</linearGradient>
<linearGradient id="paint2_linear_334_434" x1="319.056" y1="57.1981" x2="481.005" y2="488.66" gradientUnits="userSpaceOnUse">
<stop stop-color="#3CCBF4"/>
<stop offset="1" stop-color="#2892DF"/>
</linearGradient>
<linearGradient id="paint3_linear_334_434" x1="319.056" y1="601.198" x2="481.005" y2="1032.66" gradientUnits="userSpaceOnUse">
<stop stop-color="#3CCBF4"/>
<stop offset="1" stop-color="#2892DF"/>
</linearGradient>
</defs>
</svg>
