<svg width="552" height="552" viewBox="0 0 552 552" fill="none" xmlns="http://www.w3.org/2000/svg">
<rect x="0.5" y="0.5" width="551" height="551" rx="4.5" stroke="#9747FF" stroke-dasharray="10 5"/>
<path d="M276.001 290.705V340.191C359.875 340.191 425.181 259.162 397.744 171.271C385.754 132.862 355.234 102.342 316.825 90.352C228.934 62.9148 147.904 128.222 147.904 212.097H197.502C197.51 212.097 197.515 212.084 197.515 212.084C197.523 159.446 249.615 118.751 304.956 138.832C325.458 146.272 341.812 162.623 349.257 183.124C369.341 238.432 328.707 290.504 276.114 290.579V241.254C276.114 241.254 276.11 241.251 276.105 241.251H226.659C226.655 241.251 226.651 241.258 226.651 241.258V290.705H276.001ZM226.642 328.711H188.65L188.641 328.702V290.705H226.651V328.702C226.651 328.702 226.646 328.711 226.642 328.711ZM188.667 290.705H156.819C156.806 290.705 156.795 290.697 156.795 290.697V258.862C156.795 258.862 156.806 258.839 156.819 258.839H188.644C188.657 258.839 188.667 258.849 188.667 258.849V290.705Z" fill="#0080FF"/>
<path d="M64.2601 390.388C57.8119 385.914 49.7876 383.646 40.4109 383.646H20V448.403H40.4109C49.7643 448.403 57.7915 446.009 64.2673 441.292C67.7914 438.791 70.5601 435.296 72.4979 430.907C74.4256 426.542 75.4032 421.393 75.4032 415.604C75.4032 409.882 74.4256 404.799 72.4965 400.495C70.5601 396.171 67.7885 392.77 64.2601 390.388ZM31.9217 394.592H38.3278C45.4558 394.592 51.323 395.993 55.7724 398.764C60.7113 401.741 63.2171 407.407 63.2171 415.604C63.2171 424.046 60.7055 429.967 55.755 433.208H55.7506C51.49 436.026 45.6577 437.456 38.4164 437.456H31.9217V394.592ZM83.763 448.403H95.2402V402.793H83.763V448.403ZM89.6113 382.849C87.6503 382.849 85.9594 383.544 84.5983 384.907C83.2212 386.219 82.5225 387.882 82.5225 389.85C82.5225 391.811 83.2169 393.501 84.5896 394.872C85.9594 396.245 87.6503 396.94 89.6113 396.94C91.5724 396.94 93.2618 396.245 94.6345 394.872C96.0087 393.499 96.703 391.81 96.703 389.85C96.703 387.885 96.0043 386.222 94.6345 384.916C93.2618 383.544 91.5724 382.849 89.6113 382.849ZM136.919 406.603C133.459 403.525 129.595 401.73 125.416 401.73C119.081 401.73 113.815 403.922 109.767 408.239C105.667 412.523 103.587 418.035 103.587 424.623C103.587 431.061 105.634 436.555 109.679 440.961C113.757 445.223 119.052 447.383 125.416 447.383C129.84 447.383 133.643 446.151 136.743 443.718V444.768C136.743 448.552 135.729 451.497 133.732 453.519C131.736 455.538 128.967 456.561 125.506 456.561C120.208 456.561 116.887 454.479 112.845 449.016L105.029 456.524L105.24 456.821C106.928 459.19 109.514 461.508 112.926 463.712C116.34 465.905 120.631 467.021 125.681 467.021C132.496 467.021 138.007 464.92 142.066 460.779C146.148 456.616 148.218 451.041 148.218 444.215V402.793H136.919V406.603ZM133.909 433.541C131.903 435.819 129.328 436.923 126.036 436.923C122.746 436.923 120.185 435.819 118.208 433.544C116.241 431.279 115.241 428.278 115.241 424.623C115.241 420.909 116.241 417.87 118.209 415.589C120.159 413.333 122.792 412.189 126.036 412.189C129.325 412.189 131.902 413.301 133.908 415.595C135.907 417.874 136.919 420.912 136.919 424.623C136.919 428.277 135.907 431.278 133.909 433.541ZM158.04 448.403H169.517V402.793H158.04V448.403ZM163.89 382.849C161.927 382.849 160.237 383.544 158.875 384.907C157.498 386.219 156.8 387.882 156.8 389.85C156.8 391.811 157.494 393.501 158.867 394.872C160.237 396.245 161.927 396.94 163.89 396.94C165.85 396.94 167.539 396.245 168.913 394.872C170.286 393.499 170.98 391.81 170.98 389.85C170.98 387.885 170.281 386.222 168.913 384.916C167.539 383.544 165.85 382.849 163.89 382.849ZM194.673 390.47H183.374V402.793H176.812V413.253H183.374V432.199C183.374 438.127 184.558 442.368 186.895 444.804C189.238 447.252 193.399 448.493 199.261 448.493C201.127 448.493 203.003 448.43 204.838 448.311L205.355 448.276V437.825L201.42 438.031C198.688 438.031 196.863 437.55 195.996 436.606C195.117 435.646 194.673 433.615 194.673 430.572V413.253H205.355V402.793H194.673V390.47ZM244.745 406.205H244.743C241.266 403.236 236.457 401.73 230.455 401.73C226.636 401.73 223.066 402.568 219.835 404.206C216.847 405.722 213.913 408.232 212.047 411.516L212.164 411.656L219.512 418.691C222.54 413.865 225.905 412.189 230.368 412.189C232.766 412.189 234.756 412.832 236.286 414.1C237.807 415.36 238.548 416.962 238.548 418.993V421.208C235.702 420.342 232.864 419.904 230.102 419.904C224.39 419.904 219.743 421.247 216.291 423.897C212.794 426.58 211.022 430.418 211.022 435.306C211.022 439.591 212.517 443.072 215.474 445.66C218.458 448.156 222.185 449.424 226.556 449.424C230.926 449.424 235.013 447.662 238.725 444.648V448.403H250.025V419.083C250.025 413.531 248.248 409.199 244.745 406.205ZM224.367 430.974C225.669 430.066 227.508 429.609 229.835 429.609C232.598 429.609 235.528 430.163 238.548 431.259V435.733C236.053 438.051 232.721 439.228 228.641 439.228C226.654 439.228 225.109 438.786 224.048 437.913C223.006 437.059 222.499 435.973 222.499 434.595C222.499 433.031 223.111 431.846 224.367 430.974ZM259.169 448.403H270.646V383.646H259.169V448.403ZM312.287 449.379C293.88 449.379 278.905 434.404 278.905 415.995C278.905 397.587 293.88 382.612 312.287 382.612C330.695 382.612 345.67 397.587 345.67 415.995C345.67 434.404 330.695 449.379 312.287 449.379ZM312.287 394.377C300.367 394.377 290.669 404.074 290.669 415.995C290.669 427.916 300.367 437.613 312.287 437.613C324.208 437.613 333.905 427.916 333.905 415.995C333.905 404.074 324.208 394.377 312.287 394.377ZM386.594 432.094C384.541 434.395 382.44 436.389 380.822 437.427V437.428C379.236 438.446 377.233 438.963 374.871 438.963C371.489 438.963 368.77 437.732 366.555 435.195C364.352 432.672 363.235 429.43 363.235 425.553C363.235 421.677 364.338 418.439 366.512 415.935C368.699 413.413 371.403 412.189 374.782 412.189C378.479 412.189 382.377 414.487 385.716 418.436L393.302 411.162C388.356 404.725 382.047 401.73 374.518 401.73C368.215 401.73 362.753 404.025 358.283 408.55C353.835 413.041 351.581 418.763 351.581 425.553C351.581 432.344 353.834 438.079 358.276 442.601C362.723 447.127 368.187 449.424 374.518 449.424C382.827 449.424 389.534 445.836 394.056 439.264L386.594 432.094ZM433.698 409.166C432.071 406.897 429.854 405.072 427.109 403.737C424.371 402.405 421.179 401.73 417.625 401.73C411.218 401.73 405.976 404.093 402.039 408.759C398.219 413.389 396.284 419.142 396.284 425.864C396.284 432.775 398.408 438.497 402.599 442.868C406.765 447.217 412.343 449.424 419.176 449.424C426.916 449.424 433.266 446.293 438.051 440.12L438.31 439.787L430.823 432.592C430.129 433.429 429.145 434.379 428.248 435.224C427.115 436.294 426.05 437.122 424.911 437.688C423.195 438.542 421.272 438.963 419.119 438.963C415.94 438.963 413.306 438.028 411.293 436.183C409.41 434.457 408.309 432.13 408.017 429.256H438.423L438.526 425.066C438.526 422.101 438.123 419.246 437.327 416.576C436.53 413.901 435.309 411.407 433.698 409.166ZM408.614 419.904C409.166 417.722 410.171 415.904 411.611 414.494C413.166 412.963 415.19 412.189 417.627 412.189C420.409 412.189 422.563 412.979 424.028 414.545C425.386 415.992 426.151 417.793 426.311 419.904H408.614ZM477.773 406.205H477.772C474.294 403.236 469.486 401.73 463.484 401.73C459.665 401.73 456.094 402.568 452.864 404.206C449.874 405.722 446.94 408.232 445.076 411.516L445.192 411.656L452.541 418.691C455.569 413.865 458.934 412.189 463.397 412.189C465.795 412.189 467.785 412.832 469.315 414.1C470.836 415.36 471.577 416.962 471.577 418.993V421.208C468.729 420.342 465.892 419.904 463.13 419.904C457.419 419.904 452.771 421.247 449.319 423.897C445.823 426.58 444.051 430.418 444.051 435.306C444.051 439.591 445.546 443.072 448.503 445.66C451.485 448.156 455.214 449.424 459.585 449.424C463.955 449.424 468.042 447.662 471.752 444.648V448.403H483.054V419.083C483.054 413.531 481.277 409.199 477.773 406.205ZM457.396 430.974C458.698 430.066 460.537 429.609 462.864 429.609C465.627 429.609 468.557 430.163 471.577 431.259V435.733C469.081 438.051 465.75 439.228 461.668 439.228C459.682 439.228 458.138 438.786 457.076 437.913C456.035 437.059 455.528 435.973 455.528 434.595C455.528 433.031 456.139 431.846 457.396 430.974ZM527.205 407.1C524.008 403.538 519.516 401.73 513.851 401.73C509.298 401.73 505.6 403.037 502.834 405.617V402.793H491.579V448.403H503.056V423.249C503.056 419.793 503.879 417.049 505.5 415.091C507.118 413.139 509.342 412.189 512.299 412.189C514.9 412.189 516.869 413.037 518.324 414.782C519.783 416.535 520.523 418.949 520.523 421.965V448.403H532V421.965C532 415.647 530.388 410.647 527.205 407.1Z" fill="#0080FF"/>
</svg>
