<svg width="552" height="552" viewBox="0 0 552 552" fill="none" xmlns="http://www.w3.org/2000/svg">
<rect x="0.5" y="0.5" width="551" height="551" rx="4.5" stroke="#9747FF" stroke-dasharray="10 5"/>
<path d="M173.364 256.108L152.283 116.171L66.8672 63.4681L92.3105 195.045L173.364 256.108ZM193.355 406.584L179.906 307.356L103.941 244.477L123.568 342.614L193.355 406.584ZM133.019 384.414L146.468 458.924L211.166 526.167L202.078 450.2L133.019 384.414ZM326.022 361.514L292.765 336.798C292.765 336.798 292.291 345.648 291.402 346.249L267.14 363.332L293.672 385.139L295.218 409.947L326.748 435.662L326.022 361.514ZM426.521 289.002L420.523 358.879L398.171 344.159C398.171 344.159 400.634 308.829 400.624 308.811C400.494 308.574 357.552 279.733 357.552 279.733L358.915 247.566L426.521 289.002Z" fill="#004711"/>
<path d="M284.95 198.316L278.771 68.1937L152.284 116.171L173.364 256.108L284.95 198.316ZM290.766 345.885L285.677 246.657L179.907 307.357L195.536 409.128L290.766 345.885ZM292.582 386.23L202.078 450.2L213.347 528.347L295.853 462.558L292.582 386.23ZM327.476 361.15L328.929 436.753L394.354 383.687L397.625 311.718L327.476 361.15ZM483.314 251.654L474.772 317.988L423.614 359.06L429.702 289.366L483.314 251.654Z" fill="#00B159"/>
<path d="M295.98 384.963C295.977 384.899 295.953 384.841 295.947 384.779C295.93 384.613 295.902 384.451 295.858 384.291C295.833 384.196 295.803 384.104 295.768 384.012C295.712 383.862 295.641 383.719 295.56 383.578C295.513 383.497 295.468 383.413 295.413 383.335C295.315 383.195 295.199 383.068 295.076 382.945C295.018 382.886 294.966 382.821 294.903 382.766C294.886 382.751 294.873 382.733 294.856 382.718L270.652 362.962L292.908 347.967C293.797 347.367 294.307 346.356 294.259 345.293L294.034 340.014L323.543 362.539L324.117 430.939L296.969 408.084L295.98 384.963ZM177.17 308.314L190.856 401.841L125.995 340.738L107.215 250.03L177.17 308.314ZM288.054 343.836L197.499 404.842L183.377 308.334L284.096 251.006L288.054 343.836ZM276.408 71.203L281.794 197.125L175.23 252.577L155.468 117.675L276.408 71.203ZM149.243 117.541L168.672 250.17L95.4025 193.067L69.5055 67.9605L149.243 117.541ZM150.372 458.432L136.528 391.538L198.24 452.231L208.124 519.73L150.372 458.432ZM293.081 460.866L214.838 523.2L204.431 452.172L290.089 390.887L293.081 460.866ZM391.305 382.554L330.257 431.246L329.687 362.582L395.376 315.597L391.305 382.554ZM399.827 343.56L401.895 309.542C401.897 309.504 401.885 309.469 401.885 309.43C401.887 309.385 401.9 309.343 401.898 309.298C401.897 309.163 401.862 309.033 401.842 308.901C401.827 308.806 401.825 308.711 401.802 308.618C401.741 308.381 401.655 308.152 401.541 307.936C401.531 307.917 401.528 307.896 401.518 307.877C401.388 307.64 401.221 307.427 401.033 307.23C400.994 307.19 400.948 307.16 400.908 307.123C400.784 307.007 400.664 306.888 400.521 306.791L359.397 279.632L359.995 249.828L424.715 290.157L418.942 356.864L399.827 343.56ZM425.215 355.563L430.868 290.22L481.946 253.665L473.361 317.185L425.215 355.563ZM489.002 246.851C488.998 246.793 488.977 246.739 488.97 246.681C488.957 246.571 488.933 246.466 488.908 246.357C488.87 246.187 488.82 246.024 488.755 245.864C488.715 245.768 488.673 245.677 488.625 245.585C488.538 245.425 488.436 245.278 488.323 245.136C488.263 245.06 488.208 244.983 488.139 244.913C487.999 244.766 487.837 244.641 487.667 244.524C487.614 244.488 487.576 244.436 487.519 244.402C487.507 244.394 487.491 244.392 487.477 244.384C487.459 244.374 487.445 244.357 487.425 244.347L417.521 205.612C416.558 205.082 415.377 205.102 414.435 205.684L355.432 241.754C355.337 241.81 355.262 241.892 355.175 241.959C355.07 242.039 354.961 242.112 354.868 242.206C354.77 242.304 354.691 242.418 354.608 242.529C354.534 242.626 354.451 242.716 354.391 242.821C354.314 242.95 354.266 243.091 354.209 243.23C354.167 243.335 354.112 243.432 354.082 243.542C354.041 243.692 354.029 243.849 354.011 244.005C353.999 244.107 353.967 244.202 353.964 244.306L353.337 275.629L329.335 259.778C328.34 259.116 327.059 259.096 326.039 259.716L291.508 280.826L290.012 245.72C290.009 245.647 289.982 245.58 289.975 245.507C289.955 245.353 289.935 245.2 289.895 245.051C289.865 244.941 289.82 244.838 289.779 244.731C289.727 244.601 289.675 244.472 289.605 244.351C289.543 244.242 289.47 244.146 289.397 244.045C289.318 243.939 289.241 243.835 289.15 243.74C289.058 243.645 288.956 243.563 288.851 243.478C288.784 243.425 288.729 243.358 288.658 243.308L252.721 219.171L286.359 201.667C287.413 201.115 288.054 200.003 288.005 198.812L282.356 66.6711C282.349 66.5093 282.311 66.3542 282.279 66.1974C282.266 66.1324 282.264 66.064 282.246 66.0006C282.176 65.7354 282.071 65.4835 281.932 65.25C281.907 65.2066 281.872 65.1716 281.846 65.1316C281.724 64.9431 281.584 64.7696 281.424 64.6129C281.365 64.5561 281.302 64.5078 281.238 64.4561C281.15 64.3827 281.073 64.2993 280.977 64.2359C280.902 64.1858 280.816 64.1592 280.738 64.1158C280.698 64.0941 280.668 64.0607 280.626 64.0407L189.993 20.308C189.29 19.9678 188.489 19.9061 187.747 20.1396L64.1329 58.6432C64.1246 58.6465 64.1163 58.6532 64.1079 58.6565C64.0579 58.6715 64.0145 58.7065 63.9645 58.7249C63.7343 58.8133 63.5108 58.9117 63.3123 59.0501C63.3073 59.0535 63.3006 59.0551 63.2939 59.0585C63.2256 59.1069 63.1788 59.1752 63.1155 59.2286C62.9587 59.3571 62.8019 59.4855 62.6735 59.6439C62.5817 59.7574 62.52 59.8875 62.4449 60.0126C62.3699 60.136 62.2865 60.2511 62.2298 60.3845C62.1614 60.5447 62.1297 60.7148 62.0913 60.8849C62.0663 60.9883 62.0213 61.0817 62.0063 61.1868C62.0046 61.2018 62.0096 61.2168 62.0079 61.2319C61.9896 61.387 62.0079 61.5421 62.0146 61.7006C62.0196 61.844 62.0129 61.9874 62.038 62.1276C62.043 62.1509 62.038 62.1726 62.043 62.1959L89.6246 195.414C89.7747 196.126 90.1634 196.762 90.7438 197.21L128.178 226.388L101.114 239.275C101.065 239.298 101.027 239.335 100.98 239.36C100.939 239.383 100.893 239.388 100.853 239.412C100.793 239.449 100.755 239.502 100.698 239.542C100.543 239.65 100.4 239.769 100.268 239.902C100.193 239.977 100.12 240.051 100.053 240.132C99.921 240.296 99.816 240.473 99.7192 240.658C99.6842 240.726 99.6392 240.788 99.6091 240.86C99.5024 241.113 99.4223 241.382 99.3873 241.662C99.3856 241.674 99.3873 241.684 99.3873 241.695C99.3823 241.739 99.3906 241.782 99.3873 241.825C99.3689 242.077 99.3806 242.327 99.424 242.571C99.429 242.604 99.4223 242.636 99.429 242.668L120.179 342.928C120.307 343.549 120.621 344.109 121.079 344.541L147.136 369.084L129.87 379.645C129.646 379.782 129.448 379.951 129.269 380.134C129.221 380.182 129.186 380.237 129.142 380.289C128.992 380.466 128.865 380.654 128.759 380.86C128.724 380.928 128.69 380.993 128.66 381.063C128.545 381.33 128.455 381.61 128.418 381.907C128.385 382.202 128.41 382.494 128.46 382.781C128.467 382.813 128.458 382.845 128.465 382.878L144.541 460.529C144.656 461.081 144.921 461.591 145.313 462.007L210.334 531.036C210.433 531.139 210.546 531.221 210.655 531.309C210.695 531.341 210.728 531.378 210.77 531.408C210.973 531.555 211.188 531.676 211.417 531.768C211.427 531.773 211.435 531.781 211.447 531.785C211.465 531.793 211.487 531.79 211.507 531.797C211.849 531.923 212.208 532 212.573 532C212.876 532 213.177 531.938 213.472 531.847C213.54 531.827 213.605 531.803 213.672 531.776C213.749 531.746 213.831 531.731 213.907 531.693C214.032 531.633 214.126 531.536 214.238 531.461C214.318 531.41 214.409 531.385 214.484 531.324L298.125 464.69C298.892 464.075 299.319 463.136 299.279 462.16L297.324 416.408L325.268 439.926C325.316 439.968 325.38 439.983 325.432 440.021C325.59 440.138 325.742 440.261 325.922 440.348C325.982 440.375 326.044 440.386 326.104 440.411C326.18 440.441 326.254 440.465 326.331 440.488C326.631 440.583 326.934 440.648 327.243 440.648C327.543 440.648 327.84 440.587 328.135 440.496C328.204 440.475 328.27 440.453 328.339 440.426C328.409 440.4 328.481 440.386 328.549 440.355C328.704 440.281 328.829 440.175 328.966 440.079C329.026 440.038 329.096 440.021 329.153 439.976L396.2 386.507C396.883 385.957 397.296 385.156 397.35 384.286L399.39 350.734L419.791 364.934C419.832 364.962 419.881 364.972 419.922 364.999C419.982 365.036 420.027 365.089 420.089 365.122C420.209 365.186 420.338 365.217 420.461 365.264C420.546 365.296 420.626 365.334 420.715 365.359C420.985 365.434 421.262 365.483 421.539 365.483C421.841 365.483 422.141 365.422 422.434 365.332C422.503 365.312 422.568 365.291 422.635 365.266C422.703 365.239 422.775 365.226 422.843 365.196C423.01 365.116 423.153 365.004 423.3 364.899C423.348 364.865 423.407 364.852 423.454 364.815L478.148 321.224C478.767 320.731 479.171 320.013 479.277 319.231L488.98 247.44C488.99 247.363 488.972 247.29 488.977 247.213C488.983 247.091 489.008 246.974 489.002 246.851Z" fill="black"/>
</svg>
