<svg width="552" height="1096" viewBox="0 0 552 1096" fill="none" xmlns="http://www.w3.org/2000/svg">
<rect x="0.5" y="0.5" width="551" height="1095" rx="4.5" stroke="#9747FF" stroke-dasharray="10 5"/>
<path d="M164.287 234.197C164.287 240.497 164.968 245.606 166.16 249.352C167.522 253.098 169.225 257.185 171.609 261.613C172.46 262.975 172.801 264.337 172.801 265.529C172.801 267.232 171.779 268.935 169.566 270.638L158.838 277.79C157.305 278.812 155.772 279.322 154.41 279.322C152.707 279.322 151.004 278.471 149.302 276.938C146.918 274.384 144.874 271.66 143.171 268.935C141.468 266.04 139.766 262.805 137.892 258.888C124.61 274.554 107.922 282.388 87.8284 282.388C73.5243 282.388 62.1152 278.301 53.7712 270.127C45.4272 261.953 41.17 251.055 41.17 237.432C41.17 222.958 46.2786 211.208 56.6661 202.353C67.0535 193.498 80.8466 189.071 98.3861 189.071C104.176 189.071 110.136 189.582 116.436 190.433C122.737 191.285 129.208 192.647 136.019 194.179V181.749C136.019 168.807 133.295 159.782 128.016 154.503C122.567 149.224 113.371 146.67 100.259 146.67C94.2992 146.67 88.1689 147.351 81.8684 148.883C75.5678 150.416 69.4375 152.289 63.4775 154.673C60.7529 155.865 58.7095 156.546 57.5175 156.887C56.3255 157.227 55.4741 157.398 54.7929 157.398C52.4089 157.398 51.2169 155.695 51.2169 152.119V143.775C51.2169 141.05 51.5575 139.007 52.4089 137.815C53.2603 136.623 54.7929 135.431 57.1769 134.239C63.1369 131.174 70.2889 128.619 78.6329 126.576C86.9769 124.362 95.8318 123.341 105.198 123.341C125.462 123.341 140.276 127.938 149.812 137.134C159.178 146.329 163.946 160.293 163.946 179.024V234.197H164.287ZM95.1506 260.08C100.77 260.08 106.56 259.058 112.69 257.015C118.82 254.971 124.27 251.225 128.867 246.117C131.592 242.881 133.635 239.305 134.657 235.218C135.679 231.132 136.36 226.193 136.36 220.403V213.251C131.422 212.059 126.143 211.038 120.694 210.357C115.244 209.675 109.966 209.335 104.687 209.335C93.2775 209.335 84.9335 211.549 79.3141 216.146C73.6946 220.744 70.9701 227.215 70.9701 235.729C70.9701 243.733 73.0135 249.693 77.2706 253.779C81.3575 258.037 87.3175 260.08 95.1506 260.08ZM231.89 278.471C228.825 278.471 226.782 277.96 225.419 276.768C224.057 275.746 222.865 273.362 221.843 270.127L181.826 138.496C180.804 135.09 180.294 132.877 180.294 131.685C180.294 128.96 181.656 127.427 184.38 127.427H201.068C204.304 127.427 206.518 127.938 207.71 129.13C209.072 130.152 210.094 132.536 211.115 135.771L239.723 248.501L266.288 135.771C267.139 132.366 268.161 130.152 269.523 129.13C270.886 128.109 273.27 127.427 276.335 127.427H289.958C293.193 127.427 295.407 127.938 296.769 129.13C298.131 130.152 299.323 132.536 300.005 135.771L326.91 249.863L356.369 135.771C357.391 132.366 358.583 130.152 359.775 129.13C361.137 128.109 363.351 127.427 366.416 127.427H382.253C384.977 127.427 386.51 128.79 386.51 131.685C386.51 132.536 386.339 133.387 386.169 134.409C385.999 135.431 385.658 136.793 384.977 138.666L343.938 270.297C342.917 273.703 341.725 275.917 340.362 276.938C339 277.96 336.786 278.641 333.891 278.641H319.247C316.011 278.641 313.798 278.13 312.435 276.938C311.073 275.746 309.881 273.533 309.2 270.127L282.806 160.293L256.582 269.957C255.73 273.362 254.708 275.576 253.346 276.768C251.984 277.96 249.6 278.471 246.535 278.471H231.89ZM450.707 283.069C441.853 283.069 432.998 282.047 424.483 280.004C415.969 277.96 409.328 275.746 404.901 273.192C402.176 271.66 400.303 269.957 399.622 268.424C398.941 266.892 398.6 265.189 398.6 263.656V254.972C398.6 251.396 399.962 249.693 402.517 249.693C403.538 249.693 404.56 249.863 405.582 250.204C406.603 250.544 408.136 251.225 409.839 251.906C415.629 254.461 421.929 256.504 428.57 257.866C435.382 259.229 442.023 259.91 448.834 259.91C459.562 259.91 467.906 258.037 473.696 254.29C479.486 250.544 482.551 245.095 482.551 238.113C482.551 233.345 481.018 229.429 477.953 226.193C474.888 222.958 469.098 220.063 460.754 217.338L436.063 209.675C423.632 205.759 414.437 199.969 408.817 192.306C403.198 184.814 400.303 176.47 400.303 167.615C400.303 160.463 401.835 154.162 404.901 148.713C407.966 143.264 412.053 138.496 417.161 134.75C422.27 130.833 428.059 127.938 434.871 125.895C441.682 123.851 448.834 123 456.327 123C460.073 123 463.99 123.17 467.736 123.681C471.653 124.192 475.229 124.873 478.805 125.554C482.21 126.406 485.446 127.257 488.511 128.279C491.576 129.301 493.96 130.322 495.663 131.344C498.047 132.706 499.75 134.069 500.771 135.601C501.793 136.963 502.304 138.837 502.304 141.221V149.224C502.304 152.8 500.942 154.673 498.388 154.673C497.025 154.673 494.811 153.992 491.917 152.63C482.21 148.202 471.312 145.989 459.222 145.989C449.515 145.989 441.853 147.521 436.574 150.757C431.295 153.992 428.57 158.93 428.57 165.912C428.57 170.68 430.273 174.767 433.679 178.002C437.085 181.238 443.385 184.473 452.41 187.368L476.591 195.031C488.851 198.947 497.706 204.397 502.985 211.378C508.264 218.36 510.818 226.364 510.818 235.218C510.818 242.541 509.286 249.182 506.391 254.972C503.326 260.761 499.239 265.87 493.96 269.957C488.681 274.214 482.381 277.279 475.058 279.493C467.395 281.877 459.392 283.069 450.707 283.069Z" fill="#252F3E"/>
<path d="M482.891 365.828C426.867 407.207 345.471 429.174 275.483 429.174C177.399 429.174 89.0203 392.903 22.2682 332.622C16.9894 327.854 21.7574 321.383 28.058 325.129C100.259 367.02 189.319 392.392 281.443 392.392C343.598 392.392 411.882 379.45 474.718 352.886C484.083 348.629 492.087 359.016 482.891 365.828ZM506.221 339.263C499.069 330.068 458.881 334.836 440.66 337.049C435.211 337.73 434.36 332.962 439.298 329.386C471.312 306.909 523.93 313.38 530.061 320.872C536.191 328.535 528.358 381.153 498.387 406.356C493.79 410.272 489.362 408.229 491.406 403.12C498.217 386.262 513.373 348.288 506.221 339.263Z" fill="#FF9900"/>
<path fill-rule="evenodd" clip-rule="evenodd" d="M166.16 793.352C164.968 789.606 164.287 784.497 164.287 778.197H163.946V723.024C163.946 704.293 159.178 690.329 149.812 681.134C140.276 671.938 125.462 667.341 105.198 667.341C95.8318 667.341 86.9769 668.362 78.6329 670.576C70.2889 672.619 63.1369 675.174 57.1769 678.239C54.7929 679.431 53.2603 680.623 52.4089 681.815C51.5575 683.007 51.2169 685.05 51.2169 687.775V696.119C51.2169 699.695 52.4089 701.398 54.7929 701.398C55.4741 701.398 56.3255 701.227 57.5175 700.887C58.7095 700.546 60.7529 699.865 63.4775 698.673C69.4375 696.289 75.5678 694.416 81.8684 692.883C88.1689 691.351 94.2992 690.67 100.259 690.67C113.371 690.67 122.567 693.224 128.016 698.503C133.295 703.782 136.019 712.807 136.019 725.749V738.179C129.208 736.647 122.737 735.285 116.436 734.433C110.136 733.582 104.176 733.071 98.3861 733.071C80.8466 733.071 67.0535 737.498 56.666 746.353C46.2786 755.208 41.17 766.958 41.17 781.432C41.17 795.055 45.4272 805.953 53.7712 814.127C62.1152 822.301 73.5243 826.388 87.8284 826.388C107.922 826.388 124.61 818.554 137.892 802.888C139.766 806.805 141.468 810.04 143.171 812.935C144.874 815.66 146.918 818.384 149.302 820.938C151.004 822.471 152.707 823.322 154.41 823.322C155.772 823.322 157.305 822.812 158.838 821.79L169.566 814.638C171.779 812.935 172.801 811.232 172.801 809.529C172.801 808.337 172.46 806.975 171.609 805.613C169.225 801.185 167.522 797.098 166.16 793.352ZM112.69 801.015C106.56 803.058 100.77 804.08 95.1506 804.08C87.3175 804.08 81.3575 802.037 77.2706 797.779C73.0135 793.693 70.9701 787.733 70.9701 779.729C70.9701 771.215 73.6946 764.744 79.3141 760.146C84.9335 755.549 93.2775 753.335 104.687 753.335C109.966 753.335 115.244 753.675 120.694 754.357C126.143 755.038 131.422 756.059 136.36 757.251V764.403C136.36 770.193 135.679 775.132 134.657 779.218C133.635 783.305 131.592 786.881 128.867 790.117C124.27 795.225 118.82 798.971 112.69 801.015Z" fill="#FF9900"/>
<path d="M225.419 820.768C226.782 821.96 228.825 822.471 231.89 822.471H246.535C249.6 822.471 251.984 821.96 253.346 820.768C254.708 819.576 255.73 817.362 256.582 813.957L282.806 704.293L309.2 814.127C309.881 817.533 311.073 819.746 312.435 820.938C313.798 822.13 316.011 822.641 319.247 822.641H333.891C336.786 822.641 339 821.96 340.362 820.938C341.725 819.917 342.917 817.703 343.938 814.297L384.977 682.666C385.658 680.793 385.999 679.431 386.169 678.409C386.194 678.26 386.219 678.115 386.243 677.972C386.385 677.139 386.51 676.412 386.51 675.685C386.51 672.79 384.977 671.427 382.253 671.427H366.416C363.351 671.427 361.137 672.109 359.775 673.13C358.583 674.152 357.391 676.366 356.369 679.771L326.91 793.863L300.005 679.771C299.323 676.536 298.131 674.152 296.769 673.13C295.407 671.938 293.193 671.427 289.958 671.427H276.335C273.27 671.427 270.886 672.109 269.523 673.13C268.161 674.152 267.139 676.366 266.288 679.771L239.723 792.501L211.115 679.771C210.094 676.536 209.072 674.152 207.71 673.13C206.518 671.938 204.304 671.427 201.068 671.427H184.38C181.656 671.427 180.294 672.96 180.294 675.685C180.294 676.877 180.804 679.09 181.826 682.496L221.843 814.127C222.865 817.362 224.057 819.746 225.419 820.768Z" fill="#FF9900"/>
<path d="M424.483 824.004C432.998 826.047 441.853 827.069 450.707 827.069C459.392 827.069 467.395 825.877 475.058 823.493C482.381 821.279 488.681 818.214 493.96 813.957C499.239 809.87 503.326 804.761 506.391 798.972C509.286 793.182 510.818 786.541 510.818 779.218C510.818 770.364 508.264 762.36 502.985 755.378C497.706 748.397 488.851 742.947 476.591 739.031L452.41 731.368C443.385 728.473 437.085 725.238 433.679 722.002C430.273 718.767 428.57 714.68 428.57 709.912C428.57 702.93 431.295 697.992 436.574 694.757C441.853 691.521 449.515 689.989 459.222 689.989C471.312 689.989 482.21 692.202 491.917 696.63C494.811 697.992 497.025 698.673 498.388 698.673C500.942 698.673 502.304 696.8 502.304 693.224V685.221C502.304 682.837 501.793 680.963 500.771 679.601C499.75 678.069 498.047 676.706 495.663 675.344C493.96 674.322 491.576 673.301 488.511 672.279C485.446 671.257 482.21 670.406 478.805 669.554C475.229 668.873 471.653 668.192 467.736 667.681C463.99 667.17 460.073 667 456.327 667C448.834 667 441.682 667.851 434.871 669.895C428.059 671.938 422.27 674.833 417.161 678.75C412.053 682.496 407.966 687.264 404.901 692.713C401.835 698.162 400.303 704.463 400.303 711.615C400.303 720.47 403.198 728.814 408.817 736.306C414.437 743.969 423.632 749.759 436.063 753.675L460.754 761.338C469.098 764.063 474.888 766.958 477.953 770.193C481.018 773.429 482.551 777.345 482.551 782.113C482.551 789.095 479.486 794.544 473.696 798.29C467.906 802.037 459.562 803.91 448.834 803.91C442.023 803.91 435.382 803.229 428.57 801.866C421.929 800.504 415.629 798.461 409.839 795.906C409.236 795.665 408.654 795.424 408.108 795.198C407.114 794.785 406.241 794.423 405.582 794.204C404.56 793.863 403.538 793.693 402.517 793.693C399.962 793.693 398.6 795.396 398.6 798.972V807.656C398.6 809.189 398.941 810.892 399.622 812.424C400.303 813.957 402.176 815.66 404.901 817.192C409.328 819.746 415.969 821.96 424.483 824.004Z" fill="#FF9900"/>
<path d="M275.483 973.174C345.471 973.174 426.867 951.207 482.891 909.828C492.087 903.016 484.083 892.629 474.718 896.886C411.882 923.45 343.598 936.392 281.443 936.392C189.319 936.392 100.259 911.02 28.058 869.129C21.7574 865.383 16.9894 871.854 22.2682 876.622C89.0203 936.903 177.399 973.174 275.483 973.174Z" fill="#FF9900"/>
<path d="M440.66 881.049C458.881 878.836 499.069 874.068 506.221 883.263C513.373 892.288 498.217 930.262 491.406 947.12C489.362 952.229 493.79 954.272 498.387 950.356C528.358 925.153 536.191 872.535 530.061 864.872C523.93 857.38 471.312 850.909 439.298 873.386C434.36 876.962 435.211 881.73 440.66 881.049Z" fill="#FF9900"/>
</svg>
