<svg width="552" height="1096" viewBox="0 0 552 1096" fill="none" xmlns="http://www.w3.org/2000/svg">
<rect x="0.5" y="0.5" width="551" height="1095" rx="4.5" stroke="#9747FF" stroke-dasharray="10 5"/>
<path d="M281.081 286.644C281.081 292.342 279.181 297.177 275.383 300.976C270.375 305.983 262.259 308.746 252.417 308.573C245.338 308.401 238.258 306.674 234.287 304.257L236.877 290.098C241.193 292.515 248.618 294.932 254.144 294.932C258.806 294.932 261.741 292.86 261.741 289.407C261.741 286.299 259.497 284.227 253.971 281.464C245.165 277.147 240.848 271.622 240.848 265.06C240.848 252.282 251.899 243.476 268.303 243.476C276.937 243.476 282.635 245.548 285.743 247.62L283.153 261.607C280.735 259.707 274.347 257.117 267.44 257.117C262.605 257.117 259.497 259.189 259.497 262.47C259.497 264.887 261.914 266.959 266.922 269.549C273.656 273.003 281.081 278.01 281.081 286.644ZM531.974 299.767C532.319 295.45 529.211 291.997 524.894 291.997C520.577 291.997 516.779 295.45 516.433 299.767C516.088 303.739 518.851 307.537 523.513 307.537C527.83 307.537 531.628 304.084 531.974 299.767ZM530.938 299.767C530.592 303.393 527.312 306.501 523.513 306.501C519.887 306.501 517.297 303.566 517.642 299.94C517.987 296.314 521.268 293.206 525.067 293.206C528.52 293.206 531.11 296.141 530.938 299.767ZM525.585 300.803L526.794 304.429H525.585L524.376 300.976H522.65L521.959 304.429H520.75L522.477 295.278H525.412C526.794 295.278 527.83 296.314 527.83 297.522C528.002 298.731 527.139 300.285 525.585 300.803ZM525.585 296.314H523.513L522.822 299.767H524.722C525.758 299.767 526.621 298.904 526.794 297.868C526.966 297.177 526.448 296.314 525.585 296.314ZM491.914 294.242C499.684 294.242 506.418 292.342 513.671 288.198L510.735 303.739C501.929 308.228 491.568 308.746 487.597 308.746C470.33 308.746 460.66 299.249 460.66 282.5C460.66 272.83 464.286 263.161 470.33 256.081C476.891 248.311 486.734 243.821 496.921 243.821C509.872 243.821 518.678 251.419 518.678 262.643C518.678 267.823 516.951 272.14 513.671 275.42C507.454 281.464 492.086 284.917 478.273 282.155C477.409 289.752 483.28 294.242 491.914 294.242ZM479.999 269.895C490.878 270.068 496.921 268.859 499.684 266.269C502.619 263.333 501.583 257.29 494.504 257.29C486.561 257.29 481.381 263.851 479.999 269.895ZM407.477 272.485L400.743 307.365H383.13L385.375 295.278C382.957 302.703 376.914 308.746 366.726 308.746C354.467 308.746 348.941 297.868 348.941 286.989C348.941 274.557 353.776 262.297 361.891 254.182C368.798 247.275 377.605 243.649 387.447 243.649C404.887 243.821 410.585 255.563 407.477 272.485ZM390.382 264.542C390.21 260.225 387.792 257.808 383.821 257.808C375.187 257.808 367.59 272.83 367.59 283.191C367.59 289.752 370.007 293.724 374.151 293.724C380.885 293.724 386.756 286.644 388.656 276.456C389.519 273.003 390.555 267.305 390.382 264.542ZM123.431 272.485L116.697 307.365H99.084L101.329 295.278C98.9113 302.703 92.8678 308.746 82.6801 308.746C70.4204 308.746 64.8948 297.868 64.8948 286.989C64.8948 274.557 69.7297 262.297 77.8453 254.182C84.7522 247.275 93.5585 243.649 103.401 243.649C120.841 243.821 126.712 255.563 123.431 272.485ZM106.509 264.542C106.336 260.225 103.919 257.808 99.9473 257.808C91.3137 257.808 83.7161 272.83 83.7161 283.191C83.7161 289.752 86.1335 293.724 90.2777 293.724C97.0119 293.724 102.883 286.644 104.782 276.456C105.473 273.003 106.509 267.305 106.509 264.542ZM347.732 267.477C347.732 282.673 340.48 298.213 327.357 305.12C322.522 307.71 317.86 308.746 313.889 308.746C307.327 308.746 303.701 306.329 301.629 302.53L296.967 327.395H278.491L294.204 244.857H310.435L308.536 254.872C313.198 248.138 319.932 243.649 327.702 243.649C339.789 243.649 347.732 252.973 347.732 267.477ZM328.566 268.859C328.566 265.923 327.875 258.844 321.141 258.844C314.234 258.844 308.363 266.614 306.118 278.528C305.255 282.673 303.183 294.76 311.644 294.76C321.313 294.76 328.566 280.946 328.566 268.859ZM45.7282 258.671L48.3183 244.857H32.0871L20 308.573H38.476L43.4835 282.327C46.4189 266.787 55.2252 260.571 68.0029 262.643L71.6291 243.649C60.578 242.44 50.2177 248.656 45.7282 258.671ZM194.054 307.365L200.443 273.866L213.566 307.365H233.423L219.782 273.694L244.474 244.857H224.271L200.443 273.348L209.594 225H191.291L175.578 307.537H194.054V307.365ZM451.163 243.821C428.025 243.821 410.585 260.743 410.585 283.191C410.585 298.731 420.945 308.746 436.831 308.746C443.738 308.746 450.3 307.537 454.617 305.465L457.552 289.925C451.854 292.688 447.364 293.896 442.011 293.896C436.141 293.896 429.924 290.616 429.924 281.119C429.924 270.068 437.695 258.671 450.99 258.671C454.962 258.671 458.243 259.534 461.178 261.089L464.114 246.066C460.66 244.685 455.825 243.821 451.163 243.821ZM167.117 243.821C143.979 243.821 126.539 260.743 126.539 283.191C126.539 298.731 136.899 308.746 152.785 308.746C159.692 308.746 166.254 307.537 170.57 305.465L173.506 289.925C167.808 292.688 163.318 293.896 157.965 293.896C152.094 293.896 145.878 290.616 145.878 281.119C145.878 270.068 153.648 258.671 166.944 258.671C170.916 258.671 174.197 259.534 177.132 261.089L180.067 246.066C176.614 244.685 171.779 243.821 167.117 243.821Z" fill="black"/>
<path d="M281.081 830.644C281.081 836.342 279.181 841.177 275.383 844.976C270.375 849.983 262.259 852.746 252.417 852.573C245.338 852.401 238.258 850.674 234.287 848.257L236.877 834.098C241.193 836.515 248.618 838.932 254.144 838.932C258.806 838.932 261.741 836.86 261.741 833.407C261.741 830.299 259.497 828.227 253.971 825.464C245.165 821.147 240.848 815.622 240.848 809.06C240.848 796.282 251.899 787.476 268.303 787.476C276.937 787.476 282.635 789.548 285.743 791.62L283.153 805.607C280.735 803.707 274.347 801.117 267.44 801.117C262.605 801.117 259.497 803.189 259.497 806.47C259.497 808.887 261.914 810.959 266.922 813.549C273.656 817.003 281.081 822.01 281.081 830.644ZM531.974 843.767C532.319 839.45 529.211 835.997 524.894 835.997C520.577 835.997 516.779 839.45 516.433 843.767C516.088 847.739 518.851 851.537 523.513 851.537C527.83 851.537 531.628 848.084 531.974 843.767ZM530.938 843.767C530.592 847.393 527.312 850.501 523.513 850.501C519.887 850.501 517.297 847.566 517.642 843.94C517.987 840.314 521.268 837.206 525.067 837.206C528.52 837.206 531.11 840.141 530.938 843.767ZM525.585 844.803L526.794 848.429H525.585L524.376 844.976H522.65L521.959 848.429H520.75L522.477 839.278H525.412C526.794 839.278 527.83 840.314 527.83 841.522C528.002 842.731 527.139 844.285 525.585 844.803ZM525.585 840.314H523.513L522.822 843.767H524.722C525.758 843.767 526.621 842.904 526.794 841.868C526.966 841.177 526.448 840.314 525.585 840.314ZM491.914 838.242C499.684 838.242 506.418 836.342 513.671 832.198L510.735 847.739C501.929 852.228 491.568 852.746 487.597 852.746C470.33 852.746 460.66 843.249 460.66 826.5C460.66 816.83 464.286 807.161 470.33 800.081C476.891 792.311 486.734 787.821 496.921 787.821C509.872 787.821 518.678 795.419 518.678 806.643C518.678 811.823 516.951 816.14 513.671 819.42C507.454 825.464 492.086 828.917 478.273 826.155C477.409 833.752 483.28 838.242 491.914 838.242ZM479.999 813.895C490.878 814.068 496.921 812.859 499.684 810.269C502.619 807.333 501.583 801.29 494.504 801.29C486.561 801.29 481.381 807.851 479.999 813.895ZM407.477 816.485L400.743 851.365H383.13L385.375 839.278C382.957 846.703 376.914 852.746 366.726 852.746C354.467 852.746 348.941 841.868 348.941 830.989C348.941 818.557 353.776 806.297 361.891 798.182C368.798 791.275 377.605 787.649 387.447 787.649C404.887 787.821 410.585 799.563 407.477 816.485ZM390.382 808.542C390.21 804.225 387.792 801.808 383.821 801.808C375.187 801.808 367.59 816.83 367.59 827.191C367.59 833.752 370.007 837.724 374.151 837.724C380.885 837.724 386.756 830.644 388.656 820.456C389.519 817.003 390.555 811.305 390.382 808.542ZM123.431 816.485L116.697 851.365H99.084L101.329 839.278C98.9113 846.703 92.8678 852.746 82.6801 852.746C70.4204 852.746 64.8948 841.868 64.8948 830.989C64.8948 818.557 69.7297 806.297 77.8453 798.182C84.7522 791.275 93.5585 787.649 103.401 787.649C120.841 787.821 126.712 799.563 123.431 816.485ZM106.509 808.542C106.336 804.225 103.919 801.808 99.9473 801.808C91.3137 801.808 83.7161 816.83 83.7161 827.191C83.7161 833.752 86.1335 837.724 90.2777 837.724C97.0119 837.724 102.883 830.644 104.782 820.456C105.473 817.003 106.509 811.305 106.509 808.542ZM347.732 811.477C347.732 826.673 340.48 842.213 327.357 849.12C322.522 851.71 317.86 852.746 313.889 852.746C307.327 852.746 303.701 850.329 301.629 846.53L296.967 871.395H278.491L294.204 788.857H310.435L308.536 798.872C313.198 792.138 319.932 787.649 327.702 787.649C339.789 787.649 347.732 796.973 347.732 811.477ZM328.566 812.859C328.566 809.923 327.875 802.844 321.141 802.844C314.234 802.844 308.363 810.614 306.118 822.528C305.255 826.673 303.183 838.76 311.644 838.76C321.313 838.76 328.566 824.946 328.566 812.859ZM45.7282 802.671L48.3183 788.857H32.0871L20 852.573H38.476L43.4835 826.327C46.4189 810.787 55.2252 804.571 68.0029 806.643L71.6291 787.649C60.578 786.44 50.2177 792.656 45.7282 802.671ZM194.054 851.365L200.443 817.866L213.566 851.365H233.423L219.782 817.694L244.474 788.857H224.271L200.443 817.348L209.594 769H191.291L175.578 851.537H194.054V851.365ZM451.163 787.821C428.025 787.821 410.585 804.743 410.585 827.191C410.585 842.731 420.945 852.746 436.831 852.746C443.738 852.746 450.3 851.537 454.617 849.465L457.552 833.925C451.854 836.688 447.364 837.896 442.011 837.896C436.141 837.896 429.924 834.616 429.924 825.119C429.924 814.068 437.695 802.671 450.99 802.671C454.962 802.671 458.243 803.534 461.178 805.089L464.114 790.066C460.66 788.685 455.825 787.821 451.163 787.821ZM167.117 787.821C143.979 787.821 126.539 804.743 126.539 827.191C126.539 842.731 136.899 852.746 152.785 852.746C159.692 852.746 166.254 851.537 170.57 849.465L173.506 833.925C167.808 836.688 163.318 837.896 157.965 837.896C152.094 837.896 145.878 834.616 145.878 825.119C145.878 814.068 153.648 802.671 166.944 802.671C170.916 802.671 174.197 803.534 177.132 805.089L180.067 790.066C176.614 788.685 171.779 787.821 167.117 787.821Z" fill="black"/>
</svg>
