<svg width="512" height="512" viewBox="0 0 512 512" fill="none" xmlns="http://www.w3.org/2000/svg">
<mask id="path-1-inside-1_304_1880" fill="white">
<path fill-rule="evenodd" clip-rule="evenodd" d="M497.162 255.616H492.111C492.111 320.934 465.662 380.025 422.838 422.843C380.02 465.662 320.934 492.116 255.616 492.116C190.273 492.116 131.182 465.662 88.3636 422.843C45.5455 380.025 19.0909 320.934 19.0909 255.616C19.0909 190.298 45.5455 131.182 88.3636 88.3636C131.182 45.5707 190.273 19.0909 255.616 19.0909C320.934 19.0909 380.02 45.5707 422.838 88.3636C465.662 131.182 492.111 190.298 492.111 255.616H502.227C502.207 119.409 391.818 9 255.616 9C119.409 9 9 119.409 9 255.616C9 391.798 119.409 502.227 255.616 502.227C391.818 502.227 502.207 391.798 502.227 255.616H497.162Z"/>
</mask>
<path fill-rule="evenodd" clip-rule="evenodd" d="M497.162 255.616H492.111C492.111 320.934 465.662 380.025 422.838 422.843C380.02 465.662 320.934 492.116 255.616 492.116C190.273 492.116 131.182 465.662 88.3636 422.843C45.5455 380.025 19.0909 320.934 19.0909 255.616C19.0909 190.298 45.5455 131.182 88.3636 88.3636C131.182 45.5707 190.273 19.0909 255.616 19.0909C320.934 19.0909 380.02 45.5707 422.838 88.3636C465.662 131.182 492.111 190.298 492.111 255.616H502.227C502.207 119.409 391.818 9 255.616 9C119.409 9 9 119.409 9 255.616C9 391.798 119.409 502.227 255.616 502.227C391.818 502.227 502.207 391.798 502.227 255.616H497.162Z" fill="#84BF41"/>
<path d="M492.111 255.616V247.616H484.111V255.616H492.111ZM422.838 422.843L417.182 417.186L417.182 417.187L422.838 422.843ZM88.3636 88.3636L82.7085 82.7051L82.7068 82.7068L88.3636 88.3636ZM422.838 88.3636L428.495 82.7065L428.494 82.7051L422.838 88.3636ZM492.111 255.616H484.111V263.616H492.111V255.616ZM502.227 255.616V263.616H510.228L510.227 255.615L502.227 255.616ZM502.227 255.616L510.227 255.617L510.228 247.616H502.227V255.616ZM497.162 247.616H492.111V263.616H497.162V247.616ZM484.111 255.616C484.111 318.728 458.566 375.807 417.182 417.186L428.495 428.501C472.758 384.243 500.111 323.141 500.111 255.616H484.111ZM417.182 417.187C375.802 458.566 318.727 484.116 255.616 484.116V500.116C323.142 500.116 384.238 472.757 428.495 428.5L417.182 417.187ZM255.616 484.116C192.479 484.116 135.399 458.566 94.0205 417.187L82.7068 428.5C126.964 472.758 188.066 500.116 255.616 500.116V484.116ZM94.0205 417.187C52.6412 375.807 27.0909 318.727 27.0909 255.616H11.0909C11.0909 323.141 38.4497 384.243 82.7068 428.5L94.0205 417.187ZM27.0909 255.616C27.0909 192.504 52.6418 135.399 94.0205 94.0205L82.7068 82.7068C38.4491 126.965 11.0909 188.092 11.0909 255.616H27.0909ZM94.0188 94.0222C135.4 52.6654 192.481 27.0909 255.616 27.0909V11.0909C188.064 11.0909 126.964 38.476 82.7085 82.7051L94.0188 94.0222ZM255.616 27.0909C318.725 27.0909 375.802 52.665 417.183 94.0222L428.494 82.7051C384.239 38.4765 323.143 11.0909 255.616 11.0909V27.0909ZM417.182 94.0208C458.565 135.399 484.111 192.504 484.111 255.616H500.111C500.111 188.092 472.758 126.965 428.495 82.7065L417.182 94.0208ZM492.111 263.616H502.227V247.616H492.111V263.616ZM510.227 255.615C510.206 114.992 396.238 1 255.616 1V17C387.399 17 494.208 123.826 494.227 255.617L510.227 255.615ZM255.616 1C114.991 1 1 114.991 1 255.616H17C17 123.827 123.827 17 255.616 17V1ZM1 255.616C1 396.216 114.99 510.227 255.616 510.227V494.227C123.828 494.227 17 387.38 17 255.616H1ZM255.616 510.227C396.238 510.227 510.206 396.215 510.227 255.617L494.227 255.615C494.208 387.381 387.398 494.227 255.616 494.227V510.227ZM502.227 247.616H497.162V263.616H502.227V247.616Z" fill="#84BF41" mask="url(#path-1-inside-1_304_1880)"/>
<path d="M424.182 296.222C424.182 298.389 422.561 298.52 420.747 298.52H418.192V294.146H421.101C422.596 294.146 424.182 294.47 424.182 296.222Z" fill="#84BF41"/>
<path fill-rule="evenodd" clip-rule="evenodd" d="M430.692 299.363C430.692 305.257 426.318 309.596 420.778 309.596C415.177 309.596 410.803 305.257 410.803 299.363C410.803 293.566 415.177 289.192 420.778 289.192C426.318 289.192 430.692 293.566 430.692 299.363ZM416.051 306.454H418.192V300.333H420.652L424.374 306.454H426.773L422.758 300.237C424.828 299.975 426.414 298.879 426.414 296.348C426.414 293.566 424.768 292.333 421.424 292.333H416.051V306.454Z" fill="#84BF41"/>
<path d="M152.046 213.621L151.854 214.389L134.773 258.722H169.126L152.046 213.621Z" fill="#84BF41"/>
<path fill-rule="evenodd" clip-rule="evenodd" d="M255.616 474.389C376.455 474.389 474.409 376.454 474.409 255.616C474.409 134.752 376.455 36.7979 255.616 36.7979C134.773 36.7979 36.793 134.752 36.793 255.616C36.793 376.454 134.773 474.389 255.616 474.389ZM252.606 181.571H228.616V312.843H252.606V181.571ZM367 312.843L331.682 263.136L294.455 312.843H264.884L316.909 245.091L268.546 181.571H298.298L332.455 227.434L366.409 181.571H395.389L347.227 245.298L396.934 312.843H367ZM420.778 287.151C414.046 287.151 408.343 292.333 408.343 299.363C408.343 306.454 414.046 311.636 420.778 311.636C427.455 311.636 433.152 306.454 433.152 299.363C433.152 292.333 427.455 287.151 420.778 287.151ZM190.046 312.843L176.995 279.449H126.328L113.278 312.651L87.5607 312.843L141.874 181.571H164.712L216.914 312.843H190.046Z" fill="#84BF41"/>
<path d="M424.182 296.222C424.182 298.389 422.561 298.52 420.747 298.52H418.192V294.146H421.101C422.596 294.146 424.182 294.47 424.182 296.222Z" stroke="#84BF41"/>
<path fill-rule="evenodd" clip-rule="evenodd" d="M430.692 299.363C430.692 305.257 426.318 309.596 420.778 309.596C415.177 309.596 410.803 305.257 410.803 299.363C410.803 293.566 415.177 289.192 420.778 289.192C426.318 289.192 430.692 293.566 430.692 299.363ZM416.051 306.454H418.192V300.333H420.652L424.374 306.454H426.773L422.758 300.237C424.828 299.975 426.414 298.879 426.414 296.348C426.414 293.566 424.768 292.333 421.424 292.333H416.051V306.454Z" stroke="#84BF41"/>
<path d="M152.046 213.621L151.854 214.389L134.773 258.722H169.126L152.046 213.621Z" stroke="#84BF41"/>
<path fill-rule="evenodd" clip-rule="evenodd" d="M255.616 474.389C376.455 474.389 474.409 376.454 474.409 255.616C474.409 134.752 376.455 36.7979 255.616 36.7979C134.773 36.7979 36.793 134.752 36.793 255.616C36.793 376.454 134.773 474.389 255.616 474.389ZM252.606 181.571H228.616V312.843H252.606V181.571ZM367 312.843L331.682 263.136L294.455 312.843H264.884L316.909 245.091L268.546 181.571H298.298L332.455 227.434L366.409 181.571H395.389L347.227 245.298L396.934 312.843H367ZM420.778 287.151C414.046 287.151 408.343 292.333 408.343 299.363C408.343 306.454 414.046 311.636 420.778 311.636C427.455 311.636 433.152 306.454 433.152 299.363C433.152 292.333 427.455 287.151 420.778 287.151ZM190.046 312.843L176.995 279.449H126.328L113.278 312.651L87.5607 312.843L141.874 181.571H164.712L216.914 312.843H190.046Z" stroke="#84BF41"/>
</svg>
