<svg width="512" height="512" viewBox="0 0 512 512" fill="none" xmlns="http://www.w3.org/2000/svg">
<path fill-rule="evenodd" clip-rule="evenodd" d="M475.672 256.763C475.672 377.601 377.717 475.535 256.879 475.535C136.035 475.535 38.0555 377.601 38.0555 256.763C38.0555 135.899 136.035 37.9443 256.879 37.9443C377.717 37.9443 475.672 135.899 475.672 256.763Z" fill="#84BF41"/>
<path fill-rule="evenodd" clip-rule="evenodd" d="M498.424 256.763H493.374C493.374 322.081 466.924 381.172 424.101 423.99C381.283 466.808 322.197 493.263 256.879 493.263C191.535 493.263 132.445 466.808 89.6263 423.99C46.8082 381.172 20.3536 322.081 20.3536 256.763C20.3536 191.444 46.8082 132.328 89.6263 89.5101C132.445 46.7172 191.535 20.2374 256.879 20.2374C322.197 20.2374 381.283 46.7172 424.101 89.5101C466.924 132.328 493.374 191.444 493.374 256.763H503.49C503.47 120.556 393.081 10.1465 256.879 10.1465C120.672 10.1465 10.2627 120.556 10.2627 256.763C10.2627 392.944 120.672 503.374 256.879 503.374C393.081 503.374 503.47 392.944 503.49 256.763H498.424Z" fill="#587DB1"/>
<path fill-rule="evenodd" clip-rule="evenodd" d="M178.258 280.596L191.308 313.99H218.177L165.975 182.717H143.136L88.8232 313.99L114.54 313.798L127.591 280.596H178.258ZM153.116 215.535L153.308 214.768L170.389 259.869H136.035L153.116 215.535Z" fill="#FFFFFE"/>
<path d="M253.869 182.717H229.879V313.99H253.869V182.717Z" fill="#FFFFFE"/>
<path d="M368.263 313.99L332.944 264.283L295.717 313.99H266.146L318.172 246.237L269.808 182.717H299.561L333.717 228.581L367.672 182.717H396.652L348.49 246.445L398.197 313.99H368.263Z" fill="#FFFFFE"/>
<path fill-rule="evenodd" clip-rule="evenodd" d="M417.313 307.601H419.455V301.48H421.914L425.636 307.601H428.035L424.02 301.384C426.091 301.121 427.677 300.025 427.677 297.495C427.677 294.712 426.03 293.48 422.687 293.48H417.313V307.601ZM425.444 297.369C425.444 299.535 423.823 299.667 422.01 299.667H419.455V295.293H422.364C423.859 295.293 425.444 295.616 425.444 297.369Z" fill="#FFFFFE"/>
<path fill-rule="evenodd" clip-rule="evenodd" d="M422.04 288.298C415.308 288.298 409.606 293.48 409.606 300.51C409.606 307.601 415.308 312.783 422.04 312.783C428.717 312.783 434.414 307.601 434.414 300.51C434.414 293.48 428.717 288.298 422.04 288.298ZM431.955 300.51C431.955 306.404 427.581 310.742 422.04 310.742C416.439 310.742 412.066 306.404 412.066 300.51C412.066 294.712 416.439 290.338 422.04 290.338C427.581 290.338 431.955 294.712 431.955 300.51Z" fill="#FFFFFE"/>
</svg>
