<svg width="512" height="512" viewBox="0 0 512 512" fill="none" xmlns="http://www.w3.org/2000/svg">
<path fill-rule="evenodd" clip-rule="evenodd" d="M171.919 17.5426C172.56 17.1873 173.21 17.0073 173.908 17.0002C175.402 16.9859 176.817 17.7321 177.614 19.1697L198.676 57.1357C215.906 49.4932 235.232 45.2035 255.625 45.2035C276.019 45.2035 295.345 49.4932 312.574 57.1357L333.637 19.1697C334.433 17.7321 335.849 16.9858 337.343 17.0002C338.04 17.0069 338.691 17.1873 339.331 17.5426C341.436 18.7092 342.128 21.1276 340.959 23.2375L320.168 60.7967C360.168 81.6102 387.187 121.164 387.241 166.559H124.01C124.064 121.164 151.083 81.6102 191.083 60.7967L170.292 23.2375C169.123 21.1276 169.815 18.7092 171.919 17.5426ZM183.896 107.395C183.896 101.386 188.87 96.4124 194.88 96.4124C200.889 96.4124 205.863 101.386 205.863 107.395C205.863 113.405 200.889 118.378 194.88 118.378C188.87 118.378 183.896 113.405 183.896 107.395ZM305.388 107.395C305.388 101.386 310.362 96.4124 316.371 96.4124C322.38 96.4124 327.354 101.386 327.354 107.395C327.354 113.405 322.38 118.378 316.371 118.378C310.362 118.378 305.388 113.405 305.388 107.395Z" fill="#A4C639"/>
<path d="M176.936 464.637V399.553H155.829C138.201 399.553 124.01 385.361 124.01 367.734V176.955H387.241V367.734C387.241 385.361 373.05 399.553 355.422 399.553H334.315V464.637C334.315 481.073 321.236 494.151 304.8 494.151C288.365 494.151 275.286 481.073 275.286 464.637V399.553H235.965V464.637C235.965 481.073 222.886 494.151 206.45 494.151C190.015 494.151 176.936 481.073 176.936 464.637Z" fill="#A4C639"/>
<path d="M54 201.407C54 184.971 67.0782 171.892 83.514 171.892C99.9499 171.892 113.028 184.971 113.028 201.407V324.344C113.028 340.78 99.9499 353.858 83.514 353.858C67.0782 353.858 54 340.78 54 324.344V201.407Z" fill="#A4C639"/>
<path d="M398.225 201.407C398.225 184.971 411.303 171.892 427.739 171.892C444.175 171.892 457.253 184.971 457.253 201.407V324.344C457.253 340.78 444.175 353.858 427.739 353.858C411.303 353.858 398.225 340.78 398.225 324.344V201.407Z" fill="#A4C639"/>
</svg>
