<svg width="512" height="512" viewBox="0 0 512 512" fill="none" xmlns="http://www.w3.org/2000/svg">
<path fill-rule="evenodd" clip-rule="evenodd" d="M194.88 88.4124C184.452 88.4124 175.896 96.9681 175.896 107.395C175.896 117.823 184.452 126.378 194.88 126.378C205.307 126.378 213.863 117.823 213.863 107.395C213.863 96.9681 205.307 88.4124 194.88 88.4124ZM194.88 96.4124C188.87 96.4124 183.896 101.386 183.896 107.395C183.896 113.405 188.87 118.378 194.88 118.378C200.889 118.378 205.863 113.405 205.863 107.395C205.863 101.386 200.889 96.4124 194.88 96.4124Z" fill="#A4C639"/>
<path fill-rule="evenodd" clip-rule="evenodd" d="M316.371 88.4124C305.943 88.4124 297.388 96.9681 297.388 107.395C297.388 117.823 305.943 126.378 316.371 126.378C326.798 126.378 335.354 117.823 335.354 107.395C335.354 96.9681 326.798 88.4124 316.371 88.4124ZM316.371 96.4124C310.362 96.4124 305.388 101.386 305.388 107.395C305.388 113.405 310.362 118.378 316.371 118.378C322.38 118.378 327.354 113.405 327.354 107.395C327.354 101.386 322.38 96.4124 316.371 96.4124Z" fill="#A4C639"/>
<path fill-rule="evenodd" clip-rule="evenodd" d="M173.908 17.0002C175.402 16.9859 176.817 17.7321 177.614 19.1697L198.676 57.1357C215.906 49.4932 235.232 45.2035 255.625 45.2035C276.019 45.2035 295.345 49.4932 312.574 57.1357L333.637 19.1697C334.433 17.7321 335.849 16.9858 337.343 17.0002C338.04 17.0069 338.691 17.1873 339.331 17.5426C341.436 18.7092 342.128 21.1276 340.959 23.2375L320.168 60.7967C322.225 61.8672 324.248 62.9873 326.235 64.1552C360.589 84.3498 384.106 118.842 386.951 158.559C387.14 161.204 387.238 163.871 387.241 166.559H124.01C124.013 163.871 124.111 161.204 124.3 158.559C127.145 118.842 150.662 84.3496 185.016 64.155C187.003 62.9872 189.026 61.8672 191.083 60.7967L170.292 23.2375C169.123 21.1276 169.815 18.7092 171.919 17.5426C172.56 17.1873 173.21 17.0073 173.908 17.0002ZM316.475 67.8935L312.88 66.023L309.331 64.4486C293.114 57.2555 274.893 53.2035 255.625 53.2035C236.358 53.2035 218.137 57.2555 201.92 64.4486L198.371 66.023L194.776 67.8935C159.507 86.2448 135.316 119.837 132.323 158.559H378.928C375.935 119.837 351.744 86.2448 316.475 67.8935Z" fill="#A4C639"/>
<path fill-rule="evenodd" clip-rule="evenodd" d="M124.01 367.734V176.955H387.241V367.734C387.241 385.361 373.05 399.553 355.422 399.553H334.315V464.637C334.315 481.073 321.236 494.151 304.8 494.151C288.365 494.151 275.286 481.073 275.286 464.637V399.553H235.965V464.637C235.965 481.073 222.886 494.151 206.45 494.151C190.015 494.151 176.936 481.073 176.936 464.637V399.553H155.829C138.201 399.553 124.01 385.361 124.01 367.734ZM184.936 391.553H155.829C142.62 391.553 132.01 380.943 132.01 367.734V184.955H379.241V367.734C379.241 380.943 368.631 391.553 355.422 391.553H326.315V464.637C326.315 476.655 316.818 486.151 304.8 486.151C292.783 486.151 283.286 476.655 283.286 464.637V391.553H227.965V464.637C227.965 476.655 218.468 486.151 206.45 486.151C194.433 486.151 184.936 476.655 184.936 464.637V391.553Z" fill="#A4C639"/>
<path fill-rule="evenodd" clip-rule="evenodd" d="M83.514 171.892C67.0782 171.892 54 184.971 54 201.407V324.344C54 340.78 67.0782 353.858 83.514 353.858C99.9499 353.858 113.028 340.78 113.028 324.344V201.407C113.028 184.971 99.9499 171.892 83.514 171.892ZM62 201.407C62 189.389 71.4965 179.892 83.514 179.892C95.5316 179.892 105.028 189.389 105.028 201.407V324.344C105.028 336.362 95.5316 345.858 83.514 345.858C71.4965 345.858 62 336.362 62 324.344V201.407Z" fill="#A4C639"/>
<path fill-rule="evenodd" clip-rule="evenodd" d="M427.739 171.892C411.303 171.892 398.225 184.971 398.225 201.407V324.344C398.225 340.78 411.303 353.858 427.739 353.858C444.175 353.858 457.253 340.78 457.253 324.344V201.407C457.253 184.971 444.175 171.892 427.739 171.892ZM406.225 201.407C406.225 189.389 415.722 179.892 427.739 179.892C439.757 179.892 449.253 189.389 449.253 201.407V324.344C449.253 336.362 439.757 345.858 427.739 345.858C415.722 345.858 406.225 336.362 406.225 324.344V201.407Z" fill="#A4C639"/>
</svg>
