<svg width="512" height="512" viewBox="0 0 512 512" fill="none" xmlns="http://www.w3.org/2000/svg">
<path d="M0 314.067H20.0767V261.834C20.0767 251.532 26.8493 244.047 36.5248 244.047C45.8775 244.047 51.6829 249.922 51.6829 259.419V314.065H71.1947V261.35C71.1947 251.129 77.8061 244.046 87.4814 244.046C97.3178 244.046 102.801 250.002 102.801 260.465V314.066H122.877V255.557C122.877 238.495 111.831 227.147 94.9791 227.147C82.643 227.147 72.4849 233.746 68.3712 244.289H67.8875C64.7431 233.344 56.1159 227.147 44.0228 227.147C32.4124 227.147 23.3821 233.666 19.673 243.565H19.2699V228.757H0V314.067ZM166.822 300.305C158.114 300.305 152.309 295.878 152.309 288.876C152.309 282.116 157.872 277.77 167.548 277.126L187.301 275.919V282.438C187.301 292.74 178.191 300.305 166.822 300.305ZM160.775 315.435C171.74 315.435 182.464 309.721 187.383 300.466H187.786V314.067H207.137V255.315C207.137 238.172 193.349 226.985 172.144 226.985C150.375 226.985 136.75 238.414 135.862 254.349H154.487C155.777 247.266 161.824 242.679 171.338 242.679C181.256 242.679 187.303 247.83 187.303 256.763V262.88L164.726 264.167C143.924 265.455 132.234 274.55 132.234 289.68C132.234 305.052 144.247 315.435 160.775 315.435H160.775ZM295.265 259.178C293.895 241.231 279.946 226.985 257.371 226.985C232.538 226.985 216.412 244.128 216.412 271.41C216.412 299.097 232.537 315.755 257.532 315.755C278.98 315.755 293.734 303.2 295.346 284.125H276.398C274.544 293.782 267.932 299.577 257.773 299.577C245.034 299.577 236.811 289.275 236.811 271.408C236.811 253.863 244.954 243.239 257.612 243.239C268.336 243.239 274.705 250.08 276.318 259.175H295.265L295.265 259.178ZM357.272 196C323.328 196 302.041 219.098 302.041 256.04C302.041 292.982 323.326 316 357.272 316C391.135 316 412.421 292.982 412.421 256.04C412.421 219.098 391.137 196 357.272 196ZM357.272 213.706C377.993 213.706 391.215 230.124 391.215 256.04C391.215 281.874 377.992 298.293 357.272 298.293C336.47 298.293 323.328 281.875 323.328 256.04C323.328 230.125 336.47 213.706 357.272 213.706ZM420.89 281.392C421.777 302.801 439.354 316 466.122 316C494.261 316 512 302.157 512 280.104C512 262.801 502.002 253.063 478.378 247.671L464.994 244.612C450.723 241.232 444.837 236.725 444.837 228.999C444.837 219.341 453.707 212.903 466.849 212.903C480.152 212.903 489.262 219.422 490.23 230.287H510.065C509.581 209.844 492.649 196.001 467.01 196.001C441.693 196.001 423.713 209.924 423.713 230.528C423.713 247.107 433.872 257.409 455.318 262.319L470.395 265.86C485.069 269.321 491.036 274.149 491.036 282.52C491.036 292.177 481.28 299.099 467.251 299.099C453.061 299.099 442.338 292.097 441.048 281.393H420.891L420.89 281.392Z" fill="black"/>
</svg>
