<svg width="512" height="512" viewBox="0 0 512 512" fill="none" xmlns="http://www.w3.org/2000/svg">
<g clip-path="url(#clip0_311_983)">
<path d="M512 256C512 397.312 397.44 512 256 512C114.56 512 0 397.312 0 256C0 114.56 114.56 0 256 0C397.44 0 512 114.56 512 256Z" fill="#1D1D1D"/>
<path d="M127.173 109.714L109.301 182.857H170.754C187.156 182.857 201.454 171.436 205.432 155.156C211.072 132.074 194.009 109.714 170.754 109.714H127.173Z" fill="white"/>
<path d="M109.301 219.429L91.4287 292.572H152.882C169.284 292.572 183.581 281.15 187.559 264.87C193.199 241.788 176.136 219.429 152.882 219.429H109.301Z" fill="white"/>
<path d="M216.535 292.572L234.408 219.429H277.988C301.243 219.429 318.306 241.788 312.666 264.87C308.688 281.15 294.391 292.572 277.988 292.572H216.535Z" fill="white"/>
<path d="M216.535 329.143L198.663 402.286H260.116C276.518 402.286 290.816 390.865 294.794 374.584C300.434 351.502 283.371 329.143 260.116 329.143H216.535Z" fill="white"/>
<path d="M385.223 365.714H323.77L341.642 292.572H385.223C408.477 292.572 425.54 314.931 419.9 338.013C415.922 354.293 401.625 365.714 385.223 365.714Z" fill="white"/>
<path d="M359.514 182.857L341.642 256H403.095C419.497 256 433.794 244.579 437.773 228.299C443.413 205.217 426.35 182.857 403.095 182.857H359.514Z" fill="white"/>
<path d="M234.408 182.857L252.28 109.714H295.861C319.115 109.714 336.178 132.074 330.538 155.156C326.56 171.436 312.263 182.857 295.861 182.857H234.408Z" fill="white"/>
</g>
<defs>
<clipPath id="clip0_311_983">
<rect width="512" height="512" fill="white"/>
</clipPath>
</defs>
</svg>
