<svg width="512" height="512" viewBox="0 0 512 512" fill="none" xmlns="http://www.w3.org/2000/svg">
<g clip-path="url(#clip0_331_447)">
<path fill-rule="evenodd" clip-rule="evenodd" d="M256 512C397.44 512 512 397.312 512 256C512 114.56 397.44 0 256 0C114.56 0 0 114.56 0 256C0 397.312 114.56 512 256 512ZM127.173 109.714L109.301 182.857H170.754C187.156 182.857 201.454 171.436 205.432 155.156C211.072 132.074 194.009 109.714 170.754 109.714H127.173ZM109.301 219.429L91.4287 292.572H152.882C169.284 292.572 183.581 281.15 187.559 264.87C193.199 241.788 176.136 219.429 152.882 219.429H109.301ZM234.408 219.429L216.535 292.572H277.988C294.391 292.572 308.688 281.15 312.666 264.87C318.306 241.788 301.243 219.429 277.988 219.429H234.408ZM216.535 329.143L198.663 402.286H260.116C276.518 402.286 290.816 390.865 294.794 374.584C300.434 351.502 283.371 329.143 260.116 329.143H216.535ZM323.77 365.714H385.223C401.625 365.714 415.922 354.293 419.9 338.013C425.54 314.931 408.477 292.572 385.223 292.572H341.642L323.77 365.714ZM359.514 182.857L341.642 256H403.095C419.497 256 433.794 244.579 437.773 228.299C443.413 205.217 426.35 182.857 403.095 182.857H359.514ZM252.28 109.714L234.408 182.857H295.861C312.263 182.857 326.56 171.436 330.538 155.156C336.178 132.074 319.115 109.714 295.861 109.714H252.28Z" fill="#1D1D1D"/>
</g>
<defs>
<clipPath id="clip0_331_447">
<rect width="512" height="512" fill="white"/>
</clipPath>
</defs>
</svg>
