<svg width="512" height="512" viewBox="0 0 512 512" fill="none" xmlns="http://www.w3.org/2000/svg">
<path d="M344.678 180.869C347.343 183.999 349.844 187.258 352.176 190.659C364.841 209.284 372.238 231.779 372.24 255.999C372.24 264.027 363.717 271.444 349.316 277.402C334.733 283.442 314.148 288.028 290.302 290.29C279.454 291.319 267.942 291.872 256.011 291.872C244.065 291.872 232.553 291.319 221.706 290.29C220.677 279.46 220.122 267.928 220.122 255.999C220.122 244.07 220.677 232.542 221.706 221.701C223.011 208.174 225.038 195.709 227.649 184.785C234.221 157.388 244.485 139.744 256.011 139.744C291.567 139.744 323.345 155.723 344.678 180.869Z" fill="#53A3DA"/>
<path fill-rule="evenodd" clip-rule="evenodd" d="M256.013 0C114.833 0 0 114.84 0 255.999C0 397.167 114.833 512 256.013 512C397.15 512 511.993 397.167 511.993 255.999C511.993 114.84 397.15 0 256.013 0ZM256.013 23.4911C214.845 23.4911 179.93 89.341 167.32 180.866C166.917 183.81 166.527 186.79 166.181 189.789C164.459 204.193 163.292 219.171 162.708 234.59C162.43 241.645 162.292 248.777 162.292 255.999C162.292 263.214 162.43 270.36 162.708 277.401C163.292 292.817 164.459 307.805 166.181 322.208C185.485 324.707 206.125 326.403 227.653 327.208C236.96 327.556 246.404 327.763 256.016 327.763C265.598 327.763 275.071 327.554 284.349 327.208C305.904 326.403 326.529 324.707 345.85 322.208C347.974 321.937 350.066 321.639 352.183 321.332C432.585 310.041 488.516 285.049 488.516 255.999C488.514 127.581 384.409 23.4911 256.013 23.4911Z" fill="#53A3DA"/>
</svg>
