<svg width="512" height="512" viewBox="0 0 512 512" fill="none" xmlns="http://www.w3.org/2000/svg">
<g clip-path="url(#clip0_304_1911)">
<g clip-path="url(#clip1_304_1911)">
<path fill-rule="evenodd" clip-rule="evenodd" d="M79.4836 183.358C39.2187 183.358 6.46802 216.111 6.46802 256.369C6.46802 296.631 39.2187 329.382 79.4836 329.382C119.736 329.382 152.49 296.631 152.49 256.369C152.49 216.111 119.736 183.358 79.4836 183.358Z" fill="#53A3DA"/>
<path fill-rule="evenodd" clip-rule="evenodd" d="M79.4838 190.058C67.7426 190.058 57.7847 208.838 54.1883 234.942C54.0734 235.781 53.962 236.631 53.8635 237.487C53.3724 241.595 53.0395 245.866 52.873 250.264C52.7936 252.276 52.7542 254.31 52.7542 256.37C52.7542 258.427 52.7936 260.465 52.873 262.474C53.0395 266.87 53.3724 271.145 53.8635 275.253C59.369 275.965 65.2555 276.449 71.3955 276.679C74.0497 276.778 76.7433 276.837 79.4844 276.837C82.2175 276.837 84.9192 276.777 87.5653 276.679C93.7127 276.449 99.5952 275.965 105.105 275.253C105.711 275.175 106.308 275.09 106.912 275.003C129.842 271.783 145.794 264.655 145.794 256.37C145.794 219.745 116.103 190.058 79.4838 190.058Z" fill="#F1606D"/>
<path fill-rule="evenodd" clip-rule="evenodd" d="M106.911 237.734C106.246 236.764 105.533 235.835 104.772 234.942C98.6881 227.77 89.6249 223.213 79.4843 223.213C76.1969 223.213 73.2696 228.245 71.3953 236.059C70.6507 239.175 70.0726 242.73 69.7003 246.588C69.4068 249.679 69.2485 252.967 69.2485 256.37C69.2485 259.772 69.4068 263.061 69.7003 266.15C72.7941 266.443 76.0773 266.601 79.4843 266.601C82.8871 266.601 86.1704 266.443 89.2642 266.15C96.0651 265.504 101.936 264.196 106.095 262.474C110.202 260.775 112.633 258.659 112.633 256.37C112.632 249.462 110.523 243.046 106.911 237.734Z" fill="white"/>
</g>
<path fill-rule="evenodd" clip-rule="evenodd" d="M221.279 220.4C229.829 220.4 236.779 224.57 241.158 229.274L234.321 236.968C230.685 233.441 226.729 231.197 221.386 231.197C209.946 231.197 201.717 240.817 201.717 256.531C201.717 272.46 209.304 282.079 220.956 282.079C227.157 282.079 231.754 279.515 235.709 275.131L242.548 282.719C236.886 289.239 229.615 292.875 220.742 292.875C202.998 292.875 188.995 280.049 188.995 256.853C188.996 233.976 203.319 220.4 221.279 220.4Z" fill="#231F20"/>
<path fill-rule="evenodd" clip-rule="evenodd" d="M270.24 237.824C283.387 237.824 295.255 247.874 295.255 265.403C295.255 282.827 283.386 292.876 270.24 292.876C257.198 292.876 245.335 282.827 245.335 265.403C245.335 247.874 257.198 237.824 270.24 237.824ZM270.24 282.827C277.937 282.827 282.638 275.878 282.638 265.403C282.638 254.821 277.937 247.874 270.24 247.874C262.543 247.874 257.948 254.821 257.948 265.403C257.948 275.878 262.543 282.827 270.24 282.827Z" fill="#231F20"/>
<path fill-rule="evenodd" clip-rule="evenodd" d="M299.323 239.107H309.474L310.33 248.406H310.758C314.498 241.565 320.058 237.823 325.616 237.823C328.291 237.823 330.001 238.144 331.601 238.893L329.463 249.582C327.649 249.049 326.258 248.728 324.016 248.728C319.845 248.728 314.818 251.612 311.614 259.525V291.592H299.323V239.107Z" fill="#231F20"/>
<path fill-rule="evenodd" clip-rule="evenodd" d="M354.588 237.824C368.805 237.824 376.287 248.087 376.287 262.734C376.287 265.083 376.073 267.22 375.752 268.505H342.403C343.47 278.018 349.454 283.361 357.9 283.361C362.392 283.361 366.237 281.975 370.088 279.515L374.256 287.209C369.232 290.523 362.927 292.876 356.299 292.876C341.758 292.876 330.429 282.719 330.429 265.403C330.43 248.299 342.293 237.824 354.588 237.824ZM365.597 260.701C365.597 252.361 362.071 247.338 354.909 247.338C348.71 247.338 343.363 251.935 342.294 260.701H365.597Z" fill="#231F20"/>
<path fill-rule="evenodd" clip-rule="evenodd" d="M394.996 256.103C394.996 233.868 407.078 219.864 424.071 219.864C440.962 219.864 453.039 233.868 453.039 256.103C453.039 278.446 440.963 292.876 424.071 292.876C407.078 292.876 394.996 278.446 394.996 256.103ZM447.909 256.103C447.909 236.647 438.291 224.356 424.071 224.356C409.747 224.356 400.125 236.647 400.125 256.103C400.125 275.665 409.747 288.386 424.071 288.386C438.291 288.386 447.909 275.665 447.909 256.103Z" fill="#F1606D"/>
<path fill-rule="evenodd" clip-rule="evenodd" d="M462.344 278.873C467.478 284.644 474.852 288.386 483.083 288.386C493.771 288.386 500.615 282.612 500.615 274.278C500.615 265.512 494.845 262.624 487.896 259.524L477.206 254.713C471.113 252.039 462.984 247.658 462.984 237.181C462.984 227.027 471.751 219.863 483.405 219.863C491.956 219.863 498.797 223.711 503.071 228.31L500.188 231.624C496.124 227.241 490.46 224.355 483.405 224.355C474.104 224.355 467.905 229.273 467.905 236.967C467.905 245.094 474.96 248.191 480.09 250.544L490.781 255.246C498.584 258.775 505.532 263.158 505.532 273.955C505.532 284.751 496.659 292.875 482.977 292.875C472.714 292.875 464.804 288.493 459.246 282.293L462.344 278.873Z" fill="#53A3DA"/>
</g>
<defs>
<clipPath id="clip0_304_1911">
<rect width="500" height="147" fill="white" transform="translate(6 183)"/>
</clipPath>
<clipPath id="clip1_304_1911">
<rect width="147" height="147" fill="white" transform="translate(6 183)"/>
</clipPath>
</defs>
</svg>
