<svg width="512" height="512" viewBox="0 0 512 512" fill="none" xmlns="http://www.w3.org/2000/svg">
<path d="M475.69 307.837C462.375 307.837 450.447 301.784 442.143 292.45L437.132 297.982C446.123 308.009 458.917 315.098 475.517 315.098C497.648 315.098 512 301.957 512 284.494C512 267.031 500.762 259.941 488.141 254.233L470.847 246.627L470.434 246.438C462.176 242.654 451.138 237.595 451.138 224.667C451.138 212.221 461.165 204.267 476.209 204.267C487.621 204.267 496.783 208.935 503.356 216.024L508.02 210.664C501.107 203.225 490.042 197 476.209 197C457.359 197 443.179 208.587 443.179 225.012C443.179 241.96 456.327 249.046 466.182 253.371L483.474 261.153C494.714 266.167 504.048 270.837 504.048 285.017C504.048 298.498 492.977 307.837 475.69 307.837Z" fill="#53A3DA"/>
<path fill-rule="evenodd" clip-rule="evenodd" d="M333.207 255.618C333.207 219.654 352.75 197.001 380.237 197.001C407.557 197.001 427.093 219.654 427.093 255.618C427.093 291.758 407.559 315.099 380.237 315.099C352.75 315.099 333.207 291.758 333.207 255.618ZM418.794 255.618C418.794 224.148 403.237 204.268 380.236 204.268C357.067 204.268 341.503 224.149 341.503 255.618C341.503 287.261 357.067 307.837 380.236 307.837C403.237 307.837 418.794 287.261 418.794 255.618Z" fill="#53A3DA"/>
<path d="M84.3742 212.222C77.291 204.614 66.0487 197.869 52.2196 197.869C23.1693 197.869 0.0010994 219.828 0 256.831C0 294.352 22.6495 315.098 51.3504 315.098C65.7025 315.098 77.4635 309.217 86.6225 298.67L75.5603 286.397C69.1628 293.488 61.7269 297.636 51.6966 297.636C32.8502 297.636 20.5771 282.076 20.5771 256.31C20.5771 230.893 33.8886 215.333 52.3921 215.333C61.0357 215.333 67.4332 218.963 73.3154 224.668L84.3742 212.222Z" fill="#53A3DA"/>
<path fill-rule="evenodd" clip-rule="evenodd" d="M171.873 270.662C171.873 242.308 152.676 226.052 131.411 226.052C110.316 226.052 91.1271 242.308 91.1271 270.662C91.1271 298.845 110.316 315.099 131.411 315.099C152.675 315.099 171.873 298.845 171.873 270.662ZM151.465 270.662C151.465 287.606 143.861 298.845 131.411 298.845C118.961 298.845 111.528 287.606 111.528 270.662C111.528 253.546 118.961 242.308 131.411 242.308C143.861 242.308 151.465 253.546 151.465 270.662Z" fill="#53A3DA"/>
<path d="M178.454 228.127H194.874L196.258 243.168H196.949C203 232.103 211.994 226.052 220.982 226.052C225.31 226.052 228.076 226.57 230.664 227.781L227.205 245.071C224.271 244.209 222.022 243.689 218.395 243.689C211.649 243.689 203.517 248.354 198.334 261.153V313.022H178.454V228.127Z" fill="#53A3DA"/>
<path fill-rule="evenodd" clip-rule="evenodd" d="M302.945 266.344C302.945 242.653 290.843 226.052 267.846 226.052C247.959 226.052 228.771 242.996 228.77 270.662C228.77 298.671 247.095 315.099 270.614 315.099C281.335 315.099 291.533 311.294 299.659 305.933L292.918 293.488C286.69 297.467 280.47 299.71 273.203 299.71C259.542 299.71 249.863 291.066 248.137 275.679H302.08C302.6 273.601 302.945 270.144 302.945 266.344ZM268.366 241.441C279.951 241.441 285.653 249.566 285.653 263.056H247.961C249.69 248.878 258.339 241.441 268.366 241.441Z" fill="#53A3DA"/>
</svg>
