<svg width="512" height="513" viewBox="0 0 512 513" fill="none" xmlns="http://www.w3.org/2000/svg">
<path fill-rule="evenodd" clip-rule="evenodd" d="M256.017 0C114.835 0 0 114.842 0 256.002C0 397.173 114.835 512.007 256.017 512.007C397.156 512.007 512 397.173 512 256.002C512 114.842 397.156 0 256.017 0Z" fill="#53A3DA"/>
<path fill-rule="evenodd" clip-rule="evenodd" d="M256.016 23.4915C214.848 23.4915 179.932 89.3423 167.322 180.869C166.919 183.813 166.529 186.793 166.183 189.792C164.461 204.196 163.294 219.174 162.71 234.593C162.432 241.648 162.293 248.78 162.293 256.002C162.293 263.218 162.432 270.364 162.71 277.405C163.294 292.821 164.461 307.809 166.183 322.213C185.487 324.712 206.127 326.408 227.656 327.213C236.963 327.561 246.407 327.768 256.019 327.768C265.601 327.768 275.075 327.558 284.353 327.213C305.908 326.408 326.533 324.712 345.854 322.213C347.979 321.941 350.07 321.644 352.188 321.336C432.59 310.046 488.522 285.053 488.522 256.002C488.52 127.583 384.414 23.4915 256.016 23.4915Z" fill="#F1606D"/>
<path fill-rule="evenodd" clip-rule="evenodd" d="M352.185 190.661C349.853 187.259 347.352 184.001 344.687 180.871C323.354 155.724 291.575 139.745 256.019 139.745C244.492 139.745 234.228 157.389 227.656 184.787C225.045 195.711 223.018 208.176 221.713 221.703C220.684 232.544 220.129 244.073 220.129 256.002C220.129 267.931 220.684 279.462 221.713 290.294C232.561 291.323 244.073 291.875 256.019 291.875C267.95 291.875 279.463 291.323 290.31 290.294C314.157 288.031 334.742 283.445 349.325 277.404C363.726 271.447 372.249 264.029 372.249 256.002C372.247 231.782 364.851 209.286 352.185 190.661Z" fill="white"/>
</svg>
