<svg width="512" height="512" viewBox="0 0 512 512" fill="none" xmlns="http://www.w3.org/2000/svg">
<path fill-rule="evenodd" clip-rule="evenodd" d="M106.095 262.474C110.202 260.775 112.633 258.659 112.633 256.37C112.632 249.462 110.523 243.046 106.91 237.734C106.245 236.764 105.532 235.835 104.772 234.942C98.6876 227.77 89.6244 223.213 79.4838 223.213C76.1964 223.213 73.2691 228.245 71.3948 236.059C70.6502 239.175 70.0721 242.73 69.6998 246.588C69.4063 249.679 69.248 252.967 69.248 256.37C69.248 259.772 69.4063 263.061 69.6998 266.15C72.7936 266.443 76.0769 266.601 79.4838 266.601C82.8866 266.601 86.1699 266.443 89.2637 266.15C96.0646 265.504 101.936 264.196 106.095 262.474ZM98.6713 240.118L98.6762 240.123L98.6811 240.129C99.2621 240.811 99.8025 241.516 100.304 242.246C102.684 245.751 104.203 249.886 104.554 254.365C104.156 254.583 103.654 254.826 103.037 255.081L103.033 255.083C99.8592 256.397 94.8391 257.584 88.5079 258.185C85.673 258.454 82.6421 258.601 79.4838 258.601C78.739 258.601 78.0015 258.592 77.2721 258.577C77.2562 257.848 77.248 257.112 77.248 256.37C77.248 253.215 77.3949 250.181 77.6634 247.35C78.0059 243.804 78.5298 240.622 79.175 237.921C79.9303 234.774 80.7791 232.591 81.4938 231.292C88.3612 231.835 94.4454 235.136 98.6713 240.118Z" fill="#53A3DA"/>
<path fill-rule="evenodd" clip-rule="evenodd" d="M6.46875 256.369C6.46875 216.111 39.2194 183.358 79.4844 183.358C119.737 183.358 152.49 216.111 152.49 256.369C152.49 296.631 119.737 329.382 79.4844 329.382C39.2194 329.382 6.46875 296.631 6.46875 256.369ZM14.4688 256.369C14.4688 227.777 33.0332 203.429 58.7426 194.751C57.2598 196.679 55.941 198.744 54.7829 200.836C49.7491 209.926 46.146 222.182 44.2629 235.85L44.2618 235.858C44.1441 236.719 44.025 237.625 43.9178 238.554C43.4011 242.879 43.0529 247.359 42.8788 251.955C42.7952 254.073 42.7539 256.21 42.7539 258.37C42.7539 260.527 42.7952 262.668 42.8788 264.783C43.0531 269.383 43.402 273.872 43.9199 278.203L44.6593 284.387L50.8363 285.187C56.6009 285.933 62.7312 286.435 69.0962 286.673C71.8336 286.775 74.6282 286.837 77.4842 286.837C80.3329 286.837 83.1354 286.775 85.8627 286.673L85.8637 286.673C92.2346 286.435 98.3586 285.933 104.125 285.188C104.793 285.102 105.436 285.011 106.042 284.923C117.936 283.251 128.512 280.51 136.353 276.826C138.4 275.865 140.37 274.789 142.178 273.579C134.613 301.1 109.365 321.382 79.4844 321.382C43.6375 321.382 14.4688 292.212 14.4688 256.369ZM51.8633 239.487C51.3721 243.595 51.0392 247.866 50.8728 252.264C50.7933 254.276 50.7539 256.31 50.7539 258.37C50.7539 260.427 50.7933 262.465 50.8728 264.474C51.0392 268.87 51.3721 273.145 51.8633 277.253C57.3687 277.965 63.2553 278.449 69.3952 278.679C72.0494 278.778 74.743 278.837 77.4842 278.837C80.2172 278.837 82.919 278.777 85.565 278.679C91.7125 278.449 97.5949 277.965 103.105 277.253C103.711 277.175 104.308 277.09 104.912 277.003C127.842 273.783 143.794 266.655 143.794 258.37C143.793 221.745 114.102 192.058 77.4835 192.058C65.7424 192.058 55.7845 210.838 52.188 236.942C52.0732 237.781 51.9618 238.631 51.8633 239.487Z" fill="#53A3DA"/>
<path d="M483.084 288.386C474.852 288.386 467.478 284.644 462.344 278.873L459.246 282.293C464.805 288.493 472.714 292.875 482.977 292.875C496.659 292.875 505.532 284.751 505.532 273.955C505.532 263.158 498.584 258.775 490.781 255.246L480.09 250.544L479.835 250.427C474.729 248.087 467.905 244.96 467.905 236.967C467.905 229.273 474.104 224.355 483.405 224.355C490.46 224.355 496.124 227.241 500.188 231.624L503.072 228.31C498.798 223.711 491.957 219.863 483.405 219.863C471.751 219.863 462.985 227.027 462.985 237.181C462.985 247.658 471.113 252.039 477.206 254.713L487.896 259.524C494.845 262.624 500.616 265.512 500.616 274.278C500.616 282.612 493.771 288.386 483.084 288.386Z" fill="#53A3DA"/>
<path fill-rule="evenodd" clip-rule="evenodd" d="M394.996 256.103C394.996 233.868 407.078 219.864 424.072 219.864C440.962 219.864 453.04 233.868 453.04 256.103C453.04 278.446 440.963 292.876 424.072 292.876C407.078 292.876 394.996 278.446 394.996 256.103ZM447.909 256.103C447.909 236.647 438.291 224.356 424.071 224.356C409.747 224.356 400.125 236.647 400.125 256.103C400.125 275.665 409.747 288.386 424.071 288.386C438.291 288.386 447.909 275.665 447.909 256.103Z" fill="#53A3DA"/>
<path d="M241.159 229.274C236.78 224.57 229.83 220.4 221.28 220.4C203.32 220.4 188.997 233.976 188.996 256.853C188.996 280.049 202.999 292.875 220.743 292.875C229.616 292.875 236.887 289.239 242.549 282.719L235.71 275.131C231.755 279.515 227.158 282.079 220.957 282.079C209.305 282.079 201.718 272.46 201.718 256.531C201.718 240.817 209.947 231.197 221.387 231.197C226.73 231.197 230.686 233.441 234.322 236.968L241.159 229.274Z" fill="#53A3DA"/>
<path fill-rule="evenodd" clip-rule="evenodd" d="M295.254 265.403C295.254 247.874 283.386 237.824 270.239 237.824C257.197 237.824 245.334 247.874 245.334 265.403C245.334 282.827 257.197 292.876 270.239 292.876C283.385 292.876 295.254 282.827 295.254 265.403ZM282.637 265.403C282.637 275.878 277.936 282.827 270.239 282.827C262.542 282.827 257.947 275.878 257.947 265.403C257.947 254.821 262.542 247.874 270.239 247.874C277.936 247.874 282.637 254.821 282.637 265.403Z" fill="#53A3DA"/>
<path d="M299.322 239.107H309.474L310.33 248.406H310.757C314.498 241.565 320.058 237.823 325.615 237.823C328.29 237.823 330 238.144 331.601 238.893L329.462 249.582C327.648 249.049 326.258 248.728 324.015 248.728C319.845 248.728 314.818 251.612 311.613 259.525V291.592H299.322V239.107Z" fill="#53A3DA"/>
<path fill-rule="evenodd" clip-rule="evenodd" d="M376.287 262.734C376.287 248.087 368.805 237.824 354.588 237.824C342.293 237.824 330.43 248.299 330.43 265.403C330.43 282.719 341.758 292.876 356.299 292.876C362.927 292.876 369.232 290.523 374.256 287.209L370.088 279.515C366.237 281.975 362.392 283.361 357.9 283.361C349.454 283.361 343.47 278.018 342.403 268.505H375.752C376.074 267.22 376.287 265.083 376.287 262.734ZM354.909 247.338C362.072 247.338 365.597 252.361 365.597 260.701H342.294C343.363 251.935 348.71 247.338 354.909 247.338Z" fill="#53A3DA"/>
</svg>
