<svg width="512" height="512" viewBox="0 0 512 512" fill="none" xmlns="http://www.w3.org/2000/svg">
<path fill-rule="evenodd" clip-rule="evenodd" d="M52.2195 197.869C66.0485 197.869 77.2908 204.614 84.374 212.222L73.3152 224.668C67.4331 218.963 61.0356 215.333 52.392 215.333C33.8885 215.333 20.577 230.893 20.577 256.31C20.577 282.076 32.8501 297.636 51.6964 297.636C61.7267 297.636 69.1626 293.488 75.5601 286.397L86.6222 298.67C77.4633 309.216 65.7024 315.098 51.3503 315.098C22.6495 315.098 0 294.351 0 256.831C0.0010994 219.827 23.1692 197.869 52.2195 197.869Z" fill="#231F20"/>
<path fill-rule="evenodd" clip-rule="evenodd" d="M131.413 226.052C152.678 226.052 171.875 242.307 171.875 270.662C171.875 298.844 152.677 315.098 131.413 315.098C110.319 315.098 91.1296 298.844 91.1296 270.662C91.1296 242.307 110.319 226.052 131.413 226.052ZM131.413 298.844C143.863 298.844 151.467 287.605 151.467 270.662C151.467 253.545 143.863 242.307 131.413 242.307C118.963 242.307 111.531 253.545 111.531 270.662C111.531 287.605 118.963 298.844 131.413 298.844Z" fill="#231F20"/>
<path fill-rule="evenodd" clip-rule="evenodd" d="M178.455 228.127H194.875L196.26 243.168H196.951C203.001 232.103 211.995 226.051 220.984 226.051C225.311 226.051 228.077 226.57 230.666 227.781L227.207 245.07C224.273 244.209 222.023 243.689 218.396 243.689C211.65 243.689 203.519 248.354 198.336 261.153V313.022H178.455V228.127Z" fill="#231F20"/>
<path fill-rule="evenodd" clip-rule="evenodd" d="M267.847 226.052C290.843 226.052 302.945 242.652 302.945 266.344C302.945 270.143 302.6 273.6 302.08 275.678H248.138C249.863 291.066 259.543 299.709 273.203 299.709C280.47 299.709 286.69 297.466 292.918 293.487L299.659 305.933C291.533 311.293 281.335 315.098 270.615 315.098C247.095 315.098 228.77 298.671 228.77 270.662C228.771 242.995 247.96 226.052 267.847 226.052ZM285.653 263.056C285.653 249.566 279.951 241.441 268.366 241.441C258.339 241.441 249.69 248.878 247.96 263.056H285.653Z" fill="#231F20"/>
<path fill-rule="evenodd" clip-rule="evenodd" d="M333.207 255.618C333.207 219.654 352.75 197.001 380.237 197.001C407.558 197.001 427.093 219.654 427.093 255.618C427.093 291.758 407.559 315.099 380.237 315.099C352.75 315.099 333.207 291.758 333.207 255.618ZM418.795 255.618C418.795 224.148 403.237 204.268 380.236 204.268C357.068 204.268 341.504 224.149 341.504 255.618C341.504 287.26 357.068 307.836 380.236 307.836C403.237 307.836 418.795 287.26 418.795 255.618Z" fill="#F1606D"/>
<path fill-rule="evenodd" clip-rule="evenodd" d="M442.143 292.449C450.447 301.784 462.375 307.836 475.69 307.836C492.977 307.836 504.048 298.497 504.048 285.017C504.048 270.837 494.714 266.167 483.474 261.153L466.182 253.371C456.327 249.046 443.179 241.959 443.179 225.012C443.179 208.587 457.359 197 476.209 197C490.042 197 501.107 203.225 508.02 210.664L503.356 216.024C496.783 208.935 487.621 204.267 476.209 204.267C461.165 204.267 451.138 212.221 451.138 224.667C451.138 237.811 462.55 242.821 470.847 246.627L488.141 254.232C500.762 259.941 512 267.031 512 284.494C512 301.956 497.648 315.098 475.517 315.098C458.917 315.098 446.123 308.009 437.132 297.982L442.143 292.449Z" fill="#53A3DA"/>
</svg>
