<svg width="512" height="512" viewBox="0 0 512 512" fill="none" xmlns="http://www.w3.org/2000/svg">
<path d="M104.772 234.942C105.532 235.835 106.245 236.764 106.91 237.734C110.523 243.046 112.632 249.462 112.633 256.37C112.633 258.659 110.202 260.775 106.095 262.474C101.936 264.196 96.0646 265.504 89.2637 266.15C86.1699 266.443 82.8866 266.601 79.4838 266.601C76.0769 266.601 72.7936 266.443 69.6998 266.15C69.4063 263.061 69.248 259.772 69.248 256.37C69.248 252.967 69.4063 249.679 69.6998 246.588C70.0721 242.73 70.6502 239.175 71.3948 236.059C73.2691 228.245 76.1964 223.213 79.4838 223.213C89.6244 223.213 98.6876 227.77 104.772 234.942Z" fill="#53A3DA"/>
<path fill-rule="evenodd" clip-rule="evenodd" d="M79.4844 183.358C39.2194 183.358 6.46875 216.111 6.46875 256.369C6.46875 296.631 39.2194 329.382 79.4844 329.382C119.737 329.382 152.49 296.631 152.49 256.369C152.49 216.111 119.737 183.358 79.4844 183.358ZM79.4844 190.058C67.7432 190.058 57.7853 208.838 54.1889 234.941C54.0741 235.781 53.9626 236.631 53.8641 237.486C53.373 241.594 53.0401 245.866 52.8736 250.263C52.7942 252.276 52.7548 254.31 52.7548 256.369C52.7548 258.427 52.7942 260.465 52.8736 262.473C53.0401 266.87 53.373 271.145 53.8641 275.253C59.3696 275.965 65.2561 276.449 71.3961 276.679C74.0503 276.778 76.7439 276.837 79.4851 276.837C82.2181 276.837 84.9198 276.777 87.5659 276.679C93.7133 276.449 99.5958 275.965 105.106 275.253C105.712 275.175 106.308 275.09 106.912 275.003C129.843 271.783 145.795 264.655 145.795 256.369C145.794 219.744 116.103 190.058 79.4844 190.058Z" fill="#53A3DA"/>
<path d="M483.084 288.386C474.852 288.386 467.478 284.644 462.344 278.873L459.246 282.293C464.805 288.493 472.714 292.875 482.977 292.875C496.659 292.875 505.532 284.751 505.532 273.955C505.532 263.158 498.584 258.775 490.781 255.246L480.09 250.544L479.835 250.427C474.729 248.087 467.905 244.96 467.905 236.967C467.905 229.273 474.104 224.355 483.405 224.355C490.46 224.355 496.124 227.241 500.188 231.624L503.072 228.31C498.798 223.711 491.957 219.863 483.405 219.863C471.751 219.863 462.985 227.027 462.985 237.181C462.985 247.658 471.113 252.039 477.206 254.713L487.896 259.524C494.845 262.624 500.616 265.512 500.616 274.278C500.616 282.612 493.771 288.386 483.084 288.386Z" fill="#53A3DA"/>
<path fill-rule="evenodd" clip-rule="evenodd" d="M394.996 256.103C394.996 233.868 407.078 219.864 424.072 219.864C440.962 219.864 453.04 233.868 453.04 256.103C453.04 278.446 440.963 292.876 424.072 292.876C407.078 292.876 394.996 278.446 394.996 256.103ZM447.909 256.103C447.909 236.647 438.291 224.356 424.071 224.356C409.747 224.356 400.125 236.647 400.125 256.103C400.125 275.665 409.747 288.386 424.071 288.386C438.291 288.386 447.909 275.665 447.909 256.103Z" fill="#53A3DA"/>
<path d="M241.159 229.274C236.78 224.57 229.83 220.4 221.28 220.4C203.32 220.4 188.997 233.976 188.996 256.853C188.996 280.049 202.999 292.875 220.743 292.875C229.616 292.875 236.887 289.239 242.549 282.719L235.71 275.131C231.755 279.515 227.158 282.079 220.957 282.079C209.305 282.079 201.718 272.46 201.718 256.531C201.718 240.817 209.947 231.197 221.387 231.197C226.73 231.197 230.686 233.441 234.322 236.968L241.159 229.274Z" fill="#53A3DA"/>
<path fill-rule="evenodd" clip-rule="evenodd" d="M295.254 265.403C295.254 247.874 283.386 237.824 270.239 237.824C257.197 237.824 245.334 247.874 245.334 265.403C245.334 282.827 257.197 292.876 270.239 292.876C283.385 292.876 295.254 282.827 295.254 265.403ZM282.637 265.403C282.637 275.878 277.936 282.827 270.239 282.827C262.542 282.827 257.947 275.878 257.947 265.403C257.947 254.821 262.542 247.874 270.239 247.874C277.936 247.874 282.637 254.821 282.637 265.403Z" fill="#53A3DA"/>
<path d="M299.322 239.107H309.474L310.33 248.406H310.757C314.498 241.565 320.058 237.823 325.615 237.823C328.29 237.823 330 238.144 331.601 238.893L329.462 249.582C327.648 249.049 326.258 248.728 324.015 248.728C319.845 248.728 314.818 251.612 311.613 259.525V291.592H299.322V239.107Z" fill="#53A3DA"/>
<path fill-rule="evenodd" clip-rule="evenodd" d="M376.287 262.734C376.287 248.087 368.805 237.824 354.588 237.824C342.293 237.824 330.43 248.299 330.43 265.403C330.43 282.719 341.758 292.876 356.299 292.876C362.927 292.876 369.232 290.523 374.256 287.209L370.088 279.515C366.237 281.975 362.392 283.361 357.9 283.361C349.454 283.361 343.47 278.018 342.403 268.505H375.752C376.074 267.22 376.287 265.083 376.287 262.734ZM354.909 247.338C362.072 247.338 365.597 252.361 365.597 260.701H342.294C343.363 251.935 348.71 247.338 354.909 247.338Z" fill="#53A3DA"/>
</svg>
