<svg width="512" height="512" viewBox="0 0 512 512" fill="none" xmlns="http://www.w3.org/2000/svg">
<path fill-rule="evenodd" clip-rule="evenodd" d="M349.316 277.402C363.717 271.444 372.24 264.027 372.24 255.999C372.238 231.779 364.841 209.284 352.176 190.659C349.844 187.258 347.343 183.999 344.678 180.869C323.345 155.723 291.567 139.744 256.011 139.744C244.485 139.744 234.221 157.388 227.649 184.785C225.038 195.709 223.011 208.174 221.706 221.701C220.677 232.542 220.122 244.07 220.122 255.999C220.122 267.928 220.677 279.46 221.706 290.29C232.553 291.319 244.065 291.872 256.011 291.872C267.942 291.872 279.454 291.319 290.302 290.29C314.148 288.028 334.733 283.442 349.316 277.402ZM323.288 199.015L323.305 199.036L323.322 199.056C325.359 201.448 327.254 203.917 329.011 206.476C337.359 218.768 342.682 233.266 343.915 248.97C342.52 249.735 340.76 250.585 338.594 251.481L338.581 251.487C327.453 256.096 309.851 260.259 287.652 262.366C277.712 263.309 267.085 263.822 256.011 263.822C253.4 263.822 250.814 263.793 248.256 263.737C248.2 261.184 248.172 258.604 248.172 255.999C248.172 244.938 248.687 234.301 249.628 224.373C250.829 211.939 252.666 200.784 254.928 191.315C257.577 180.279 260.553 172.625 263.059 168.072C287.138 169.975 308.47 181.549 323.288 199.015Z" fill="#53A3DA"/>
<path fill-rule="evenodd" clip-rule="evenodd" d="M0 255.999C0 114.84 114.833 0 256.013 0C397.15 0 511.993 114.84 511.993 255.999C511.993 397.167 397.15 512 256.013 512C114.833 512 0 397.167 0 255.999ZM28.0502 255.999C28.0502 155.745 93.1425 70.3739 183.287 39.9459C178.088 46.7073 173.463 53.9485 169.403 61.2818C151.753 93.1555 139.12 136.127 132.517 184.051L132.513 184.08C132.1 187.098 131.683 190.276 131.307 193.533C129.495 208.699 128.274 224.407 127.664 240.519C127.371 247.947 127.226 255.44 127.226 263.012C127.226 270.576 127.371 278.084 127.664 285.5C128.275 301.629 129.498 317.366 131.314 332.552L133.907 354.236L155.565 357.04C175.777 359.656 197.272 361.418 219.589 362.252C229.187 362.611 238.986 362.827 249 362.827C258.988 362.827 268.815 362.608 278.377 362.252L278.381 362.252C300.719 361.418 322.191 359.657 342.412 357.043C344.751 356.744 347.006 356.422 349.13 356.114C390.834 350.254 427.917 340.644 455.412 327.727C462.588 324.356 469.494 320.582 475.834 316.341C449.31 412.837 360.783 483.95 256.013 483.95C130.324 483.95 28.0502 381.674 28.0502 255.999ZM159.166 196.803C157.444 211.206 156.277 226.184 155.693 241.603C155.414 248.658 155.276 255.79 155.276 263.012C155.276 270.227 155.414 277.373 155.693 284.414C156.277 299.83 157.444 314.818 159.166 329.222C178.469 331.72 199.109 333.416 220.638 334.222C229.944 334.569 239.389 334.777 249 334.777C258.583 334.777 268.056 334.567 277.334 334.222C298.888 333.416 319.514 331.72 338.834 329.222C340.959 328.95 343.05 328.652 345.168 328.345C425.569 317.055 481.501 292.063 481.501 263.012C481.498 134.595 377.394 30.5044 248.998 30.5044C207.83 30.5044 172.915 96.3544 160.304 187.88C159.902 190.824 159.511 193.804 159.166 196.803Z" fill="#53A3DA"/>
</svg>
