<svg width="512" height="512" viewBox="0 0 512 512" fill="none" xmlns="http://www.w3.org/2000/svg">
<path d="M256 0C114.641 0 0 114.641 0 256C0 397.359 114.641 512 256 512C397.359 512 512 397.359 512 256C512 114.641 397.359 0 256 0ZM255.535 24.4131H255.581C255.72 24.4311 255.861 24.4311 256 24.4131C361.844 24.4131 451.119 95.4415 478.72 192.372C454.984 241.175 421.634 284.681 380.672 320.279C360.96 337.338 339.409 352.465 315.741 363.148C292.049 373.807 266.031 379.881 240.175 378.415C221.711 377.31 203.695 372.288 187.322 363.683C232.159 339.086 272.193 306.605 305.501 267.799C327.75 241.827 347.183 212.177 354.723 178.595C358.563 161.792 359.145 144.151 355.654 127.232C352.248 110.144 344.204 94.3221 332.404 81.5011C320.614 69.2054 305.685 60.3688 289.233 55.9476C272.879 51.5937 255.754 50.9733 239.127 54.1324C206.01 60.2065 176.454 79.4065 152.902 103.191C111.313 145.082 85.6436 204.195 90.368 263.191C92.7418 292.678 102.563 321.629 119.505 345.903C122.833 350.673 126.534 355.165 130.374 359.494C107.053 367.559 82.9984 373.32 58.5542 376.692C37.107 341.64 25.3777 301.511 24.5713 260.426C23.7648 219.341 33.9103 178.782 53.9654 142.915C74.0206 107.049 103.262 77.1674 138.687 56.3414C174.112 35.5154 214.442 24.4952 255.535 24.4131ZM257.164 71.424C257.257 71.4007 257.536 71.4705 257.443 71.4473C273.548 71.4473 289.722 76.3578 302.499 86.0393C313.988 94.9267 322.628 106.98 327.354 120.716C332.099 134.524 333.627 149.234 331.823 163.724C328.495 192.652 313.903 219.299 296.145 242.688C264.634 284.067 222.697 317.231 176.081 340.433C171.66 342.644 167.098 344.785 162.537 346.81C152.798 338.168 144.542 327.987 138.1 316.672C124.369 292.375 119.855 263.517 122.508 235.636C125.207 207.732 134.749 180.806 147.689 155.811C162.653 126.86 182.97 99.5375 211.27 83.8982C225.29 75.9586 241.077 71.6618 257.187 71.4007L257.164 71.424ZM485.935 229.911C486.912 238.452 487.587 247.11 487.587 255.907C487.587 383.837 383.977 487.54 256.023 487.54C222.371 487.553 189.124 480.206 158.611 466.014C128.097 451.823 101.057 431.131 79.3833 405.388C104.682 399.453 129.378 391.195 153.158 380.719C163.887 388.771 175.663 395.473 188.23 400.268C225.233 414.464 267.171 412.369 304.5 399.453C341.807 386.537 374.807 363.404 403.549 336.5C436.503 305.576 464.314 269.595 485.935 229.911Z" fill="black"/>
</svg>
