<svg width="512" height="512" viewBox="0 0 512 512" fill="none" xmlns="http://www.w3.org/2000/svg">
<g clip-path="url(#clip0_331_310)">
<path fill-rule="evenodd" clip-rule="evenodd" d="M512 256.008C512 114.62 397.382 0 255.996 0C114.672 0 0.1 114.524 0 255.828V453.936C0.076 486.02 26.098 511.994 58.202 511.994H256.1C397.44 511.938 512 397.358 512 256.008ZM331.16 60.614C330.68 60.614 330.2 60.6168 329.721 60.6225L329.65 60.6934C324.246 60.7599 318.927 61.1834 313.716 61.9414L313.791 61.8665C308.925 62.5744 304.153 63.5751 299.494 64.8501L299.423 64.9207C290.915 67.245 282.784 70.481 275.14 74.5171L275.181 74.4769C271.131 76.6194 267.218 78.9867 263.459 81.5621C231.794 103.199 211.01 139.591 211.01 180.832V244.516H209.141L209.213 244.444H197.9L197.828 244.516H183.141L183.213 244.444H171.9L171.828 244.516H160.69C159.404 244.516 158.138 244.599 156.898 244.76L157.213 244.444H147.594C147.024 244.444 146.456 244.448 145.888 244.456L27.5159 362.828C27.5079 363.396 27.5039 363.966 27.5039 364.536C27.5039 367.653 27.6233 370.742 27.8576 373.8L132.527 269.13C132.396 270.236 132.329 271.363 132.33 272.508C132.33 275.953 132.944 279.241 134.069 282.275L29.5683 386.775C30.1532 389.887 30.8586 392.956 31.6792 395.978L89.2685 338.389C95.6866 324.128 107.186 312.629 121.447 306.211L138.103 289.554C140.232 292.317 142.869 294.665 145.877 296.466L141.433 300.91C143.461 300.716 145.516 300.616 147.594 300.616H153.041L153.938 299.72C156.01 300.2 158.171 300.454 160.394 300.454L167.888 300.456L167.728 300.616H179.041L179.2 300.458L193.883 300.461L193.728 300.616H203.72C207.871 301.394 211.014 305.03 211.014 309.4V364.506C210.952 399.488 182.576 427.824 147.594 427.824C141.105 427.824 137.29 427.359 133.837 426.938C132.895 426.823 131.98 426.711 131.044 426.613L131.306 426.352C128.408 425.587 125.589 424.624 122.866 423.478L119.727 426.616C106.752 428.455 97.9665 437.495 96.5557 449.788L81.551 464.793C83.836 466.303 86.1753 467.737 88.5655 469.092L97.4236 460.234C98.4896 463.643 100.312 466.823 102.697 469.647L98.3039 474.04C100.932 475.227 103.61 476.323 106.335 477.323L108.573 475.084C111.469 477.193 114.738 478.907 118.223 480.121L117.528 480.816C120.583 481.606 123.685 482.279 126.828 482.829L127.199 482.458C131.515 483.386 135.58 483.996 140.036 484.308L139.958 484.386C142.483 484.545 145.029 484.626 147.594 484.626C148.76 484.626 149.923 484.609 151.081 484.576L151.153 484.504C156.675 484.344 162.104 483.81 167.415 482.929L167.341 483.003C172.364 482.169 177.282 481.021 182.076 479.582L182.144 479.514C191.316 476.764 200.027 472.948 208.134 468.21L208.108 468.236C210.32 466.94 212.488 465.575 214.608 464.144C246.659 442.565 267.744 405.946 267.744 364.406V300.724H271.62L271.55 300.794H282.863L282.933 300.724H297.62L297.55 300.794H308.863L308.933 300.724H318.064C320.201 300.724 322.282 300.495 324.283 300.061L323.55 300.794H331.16C332.418 300.794 333.672 300.775 334.922 300.736L451.194 184.464C451.232 183.215 451.252 181.962 451.252 180.704C451.252 178.223 451.176 175.76 451.027 173.316L345.836 278.508C346.223 276.648 346.425 274.717 346.424 272.732C346.424 269.847 345.993 267.072 345.193 264.465L449.494 160.163C448.949 157.015 448.282 153.908 447.496 150.848L387.538 210.806C381.568 221.941 372.397 231.112 361.262 237.082L341.498 256.846C339.514 253.976 337.004 251.501 334.105 249.553L339.587 244.071C336.829 244.436 334.016 244.624 331.16 244.624H327.72L326.405 245.938C323.858 245.188 321.157 244.786 318.36 244.786L312.872 244.785L313.033 244.624H301.72L301.561 244.783L286.877 244.78L287.033 244.624H275.72L275.629 244.715C271.186 244.188 267.74 240.415 267.74 235.838V180.732C267.802 145.75 296.178 117.414 331.16 117.414C337.649 117.414 341.464 117.88 344.916 118.302C346.464 118.491 347.938 118.671 349.548 118.796L349.021 119.323C351.862 120.151 354.623 121.172 357.287 122.37L361.477 118.181C372.284 115.789 379.767 108.139 381.825 97.8321L398.406 81.2515C396.145 79.7182 393.83 78.2598 391.464 76.8801L381.764 86.5795C380.914 83.0231 379.241 79.6853 376.953 76.7041L381.826 71.8317C379.226 70.6172 376.576 69.4931 373.88 68.4635L371.322 71.0215C368.551 68.8258 365.391 67.0047 361.996 65.6619L362.811 64.846C359.794 64.0208 356.73 63.3107 353.623 62.7205L353.198 63.1455C348.873 62.1522 344.871 61.4706 340.577 61.0808L340.671 60.9869C337.532 60.7399 334.361 60.614 331.16 60.614ZM91.048 258.609C70.1227 269.825 52.8862 287.062 41.6702 307.987L91.048 258.609ZM115.563 248.781L31.8412 332.503C30.5454 337.179 29.5262 341.97 28.8022 346.855L129.915 245.742C125.03 246.466 120.24 247.485 115.563 248.781ZM38.6376 415.02C37.4266 412.417 36.3062 409.763 35.2805 407.063L83.9684 358.375C83.7736 360.403 83.6739 362.458 83.6739 364.536C83.6739 366.298 83.7456 368.044 83.8863 369.771L38.6376 415.02ZM43.6729 424.671C45.0494 427.04 46.5046 429.359 48.0349 431.623L89.1779 390.48C87.9865 387.808 86.9733 385.04 86.1533 382.19L43.6729 424.671ZM59.5424 446.115C57.7251 444.155 55.9723 442.134 54.2873 440.056L94.4004 399.943C95.8984 402.186 97.5344 404.33 99.2962 406.361L59.5424 446.115ZM66.9229 453.421C68.9028 455.219 70.9428 456.953 73.0395 458.618L113.24 418.417C110.961 416.959 108.78 415.361 106.71 413.634L66.9229 453.421ZM446.094 215.564C447.556 210.752 448.724 205.813 449.576 200.768L351.226 299.118C356.271 298.265 361.21 297.098 366.022 295.635L446.094 215.564ZM440.748 131.596C441.932 134.228 443.024 136.91 444.02 139.638L394.527 189.131C394.892 186.373 395.08 183.56 395.08 180.704C395.08 179.579 395.051 178.461 394.993 177.351L440.748 131.596ZM435.814 121.844C434.462 119.451 433.031 117.108 431.524 114.82L390.181 156.163C391.321 158.893 392.276 161.719 393.032 164.625L435.814 121.844ZM420.173 100.171C421.968 102.154 423.699 104.197 425.361 106.297L385.146 146.512C383.694 144.227 382.101 142.041 380.379 139.965L420.173 100.171ZM412.878 92.7794C410.921 90.9593 408.903 89.2035 406.828 87.5155L366.727 127.617C368.964 129.121 371.102 130.763 373.128 132.53L412.878 92.7794ZM434.482 241.862L392.321 284.023C409.651 273.725 424.184 259.192 434.482 241.862Z" fill="#294172"/>
</g>
<defs>
<clipPath id="clip0_331_310">
<rect width="512" height="512" fill="white"/>
</clipPath>
</defs>
</svg>
