<svg width="512" height="512" viewBox="0 0 512 512" fill="none" xmlns="http://www.w3.org/2000/svg">
<g clip-path="url(#clip0_102_1117)">
<path d="M512 256.008C512 114.62 397.382 0 255.996 0C114.672 0 0.1 114.524 0 255.828V453.936C0.076 486.02 26.098 511.994 58.202 511.994H256.1C397.44 511.938 512 397.358 512 256.008Z" fill="#294172"/>
<path d="M331.16 60.614C264.942 60.614 211.07 114.484 211.07 180.704V244.444H147.594C81.3759 244.444 27.5039 298.318 27.5039 364.536C27.5039 430.752 81.3759 484.626 147.594 484.626C213.812 484.626 267.684 430.752 267.684 364.536V300.794H331.16C397.378 300.794 451.252 246.922 451.252 180.704C451.252 114.484 397.378 60.614 331.16 60.614ZM211.514 364.536C211.514 399.78 182.84 428.454 147.594 428.454C112.348 428.454 83.6739 399.78 83.6739 364.536C83.6739 329.29 112.348 300.616 147.594 300.616H211.07V300.794H211.514V364.536ZM331.16 244.624H267.684V244.444H267.242V180.704C267.242 145.458 295.916 116.784 331.16 116.784C366.404 116.784 395.08 145.458 395.08 180.704C395.08 215.95 366.404 244.624 331.16 244.624Z" fill="#3C6EB4"/>
<path d="M357.702 64.2561C348.382 61.8201 341.226 60.6841 331.16 60.6841C264.806 60.6841 211.01 114.482 211.01 180.832V244.516H160.69C145 244.516 132.32 256.846 132.33 272.508C132.33 288.072 144.87 300.454 160.394 300.454L202.056 300.462C207.002 300.462 211.014 304.462 211.014 309.4V364.506C210.952 399.488 182.576 427.824 147.594 427.824C135.744 427.824 132.81 426.272 124.72 426.272C107.726 426.272 96.356 437.664 96.356 453.328C96.36 466.286 107.464 477.426 121.052 480.982C130.372 483.418 137.528 484.556 147.594 484.556C213.948 484.556 267.744 430.758 267.744 364.406V300.724H318.064C333.754 300.724 346.434 288.394 346.424 272.732C346.424 257.166 333.884 244.786 318.36 244.786L276.698 244.778C271.752 244.778 267.74 240.776 267.74 235.838V180.732C267.802 145.75 296.178 117.414 331.16 117.414C343.01 117.414 345.944 118.968 354.034 118.968C371.028 118.968 382.398 107.574 382.398 91.9121C382.394 78.9521 371.29 67.8121 357.702 64.2561Z" fill="white"/>
</g>
<defs>
<clipPath id="clip0_102_1117">
<rect width="512" height="512" fill="white"/>
</clipPath>
</defs>
</svg>
