<svg width="512" height="512" viewBox="0 0 512 512" fill="none" xmlns="http://www.w3.org/2000/svg">
<path fill-rule="evenodd" clip-rule="evenodd" d="M363.341 138.244C389.711 164.62 421.116 175.979 433.48 163.633C445.844 151.262 518.982 35.3489 492.6 8.97894C466.223 -17.4034 350.316 55.728 337.958 68.0986C325.594 80.463 336.959 111.874 363.341 138.244ZM424.998 155.145C424.045 156.091 419.423 158.401 407.746 154.175C397.05 150.304 384.053 141.988 371.827 129.759L371.824 129.756C359.593 117.531 351.274 104.533 347.403 93.836C343.173 82.1451 345.497 77.5302 346.443 76.5839L346.448 76.5796C348.426 74.5988 356.819 68.3863 370.012 60.0913C382.737 52.0911 398.833 42.8328 415.292 34.7873C431.876 26.6808 448.256 20.0897 461.694 17.0512C468.422 15.5299 473.822 15.0393 477.841 15.3914C481.842 15.742 483.469 16.8192 484.113 17.4632L492.6 8.97894L484.116 17.4662C484.759 18.109 485.836 19.735 486.187 23.7352C486.539 27.7536 486.048 33.1535 484.526 39.8819C481.488 53.3198 474.896 69.7009 466.789 86.2858C458.743 102.746 449.484 118.844 441.484 131.571C433.197 144.755 426.987 153.151 424.998 155.145Z" fill="#B5010F"/>
<path fill-rule="evenodd" clip-rule="evenodd" d="M15.3067 15.3232L15.3053 15.3247C14.0714 16.5581 12.4205 19.6848 12.6159 26.9795C12.8056 34.0616 14.7149 43.1367 18.1306 53.6247C23.0036 68.588 30.5004 85.1147 38.54 100.587C55.1696 76.4255 75.7971 55.24 99.4799 37.9747C84.0349 30.004 67.6191 22.6254 52.8041 17.8795C42.5038 14.58 33.6207 12.7665 26.6991 12.624C19.5837 12.4775 16.5246 14.1054 15.3067 15.3232ZM110.64 30.2773C71.7372 9.55378 23.3058 -9.64639 6.82142 6.83797C-9.8669 23.5207 10.028 72.9597 31.0545 112.106C33.3025 116.291 35.5635 120.359 37.7941 124.257C40.0798 120.283 42.4729 116.379 44.9694 112.549C62.4556 85.7231 85.0173 62.5193 111.307 44.2881C115.013 41.7183 118.792 39.2474 122.642 36.879C118.781 34.6885 114.764 32.4744 110.64 30.2773Z" fill="#B5010F"/>
<path fill-rule="evenodd" clip-rule="evenodd" d="M452.366 154.538C456.074 167.119 455.408 177.509 449.392 183.512C435.343 197.567 397.392 182.605 363.181 150.047C360.793 147.906 358.424 145.685 356.098 143.353C343.727 130.976 334.102 117.803 327.944 105.673C315.963 84.1774 312.964 65.1927 322.021 56.1353C326.957 51.2056 334.855 49.8606 344.486 51.5943C347.381 49.7628 350.517 47.8356 353.854 45.846C357.756 43.5191 361.931 41.1068 366.315 38.6623C362.014 36.4194 357.637 34.3034 353.189 32.3192C323.433 19.0481 290.471 11.6753 255.782 11.6753C123.518 11.6753 16.2922 118.883 16.2922 251.159C16.2922 383.41 123.518 490.629 255.782 490.629C388.045 490.629 495.265 383.41 495.265 251.159C495.265 213.556 486.577 178.014 471.137 146.356C469.038 142.053 466.815 137.821 464.471 133.666C462.099 137.996 459.763 142.123 457.506 145.983C455.737 149.008 454.017 151.871 452.366 154.538ZM466.536 165.45C467.167 175.104 465.133 184.749 457.879 191.996C457.877 191.997 457.876 191.999 457.874 192.001C451.507 198.367 443.106 200.703 434.934 200.79C426.835 200.877 418.128 198.809 409.487 195.439C392.204 188.698 372.927 175.862 355.037 158.862C352.562 156.639 350.073 154.304 347.606 151.832C334.548 138.766 324.163 124.668 317.35 111.313C310.978 99.8395 306.563 88.3082 305.194 77.7892C303.836 67.363 305.296 55.8898 313.536 47.6501L313.541 47.6447C320.232 40.962 329.026 38.7453 337.746 38.8882C312.33 29.0628 284.698 23.6753 255.782 23.6753C130.145 23.6753 28.2922 125.511 28.2922 251.159C28.2922 376.781 130.145 478.629 255.782 478.629C381.418 478.629 483.265 376.782 483.265 251.159C483.265 220.813 477.313 191.896 466.536 165.45Z" fill="#B5010F"/>
</svg>
