<svg width="512" height="512" viewBox="0 0 512 512" fill="none" xmlns="http://www.w3.org/2000/svg">
<path fill-rule="evenodd" clip-rule="evenodd" d="M129.642 47.879C89.3653 25.0259 32.0534 -0.393982 13.8215 17.838C-4.65109 36.3044 21.7004 94.9057 44.7942 135.257C65.346 99.527 94.5788 69.4489 129.642 47.879ZM499.6 19.9789C525.982 46.3489 452.844 162.262 440.48 174.633C428.116 186.979 396.711 175.62 370.341 149.244C343.959 122.874 332.594 91.463 344.958 79.0986C357.316 66.728 473.223 -6.4034 499.6 19.9789ZM456.392 194.512C462.408 188.509 463.074 178.119 459.366 165.538C463.123 159.467 467.239 152.391 471.471 144.666C491.054 179.39 502.265 219.445 502.265 262.159C502.265 394.41 395.045 501.629 262.782 501.629C130.518 501.629 23.2922 394.41 23.2922 262.159C23.2922 129.883 130.518 22.6753 262.782 22.6753C302.658 22.6753 340.25 32.4175 373.315 49.6623C365.183 54.1971 357.767 58.6209 351.486 62.5943C341.855 60.8606 333.957 62.2056 329.021 67.1353C319.964 76.1927 322.963 95.1774 334.944 116.673C341.102 128.803 350.727 141.976 363.098 154.353C365.424 156.685 367.793 158.906 370.181 161.047C404.392 193.605 442.343 208.567 456.392 194.512Z" fill="#B5010F"/>
</svg>
