<svg width="512" height="512" viewBox="0 0 512 512" fill="none" xmlns="http://www.w3.org/2000/svg">
<path fill-rule="evenodd" clip-rule="evenodd" d="M145.02 313.775C148.439 343.198 153.319 365.415 163.933 391.612C174.543 417.802 197.945 452.814 226.493 473.651C255.041 494.479 301.605 513.935 333.083 511.846C364.561 509.764 378.59 498.132 393.07 483.4C407.541 468.667 440.084 423.824 451.427 381.949C462.777 340.082 455.696 325.388 446.563 313.238C437.437 301.089 416.843 292.842 388.738 294.989C360.632 297.137 330.271 314.573 328.544 328.983C325.872 351.254 367.349 354.332 360.632 373.896C357.934 381.774 347.88 388.119 321.192 387.314C294.504 386.516 265.291 373.554 258.499 352.962C251.708 332.371 254.677 313.452 269.097 303.466C330.005 261.303 350.328 226.571 354.323 210.776C358.318 194.981 352.067 176.464 336.263 162.268C302.33 131.784 234.091 145.407 201 168.858C151.885 203.672 138.424 257.039 145.02 313.775ZM225.149 25.921C219.466 38.7356 211.978 65.497 219.533 87.5705C227.092 109.644 255.687 134.635 287.137 128.804C318.584 122.968 317.62 73.8844 311.456 52.589C305.878 33.3359 277.812 1.65338 258.205 0.112826C238.599 -1.42773 230.836 13.0986 225.149 25.921ZM132.804 101.642C151.216 128.582 180.01 132.791 194.627 127.812C209.244 122.828 202.927 82.1396 194.122 63.4507C183.12 40.1089 157.47 37.9654 142.544 45.5709C127.618 53.1686 114.396 74.7014 132.804 101.642ZM85.5304 120.906C66.0727 127.625 71.693 167.924 82.9532 183.933C94.2095 199.942 127.869 208.815 140.841 194.375C153.816 179.934 137.66 151.375 129.862 142.136C122.064 132.888 104.988 114.188 85.5304 120.906ZM56.6298 221.657C62.1483 209.064 87.5592 210.321 106.621 221.284C130.646 235.106 131.621 269.78 117.458 275.437C106.006 280.012 85.7105 277.051 73.0364 267.01C60.3623 256.969 51.1113 234.246 56.6298 221.657Z" fill="black"/>
</svg>
