<svg width="512" height="512" viewBox="0 0 512 512" fill="none" xmlns="http://www.w3.org/2000/svg">
<g clip-path="url(#clip0_306_2039)">
<path fill-rule="evenodd" clip-rule="evenodd" d="M112.337 295.862C108.947 296.092 104.534 297.611 101.573 302.918C99.1558 307.252 93.4935 307.943 90.8499 307.07C86.446 305.615 80.8172 304.605 75.3648 308.491C69.9124 312.375 64.0243 309.437 65.057 302.356C66.0896 295.276 68.6474 288.969 75.4366 285.063C90.2641 276.534 79.959 270.597 88.0971 262.036C96.251 253.459 94.4497 250.834 94.1792 239.185C66.6204 235.045 51.001 227.102 33.5598 205.311C16.1185 183.519 9.35734 165.581 7.5495 138.26C5.74167 110.939 7.30883 93.2332 19.1129 70.555C30.917 47.8768 43.3452 36.9598 64.8825 25.6362C86.4198 14.3143 107.522 11.6026 127.028 11.9328C146.534 12.2621 159.531 13.6912 170.552 19.9794C181.573 26.2677 191.655 34.1809 198.082 34.2378C204.51 34.2947 208.886 32.611 212.01 30.2173C212.844 51.3955 193.784 53.235 176.731 53.6828C159.678 54.1296 149.2 47.0755 133.494 49.6996C117.787 52.3237 92.0719 59.471 79.5448 81.2761C67.0178 103.081 66.5905 110.789 67.6316 129.075C68.6726 147.361 84.4114 161.004 93.2958 161.152C102.179 161.3 104.162 158.728 111.938 153.656C119.716 148.583 159.416 99.4375 172.963 88.3983C186.51 77.3591 199.879 73.9505 214.313 73.7733C228.748 73.596 232.437 74.0858 244.078 78.8572C255.72 83.6278 262.874 92.4141 272.26 97.7854C277.058 94.9617 280.038 90.7453 284.44 87.5279C300.184 76.0214 308.364 72.9207 327.076 74.7416C337.83 75.7882 351.391 81.9319 359.482 88.9673C373.89 101.494 385.793 118.935 395.411 132.184C402.901 142.502 411.715 154.847 424.297 158.706C438.035 162.918 448.372 145.125 449.89 135.256C450.75 129.663 451.872 124.762 451.882 118.607C451.891 112.451 451.262 104.981 449.488 98.5662C447.714 92.1511 444.674 85.7677 441.383 80.4748C436.027 71.86 427.263 62.8451 418.145 58.207C413.027 55.6044 400.987 50.8722 393.397 50.7061C384.098 50.5046 377.013 53.6287 368.415 54.2145C358.008 54.9244 339.419 57.264 331.26 49.2238C326.068 44.1072 325.415 40.694 324.528 34.0223C326.822 35.9123 330.03 37.1548 332.885 37.3964C339.402 37.9468 345.504 32.6259 350.764 29.5429C355.097 27.0028 361.233 22.4636 366.924 20.1697C381.548 14.2742 399.51 14.444 414.947 16.0233C427.32 17.2882 443.362 22.7929 454.214 28.9337C465.117 35.1016 475.623 45.5018 483.319 55.3059C493.001 67.6417 498.294 78.2257 501.8 93.611C506.283 113.258 507.525 142.773 502.106 162.145C497.836 177.411 483.656 200.862 471.585 212.357C459.68 223.696 445.934 229.169 430.301 232.162C430.913 235.317 431.014 238.259 431.823 240.846C432.972 244.518 435.17 248.611 439.685 247.316C441.485 246.8 442.449 246.354 444.823 248.43C447.195 250.506 445.96 258.528 439.284 262.128C435.898 263.953 432.326 264.35 426.904 264.458C421.482 264.566 413.021 264.59 407.134 263.559C401.249 262.529 397.733 257.858 391.215 257.127C381.141 256 373.427 248.722 365.35 243.517C361.98 241.344 360.842 241.322 358.9 240.224C359.95 243.437 361.349 246.773 362.047 249.862C362.746 252.951 362.448 255.812 362.819 258.284C363.189 260.754 363.874 262.674 364.273 264.678C365.887 266.121 366.403 268.316 369.114 269.007C371.827 269.696 376.074 268.622 378.849 268.249C381.624 267.876 383.484 266.364 385.661 266.778C387.841 267.191 389.905 268.751 391.73 270.213C393.556 271.674 395.125 271.888 396.603 275.535C398.08 279.183 399.436 286.652 399.638 291.645C399.841 296.637 399.281 301.144 397.801 305.105C396.322 309.067 395.022 310.824 391.015 314.747C387.008 318.672 380.484 324.43 373.974 328.441C375.173 330.216 375.704 331.841 377.574 333.768C379.443 335.695 383.341 337.854 385.075 339.887C386.807 341.92 387.686 343.378 387.711 345.658C387.738 347.937 387.627 350.899 385.776 353.384C381.167 359.572 375.716 360.68 369.087 363.59C370.202 370.551 371.111 375.524 369.5 382.475C368.842 385.307 367.382 391.728 363.888 393.376C360.394 395.023 353.656 394.226 349.391 394.903C345.126 395.581 342.739 396.225 339.414 396.885C337.394 399.806 334.385 403.029 333.355 405.646C332.322 408.265 332.633 409.203 333.5 411.877C334.367 414.55 337.317 418.443 338.153 421.574C338.989 424.704 339.151 428.075 338.371 431.214C337.59 434.353 336.253 436.631 333.577 439.418C330.903 442.206 325.641 444.395 323.02 446.655C320.397 448.915 317.786 449.187 318.501 452.926C319.485 458.062 326.99 466.393 332.419 468.376C335.673 469.565 340.04 469.19 343.992 467.522C343.724 471.909 339.927 474.867 337.447 477.78C344.164 475.859 350.678 472.182 355.184 467.308C353.786 471.541 348.979 478.337 341.787 484.304C334.596 490.271 334.64 489.05 331.065 491.424C337.588 492.735 343.653 492.381 348.705 491.473C345.936 493 341.396 495.147 335.382 495.779C329.368 496.409 325.66 495.964 320.24 494.647C314.819 493.33 309.871 488.403 303.303 485.007C303.943 487.443 304.398 490.373 307.161 492.879C309.923 495.384 314.102 496.659 318.544 498.826C312.889 498.184 306.947 497.99 301.39 496.765C297.276 495.857 294.512 494.895 291.502 493.404C288.494 491.913 286.171 489.739 283.506 487.907C284.783 490.346 285.161 493.215 287.335 495.227C289.508 497.238 293.041 497.987 295.898 499.368C292.918 499.303 290.051 499.95 286.962 499.173C283.87 498.396 280.971 497.174 277.758 494.807C274.544 492.439 271.23 489.524 268.487 486.544C265.746 483.563 262.362 479.7 261.338 476.951C260.312 474.202 261.953 472.28 262.261 469.947C260.369 471.19 258.04 471.875 256.586 473.68C255.132 475.485 253.842 477.133 254.486 480.28C255.131 483.426 258.035 487.272 260.088 490.772C253.961 485.762 250.539 483.833 249.081 477.789C247.716 472.131 251.247 466.994 253.931 462.715C255.264 460.59 257.258 458.613 258.505 456.562C255.737 453.854 252.574 451.526 250.202 448.437C247.83 445.35 246.834 441.171 244.413 438.216C241.992 435.261 238.734 433.391 235.897 430.981C238.391 436.338 242.489 442.908 243.379 447.053C244.268 451.199 242.382 453.736 240.911 455.974C239.438 458.212 237.063 458.711 234.811 460.086C232.558 461.462 229.054 460.377 227.712 462.419C226.37 464.46 226.01 467.531 227.293 469.553L232.554 477.857C230.616 476.879 227.276 474.033 225.771 472.014C224.265 469.995 221.955 468.131 221.639 465.401C221.323 462.673 221.169 460.304 222.937 457.873C224.705 455.443 229.547 454.63 231.714 452.761C233.881 450.893 235.096 449.676 234.972 447.261C234.849 444.846 232.49 443.118 230.462 441.596C224.271 436.952 216.328 432.673 211.071 427.076C208.101 423.914 206.675 421.361 206.078 419.179C205.482 416.998 206.113 415.297 207.589 412.614C209.064 409.93 214.125 406.347 214.741 403.432C215.355 400.518 212.799 399.892 210.493 398.864C208.186 397.836 203.804 399.391 201.664 397.603C199.525 395.814 202.293 392.057 199.882 389.996C197.471 387.936 191.953 389.086 189.105 386.869C186.258 384.652 185.08 381.9 184.099 378.684C183.118 375.467 183.007 371.944 183.672 369.615C184.337 367.285 186.335 366.878 187.54 365.671C188.745 364.464 189.791 363.463 188.185 361.662C186.578 359.863 181.314 361.763 178.288 359.452C175.262 357.142 177.115 351.607 174.975 349.274C172.836 346.941 168.996 347.854 166.97 347.109C164.945 346.364 164.15 348.993 162.908 344.835C161.665 340.675 161.632 328.277 159.96 323.65C158.288 319.023 155.006 323.338 153.481 318.739C151.957 314.141 153.402 306.787 152.716 299.842L149.605 280.946C138.752 288.236 131.588 290.525 119.928 292.585C118.955 321.113 116.275 337.912 125.958 369.562C135.641 401.212 155.237 419.865 181.673 446.66C146.789 420.526 130.135 399.28 119.712 372.062C109.286 344.84 111.288 322.075 112.337 295.862ZM297.699 284.395C300.383 284.516 303.644 285.197 305.528 286.421C307.413 287.645 309.414 288.645 311.125 290.386C315.394 294.733 318.595 299.976 320.01 306C320.912 309.84 321.047 314.766 321.375 319.275C320.083 315.107 319.215 310.761 317.374 307.027C314.472 301.139 309.542 295.392 303.42 292.745C301.399 291.87 300.051 292.033 298.939 292.187C299.437 293.022 300.27 293.722 300.306 294.945C300.342 296.168 300.069 298.561 297.995 299.566C294.652 301.188 290.936 300.048 288.354 297.765C285.75 295.465 284.863 291.573 286.226 288.229C287.85 284.243 294.038 284.233 297.699 284.395ZM264.049 278.724C264.386 271.872 266.859 266.094 272.999 262.734C276.174 260.997 281.066 258.751 285.562 258.223C289.88 257.716 300.383 258.087 306.702 260.97C311.553 263.185 314.858 266.632 319.119 269.152C323.378 271.673 326.408 273.362 330.464 276.188C336.689 280.527 340.339 285.304 344.655 288.168C346.73 289.544 349.65 289.34 352.406 290.181C350.263 290.817 347.463 291.519 345.151 290.78C342.269 289.858 338.239 287.223 336.003 285.334C332.051 281.996 330.003 280.367 325.69 277.85C323.116 276.35 318.876 274.582 316.047 272.737C313.216 270.892 308.301 266.843 305.581 265.473C302.123 263.732 295.897 262.764 292.048 262.877C286.744 263.032 279.066 263.907 274.962 267.631C270.884 271.332 269.336 274.589 270.256 279.395C271.791 277.627 272.813 275.405 274.352 274.09C277.538 271.367 281.195 271.236 285.161 271.752C289.618 272.332 291.861 274.906 293.333 279.136C292.342 278.409 290.522 276.811 289.084 276.315C285.71 275.151 283.159 275.509 279.998 277.204C276.267 279.206 277.282 282.169 276.744 285.464C276.498 286.983 275.924 288.207 275.515 289.579C274.112 289.208 272.814 288.624 271.753 287.572C271.797 289.111 271.573 290.457 271.888 292.188C272.202 293.919 273.045 295.975 273.622 297.867C271.024 295.269 268.366 292.849 266.688 289.493C265.008 286.136 263.869 282.41 264.049 278.724ZM268.546 228.854C270.461 226.012 271.022 221.652 272.202 218.107C271.73 222.597 272.638 227.534 270.446 230.786C268.254 234.038 264.404 233.468 261.215 234.414C263.696 232.522 266.63 231.697 268.546 228.854ZM222.696 295.429C225.155 293.438 231.791 295.03 236.755 295.385C233.188 296.298 229.62 297.213 226.053 298.126C225.721 299.34 225.871 300.73 225.057 301.765C224.242 302.8 222.693 303.184 221.512 303.892C221.629 300.703 220.237 297.419 222.696 295.429ZM257.669 157.164C260.632 158.759 264.392 160.868 267.008 160.934C269.625 160.999 270.31 159.223 271.849 158.198C274.271 166.094 277.05 174.77 281.174 181.936C282.901 184.937 284.003 183.542 285.316 186.559C286.628 189.575 287.211 195.712 288.455 199.565C289.702 203.419 291.327 206.255 292.762 209.599C289.117 204.434 284.407 197.848 282.375 193.549C280.345 189.252 281.645 188.878 280.001 184.784C278.357 180.691 275.035 174.311 272.551 169.074C270.773 169.31 268.572 169.633 267.22 169.216C265.869 168.799 266.138 167.362 264.917 166.433C263.694 165.504 261.639 165.864 259.926 164.381C258.214 162.898 257.824 159.856 257.669 157.164ZM241.716 196.128C244.505 195.883 247.967 196.631 250.578 196.482C253.189 196.334 255.053 195.657 257.291 195.243C256.876 191.311 257.27 184.085 253.639 181.459C251.294 179.763 241.662 181.04 239.09 181.595C233.3 182.843 226.559 186.298 220.96 188.459C226.326 184.711 230.961 181.237 237.397 179.302C241.265 178.139 250.293 176.627 254.286 177.705C256.108 178.197 256.477 178.951 257.582 180.496C261.383 185.802 261.371 190.388 262.357 196.569C263.327 198.079 264.359 199.087 265.145 200.645C265.928 202.202 266.372 204.654 266.591 206.658C265.597 205.215 266.205 203.407 263.451 202.333C260.694 201.259 256.474 202.262 252.76 202.65C255.467 204.604 256.813 206.485 256.916 210.615C257.037 215.464 252.932 218.953 248.646 219.285C242.695 219.747 239.627 218.44 237.22 213.354C236.166 211.127 236.93 208.447 236.842 206.275C229.692 206.772 229.809 206.539 224.583 210.896C227.424 215.058 229.213 217.451 233.907 219.94C236.539 221.338 239.52 222.696 242.782 223.251C246.045 223.806 251.397 224.342 254.824 223.816C258.252 223.29 260.194 222.312 262.735 219.962C265.277 217.611 265.51 214.245 266.503 211.585C266.277 214.145 265.983 217.407 265.033 219.264C262.141 224.91 257.14 226.584 251.169 226.603C245.438 226.621 238.348 225.299 233.016 223.089C228.753 221.322 221.686 216.318 220.008 211.971C218.862 209.001 219.77 205.356 219.649 202.048C225.552 198.123 227.013 199.089 233.997 197.939C236.919 197.458 238.928 196.373 241.716 196.128ZM207.331 169.541C207.497 167.189 207.758 167.24 207.971 166.089C202.593 164.65 200.437 168.139 197.284 174.618C196.104 177.043 197.272 178.486 196.006 180.082C194.742 181.678 192.704 181.454 190.651 182.987C188.598 184.519 186.563 187.452 184.644 189.039C180.704 192.296 175.38 194.284 170.811 196.475C173.931 194.173 179.986 190.681 181.945 187.336C182.984 185.562 182.83 182.218 184.448 180.624C186.064 179.029 186.631 177.925 188.718 177.519C190.806 177.112 189.966 174.692 190.64 172.769C191.313 170.845 192.655 169.479 194.082 167.558C195.509 165.636 197.31 162.751 200.128 161.703C202.946 160.655 207.341 161.788 209.474 161.185C211.606 160.581 210.382 159.031 211.931 158.1C213.482 157.169 216.498 157.579 218.57 156.584C222.243 154.818 223.999 151.87 226.208 148.715C226.529 155.507 226.451 160.398 224.009 166.789C221.26 173.982 218.474 178.219 210.672 182.643C207.983 184.166 205.308 184.695 203.079 185.494C204.379 183.722 206.239 182.952 206.979 180.177C207.716 177.4 207.165 171.894 207.331 169.541ZM333.299 202.663C329.59 202.905 328.71 202.417 325.742 204.51C327.351 207.014 328.959 209.518 330.566 212.021C330.424 207.079 330.906 206.089 333.299 202.663ZM323.579 199.072C328.717 196.883 333.194 195.113 338.784 194.763C341.024 194.622 344.503 194.969 346.766 195.072C348.693 192.234 351.149 189.996 352.049 186.757C352.646 184.609 352.352 174.638 351.297 172.049C348.223 164.516 345.235 164.198 341.005 159.882C337.935 156.753 337.813 151.987 336.895 146.646C336.558 144.685 335.595 142.202 335.144 140.178C329.614 139.246 323.667 138.939 317.305 139.257C320.39 136.298 323.372 133.595 324.258 129.153C325.141 124.711 324.422 119.249 321.897 115.266C319.371 111.283 315.338 107.812 311.635 104.567C307.931 101.322 302.622 98.6427 299.113 95.9878C303.677 94.3535 308.338 91.9524 312.809 91.0858C324.456 88.8265 334.492 92.2817 345.726 99.0736C352.258 103.024 357.66 106.777 364.488 113.925C371.314 121.073 379.782 134.184 386.391 141.959C393 149.734 398.336 155.883 404.102 160.52C409.869 165.159 415.088 166.479 420.579 169.458L429.139 178.548L436.066 169.976L447.213 171.236L449.516 158.725L459.746 155.922L458.077 139.056L465.433 133.836L459.905 123.342L465.522 111.876L458.199 98.7686L461.022 86.1483L452.545 78.9235L451.439 65.5121L439.612 61.0009L434.868 49.333L421.571 49.1837L415.049 40.5223L406.097 41.1492L396.119 40.0625L390.476 35.8964L382.286 41.333L372.377 36.166L352.678 43.6445L365.52 32.4766L378.824 30.3516L389.016 27.7537L402.781 32.2742L414.897 29.2052L426.578 36.111L438.94 35.4272L445.013 46.3237L457.322 47.7444L463.981 59.8591L471.723 64.0858L473.778 79.6054L480.673 86.1445L477.641 99.7238L485.763 110.007L478.147 121.026L486.291 127.913L475.881 137.14L486.424 148.12L473.691 152.227L481.985 164.004L471.584 165.798L478.405 178.748L466.683 178.592L472.588 188.292L459.73 186.744L462.806 200.699L453.09 192.151L449.761 209.063L443.056 196.92L439.424 212.066L431.147 200.897L431.373 216.78L422.225 202.499C424.154 210.602 423.768 219.474 429.09 227.113C445.578 224.881 456.355 220.727 468.988 208.571C480.494 197.5 494.245 174.417 497.969 159.776C502.218 143.069 502.349 112.341 498.164 95.332C494.136 78.9552 488.901 71.1324 479.548 57.7686C470.607 48.2733 461.814 38.2425 450.467 31.471C433.811 21.5317 412.452 18.8516 393.469 19.11C382.958 19.2537 375.917 21.2723 369.633 23.5578C358.643 27.5541 349.854 36.2714 338.681 40.5793C335.037 41.9832 332.117 42.027 329.247 40.4944C332.057 46.1156 335.114 48.6371 342.121 50.6828C347.19 52.1623 359.286 51.2266 367.612 50.458C376.55 49.6324 381.213 46.9748 393.378 47.1418C405.258 47.305 414.673 51.8181 419.82 54.7612C430.44 60.8339 438.056 67.5709 444.674 78.2425C448.308 84.1026 450.854 90.7145 452.647 97.4617C454.439 104.209 455.225 111.766 455.34 118.371C455.454 124.977 454.95 130.873 453.334 136.817C449.555 150.733 441.218 164.894 424.093 162.706C413.614 161.367 397.815 141.697 392.524 134.48C381.848 119.916 370.863 103.799 357.448 91.6707C349.269 84.2779 338.07 79.1903 327.073 78.1837C306.441 76.2957 300.323 80.2145 284.793 93.0149C287.952 94.0223 291.036 94.5783 294.274 96.0373C301.46 99.2751 308.032 103.46 313.764 108.827C319.771 114.453 322.466 118.014 322.679 126.07C322.821 131.42 318.42 135.709 314.385 139.567C311.917 141.93 308.65 144.093 306.651 145.927C304.002 148.361 300.721 151.023 304.049 154.9C305.301 156.357 307.475 157.456 309.308 158.817C312.217 160.977 310.885 169.003 307.052 171.131C302.147 173.853 296.286 173.548 292.242 169.906C297.347 169.142 300.59 168.465 300.457 164.288C300.381 161.868 297.303 159.856 294.283 158.479C286.998 155.159 281.496 155.648 274.246 150.432C266.924 145.16 266.762 142.274 264.783 133.998C261.252 134.368 258.001 134.449 253.28 136.012C248.559 137.575 243.341 141.295 239.055 142.215C228.26 144.538 226.109 143.85 220.202 142.321C209.8 139.629 196.258 144.238 182.804 148.541C180.567 149.256 171.52 148.565 165.429 150.702C156.022 154.003 142.824 161.995 135.201 168.415C123.65 178.144 108.471 207.258 99.8947 240.676C98.9935 250.835 101.883 257.679 95.4833 262.641C89.084 267.603 89.2613 280.314 87.0915 283.88C84.9217 287.444 82.4096 285.868 77.7389 290.875C73.0682 295.882 70.6904 295.045 70.8079 304.511C74.8331 301.865 80.7016 298.788 85.8545 298.603C90.418 298.437 90.4665 304.446 102.179 292.867C108.443 286.672 120.478 286.482 128.827 283.75C137.178 281.018 152.226 275.387 167.297 258.538C182.368 241.689 189.579 223.951 192.502 198.308C192.967 202.854 193.775 207.982 191.828 220.524C189.882 233.066 185.686 247.153 194.525 264.026L200.033 274.538C196.754 270.063 190.349 262.764 188.421 257.562L183.973 245.563C174.022 261.187 171.735 263.981 157.912 275.174C157.362 282.118 157.227 289.361 159.496 296.006C161.766 302.649 158.148 310.308 159.875 314.684C161.602 319.06 165.595 316.569 166.899 320.999C168.203 325.429 166.218 334.187 168.241 338.506C170.263 342.824 175.225 340.203 177.63 341.598C180.035 342.993 180.821 344.906 182.107 346.741C183.393 348.575 181.605 352.91 184.22 354.318C186.835 355.727 190.914 354.534 193.635 355.885C196.356 357.237 196.77 360.486 196.118 363.397C195.465 366.309 192.557 367.645 191.28 370.604C190.004 373.565 190.147 375.626 191.68 378.344C193.214 381.063 196.609 382.561 199.994 383.933C203.378 385.305 208.133 384.534 211.626 386.432C215.119 388.329 218.258 392.11 220.102 394.858C221.946 397.605 222.458 399.544 222.364 402.433C222.269 405.321 221.097 408.648 219.555 411.438C218.013 414.229 214.611 417.624 219.923 422.952C225.234 428.28 225.038 425.983 228.081 429.439C227.75 423.461 225.28 418.59 227.086 414.09C228.893 409.589 234.317 408.806 237.176 406.782C240.036 404.756 241.682 401.975 243.936 399.572C243.903 402.664 244.234 405.989 243.883 408.317C243.166 413.051 241.769 417.254 248.824 418.013C252.002 418.354 255.02 416.294 258.364 415.057C256.612 418.194 253.565 420.716 253.107 424.471C252.649 428.224 253.2 432.347 255.799 436.072C258.398 439.795 262.887 442.56 266.176 444.748C269.465 446.937 271.227 447.113 273.754 448.297C273.878 451.987 273.151 455.893 273.572 459.368C273.993 462.844 275.088 465.921 277.097 468.794C279.108 471.668 282.333 473.316 285.37 475.441C283.705 471.563 280.327 467.884 280.373 463.808C280.419 459.732 281.641 456.843 285.617 453.227C289.592 449.609 298.9 446.472 303.289 442.955C307.678 439.437 309.094 437.283 310.67 433.867C312.245 430.452 311.807 424.951 312.098 421.881C313.543 426.181 313.749 427.518 314.218 432.017C314.69 436.517 311.596 442.828 310.286 446.159C315.716 443.537 319.161 439.346 320.901 435.25C322.065 435.94 321.479 437.833 321.907 441.48C323.841 439.555 326.041 438.074 327.989 436.257C329.938 434.441 332.074 432.844 333.041 430.31C334.007 427.775 333.611 425.08 332.892 422.135C332.173 419.19 328.882 415.775 327.109 412.554C325.339 409.334 327.423 406.173 327.302 402.292C323.757 401.683 320.745 399.877 316.67 400.464C312.592 401.049 307.923 405.625 303.756 405.678C299.589 405.731 297.249 401.827 293.833 400.755C290.417 399.682 286.961 399.799 283.526 399.322C287.877 395.154 304.763 393.169 316.314 391.285C326.477 389.628 336.563 388.67 346.86 388.525C351.459 388.46 357.369 389.979 360.563 389.061C363.758 388.145 363.077 385.968 364.024 383.596C366.675 376.965 365.369 371.061 363.926 364.383C354.682 363.299 345.049 361.973 335.735 362.688C326.629 363.388 315.845 367.717 306.452 368.01C298.286 368.264 286.194 366.446 279.182 362.172C270.613 356.949 263.983 345.731 261.63 342.13C257.797 336.263 252.962 324.754 250.02 319.492C247.079 314.229 246.431 312.757 243.984 310.561C241.537 308.365 238.186 308.195 235.287 307.011C238.629 307.353 242.277 306.295 245.313 308.035C249.873 310.652 254.978 321.497 257.815 326.216C260.822 316.138 260.12 312.175 268.82 306.492C261.809 314.351 261.634 320.303 259.925 329.555C265.756 339.124 273.861 354.367 284.467 358.596C288.299 360.125 294.878 361.084 299.02 361.596C311.91 363.192 324.342 359.107 337.002 355.981C346.256 353.696 355.646 354.617 366.9 355.278C370.721 355.502 379.73 353.203 381.596 349.339C382.604 347.254 382.529 344.748 381.082 342.526C379.633 340.304 375.775 339.229 373.707 337.229C371.639 335.229 370.45 332.855 368.821 330.668C360.225 332.317 353.154 332.951 346.773 333.124C351.35 331.239 355.741 330.163 360.504 328.3C365.267 326.437 370.675 323.38 374.52 320.842C378.364 318.304 380.818 316.832 383.6 313.879C386.38 310.923 389.946 307.88 391.995 304.268C394.047 300.656 394.364 296.616 394.479 292.145C394.593 287.676 394.4 281.405 392.676 277.804C390.954 274.204 387.633 273.112 384.966 272.26C382.297 271.409 380.469 273.562 377.694 273.854C374.917 274.145 372.323 275.895 368.308 274.007C364.293 272.118 359.534 268.275 355.474 262.571C351.416 256.866 348.514 247.541 344.377 240.367C337.245 228.002 328.358 216.451 319.859 204.992C319.16 202.167 318.108 198.262 317.758 194.429C317.148 187.75 317.034 180.812 319.106 174.3C320.695 169.312 323.006 164.044 328.229 161.998C330.318 161.179 332.962 160.854 334.829 161.547C336.699 162.238 338.532 164.347 337.798 166.784C336.991 169.463 335.134 169.535 333.873 170.888C331.732 173.183 330.876 174.867 330.067 177.728C332.381 177.69 335.508 177.514 337.408 178.014C339.887 178.667 342.196 180.311 343.454 183.824C340.495 181.2 339.025 179.995 335.332 179.902C333.64 179.86 331.584 180.465 329.712 180.747C329.012 183.023 328.601 185.814 327.613 187.576C326.625 189.337 324.702 188.914 323.98 190.972C323.258 193.026 323.216 196.371 323.579 199.072ZM349.433 195.987C350.566 196.434 350.998 196.532 352.434 197.624C353.869 198.716 355.85 199.807 356.987 202.417C358.126 205.028 358.073 209.065 357.83 210.71C356.832 210.417 355.471 210.615 354.436 209.729C353.403 208.844 352.786 206.84 351.462 205.981C350.135 205.124 349.03 205.312 347.564 205.126C348.317 207.268 348.683 209.41 348.333 211.353C347.574 215.592 345.081 217.74 341.046 218.247C339.284 218.468 336.485 217.888 334.952 217.609C335.662 219.197 336.867 220.588 337.578 222.175C340.991 221.682 343.52 221.752 345.355 220.894C347.189 220.035 349.157 218.113 351.511 217.298C353.867 216.484 355.967 216.497 358.544 216.095C356.514 217.844 355.182 219.594 353.155 221.343C354.642 225.665 356.129 229.986 357.615 234.307C360.767 236.279 363.724 237.318 367.696 239.753C371.67 242.188 376.434 246.545 381.608 248.921C386.783 251.297 389.864 252.59 395.271 253.609C400.676 254.629 404.978 259.007 410.298 259.719C415.618 260.431 425.554 260.575 429.654 260.174C434.309 259.72 440.356 257.318 440.899 252.215C436.996 253.177 431.036 252.313 428.025 244.969C426.689 241.708 427.344 235.711 425.3 231.854C423.256 227.997 420.406 226.759 417.001 222.007C413.596 217.256 408.026 209.76 404.899 203.394C401.774 197.028 401.038 189.817 398.395 184.113C395.751 178.409 391.763 173.802 388.673 169.406C381.925 159.798 376.482 153.231 365.365 148.384C360.018 146.053 353.93 145.432 348.213 143.955C345.886 144.997 342.696 146.148 342.13 148.869C341.564 151.59 342.651 155.609 344.626 157.652C347.931 161.067 352.828 164.758 354.754 170.187C355.991 173.67 356.35 185.347 355.278 188.516C354.166 191.806 351.581 193.796 349.433 195.987ZM350.509 223.626C349.477 224.517 348.689 225.432 347.028 226.172C345.369 226.911 343.102 227.103 340.899 227.653C343.988 232.461 347.232 237.319 350.191 242.374C353.152 247.428 355.717 252.963 358.543 258.256C358.41 255.222 358.589 251.988 358.147 249.153C357.706 246.319 356.422 243.839 355.148 239.584C353.877 235.329 352.312 229.541 350.509 223.626ZM267.408 117.913C266.972 122.643 267.772 130.036 268.752 134.667C269.925 140.21 271.055 143.084 275.553 146.423C283.79 152.538 289.049 151.507 295.385 155.053C298.4 156.741 302.221 159.569 303.336 162.559C304.451 165.548 302.6 168.795 300.314 170.071C304.313 170.666 308.797 166.158 306.925 161.529C306.004 159.251 301.617 158.236 300.272 155.937C298.929 153.64 298.932 151.274 299.564 148.94C300.707 144.733 309.031 140.91 311.972 137.585C316.498 132.467 318.236 128.187 315.673 121.596C312.073 112.338 298.165 104.909 289.841 101.275C286.03 99.6119 283.893 99.4934 280.92 98.6026C287.007 102.17 293.424 105.011 296.503 112.985C299.074 119.645 296.847 122.154 296.933 127.952C296.973 130.641 300.513 131.985 302.085 133.684C303.453 135.16 303.342 136.256 302.249 138.295C302.129 136.456 301.343 135.084 299.932 134.085C297.602 132.433 295.091 132.788 293.85 129.401C291.966 124.252 295.702 119.375 291.501 113.593C288.358 109.268 284.178 104.426 278.539 104.299C275.87 104.239 273.864 104.642 271.013 105.485L267.213 100.911L267.125 100.852C259.395 93.7966 254.105 87.9822 243.261 83.1334C232.417 78.2854 227.073 77.5513 214.639 77.8274C202.205 78.1026 189.866 79.1427 175.465 91.5615C161.064 103.98 123.95 151.535 114.949 157.554C105.949 163.573 103.955 165.612 92.709 165.615C81.4628 165.617 63.9105 149.71 63.223 129.829C62.5346 109.948 62.2585 102.881 76.0784 78.9309C89.8993 54.9794 114.937 47.625 133.513 45.1417C152.091 42.6585 163.254 49.2015 176.995 49.2322C190.736 49.264 204.316 46.8918 208.321 35.9636C206.361 37.1306 203.735 38.4459 196.351 38.0587C188.966 37.6716 178.728 29.1222 167.21 23.3936C155.692 17.666 142.875 16.9953 126.436 16.6847C109.996 16.374 89.4833 17.6306 69.1605 28.6016C48.8377 39.5727 34.9655 51.2136 23.1782 72.6856C11.3909 94.1585 9.62973 111.69 11.5299 137.689C13.4301 163.688 21.4488 183.024 36.8881 202.053C52.3275 221.082 67.7575 230.393 95.5803 233.854L101.438 208.019L90.9814 223.024L91.2398 206.335L81.7818 218.071L77.6335 202.155L69.9711 214.915L66.1652 197.145L55.0616 206.125L58.5766 191.462L43.8844 193.088L50.6335 182.895L37.237 183.059L45.0318 169.451L33.1456 167.564L42.6232 155.188L28.071 150.874L40.1195 139.337L28.223 129.642L37.528 122.405L28.8266 110.826L38.1083 100.021L34.6437 85.7528L42.5252 78.8824L44.8713 62.5755L53.7165 58.1334L61.3266 45.4039L75.3928 43.9104L82.3331 32.4608L96.4609 33.18L109.812 25.9235L123.658 29.1483L139.385 24.3983L151.034 27.1278L166.235 29.3619L180.911 41.097L158.399 33.2388L147.075 38.6688L137.714 32.9552L131.269 37.333L119.865 38.4748L109.638 37.8143L102.183 46.9151L86.9861 47.0718L81.5654 59.332L68.0523 64.0727L66.7883 78.1651L57.098 85.7565L60.3266 99.0177L51.9581 112.791L58.3779 124.839L52.0598 135.865L60.4655 141.35L58.5588 159.072L70.2491 162.018L72.8825 175.164L85.6213 173.84L93.5355 182.848L103.317 173.297C121.149 164.405 128.493 159.431 142.39 144.4C158.21 127.289 167.277 111.469 188.35 99.7537C203.464 91.3507 215.791 88.3264 232.769 91.2602C248.709 94.0139 254.047 103.576 265.786 113.648C267.031 111.395 267.284 110.798 269.334 109.14C268.69 112.065 267.668 115.1 267.408 117.913Z" fill="black"/>
</g>
<defs>
<clipPath id="clip0_306_2039">
<rect width="500" height="489" fill="white" transform="translate(6 11)"/>
</clipPath>
</defs>
</svg>
