<svg width="512" height="512" viewBox="0 0 512 512" fill="none" xmlns="http://www.w3.org/2000/svg">
<g clip-path="url(#clip0_304_1938)">
<path opacity="0.26" fill-rule="evenodd" clip-rule="evenodd" d="M65.0299 315.866L64.9464 219.823V191.061H6V31L254.579 32.1707L332.338 32.3379C425.398 32.3379 506 102.739 506 195.716V479.244H238.692C145.716 479.245 65.0299 408.759 65.0299 315.866Z" fill="black"/>
<path fill-rule="evenodd" clip-rule="evenodd" d="M470.291 405.095V198.96C470.291 130.093 409.897 74.2671 335.38 74.2671H258.039V74.1008L48.8604 73.1868V148.399H80.9705C103.384 148.399 107.344 163.871 107.344 185.287L107.51 318.253C107.51 387.121 167.904 442.946 242.338 442.946H426.114C449.675 442.946 470.291 428.026 470.291 405.095L470.291 405.095Z" fill="url(#paint0_linear_304_1938)"/>
<path opacity="0.175141" fill-rule="evenodd" clip-rule="evenodd" d="M452.051 422.51C405.053 390.123 371.767 352.92 343.728 303.669C288.458 201.567 301.381 150.883 164.511 138.931C125.012 138.931 98.7198 130.189 57.1445 130.189V144.668C57.1445 144.668 73.5743 153.006 88.0158 153.006C109.551 153.006 113.287 167.945 113.287 188.522L113.423 315.963C113.423 382.132 171.538 435.76 243.055 435.76H419.541C432.495 435.76 444.132 430.655 452.051 422.51Z" fill="url(#paint1_linear_304_1938)"/>
<path fill-rule="evenodd" clip-rule="evenodd" d="M288.487 151.537C271.716 151.537 256.814 157.764 244.841 169.858C232.874 181.947 226.591 197.038 226.591 214.069V300.158H265.638V214.069C265.638 207.541 267.768 202.437 272.429 197.729C277.105 193.006 282.057 190.868 288.487 190.868C295.051 190.868 299.928 192.995 304.615 197.729C309.276 202.437 311.406 207.541 311.406 214.069V300.158H350.453V214.069C350.453 207.541 352.583 202.437 357.244 197.729C361.93 192.995 366.808 190.868 373.372 190.868C379.802 190.868 384.753 193.006 389.43 197.729C394.09 202.437 396.22 207.541 396.22 214.069L396.433 314.659C396.433 336.117 375.998 354.201 349.746 354.201L223.832 353.706C203.573 353.706 186.27 333.987 186.27 308.646V119.221H149.345V315.932C149.345 336.803 156.982 355.105 171.84 369.905C184.539 382.44 199.811 389.857 216.971 391.692V392.4H357.173C378.718 392.4 397.645 384.389 412.915 368.844H412.986C425.972 355.501 433.564 339.513 435.41 321.521L435.268 214.069C435.268 197.038 428.985 181.947 417.017 169.858C405.045 157.764 390.143 151.537 373.372 151.537C356.91 151.537 342.506 157.659 330.859 168.868C319.245 157.677 304.942 151.537 288.487 151.537H288.487Z" fill="black" fill-opacity="0.080402"/>
<path fill-rule="evenodd" clip-rule="evenodd" d="M285.368 152.562C268.598 152.562 253.696 158.789 241.723 170.883C229.756 182.972 223.473 198.063 223.473 215.094V301.183H262.52V215.094C262.52 208.566 264.65 203.462 269.311 198.754C273.987 194.031 278.939 191.892 285.368 191.892C291.933 191.892 296.81 194.02 301.497 198.754C306.157 203.462 308.287 208.566 308.287 215.094V301.183H347.335V215.094C347.335 208.566 349.465 203.462 354.126 198.754C358.812 194.02 363.69 191.892 370.254 191.892C376.684 191.892 381.635 194.031 386.311 198.754C390.972 203.462 393.102 208.566 393.102 215.094L393.314 315.684C393.314 337.142 372.88 355.226 346.627 355.226L220.714 354.731C200.455 354.731 183.152 335.012 183.152 309.671V120.246H146.227V316.957C146.227 337.828 153.864 356.13 168.721 370.93C181.421 383.465 196.693 391.59 213.852 393.425L354.055 393.425C375.599 393.425 394.527 385.414 409.796 369.869H409.867C422.854 356.526 430.446 340.538 432.291 322.546L432.15 215.094C432.15 198.063 425.867 182.972 413.899 170.883C401.927 158.789 387.025 152.562 370.254 152.562C353.792 152.562 339.388 158.683 327.741 169.893C316.127 158.702 301.824 152.562 285.369 152.562H285.368Z" fill="white"/>
<path opacity="0.3" fill-rule="evenodd" clip-rule="evenodd" d="M262.406 354.862V393.425H354.123C375.667 393.425 394.483 385.39 409.753 369.844H409.883C422.87 356.501 430.446 340.545 432.291 322.553V300.666H393.337V315.648C393.337 337.106 372.95 355.123 346.697 355.123L262.406 354.862H262.406Z" fill="#52A800"/>
<path fill-rule="evenodd" clip-rule="evenodd" d="M241.116 471.492C152.358 471.492 75.3339 404.205 75.3339 315.527L75.2543 207.852V180.395H18.9827V43.5869L256.282 44.7044L330.512 44.8641C419.35 44.8641 496.294 112.071 496.294 200.829V471.492H241.116L241.116 471.492ZM460.137 398.886V200.829C460.137 134.66 402.109 81.0219 330.512 81.0219H256.202V80.8622L55.22 79.9841V144.238H77.7339C93.019 144.238 111.412 158.602 111.412 179.68L111.571 315.448C111.571 381.616 169.599 435.254 241.116 435.254H417.691C440.328 435.254 460.137 420.918 460.137 398.886H460.137Z" fill="white"/>
</g>
<defs>
<linearGradient id="paint0_linear_304_1938" x1="7.95692" y1="204.869" x2="170.878" y2="436.944" gradientUnits="userSpaceOnUse">
<stop stop-color="#C7F994"/>
<stop offset="1" stop-color="#87CF3E"/>
</linearGradient>
<linearGradient id="paint1_linear_304_1938" x1="297.636" y1="448.094" x2="371.02" y2="255.921" gradientUnits="userSpaceOnUse">
<stop stop-color="#3D3D3D"/>
<stop offset="1" stop-opacity="0.114007"/>
</linearGradient>
<clipPath id="clip0_304_1938">
<rect width="500" height="449" fill="white" transform="translate(6 31)"/>
</clipPath>
</defs>
</svg>
