<svg width="512" height="512" viewBox="0 0 512 512" fill="none" xmlns="http://www.w3.org/2000/svg">
<path d="M235.723 139.883C247.696 127.788 262.597 121.562 279.368 121.562C295.824 121.562 310.127 127.702 321.741 138.893C333.388 127.683 347.792 121.562 364.254 121.562C381.025 121.562 395.926 127.788 407.899 139.883C419.867 151.972 426.15 167.063 426.15 184.094L426.291 291.546C424.446 309.538 416.854 325.526 403.867 338.869H403.796C388.527 354.414 369.599 362.425 348.055 362.425L207.852 362.425C190.693 360.59 175.42 352.465 162.721 339.93C147.864 325.13 140.227 306.828 140.227 285.957V89.2458H177.152V278.671C177.152 304.012 194.455 323.731 214.714 323.731L340.627 324.226C366.88 324.226 387.314 306.142 387.314 284.684L387.102 184.094C387.102 177.566 384.972 172.462 380.311 167.754C375.635 163.031 370.684 160.892 364.254 160.892C357.689 160.892 352.812 163.02 348.126 167.754C343.465 172.462 341.335 177.566 341.335 184.094V270.183H302.287V184.094C302.287 177.566 300.157 172.462 295.496 167.754C290.81 163.02 285.933 160.892 279.368 160.892C272.939 160.892 267.987 163.031 263.311 167.754C258.65 172.462 256.52 177.566 256.52 184.094V270.183H217.473V184.094C217.472 167.063 223.756 151.972 235.723 139.883Z" fill="#9B9B9B"/>
<path fill-rule="evenodd" clip-rule="evenodd" d="M232.692 448.244C139.716 448.245 59.0299 377.759 59.0299 284.866L58.9464 160.061H0V0L248.579 1.17065L326.338 1.33791C419.398 1.33791 500 71.7391 500 164.716V448.244H232.692ZM454.137 367.886V169.829C454.137 103.66 396.109 50.022 324.512 50.022H250.202V49.8623L49.22 48.9841V113.238H71.7339C87.019 113.238 105.412 127.602 105.412 148.68L105.571 284.448C105.571 350.616 163.599 404.254 235.116 404.254H411.691C434.328 404.254 454.137 389.918 454.137 367.886Z" fill="#9B9B9B"/>
</svg>
