<svg width="512" height="512" viewBox="0 0 512 512" fill="none" xmlns="http://www.w3.org/2000/svg">
<g clip-path="url(#clip0_304_229)">
<path fill-rule="evenodd" clip-rule="evenodd" d="M427.875 340.603C426.628 345.741 424.395 351.964 421.478 358.836C419.348 358.393 417.292 358.777 416.162 358.988L416.158 358.989C415.801 359.055 415.536 359.105 415.392 359.105C414.738 359.105 412.41 362.742 410.188 366.213L410.187 366.215C408.776 368.42 407.407 370.559 406.538 371.655C404.202 374.574 397.879 379.633 393.403 382.455C388.926 385.276 385.425 386.833 375.889 386.152C367.312 385.452 364.246 382.784 361.521 380.414L361.518 380.411C361.365 380.279 361.214 380.147 361.063 380.017C360.913 379.887 360.763 379.759 360.612 379.633C360.391 379.44 360.17 379.251 359.95 379.062L359.948 379.061L359.946 379.059C357.172 376.681 354.623 374.497 355.164 368.639C355.24 367.936 355.316 367.257 355.391 366.602C355.985 361.351 356.407 357.621 354.679 355.891C353.396 354.608 351.805 353.978 349.257 353.686C349.695 352.524 350.379 351.253 351.469 349.474C353.831 345.891 353.739 339.379 353.646 332.788C353.628 331.503 353.61 330.215 353.61 328.945C353.61 308.706 351.273 288.081 346.603 272.902C343.794 263.582 339.897 256.105 335.9 248.437C333.805 244.418 331.682 240.346 329.675 235.929C324.41 224.392 321.638 215.723 319.227 208.182C316.29 198.998 313.889 191.489 308.172 182.513C303.674 175.36 301.718 169.114 300.167 164.159C299.027 160.52 298.106 157.576 296.555 155.479C298.421 152.018 299.382 147.568 299.753 141.732C300.105 136.522 296.816 133.282 291.931 130.903C295.865 128.025 298.003 123.956 299.413 118.683C301.749 109.926 301.846 100.197 295.327 88.8129C289.198 77.917 285.695 76.1643 276.84 75.4832C263.219 74.3156 256.796 83.8508 253.782 90.6616C251.121 96.7886 251.133 97.1041 251.325 102.346C251.364 103.43 251.412 104.725 251.445 106.326C251.522 110.185 252.423 112.951 253.695 115.258C249.12 113.987 243.607 113.492 239.139 114.043C237.826 114.194 236.638 114.268 235.512 114.338C233.408 114.469 231.526 114.586 229.465 115.169C230.567 112.371 231.257 109.16 231.207 104.089C231.207 95.1134 228.641 91.6024 224.653 86.1477C224.318 85.6892 223.973 85.2169 223.618 84.7265C219.24 78.694 212.234 78.4021 207.856 79.1805C205.326 79.5697 202.019 82.7805 199.78 87.5481C198.321 90.7589 197.153 94.8454 197.054 99.1265C196.763 110.608 197.737 114.986 200.363 122.77C201.662 126.587 203.742 129.641 206.133 131.742C205.978 131.871 205.824 131.998 205.672 132.124C199.727 137.043 195.868 140.236 196.042 147.343C196.078 151.088 197.534 154.396 199.796 157.445C199.389 158 199.147 158.965 199.099 160.424C198.876 167.548 199.004 170.533 199.154 174.042C199.266 176.667 199.391 179.585 199.391 184.748C199.391 190.108 197.762 192.168 194.334 196.503C192.597 198.699 190.398 201.48 187.715 205.57C183.629 211.991 180.418 218.899 177.888 225.905C176.332 230.089 174.872 234.467 173.704 238.748C173.461 239.818 173.121 240.913 172.78 242.008C172.44 243.102 172.099 244.197 171.856 245.267C169.939 252.325 165.665 260.17 161.373 268.045C156.732 276.562 152.072 285.115 150.353 292.748C149.639 295.9 148.897 298.807 148.178 301.625C145.568 311.854 143.258 320.907 143.64 336.241C144.014 351.31 144.216 351.417 147.004 352.898C147.834 353.34 148.894 353.903 150.256 355.02C152.071 356.533 153.904 358.017 155.848 359.59L155.849 359.591L155.851 359.592C160.157 363.078 165.001 366.999 171.369 372.63C174.812 375.626 179.571 379.413 184.405 383.26C193.23 390.283 202.302 397.503 204.061 400.458C206.98 405.128 206.883 415.636 205.132 419.041C203.487 422.147 189.923 423.966 188.35 424.177C188.247 424.191 188.196 424.198 188.202 424.198C188.106 424.198 201.532 442.685 204.16 445.31C204.212 445.362 204.267 445.418 204.327 445.478L204.333 445.484C207.167 448.348 218.529 459.828 261.954 451.732C286.96 447.063 306.322 433.052 320.333 419.526C323.386 416.555 325.664 413.942 327.352 411.607C327.244 413.359 327.111 415.063 326.949 416.702C325.873 427.704 324.233 436.522 322.778 444.347C321.209 452.783 319.855 460.065 319.653 467.687C319.447 473.943 320.216 479.328 321.511 483.755C294.528 476.73 284.331 477.361 258.587 478.954C256.053 479.111 253.369 479.277 250.503 479.446C242.681 479.91 237.129 480.097 232.93 480.239H232.929C227.006 480.438 223.777 480.547 220.668 481.214C216.941 482.014 213.387 483.616 205.573 487.137L204.287 487.716C203.463 488.089 202.561 488.249 201.588 488.213C202.222 487.717 202.815 487.268 203.371 486.847C208.776 482.755 210.616 481.361 210.385 466.812C210.192 454.684 204.95 448.202 197.554 439.055C193.796 434.408 189.482 429.073 184.991 421.959C177.713 410.431 173.77 404.037 170.249 398.326L170.248 398.324C167.321 393.577 164.685 389.302 160.666 382.943C151.812 369.126 134.299 344.024 124.277 343.73C117.517 343.566 113.272 346.614 109.115 350.627C108.583 348.51 108.085 346.636 107.638 344.949C103.861 330.716 103.619 329.803 115.843 308.787C122.228 297.812 126.156 286.896 130.25 275.517C135.266 261.577 140.531 246.943 150.87 230.657C157.095 220.82 163.64 212.587 169.553 205.15C181.478 190.149 190.83 178.386 189.789 163.23C189.523 159.567 189.258 155.984 189 152.479C183.317 75.4517 180.421 36.1883 216.158 17.5758C251.769 -0.910707 281.542 10.0839 293.315 16.4082C293.568 16.5446 293.835 16.6874 294.114 16.8367C299.401 19.6688 309.073 24.8496 316.374 33.6298C324.061 42.6785 330.969 56.3974 334.861 73.7163C338.721 90.5234 338.072 96.5101 337.397 102.721C336.678 109.346 335.931 116.226 340.602 136.765C348.074 169.901 361.987 188.936 379.284 212.602L379.286 212.605L379.292 212.613C382.714 217.295 386.268 222.158 389.931 227.347C412.112 258.776 435.269 310.635 427.875 340.603ZM283.596 31.7778C282.194 34.5346 280.787 42.4129 283.557 40.89C284.481 40.3795 285.692 39.9105 286.916 39.4363C289.213 38.546 291.558 37.6374 292.144 36.4021C292.66 33.4616 285.161 28.5481 283.596 31.7778ZM221.876 74.8197C221.251 75.4099 222.157 76.07 223.535 77.0743C224.043 77.4451 224.616 77.8629 225.2 78.3413C226.15 79.1221 226.753 80.0029 227.234 80.7059C227.901 81.6808 228.334 82.3136 229.133 81.8629C230.461 81.1278 228.494 78.7494 227.248 77.2778C225.599 75.2738 222.759 74.0629 221.876 74.8197ZM285.452 70.9346C285.387 71.4723 286.526 71.9084 287.615 72.3252C287.935 72.4477 288.251 72.5687 288.53 72.69C289.764 73.1778 292.137 75.0292 293.232 76.3548C293.307 76.4499 293.392 76.5572 293.484 76.6743L293.684 76.9312L293.685 76.9322C294.913 78.5044 297.05 81.242 297.546 80.4819C298.068 79.6656 296.875 77.244 295.518 75.8832C294.245 74.5251 292.817 73.0319 290.41 71.7319C288.486 70.6805 285.529 70.3778 285.452 70.9346ZM139.382 339.718C133.35 330.572 133.618 317.875 134.226 309.944C134.542 308.243 131.842 308.974 131.427 309.97C130.967 311.891 129.726 320.21 130.6 324.759C131.938 331.74 133.641 337.48 137.509 342.053C141.303 346.674 145.414 348.84 139.382 339.718ZM140.303 288.835C145.214 274.544 147.503 270.121 150.776 263.878C154.033 257.651 154.302 253.052 151.922 256.076C149.028 259.773 144.329 270.072 142.513 274.055L142.207 274.724C142.207 274.724 138.799 282.017 138.327 287.029C138.214 288.785 139.741 290.395 140.303 288.835ZM346.239 241.575C344.637 239.044 357.287 242.91 365.427 252.839C366.67 254.359 364.509 256.149 363.12 254.699C355.702 247.076 347.62 242.379 346.389 241.663C346.338 241.634 346.299 241.611 346.272 241.595L346.249 241.581L346.239 241.575ZM380.625 274.086C384.69 281.32 385.752 296.428 383.758 301.899C383.301 303.137 380.806 300.682 380.821 298.963C381.523 284.626 375.857 273.693 374.091 270.283L374.09 270.281L374.089 270.28C373.764 269.653 373.572 269.282 373.575 269.19C373.495 268.897 375.172 266.709 376.317 266.971C377.12 267.173 378.003 268.951 379.048 271.055C379.536 272.037 380.059 273.09 380.625 274.086ZM388.802 343.98C386.25 343.622 384.297 343.348 384.134 342.375C383.932 341.427 386.006 341.044 389.364 341.359C392.875 341.743 395.708 342.793 399.451 344.18L399.453 344.181L399.455 344.181L399.464 344.185C399.968 344.371 400.487 344.564 401.028 344.762C407.045 346.956 409.848 349.233 410.187 351.966C410.472 354.229 409.272 355.514 407.451 355.405C406.514 355.256 406.514 354.948 406.514 354.355C406.514 353.619 406.514 352.445 404.732 350.591C401.134 347.049 399.338 346.517 394.416 345.06L394.299 345.025C392.434 344.49 390.487 344.217 388.802 343.98ZM372.678 344.316C366.84 344.316 363.578 347.118 361.488 348.914L361.487 348.914C361.264 349.106 361.053 349.287 360.855 349.451C360.761 349.565 360.669 349.677 360.577 349.786L360.576 349.788C360.511 349.869 360.446 349.95 360.382 350.03C360.278 350.159 360.176 350.286 360.074 350.407C359.931 350.59 359.789 350.769 359.649 350.937C359.496 351.136 359.346 351.327 359.196 351.507C359.057 351.688 358.919 351.863 358.782 352.027C358.647 352.206 358.513 352.377 358.379 352.538C358.248 352.713 358.116 352.882 357.985 353.04C356.972 354.399 355.964 355.332 354.872 354.241C353.705 353.072 356.236 349.375 358.471 346.747C360.807 344.024 364.699 341.006 370.537 340.228C371.431 340.094 372.233 339.976 372.952 339.881C372.875 338.391 373.779 335.942 375.002 332.625L375.003 332.623C375.924 330.124 377.028 327.132 378.03 323.687C378.771 321.066 379.411 316.21 379.893 312.558C380.233 309.973 380.495 307.99 380.656 307.829C381.921 306.564 385.034 310.164 385.034 312.206C385.191 319.018 380.056 334.334 376.472 339.652C377.833 339.767 378.413 340.321 378.514 341.59C378.533 341.754 378.553 341.908 378.571 342.053L378.572 342.057C378.839 344.146 378.861 344.316 372.678 344.316ZM241.322 104.902C242.757 104.631 244.446 104.803 247.118 106.052C248.953 106.952 248.169 107.468 245.454 106.897C243.771 106.544 243.633 106.522 243.232 106.458C243.018 106.424 242.729 106.378 242.091 106.263C239.018 105.753 238.48 105.417 241.322 104.902Z" fill="#9B9B9B"/>
<path d="M230.045 234.324C230.595 234.385 232.29 234.113 234.135 233.817C236.858 233.381 239.907 232.892 240.088 233.343C240.226 233.618 239.151 234.114 237.77 234.752C236.127 235.51 234.051 236.469 233.067 237.494C232.463 238.098 230.876 239.533 229.895 239.382C229.46 239.338 229.125 238.795 228.704 238.111C228.393 237.607 228.035 237.026 227.554 236.513C226.261 235.219 225.189 234.592 224.479 234.177C223.697 233.72 223.352 233.518 223.629 232.964C223.886 232.492 225.172 232.925 226.664 233.427C227.792 233.807 229.037 234.226 230.045 234.324Z" fill="#9B9B9B"/>
<path d="M221.469 313.925C222.211 302.024 222.745 293.454 220.31 293.332C216.418 293.137 213.013 318.726 213.014 341.202C213.014 363.678 217.88 373.795 220.7 370.974C222.288 369.386 222.027 366.194 221.495 359.7C221.082 354.656 220.506 347.62 220.506 337.795C220.506 329.377 221.025 321.053 221.469 313.925Z" fill="#9B9B9B"/>
<path d="M290.269 236.683C291.002 234.155 309.636 233.556 314.161 234.287C318.687 235.02 335.857 256.382 332.329 257.781C330.659 258.442 328.526 256.299 325.55 253.308C322.24 249.981 317.886 245.606 311.964 242.872C305.892 240.07 299.839 239.227 295.67 238.646C292.117 238.151 289.932 237.847 290.269 236.683Z" fill="#9B9B9B"/>
<g clip-path="url(#clip1_304_229)">
<path d="M343.587 357.46C349.805 357.46 351.045 357.974 351.748 358.622C351.786 358.748 351.929 359.256 351.907 360.555C351.875 362.467 351.549 364.853 351.187 368.209L351.183 368.24L351.18 368.271C350.819 372.186 351.564 375.206 353.184 377.701C354.632 379.93 356.737 381.561 357.985 382.649L358.013 382.674L358.042 382.698C359.281 383.737 361.186 385.599 363.904 387.069C366.738 388.6 370.365 389.715 375.564 390.139L375.585 390.141L375.604 390.142C380.599 390.499 384.323 390.295 387.513 389.497C390.752 388.688 393.17 387.33 395.536 385.839V385.838C397.938 384.324 400.769 382.254 403.3 380.192C405.771 378.177 408.214 375.962 409.661 374.155L409.667 374.148L409.673 374.14C410.952 372.527 413.086 369.087 414.762 366.493C415.663 365.101 416.466 363.889 417.091 363.043C417.139 362.977 417.187 362.917 417.23 362.861C417.363 362.837 417.499 362.81 417.648 362.786C418.304 362.681 419.014 362.607 419.725 362.639C421.075 362.699 422.208 363.1 423.087 364.382L423.29 364.687C425.264 367.768 425.354 371.427 425.104 376.139C424.985 378.395 424.782 381.058 424.925 383.532C425.071 386.072 425.589 388.847 427.178 391.389L427.181 391.394C431.057 397.574 436.78 403.621 442.126 408.467C447.129 413.003 452.05 416.711 455.203 418.638L455.809 418.999C458.184 420.442 459.894 421.253 461.359 422.632C462.534 423.739 463.31 425.038 463.252 427.28C463.129 430.591 462.284 432.362 461.474 433.487C461.035 434.097 460.53 434.623 459.936 435.172C459.503 435.573 458.502 436.436 457.904 437.033C457.168 437.769 455.323 439.078 452.283 440.953C449.367 442.752 445.715 444.858 441.666 447.181C433.637 451.788 424.095 457.223 416.447 462.438L416.438 462.444C397.439 475.469 390.708 481.364 384.347 487.723V487.724C379.886 492.186 375.704 495.01 371.08 496.761C366.422 498.525 361.06 499.298 354.094 499.298C340.205 499.298 334.77 496.432 331.266 493.308L331.248 493.29L331.228 493.274C327.928 490.405 323.191 481.81 323.651 467.819V467.793C323.836 460.809 325.038 454.078 326.541 445.99C328.035 437.95 329.793 428.717 330.93 417.091L330.929 417.09C331.927 407.019 331.825 394.617 331.825 383.913C331.825 377.071 331.876 370.944 332.272 366.328C332.471 364.008 332.744 362.258 333.075 361.067C333.2 360.618 333.311 360.323 333.392 360.147C335.789 358.651 336.892 358.114 337.932 357.835C339.067 357.532 340.384 357.46 343.587 357.46Z" stroke="#9B9B9B" stroke-width="8"/>
<path d="M124.16 347.728V347.729C125.251 347.761 127.33 348.61 130.412 351.133C133.326 353.518 136.549 356.903 139.844 360.834C146.009 368.19 152.094 377.056 156.451 383.785L157.299 385.101C161.704 392.073 164.44 396.527 167.746 401.887C171.059 407.259 174.934 413.523 181.609 424.094C188.334 434.747 195.092 442.044 199.36 447.821C203.695 453.687 206.257 458.828 206.386 466.875C206.534 476.195 205.735 478.848 204.691 480.337C204.136 481.128 203.343 481.837 201.757 483.05C200.24 484.21 198.142 485.733 195.667 487.949C190.568 492.47 187.963 495.294 184.532 497.2C181.486 498.892 177.644 499.854 170.416 499.309C163.372 498.73 154.341 495.398 143.402 491.252C132.714 487.202 120.544 482.53 107.97 479.924H107.971C85.0481 475.135 71.9168 472.292 63.8644 469.643C59.8776 468.332 57.4007 467.148 55.6945 465.959C54.0804 464.835 53.0209 463.612 52.0265 461.96C50.2059 458.829 50.5927 455.825 52.0089 449.047L52.0245 448.971C52.9758 443.931 54.5232 437.114 54.5255 428.206C54.5765 417.953 53.1065 409.9 52.4064 404.067C51.6704 397.935 51.9102 394.94 53.6202 392.651C54.3171 391.749 55.85 390.729 58.6495 389.721C61.3728 388.741 64.7011 387.972 68.3888 387.184C71.9738 386.419 75.9186 385.633 79.4728 384.639C82.9894 383.656 86.5764 382.356 89.3546 380.349C94.3218 376.761 98.3684 371.476 101.636 366.813C102.466 365.629 103.262 364.458 104.017 363.349C104.777 362.231 105.489 361.183 106.175 360.202C107.574 358.201 108.727 356.688 109.717 355.678C114.693 350.604 118.075 347.586 124.16 347.728Z" stroke="#9B9B9B" stroke-width="8"/>
</g>
<g clip-path="url(#clip2_304_229)">
<path fill-rule="evenodd" clip-rule="evenodd" d="M219.627 99.4197C217.877 96.7926 214.18 94.8467 211.261 94.8467C208.147 94.8467 205.909 96.1115 204.158 98.8359C202.048 101.92 202.172 105.342 202.271 108.086C202.291 108.632 202.309 109.151 202.309 109.636C202.309 114.306 205.52 119.949 206.591 121.117C207.513 122.068 208.188 122.926 208.767 123.661C210.142 125.408 210.976 126.468 213.304 126.468C214.763 126.468 217.293 125.885 218.461 125.203C222.157 123.063 222.838 116.155 222.838 109.928C222.838 105.744 221.476 102.047 219.627 99.4197ZM217.441 103.568C216.202 100.857 212.793 100.239 211.942 101.555C211.162 102.762 212.007 103.97 213.643 106.307C213.792 106.521 213.948 106.743 214.11 106.976C214.885 108.154 215.238 109.382 215.527 110.386C215.96 111.89 216.248 112.893 217.595 112.475C218.446 112.166 218.68 106.279 217.441 103.568Z" fill="#9B9B9B"/>
</g>
<g clip-path="url(#clip3_304_229)">
<path fill-rule="evenodd" clip-rule="evenodd" d="M288.904 109.344C287.445 100.976 283.164 94.4575 275.866 94.4575C272.753 94.4575 269.055 94.9427 267.014 97.1818C264.289 100.198 262.732 103.993 262.732 109.344C262.732 114.112 263.219 120.825 265.359 123.841C267.195 126.346 270.463 126.272 273.628 126.2C274.152 126.188 274.674 126.176 275.185 126.176C278.98 126.176 283.65 124.036 286.277 120.533C288.612 117.517 289.488 113.139 288.904 109.344ZM281.675 101.062C279.892 99.0454 278.185 98.2697 277.411 99.0454C276.114 100.276 276.931 101.076 278.232 102.348C278.487 102.597 278.76 102.864 279.039 103.156C279.351 103.516 279.626 104.062 279.9 104.607C280.512 105.823 281.123 107.037 282.141 106.179C283.691 104.939 283.614 103.233 281.675 101.062Z" fill="#9B9B9B"/>
</g>
<g clip-path="url(#clip4_304_229)">
<path d="M239.628 118.012C242.675 117.637 246.435 117.818 249.959 118.492C253.566 119.182 256.42 120.291 257.947 121.419C262.314 124.668 265.596 126.566 269.898 127.997L269.905 127.999L269.912 128.001C273.181 129.075 276.755 130.02 279.988 130.938C283.309 131.881 286.342 132.814 288.914 133.921C291.516 135.041 293.315 136.203 294.408 137.427C295.38 138.517 295.879 139.733 295.762 141.462L295.761 141.47V141.478C295.345 148.023 294.179 152.081 292.248 154.863C290.504 157.376 287.812 159.304 283.221 160.88L282.303 161.183C279.495 162.049 276.391 163.799 273.386 165.656C270.535 167.418 266.768 169.932 263.697 171.858C260.359 173.951 257.057 175.868 253.89 177.262C250.696 178.668 247.896 179.425 245.527 179.438L245.519 179.439C242.584 179.461 239.387 179.537 236.304 179.412C233.161 179.283 230.612 178.954 228.95 178.355L228.932 178.349L228.733 178.27C228.233 178.054 227.491 177.611 226.461 176.815C225.321 175.933 224.039 174.787 222.577 173.418C219.744 170.766 216.235 167.262 212.528 164.208L212.516 164.198L212.504 164.189L211.184 163.109C208.153 160.605 205.489 158.205 203.493 155.692C201.252 152.871 200.07 150.172 200.042 147.304L200.041 147.275V147.245L200.038 146.677C200.078 143.91 200.954 142.138 202.594 140.284C203.56 139.192 204.795 138.075 206.393 136.728C207.906 135.453 209.88 133.861 211.868 132.139L211.882 132.126L211.896 132.115C216.074 128.428 223.179 122.556 227.92 120.06C231.868 118.068 233.652 118.701 239.597 118.016L239.628 118.012Z" stroke="#9B9B9B" stroke-width="8"/>
<path fill-rule="evenodd" clip-rule="evenodd" d="M245.964 127.776C246.81 129.525 248.98 129.767 250.429 130.551C251.816 131.336 252.599 131.516 253.144 131.214C254.35 130.551 253.446 128.379 252.239 127.595C251.091 126.812 245.481 126.629 245.964 127.776Z" fill="#9B9B9B"/>
<path fill-rule="evenodd" clip-rule="evenodd" d="M223.853 130.751C223.568 131.467 225.576 132.832 226.581 131.899C227.658 130.967 228.95 130.105 229.381 129.818C231.319 128.525 230.6 127.594 227.372 128.168C224.144 128.742 224.141 130.033 223.853 130.751Z" fill="#9B9B9B"/>
<path fill-rule="evenodd" clip-rule="evenodd" d="M201.426 154.698C203.207 154.936 206.533 157.505 210.481 160.157C216.337 164.648 224.934 166.391 231.135 166.802C245.942 168.524 271.412 154.778 276.216 150.947C281.835 146.852 288.26 141.676 290.821 141.206C292.029 142.952 288.756 143.194 284.2 146.995C279.246 150.279 276.689 152.357 269.927 156.179C262.198 160.224 248.202 168.084 231.554 167.938C222.377 166.894 217.695 165.738 214.571 163.886C210.131 161.141 204.323 158.026 201.426 154.698H201.426Z" fill="#9B9B9B"/>
</g>
</g>
<defs>
<clipPath id="clip0_304_229">
<rect width="422" height="497" fill="white" transform="translate(46 7)"/>
</clipPath>
<clipPath id="clip1_304_229">
<rect width="422" height="161" fill="white" transform="translate(46 343)"/>
</clipPath>
<clipPath id="clip2_304_229">
<rect width="21" height="33" fill="white" transform="translate(202 94)"/>
</clipPath>
<clipPath id="clip3_304_229">
<rect width="28" height="33" fill="white" transform="translate(262 94)"/>
</clipPath>
<clipPath id="clip4_304_229">
<rect width="104" height="71" fill="white" transform="translate(196 113)"/>
</clipPath>
</defs>
</svg>
