<svg width="512" height="512" viewBox="0 0 512 512" fill="none" xmlns="http://www.w3.org/2000/svg">
<path fill-rule="evenodd" clip-rule="evenodd" d="M255.908 510.727C396.944 510.727 511.275 396.393 511.275 255.366C511.275 114.331 396.946 0 255.908 0C114.871 0 0.540527 114.331 0.540527 255.366C0.540527 396.393 114.87 510.727 255.908 510.727ZM48.1655 255.366C48.1655 236.529 63.4279 221.265 82.2668 221.265C101.095 221.265 116.358 236.529 116.358 255.366C116.358 274.195 101.095 289.457 82.2668 289.457C63.4279 289.457 48.1655 274.195 48.1655 255.366ZM313.218 422.78C303.798 406.481 309.389 385.641 325.697 376.222C341.992 366.814 362.844 372.404 372.253 388.701C381.671 405.01 376.08 425.85 359.774 435.259C343.466 444.677 322.626 439.087 313.218 422.78ZM198.667 173.882C173.059 191.907 156.324 221.673 156.324 255.366C156.324 289.061 173.059 318.826 198.667 336.84L173.741 378.599C143.899 358.66 121.704 328.189 112.493 292.493C123.255 283.711 130.144 270.342 130.144 255.365C130.144 240.379 123.255 227.01 112.493 218.228C121.716 182.542 143.911 152.073 173.741 132.134L198.667 173.882ZM355.098 246.532C350.618 195.661 307.934 155.771 255.908 155.771C240.921 155.771 226.703 159.104 213.959 165.035L190.269 122.583C210.054 112.79 232.337 107.254 255.905 107.254C269.615 107.254 282.876 109.158 295.477 112.635C297.699 126.336 305.828 138.958 318.793 146.44C331.735 153.9 346.71 154.65 359.673 149.752C384.883 174.544 401.289 208.259 403.68 245.816L355.098 246.532ZM213.96 345.687C226.703 351.616 240.921 354.951 255.908 354.951C307.936 354.951 350.618 315.075 355.088 264.19L403.681 264.907C401.291 302.463 384.884 336.178 359.675 360.971C346.711 356.073 331.746 356.808 318.794 364.281C305.832 371.777 297.7 384.386 295.478 398.087C282.879 401.575 269.618 403.48 255.908 403.48C232.338 403.48 210.055 397.943 190.27 388.138L213.96 345.687ZM372.242 122.021C362.834 138.329 341.992 143.907 325.685 134.489C309.388 125.081 303.798 104.239 313.204 87.9409C322.626 71.6335 343.466 66.0435 359.774 75.4517C376.083 84.8719 381.661 105.714 372.242 122.021Z" fill="#DD4814"/>
</svg>
