<svg width="552" height="552" viewBox="0 0 552 552" fill="none" xmlns="http://www.w3.org/2000/svg">
<rect x="0.5" y="0.5" width="551" height="551" rx="4.5" stroke="#9747FF" stroke-dasharray="10 5"/>
<path d="M46.6977 362.817L20.3452 448.837H41.0819L45.8384 432.809H71.5444L76.1724 448.837H98.7222L72.3716 362.817H46.6977ZM51.0467 415.506L58.8751 388.752L66.6152 415.506H51.0467Z" fill="#00979C"/>
<path d="M148.269 409.593C147.958 409.259 147.64 408.944 147.317 408.649C147.966 408.404 148.598 408.143 149.217 407.858C151.726 406.705 153.925 405.161 155.752 403.28C157.599 401.381 159.051 399.092 160.065 396.476C161.069 393.892 161.579 390.922 161.579 387.655C161.579 383.152 160.765 379.257 159.167 376.074C157.551 372.856 155.212 370.205 152.218 368.196C149.313 366.248 145.779 364.84 141.713 364.015C137.806 363.222 133.405 362.817 128.636 362.817H101.736V448.837H122.366V415.227H122.978C125.235 415.227 127.117 415.722 128.729 416.746C130.329 417.76 131.556 419.256 132.485 421.328L144.954 448.837H168.957L153.808 418.152C151.973 414.425 150.16 411.629 148.269 409.593ZM139.296 393.09C138.7 394.227 137.872 395.158 136.766 395.937C135.6 396.757 134.152 397.385 132.457 397.807C130.668 398.254 128.626 398.479 126.386 398.479H122.366V380.371H126.9C131.622 380.371 135.132 381.112 137.33 382.576C139.246 383.85 140.177 385.999 140.177 389.147C140.177 390.669 139.888 391.96 139.296 393.09Z" fill="#00979C"/>
<path d="M229.4 373.032C225.927 369.541 221.546 366.927 216.38 365.266C211.344 363.642 205.417 362.817 198.765 362.817H171.481V448.837H195.231C202.895 448.837 209.599 447.793 215.155 445.735C220.797 443.649 225.509 440.621 229.157 436.738C232.8 432.863 235.514 428.129 237.221 422.669C238.895 417.325 239.743 411.313 239.743 404.802C239.743 397.704 238.893 391.478 237.215 386.296C235.5 380.987 232.872 376.526 229.4 373.032ZM212.533 425.31C208.951 429.289 203.755 431.223 196.647 431.223H192.109V380.431H197.737C201.715 380.431 205.054 380.993 207.658 382.104C210.184 383.178 212.137 384.696 213.631 386.74C215.157 388.836 216.263 391.466 216.918 394.552C217.606 397.817 217.958 401.599 217.958 405.796C217.958 414.747 216.133 421.312 212.533 425.31Z" fill="#00979C"/>
<path d="M289.438 417.54C289.438 420.505 289.165 423.033 288.621 425.053C288.115 426.938 287.37 428.478 286.402 429.629C285.474 430.735 284.34 431.516 282.936 432.016C281.408 432.562 279.455 432.837 277.126 432.837C274.662 432.837 272.63 432.522 271.086 431.897C269.603 431.295 268.41 430.434 267.438 429.267C266.462 428.093 265.764 426.619 265.36 424.88C264.91 422.961 264.683 420.702 264.683 418.16V362.817H244.055V419.092C244.055 423.742 244.631 428.01 245.764 431.777C246.942 435.69 248.886 439.073 251.542 441.826C254.199 444.577 257.676 446.705 261.879 448.145C265.962 449.552 270.898 450.265 276.546 450.265C281.595 450.265 286.229 449.552 290.313 448.145C294.489 446.713 298.089 444.543 301.015 441.691C303.942 438.836 306.213 435.242 307.765 431.01C309.291 426.854 310.066 421.987 310.066 416.544V362.817H289.438V417.54Z" fill="#00979C"/>
<path d="M320.616 380.122H339.128V431.409H320.616V448.837H378.527V431.409H360.015V380.122H378.527V362.817H320.616V380.122Z" fill="#00979C"/>
<path d="M435.934 411.831L412.872 362.817H389.523V448.837H408.736V398.891L431.92 448.837H455.151V362.817H435.934V411.831Z" fill="#00979C"/>
<path d="M521.935 372.994C515.912 365.334 506.882 361.451 495.103 361.451C490.063 361.451 485.256 362.345 480.815 364.106C476.311 365.891 472.332 368.669 468.985 372.372C465.668 376.042 463.034 380.762 461.161 386.398C459.307 391.962 458.368 398.634 458.368 406.232C458.368 420.266 461.353 431.185 467.24 438.69C473.264 446.372 482.293 450.265 494.073 450.265C499.114 450.265 503.925 449.371 508.366 447.611C512.872 445.824 516.849 443.043 520.192 439.346C523.505 435.678 526.139 430.96 528.019 425.32C529.868 419.758 530.807 413.086 530.807 405.485C530.807 391.41 527.822 380.477 521.935 372.994ZM508.358 417.69C507.768 420.864 506.846 423.541 505.62 425.647C504.455 427.653 503.013 429.123 501.216 430.137C499.425 431.146 497.195 431.658 494.589 431.658C489.433 431.658 485.839 429.739 483.602 425.794C481.144 421.459 479.897 414.628 479.897 405.485C479.897 401.192 480.207 397.335 480.821 394.028C481.411 390.86 482.339 388.187 483.584 386.081C484.768 384.067 486.214 382.594 488.003 381.576C489.768 380.57 491.982 380.06 494.589 380.06C499.785 380.06 503.389 381.975 505.603 385.914C508.043 390.251 509.28 397.088 509.28 406.232C509.28 410.536 508.971 414.391 508.358 417.69Z" fill="#00979C"/>
<path d="M501.007 112.525H504.668V122.148H507.264V112.525H510.954V110.136H501.007V112.525Z" fill="#00979C"/>
<path d="M519.987 110.136L517.483 118.323L514.893 110.136H511.506V122.148H513.947V114.474L516.369 122.148H518.597L520.894 114.673V122.148H523.324V110.136H519.987Z" fill="#00979C"/>
<path d="M400.536 342.594C367.833 342.594 339.872 331.567 315.265 309.013C300.064 295.085 287.531 278.021 276 260.278C264.471 278.021 251.936 295.085 236.737 309.013C210.296 333.246 179.982 344.172 144.079 342.411C75.6103 342.114 20 288.08 20 221.706C20 155.149 75.9155 101 144.645 101C182.255 101 213.92 113.446 241.442 139.048C254.661 151.346 265.82 165.611 276 180.537C286.18 165.611 297.341 151.346 310.558 139.048C338.08 113.446 369.745 101 407.355 101C476.086 101 532 155.149 532 221.706C532 288.08 476.392 342.114 407.921 342.411C405.434 342.534 402.97 342.594 400.536 342.594ZM301.039 220.095C314.68 242.227 327.92 262.828 344.047 277.605C362.25 294.288 381.436 301.151 406.239 299.84L407.355 299.809C452.593 299.809 489.398 264.773 489.398 221.706C489.398 178.64 452.593 143.602 407.355 143.602C380.649 143.602 359.111 152.067 339.575 170.239C324.985 183.814 312.938 201.206 301.039 220.095ZM144.645 143.602C99.4069 143.602 62.6017 178.64 62.6017 221.706C62.6017 264.773 99.4069 299.809 144.645 299.809L145.763 299.84C170.568 301.151 189.75 294.288 207.953 277.605C224.08 262.828 237.322 242.227 250.961 220.095C239.062 201.206 227.015 183.814 212.427 170.239C192.889 152.067 171.351 143.602 144.645 143.602Z" fill="#00979C"/>
<path d="M412.989 206.223V183.121H388.944V206.223H365.844V230.152H388.944V253.425H412.989V230.152H436.091V206.223H412.989Z" fill="#00979C"/>
<path d="M110.055 205.934H185.984V230.614H110.055V205.934Z" fill="#00979C"/>
</svg>
