<svg width="552" height="1096" viewBox="0 0 552 1096" fill="none" xmlns="http://www.w3.org/2000/svg">
<rect x="0.5" y="0.5" width="551" height="1095" rx="4.5" stroke="#9747FF" stroke-dasharray="10 5"/>
<path d="M276.162 532C395.238 532 477.286 478.889 477.286 275.99C477.286 73.101 395.238 20 276.162 20C157.091 20 75 73.1098 75 275.99C75 478.89 157.084 532 276.162 532Z" fill="white"/>
<path d="M298.19 146.415L343.279 188.748L298.217 231.045L298.19 146.415ZM298.19 405.549L343.279 363.226L298.217 320.92L298.19 405.549ZM250.048 275.983L152.575 184.238L180.828 157.72L258.475 230.654V55.8752L399.693 188.444L306.451 275.983L399.711 363.546L258.486 496.117V321.327L180.818 394.269L152.564 367.736L250.048 275.983ZM276.162 532C395.238 532 477.286 478.889 477.286 275.99C477.286 73.101 395.238 20 276.162 20C157.091 20 75 73.1098 75 275.99C75 478.89 157.084 532 276.162 532Z" fill="#0060A9"/>
<path d="M298.19 690.415L343.279 732.748L298.217 775.045L298.19 690.415ZM298.19 949.549L343.279 907.226L298.217 864.92L298.19 949.549ZM250.048 819.983L152.575 728.238L180.828 701.72L258.475 774.654V599.875L399.693 732.444L306.451 819.983L399.711 907.546L258.486 1040.12V865.327L180.818 938.269L152.564 911.736L250.048 819.983ZM276.162 1076C395.238 1076 477.286 1022.89 477.286 819.99C477.286 617.101 395.238 564 276.162 564C157.091 564 75 617.11 75 819.99C75 1022.89 157.084 1076 276.162 1076Z" fill="#0060A9"/>
</svg>
