<svg width="552" height="1096" viewBox="0 0 552 1096" fill="none" xmlns="http://www.w3.org/2000/svg">
<rect x="0.5" y="0.5" width="551" height="1095" rx="4.5" stroke="#9747FF" stroke-dasharray="10 5"/>
<g clip-path="url(#clip0_333_545)">
<path fill-rule="evenodd" clip-rule="evenodd" d="M257.879 213.102C256.051 211.903 254.223 210.704 252.404 209.496C244.732 214.425 237.083 219.376 229.434 224.327C215.044 233.642 200.654 242.956 186.112 252.119C180.866 236.22 169.557 223.452 153.607 218.482C142.354 214.977 128.397 215.434 113.965 215.908C105.263 216.193 96.3876 216.484 87.8283 215.915V322.987C96.5908 322.579 105.297 322.827 113.732 323.067C122.819 323.325 131.592 323.575 139.786 322.987C165.122 321.164 180.434 305.742 186.882 285.242C197.738 292.344 208.41 299.632 219.083 306.919C230.29 314.571 241.497 322.223 252.916 329.661C260.254 324.965 267.639 320.156 275.034 315.339C289.213 306.105 303.428 296.847 317.415 288.322V322.987H389.851V288.835C385.566 288.771 381.181 288.805 376.797 288.84C369.659 288.895 362.52 288.951 355.808 288.581V215.915H317.415V252.377C312.665 255.415 307.926 258.466 303.188 261.517C290.519 269.675 277.849 277.832 264.946 285.755C263.935 285.094 262.882 284.477 261.828 283.859C259.975 282.772 258.121 281.685 256.501 280.363C263.76 275.657 270.942 270.874 278.125 266.092C287.916 259.573 297.707 253.053 307.691 246.727C300.541 241.318 292.914 236.388 285.167 231.577C269.228 241.81 253.227 251.978 237.227 262.147C235.887 262.998 234.548 263.849 233.208 264.7C231.903 263.698 230.507 262.786 229.111 261.874C227.717 260.963 226.323 260.052 225.019 259.052C232.168 254.482 239.275 249.869 246.383 245.257C256.371 238.775 266.36 232.294 276.464 225.929C270.525 221.396 264.202 217.249 257.879 213.102ZM124.428 288.837V250.322C124.406 249.958 124.387 249.595 124.683 249.552C135.767 248.84 143.755 249.988 148.486 255.457C155.576 263.654 153.958 279.037 145.927 285.243C141.059 289.005 134.923 288.941 127.057 288.859C126.201 288.85 125.325 288.841 124.428 288.837Z" fill="#0083CA"/>
<path d="M438.223 215.915H399.831C399.533 215.958 399.552 216.318 399.572 216.681L399.572 322.988H472.008V288.837H438.223V215.915Z" fill="#0083CA"/>
<path fill-rule="evenodd" clip-rule="evenodd" d="M283.883 20H268.015C191.338 24.2348 135.733 53.8486 94.9938 94.7209C54.441 135.404 24.1153 190.318 20.256 267.784C20.2991 268.083 20.2009 268.242 20 268.298V283.704C24.0303 361.467 54.1916 415.816 94.9927 457.023C135.794 498.233 190.838 527.625 268.015 532H283.627C362.34 528.115 414.486 497.581 456.905 457.281C497.286 414.855 527.979 362.711 531.898 283.704V268.298C527.868 190.535 497.707 136.185 456.905 94.9777C416.104 53.77 361.07 24.3666 283.883 20ZM176.641 72.1241C189.003 65.9917 202.641 60.8036 217.848 56.7183C233.171 52.6019 249.962 50.3788 267.762 49.5285C303.969 47.7992 337.775 55.8602 363.744 66.7324C390.508 77.9377 413.22 93.441 432.082 111.667C470.201 148.501 499.086 196.804 502.467 268.04C504.254 305.645 495.99 336.688 485.062 363.56C463.455 416.681 424.47 455.181 375.003 480.134C349.762 492.865 319.298 500.793 284.14 502.473C247.488 504.224 214.939 496.41 188.672 485.27C135.552 462.742 97.169 425.676 71.9573 375.371C59.1909 349.893 51.1093 320.005 49.4351 284.473C46.7799 228.115 65.115 185.134 86.2908 151.723C107.986 117.494 139.015 90.7894 176.641 72.1241Z" fill="#0083CA"/>
</g>
<g clip-path="url(#clip1_333_545)">
<path fill-rule="evenodd" clip-rule="evenodd" d="M257.879 757.102C256.051 755.903 254.223 754.704 252.404 753.496C244.732 758.425 237.083 763.376 229.434 768.327C215.044 777.642 200.654 786.956 186.112 796.119C180.866 780.22 169.557 767.452 153.607 762.482C142.354 758.977 128.397 759.434 113.965 759.908C105.263 760.193 96.3876 760.484 87.8283 759.915V866.987C96.5908 866.579 105.297 866.827 113.732 867.067C122.819 867.325 131.592 867.575 139.786 866.987C165.122 865.164 180.434 849.742 186.882 829.242C197.738 836.344 208.41 843.632 219.083 850.919C230.29 858.571 241.497 866.223 252.916 873.661C260.254 868.965 267.639 864.156 275.034 859.339C289.213 850.105 303.428 840.847 317.415 832.322V866.987H389.851V832.835C385.566 832.771 381.181 832.805 376.797 832.84C369.659 832.895 362.52 832.951 355.808 832.581V759.915H317.415V796.377C312.665 799.415 307.926 802.466 303.188 805.517C290.519 813.675 277.849 821.832 264.946 829.755C263.935 829.094 262.882 828.477 261.828 827.859C259.975 826.772 258.121 825.685 256.501 824.363C263.76 819.657 270.942 814.874 278.125 810.092C287.916 803.573 297.707 797.053 307.691 790.727C300.541 785.318 292.914 780.388 285.167 775.577C269.228 785.81 253.227 795.978 237.227 806.147C235.887 806.998 234.548 807.849 233.208 808.7C231.903 807.698 230.507 806.786 229.111 805.874C227.717 804.963 226.323 804.052 225.019 803.052C232.168 798.482 239.275 793.869 246.383 789.257C256.371 782.775 266.36 776.294 276.464 769.929C270.525 765.396 264.202 761.249 257.879 757.102ZM124.428 832.837V794.322C124.406 793.958 124.387 793.595 124.683 793.552C135.767 792.84 143.755 793.988 148.486 799.457C155.576 807.654 153.958 823.037 145.927 829.243C141.059 833.005 134.923 832.941 127.057 832.859C126.201 832.85 125.325 832.841 124.428 832.837Z" fill="#0083CA"/>
<path d="M438.223 759.915H399.831C399.533 759.958 399.552 760.318 399.572 760.681L399.572 866.988H472.008V832.837H438.223V759.915Z" fill="#0083CA"/>
<path fill-rule="evenodd" clip-rule="evenodd" d="M283.883 564H268.015C191.338 568.235 135.733 597.849 94.9938 638.721C54.441 679.404 24.1153 734.318 20.256 811.784C20.2991 812.083 20.2009 812.242 20 812.298V827.704C24.0303 905.467 54.1916 959.816 94.9927 1001.02C135.794 1042.23 190.838 1071.62 268.015 1076H283.627C362.34 1072.12 414.486 1041.58 456.905 1001.28C497.286 958.855 527.979 906.711 531.898 827.704V812.298C527.868 734.535 497.707 680.185 456.905 638.978C416.104 597.77 361.07 568.367 283.883 564ZM176.641 616.124C189.003 609.992 202.641 604.804 217.848 600.718C233.171 596.602 249.962 594.379 267.762 593.529C303.969 591.799 337.775 599.86 363.744 610.732C390.508 621.938 413.22 637.441 432.082 655.667C470.201 692.501 499.086 740.804 502.467 812.04C504.254 849.645 495.99 880.688 485.062 907.56C463.455 960.681 424.47 999.181 375.003 1024.13C349.762 1036.86 319.298 1044.79 284.14 1046.47C247.488 1048.22 214.939 1040.41 188.672 1029.27C135.552 1006.74 97.169 969.676 71.9573 919.371C59.1909 893.893 51.1093 864.005 49.4351 828.473C46.7799 772.115 65.115 729.134 86.2908 695.723C107.986 661.494 139.015 634.789 176.641 616.124Z" fill="#0083CA"/>
</g>
<defs>
<clipPath id="clip0_333_545">
<rect width="512" height="512" fill="white" transform="translate(20 20)"/>
</clipPath>
<clipPath id="clip1_333_545">
<rect width="512" height="512" fill="white" transform="translate(20 564)"/>
</clipPath>
</defs>
</svg>
