<svg width="552" height="1096" viewBox="0 0 552 1096" fill="none" xmlns="http://www.w3.org/2000/svg">
<rect x="0.5" y="0.5" width="551" height="1095" rx="4.5" stroke="#9747FF" stroke-dasharray="10 5"/>
<g clip-path="url(#clip0_333_547)">
<path fill-rule="evenodd" clip-rule="evenodd" d="M163.659 20C58.4727 20 20 58.466 20 163.631V388.369C20 493.534 58.4727 532 163.659 532H388.273C493.456 532 532 493.534 532 388.369V163.631C532 58.466 493.527 20 388.341 20H163.659Z" fill="url(#paint0_linear_333_547)"/>
<path d="M190.667 105.333C190.667 152.387 228.942 190.667 276 190.667C323.053 190.667 361.333 152.387 361.333 105.333H349.28C349.28 145.737 316.403 178.609 276 178.609C235.597 178.609 202.72 145.737 202.72 105.333H190.667Z" fill="white"/>
<path fill-rule="evenodd" clip-rule="evenodd" d="M232.172 342.99L238.271 329.035H268.945L274.965 342.99H289.22L259.813 276.004H247.814L218.288 342.99H232.172ZM263.887 316.949H243.332L253.575 292.967L263.887 316.949Z" fill="white"/>
<path d="M475.111 342.94H461.692V276H475.111V342.94Z" fill="white"/>
<path d="M433.018 314.184H408.282V330.776H445.482V342.986H394.867V276.049H444.19V288.259H408.282V301.979H433.018V314.184Z" fill="white"/>
<path d="M339.749 276L354.963 322.093L369.802 276.037H383.904L360.6 343.027H349.247L334.009 299.024L318.77 343.027H307.516L284.15 276.037H298.627L313.433 322.093L328.646 276H339.749Z" fill="white"/>
<path d="M182.565 331.089C192.392 331.089 197.803 325.266 197.803 314.369V276.004H211.391V313.81C211.391 333.015 200.819 344.031 182.379 344.031C164.121 344.031 153.644 333.22 153.644 314.369V276.045H167.244V313.904C167.244 325.097 172.684 331.089 182.565 331.089Z" fill="white"/>
<path d="M134.788 276.004H121.196V303.04H90.4893V276.004H76.8889V343.031H90.4893V315.809H121.196V343.031H134.788V276.004Z" fill="white"/>
</g>
<g clip-path="url(#clip1_333_547)">
<path d="M263.887 860.949H243.332L253.575 836.967L263.887 860.949Z" fill="url(#paint1_linear_333_547)"/>
<path fill-rule="evenodd" clip-rule="evenodd" d="M20 707.631C20 602.466 58.4727 564 163.659 564H388.341C493.527 564 532 602.466 532 707.631V932.369C532 1037.53 493.456 1076 388.273 1076H163.659C58.4727 1076 20 1037.53 20 932.369V707.631ZM190.667 649.333C190.667 696.387 228.942 734.667 276 734.667C323.053 734.667 361.333 696.387 361.333 649.333H349.28C349.28 689.737 316.403 722.609 276 722.609C235.597 722.609 202.72 689.737 202.72 649.333H190.667ZM232.172 886.99L238.271 873.035H268.945L274.965 886.99H289.22L259.813 820.004H247.814L218.288 886.99H232.172ZM461.692 886.94H475.111V820H461.692V886.94ZM433.018 858.184H408.282V874.776H445.482V886.986H394.867V820.049H444.19V832.259H408.282V845.979H433.018V858.184ZM354.963 866.093L339.749 820H328.647L313.433 866.093L298.627 820.037H284.15L307.516 887.027H318.77L334.009 843.024L349.247 887.027H360.6L383.904 820.037H369.802L354.963 866.093ZM182.565 875.089C192.392 875.089 197.803 869.266 197.803 858.369V820.004H211.391V857.81C211.391 877.015 200.819 888.031 182.379 888.031C164.121 888.031 153.644 877.22 153.644 858.369V820.045H167.244V857.904C167.244 869.097 172.684 875.089 182.565 875.089ZM121.196 820.004H134.788V887.031H121.196V859.809H90.4893V887.031H76.8889V820.004H90.4893V847.04H121.196V820.004Z" fill="url(#paint2_linear_333_547)"/>
</g>
<defs>
<linearGradient id="paint0_linear_333_547" x1="276" y1="20" x2="276" y2="532" gradientUnits="userSpaceOnUse">
<stop stop-color="#FB6361"/>
<stop offset="1" stop-color="#ED3E45"/>
</linearGradient>
<linearGradient id="paint1_linear_333_547" x1="276" y1="564" x2="276" y2="1076" gradientUnits="userSpaceOnUse">
<stop stop-color="#FB6361"/>
<stop offset="1" stop-color="#ED3E45"/>
</linearGradient>
<linearGradient id="paint2_linear_333_547" x1="276" y1="564" x2="276" y2="1076" gradientUnits="userSpaceOnUse">
<stop stop-color="#FB6361"/>
<stop offset="1" stop-color="#ED3E45"/>
</linearGradient>
<clipPath id="clip0_333_547">
<rect width="512" height="512" fill="white" transform="translate(20 20)"/>
</clipPath>
<clipPath id="clip1_333_547">
<rect width="512" height="512" fill="white" transform="translate(20 564)"/>
</clipPath>
</defs>
</svg>
