<svg width="552" height="552" viewBox="0 0 552 552" fill="none" xmlns="http://www.w3.org/2000/svg">
<rect x="0.5" y="0.5" width="551" height="551" rx="4.5" stroke="#9747FF" stroke-dasharray="10 5"/>
<path d="M20 193.867V208.8H116.865V193.867H20Z" fill="#1F70C1"/>
<path d="M20 178.933H116.865V164H20V178.933Z" fill="#1F70C1"/>
<path d="M130.703 193.867V208.8H295.798C294.84 203.515 293.188 198.499 290.947 193.867H130.703Z" fill="#1F70C1"/>
<path d="M280.414 178.933H130.703V164H245.309C258.879 164 271.222 169.67 280.414 178.933Z" fill="#1F70C1"/>
<path d="M310.595 193.867V208.8H405.483L401.529 193.867H310.595Z" fill="#1F70C1"/>
<path d="M397.575 178.933H310.595V164H393.622L397.575 178.933Z" fill="#1F70C1"/>
<path d="M441.066 193.867L437.112 208.8H532V193.867H441.066Z" fill="#1F70C1"/>
<path d="M532 178.933H445.019L448.973 164H532V178.933Z" fill="#1F70C1"/>
<path d="M504.324 223.733H433.158L429.205 238.667H504.324V223.733Z" fill="#1F70C1"/>
<path d="M504.324 253.6H462.811H425.251L421.297 268.533L417.344 253.6H379.784H338.27V268.533H379.784V253.6L384.396 268.533H421.297H458.198L462.811 253.6V268.533H504.324V253.6Z" fill="#1F70C1"/>
<path d="M504.324 283.467H462.811V298.4H504.324V283.467Z" fill="#1F70C1"/>
<path d="M504.324 313.333H462.811V328.267H504.324V313.333Z" fill="#1F70C1"/>
<path d="M532 343.2H462.811V358.133H532V343.2Z" fill="#1F70C1"/>
<path d="M532 373.067H462.811V388H532V373.067Z" fill="#1F70C1"/>
<path d="M20 388H116.865V373.067H20V388Z" fill="#1F70C1"/>
<path d="M20 358.133H116.865V343.2H20V358.133Z" fill="#1F70C1"/>
<path d="M47.6757 328.267H89.1892V313.333H47.6757V328.267Z" fill="#1F70C1"/>
<path d="M47.6757 298.4H89.1892V283.467H47.6757V298.4Z" fill="#1F70C1"/>
<path d="M47.6757 268.533H89.1892V253.6H47.6757V268.533Z" fill="#1F70C1"/>
<path d="M47.6757 238.667H89.1892V223.733H47.6757V238.667Z" fill="#1F70C1"/>
<path d="M158.378 223.733V238.667H199.892V223.733H158.378Z" fill="#1F70C1"/>
<path d="M248.324 223.733V238.667H293.61C295.218 233.945 296.247 228.931 296.61 223.733H248.324Z" fill="#1F70C1"/>
<path d="M338.27 223.733V238.667H413.39L409.436 223.733H338.27Z" fill="#1F70C1"/>
<path d="M285.925 253.6H158.378V268.533H269.496C275.924 264.837 281.511 259.723 285.925 253.6Z" fill="#1F70C1"/>
<path d="M269.496 283.467H158.378V298.4H285.925C281.511 292.277 275.924 287.163 269.496 283.467Z" fill="#1F70C1"/>
<path d="M293.61 313.333H241.405V328.267H296.61C296.247 323.069 295.218 318.055 293.61 313.333Z" fill="#1F70C1"/>
<path d="M338.27 328.267V313.333H379.784V328.267H338.27Z" fill="#1F70C1"/>
<path d="M379.784 343.2H310.595V358.133H379.784V343.2Z" fill="#1F70C1"/>
<path d="M412.072 358.133L407.459 343.2H435.135L430.523 358.133H412.072Z" fill="#1F70C1"/>
<path d="M379.784 373.067H310.595V388H379.784V373.067Z" fill="#1F70C1"/>
<path d="M245.309 388C258.879 388 271.222 382.33 280.414 373.067H130.703V388H245.309Z" fill="#1F70C1"/>
<path d="M130.703 358.133H290.947C293.188 353.501 294.84 348.485 295.798 343.2H130.703V358.133Z" fill="#1F70C1"/>
<path d="M158.378 328.267H199.892V313.333H158.378V328.267Z" fill="#1F70C1"/>
<path d="M416.685 373.067H425.91L421.297 388L416.685 373.067Z" fill="#1F70C1"/>
<path d="M439.748 328.267H402.847L398.234 313.333H444.36L439.748 328.267Z" fill="#1F70C1"/>
<path d="M448.973 298.4L453.586 283.467H389.009L393.622 298.4H448.973Z" fill="#1F70C1"/>
<path d="M379.784 298.4H338.27V283.467H379.784V298.4Z" fill="#1F70C1"/>
</svg>
