<svg width="552" height="1096" viewBox="0 0 552 1096" fill="none" xmlns="http://www.w3.org/2000/svg">
<rect x="0.5" y="0.5" width="551" height="1095" rx="4.5" stroke="#9747FF" stroke-dasharray="10 5"/>
<rect x="20" y="164" width="40.48" height="40.48" fill="#0068B5"/>
<path d="M532 164H491.446V376.625H532V164Z" fill="black"/>
<path d="M246.429 174.983H286.983V231.499H312.33V264.405H286.983L286.984 323.891C286.984 342.453 302.896 343.438 311.908 341.609V377.469C258.179 377.469 246.432 361.019 246.429 315.046V174.983Z" fill="black"/>
<path d="M122.231 248.732C130.979 239.015 146.391 228.125 167.855 228.125C204.185 228.125 225.729 259.343 225.729 285.922V376.625H186.865V293.515C186.583 282.828 179.768 261.453 154.759 261.453C137.484 261.453 127.412 272.86 122.231 283.854V376.624H81.6766V231.499H122.231V248.732Z" fill="black"/>
<path d="M20 231.499H60.5545V376.624H20V231.499Z" fill="black"/>
<path fill-rule="evenodd" clip-rule="evenodd" d="M358.473 317.561H474.548V304.061C474.547 262.123 440.503 228.125 398.508 228.125C356.513 228.125 322.469 262.123 322.469 304.062C322.469 346.001 356.513 380 398.508 380C423.151 380 445.058 368.275 458.926 350.176L432.086 329.667C424.338 339.779 412.183 346.25 398.508 346.25C379.905 346.25 364.11 334.241 358.473 317.561ZM438.248 289.718C432.37 273.48 416.796 261.875 398.508 261.875C380.221 261.875 364.647 273.48 358.769 289.718H438.248Z" fill="black"/>
<rect x="20" y="708" width="40.48" height="40.48" fill="#0068B5"/>
<path d="M532 708H491.446V920.625H532V708Z" fill="black"/>
<path d="M246.429 718.983H286.983V775.499H312.33V808.405H286.983L286.984 867.891C286.984 886.453 302.896 887.438 311.908 885.609V921.469C258.179 921.469 246.432 905.019 246.429 859.046V718.983Z" fill="black"/>
<path d="M122.231 792.732C130.979 783.015 146.391 772.125 167.855 772.125C204.185 772.125 225.729 803.343 225.729 829.922V920.625H186.865V837.515C186.583 826.828 179.768 805.453 154.759 805.453C137.484 805.453 127.412 816.86 122.231 827.854V920.624H81.6766V775.499H122.231V792.732Z" fill="black"/>
<path d="M20 775.499H60.5545V920.624H20V775.499Z" fill="black"/>
<path fill-rule="evenodd" clip-rule="evenodd" d="M358.473 861.561H474.548V848.061C474.547 806.123 440.503 772.125 398.508 772.125C356.513 772.125 322.469 806.123 322.469 848.062C322.469 890.001 356.513 924 398.508 924C423.151 924 445.058 912.275 458.926 894.176L432.086 873.667C424.338 883.779 412.183 890.25 398.508 890.25C379.905 890.25 364.11 878.241 358.473 861.561ZM438.248 833.718C432.37 817.48 416.796 805.875 398.508 805.875C380.221 805.875 364.647 817.48 358.769 833.718H438.248Z" fill="black"/>
</svg>
