<svg width="552" height="1096" viewBox="0 0 552 1096" fill="none" xmlns="http://www.w3.org/2000/svg">
<rect x="0.5" y="0.5" width="551" height="1095" rx="4.5" stroke="#9747FF" stroke-dasharray="10 5"/>
<g clip-path="url(#clip0_334_1026)">
<path d="M183.218 23.5389C186.381 21.044 189.169 20.0871 191.758 20.0072C197.564 20.0072 203.306 22.867 205.452 24.2969C216.598 20.6572 219.137 25.6422 224.611 27.6735C236.757 25.1066 240.447 30.6945 246.278 36.5926L253.051 36.4579C271.369 47.2533 280.449 69.2387 283.677 80.543C286.903 69.2402 296.006 47.2548 314.326 36.4579L321.1 36.5926C326.923 30.6945 330.614 25.1066 342.761 27.6735C348.233 25.6422 350.781 20.6572 361.918 24.2969C368.872 22.0965 374.959 16.2783 384.159 23.5373C391.906 20.5491 399.418 19.5123 406.135 25.5936C416.507 24.2483 419.878 27.0251 422.43 30.2654C424.714 30.2184 439.472 27.9256 446.239 38.024C463.256 36.01 468.63 48.0301 462.541 59.2389L462.662 59.4272C466.094 64.7417 469.522 70.0505 461.49 80.1797C464.364 85.8914 462.583 92.087 455.811 99.5841C457.598 107.612 454.085 113.277 447.786 117.692C448.964 128.678 437.711 135.066 434.35 137.342C433.061 143.743 430.371 149.783 417.517 153.124C415.398 162.665 407.673 164.312 400.193 166.314C424.917 180.689 446.12 199.599 445.976 245.991L449.603 252.451C477.953 269.691 503.458 325.106 463.574 370.149C460.968 384.248 456.599 394.374 452.709 405.582C446.89 450.743 408.916 471.89 398.901 474.391C384.223 485.57 368.591 496.178 347.439 503.609C327.498 524.176 283.532 532 283.212 532C261.491 532.013 239.888 524.174 219.948 503.609C198.794 496.178 183.163 485.57 168.487 474.391C158.47 471.89 120.495 450.743 114.677 405.582C110.787 394.374 106.417 384.248 103.813 370.149C63.9267 325.111 89.4328 269.698 117.783 252.458L121.405 245.997C121.261 199.601 142.464 180.693 167.188 166.32C159.707 164.319 151.983 162.671 149.862 153.13C137.009 149.791 134.32 143.749 133.029 137.348C129.67 135.073 118.416 128.684 119.595 117.698C113.294 113.283 109.782 107.62 111.569 99.5903C104.798 92.0933 103.016 85.8976 105.89 80.1875C97.7646 69.9325 101.365 64.6186 104.84 59.2405C98.7481 48.0316 104.125 36.0131 121.136 38.0256C127.906 27.9272 142.667 30.2216 144.944 30.2685C147.499 27.0266 150.869 24.2499 161.242 25.5952C167.959 19.5139 175.471 20.5523 183.218 23.5389Z" fill="black"/>
<path d="M155.284 67.5065C203.89 92.5662 232.148 112.838 247.629 130.103C239.702 161.879 198.343 163.329 183.22 162.438C186.317 160.997 188.901 159.269 189.817 156.618C186.022 153.921 172.568 156.333 163.174 151.057C166.782 150.308 168.471 149.58 170.157 146.917C161.284 144.087 151.724 141.647 146.102 136.958C149.135 136.996 151.968 137.638 155.931 134.889C147.982 130.606 139.5 127.211 132.91 120.663C137.02 120.562 141.45 120.622 142.739 119.111C135.464 114.603 129.325 109.592 124.245 104.109C129.995 104.802 132.424 104.206 133.815 103.203C128.315 97.57 121.355 92.8136 118.036 85.8725C122.306 87.3447 126.213 87.9085 129.029 85.7441C127.161 81.5281 119.155 79.0411 114.544 69.1885C119.04 69.6255 123.808 70.1689 124.761 69.1885C122.675 60.6875 119.095 55.9077 115.584 50.9556C125.205 50.8131 139.782 50.9932 139.123 50.1803L133.173 44.1022C142.571 41.5713 152.188 44.5078 159.169 46.6879C162.303 44.2149 159.113 41.0874 155.288 37.894C163.276 38.9606 170.493 40.7961 177.017 43.3254C180.502 40.179 174.754 37.0311 171.973 33.8847C184.312 36.2245 189.54 39.515 194.735 42.8085C198.504 39.1955 194.951 36.1243 192.407 32.9795C201.712 36.425 206.504 40.8744 211.549 45.2658C213.259 42.9573 215.895 41.2643 212.712 35.6952C219.318 39.5024 224.294 43.9894 227.974 49.0167C232.062 46.4138 230.41 42.8555 230.432 39.5745C237.298 45.1593 241.655 51.1028 246.987 56.9053C248.062 56.1223 249.001 53.4708 249.833 49.2751C266.21 65.1635 289.353 105.186 255.781 121.054C227.21 97.4901 193.087 80.3613 155.273 67.5127L155.284 67.5065Z" fill="#75A928"/>
<path d="M413.188 67.5065C364.588 92.5694 336.33 112.835 320.85 130.103C328.778 161.879 370.135 163.329 385.257 162.438C382.161 160.997 379.577 159.269 378.662 156.618C382.457 153.921 395.912 156.333 405.304 151.057C401.696 150.308 400.009 149.58 398.32 146.917C407.196 144.087 416.755 141.647 422.376 136.958C419.343 136.996 416.51 137.638 412.547 134.889C420.497 130.606 428.979 127.211 435.569 120.663C431.458 120.562 427.028 120.622 425.74 119.111C433.015 114.603 439.154 109.592 444.235 104.109C438.482 104.802 436.055 104.206 434.664 103.203C440.163 97.5701 447.124 92.8137 450.443 85.8726C446.172 87.3448 442.265 87.9086 439.449 85.7442C441.317 81.5281 449.325 79.0411 453.934 69.1886C449.439 69.6255 444.67 70.169 443.716 69.1886C445.807 60.6845 449.387 55.9046 452.899 50.9525C443.278 50.81 428.7 50.9901 429.36 50.1773L435.309 44.0975C425.911 41.5682 416.295 44.5047 409.313 46.6848C406.179 44.2119 409.368 41.0843 413.193 37.891C405.207 38.9559 397.988 40.793 391.466 43.3223C387.979 40.1759 393.729 37.028 396.51 33.8817C384.17 36.2215 378.943 39.5119 373.746 42.8055C369.977 39.1924 373.532 36.1212 376.075 32.9764C366.771 36.4219 361.978 40.8713 356.934 45.2628C355.222 42.9543 352.588 41.2613 355.769 35.6921C349.164 39.4994 344.189 43.9863 340.508 49.0136C336.421 46.4107 338.073 42.8509 338.051 39.5714C331.185 45.1563 326.828 51.0982 321.495 56.9023C320.421 56.1192 319.481 53.4677 318.65 49.2705C302.273 65.1605 279.13 105.183 312.702 121.051C341.257 97.4808 375.378 80.3551 413.194 67.5065H413.188Z" fill="#75A928"/>
<path d="M343.104 391.068C343.273 420.72 317.342 444.884 285.188 445.039C253.032 445.196 226.828 421.285 226.658 391.634C226.657 391.446 226.657 391.258 226.658 391.068C226.489 361.418 252.418 337.254 284.574 337.098C316.73 336.941 342.933 360.851 343.104 390.503V391.068Z" fill="#BC1142"/>
<path d="M251.189 237.698C275.313 253.505 279.662 289.332 260.902 317.72C242.141 346.109 207.376 356.311 183.251 340.505C159.127 324.698 154.779 288.872 173.538 260.484C192.299 232.095 227.064 221.893 251.189 237.698Z" fill="#BC1142"/>
<path d="M316.305 234.837C292.182 250.642 287.833 286.471 306.592 314.858C325.353 343.248 360.118 353.449 384.242 337.642C408.367 321.837 412.716 286.01 393.955 257.621C375.196 229.233 340.431 219.031 316.305 234.837Z" fill="#BC1142"/>
<path d="M130.616 263.54C156.663 256.558 139.41 371.295 118.217 361.88C94.9052 343.131 87.3971 288.22 130.616 263.54Z" fill="#BC1142"/>
<path d="M431.618 262.11C405.568 255.129 422.824 369.871 444.017 360.457C467.329 341.705 474.837 286.789 431.618 262.11Z" fill="#BC1142"/>
<path d="M343.12 176.666C388.07 169.076 425.472 195.782 423.962 244.523C422.484 263.21 326.56 179.449 343.12 176.666Z" fill="#BC1142"/>
<path d="M218.928 175.236C173.976 167.645 136.576 194.357 138.086 243.095C139.565 261.781 235.49 178.019 218.928 175.236Z" fill="#BC1142"/>
<path d="M283.498 163.869C256.67 163.171 230.923 183.779 230.861 195.734C230.787 210.258 252.072 225.13 283.682 225.508C315.96 225.738 336.557 213.603 336.661 198.614C336.78 181.631 307.304 163.606 283.498 163.868V163.869Z" fill="#BC1142"/>
<path d="M285.131 461.716C308.521 460.695 339.906 469.25 339.969 480.599C340.357 491.619 311.505 516.517 283.58 516.036C254.66 517.284 226.302 492.347 226.673 483.703C226.24 471.03 261.886 461.135 285.131 461.716Z" fill="#BC1142"/>
<path d="M198.741 394.459C215.394 414.521 222.987 449.769 209.089 460.16C195.941 468.093 164.012 464.826 141.319 432.223C126.013 404.866 127.985 377.028 138.732 368.85C154.802 359.061 179.631 372.284 198.743 394.459H198.741Z" fill="#BC1142"/>
<path d="M368.197 388.099C350.178 409.203 340.146 447.695 353.289 460.093C365.857 469.725 399.595 468.378 424.515 433.799C442.61 410.575 436.547 371.789 426.211 361.491C410.857 349.615 388.813 364.814 368.197 388.093V388.099Z" fill="#BC1142"/>
</g>
<g clip-path="url(#clip1_334_1026)">
<path fill-rule="evenodd" clip-rule="evenodd" d="M191.758 564.007C189.169 564.087 186.381 565.044 183.218 567.539C175.471 564.552 167.959 563.514 161.242 569.595C150.869 568.25 147.499 571.027 144.944 574.269C144.72 574.264 144.373 574.237 143.924 574.203C139.83 573.889 127.238 572.924 121.136 582.026C104.125 580.013 98.7481 592.032 104.84 603.24C104.802 603.3 104.764 603.359 104.725 603.419C101.287 608.737 97.8544 614.046 105.89 624.188C103.016 629.898 104.798 636.093 111.569 643.59C109.782 651.62 113.294 657.283 119.595 661.698C118.505 671.849 128.029 678.074 132.134 680.757C132.472 680.978 132.774 681.175 133.029 681.348C134.32 687.749 137.009 693.791 149.862 697.13C151.892 706.264 159.057 708.164 166.229 710.065C166.549 710.15 166.869 710.235 167.188 710.32C142.464 724.693 121.261 743.601 121.405 789.997L117.783 796.458C89.4328 813.698 63.9267 869.111 103.813 914.149C105.861 925.235 109 933.865 112.14 942.496C112.993 944.841 113.846 947.187 114.677 949.582C120.495 994.743 158.47 1015.89 168.487 1018.39C183.163 1029.57 198.794 1040.18 219.948 1047.61C239.888 1068.17 261.491 1076.01 283.212 1076C283.532 1076 327.498 1068.18 347.439 1047.61C368.591 1040.18 384.223 1029.57 398.901 1018.39C408.916 1015.89 446.89 994.743 452.709 949.582C453.54 947.186 454.394 944.839 455.247 942.493C458.386 933.863 461.525 925.234 463.574 914.149C503.458 869.106 477.953 813.691 449.603 796.451L445.976 789.991C446.12 743.599 424.917 724.689 400.193 710.314C400.513 710.228 400.833 710.143 401.154 710.058C408.323 708.157 415.489 706.257 417.517 697.124C430.371 693.783 433.061 687.743 434.35 681.342C434.605 681.169 434.906 680.973 435.243 680.753C439.347 678.071 448.875 671.845 447.786 661.692C454.085 657.277 457.598 651.612 455.811 643.584C462.583 636.087 464.364 629.891 461.49 624.18C469.522 614.051 466.094 608.742 462.662 603.427L462.541 603.239C468.63 592.03 463.256 580.01 446.239 582.024C440.14 572.924 427.553 573.886 423.453 574.2C423.004 574.234 422.656 574.261 422.43 574.265C419.878 571.025 416.507 568.248 406.135 569.594C399.418 563.512 391.906 564.549 384.159 567.537C376.954 561.852 371.658 564.188 366.359 566.526C364.893 567.173 363.426 567.82 361.918 568.297C353.618 565.584 350.088 567.662 346.563 569.738C345.359 570.447 344.155 571.156 342.761 571.673C331.847 569.367 327.759 573.644 322.818 578.815C322.26 579.399 321.691 579.994 321.1 580.593L314.326 580.458C296.006 591.255 286.903 613.24 283.677 624.543C280.449 613.239 271.369 591.253 253.051 580.458L246.278 580.593C245.684 579.992 245.112 579.394 244.551 578.808C239.608 573.641 235.52 569.368 224.611 571.673C223.216 571.156 222.012 570.447 220.807 569.737C217.284 567.662 213.758 565.585 205.452 568.297C202.806 566.867 196.364 564.007 191.758 564.007ZM320.85 674.103C336.329 656.837 364.583 636.573 413.176 611.513C375.367 624.361 341.252 641.485 312.702 665.051C279.13 649.183 302.273 609.16 318.65 593.27C319.481 597.468 320.421 600.119 321.495 600.902C322.987 599.279 324.403 597.644 325.818 596.01L325.819 596.008C329.463 591.801 333.106 587.593 338.051 583.571C338.056 584.311 337.976 585.065 337.895 585.819V585.821C337.619 588.409 337.344 590.998 340.508 593.014C344.189 587.986 349.164 583.499 355.769 579.692C353.023 584.499 354.61 586.418 356.196 588.337C356.448 588.642 356.699 588.947 356.934 589.263C357.203 589.029 357.47 588.795 357.738 588.561C362.502 584.4 367.266 580.238 376.075 576.976C375.767 577.358 375.443 577.738 375.12 578.118C372.777 580.874 370.434 583.631 373.746 586.805C378.943 583.512 384.171 580.221 396.51 577.882C395.834 578.647 394.982 579.411 394.131 580.176C391.479 582.558 388.827 584.941 391.466 587.322C397.988 584.793 405.207 582.956 413.193 581.891C409.368 585.084 406.179 588.212 409.313 590.685C416.295 588.505 425.911 585.568 435.309 588.098L429.36 594.177C428.862 594.791 437.044 594.839 445.223 594.886C447.881 594.902 450.539 594.918 452.899 594.953C452.743 595.172 452.588 595.39 452.433 595.609C449.074 600.335 445.715 605.061 443.716 613.189C444.608 614.105 448.837 613.69 453.058 613.274L453.934 613.189C451.165 619.107 447.17 622.368 444.016 624.942C441.92 626.653 440.195 628.061 439.449 629.744C442.265 631.909 446.172 631.345 450.443 629.873C448.075 634.825 443.853 638.666 439.63 642.506C437.935 644.048 436.239 645.59 434.664 647.203C436.055 648.206 438.482 648.802 444.235 648.109C439.154 653.592 433.015 658.603 425.74 663.111C426.909 664.482 430.667 664.56 434.426 664.638C434.808 664.646 435.19 664.653 435.569 664.663C430.427 669.772 424.133 672.962 417.839 676.152L417.837 676.153L417.832 676.156C416.062 677.052 414.291 677.95 412.547 678.889C415.91 681.222 418.46 681.113 421.008 681.003C421.463 680.984 421.917 680.964 422.376 680.958C417.587 684.954 409.937 687.317 402.287 689.679C400.96 690.089 399.633 690.499 398.32 690.917C400.009 693.58 401.696 694.308 405.304 695.057C399.861 698.115 393.053 698.59 387.552 698.974C383.561 699.253 380.258 699.484 378.662 700.618C379.577 703.269 382.161 704.997 385.257 706.438C370.135 707.329 328.778 705.879 320.85 674.103ZM247.629 674.103C232.154 656.845 203.912 636.582 155.341 611.536C193.128 624.382 227.227 641.504 255.781 665.054C289.353 649.186 266.21 609.164 249.833 593.275C249.001 597.471 248.062 600.122 246.987 600.905C245.493 599.279 244.075 597.642 242.657 596.005C239.016 591.8 235.373 587.594 230.432 583.574C230.427 584.315 230.507 585.071 230.587 585.826C230.863 588.414 231.139 591.002 227.974 593.017C224.294 587.989 219.318 583.502 212.712 579.695C215.458 584.5 213.873 586.42 212.287 588.339C212.035 588.644 211.783 588.949 211.549 589.266C211.28 589.032 211.012 588.798 210.744 588.564C205.981 584.403 201.216 580.241 192.407 576.979C192.714 577.359 193.036 577.738 193.358 578.116L193.361 578.119C195.704 580.875 198.048 583.633 194.735 586.809C189.54 583.515 184.312 580.225 171.973 577.885C172.649 578.65 173.5 579.415 174.352 580.179C177.003 582.561 179.655 584.944 177.017 587.325C170.493 584.796 163.276 582.961 155.288 581.894C159.113 585.087 162.303 588.215 159.169 590.688C152.188 588.508 142.571 585.571 133.173 588.102L139.123 594.18C139.62 594.794 131.439 594.842 123.259 594.89C120.602 594.905 117.943 594.921 115.584 594.956C115.739 595.174 115.894 595.393 116.05 595.611C119.409 600.337 122.767 605.063 124.761 613.189C123.87 614.105 119.644 613.69 115.423 613.275C115.13 613.246 114.836 613.217 114.544 613.189C117.313 619.107 121.308 622.367 124.462 624.941C126.558 626.653 128.283 628.061 129.029 629.744C126.213 631.909 122.306 631.345 118.036 629.873C120.405 634.827 124.629 638.668 128.852 642.509C130.546 644.05 132.241 645.591 133.815 647.203C132.424 648.206 129.995 648.802 124.245 648.109C129.325 653.592 135.464 658.603 142.739 663.111C141.569 664.482 137.811 664.56 134.054 664.638C133.672 664.645 133.289 664.653 132.91 664.663C138.051 669.771 144.344 672.961 150.637 676.15C152.41 677.049 154.183 677.948 155.931 678.889C152.568 681.222 150.018 681.113 147.469 681.003C147.015 680.983 146.561 680.964 146.102 680.958C150.892 684.953 158.541 687.316 166.188 689.678L166.189 689.678L166.193 689.68C167.519 690.089 168.846 690.499 170.157 690.917C168.471 693.58 166.782 694.308 163.174 695.057C168.618 698.114 175.426 698.59 180.927 698.974C184.918 699.253 188.222 699.484 189.817 700.618C188.901 703.269 186.317 704.997 183.22 706.438C198.343 707.329 239.702 705.879 247.629 674.103ZM283.498 707.869C256.67 707.171 230.923 727.779 230.86 739.734C230.786 754.258 252.072 769.13 283.681 769.508C315.959 769.738 336.557 757.603 336.66 742.614C336.779 725.631 307.303 707.606 283.498 707.868V707.869ZM218.928 719.236C173.976 711.645 136.576 738.357 138.086 787.095C139.565 805.781 235.49 722.019 218.928 719.236ZM343.12 720.666C388.07 713.076 425.472 739.782 423.962 788.523C422.484 807.21 326.56 723.449 343.12 720.666ZM316.305 778.837C292.182 794.642 287.833 830.471 306.592 858.858C325.353 887.248 360.118 897.449 384.242 881.642C408.367 865.837 412.716 830.01 393.955 801.621C375.196 773.233 340.431 763.031 316.305 778.837ZM251.189 781.698C275.313 797.505 279.662 833.332 260.902 861.72C242.141 890.109 207.376 900.311 183.251 884.505C159.127 868.698 154.779 832.872 173.538 804.484C192.299 776.094 227.064 765.893 251.189 781.698ZM285.188 989.039C317.342 988.884 343.273 964.72 343.104 935.068V934.503C342.933 904.851 316.73 880.941 284.574 881.098C252.418 881.254 226.489 905.418 226.658 935.068C226.657 935.258 226.657 935.446 226.658 935.634C226.828 965.285 253.032 989.196 285.188 989.039ZM130.616 807.54C156.662 800.558 139.41 915.294 118.217 905.88C94.9047 887.131 87.3966 832.22 130.616 807.54ZM431.618 806.11C405.568 799.129 422.824 913.871 444.017 904.457C467.329 885.705 474.837 830.789 431.618 806.11ZM339.969 1024.6C339.906 1013.25 308.521 1004.7 285.131 1005.72C261.886 1005.14 226.24 1015.03 226.673 1027.7C226.302 1036.35 254.66 1061.28 283.58 1060.04C311.505 1060.52 340.357 1035.62 339.969 1024.6ZM209.089 1004.16C222.987 993.769 215.394 958.521 198.741 938.459H198.743C179.631 916.284 154.802 903.061 138.732 912.85C127.985 921.028 126.013 948.866 141.319 976.223C164.012 1008.83 195.941 1012.09 209.089 1004.16ZM353.289 1004.09C340.146 991.695 350.178 953.203 368.197 932.099V932.093C388.813 908.814 410.857 893.615 426.211 905.491C436.547 915.789 442.61 954.575 424.515 977.799C399.595 1012.38 365.857 1013.72 353.289 1004.09Z" fill="black"/>
</g>
<defs>
<clipPath id="clip0_334_1026">
<rect width="512" height="512" fill="white" transform="translate(20 20)"/>
</clipPath>
<clipPath id="clip1_334_1026">
<rect width="512" height="512" fill="white" transform="translate(20 564)"/>
</clipPath>
</defs>
</svg>
