<svg width="552" height="552" viewBox="0 0 552 552" fill="none" xmlns="http://www.w3.org/2000/svg">
<rect x="0.5" y="0.5" width="551" height="551" rx="4.5" stroke="#9747FF" stroke-dasharray="10 5"/>
<path d="M145.939 308.641C145.939 326.036 140.778 339.894 130.457 350.215C118.861 362.507 103.611 368.653 84.7088 368.653C66.6182 368.653 51.3107 362.391 38.7864 349.867C26.2621 337.342 20 321.919 20 303.596C20 285.274 26.2621 269.85 38.7864 257.326C51.3107 244.802 66.6182 238.54 84.7088 238.54C93.8701 238.54 102.51 240.163 110.627 243.41C118.745 246.657 125.413 251.238 130.631 257.152L119.151 268.633C115.324 263.994 110.366 260.37 104.278 257.761C98.1898 255.152 91.6667 253.847 84.7088 253.847C71.1408 253.847 59.6602 258.544 50.267 267.937C40.9898 277.446 36.3511 289.333 36.3511 303.596C36.3511 317.86 40.9898 329.747 50.267 339.256C59.6602 348.649 71.1408 353.346 84.7088 353.346C97.1171 353.346 107.438 349.867 115.672 342.909C123.905 335.951 128.66 326.384 129.935 314.207H84.7088V299.248H145.069C145.649 302.495 145.939 305.626 145.939 308.641Z" fill="url(#paint0_radial_706_710)"/>
<path d="M196.17 278.205C208.938 278.205 219.1 282.334 226.655 290.592C234.211 298.851 237.988 310.418 237.988 325.295L237.813 327.052H170.165C170.4 335.486 173.211 342.28 178.599 347.434C183.988 352.588 190.43 355.165 197.927 355.165C208.235 355.165 216.318 350.011 222.175 339.703L236.583 346.731C232.717 353.994 227.358 359.675 220.506 363.775C213.653 367.874 205.893 369.924 197.224 369.924C184.573 369.924 174.148 365.59 165.948 356.922C157.749 348.254 153.649 337.301 153.649 324.065C153.649 310.945 157.632 300.022 165.597 291.295C173.562 282.568 183.753 278.205 196.17 278.205ZM195.819 292.964C189.728 292.964 184.486 294.839 180.093 298.587C175.7 302.336 172.801 307.372 171.395 313.698H220.769C220.301 307.724 217.87 302.775 213.477 298.851C209.085 294.927 203.198 292.964 195.819 292.964Z" fill="url(#paint1_radial_706_710)"/>
<path d="M264.493 366.843H248.377V281.008H263.793V292.92H264.493C266.946 288.716 270.712 285.212 275.792 282.409C280.872 279.606 285.923 278.205 290.945 278.205C297.251 278.205 302.798 279.665 307.586 282.584C312.374 285.504 315.878 289.533 318.097 294.671C325.22 283.694 335.089 278.205 347.701 278.205C357.628 278.205 365.277 281.241 370.649 287.314C376.021 293.387 378.707 302.029 378.707 313.24V366.843H362.591V315.692C362.591 307.634 361.131 301.824 358.212 298.263C355.292 294.701 350.387 292.92 343.497 292.92C337.307 292.92 332.111 295.547 327.906 300.803C323.702 306.058 321.6 312.247 321.6 319.371V366.843H305.484V315.692C305.484 307.634 304.024 301.824 301.105 298.263C298.185 294.701 293.28 292.92 286.39 292.92C280.201 292.92 275.004 295.547 270.8 300.803C266.595 306.058 264.493 312.247 264.493 319.371V366.843Z" fill="url(#paint2_radial_706_710)"/>
<path d="M413.263 251.216C413.263 254.374 412.151 257.064 409.929 259.287C407.706 261.509 405.016 262.621 401.858 262.621C398.7 262.621 396.009 261.509 393.787 259.287C391.564 257.064 390.453 254.374 390.453 251.216C390.453 248.058 391.564 245.367 393.787 243.145C396.009 240.922 398.7 239.811 401.858 239.811C405.016 239.811 407.706 240.922 409.929 243.145C412.151 245.367 413.263 248.058 413.263 251.216ZM409.929 280.868V366.843H393.787V280.868H409.929Z" fill="url(#paint3_linear_706_710)"/>
<path d="M532 251.216C532 254.374 530.889 257.064 528.666 259.287C526.444 261.509 523.753 262.621 520.595 262.621C517.437 262.621 514.747 261.509 512.524 259.287C510.302 257.064 509.19 254.374 509.19 251.216C509.19 248.058 510.302 245.367 512.524 243.145C514.747 240.922 517.437 239.811 520.595 239.811C523.753 239.811 526.444 240.922 528.666 243.145C530.889 245.367 532 248.058 532 251.216ZM528.666 280.868V366.843H512.524V280.868H528.666Z" fill="url(#paint4_radial_706_710)"/>
<path d="M424.004 281.008H439.419V292.92H440.12C442.572 288.716 446.338 285.212 451.418 282.409C456.498 279.606 461.783 278.205 467.272 278.205C477.782 278.205 485.869 281.212 491.533 287.227C497.197 293.241 500.029 301.795 500.029 312.89V366.843H483.913V313.941C483.563 299.927 476.497 292.92 462.717 292.92C456.294 292.92 450.922 295.518 446.601 300.715C442.28 305.912 440.12 312.13 440.12 319.371V366.843H424.004V281.008Z" fill="url(#paint5_linear_706_710)"/>
<path d="M368.374 254.759C365.528 235.972 350.782 221.227 331.995 218.38C350.782 215.533 365.528 200.787 368.374 182C371.221 200.787 385.967 215.533 404.754 218.38C385.967 221.227 371.221 235.972 368.374 254.759Z" fill="#076EFF"/>
<defs>
<radialGradient id="paint0_radial_706_710" cx="0" cy="0" r="1" gradientTransform="matrix(-11287.5 6224.6 -5271.52 -8955.39 -10678 3116.8)" gradientUnits="userSpaceOnUse">
<stop stop-color="#5BAEFF"/>
<stop offset="1" stop-color="#9CBFFF"/>
</radialGradient>
<radialGradient id="paint1_radial_706_710" cx="0" cy="0" r="1" gradientTransform="matrix(-1001.9 6183.26 -7313 -1001.86 -3283.56 4705.01)" gradientUnits="userSpaceOnUse">
<stop stop-color="#409DFF"/>
<stop offset="1" stop-color="#64B0FF"/>
</radialGradient>
<radialGradient id="paint2_radial_706_710" cx="0" cy="0" r="1" gradientTransform="matrix(-2342.89 14022.1 -6485.81 -2342.91 -2318.05 6709.54)" gradientUnits="userSpaceOnUse">
<stop stop-color="#177CFF"/>
<stop offset="1" stop-color="#4DA4FF"/>
</radialGradient>
<linearGradient id="paint3_linear_706_710" x1="1505.55" y1="1358.84" x2="1505.55" y2="12943" gradientUnits="userSpaceOnUse">
<stop stop-color="#076EFF"/>
<stop offset="1" stop-color="#3E93FF"/>
</linearGradient>
<radialGradient id="paint4_radial_706_710" cx="0" cy="0" r="1" gradientTransform="matrix(4948.44 1942.32 -60229.6 4949.59 -2819.13 -310.67)" gradientUnits="userSpaceOnUse">
<stop stop-color="#1C7AFF"/>
<stop offset="1" stop-color="#8FB9FF"/>
</radialGradient>
<linearGradient id="paint5_linear_706_710" x1="1428.83" y1="278.205" x2="7478.78" y2="7754.6" gradientUnits="userSpaceOnUse">
<stop stop-color="#076EFF"/>
<stop offset="1" stop-color="#69A3FF"/>
</linearGradient>
</defs>
</svg>
